<svg version="1.1" baseProfile = "full" width = "18" height = "18" xmlns = "http://www.w3.org/2000/svg">
    <path d="M 0 0 C 0.2 -0.2 0.6 -3.49691e-08 1 0 C 1.4 0 1.6 -3.49691e-08 2 0 C 2.4 0 2.6 -3.49691e-08 3 0 C 3.4 0 3.6 -3.49691e-08 4 0 C 4.4 0 4.6 -3.49691e-08 5 0 C 5.4 0 5.6 -3.49691e-08 6 0 C 6.4 0 6.6 -3.49691e-08 7 0 C 7.4 0 7.6 -3.49691e-08 8 0 C 8.4 0 8.6 -3.49691e-08 9 0 C 9.4 0 9.6 -3.49691e-08 10 0 C 10.4 0 10.6 -3.49691e-08 11 0 C 11.4 0 11.6 -3.49691e-08 12 0 C 12.4 0 12.6 -3.49691e-08 13 0 C 13.4 0 13.6 -3.49691e-08 14 0 C 14.4 0 14.6 -3.49691e-08 15 0 C 15.4 0 15.6 -3.49691e-08 16 0 C 16.4 0 16.6 -3.49691e-08 17 0 C 17.4 0 17.8 -0.2 18 0 C 18.2 0.2 18 0.6 18 1 C 18 1.4 18 1.6 18 2 C 18 2.4 18 2.6 18 3 C 18 3.4 18 3.6 18 4 C 18 4.4 18 4.6 18 5 C 18 5.4 18 5.6 18 6 C 18 6.4 18 6.6 18 7 C 18 7.4 18 7.6 18 8 C 18 8.4 18 8.6 18 9 C 18 9.4 18 9.6 18 10 C 18 10.4 18 10.6 18 11 C 18 11.4 18 11.6 18 12 C 18 12.4 18 12.6 18 13 C 18 13.4 18 13.6 18 14 C 18 14.4 18 14.6 18 15 C 18 15.4 18 15.6 18 16 C 18 16.4 18 16.6 18 17 C 18 17.4 18.2 17.8 18 18 C 17.8 18.2 17.4 18 17 18 C 16.6 18 16.4 18 16 18 C 15.6 18 15.4 18 15 18 C 14.6 18 14.4 18 14 18 C 13.6 18 13.4 18 13 18 C 12.6 18 12.4 18 12 18 C 11.6 18 11.4 18 11 18 C 10.6 18 10.4 18 10 18 C 9.6 18 9.4 18 9 18 C 8.6 18 8.4 18 8 18 C 7.6 18 7.4 18 7 18 C 6.6 18 6.4 18 6 18 C 5.6 18 5.4 18 5 18 C 4.6 18 4.4 18 4 18 C 3.6 18 3.4 18 3 18 C 2.6 18 2.4 18 2 18 C 1.6 18 1.4 18 1 18 C 0.6 18 0.2 18.2 0 18 C -0.2 17.8 3.01992e-08 17.4 0 17 C -1.74846e-08 16.6 3.01992e-08 16.4 0 16 C -1.74846e-08 15.6 3.01992e-08 15.4 0 15 C -1.74846e-08 14.6 3.01992e-08 14.4 0 14 C -1.74846e-08 13.6 3.01992e-08 13.4 0 13 C -1.74846e-08 12.6 3.01992e-08 12.4 0 12 C -1.74846e-08 11.6 3.01992e-08 11.4 0 11 C -1.74846e-08 10.6 3.01992e-08 10.4 0 10 C -1.74846e-08 9.6 3.01992e-08 9.4 0 9 C -1.74846e-08 8.6 3.01992e-08 8.4 0 8 C -1.74846e-08 7.6 3.01992e-08 7.4 0 7 C -1.74846e-08 6.6 3.01992e-08 6.4 0 6 C -1.74846e-08 5.6 3.01992e-08 5.4 0 5 C -1.74846e-08 4.6 3.01992e-08 4.4 0 4 C -1.74846e-08 3.6 3.01992e-08 3.4 0 3 C -1.74846e-08 2.6 3.01992e-08 2.4 0 2 C -1.74846e-08 1.6 3.01992e-08 1.4 0 1 C -1.74846e-08 0.6 -0.2 0.2 0 0 " fill = "rgb(235, 0, 235)" stroke = "rgb(235, 0, 235)" stroke-width = "0"/>
    <path d="M 12.25 1.25 C 12.5 1.1 12.65 1.05 13 1 C 13.35 0.95 13.6 1 14 1 C 14.4 1 14.65 0.95 15 1 C 15.35 1.05 15.5 1.1 15.75 1.25 C 16 1.4 16.05 1.55 16.25 1.75 C 16.45 1.95 16.6 2 16.75 2.25 C 16.9 2.5 16.95 2.65 17 3 C 17.05 3.35 17 3.6 17 4 C 17 4.4 17.05 4.65 17 5 C 16.95 5.35 16.9 5.5 16.75 5.75 C 16.6 6 16.4 6 16.25 6.25 C 16.1 6.5 16.1 6.7 16 7 C 15.9 7.3 15.9 7.5 15.75 7.75 C 15.6 8 15.45 8.05 15.25 8.25 C 15.05 8.45 14.95 8.55 14.75 8.75 C 14.55 8.95 14.45 9.05 14.25 9.25 C 14.05 9.45 13.95 9.55 13.75 9.75 C 13.55 9.95 13.45 10.05 13.25 10.25 C 13.05 10.45 12.95 10.55 12.75 10.75 C 12.55 10.95 12.45 11.05 12.25 11.25 C 12.05 11.45 11.95 11.55 11.75 11.75 C 11.55 11.95 11.45 12.05 11.25 12.25 C 11.05 12.45 10.95 12.55 10.75 12.75 C 10.55 12.95 10.45 13.05 10.25 13.25 C 10.05 13.45 10 13.6 9.75 13.75 C 9.5 13.9 9.3 13.9 9 14 C 8.7 14.1 8.5 14.1 8.25 14.25 C 8 14.4 8 14.6 7.75 14.75 C 7.5 14.9 7.35 14.95 7 15 C 6.65 15.05 6.4 15 6 15 C 5.6 15 5.35 14.95 5 15 C 4.65 15.05 4.5 15.1 4.25 15.25 C 4 15.4 3.95 15.55 3.75 15.75 C 3.55 15.95 3.45 16.05 3.25 16.25 C 3.05 16.45 3 16.6 2.75 16.75 C 2.5 16.9 2.3 17 2 17 C 1.7 17 1.45 16.95 1.25 16.75 C 1.05 16.55 1 16.3 1 16 C 1 15.7 1.1 15.5 1.25 15.25 C 1.4 15 1.55 14.95 1.75 14.75 C 1.95 14.55 2.05 14.45 2.25 14.25 C 2.45 14.05 2.6 14 2.75 13.75 C 2.9 13.5 2.95 13.35 3 13 C 3.05 12.65 3 12.4 3 12 C 3 11.6 2.95 11.35 3 11 C 3.05 10.65 3.1 10.5 3.25 10.25 C 3.4 10 3.6 10 3.75 9.75 C 3.9 9.5 3.9 9.3 4 9 C 4.1 8.7 4.1 8.5 4.25 8.25 C 4.4 8 4.55 7.95 4.75 7.75 C 4.95 7.55 5.05 7.45 5.25 7.25 C 5.45 7.05 5.55 6.95 5.75 6.75 C 5.95 6.55 6.05 6.45 6.25 6.25 C 6.45 6.05 6.55 5.95 6.75 5.75 C 6.95 5.55 7.05 5.45 7.25 5.25 C 7.45 5.05 7.55 4.95 7.75 4.75 C 7.95 4.55 8.05 4.45 8.25 4.25 C 8.45 4.05 8.55 3.95 8.75 3.75 C 8.95 3.55 9.05 3.45 9.25 3.25 C 9.45 3.05 9.55 2.95 9.75 2.75 C 9.95 2.55 10 2.4 10.25 2.25 C 10.5 2.1 10.7 2.1 11 2 C 11.3 1.9 11.5 1.9 11.75 1.75 C 12 1.6 12 1.4 12.25 1.25 " fill = "rgb(0, 4, 0)" stroke = "rgb(0, 4, 0)" stroke-width = "0"/>
    <path d="M 12.25 2.25 C 12.45 2.05 12.7 2 13 2 C 13.3 2 13.5 2.1 13.75 2.25 C 14 2.4 14.05 2.55 14.25 2.75 C 14.45 2.95 14.55 3.05 14.75 3.25 C 14.95 3.45 15.05 3.55 15.25 3.75 C 15.45 3.95 15.6 4 15.75 4.25 C 15.9 4.5 16 4.7 16 5 C 16 5.3 15.95 5.55 15.75 5.75 C 15.55 5.95 15.35 5.95 15 6 C 14.65 6.05 14.4 6 14 6 C 13.6 6 13.35 6.05 13 6 C 12.65 5.95 12.45 5.95 12.25 5.75 C 12.05 5.55 12.05 5.35 12 5 C 11.95 4.65 12 4.4 12 4 C 12 3.6 11.95 3.35 12 3 C 12.05 2.65 12.05 2.45 12.25 2.25 " fill = "rgb(248, 120, 0)" stroke = "rgb(248, 120, 0)" stroke-width = "0"/>
    <path d="M 10.25 3.25 C 10.45 3.05 10.85 2.85 11 3 C 11.15 3.15 11 3.6 11 4 C 11 4.4 11 4.6 11 5 C 11 5.4 10.95 5.65 11 6 C 11.05 6.35 11.05 6.55 11.25 6.75 C 11.45 6.95 11.65 6.95 12 7 C 12.35 7.05 12.6 7 13 7 C 13.4 7 13.6 7 14 7 C 14.4 7 14.85 6.85 15 7 C 15.15 7.15 14.95 7.55 14.75 7.75 C 14.55 7.95 14.35 7.95 14 8 C 13.65 8.05 13.4 8 13 8 C 12.6 8 12.4 8 12 8 C 11.6 8 11.25 8.15 11 8 C 10.75 7.85 10.95 7.45 10.75 7.25 C 10.55 7.05 10.15 7.25 10 7 C 9.85 6.75 10 6.4 10 6 C 10 5.6 10 5.4 10 5 C 10 4.6 9.95 4.35 10 4 C 10.05 3.65 10.05 3.45 10.25 3.25 " fill = "rgb(248, 120, 0)" stroke = "rgb(248, 120, 0)" stroke-width = "0"/>
    <path d="M 11 3 C 11.2 2.8 11.8 2.8 12 3 C 12.2 3.2 12 3.6 12 4 C 12 4.4 11.95 4.65 12 5 C 12.05 5.35 12.05 5.55 12.25 5.75 C 12.45 5.95 12.65 5.95 13 6 C 13.35 6.05 13.6 6 14 6 C 14.4 6 14.8 5.8 15 6 C 15.2 6.2 15.2 6.8 15 7 C 14.8 7.2 14.4 7 14 7 C 13.6 7 13.4 7 13 7 C 12.6 7 12.25 7.15 12 7 C 11.75 6.85 11.95 6.45 11.75 6.25 C 11.55 6.05 11.15 6.25 11 6 C 10.85 5.75 11 5.4 11 5 C 11 4.6 11 4.4 11 4 C 11 3.6 10.8 3.2 11 3 " fill = "rgb(248, 248, 248)" stroke = "rgb(248, 248, 248)" stroke-width = "0"/>
    <path d="M 9.25 4.25 C 9.5 4.1 9.85 3.85 10 4 C 10.15 4.15 10 4.6 10 5 C 10 5.4 10 5.6 10 6 C 10 6.4 10.05 6.65 10 7 C 9.95 7.35 9.9 7.5 9.75 7.75 C 9.6 8 9.45 8.05 9.25 8.25 C 9.05 8.45 8.95 8.55 8.75 8.75 C 8.55 8.95 8.45 9.05 8.25 9.25 C 8.05 9.45 7.95 9.55 7.75 9.75 C 7.55 9.95 7.45 10.05 7.25 10.25 C 7.05 10.45 6.95 10.55 6.75 10.75 C 6.55 10.95 6.45 11.05 6.25 11.25 C 6.05 11.45 5.95 11.55 5.75 11.75 C 5.55 11.95 5.45 12.05 5.25 12.25 C 5.05 12.45 5 12.6 4.75 12.75 C 4.5 12.9 4.15 13.15 4 13 C 3.85 12.85 4 12.4 4 12 C 4 11.6 3.95 11.35 4 11 C 4.05 10.65 4.1 10.5 4.25 10.25 C 4.4 10 4.6 10 4.75 9.75 C 4.9 9.5 4.9 9.3 5 9 C 5.1 8.7 5.1 8.5 5.25 8.25 C 5.4 8 5.55 7.95 5.75 7.75 C 5.95 7.55 6.05 7.45 6.25 7.25 C 6.45 7.05 6.55 6.95 6.75 6.75 C 6.95 6.55 7.05 6.45 7.25 6.25 C 7.45 6.05 7.55 5.95 7.75 5.75 C 7.95 5.55 8.05 5.45 8.25 5.25 C 8.45 5.05 8.55 4.95 8.75 4.75 C 8.95 4.55 9 4.4 9.25 4.25 " fill = "rgb(248, 248, 248)" stroke = "rgb(248, 248, 248)" stroke-width = "0"/>
    <path d="M 11 6 C 11.1 5.9 11.55 6.05 11.75 6.25 C 11.95 6.45 12.1 6.9 12 7 C 11.9 7.1 11.45 6.95 11.25 6.75 C 11.05 6.55 10.9 6.1 11 6 " fill = "rgb(248, 248, 0)" stroke = "rgb(248, 248, 0)" stroke-width = "0"/>
    <path d="M 10 7 C 10.2 6.9 10.55 7.05 10.75 7.25 C 10.95 7.45 11.1 7.8 11 8 C 10.9 8.2 10.5 8.1 10.25 8.25 C 10 8.4 9.95 8.55 9.75 8.75 C 9.55 8.95 9.45 9.05 9.25 9.25 C 9.05 9.45 8.95 9.55 8.75 9.75 C 8.55 9.95 8.45 10.05 8.25 10.25 C 8.05 10.45 7.95 10.55 7.75 10.75 C 7.55 10.95 7.45 11.05 7.25 11.25 C 7.05 11.45 6.95 11.55 6.75 11.75 C 6.55 11.95 6.45 12.05 6.25 12.25 C 6.05 12.45 5.95 12.55 5.75 12.75 C 5.55 12.95 5.4 13 5.25 13.25 C 5.1 13.5 5.2 13.8 5 14 C 4.8 14.2 4.5 14.1 4.25 14.25 C 4 14.4 3.95 14.55 3.75 14.75 C 3.55 14.95 3.45 15.05 3.25 15.25 C 3.05 15.45 2.95 15.65 2.75 15.75 C 2.55 15.85 2.35 15.85 2.25 15.75 C 2.15 15.65 2.15 15.45 2.25 15.25 C 2.35 15.05 2.55 14.95 2.75 14.75 C 2.95 14.55 3.05 14.45 3.25 14.25 C 3.45 14.05 3.6 14 3.75 13.75 C 3.9 13.5 3.8 13.2 4 13 C 4.2 12.8 4.5 12.9 4.75 12.75 C 5 12.6 5.05 12.45 5.25 12.25 C 5.45 12.05 5.55 11.95 5.75 11.75 C 5.95 11.55 6.05 11.45 6.25 11.25 C 6.45 11.05 6.55 10.95 6.75 10.75 C 6.95 10.55 7.05 10.45 7.25 10.25 C 7.45 10.05 7.55 9.95 7.75 9.75 C 7.95 9.55 8.05 9.45 8.25 9.25 C 8.45 9.05 8.55 8.95 8.75 8.75 C 8.95 8.55 9.05 8.45 9.25 8.25 C 9.45 8.05 9.6 8 9.75 7.75 C 9.9 7.5 9.8 7.1 10 7 " fill = "rgb(248, 192, 0)" stroke = "rgb(248, 192, 0)" stroke-width = "0"/>
    <path d="M 10.25 8.25 C 10.5 8.1 10.65 8.05 11 8 C 11.35 7.95 11.6 8 12 8 C 12.4 8 12.6 8 13 8 C 13.4 8 13.85 7.85 14 8 C 14.15 8.15 13.9 8.5 13.75 8.75 C 13.6 9 13.45 9.05 13.25 9.25 C 13.05 9.45 12.95 9.55 12.75 9.75 C 12.55 9.95 12.45 10.05 12.25 10.25 C 12.05 10.45 11.95 10.55 11.75 10.75 C 11.55 10.95 11.45 11.05 11.25 11.25 C 11.05 11.45 10.95 11.55 10.75 11.75 C 10.55 11.95 10.45 12.05 10.25 12.25 C 10.05 12.45 10 12.6 9.75 12.75 C 9.5 12.9 9.3 12.9 9 13 C 8.7 13.1 8.5 13.1 8.25 13.25 C 8 13.4 8 13.6 7.75 13.75 C 7.5 13.9 7.35 13.95 7 14 C 6.65 14.05 6.4 14 6 14 C 5.6 14 5.15 14.15 5 14 C 4.85 13.85 5.1 13.5 5.25 13.25 C 5.4 13 5.55 12.95 5.75 12.75 C 5.95 12.55 6.05 12.45 6.25 12.25 C 6.45 12.05 6.55 11.95 6.75 11.75 C 6.95 11.55 7.05 11.45 7.25 11.25 C 7.45 11.05 7.55 10.95 7.75 10.75 C 7.95 10.55 8.05 10.45 8.25 10.25 C 8.45 10.05 8.55 9.95 8.75 9.75 C 8.95 9.55 9.05 9.45 9.25 9.25 C 9.45 9.05 9.55 8.95 9.75 8.75 C 9.95 8.55 10 8.4 10.25 8.25 " fill = "rgb(248, 248, 248)" stroke = "rgb(248, 248, 248)" stroke-width = "0"/>
</svg>
