<svg version="1.1" baseProfile = "full" width = "23" height = "31" xmlns = "http://www.w3.org/2000/svg">
    <path d="M 0 0 C 0.2 -0.2 0.6 -3.49691e-08 1 0 C 1.4 0 1.6 -3.49691e-08 2 0 C 2.4 0 2.6 -3.49691e-08 3 0 C 3.4 0 3.6 -3.49691e-08 4 0 C 4.4 0 4.6 -3.49691e-08 5 0 C 5.4 0 5.6 -3.49691e-08 6 0 C 6.4 0 6.6 -3.49691e-08 7 0 C 7.4 0 7.6 -3.49691e-08 8 0 C 8.4 0 8.6 -3.49691e-08 9 0 C 9.4 0 9.6 -3.49691e-08 10 0 C 10.4 0 10.6 -3.49691e-08 11 0 C 11.4 0 11.6 -3.49691e-08 12 0 C 12.4 0 12.6 -3.49691e-08 13 0 C 13.4 0 13.6 -3.49691e-08 14 0 C 14.4 0 14.6 -3.49691e-08 15 0 C 15.4 0 15.6 -3.49691e-08 16 0 C 16.4 0 16.6 -3.49691e-08 17 0 C 17.4 0 17.6 -3.49691e-08 18 0 C 18.4 0 18.6 -3.49691e-08 19 0 C 19.4 0 19.6 -3.49691e-08 20 0 C 20.4 0 20.6 -3.49691e-08 21 0 C 21.4 0 21.6 -3.49691e-08 22 0 C 22.4 0 22.8 -0.2 23 0 C 23.2 0.2 23 0.6 23 1 C 23 1.4 23 1.6 23 2 C 23 2.4 23 2.6 23 3 C 23 3.4 23 3.6 23 4 C 23 4.4 23 4.6 23 5 C 23 5.4 23 5.6 23 6 C 23 6.4 23 6.6 23 7 C 23 7.4 23 7.6 23 8 C 23 8.4 23 8.6 23 9 C 23 9.4 23 9.6 23 10 C 23 10.4 23 10.6 23 11 C 23 11.4 23 11.6 23 12 C 23 12.4 23 12.6 23 13 C 23 13.4 23 13.6 23 14 C 23 14.4 23 14.6 23 15 C 23 15.4 23 15.6 23 16 C 23 16.4 23 16.6 23 17 C 23 17.4 23 17.6 23 18 C 23 18.4 23 18.6 23 19 C 23 19.4 23 19.6 23 20 C 23 20.4 23 20.6 23 21 C 23 21.4 23 21.6 23 22 C 23 22.4 23 22.6 23 23 C 23 23.4 23 23.6 23 24 C 23 24.4 23 24.6 23 25 C 23 25.4 23 25.6 23 26 C 23 26.4 23 26.6 23 27 C 23 27.4 23 27.6 23 28 C 23 28.4 23 28.6 23 29 C 23 29.4 23 29.6 23 30 C 23 30.4 23.2 30.8 23 31 C 22.8 31.2 22.4 31 22 31 C 21.6 31 21.4 31 21 31 C 20.6 31 20.4 31 20 31 C 19.6 31 19.4 31 19 31 C 18.6 31 18.4 31 18 31 C 17.6 31 17.4 31 17 31 C 16.6 31 16.4 31 16 31 C 15.6 31 15.4 31 15 31 C 14.6 31 14.4 31 14 31 C 13.6 31 13.4 31 13 31 C 12.6 31 12.4 31 12 31 C 11.6 31 11.4 31 11 31 C 10.6 31 10.4 31 10 31 C 9.6 31 9.4 31 9 31 C 8.6 31 8.4 31 8 31 C 7.6 31 7.4 31 7 31 C 6.6 31 6.4 31 6 31 C 5.6 31 5.4 31 5 31 C 4.6 31 4.4 31 4 31 C 3.6 31 3.4 31 3 31 C 2.6 31 2.4 31 2 31 C 1.6 31 1.4 31 1 31 C 0.6 31 0.2 31.2 0 31 C -0.2 30.8 3.01992e-08 30.4 0 30 C -1.74846e-08 29.6 3.01992e-08 29.4 0 29 C -1.74846e-08 28.6 3.01992e-08 28.4 0 28 C -1.74846e-08 27.6 3.01992e-08 27.4 0 27 C -1.74846e-08 26.6 3.01992e-08 26.4 0 26 C -1.74846e-08 25.6 3.01992e-08 25.4 0 25 C -1.74846e-08 24.6 3.01992e-08 24.4 0 24 C -1.74846e-08 23.6 3.01992e-08 23.4 0 23 C -1.74846e-08 22.6 3.01992e-08 22.4 0 22 C -1.74846e-08 21.6 3.01992e-08 21.4 0 21 C -1.74846e-08 20.6 3.01992e-08 20.4 0 20 C -1.74846e-08 19.6 3.01992e-08 19.4 0 19 C -1.74846e-08 18.6 3.01992e-08 18.4 0 18 C -1.74846e-08 17.6 3.01992e-08 17.4 0 17 C -1.74846e-08 16.6 3.01992e-08 16.4 0 16 C -1.74846e-08 15.6 3.01992e-08 15.4 0 15 C -1.74846e-08 14.6 3.01992e-08 14.4 0 14 C -1.74846e-08 13.6 3.01992e-08 13.4 0 13 C -1.74846e-08 12.6 3.01992e-08 12.4 0 12 C -1.74846e-08 11.6 3.01992e-08 11.4 0 11 C -1.74846e-08 10.6 3.01992e-08 10.4 0 10 C -1.74846e-08 9.6 3.01992e-08 9.4 0 9 C -1.74846e-08 8.6 3.01992e-08 8.4 0 8 C -1.74846e-08 7.6 3.01992e-08 7.4 0 7 C -1.74846e-08 6.6 3.01992e-08 6.4 0 6 C -1.74846e-08 5.6 3.01992e-08 5.4 0 5 C -1.74846e-08 4.6 3.01992e-08 4.4 0 4 C -1.74846e-08 3.6 3.01992e-08 3.4 0 3 C -1.74846e-08 2.6 3.01992e-08 2.4 0 2 C -1.74846e-08 1.6 3.01992e-08 1.4 0 1 C -1.74846e-08 0.6 -0.2 0.2 0 0 " fill = "rgb(255, 255, 255)" stroke = "rgb(255, 255, 255)" stroke-width = "0"/>
    <path d="M 12.25 1.25 C 12.5 1.1 12.9 0.9 13 1 C 13.1 1.1 12.9 1.5 12.75 1.75 C 12.6 2 12.45 2.05 12.25 2.25 C 12.05 2.45 12 2.6 11.75 2.75 C 11.5 2.9 11.1 3.1 11 3 C 10.9 2.9 11.1 2.5 11.25 2.25 C 11.4 2 11.55 1.95 11.75 1.75 C 11.95 1.55 12 1.4 12.25 1.25 " fill = "rgb(240, 245, 249)" stroke = "rgb(240, 245, 249)" stroke-width = "0"/>
    <path d="M 13 1 C 13.25 0.85 13.6 1 14 1 C 14.4 1 14.65 0.95 15 1 C 15.35 1.05 15.55 1.05 15.75 1.25 C 15.95 1.45 16.15 1.85 16 2 C 15.85 2.15 15.4 2 15 2 C 14.6 2 14.35 1.95 14 2 C 13.65 2.05 13.5 2.1 13.25 2.25 C 13 2.4 12.95 2.55 12.75 2.75 C 12.55 2.95 12.35 3.05 12.25 3.25 C 12.15 3.45 12.1 3.6 12.25 3.75 C 12.4 3.9 12.7 4 13 4 C 13.3 4 13.55 3.95 13.75 3.75 C 13.95 3.55 13.75 3.15 14 3 C 14.25 2.85 14.75 2.85 15 3 C 15.25 3.15 15.05 3.55 15.25 3.75 C 15.45 3.95 15.65 3.95 16 4 C 16.35 4.05 16.75 3.85 17 4 C 17.25 4.15 17.1 4.5 17.25 4.75 C 17.4 5 17.55 5.05 17.75 5.25 C 17.95 5.45 18.05 5.65 18.25 5.75 C 18.45 5.85 18.65 5.85 18.75 5.75 C 18.85 5.65 18.85 5.45 18.75 5.25 C 18.65 5.05 18.4 5 18.25 4.75 C 18.1 4.5 17.9 4.1 18 4 C 18.1 3.9 18.5 4.1 18.75 4.25 C 19 4.4 19.05 4.55 19.25 4.75 C 19.45 4.95 19.6 5 19.75 5.25 C 19.9 5.5 19.9 5.7 20 6 C 20.1 6.3 20.1 6.5 20.25 6.75 C 20.4 7 20.6 7 20.75 7.25 C 20.9 7.5 20.95 7.65 21 8 C 21.05 8.35 21 8.6 21 9 C 21 9.4 21 9.6 21 10 C 21 10.4 21 10.6 21 11 C 21 11.4 21 11.6 21 12 C 21 12.4 21 12.6 21 13 C 21 13.4 21.05 13.65 21 14 C 20.95 14.35 20.95 14.55 20.75 14.75 C 20.55 14.95 20.35 14.95 20 15 C 19.65 15.05 19.35 14.95 19 15 C 18.65 15.05 18.45 15.05 18.25 15.25 C 18.05 15.45 18.2 15.8 18 16 C 17.8 16.2 17.45 16.05 17.25 16.25 C 17.05 16.45 17.25 16.85 17 17 C 16.75 17.15 16.2 17.2 16 17 C 15.8 16.8 16 16.4 16 16 C 16 15.6 16 15.4 16 15 C 16 14.6 16 14.4 16 14 C 16 13.6 16 13.4 16 13 C 16 12.6 16.05 12.35 16 12 C 15.95 11.65 15.95 11.45 15.75 11.25 C 15.55 11.05 15.1 11.2 15 11 C 14.9 10.8 15.1 10.5 15.25 10.25 C 15.4 10 15.65 9.95 15.75 9.75 C 15.85 9.55 15.9 9.4 15.75 9.25 C 15.6 9.1 15.35 9.05 15 9 C 14.65 8.95 14.4 9 14 9 C 13.6 9 13.4 9 13 9 C 12.6 9 12.4 9 12 9 C 11.6 9 11.4 9 11 9 C 10.6 9 10.4 9 10 9 C 9.6 9 9.4 9 9 9 C 8.6 9 8.4 9 8 9 C 7.6 9 7.4 9 7 9 C 6.6 9 6.4 9 6 9 C 5.6 9 5.35 8.95 5 9 C 4.65 9.05 4.45 9.05 4.25 9.25 C 4.05 9.45 4.2 9.8 4 10 C 3.8 10.2 3.45 10.05 3.25 10.25 C 3.05 10.45 3.05 10.65 3 11 C 2.95 11.35 3 11.6 3 12 C 3 12.4 3 12.6 3 13 C 3 13.4 3 13.6 3 14 C 3 14.4 3 14.6 3 15 C 3 15.4 3 15.6 3 16 C 3 16.4 3.15 16.85 3 17 C 2.85 17.15 2.45 16.95 2.25 16.75 C 2.05 16.55 2.05 16.35 2 16 C 1.95 15.65 2 15.4 2 15 C 2 14.6 2 14.4 2 14 C 2 13.6 2 13.4 2 13 C 2 12.6 2 12.4 2 12 C 2 11.6 2 11.4 2 11 C 2 10.6 2 10.4 2 10 C 2 9.6 1.95 9.35 2 9 C 2.05 8.65 2.1 8.5 2.25 8.25 C 2.4 8 2.6 8 2.75 7.75 C 2.9 7.5 2.9 7.3 3 7 C 3.1 6.7 3.1 6.5 3.25 6.25 C 3.4 6 3.55 5.95 3.75 5.75 C 3.95 5.55 4 5.4 4.25 5.25 C 4.5 5.1 4.65 5.05 5 5 C 5.35 4.95 5.65 5.05 6 5 C 6.35 4.95 6.5 4.9 6.75 4.75 C 7 4.6 7 4.4 7.25 4.25 C 7.5 4.1 7.8 3.9 8 4 C 8.2 4.1 8.05 4.55 8.25 4.75 C 8.45 4.95 8.65 4.95 9 5 C 9.35 5.05 9.65 5.05 10 5 C 10.35 4.95 10.55 4.95 10.75 4.75 C 10.95 4.55 10.95 4.35 11 4 C 11.05 3.65 10.85 3.25 11 3 C 11.15 2.75 11.5 2.9 11.75 2.75 C 12 2.6 12.05 2.45 12.25 2.25 C 12.45 2.05 12.6 2 12.75 1.75 C 12.9 1.5 12.75 1.15 13 1 " fill = "rgb(201, 201, 239)" stroke = "rgb(201, 201, 239)" stroke-width = "0"/>
    <path d="M 13.25 2.25 C 13.5 2.1 13.85 1.85 14 2 C 14.15 2.15 14.15 2.75 14 3 C 13.85 3.25 13.45 3.05 13.25 3.25 C 13.05 3.45 13.2 3.9 13 4 C 12.8 4.1 12.4 3.9 12.25 3.75 C 12.1 3.6 12.15 3.45 12.25 3.25 C 12.35 3.05 12.55 2.95 12.75 2.75 C 12.95 2.55 13 2.4 13.25 2.25 " fill = "rgb(247, 137, 222)" stroke = "rgb(247, 137, 222)" stroke-width = "0"/>
    <path d="M 14 2 C 14.2 1.8 14.8 1.8 15 2 C 15.2 2.2 15.2 2.8 15 3 C 14.8 3.2 14.2 3.2 14 3 C 13.8 2.8 13.8 2.2 14 2 " fill = "rgb(248, 57, 216)" stroke = "rgb(248, 57, 216)" stroke-width = "0"/>
    <path d="M 15 2 C 15.2 1.8 15.8 1.8 16 2 C 16.2 2.2 16 2.6 16 3 C 16 3.4 16.15 3.85 16 4 C 15.85 4.15 15.45 3.95 15.25 3.75 C 15.05 3.55 15.05 3.35 15 3 C 14.95 2.65 14.8 2.2 15 2 " fill = "rgb(247, 137, 222)" stroke = "rgb(247, 137, 222)" stroke-width = "0"/>
    <path d="M 16 2 C 16.2 1.8 16.65 1.95 17 2 C 17.35 2.05 17.55 2.05 17.75 2.25 C 17.95 2.45 17.95 2.65 18 3 C 18.05 3.35 17.95 3.65 18 4 C 18.05 4.35 18.1 4.5 18.25 4.75 C 18.4 5 18.65 5.05 18.75 5.25 C 18.85 5.45 18.85 5.65 18.75 5.75 C 18.65 5.85 18.45 5.85 18.25 5.75 C 18.05 5.65 17.95 5.45 17.75 5.25 C 17.55 5.05 17.4 5 17.25 4.75 C 17.1 4.5 17.1 4.3 17 4 C 16.9 3.7 16.95 3.45 16.75 3.25 C 16.55 3.05 16.15 3.25 16 3 C 15.85 2.75 15.8 2.2 16 2 " fill = "rgb(240, 245, 249)" stroke = "rgb(240, 245, 249)" stroke-width = "0"/>
    <path d="M 13.25 3.25 C 13.45 3.05 13.9 2.9 14 3 C 14.1 3.1 13.95 3.55 13.75 3.75 C 13.55 3.95 13.1 4.1 13 4 C 12.9 3.9 13.05 3.45 13.25 3.25 " fill = "rgb(240, 245, 249)" stroke = "rgb(240, 245, 249)" stroke-width = "0"/>
    <path d="M 16 3 C 16.15 2.85 16.55 3.05 16.75 3.25 C 16.95 3.45 17.15 3.85 17 4 C 16.85 4.15 16.2 4.2 16 4 C 15.8 3.8 15.85 3.15 16 3 " fill = "rgb(248, 57, 216)" stroke = "rgb(248, 57, 216)" stroke-width = "0"/>
    <path d="M 8 4 C 8.15 3.85 8.6 4 9 4 C 9.4 4 9.6 4 10 4 C 10.4 4 10.85 3.85 11 4 C 11.15 4.15 10.95 4.55 10.75 4.75 C 10.55 4.95 10.35 4.95 10 5 C 9.65 5.05 9.35 5.05 9 5 C 8.65 4.95 8.45 4.95 8.25 4.75 C 8.05 4.55 7.85 4.15 8 4 " fill = "rgb(240, 245, 249)" stroke = "rgb(240, 245, 249)" stroke-width = "0"/>
    <path d="M 20 6 C 20.15 5.85 20.65 5.95 21 6 C 21.35 6.05 21.55 6.05 21.75 6.25 C 21.95 6.45 21.95 6.65 22 7 C 22.05 7.35 22 7.6 22 8 C 22 8.4 22 8.6 22 9 C 22 9.4 22 9.6 22 10 C 22 10.4 22 10.6 22 11 C 22 11.4 22 11.6 22 12 C 22 12.4 22 12.6 22 13 C 22 13.4 22 13.6 22 14 C 22 14.4 22.05 14.65 22 15 C 21.95 15.35 21.95 15.55 21.75 15.75 C 21.55 15.95 21.35 15.95 21 16 C 20.65 16.05 20.4 16 20 16 C 19.6 16 19.4 16 19 16 C 18.6 16 18.15 16.15 18 16 C 17.85 15.85 18.05 15.45 18.25 15.25 C 18.45 15.05 18.65 15.05 19 15 C 19.35 14.95 19.65 15.05 20 15 C 20.35 14.95 20.55 14.95 20.75 14.75 C 20.95 14.55 20.95 14.35 21 14 C 21.05 13.65 21 13.4 21 13 C 21 12.6 21 12.4 21 12 C 21 11.6 21 11.4 21 11 C 21 10.6 21 10.4 21 10 C 21 9.6 21 9.4 21 9 C 21 8.6 21.05 8.35 21 8 C 20.95 7.65 20.9 7.5 20.75 7.25 C 20.6 7 20.4 7 20.25 6.75 C 20.1 6.5 19.85 6.15 20 6 " fill = "rgb(240, 245, 249)" stroke = "rgb(240, 245, 249)" stroke-width = "0"/>
    <path d="M 1.25 7.25 C 1.45 7.05 1.65 7.05 2 7 C 2.35 6.95 2.85 6.85 3 7 C 3.15 7.15 2.9 7.5 2.75 7.75 C 2.6 8 2.4 8 2.25 8.25 C 2.1 8.5 2.05 8.65 2 9 C 1.95 9.35 2 9.6 2 10 C 2 10.4 2 10.6 2 11 C 2 11.4 2 11.6 2 12 C 2 12.4 2 12.6 2 13 C 2 13.4 2 13.6 2 14 C 2 14.4 2 14.6 2 15 C 2 15.4 1.95 15.65 2 16 C 2.05 16.35 2.05 16.55 2.25 16.75 C 2.45 16.95 2.85 16.75 3 17 C 3.15 17.25 3.2 17.8 3 18 C 2.8 18.2 2.35 18.05 2 18 C 1.65 17.95 1.45 17.95 1.25 17.75 C 1.05 17.55 1.05 17.35 1 17 C 0.95 16.65 1 16.4 1 16 C 1 15.6 1 15.4 1 15 C 1 14.6 1 14.4 1 14 C 1 13.6 1 13.4 1 13 C 1 12.6 1 12.4 1 12 C 1 11.6 1 11.4 1 11 C 1 10.6 1 10.4 1 10 C 1 9.6 1 9.4 1 9 C 1 8.6 0.95 8.35 1 8 C 1.05 7.65 1.05 7.45 1.25 7.25 " fill = "rgb(240, 245, 249)" stroke = "rgb(240, 245, 249)" stroke-width = "0"/>
    <path d="M 4.25 9.25 C 4.45 9.05 4.65 9.05 5 9 C 5.35 8.95 5.6 9 6 9 C 6.4 9 6.6 9 7 9 C 7.4 9 7.6 9 8 9 C 8.4 9 8.6 9 9 9 C 9.4 9 9.6 9 10 9 C 10.4 9 10.6 9 11 9 C 11.4 9 11.6 9 12 9 C 12.4 9 12.6 9 13 9 C 13.4 9 13.6 9 14 9 C 14.4 9 14.65 8.95 15 9 C 15.35 9.05 15.6 9.1 15.75 9.25 C 15.9 9.4 15.85 9.55 15.75 9.75 C 15.65 9.95 15.4 10 15.25 10.25 C 15.1 10.5 15.25 10.85 15 11 C 14.75 11.15 14.4 11 14 11 C 13.6 11 13.4 11 13 11 C 12.6 11 12.4 11 12 11 C 11.6 11 11.4 11 11 11 C 10.6 11 10.35 11.05 10 11 C 9.65 10.95 9.5 10.9 9.25 10.75 C 9 10.6 9 10.4 8.75 10.25 C 8.5 10.1 8.35 10.05 8 10 C 7.65 9.95 7.4 10 7 10 C 6.6 10 6.4 10 6 10 C 5.6 10 5.4 10 5 10 C 4.6 10 4.15 10.15 4 10 C 3.85 9.85 4.05 9.45 4.25 9.25 " fill = "rgb(240, 245, 249)" stroke = "rgb(240, 245, 249)" stroke-width = "0"/>
    <path d="M 3.25 10.25 C 3.45 10.05 3.85 9.85 4 10 C 4.15 10.15 4 10.6 4 11 C 4 11.4 4 11.6 4 12 C 4 12.4 4 12.6 4 13 C 4 13.4 4 13.6 4 14 C 4 14.4 4 14.6 4 15 C 4 15.4 4 15.6 4 16 C 4 16.4 4.2 16.8 4 17 C 3.8 17.2 3.2 17.2 3 17 C 2.8 16.8 3 16.4 3 16 C 3 15.6 3 15.4 3 15 C 3 14.6 3 14.4 3 14 C 3 13.6 3 13.4 3 13 C 3 12.6 3 12.4 3 12 C 3 11.6 2.95 11.35 3 11 C 3.05 10.65 3.05 10.45 3.25 10.25 " fill = "rgb(238, 177, 98)" stroke = "rgb(238, 177, 98)" stroke-width = "0"/>
    <path d="M 4 10 C 4.2 9.8 4.8 9.8 5 10 C 5.2 10.2 5.2 10.8 5 11 C 4.8 11.2 4.2 11.2 4 11 C 3.8 10.8 3.8 10.2 4 10 " fill = "rgb(227, 150, 46)" stroke = "rgb(227, 150, 46)" stroke-width = "0"/>
    <path d="M 5 10 C 5.2 9.8 5.75 9.85 6 10 C 6.25 10.15 6.05 10.55 6.25 10.75 C 6.45 10.95 6.7 10.9 7 11 C 7.3 11.1 7.55 11.05 7.75 11.25 C 7.95 11.45 7.9 11.7 8 12 C 8.1 12.3 8.1 12.6 8.25 12.75 C 8.4 12.9 8.55 12.85 8.75 12.75 C 8.95 12.65 9 12.4 9.25 12.25 C 9.5 12.1 9.65 12.05 10 12 C 10.35 11.95 10.8 11.8 11 12 C 11.2 12.2 11 12.6 11 13 C 11 13.4 11 13.6 11 14 C 11 14.4 11 14.6 11 15 C 11 15.4 11 15.6 11 16 C 11 16.4 11 16.6 11 17 C 11 17.4 11 17.6 11 18 C 11 18.4 11.2 18.8 11 19 C 10.8 19.2 10.4 19 10 19 C 9.6 19 9.4 19 9 19 C 8.6 19 8.25 19.15 8 19 C 7.75 18.85 7.9 18.5 7.75 18.25 C 7.6 18 7.4 18 7.25 17.75 C 7.1 17.5 7.05 17.35 7 17 C 6.95 16.65 7 16.4 7 16 C 7 15.6 7 15.4 7 15 C 7 14.6 7 14.4 7 14 C 7 13.6 7.05 13.35 7 13 C 6.95 12.65 6.95 12.45 6.75 12.25 C 6.55 12.05 6.2 12.2 6 12 C 5.8 11.8 5.95 11.45 5.75 11.25 C 5.55 11.05 5.15 11.25 5 11 C 4.85 10.75 4.8 10.2 5 10 " fill = "rgb(238, 177, 98)" stroke = "rgb(238, 177, 98)" stroke-width = "0"/>
    <path d="M 6 10 C 6.15 9.85 6.6 10 7 10 C 7.4 10 7.65 9.95 8 10 C 8.35 10.05 8.5 10.1 8.75 10.25 C 9 10.4 9 10.6 9.25 10.75 C 9.5 10.9 9.65 10.95 10 11 C 10.35 11.05 10.6 11 11 11 C 11.4 11 11.6 11 12 11 C 12.4 11 12.6 11 13 11 C 13.4 11 13.6 11 14 11 C 14.4 11 14.65 10.95 15 11 C 15.35 11.05 15.55 11.05 15.75 11.25 C 15.95 11.45 15.95 11.65 16 12 C 16.05 12.35 16.15 12.85 16 13 C 15.85 13.15 15.5 12.9 15.25 12.75 C 15 12.6 14.95 12.35 14.75 12.25 C 14.55 12.15 14.4 12.1 14.25 12.25 C 14.1 12.4 14.05 12.65 14 13 C 13.95 13.35 14 13.6 14 14 C 14 14.4 14 14.6 14 15 C 14 15.4 14 15.6 14 16 C 14 16.4 14.2 16.8 14 17 C 13.8 17.2 13.2 17.2 13 17 C 12.8 16.8 13 16.4 13 16 C 13 15.6 13 15.4 13 15 C 13 14.6 13 14.4 13 14 C 13 13.6 13.05 13.35 13 13 C 12.95 12.65 12.95 12.45 12.75 12.25 C 12.55 12.05 12.35 12.05 12 12 C 11.65 11.95 11.4 12 11 12 C 10.6 12 10.35 11.95 10 12 C 9.65 12.05 9.5 12.1 9.25 12.25 C 9 12.4 8.95 12.65 8.75 12.75 C 8.55 12.85 8.4 12.9 8.25 12.75 C 8.1 12.6 8.1 12.3 8 12 C 7.9 11.7 7.95 11.45 7.75 11.25 C 7.55 11.05 7.3 11.1 7 11 C 6.7 10.9 6.45 10.95 6.25 10.75 C 6.05 10.55 5.85 10.15 6 10 " fill = "rgb(245, 205, 157)" stroke = "rgb(245, 205, 157)" stroke-width = "0"/>
    <path d="M 4 11 C 4.2 10.8 4.8 10.8 5 11 C 5.2 11.2 5 11.6 5 12 C 5 12.4 5 12.6 5 13 C 5 13.4 5 13.6 5 14 C 5 14.4 5 14.6 5 15 C 5 15.4 5 15.6 5 16 C 5 16.4 5.2 16.8 5 17 C 4.8 17.2 4.2 17.2 4 17 C 3.8 16.8 4 16.4 4 16 C 4 15.6 4 15.4 4 15 C 4 14.6 4 14.4 4 14 C 4 13.6 4 13.4 4 13 C 4 12.6 4 12.4 4 12 C 4 11.6 3.8 11.2 4 11 " fill = "rgb(147, 80, 19)" stroke = "rgb(147, 80, 19)" stroke-width = "0"/>
    <path d="M 5 11 C 5.15 10.85 5.55 11.05 5.75 11.25 C 5.95 11.45 5.95 11.65 6 12 C 6.05 12.35 6 12.6 6 13 C 6 13.4 6 13.6 6 14 C 6 14.4 6 14.6 6 15 C 6 15.4 6 15.6 6 16 C 6 16.4 6.2 16.8 6 17 C 5.8 17.2 5.2 17.2 5 17 C 4.8 16.8 5 16.4 5 16 C 5 15.6 5 15.4 5 15 C 5 14.6 5 14.4 5 14 C 5 13.6 5 13.4 5 13 C 5 12.6 5 12.4 5 12 C 5 11.6 4.85 11.15 5 11 " fill = "rgb(47, 15, 20)" stroke = "rgb(47, 15, 20)" stroke-width = "0"/>
    <path d="M 6 12 C 6.15 11.85 6.55 12.05 6.75 12.25 C 6.95 12.45 6.95 12.65 7 13 C 7.05 13.35 7 13.6 7 14 C 7 14.4 7 14.6 7 15 C 7 15.4 7 15.6 7 16 C 7 16.4 7.2 16.8 7 17 C 6.8 17.2 6.2 17.2 6 17 C 5.8 16.8 6 16.4 6 16 C 6 15.6 6 15.4 6 15 C 6 14.6 6 14.4 6 14 C 6 13.6 6 13.4 6 13 C 6 12.6 5.85 12.15 6 12 " fill = "rgb(227, 150, 46)" stroke = "rgb(227, 150, 46)" stroke-width = "0"/>
    <path d="M 11 12 C 11.2 11.8 11.65 11.95 12 12 C 12.35 12.05 12.55 12.05 12.75 12.25 C 12.95 12.45 13.15 12.85 13 13 C 12.85 13.15 12.4 13 12 13 C 11.6 13 11.2 13.2 11 13 C 10.8 12.8 10.8 12.2 11 12 " fill = "rgb(180, 124, 78)" stroke = "rgb(180, 124, 78)" stroke-width = "0"/>
    <path d="M 14.25 12.25 C 14.4 12.1 14.55 12.15 14.75 12.25 C 14.95 12.35 15 12.6 15.25 12.75 C 15.5 12.9 15.85 12.75 16 13 C 16.15 13.25 16 13.6 16 14 C 16 14.4 16 14.6 16 15 C 16 15.4 16 15.6 16 16 C 16 16.4 16.15 16.75 16 17 C 15.85 17.25 15.45 17.05 15.25 17.25 C 15.05 17.45 15.2 17.8 15 18 C 14.8 18.2 14.45 18.05 14.25 18.25 C 14.05 18.45 14.25 18.85 14 19 C 13.75 19.15 13.2 19.2 13 19 C 12.8 18.8 13 18.4 13 18 C 13 17.6 12.8 17.2 13 17 C 13.2 16.8 13.65 17.05 14 17 C 14.35 16.95 14.55 16.95 14.75 16.75 C 14.95 16.55 14.95 16.35 15 16 C 15.05 15.65 15 15.4 15 15 C 15 14.6 15.05 14.35 15 14 C 14.95 13.65 14.95 13.45 14.75 13.25 C 14.55 13.05 14.1 13.2 14 13 C 13.9 12.8 14.1 12.4 14.25 12.25 " fill = "rgb(238, 177, 98)" stroke = "rgb(238, 177, 98)" stroke-width = "0"/>
    <path d="M 11 13 C 11.2 12.8 11.6 13 12 13 C 12.4 13 12.8 12.8 13 13 C 13.2 13.2 13 13.6 13 14 C 13 14.4 13 14.6 13 15 C 13 15.4 13 15.6 13 16 C 13 16.4 13 16.6 13 17 C 13 17.4 13.2 17.8 13 18 C 12.8 18.2 12.4 18 12 18 C 11.6 18 11.2 18.2 11 18 C 10.8 17.8 10.85 17.25 11 17 C 11.15 16.75 11.55 16.95 11.75 16.75 C 11.95 16.55 11.95 16.35 12 16 C 12.05 15.65 12.05 15.35 12 15 C 11.95 14.65 11.95 14.45 11.75 14.25 C 11.55 14.05 11.15 14.25 11 14 C 10.85 13.75 10.8 13.2 11 13 " fill = "rgb(47, 15, 20)" stroke = "rgb(47, 15, 20)" stroke-width = "0"/>
    <path d="M 14 13 C 14.15 12.85 14.55 13.05 14.75 13.25 C 14.95 13.45 14.95 13.65 15 14 C 15.05 14.35 15 14.6 15 15 C 15 15.4 15.05 15.65 15 16 C 14.95 16.35 14.95 16.55 14.75 16.75 C 14.55 16.95 14.15 17.15 14 17 C 13.85 16.85 14 16.4 14 16 C 14 15.6 14 15.4 14 15 C 14 14.6 14 14.4 14 14 C 14 13.6 13.85 13.15 14 13 " fill = "rgb(227, 150, 46)" stroke = "rgb(227, 150, 46)" stroke-width = "0"/>
    <path d="M 11 14 C 11.15 13.85 11.55 14.05 11.75 14.25 C 11.95 14.45 11.95 14.65 12 15 C 12.05 15.35 12.05 15.65 12 16 C 11.95 16.35 11.95 16.55 11.75 16.75 C 11.55 16.95 11.15 17.15 11 17 C 10.85 16.85 11 16.4 11 16 C 11 15.6 11 15.4 11 15 C 11 14.6 10.85 14.15 11 14 " fill = "rgb(147, 80, 19)" stroke = "rgb(147, 80, 19)" stroke-width = "0"/>
    <path d="M 8.25 15.25 C 8.4 15.1 8.55 15.15 8.75 15.25 C 8.95 15.35 9.05 15.55 9.25 15.75 C 9.45 15.95 9.65 16.05 9.75 16.25 C 9.85 16.45 9.9 16.6 9.75 16.75 C 9.6 16.9 9.3 17 9 17 C 8.7 17 8.45 16.95 8.25 16.75 C 8.05 16.55 8 16.3 8 16 C 8 15.7 8.1 15.4 8.25 15.25 " fill = "rgb(245, 205, 157)" stroke = "rgb(245, 205, 157)" stroke-width = "0"/>
    <path d="M 17.25 16.25 C 17.45 16.05 17.65 16.05 18 16 C 18.35 15.95 18.75 15.85 19 16 C 19.25 16.15 19.05 16.55 19.25 16.75 C 19.45 16.95 19.65 16.95 20 17 C 20.35 17.05 20.8 16.8 21 17 C 21.2 17.2 21.15 17.75 21 18 C 20.85 18.25 20.5 18.1 20.25 18.25 C 20 18.4 19.95 18.55 19.75 18.75 C 19.55 18.95 19.4 19 19.25 19.25 C 19.1 19.5 19.25 19.85 19 20 C 18.75 20.15 18.4 20 18 20 C 17.6 20 17.4 20 17 20 C 16.6 20 16.2 20.2 16 20 C 15.8 19.8 15.95 19.35 16 19 C 16.05 18.65 16.05 18.45 16.25 18.25 C 16.45 18.05 16.8 17.9 17 18 C 17.2 18.1 17.1 18.6 17.25 18.75 C 17.4 18.9 17.6 18.9 17.75 18.75 C 17.9 18.6 18 18.3 18 18 C 18 17.7 17.95 17.45 17.75 17.25 C 17.55 17.05 17.1 17.2 17 17 C 16.9 16.8 17.05 16.45 17.25 16.25 " fill = "rgb(247, 137, 222)" stroke = "rgb(247, 137, 222)" stroke-width = "0"/>
    <path d="M 19 16 C 19.15 15.85 19.8 15.8 20 16 C 20.2 16.2 20.15 16.85 20 17 C 19.85 17.15 19.45 16.95 19.25 16.75 C 19.05 16.55 18.85 16.15 19 16 " fill = "rgb(223, 168, 241)" stroke = "rgb(223, 168, 241)" stroke-width = "0"/>
    <path d="M 3 17 C 3.2 16.8 3.8 16.8 4 17 C 4.2 17.2 4.2 17.8 4 18 C 3.8 18.2 3.2 18.2 3 18 C 2.8 17.8 2.8 17.2 3 17 " fill = "rgb(202, 196, 168)" stroke = "rgb(202, 196, 168)" stroke-width = "0"/>
    <path d="M 4 17 C 4.2 16.8 4.8 16.8 5 17 C 5.2 17.2 5.2 17.8 5 18 C 4.8 18.2 4.2 18.2 4 18 C 3.8 17.8 3.8 17.2 4 17 " fill = "rgb(169, 150, 136)" stroke = "rgb(169, 150, 136)" stroke-width = "0"/>
    <path d="M 5 17 C 5.2 16.8 5.8 16.8 6 17 C 6.2 17.2 6.2 17.8 6 18 C 5.8 18.2 5.2 18.2 5 18 C 4.8 17.8 4.8 17.2 5 17 " fill = "rgb(143, 130, 137)" stroke = "rgb(143, 130, 137)" stroke-width = "0"/>
    <path d="M 6 17 C 6.2 16.8 6.75 16.85 7 17 C 7.25 17.15 7.1 17.5 7.25 17.75 C 7.4 18 7.6 18 7.75 18.25 C 7.9 18.5 8.1 18.9 8 19 C 7.9 19.1 7.5 18.9 7.25 18.75 C 7 18.6 7 18.4 6.75 18.25 C 6.5 18.1 6.15 18.25 6 18 C 5.85 17.75 5.8 17.2 6 17 " fill = "rgb(245, 205, 157)" stroke = "rgb(245, 205, 157)" stroke-width = "0"/>
    <path d="M 15.25 17.25 C 15.45 17.05 15.9 16.9 16 17 C 16.1 17.1 15.95 17.55 15.75 17.75 C 15.55 17.95 15.1 18.1 15 18 C 14.9 17.9 15.05 17.45 15.25 17.25 " fill = "rgb(220, 177, 187)" stroke = "rgb(220, 177, 187)" stroke-width = "0"/>
    <path d="M 16 17 C 16.25 16.85 16.8 16.8 17 17 C 17.2 17.2 17.15 17.75 17 18 C 16.85 18.25 16.45 18.05 16.25 18.25 C 16.05 18.45 16.05 18.65 16 19 C 15.95 19.35 16.2 19.8 16 20 C 15.8 20.2 15.2 20.2 15 20 C 14.8 19.8 15 19.4 15 19 C 15 18.6 14.85 18.25 15 18 C 15.15 17.75 15.55 17.95 15.75 17.75 C 15.95 17.55 15.75 17.15 16 17 " fill = "rgb(223, 168, 241)" stroke = "rgb(223, 168, 241)" stroke-width = "0"/>
    <path d="M 17 17 C 17.15 16.85 17.55 17.05 17.75 17.25 C 17.95 17.45 18 17.7 18 18 C 18 18.3 17.9 18.6 17.75 18.75 C 17.6 18.9 17.4 18.9 17.25 18.75 C 17.1 18.6 17.05 18.35 17 18 C 16.95 17.65 16.85 17.15 17 17 " fill = "rgb(240, 245, 249)" stroke = "rgb(240, 245, 249)" stroke-width = "0"/>
    <path d="M 21 17 C 21.15 16.85 21.55 17.05 21.75 17.25 C 21.95 17.45 21.95 17.65 22 18 C 22.05 18.35 22.05 18.65 22 19 C 21.95 19.35 21.95 19.55 21.75 19.75 C 21.55 19.95 21.15 20.15 21 20 C 20.85 19.85 21 19.4 21 19 C 21 18.6 21 18.4 21 18 C 21 17.6 20.85 17.15 21 17 " fill = "rgb(240, 245, 249)" stroke = "rgb(240, 245, 249)" stroke-width = "0"/>
    <path d="M 3 18 C 3.2 17.8 3.8 17.8 4 18 C 4.2 18.2 4.2 18.8 4 19 C 3.8 19.2 3.2 19.2 3 19 C 2.8 18.8 2.8 18.2 3 18 " fill = "rgb(201, 201, 239)" stroke = "rgb(201, 201, 239)" stroke-width = "0"/>
    <path d="M 4 18 C 4.2 17.8 4.8 17.8 5 18 C 5.2 18.2 5.2 18.8 5 19 C 4.8 19.2 4.2 19.2 4 19 C 3.8 18.8 3.8 18.2 4 18 " fill = "rgb(223, 168, 241)" stroke = "rgb(223, 168, 241)" stroke-width = "0"/>
    <path d="M 5 18 C 5.2 17.8 5.8 17.8 6 18 C 6.2 18.2 6.2 18.8 6 19 C 5.8 19.2 5.2 19.2 5 19 C 4.8 18.8 4.8 18.2 5 18 " fill = "rgb(240, 245, 249)" stroke = "rgb(240, 245, 249)" stroke-width = "0"/>
    <path d="M 6 18 C 6.15 17.85 6.5 18.1 6.75 18.25 C 7 18.4 7 18.6 7.25 18.75 C 7.5 18.9 7.65 18.95 8 19 C 8.35 19.05 8.8 18.8 9 19 C 9.2 19.2 9.2 19.8 9 20 C 8.8 20.2 8.4 20 8 20 C 7.6 20 7.4 20 7 20 C 6.6 20 6.2 20.2 6 20 C 5.8 19.8 6 19.4 6 19 C 6 18.6 5.85 18.15 6 18 " fill = "rgb(201, 201, 239)" stroke = "rgb(201, 201, 239)" stroke-width = "0"/>
    <path d="M 11 18 C 11.2 17.8 11.8 17.8 12 18 C 12.2 18.2 12.2 18.8 12 19 C 11.8 19.2 11.2 19.2 11 19 C 10.8 18.8 10.8 18.2 11 18 " fill = "rgb(180, 124, 78)" stroke = "rgb(180, 124, 78)" stroke-width = "0"/>
    <path d="M 12 18 C 12.2 17.8 12.8 17.8 13 18 C 13.2 18.2 13.2 18.8 13 19 C 12.8 19.2 12.2 19.2 12 19 C 11.8 18.8 11.8 18.2 12 18 " fill = "rgb(141, 78, 76)" stroke = "rgb(141, 78, 76)" stroke-width = "0"/>
    <path d="M 14.25 18.25 C 14.45 18.05 14.85 17.85 15 18 C 15.15 18.15 15 18.6 15 19 C 15 19.4 15.2 19.8 15 20 C 14.8 20.2 14.2 20.2 14 20 C 13.8 19.8 13.95 19.35 14 19 C 14.05 18.65 14.05 18.45 14.25 18.25 " fill = "rgb(201, 201, 239)" stroke = "rgb(201, 201, 239)" stroke-width = "0"/>
    <path d="M 20.25 18.25 C 20.5 18.1 20.85 17.85 21 18 C 21.15 18.15 21.15 18.75 21 19 C 20.85 19.25 20.45 19.05 20.25 19.25 C 20.05 19.45 20.25 19.85 20 20 C 19.75 20.15 19.15 20.15 19 20 C 18.85 19.85 19.1 19.5 19.25 19.25 C 19.4 19 19.55 18.95 19.75 18.75 C 19.95 18.55 20 18.4 20.25 18.25 " fill = "rgb(248, 57, 216)" stroke = "rgb(248, 57, 216)" stroke-width = "0"/>
    <path d="M 3 19 C 3.15 18.85 3.6 19 4 19 C 4.4 19 4.6 19 5 19 C 5.4 19 5.8 18.8 6 19 C 6.2 19.2 6.15 19.75 6 20 C 5.85 20.25 5.45 20.05 5.25 20.25 C 5.05 20.45 5.25 20.85 5 21 C 4.75 21.15 4.25 21.15 4 21 C 3.75 20.85 3.9 20.5 3.75 20.25 C 3.6 20 3.4 20 3.25 19.75 C 3.1 19.5 2.85 19.15 3 19 " fill = "rgb(247, 137, 222)" stroke = "rgb(247, 137, 222)" stroke-width = "0"/>
    <path d="M 9 19 C 9.2 18.8 9.6 19 10 19 C 10.4 19 10.6 19 11 19 C 11.4 19 11.6 19 12 19 C 12.4 19 12.6 19 13 19 C 13.4 19 13.8 18.8 14 19 C 14.2 19.2 14.2 19.8 14 20 C 13.8 20.2 13.4 20 13 20 C 12.6 20 12.4 20 12 20 C 11.6 20 11.4 20 11 20 C 10.6 20 10.4 20 10 20 C 9.6 20 9.2 20.2 9 20 C 8.8 19.8 8.8 19.2 9 19 " fill = "rgb(240, 245, 249)" stroke = "rgb(240, 245, 249)" stroke-width = "0"/>
    <path d="M 20.25 19.25 C 20.45 19.05 20.85 18.85 21 19 C 21.15 19.15 21.2 19.8 21 20 C 20.8 20.2 20.15 20.15 20 20 C 19.85 19.85 20.05 19.45 20.25 19.25 " fill = "rgb(228, 42, 186)" stroke = "rgb(228, 42, 186)" stroke-width = "0"/>
    <path d="M 5.25 20.25 C 5.45 20.05 5.85 19.85 6 20 C 6.15 20.15 6.2 20.8 6 21 C 5.8 21.2 5.15 21.15 5 21 C 4.85 20.85 5.05 20.45 5.25 20.25 " fill = "rgb(248, 57, 216)" stroke = "rgb(248, 57, 216)" stroke-width = "0"/>
    <path d="M 6 20 C 6.2 19.8 6.8 19.8 7 20 C 7.2 20.2 7.2 20.8 7 21 C 6.8 21.2 6.2 21.2 6 21 C 5.8 20.8 5.8 20.2 6 20 " fill = "rgb(223, 168, 241)" stroke = "rgb(223, 168, 241)" stroke-width = "0"/>
    <path d="M 7 20 C 7.2 19.8 7.8 19.8 8 20 C 8.2 20.2 8.2 20.8 8 21 C 7.8 21.2 7.2 21.2 7 21 C 6.8 20.8 6.8 20.2 7 20 " fill = "rgb(9, 107, 231)" stroke = "rgb(9, 107, 231)" stroke-width = "0"/>
    <path d="M 8 20 C 8.2 19.8 8.75 19.85 9 20 C 9.25 20.15 9.05 20.55 9.25 20.75 C 9.45 20.95 9.65 20.95 10 21 C 10.35 21.05 10.6 21 11 21 C 11.4 21 11.65 21.05 12 21 C 12.35 20.95 12.55 20.95 12.75 20.75 C 12.95 20.55 12.75 20.15 13 20 C 13.25 19.85 13.75 19.85 14 20 C 14.25 20.15 14.05 20.55 14.25 20.75 C 14.45 20.95 14.85 20.75 15 21 C 15.15 21.25 15.2 21.8 15 22 C 14.8 22.2 14.4 22 14 22 C 13.6 22 13.4 22 13 22 C 12.6 22 12.4 22 12 22 C 11.6 22 11.4 22 11 22 C 10.6 22 10.4 22 10 22 C 9.6 22 9.4 22 9 22 C 8.6 22 8.2 22.2 8 22 C 7.8 21.8 8 21.4 8 21 C 8 20.6 7.8 20.2 8 20 " fill = "rgb(0, 51, 243)" stroke = "rgb(0, 51, 243)" stroke-width = "0"/>
    <path d="M 9 20 C 9.15 19.85 9.6 20 10 20 C 10.4 20 10.6 20 11 20 C 11.4 20 11.6 20 12 20 C 12.4 20 12.85 19.85 13 20 C 13.15 20.15 12.95 20.55 12.75 20.75 C 12.55 20.95 12.35 20.95 12 21 C 11.65 21.05 11.4 21 11 21 C 10.6 21 10.35 21.05 10 21 C 9.65 20.95 9.45 20.95 9.25 20.75 C 9.05 20.55 8.85 20.15 9 20 " fill = "rgb(9, 107, 231)" stroke = "rgb(9, 107, 231)" stroke-width = "0"/>
    <path d="M 14 20 C 14.15 19.85 14.8 19.8 15 20 C 15.2 20.2 15.15 20.85 15 21 C 14.85 21.15 14.45 20.95 14.25 20.75 C 14.05 20.55 13.85 20.15 14 20 " fill = "rgb(0, 0, 203)" stroke = "rgb(0, 0, 203)" stroke-width = "0"/>
    <path d="M 15 20 C 15.2 19.8 15.8 19.8 16 20 C 16.2 20.2 16.2 20.8 16 21 C 15.8 21.2 15.2 21.2 15 21 C 14.8 20.8 14.8 20.2 15 20 " fill = "rgb(79, 145, 240)" stroke = "rgb(79, 145, 240)" stroke-width = "0"/>
    <path d="M 16 20 C 16.2 19.8 16.85 19.85 17 20 C 17.15 20.15 16.95 20.55 16.75 20.75 C 16.55 20.95 16.15 21.15 16 21 C 15.85 20.85 15.8 20.2 16 20 " fill = "rgb(240, 245, 249)" stroke = "rgb(240, 245, 249)" stroke-width = "0"/>
    <path d="M 17 20 C 17.25 19.85 17.8 19.8 18 20 C 18.2 20.2 18.15 20.75 18 21 C 17.85 21.25 17.45 21.05 17.25 21.25 C 17.05 21.45 17.05 21.65 17 22 C 16.95 22.35 17.2 22.8 17 23 C 16.8 23.2 16.2 23.2 16 23 C 15.8 22.8 16 22.4 16 22 C 16 21.6 15.85 21.25 16 21 C 16.15 20.75 16.55 20.95 16.75 20.75 C 16.95 20.55 16.75 20.15 17 20 " fill = "rgb(248, 57, 216)" stroke = "rgb(248, 57, 216)" stroke-width = "0"/>
    <path d="M 18 20 C 18.2 19.8 18.8 19.8 19 20 C 19.2 20.2 19.2 20.8 19 21 C 18.8 21.2 18.2 21.2 18 21 C 17.8 20.8 17.8 20.2 18 20 " fill = "rgb(220, 2, 167)" stroke = "rgb(220, 2, 167)" stroke-width = "0"/>
    <path d="M 19 20 C 19.2 19.8 19.8 19.8 20 20 C 20.2 20.2 20.2 20.8 20 21 C 19.8 21.2 19.2 21.2 19 21 C 18.8 20.8 18.8 20.2 19 20 " fill = "rgb(226, 104, 186)" stroke = "rgb(226, 104, 186)" stroke-width = "0"/>
    <path d="M 4 21 C 4.15 20.85 4.6 21 5 21 C 5.4 21 5.6 21 6 21 C 6.4 21 6.8 20.8 7 21 C 7.2 21.2 7.2 21.8 7 22 C 6.8 22.2 6.4 22 6 22 C 5.6 22 5.35 22.05 5 22 C 4.65 21.95 4.45 21.95 4.25 21.75 C 4.05 21.55 3.85 21.15 4 21 " fill = "rgb(240, 245, 249)" stroke = "rgb(240, 245, 249)" stroke-width = "0"/>
    <path d="M 7 21 C 7.2 20.8 7.8 20.8 8 21 C 8.2 21.2 8.2 21.8 8 22 C 7.8 22.2 7.2 22.2 7 22 C 6.8 21.8 6.8 21.2 7 21 " fill = "rgb(79, 145, 240)" stroke = "rgb(79, 145, 240)" stroke-width = "0"/>
    <path d="M 15 21 C 15.2 20.8 15.8 20.8 16 21 C 16.2 21.2 16.2 21.8 16 22 C 15.8 22.2 15.2 22.2 15 22 C 14.8 21.8 14.8 21.2 15 21 " fill = "rgb(82, 27, 207)" stroke = "rgb(82, 27, 207)" stroke-width = "0"/>
    <path d="M 17.25 21.25 C 17.45 21.05 17.65 21.05 18 21 C 18.35 20.95 18.6 21 19 21 C 19.4 21 19.85 20.85 20 21 C 20.15 21.15 19.9 21.5 19.75 21.75 C 19.6 22 19.4 22 19.25 22.25 C 19.1 22.5 19.05 22.65 19 23 C 18.95 23.35 19 23.6 19 24 C 19 24.4 19.2 24.8 19 25 C 18.8 25.2 18.2 25.2 18 25 C 17.8 24.8 18 24.4 18 24 C 18 23.6 18.05 23.35 18 23 C 17.95 22.65 17.95 22.45 17.75 22.25 C 17.55 22.05 17.1 22.2 17 22 C 16.9 21.8 17.05 21.45 17.25 21.25 " fill = "rgb(240, 245, 249)" stroke = "rgb(240, 245, 249)" stroke-width = "0"/>
    <path d="M 7 22 C 7.2 21.8 7.8 21.8 8 22 C 8.2 22.2 8.2 22.8 8 23 C 7.8 23.2 7.2 23.2 7 23 C 6.8 22.8 6.8 22.2 7 22 " fill = "rgb(94, 112, 124)" stroke = "rgb(94, 112, 124)" stroke-width = "0"/>
    <path d="M 8 22 C 8.2 21.8 8.8 21.8 9 22 C 9.2 22.2 9.2 22.8 9 23 C 8.8 23.2 8.2 23.2 8 23 C 7.8 22.8 7.8 22.2 8 22 " fill = "rgb(47, 15, 20)" stroke = "rgb(47, 15, 20)" stroke-width = "0"/>
    <path d="M 9 22 C 9.2 21.8 9.6 22 10 22 C 10.4 22 10.8 21.8 11 22 C 11.2 22.2 11.2 22.8 11 23 C 10.8 23.2 10.4 23 10 23 C 9.6 23 9.2 23.2 9 23 C 8.8 22.8 8.8 22.2 9 22 " fill = "rgb(200, 222, 60)" stroke = "rgb(200, 222, 60)" stroke-width = "0"/>
    <path d="M 11 22 C 11.2 21.8 11.85 21.85 12 22 C 12.15 22.15 11.95 22.55 11.75 22.75 C 11.55 22.95 11.15 23.15 11 23 C 10.85 22.85 10.8 22.2 11 22 " fill = "rgb(123, 114, 71)" stroke = "rgb(123, 114, 71)" stroke-width = "0"/>
    <path d="M 12 22 C 12.25 21.85 12.6 22 13 22 C 13.4 22 13.6 22 14 22 C 14.4 22 14.8 21.8 15 22 C 15.2 22.2 15.2 22.8 15 23 C 14.8 23.2 14.35 22.95 14 23 C 13.65 23.05 13.45 23.05 13.25 23.25 C 13.05 23.45 13.25 23.85 13 24 C 12.75 24.15 12.4 24 12 24 C 11.6 24 11.2 24.2 11 24 C 10.8 23.8 10.85 23.25 11 23 C 11.15 22.75 11.55 22.95 11.75 22.75 C 11.95 22.55 11.75 22.15 12 22 " fill = "rgb(47, 15, 20)" stroke = "rgb(47, 15, 20)" stroke-width = "0"/>
    <path d="M 15 22 C 15.2 21.8 15.8 21.8 16 22 C 16.2 22.2 16.2 22.8 16 23 C 15.8 23.2 15.2 23.2 15 23 C 14.8 22.8 14.8 22.2 15 22 " fill = "rgb(108, 16, 108)" stroke = "rgb(108, 16, 108)" stroke-width = "0"/>
    <path d="M 17 22 C 17.15 21.85 17.55 22.05 17.75 22.25 C 17.95 22.45 18.15 22.85 18 23 C 17.85 23.15 17.2 23.2 17 23 C 16.8 22.8 16.85 22.15 17 22 " fill = "rgb(228, 42, 186)" stroke = "rgb(228, 42, 186)" stroke-width = "0"/>
    <path d="M 4.25 23.25 C 4.5 23.1 4.65 23.05 5 23 C 5.35 22.95 5.85 22.85 6 23 C 6.15 23.15 5.95 23.55 5.75 23.75 C 5.55 23.95 5.3 23.9 5 24 C 4.7 24.1 4.5 24.1 4.25 24.25 C 4 24.4 4 24.6 3.75 24.75 C 3.5 24.9 3.1 25.1 3 25 C 2.9 24.9 3.1 24.5 3.25 24.25 C 3.4 24 3.55 23.95 3.75 23.75 C 3.95 23.55 4 23.4 4.25 23.25 " fill = "rgb(240, 245, 249)" stroke = "rgb(240, 245, 249)" stroke-width = "0"/>
    <path d="M 6 23 C 6.25 22.85 6.75 22.85 7 23 C 7.25 23.15 7.05 23.55 7.25 23.75 C 7.45 23.95 7.65 23.95 8 24 C 8.35 24.05 8.8 23.8 9 24 C 9.2 24.2 9 24.6 9 25 C 9 25.4 8.95 25.65 9 26 C 9.05 26.35 9.05 26.55 9.25 26.75 C 9.45 26.95 9.8 26.8 10 27 C 10.2 27.2 10.1 27.6 10.25 27.75 C 10.4 27.9 10.6 27.9 10.75 27.75 C 10.9 27.6 10.95 27.35 11 27 C 11.05 26.65 10.8 26.2 11 26 C 11.2 25.8 11.8 25.8 12 26 C 12.2 26.2 12 26.6 12 27 C 12 27.4 12.15 27.75 12 28 C 11.85 28.25 11.5 28.1 11.25 28.25 C 11 28.4 10.95 28.55 10.75 28.75 C 10.55 28.95 10.4 29 10.25 29.25 C 10.1 29.5 10.25 29.85 10 30 C 9.75 30.15 9.4 30 9 30 C 8.6 30 8.4 30 8 30 C 7.6 30 7.4 30 7 30 C 6.6 30 6.25 30.15 6 30 C 5.75 29.85 5.9 29.5 5.75 29.25 C 5.6 29 5.45 28.95 5.25 28.75 C 5.05 28.55 4.95 28.45 4.75 28.25 C 4.55 28.05 4.45 27.95 4.25 27.75 C 4.05 27.55 4 27.4 3.75 27.25 C 3.5 27.1 3.15 27.25 3 27 C 2.85 26.75 3 26.4 3 26 C 3 25.6 2.85 25.25 3 25 C 3.15 24.75 3.5 24.9 3.75 24.75 C 4 24.6 4 24.4 4.25 24.25 C 4.5 24.1 4.7 24.1 5 24 C 5.3 23.9 5.55 23.95 5.75 23.75 C 5.95 23.55 5.75 23.15 6 23 " fill = "rgb(247, 137, 222)" stroke = "rgb(247, 137, 222)" stroke-width = "0"/>
    <path d="M 7 23 C 7.15 22.85 7.8 22.8 8 23 C 8.2 23.2 8.15 23.85 8 24 C 7.85 24.15 7.45 23.95 7.25 23.75 C 7.05 23.55 6.85 23.15 7 23 " fill = "rgb(182, 96, 144)" stroke = "rgb(182, 96, 144)" stroke-width = "0"/>
    <path d="M 8 23 C 8.2 22.8 8.8 22.8 9 23 C 9.2 23.2 9.2 23.8 9 24 C 8.8 24.2 8.2 24.2 8 24 C 7.8 23.8 7.8 23.2 8 23 " fill = "rgb(141, 78, 76)" stroke = "rgb(141, 78, 76)" stroke-width = "0"/>
    <path d="M 9 23 C 9.2 22.8 9.8 22.8 10 23 C 10.2 23.2 10.2 23.8 10 24 C 9.8 24.2 9.2 24.2 9 24 C 8.8 23.8 8.8 23.2 9 23 " fill = "rgb(255, 255, 110)" stroke = "rgb(255, 255, 110)" stroke-width = "0"/>
    <path d="M 10 23 C 10.2 22.8 10.8 22.8 11 23 C 11.2 23.2 11.2 23.8 11 24 C 10.8 24.2 10.2 24.2 10 24 C 9.8 23.8 9.8 23.2 10 23 " fill = "rgb(168, 202, 96)" stroke = "rgb(168, 202, 96)" stroke-width = "0"/>
    <path d="M 13.25 23.25 C 13.45 23.05 13.85 22.85 14 23 C 14.15 23.15 14.2 23.8 14 24 C 13.8 24.2 13.15 24.15 13 24 C 12.85 23.85 13.05 23.45 13.25 23.25 " fill = "rgb(125, 91, 94)" stroke = "rgb(125, 91, 94)" stroke-width = "0"/>
    <path d="M 14 23 C 14.2 22.8 14.8 22.8 15 23 C 15.2 23.2 15.2 23.8 15 24 C 14.8 24.2 14.2 24.2 14 24 C 13.8 23.8 13.8 23.2 14 23 " fill = "rgb(123, 114, 71)" stroke = "rgb(123, 114, 71)" stroke-width = "0"/>
    <path d="M 15 23 C 15.2 22.8 15.85 22.85 16 23 C 16.15 23.15 15.95 23.55 15.75 23.75 C 15.55 23.95 15.15 24.15 15 24 C 14.85 23.85 14.8 23.2 15 23 " fill = "rgb(182, 96, 144)" stroke = "rgb(182, 96, 144)" stroke-width = "0"/>
    <path d="M 16 23 C 16.25 22.85 16.8 22.8 17 23 C 17.2 23.2 17.15 23.75 17 24 C 16.85 24.25 16.4 24.1 16.25 24.25 C 16.1 24.4 16.15 24.55 16.25 24.75 C 16.35 24.95 16.65 25.05 16.75 25.25 C 16.85 25.45 16.9 25.6 16.75 25.75 C 16.6 25.9 16.3 25.9 16 26 C 15.7 26.1 15.45 26.05 15.25 26.25 C 15.05 26.45 15.25 26.85 15 27 C 14.75 27.15 14.2 27.2 14 27 C 13.8 26.8 14 26.4 14 26 C 14 25.6 14 25.4 14 25 C 14 24.6 13.8 24.2 14 24 C 14.2 23.8 14.65 24.05 15 24 C 15.35 23.95 15.55 23.95 15.75 23.75 C 15.95 23.55 15.75 23.15 16 23 " fill = "rgb(247, 137, 222)" stroke = "rgb(247, 137, 222)" stroke-width = "0"/>
    <path d="M 17 23 C 17.2 22.8 17.8 22.8 18 23 C 18.2 23.2 18 23.6 18 24 C 18 24.4 18.15 24.85 18 25 C 17.85 25.15 17.45 24.95 17.25 24.75 C 17.05 24.55 17.05 24.35 17 24 C 16.95 23.65 16.8 23.2 17 23 " fill = "rgb(220, 2, 167)" stroke = "rgb(220, 2, 167)" stroke-width = "0"/>
    <path d="M 9 24 C 9.2 23.8 9.75 23.85 10 24 C 10.25 24.15 10.05 24.55 10.25 24.75 C 10.45 24.95 10.65 24.95 11 25 C 11.35 25.05 11.6 25 12 25 C 12.4 25 12.8 24.8 13 25 C 13.2 25.2 13.2 25.8 13 26 C 12.8 26.2 12.4 26 12 26 C 11.6 26 11.4 26 11 26 C 10.6 26 10.25 26.15 10 26 C 9.75 25.85 9.95 25.45 9.75 25.25 C 9.55 25.05 9.15 25.25 9 25 C 8.85 24.75 8.8 24.2 9 24 " fill = "rgb(240, 245, 249)" stroke = "rgb(240, 245, 249)" stroke-width = "0"/>
    <path d="M 10 24 C 10.15 23.85 10.8 23.8 11 24 C 11.2 24.2 11.15 24.85 11 25 C 10.85 25.15 10.45 24.95 10.25 24.75 C 10.05 24.55 9.85 24.15 10 24 " fill = "rgb(57, 103, 250)" stroke = "rgb(57, 103, 250)" stroke-width = "0"/>
    <path d="M 11 24 C 11.2 23.8 11.8 23.8 12 24 C 12.2 24.2 12.2 24.8 12 25 C 11.8 25.2 11.2 25.2 11 25 C 10.8 24.8 10.8 24.2 11 24 " fill = "rgb(9, 107, 231)" stroke = "rgb(9, 107, 231)" stroke-width = "0"/>
    <path d="M 12 24 C 12.2 23.8 12.8 23.8 13 24 C 13.2 24.2 13.2 24.8 13 25 C 12.8 25.2 12.2 25.2 12 25 C 11.8 24.8 11.8 24.2 12 24 " fill = "rgb(57, 103, 250)" stroke = "rgb(57, 103, 250)" stroke-width = "0"/>
    <path d="M 13 24 C 13.2 23.8 13.8 23.8 14 24 C 14.2 24.2 14.2 24.8 14 25 C 13.8 25.2 13.2 25.2 13 25 C 12.8 24.8 12.8 24.2 13 24 " fill = "rgb(223, 168, 241)" stroke = "rgb(223, 168, 241)" stroke-width = "0"/>
    <path d="M 16.25 24.25 C 16.4 24.1 16.8 23.9 17 24 C 17.2 24.1 17.05 24.55 17.25 24.75 C 17.45 24.95 17.85 24.75 18 25 C 18.15 25.25 18.15 25.75 18 26 C 17.85 26.25 17.5 26.1 17.25 26.25 C 17 26.4 17 26.6 16.75 26.75 C 16.5 26.9 16.35 26.95 16 27 C 15.65 27.05 15.15 27.15 15 27 C 14.85 26.85 15.05 26.45 15.25 26.25 C 15.45 26.05 15.7 26.1 16 26 C 16.3 25.9 16.6 25.9 16.75 25.75 C 16.9 25.6 16.85 25.45 16.75 25.25 C 16.65 25.05 16.35 24.95 16.25 24.75 C 16.15 24.55 16.1 24.4 16.25 24.25 " fill = "rgb(248, 57, 216)" stroke = "rgb(248, 57, 216)" stroke-width = "0"/>
    <path d="M 5.25 25.25 C 5.4 25.1 5.7 25 6 25 C 6.3 25 6.6 25.1 6.75 25.25 C 6.9 25.4 6.9 25.6 6.75 25.75 C 6.6 25.9 6.3 26 6 26 C 5.7 26 5.4 25.9 5.25 25.75 C 5.1 25.6 5.1 25.4 5.25 25.25 " fill = "rgb(240, 245, 249)" stroke = "rgb(240, 245, 249)" stroke-width = "0"/>
    <path d="M 9 25 C 9.15 24.85 9.55 25.05 9.75 25.25 C 9.95 25.45 9.95 25.65 10 26 C 10.05 26.35 10.15 26.85 10 27 C 9.85 27.15 9.45 26.95 9.25 26.75 C 9.05 26.55 9.05 26.35 9 26 C 8.95 25.65 8.85 25.15 9 25 " fill = "rgb(248, 57, 216)" stroke = "rgb(248, 57, 216)" stroke-width = "0"/>
    <path d="M 13 25 C 13.2 24.8 13.8 24.8 14 25 C 14.2 25.2 14.2 25.8 14 26 C 13.8 26.2 13.2 26.2 13 26 C 12.8 25.8 12.8 25.2 13 25 " fill = "rgb(248, 57, 216)" stroke = "rgb(248, 57, 216)" stroke-width = "0"/>
    <path d="M 18 25 C 18.2 24.8 18.8 24.8 19 25 C 19.2 25.2 19.2 25.8 19 26 C 18.8 26.2 18.2 26.2 18 26 C 17.8 25.8 17.8 25.2 18 25 " fill = "rgb(247, 137, 222)" stroke = "rgb(247, 137, 222)" stroke-width = "0"/>
    <path d="M 4.25 26.25 C 4.35 26.15 4.65 26.15 4.75 26.25 C 4.85 26.35 4.85 26.65 4.75 26.75 C 4.65 26.85 4.35 26.85 4.25 26.75 C 4.15 26.65 4.15 26.35 4.25 26.25 " fill = "rgb(248, 57, 216)" stroke = "rgb(248, 57, 216)" stroke-width = "0"/>
    <path d="M 10 26 C 10.2 25.8 10.8 25.8 11 26 C 11.2 26.2 11.05 26.65 11 27 C 10.95 27.35 10.9 27.6 10.75 27.75 C 10.6 27.9 10.4 27.9 10.25 27.75 C 10.1 27.6 10.05 27.35 10 27 C 9.95 26.65 9.8 26.2 10 26 " fill = "rgb(220, 2, 167)" stroke = "rgb(220, 2, 167)" stroke-width = "0"/>
    <path d="M 17.25 26.25 C 17.5 26.1 17.65 26.05 18 26 C 18.35 25.95 18.85 25.85 19 26 C 19.15 26.15 18.9 26.5 18.75 26.75 C 18.6 27 18.45 27.05 18.25 27.25 C 18.05 27.45 18 27.6 17.75 27.75 C 17.5 27.9 17.35 27.95 17 28 C 16.65 28.05 16.4 28 16 28 C 15.6 28 15.35 28.05 15 28 C 14.65 27.95 14.45 27.95 14.25 27.75 C 14.05 27.55 13.85 27.15 14 27 C 14.15 26.85 14.6 27 15 27 C 15.4 27 15.65 27.05 16 27 C 16.35 26.95 16.5 26.9 16.75 26.75 C 17 26.6 17 26.4 17.25 26.25 " fill = "rgb(240, 245, 249)" stroke = "rgb(240, 245, 249)" stroke-width = "0"/>
    <path d="M 3 27 C 3.1 26.9 3.5 27.1 3.75 27.25 C 4 27.4 4.05 27.55 4.25 27.75 C 4.45 27.95 4.55 28.05 4.75 28.25 C 4.95 28.45 5.05 28.55 5.25 28.75 C 5.45 28.95 5.6 29 5.75 29.25 C 5.9 29.5 6.1 29.9 6 30 C 5.9 30.1 5.5 29.9 5.25 29.75 C 5 29.6 4.95 29.45 4.75 29.25 C 4.55 29.05 4.45 28.95 4.25 28.75 C 4.05 28.55 3.95 28.45 3.75 28.25 C 3.55 28.05 3.4 28 3.25 27.75 C 3.1 27.5 2.9 27.1 3 27 " fill = "rgb(240, 245, 249)" stroke = "rgb(240, 245, 249)" stroke-width = "0"/>
    <path d="M 5.25 27.25 C 5.35 27.15 5.65 27.15 5.75 27.25 C 5.85 27.35 5.85 27.65 5.75 27.75 C 5.65 27.85 5.35 27.85 5.25 27.75 C 5.15 27.65 5.15 27.35 5.25 27.25 " fill = "rgb(220, 2, 167)" stroke = "rgb(220, 2, 167)" stroke-width = "0"/>
    <path d="M 6.25 28.25 C 6.4 28.1 6.65 28.05 7 28 C 7.35 27.95 7.6 28 8 28 C 8.4 28 8.65 27.95 9 28 C 9.35 28.05 9.6 28.1 9.75 28.25 C 9.9 28.4 9.9 28.6 9.75 28.75 C 9.6 28.9 9.35 28.95 9 29 C 8.65 29.05 8.4 29 8 29 C 7.6 29 7.35 29.05 7 29 C 6.65 28.95 6.4 28.9 6.25 28.75 C 6.1 28.6 6.1 28.4 6.25 28.25 " fill = "rgb(228, 42, 186)" stroke = "rgb(228, 42, 186)" stroke-width = "0"/>
    <path d="M 11.25 28.25 C 11.5 28.1 11.9 27.9 12 28 C 12.1 28.1 11.9 28.5 11.75 28.75 C 11.6 29 11.45 29.05 11.25 29.25 C 11.05 29.45 11 29.6 10.75 29.75 C 10.5 29.9 10.1 30.1 10 30 C 9.9 29.9 10.1 29.5 10.25 29.25 C 10.4 29 10.55 28.95 10.75 28.75 C 10.95 28.55 11 28.4 11.25 28.25 " fill = "rgb(240, 245, 249)" stroke = "rgb(240, 245, 249)" stroke-width = "0"/>
</svg>
