<svg version="1.1" baseProfile = "full" width = "40" height = "49" xmlns = "http://www.w3.org/2000/svg">
    <path d="M 0 0 C 0.2 -0.2 0.6 -3.49691e-08 1 0 C 1.4 0 1.6 -3.49691e-08 2 0 C 2.4 0 2.6 -3.49691e-08 3 0 C 3.4 0 3.6 -3.49691e-08 4 0 C 4.4 0 4.6 -3.49691e-08 5 0 C 5.4 0 5.6 -3.49691e-08 6 0 C 6.4 0 6.6 -3.49691e-08 7 0 C 7.4 0 7.6 -3.49691e-08 8 0 C 8.4 0 8.6 -3.49691e-08 9 0 C 9.4 0 9.6 -3.49691e-08 10 0 C 10.4 0 10.6 -3.49691e-08 11 0 C 11.4 0 11.6 -3.49691e-08 12 0 C 12.4 0 12.6 -3.49691e-08 13 0 C 13.4 0 13.6 -3.49691e-08 14 0 C 14.4 0 14.6 -3.49691e-08 15 0 C 15.4 0 15.6 -3.49691e-08 16 0 C 16.4 0 16.6 -3.49691e-08 17 0 C 17.4 0 17.6 -3.49691e-08 18 0 C 18.4 0 18.6 -3.49691e-08 19 0 C 19.4 0 19.6 -3.49691e-08 20 0 C 20.4 0 20.6 -3.49691e-08 21 0 C 21.4 0 21.6 -3.49691e-08 22 0 C 22.4 0 22.6 -3.49691e-08 23 0 C 23.4 0 23.6 -3.49691e-08 24 0 C 24.4 0 24.6 -3.49691e-08 25 0 C 25.4 0 25.6 -3.49691e-08 26 0 C 26.4 0 26.6 -3.49691e-08 27 0 C 27.4 0 27.6 -3.49691e-08 28 0 C 28.4 0 28.6 -3.49691e-08 29 0 C 29.4 0 29.6 -3.49691e-08 30 0 C 30.4 0 30.6 -3.49691e-08 31 0 C 31.4 0 31.6 -3.49691e-08 32 0 C 32.4 0 32.6 -3.49691e-08 33 0 C 33.4 0 33.6 -3.49691e-08 34 0 C 34.4 0 34.6 -3.49691e-08 35 0 C 35.4 0 35.6 -3.49691e-08 36 0 C 36.4 0 36.6 -3.49691e-08 37 0 C 37.4 0 37.6 -3.49691e-08 38 0 C 38.4 0 38.6 -3.49691e-08 39 0 C 39.4 0 39.8 -0.2 40 0 C 40.2 0.2 40 0.6 40 1 C 40 1.4 40 1.6 40 2 C 40 2.4 40 2.6 40 3 C 40 3.4 40 3.6 40 4 C 40 4.4 40 4.6 40 5 C 40 5.4 40 5.6 40 6 C 40 6.4 40 6.6 40 7 C 40 7.4 40 7.6 40 8 C 40 8.4 40 8.6 40 9 C 40 9.4 40 9.6 40 10 C 40 10.4 40 10.6 40 11 C 40 11.4 40 11.6 40 12 C 40 12.4 40 12.6 40 13 C 40 13.4 40 13.6 40 14 C 40 14.4 40 14.6 40 15 C 40 15.4 40 15.6 40 16 C 40 16.4 40 16.6 40 17 C 40 17.4 40 17.6 40 18 C 40 18.4 40 18.6 40 19 C 40 19.4 40 19.6 40 20 C 40 20.4 40 20.6 40 21 C 40 21.4 40 21.6 40 22 C 40 22.4 40 22.6 40 23 C 40 23.4 40 23.6 40 24 C 40 24.4 40 24.6 40 25 C 40 25.4 40 25.6 40 26 C 40 26.4 40 26.6 40 27 C 40 27.4 40 27.6 40 28 C 40 28.4 40 28.6 40 29 C 40 29.4 40 29.6 40 30 C 40 30.4 40 30.6 40 31 C 40 31.4 40 31.6 40 32 C 40 32.4 40 32.6 40 33 C 40 33.4 40 33.6 40 34 C 40 34.4 40 34.6 40 35 C 40 35.4 40 35.6 40 36 C 40 36.4 40 36.6 40 37 C 40 37.4 40 37.6 40 38 C 40 38.4 40 38.6 40 39 C 40 39.4 40 39.6 40 40 C 40 40.4 40 40.6 40 41 C 40 41.4 40 41.6 40 42 C 40 42.4 40 42.6 40 43 C 40 43.4 40 43.6 40 44 C 40 44.4 40 44.6 40 45 C 40 45.4 40 45.6 40 46 C 40 46.4 40 46.6 40 47 C 40 47.4 40 47.6 40 48 C 40 48.4 40.2 48.8 40 49 C 39.8 49.2 39.4 49 39 49 C 38.6 49 38.4 49 38 49 C 37.6 49 37.4 49 37 49 C 36.6 49 36.4 49 36 49 C 35.6 49 35.4 49 35 49 C 34.6 49 34.4 49 34 49 C 33.6 49 33.4 49 33 49 C 32.6 49 32.4 49 32 49 C 31.6 49 31.4 49 31 49 C 30.6 49 30.4 49 30 49 C 29.6 49 29.4 49 29 49 C 28.6 49 28.4 49 28 49 C 27.6 49 27.4 49 27 49 C 26.6 49 26.4 49 26 49 C 25.6 49 25.4 49 25 49 C 24.6 49 24.4 49 24 49 C 23.6 49 23.4 49 23 49 C 22.6 49 22.4 49 22 49 C 21.6 49 21.4 49 21 49 C 20.6 49 20.4 49 20 49 C 19.6 49 19.4 49 19 49 C 18.6 49 18.4 49 18 49 C 17.6 49 17.4 49 17 49 C 16.6 49 16.4 49 16 49 C 15.6 49 15.4 49 15 49 C 14.6 49 14.4 49 14 49 C 13.6 49 13.4 49 13 49 C 12.6 49 12.4 49 12 49 C 11.6 49 11.4 49 11 49 C 10.6 49 10.4 49 10 49 C 9.6 49 9.4 49 9 49 C 8.6 49 8.4 49 8 49 C 7.6 49 7.4 49 7 49 C 6.6 49 6.4 49 6 49 C 5.6 49 5.4 49 5 49 C 4.6 49 4.4 49 4 49 C 3.6 49 3.4 49 3 49 C 2.6 49 2.4 49 2 49 C 1.6 49 1.4 49 1 49 C 0.6 49 0.2 49.2 0 49 C -0.2 48.8 3.01992e-08 48.4 0 48 C -1.74846e-08 47.6 3.01992e-08 47.4 0 47 C -1.74846e-08 46.6 3.01992e-08 46.4 0 46 C -1.74846e-08 45.6 3.01992e-08 45.4 0 45 C -1.74846e-08 44.6 3.01992e-08 44.4 0 44 C -1.74846e-08 43.6 3.01992e-08 43.4 0 43 C -1.74846e-08 42.6 3.01992e-08 42.4 0 42 C -1.74846e-08 41.6 3.01992e-08 41.4 0 41 C -1.74846e-08 40.6 3.01992e-08 40.4 0 40 C -1.74846e-08 39.6 3.01992e-08 39.4 0 39 C -1.74846e-08 38.6 3.01992e-08 38.4 0 38 C -1.74846e-08 37.6 3.01992e-08 37.4 0 37 C -1.74846e-08 36.6 3.01992e-08 36.4 0 36 C -1.74846e-08 35.6 3.01992e-08 35.4 0 35 C -1.74846e-08 34.6 3.01992e-08 34.4 0 34 C -1.74846e-08 33.6 3.01992e-08 33.4 0 33 C -1.74846e-08 32.6 3.01992e-08 32.4 0 32 C -1.74846e-08 31.6 3.01992e-08 31.4 0 31 C -1.74846e-08 30.6 3.01992e-08 30.4 0 30 C -1.74846e-08 29.6 3.01992e-08 29.4 0 29 C -1.74846e-08 28.6 3.01992e-08 28.4 0 28 C -1.74846e-08 27.6 3.01992e-08 27.4 0 27 C -1.74846e-08 26.6 3.01992e-08 26.4 0 26 C -1.74846e-08 25.6 3.01992e-08 25.4 0 25 C -1.74846e-08 24.6 3.01992e-08 24.4 0 24 C -1.74846e-08 23.6 3.01992e-08 23.4 0 23 C -1.74846e-08 22.6 3.01992e-08 22.4 0 22 C -1.74846e-08 21.6 3.01992e-08 21.4 0 21 C -1.74846e-08 20.6 3.01992e-08 20.4 0 20 C -1.74846e-08 19.6 3.01992e-08 19.4 0 19 C -1.74846e-08 18.6 3.01992e-08 18.4 0 18 C -1.74846e-08 17.6 3.01992e-08 17.4 0 17 C -1.74846e-08 16.6 3.01992e-08 16.4 0 16 C -1.74846e-08 15.6 3.01992e-08 15.4 0 15 C -1.74846e-08 14.6 3.01992e-08 14.4 0 14 C -1.74846e-08 13.6 3.01992e-08 13.4 0 13 C -1.74846e-08 12.6 3.01992e-08 12.4 0 12 C -1.74846e-08 11.6 3.01992e-08 11.4 0 11 C -1.74846e-08 10.6 3.01992e-08 10.4 0 10 C -1.74846e-08 9.6 3.01992e-08 9.4 0 9 C -1.74846e-08 8.6 3.01992e-08 8.4 0 8 C -1.74846e-08 7.6 3.01992e-08 7.4 0 7 C -1.74846e-08 6.6 3.01992e-08 6.4 0 6 C -1.74846e-08 5.6 3.01992e-08 5.4 0 5 C -1.74846e-08 4.6 3.01992e-08 4.4 0 4 C -1.74846e-08 3.6 3.01992e-08 3.4 0 3 C -1.74846e-08 2.6 3.01992e-08 2.4 0 2 C -1.74846e-08 1.6 3.01992e-08 1.4 0 1 C -1.74846e-08 0.6 -0.2 0.2 0 0 " fill = "rgb(255, 255, 255)" stroke = "rgb(255, 255, 255)" stroke-width = "0"/>
    <path d="M 7.25 1.25 C 7.45 1.05 7.65 1.05 8 1 C 8.35 0.95 8.65 0.95 9 1 C 9.35 1.05 9.55 1.05 9.75 1.25 C 9.95 1.45 10.15 1.85 10 2 C 9.85 2.15 9.35 1.95 9 2 C 8.65 2.05 8.45 2.05 8.25 2.25 C 8.05 2.45 8 2.7 8 3 C 8 3.3 8.05 3.55 8.25 3.75 C 8.45 3.95 8.85 3.75 9 4 C 9.15 4.25 9 4.6 9 5 C 9 5.4 9.2 5.8 9 6 C 8.8 6.2 8.4 6 8 6 C 7.6 6 7.2 6.2 7 6 C 6.8 5.8 7 5.4 7 5 C 7 4.6 7 4.4 7 4 C 7 3.6 7 3.4 7 3 C 7 2.6 6.95 2.35 7 2 C 7.05 1.65 7.05 1.45 7.25 1.25 " fill = "rgb(194, 226, 194)" stroke = "rgb(194, 226, 194)" stroke-width = "0"/>
    <path d="M 12.25 1.25 C 12.45 1.05 12.7 1 13 1 C 13.3 1 13.55 1.05 13.75 1.25 C 13.95 1.45 14.15 1.85 14 2 C 13.85 2.15 13.4 2 13 2 C 12.6 2 12.15 2.15 12 2 C 11.85 1.85 12.05 1.45 12.25 1.25 " fill = "rgb(95, 120, 95)" stroke = "rgb(95, 120, 95)" stroke-width = "0"/>
    <path d="M 8.25 2.25 C 8.45 2.05 8.85 1.85 9 2 C 9.15 2.15 9 2.6 9 3 C 9 3.4 9.15 3.85 9 4 C 8.85 4.15 8.45 3.95 8.25 3.75 C 8.05 3.55 8 3.3 8 3 C 8 2.7 8.05 2.45 8.25 2.25 " fill = "rgb(9, 54, 13)" stroke = "rgb(9, 54, 13)" stroke-width = "0"/>
    <path d="M 9 2 C 9.2 1.8 9.8 1.8 10 2 C 10.2 2.2 10 2.6 10 3 C 10 3.4 10 3.6 10 4 C 10 4.4 10.2 4.8 10 5 C 9.8 5.2 9.2 5.2 9 5 C 8.8 4.8 9 4.4 9 4 C 9 3.6 9 3.4 9 3 C 9 2.6 8.8 2.2 9 2 " fill = "rgb(95, 120, 95)" stroke = "rgb(95, 120, 95)" stroke-width = "0"/>
    <path d="M 12 2 C 12.2 1.8 12.8 1.8 13 2 C 13.2 2.2 13.2 2.8 13 3 C 12.8 3.2 12.2 3.2 12 3 C 11.8 2.8 11.8 2.2 12 2 " fill = "rgb(145, 177, 145)" stroke = "rgb(145, 177, 145)" stroke-width = "0"/>
    <path d="M 13 2 C 13.2 1.8 13.8 1.8 14 2 C 14.2 2.2 14.2 2.8 14 3 C 13.8 3.2 13.2 3.2 13 3 C 12.8 2.8 12.8 2.2 13 2 " fill = "rgb(9, 54, 13)" stroke = "rgb(9, 54, 13)" stroke-width = "0"/>
    <path d="M 5.25 3.25 C 5.45 3.05 5.65 3.05 6 3 C 6.35 2.95 6.8 2.8 7 3 C 7.2 3.2 7.2 3.8 7 4 C 6.8 4.2 6.4 4 6 4 C 5.6 4 5.15 4.15 5 4 C 4.85 3.85 5.05 3.45 5.25 3.25 " fill = "rgb(248, 254, 248)" stroke = "rgb(248, 254, 248)" stroke-width = "0"/>
    <path d="M 10 3 C 10.15 2.85 10.55 3.05 10.75 3.25 C 10.95 3.45 11.15 3.85 11 4 C 10.85 4.15 10.2 4.2 10 4 C 9.8 3.8 9.85 3.15 10 3 " fill = "rgb(194, 226, 194)" stroke = "rgb(194, 226, 194)" stroke-width = "0"/>
    <path d="M 12 3 C 12.2 2.8 12.6 3 13 3 C 13.4 3 13.85 2.85 14 3 C 14.15 3.15 13.95 3.55 13.75 3.75 C 13.55 3.95 13.35 3.95 13 4 C 12.65 4.05 12.2 4.2 12 4 C 11.8 3.8 11.8 3.2 12 3 " fill = "rgb(95, 120, 95)" stroke = "rgb(95, 120, 95)" stroke-width = "0"/>
    <path d="M 14 3 C 14.25 2.85 14.65 2.95 15 3 C 15.35 3.05 15.55 3.05 15.75 3.25 C 15.95 3.45 15.95 3.65 16 4 C 16.05 4.35 16.2 4.8 16 5 C 15.8 5.2 15.25 5.15 15 5 C 14.75 4.85 14.9 4.4 14.75 4.25 C 14.6 4.1 14.45 4.15 14.25 4.25 C 14.05 4.35 14 4.6 13.75 4.75 C 13.5 4.9 13.35 4.95 13 5 C 12.65 5.05 12.2 5.2 12 5 C 11.8 4.8 11.8 4.2 12 4 C 12.2 3.8 12.65 4.05 13 4 C 13.35 3.95 13.55 3.95 13.75 3.75 C 13.95 3.55 13.75 3.15 14 3 " fill = "rgb(194, 226, 194)" stroke = "rgb(194, 226, 194)" stroke-width = "0"/>
    <path d="M 5 4 C 5.2 3.8 5.8 3.8 6 4 C 6.2 4.2 5.95 4.65 6 5 C 6.05 5.35 6.05 5.55 6.25 5.75 C 6.45 5.95 6.85 5.75 7 6 C 7.15 6.25 7.2 6.8 7 7 C 6.8 7.2 6.25 7.15 6 7 C 5.75 6.85 5.95 6.45 5.75 6.25 C 5.55 6.05 5.15 6.25 5 6 C 4.85 5.75 5 5.4 5 5 C 5 4.6 4.8 4.2 5 4 " fill = "rgb(95, 120, 95)" stroke = "rgb(95, 120, 95)" stroke-width = "0"/>
    <path d="M 6 4 C 6.2 3.8 6.8 3.8 7 4 C 7.2 4.2 7 4.6 7 5 C 7 5.4 7.15 5.85 7 6 C 6.85 6.15 6.45 5.95 6.25 5.75 C 6.05 5.55 6.05 5.35 6 5 C 5.95 4.65 5.8 4.2 6 4 " fill = "rgb(9, 54, 13)" stroke = "rgb(9, 54, 13)" stroke-width = "0"/>
    <path d="M 10 4 C 10.2 3.8 10.8 3.8 11 4 C 11.2 4.2 10.95 4.65 11 5 C 11.05 5.35 11.05 5.55 11.25 5.75 C 11.45 5.95 11.7 6 12 6 C 12.3 6 12.55 5.95 12.75 5.75 C 12.95 5.55 12.8 5.2 13 5 C 13.2 4.8 13.5 4.9 13.75 4.75 C 14 4.6 14.05 4.35 14.25 4.25 C 14.45 4.15 14.6 4.1 14.75 4.25 C 14.9 4.4 14.9 4.7 15 5 C 15.1 5.3 15.05 5.55 15.25 5.75 C 15.45 5.95 15.65 5.95 16 6 C 16.35 6.05 16.6 6 17 6 C 17.4 6 17.75 5.85 18 6 C 18.25 6.15 18.1 6.5 18.25 6.75 C 18.4 7 18.6 7 18.75 7.25 C 18.9 7.5 18.95 7.65 19 8 C 19.05 8.35 18.95 8.65 19 9 C 19.05 9.35 19.1 9.5 19.25 9.75 C 19.4 10 19.6 10 19.75 10.25 C 19.9 10.5 19.95 10.65 20 11 C 20.05 11.35 20.2 11.8 20 12 C 19.8 12.2 19.2 12.2 19 12 C 18.8 11.8 19.05 11.35 19 11 C 18.95 10.65 18.95 10.45 18.75 10.25 C 18.55 10.05 18.15 10.25 18 10 C 17.85 9.75 18.05 9.35 18 9 C 17.95 8.65 17.9 8.5 17.75 8.25 C 17.6 8 17.45 7.95 17.25 7.75 C 17.05 7.55 17 7.4 16.75 7.25 C 16.5 7.1 16.35 7.05 16 7 C 15.65 6.95 15.4 7 15 7 C 14.6 7 14.4 7 14 7 C 13.6 7 13.4 7 13 7 C 12.6 7 12.4 7 12 7 C 11.6 7 11.35 6.95 11 7 C 10.65 7.05 10.45 7.05 10.25 7.25 C 10.05 7.45 10.2 7.8 10 8 C 9.8 8.2 9.45 8.05 9.25 8.25 C 9.05 8.45 9.1 8.7 9 9 C 8.9 9.3 8.9 9.5 8.75 9.75 C 8.6 10 8.4 10 8.25 10.25 C 8.1 10.5 8.05 10.65 8 11 C 7.95 11.35 8 11.6 8 12 C 8 12.4 7.95 12.65 8 13 C 8.05 13.35 8.1 13.5 8.25 13.75 C 8.4 14 8.55 14.05 8.75 14.25 C 8.95 14.45 9 14.6 9.25 14.75 C 9.5 14.9 9.85 14.75 10 15 C 10.15 15.25 10 15.6 10 16 C 10 16.4 9.95 16.65 10 17 C 10.05 17.35 10.1 17.6 10.25 17.75 C 10.4 17.9 10.55 17.85 10.75 17.75 C 10.95 17.65 11 17.4 11.25 17.25 C 11.5 17.1 11.65 17.05 12 17 C 12.35 16.95 12.6 17 13 17 C 13.4 17 13.8 16.8 14 17 C 14.2 17.2 14 17.6 14 18 C 14 18.4 14.15 18.75 14 19 C 13.85 19.25 13.5 19.1 13.25 19.25 C 13 19.4 12.95 19.65 12.75 19.75 C 12.55 19.85 12.45 19.85 12.25 19.75 C 12.05 19.65 11.95 19.35 11.75 19.25 C 11.55 19.15 11.35 19.15 11.25 19.25 C 11.15 19.35 11.15 19.55 11.25 19.75 C 11.35 19.95 11.55 20.05 11.75 20.25 C 11.95 20.45 12.05 20.55 12.25 20.75 C 12.45 20.95 12.65 21.05 12.75 21.25 C 12.85 21.45 12.85 21.55 12.75 21.75 C 12.65 21.95 12.45 22.05 12.25 22.25 C 12.05 22.45 11.95 22.55 11.75 22.75 C 11.55 22.95 11.4 23 11.25 23.25 C 11.1 23.5 11.1 23.7 11 24 C 10.9 24.3 10.9 24.5 10.75 24.75 C 10.6 25 10.45 25.05 10.25 25.25 C 10.05 25.45 10 25.6 9.75 25.75 C 9.5 25.9 9.3 26 9 26 C 8.7 26 8.5 25.9 8.25 25.75 C 8 25.6 8 25.4 7.75 25.25 C 7.5 25.1 7.15 25.25 7 25 C 6.85 24.75 7 24.4 7 24 C 7 23.6 7.05 23.35 7 23 C 6.95 22.65 6.95 22.45 6.75 22.25 C 6.55 22.05 6.2 22.2 6 22 C 5.8 21.8 5.95 21.45 5.75 21.25 C 5.55 21.05 5.35 21.05 5 21 C 4.65 20.95 4.35 20.95 4 21 C 3.65 21.05 3.45 21.05 3.25 21.25 C 3.05 21.45 3.05 21.65 3 22 C 2.95 22.35 3 22.6 3 23 C 3 23.4 2.95 23.65 3 24 C 3.05 24.35 3.05 24.55 3.25 24.75 C 3.45 24.95 3.85 24.75 4 25 C 4.15 25.25 3.95 25.65 4 26 C 4.05 26.35 4.1 26.5 4.25 26.75 C 4.4 27 4.55 27.05 4.75 27.25 C 4.95 27.45 5.05 27.55 5.25 27.75 C 5.45 27.95 5.6 28 5.75 28.25 C 5.9 28.5 5.9 28.7 6 29 C 6.1 29.3 6.05 29.55 6.25 29.75 C 6.45 29.95 6.65 29.95 7 30 C 7.35 30.05 7.6 30 8 30 C 8.4 30 8.65 30.05 9 30 C 9.35 29.95 9.5 29.9 9.75 29.75 C 10 29.6 10.05 29.45 10.25 29.25 C 10.45 29.05 10.55 28.95 10.75 28.75 C 10.95 28.55 11.05 28.45 11.25 28.25 C 11.45 28.05 11.6 28 11.75 27.75 C 11.9 27.5 12 27.3 12 27 C 12 26.7 11.9 26.5 11.75 26.25 C 11.6 26 11.35 25.95 11.25 25.75 C 11.15 25.55 11.15 25.45 11.25 25.25 C 11.35 25.05 11.55 24.95 11.75 24.75 C 11.95 24.55 12 24.4 12.25 24.25 C 12.5 24.1 12.7 24 13 24 C 13.3 24 13.55 24.05 13.75 24.25 C 13.95 24.45 13.9 24.7 14 25 C 14.1 25.3 14.1 25.5 14.25 25.75 C 14.4 26 14.6 26 14.75 26.25 C 14.9 26.5 14.95 26.65 15 27 C 15.05 27.35 14.95 27.65 15 28 C 15.05 28.35 15.05 28.55 15.25 28.75 C 15.45 28.95 15.7 28.9 16 29 C 16.3 29.1 16.55 29.05 16.75 29.25 C 16.95 29.45 16.9 29.7 17 30 C 17.1 30.3 17.05 30.55 17.25 30.75 C 17.45 30.95 17.7 30.9 18 31 C 18.3 31.1 18.55 31.05 18.75 31.25 C 18.95 31.45 18.95 31.65 19 32 C 19.05 32.35 19 32.6 19 33 C 19 33.4 19.05 33.65 19 34 C 18.95 34.35 18.9 34.5 18.75 34.75 C 18.6 35 18.45 35.05 18.25 35.25 C 18.05 35.45 17.95 35.65 17.75 35.75 C 17.55 35.85 17.45 35.85 17.25 35.75 C 17.05 35.65 17 35.4 16.75 35.25 C 16.5 35.1 16.3 35 16 35 C 15.7 35 15.4 35.1 15.25 35.25 C 15.1 35.4 15.15 35.55 15.25 35.75 C 15.35 35.95 15.65 36.05 15.75 36.25 C 15.85 36.45 15.85 36.65 15.75 36.75 C 15.65 36.85 15.45 36.85 15.25 36.75 C 15.05 36.65 14.95 36.35 14.75 36.25 C 14.55 36.15 14.4 36.1 14.25 36.25 C 14.1 36.4 14 36.7 14 37 C 14 37.3 14.1 37.5 14.25 37.75 C 14.4 38 14.6 38 14.75 38.25 C 14.9 38.5 14.9 38.7 15 39 C 15.1 39.3 15.1 39.5 15.25 39.75 C 15.4 40 15.6 40 15.75 40.25 C 15.9 40.5 15.95 40.65 16 41 C 16.05 41.35 16.05 41.65 16 42 C 15.95 42.35 15.9 42.6 15.75 42.75 C 15.6 42.9 15.4 42.9 15.25 42.75 C 15.1 42.6 15.05 42.35 15 42 C 14.95 41.65 15.05 41.35 15 41 C 14.95 40.65 14.9 40.4 14.75 40.25 C 14.6 40.1 14.4 40.1 14.25 40.25 C 14.1 40.4 14.05 40.65 14 41 C 13.95 41.35 13.95 41.65 14 42 C 14.05 42.35 14.1 42.5 14.25 42.75 C 14.4 43 14.6 43 14.75 43.25 C 14.9 43.5 14.95 43.65 15 44 C 15.05 44.35 14.95 44.65 15 45 C 15.05 45.35 15.1 45.6 15.25 45.75 C 15.4 45.9 15.55 45.85 15.75 45.75 C 15.95 45.65 16.05 45.45 16.25 45.25 C 16.45 45.05 16.6 45 16.75 44.75 C 16.9 44.5 16.9 44.3 17 44 C 17.1 43.7 17.1 43.4 17.25 43.25 C 17.4 43.1 17.6 43.1 17.75 43.25 C 17.9 43.4 17.95 43.65 18 44 C 18.05 44.35 17.95 44.65 18 45 C 18.05 45.35 18.1 45.6 18.25 45.75 C 18.4 45.9 18.55 45.85 18.75 45.75 C 18.95 45.65 19.05 45.45 19.25 45.25 C 19.45 45.05 19.6 45 19.75 44.75 C 19.9 44.5 19.95 44.35 20 44 C 20.05 43.65 20 43.4 20 43 C 20 42.6 20.05 42.35 20 42 C 19.95 41.65 19.9 41.5 19.75 41.25 C 19.6 41 19.45 40.95 19.25 40.75 C 19.05 40.55 18.95 40.45 18.75 40.25 C 18.55 40.05 18.4 40 18.25 39.75 C 18.1 39.5 18 39.3 18 39 C 18 38.7 18.1 38.5 18.25 38.25 C 18.4 38 18.55 37.95 18.75 37.75 C 18.95 37.55 19.05 37.45 19.25 37.25 C 19.45 37.05 19.55 36.95 19.75 36.75 C 19.95 36.55 20.05 36.45 20.25 36.25 C 20.45 36.05 20.55 35.95 20.75 35.75 C 20.95 35.55 21.05 35.45 21.25 35.25 C 21.45 35.05 21.6 35 21.75 34.75 C 21.9 34.5 21.95 34.35 22 34 C 22.05 33.65 22.05 33.35 22 33 C 21.95 32.65 21.9 32.5 21.75 32.25 C 21.6 32 21.4 32 21.25 31.75 C 21.1 31.5 21.05 31.35 21 31 C 20.95 30.65 20.95 30.35 21 30 C 21.05 29.65 21.1 29.4 21.25 29.25 C 21.4 29.1 21.6 29.1 21.75 29.25 C 21.9 29.4 21.95 29.65 22 30 C 22.05 30.35 21.95 30.65 22 31 C 22.05 31.35 22.1 31.5 22.25 31.75 C 22.4 32 22.55 32.05 22.75 32.25 C 22.95 32.45 23.05 32.55 23.25 32.75 C 23.45 32.95 23.55 33.05 23.75 33.25 C 23.95 33.45 24.05 33.55 24.25 33.75 C 24.45 33.95 24.55 34.05 24.75 34.25 C 24.95 34.45 25.05 34.55 25.25 34.75 C 25.45 34.95 25.6 35 25.75 35.25 C 25.9 35.5 25.9 35.7 26 36 C 26.1 36.3 26.1 36.5 26.25 36.75 C 26.4 37 26.55 37.05 26.75 37.25 C 26.95 37.45 27.05 37.55 27.25 37.75 C 27.45 37.95 27.6 38 27.75 38.25 C 27.9 38.5 27.95 38.65 28 39 C 28.05 39.35 27.95 39.65 28 40 C 28.05 40.35 28.05 40.55 28.25 40.75 C 28.45 40.95 28.65 40.95 29 41 C 29.35 41.05 29.65 41.05 30 41 C 30.35 40.95 30.55 40.95 30.75 40.75 C 30.95 40.55 30.75 40.15 31 40 C 31.25 39.85 31.6 40 32 40 C 32.4 40 32.65 40.05 33 40 C 33.35 39.95 33.5 39.9 33.75 39.75 C 34 39.6 34 39.4 34.25 39.25 C 34.5 39.1 34.7 39.1 35 39 C 35.3 38.9 35.5 38.9 35.75 38.75 C 36 38.6 36.05 38.45 36.25 38.25 C 36.45 38.05 36.6 38 36.75 37.75 C 36.9 37.5 37 37.3 37 37 C 37 36.7 36.9 36.4 36.75 36.25 C 36.6 36.1 36.4 36.1 36.25 36.25 C 36.1 36.4 36.25 36.85 36 37 C 35.75 37.15 35.4 37 35 37 C 34.6 37 34.35 37.05 34 37 C 33.65 36.95 33.4 36.9 33.25 36.75 C 33.1 36.6 33.1 36.4 33.25 36.25 C 33.4 36.1 33.65 36.05 34 36 C 34.35 35.95 34.65 36.05 35 36 C 35.35 35.95 35.5 35.9 35.75 35.75 C 36 35.6 36.05 35.45 36.25 35.25 C 36.45 35.05 36.65 34.95 36.75 34.75 C 36.85 34.55 36.85 34.45 36.75 34.25 C 36.65 34.05 36.45 33.95 36.25 33.75 C 36.05 33.55 35.95 33.35 35.75 33.25 C 35.55 33.15 35.45 33.15 35.25 33.25 C 35.05 33.35 34.95 33.55 34.75 33.75 C 34.55 33.95 34.45 34.05 34.25 34.25 C 34.05 34.45 34 34.6 33.75 34.75 C 33.5 34.9 33.35 34.95 33 35 C 32.65 35.05 32.4 35 32 35 C 31.6 35 31.35 35.05 31 35 C 30.65 34.95 30.45 34.95 30.25 34.75 C 30.05 34.55 30.1 34.3 30 34 C 29.9 33.7 29.9 33.5 29.75 33.25 C 29.6 33 29.4 33 29.25 32.75 C 29.1 32.5 29.05 32.35 29 32 C 28.95 31.65 29.05 31.35 29 31 C 28.95 30.65 28.9 30.5 28.75 30.25 C 28.6 30 28.45 29.95 28.25 29.75 C 28.05 29.55 27.95 29.45 27.75 29.25 C 27.55 29.05 27.4 29 27.25 28.75 C 27.1 28.5 27.1 28.3 27 28 C 26.9 27.7 26.95 27.45 26.75 27.25 C 26.55 27.05 26.15 27.25 26 27 C 25.85 26.75 26 26.4 26 26 C 26 25.6 26.05 25.35 26 25 C 25.95 24.65 25.9 24.5 25.75 24.25 C 25.6 24 25.4 24 25.25 23.75 C 25.1 23.5 25.05 23.35 25 23 C 24.95 22.65 24.95 22.35 25 22 C 25.05 21.65 25.1 21.5 25.25 21.25 C 25.4 21 25.55 20.95 25.75 20.75 C 25.95 20.55 26.05 20.45 26.25 20.25 C 26.45 20.05 26.55 19.95 26.75 19.75 C 26.95 19.55 27 19.4 27.25 19.25 C 27.5 19.1 27.65 19.05 28 19 C 28.35 18.95 28.65 18.95 29 19 C 29.35 19.05 29.5 19.1 29.75 19.25 C 30 19.4 30.05 19.55 30.25 19.75 C 30.45 19.95 30.6 20 30.75 20.25 C 30.9 20.5 30.9 20.7 31 21 C 31.1 21.3 31.1 21.5 31.25 21.75 C 31.4 22 31.55 22.05 31.75 22.25 C 31.95 22.45 32 22.6 32.25 22.75 C 32.5 22.9 32.65 22.95 33 23 C 33.35 23.05 33.65 23.05 34 23 C 34.35 22.95 34.55 22.95 34.75 22.75 C 34.95 22.55 34.9 22.3 35 22 C 35.1 21.7 35.1 21.5 35.25 21.25 C 35.4 21 35.6 21 35.75 20.75 C 35.9 20.5 36 20.3 36 20 C 36 19.7 35.9 19.5 35.75 19.25 C 35.6 19 35.45 18.95 35.25 18.75 C 35.05 18.55 34.95 18.45 34.75 18.25 C 34.55 18.05 34.45 17.95 34.25 17.75 C 34.05 17.55 33.95 17.45 33.75 17.25 C 33.55 17.05 33.45 16.95 33.25 16.75 C 33.05 16.55 33 16.4 32.75 16.25 C 32.5 16.1 32.15 16.25 32 16 C 31.85 15.75 32 15.4 32 15 C 32 14.6 31.8 14.2 32 14 C 32.2 13.8 32.75 13.85 33 14 C 33.25 14.15 33.05 14.55 33.25 14.75 C 33.45 14.95 33.8 14.8 34 15 C 34.2 15.2 34.1 15.5 34.25 15.75 C 34.4 16 34.55 16.05 34.75 16.25 C 34.95 16.45 35 16.6 35.25 16.75 C 35.5 16.9 35.8 16.8 36 17 C 36.2 17.2 36.05 17.55 36.25 17.75 C 36.45 17.95 36.85 17.75 37 18 C 37.15 18.25 37 18.6 37 19 C 37 19.4 37 19.6 37 20 C 37 20.4 37 20.6 37 21 C 37 21.4 37 21.6 37 22 C 37 22.4 37.15 22.75 37 23 C 36.85 23.25 36.5 23.1 36.25 23.25 C 36 23.4 35.95 23.55 35.75 23.75 C 35.55 23.95 35.4 24 35.25 24.25 C 35.1 24.5 35.25 24.85 35 25 C 34.75 25.15 34.4 25 34 25 C 33.6 25 33.35 25.05 33 25 C 32.65 24.95 32.45 24.95 32.25 24.75 C 32.05 24.55 32.1 24.3 32 24 C 31.9 23.7 31.95 23.45 31.75 23.25 C 31.55 23.05 31.35 23.05 31 23 C 30.65 22.95 30.25 23.15 30 23 C 29.75 22.85 29.95 22.45 29.75 22.25 C 29.55 22.05 29.2 22.2 29 22 C 28.8 21.8 28.95 21.45 28.75 21.25 C 28.55 21.05 28.3 21 28 21 C 27.7 21 27.45 21.05 27.25 21.25 C 27.05 21.45 27.2 21.8 27 22 C 26.8 22.2 26.45 22.05 26.25 22.25 C 26.05 22.45 26 22.7 26 23 C 26 23.3 26.1 23.5 26.25 23.75 C 26.4 24 26.6 24 26.75 24.25 C 26.9 24.5 26.9 24.7 27 25 C 27.1 25.3 27.05 25.55 27.25 25.75 C 27.45 25.95 27.8 25.8 28 26 C 28.2 26.2 28.05 26.55 28.25 26.75 C 28.45 26.95 28.85 26.75 29 27 C 29.15 27.25 28.95 27.65 29 28 C 29.05 28.35 29.1 28.5 29.25 28.75 C 29.4 29 29.6 29 29.75 29.25 C 29.9 29.5 29.95 29.65 30 30 C 30.05 30.35 29.95 30.65 30 31 C 30.05 31.35 30.05 31.55 30.25 31.75 C 30.45 31.95 30.8 31.8 31 32 C 31.2 32.2 31.1 32.5 31.25 32.75 C 31.4 33 31.55 33.05 31.75 33.25 C 31.95 33.45 32.05 33.65 32.25 33.75 C 32.45 33.85 32.6 33.9 32.75 33.75 C 32.9 33.6 32.95 33.35 33 33 C 33.05 32.65 32.8 32.2 33 32 C 33.2 31.8 33.6 32 34 32 C 34.4 32 34.6 32 35 32 C 35.4 32 35.65 31.95 36 32 C 36.35 32.05 36.55 32.05 36.75 32.25 C 36.95 32.45 36.9 32.7 37 33 C 37.1 33.3 37.05 33.55 37.25 33.75 C 37.45 33.95 37.85 33.75 38 34 C 38.15 34.25 38 34.6 38 35 C 38 35.4 38 35.6 38 36 C 38 36.4 38 36.6 38 37 C 38 37.4 38 37.6 38 38 C 38 38.4 38.15 38.75 38 39 C 37.85 39.25 37.5 39.1 37.25 39.25 C 37 39.4 37 39.6 36.75 39.75 C 36.5 39.9 36.35 39.95 36 40 C 35.65 40.05 35.35 39.95 35 40 C 34.65 40.05 34.5 40.1 34.25 40.25 C 34 40.4 34 40.6 33.75 40.75 C 33.5 40.9 33.3 40.9 33 41 C 32.7 41.1 32.5 41.1 32.25 41.25 C 32 41.4 31.95 41.55 31.75 41.75 C 31.55 41.95 31.4 42 31.25 42.25 C 31.1 42.5 31.25 42.85 31 43 C 30.75 43.15 30.4 43 30 43 C 29.6 43 29.4 43 29 43 C 28.6 43 28.25 43.15 28 43 C 27.75 42.85 27.9 42.5 27.75 42.25 C 27.6 42 27.45 41.95 27.25 41.75 C 27.05 41.55 27 41.4 26.75 41.25 C 26.5 41.1 26.15 41.25 26 41 C 25.85 40.75 26.05 40.35 26 40 C 25.95 39.65 25.95 39.45 25.75 39.25 C 25.55 39.05 25.15 39.25 25 39 C 24.85 38.75 25 38.4 25 38 C 25 37.6 25.05 37.35 25 37 C 24.95 36.65 24.95 36.45 24.75 36.25 C 24.55 36.05 24.35 36.05 24 36 C 23.65 35.95 23.35 35.95 23 36 C 22.65 36.05 22.45 36.05 22.25 36.25 C 22.05 36.45 22.2 36.8 22 37 C 21.8 37.2 21.45 37.05 21.25 37.25 C 21.05 37.45 21.2 37.8 21 38 C 20.8 38.2 20.45 38.05 20.25 38.25 C 20.05 38.45 20 38.7 20 39 C 20 39.3 20.1 39.5 20.25 39.75 C 20.4 40 20.55 40.05 20.75 40.25 C 20.95 40.45 21 40.6 21.25 40.75 C 21.5 40.9 21.85 40.75 22 41 C 22.15 41.25 22 41.6 22 42 C 22 42.4 22 42.6 22 43 C 22 43.4 22 43.6 22 44 C 22 44.4 22 44.6 22 45 C 22 45.4 22.2 45.8 22 46 C 21.8 46.2 21.35 45.95 21 46 C 20.65 46.05 20.45 46.05 20.25 46.25 C 20.05 46.45 20.25 46.85 20 47 C 19.75 47.15 19.4 47 19 47 C 18.6 47 18.4 47 18 47 C 17.6 47 17.4 47 17 47 C 16.6 47 16.35 47.05 16 47 C 15.65 46.95 15.5 46.9 15.25 46.75 C 15 46.6 14.95 46.45 14.75 46.25 C 14.55 46.05 14.4 46 14.25 45.75 C 14.1 45.5 14.05 45.35 14 45 C 13.95 44.65 14.05 44.35 14 44 C 13.95 43.65 13.95 43.45 13.75 43.25 C 13.55 43.05 13.2 43.2 13 43 C 12.8 42.8 12.95 42.45 12.75 42.25 C 12.55 42.05 12.15 42.25 12 42 C 11.85 41.75 12.05 41.35 12 41 C 11.95 40.65 11.95 40.45 11.75 40.25 C 11.55 40.05 11.15 40.25 11 40 C 10.85 39.75 11 39.4 11 39 C 11 38.6 10.8 38.2 11 38 C 11.2 37.8 11.65 38.05 12 38 C 12.35 37.95 12.55 37.95 12.75 37.75 C 12.95 37.55 12.95 37.35 13 37 C 13.05 36.65 12.85 36.25 13 36 C 13.15 35.75 13.5 35.9 13.75 35.75 C 14 35.6 14.05 35.45 14.25 35.25 C 14.45 35.05 14.6 35 14.75 34.75 C 14.9 34.5 14.75 34.15 15 34 C 15.25 33.85 15.65 34.05 16 34 C 16.35 33.95 16.55 33.95 16.75 33.75 C 16.95 33.55 17 33.3 17 33 C 17 32.7 16.95 32.45 16.75 32.25 C 16.55 32.05 16.35 32.05 16 32 C 15.65 31.95 15.2 32.2 15 32 C 14.8 31.8 15 31.4 15 31 C 15 30.6 15.05 30.35 15 30 C 14.95 29.65 14.95 29.45 14.75 29.25 C 14.55 29.05 14.35 29.05 14 29 C 13.65 28.95 13.35 28.95 13 29 C 12.65 29.05 12.5 29.1 12.25 29.25 C 12 29.4 11.95 29.55 11.75 29.75 C 11.55 29.95 11.4 30 11.25 30.25 C 11.1 30.5 11.2 30.8 11 31 C 10.8 31.2 10.45 31.05 10.25 31.25 C 10.05 31.45 10.25 31.85 10 32 C 9.75 32.15 9.4 32 9 32 C 8.6 32 8.4 32 8 32 C 7.6 32 7.4 32 7 32 C 6.6 32 6.25 32.15 6 32 C 5.75 31.85 5.9 31.5 5.75 31.25 C 5.6 31 5.45 30.95 5.25 30.75 C 5.05 30.55 5 30.4 4.75 30.25 C 4.5 30.1 4.15 30.25 4 30 C 3.85 29.75 4.05 29.35 4 29 C 3.95 28.65 3.9 28.5 3.75 28.25 C 3.6 28 3.4 28 3.25 27.75 C 3.1 27.5 3.05 27.35 3 27 C 2.95 26.65 3.05 26.35 3 26 C 2.95 25.65 2.95 25.45 2.75 25.25 C 2.55 25.05 2.2 25.2 2 25 C 1.8 24.8 1.95 24.45 1.75 24.25 C 1.55 24.05 1.15 24.25 1 24 C 0.85 23.75 1 23.4 1 23 C 1 22.6 1 22.4 1 22 C 1 21.6 0.8 21.2 1 21 C 1.2 20.8 1.65 21.05 2 21 C 2.35 20.95 2.55 20.95 2.75 20.75 C 2.95 20.55 2.95 20.35 3 20 C 3.05 19.65 2.8 19.2 3 19 C 3.2 18.8 3.75 18.85 4 19 C 4.25 19.15 4.1 19.6 4.25 19.75 C 4.4 19.9 4.6 19.9 4.75 19.75 C 4.9 19.6 4.75 19.15 5 19 C 5.25 18.85 5.8 18.8 6 19 C 6.2 19.2 5.95 19.65 6 20 C 6.05 20.35 6.05 20.55 6.25 20.75 C 6.45 20.95 6.7 20.9 7 21 C 7.3 21.1 7.55 21.05 7.75 21.25 C 7.95 21.45 7.95 21.65 8 22 C 8.05 22.35 7.95 22.65 8 23 C 8.05 23.35 8.1 23.6 8.25 23.75 C 8.4 23.9 8.6 23.9 8.75 23.75 C 8.9 23.6 8.8 23.2 9 23 C 9.2 22.8 9.55 22.95 9.75 22.75 C 9.95 22.55 9.8 22.2 10 22 C 10.2 21.8 10.6 21.9 10.75 21.75 C 10.9 21.6 10.9 21.4 10.75 21.25 C 10.6 21.1 10.15 21.25 10 21 C 9.85 20.75 10 20.4 10 20 C 10 19.6 10.05 19.35 10 19 C 9.95 18.65 9.95 18.45 9.75 18.25 C 9.55 18.05 9.3 18.1 9 18 C 8.7 17.9 8.45 17.95 8.25 17.75 C 8.05 17.55 8.05 17.35 8 17 C 7.95 16.65 8.05 16.35 8 16 C 7.95 15.65 7.9 15.5 7.75 15.25 C 7.6 15 7.4 15 7.25 14.75 C 7.1 14.5 7.05 14.35 7 14 C 6.95 13.65 7 13.4 7 13 C 7 12.6 7 12.4 7 12 C 7 11.6 7 11.4 7 11 C 7 10.6 7 10.4 7 10 C 7 9.6 7 9.4 7 9 C 7 8.6 7 8.4 7 8 C 7 7.6 6.8 7.2 7 7 C 7.2 6.8 7.6 7 8 7 C 8.4 7 8.65 7.05 9 7 C 9.35 6.95 9.55 6.95 9.75 6.75 C 9.95 6.55 9.95 6.35 10 6 C 10.05 5.65 10 5.4 10 5 C 10 4.6 9.8 4.2 10 4 " fill = "rgb(9, 54, 13)" stroke = "rgb(9, 54, 13)" stroke-width = "0"/>
    <path d="M 9 5 C 9.2 4.8 9.8 4.8 10 5 C 10.2 5.2 10.2 5.8 10 6 C 9.8 6.2 9.2 6.2 9 6 C 8.8 5.8 8.8 5.2 9 5 " fill = "rgb(137, 131, 136)" stroke = "rgb(137, 131, 136)" stroke-width = "0"/>
    <path d="M 11 5 C 11.15 4.85 11.6 5 12 5 C 12.4 5 12.85 4.85 13 5 C 13.15 5.15 12.95 5.55 12.75 5.75 C 12.55 5.95 12.3 6 12 6 C 11.7 6 11.45 5.95 11.25 5.75 C 11.05 5.55 10.85 5.15 11 5 " fill = "rgb(95, 120, 95)" stroke = "rgb(95, 120, 95)" stroke-width = "0"/>
    <path d="M 15 5 C 15.15 4.85 15.6 5 16 5 C 16.4 5 16.8 4.8 17 5 C 17.2 5.2 17.2 5.8 17 6 C 16.8 6.2 16.35 6.05 16 6 C 15.65 5.95 15.45 5.95 15.25 5.75 C 15.05 5.55 14.85 5.15 15 5 " fill = "rgb(95, 120, 95)" stroke = "rgb(95, 120, 95)" stroke-width = "0"/>
    <path d="M 17 5 C 17.15 4.85 17.55 5.05 17.75 5.25 C 17.95 5.45 18.15 5.85 18 6 C 17.85 6.15 17.2 6.2 17 6 C 16.8 5.8 16.85 5.15 17 5 " fill = "rgb(145, 177, 145)" stroke = "rgb(145, 177, 145)" stroke-width = "0"/>
    <path d="M 5 6 C 5.1 5.9 5.55 6.05 5.75 6.25 C 5.95 6.45 6.1 6.9 6 7 C 5.9 7.1 5.45 6.95 5.25 6.75 C 5.05 6.55 4.9 6.1 5 6 " fill = "rgb(145, 177, 145)" stroke = "rgb(145, 177, 145)" stroke-width = "0"/>
    <path d="M 7 6 C 7.2 5.8 7.6 6 8 6 C 8.4 6 8.8 5.8 9 6 C 9.2 6.2 9.2 6.8 9 7 C 8.8 7.2 8.4 7 8 7 C 7.6 7 7.2 7.2 7 7 C 6.8 6.8 6.8 6.2 7 6 " fill = "rgb(145, 177, 145)" stroke = "rgb(145, 177, 145)" stroke-width = "0"/>
    <path d="M 9 6 C 9.2 5.8 9.85 5.85 10 6 C 10.15 6.15 9.95 6.55 9.75 6.75 C 9.55 6.95 9.15 7.15 9 7 C 8.85 6.85 8.8 6.2 9 6 " fill = "rgb(95, 120, 95)" stroke = "rgb(95, 120, 95)" stroke-width = "0"/>
    <path d="M 18 6 C 18.15 5.85 18.75 5.85 19 6 C 19.25 6.15 19.05 6.55 19.25 6.75 C 19.45 6.95 19.85 6.75 20 7 C 20.15 7.25 19.95 7.65 20 8 C 20.05 8.35 20.1 8.5 20.25 8.75 C 20.4 9 20.6 9 20.75 9.25 C 20.9 9.5 21.1 9.9 21 10 C 20.9 10.1 20.5 9.9 20.25 9.75 C 20 9.6 20 9.4 19.75 9.25 C 19.5 9.1 19.15 9.25 19 9 C 18.85 8.75 19.05 8.35 19 8 C 18.95 7.65 18.9 7.5 18.75 7.25 C 18.6 7 18.4 7 18.25 6.75 C 18.1 6.5 17.85 6.15 18 6 " fill = "rgb(194, 226, 194)" stroke = "rgb(194, 226, 194)" stroke-width = "0"/>
    <path d="M 19 6 C 19.1 5.9 19.55 6.05 19.75 6.25 C 19.95 6.45 20.1 6.9 20 7 C 19.9 7.1 19.45 6.95 19.25 6.75 C 19.05 6.55 18.9 6.1 19 6 " fill = "rgb(248, 254, 248)" stroke = "rgb(248, 254, 248)" stroke-width = "0"/>
    <path d="M 6 7 C 6.2 6.8 6.8 6.8 7 7 C 7.2 7.2 7 7.6 7 8 C 7 8.4 7 8.6 7 9 C 7 9.4 7 9.6 7 10 C 7 10.4 7 10.6 7 11 C 7 11.4 7 11.6 7 12 C 7 12.4 7 12.6 7 13 C 7 13.4 6.95 13.65 7 14 C 7.05 14.35 7.1 14.5 7.25 14.75 C 7.4 15 7.6 15 7.75 15.25 C 7.9 15.5 7.95 15.65 8 16 C 8.05 16.35 7.95 16.65 8 17 C 8.05 17.35 8.05 17.55 8.25 17.75 C 8.45 17.95 8.85 17.75 9 18 C 9.15 18.25 9.15 18.85 9 19 C 8.85 19.15 8.5 18.9 8.25 18.75 C 8 18.6 7.95 18.45 7.75 18.25 C 7.55 18.05 7.4 18 7.25 17.75 C 7.1 17.5 7.05 17.35 7 17 C 6.95 16.65 7.05 16.35 7 16 C 6.95 15.65 6.95 15.45 6.75 15.25 C 6.55 15.05 6.15 15.25 6 15 C 5.85 14.75 6 14.4 6 14 C 6 13.6 6 13.4 6 13 C 6 12.6 6 12.4 6 12 C 6 11.6 6 11.4 6 11 C 6 10.6 6 10.4 6 10 C 6 9.6 6 9.4 6 9 C 6 8.6 6 8.4 6 8 C 6 7.6 5.8 7.2 6 7 " fill = "rgb(194, 226, 194)" stroke = "rgb(194, 226, 194)" stroke-width = "0"/>
    <path d="M 10.25 7.25 C 10.45 7.05 10.85 6.85 11 7 C 11.15 7.15 11.2 7.8 11 8 C 10.8 8.2 10.15 8.15 10 8 C 9.85 7.85 10.05 7.45 10.25 7.25 " fill = "rgb(145, 177, 145)" stroke = "rgb(145, 177, 145)" stroke-width = "0"/>
    <path d="M 11 7 C 11.2 6.8 11.6 7 12 7 C 12.4 7 12.75 6.85 13 7 C 13.25 7.15 13.1 7.5 13.25 7.75 C 13.4 8 13.55 8.05 13.75 8.25 C 13.95 8.45 14.05 8.55 14.25 8.75 C 14.45 8.95 14.6 9 14.75 9.25 C 14.9 9.5 14.9 9.7 15 10 C 15.1 10.3 15.1 10.6 15.25 10.75 C 15.4 10.9 15.6 10.9 15.75 10.75 C 15.9 10.6 15.9 10.3 16 10 C 16.1 9.7 16.05 9.45 16.25 9.25 C 16.45 9.05 16.65 9.05 17 9 C 17.35 8.95 17.8 8.8 18 9 C 18.2 9.2 18.05 9.65 18 10 C 17.95 10.35 17.9 10.5 17.75 10.75 C 17.6 11 17.4 11 17.25 11.25 C 17.1 11.5 17.1 11.7 17 12 C 16.9 12.3 16.9 12.5 16.75 12.75 C 16.6 13 16.4 13 16.25 13.25 C 16.1 13.5 16.05 13.65 16 14 C 15.95 14.35 16 14.6 16 15 C 16 15.4 16.05 15.65 16 16 C 15.95 16.35 15.95 16.55 15.75 16.75 C 15.55 16.95 15.35 16.95 15 17 C 14.65 17.05 14.15 17.15 14 17 C 13.85 16.85 14.1 16.5 14.25 16.25 C 14.4 16 14.6 16 14.75 15.75 C 14.9 15.5 15 15.3 15 15 C 15 14.7 14.9 14.4 14.75 14.25 C 14.6 14.1 14.4 14.1 14.25 14.25 C 14.1 14.4 14.1 14.7 14 15 C 13.9 15.3 13.95 15.55 13.75 15.75 C 13.55 15.95 13.35 15.95 13 16 C 12.65 16.05 12.4 16 12 16 C 11.6 16 11.4 16 11 16 C 10.6 16 10.2 16.2 10 16 C 9.8 15.8 9.85 15.25 10 15 C 10.15 14.75 10.6 14.9 10.75 14.75 C 10.9 14.6 10.9 14.4 10.75 14.25 C 10.6 14.1 10.3 14.1 10 14 C 9.7 13.9 9.45 13.95 9.25 13.75 C 9.05 13.55 9.05 13.35 9 13 C 8.95 12.65 9 12.4 9 12 C 9 11.6 8.95 11.35 9 11 C 9.05 10.65 9.1 10.5 9.25 10.25 C 9.4 10 9.55 9.95 9.75 9.75 C 9.95 9.55 10.05 9.35 10.25 9.25 C 10.45 9.15 10.6 9.1 10.75 9.25 C 10.9 9.4 10.9 9.7 11 10 C 11.1 10.3 11.1 10.5 11.25 10.75 C 11.4 11 11.6 11 11.75 11.25 C 11.9 11.5 11.9 11.7 12 12 C 12.1 12.3 12.05 12.55 12.25 12.75 C 12.45 12.95 12.7 13 13 13 C 13.3 13 13.55 12.95 13.75 12.75 C 13.95 12.55 14 12.3 14 12 C 14 11.7 13.95 11.45 13.75 11.25 C 13.55 11.05 13.3 11.1 13 11 C 12.7 10.9 12.4 10.9 12.25 10.75 C 12.1 10.6 12.15 10.45 12.25 10.25 C 12.35 10.05 12.6 10 12.75 9.75 C 12.9 9.5 13 9.3 13 9 C 13 8.7 12.95 8.45 12.75 8.25 C 12.55 8.05 12.35 8.05 12 8 C 11.65 7.95 11.2 8.2 11 8 C 10.8 7.8 10.8 7.2 11 7 " fill = "rgb(39, 206, 50)" stroke = "rgb(39, 206, 50)" stroke-width = "0"/>
    <path d="M 13 7 C 13.15 6.85 13.6 7 14 7 C 14.4 7 14.6 7 15 7 C 15.4 7 15.65 6.95 16 7 C 16.35 7.05 16.5 7.1 16.75 7.25 C 17 7.4 17.05 7.55 17.25 7.75 C 17.45 7.95 17.6 8 17.75 8.25 C 17.9 8.5 18.15 8.85 18 9 C 17.85 9.15 17.35 8.95 17 9 C 16.65 9.05 16.45 9.05 16.25 9.25 C 16.05 9.45 16.1 9.7 16 10 C 15.9 10.3 15.9 10.6 15.75 10.75 C 15.6 10.9 15.4 10.9 15.25 10.75 C 15.1 10.6 15.1 10.3 15 10 C 14.9 9.7 14.9 9.5 14.75 9.25 C 14.6 9 14.45 8.95 14.25 8.75 C 14.05 8.55 13.95 8.45 13.75 8.25 C 13.55 8.05 13.4 8 13.25 7.75 C 13.1 7.5 12.85 7.15 13 7 " fill = "rgb(15, 152, 29)" stroke = "rgb(15, 152, 29)" stroke-width = "0"/>
    <path d="M 9.25 8.25 C 9.45 8.05 9.65 8.05 10 8 C 10.35 7.95 10.6 8 11 8 C 11.4 8 11.65 7.95 12 8 C 12.35 8.05 12.55 8.05 12.75 8.25 C 12.95 8.45 13 8.7 13 9 C 13 9.3 12.9 9.5 12.75 9.75 C 12.6 10 12.35 10.05 12.25 10.25 C 12.15 10.45 12.1 10.6 12.25 10.75 C 12.4 10.9 12.7 10.9 13 11 C 13.3 11.1 13.55 11.05 13.75 11.25 C 13.95 11.45 14 11.7 14 12 C 14 12.3 13.95 12.55 13.75 12.75 C 13.55 12.95 13.3 13 13 13 C 12.7 13 12.45 12.95 12.25 12.75 C 12.05 12.55 12.1 12.3 12 12 C 11.9 11.7 11.9 11.5 11.75 11.25 C 11.6 11 11.4 11 11.25 10.75 C 11.1 10.5 11.1 10.3 11 10 C 10.9 9.7 10.9 9.4 10.75 9.25 C 10.6 9.1 10.45 9.15 10.25 9.25 C 10.05 9.35 9.95 9.55 9.75 9.75 C 9.55 9.95 9.4 10 9.25 10.25 C 9.1 10.5 9.05 10.65 9 11 C 8.95 11.35 9 11.6 9 12 C 9 12.4 8.95 12.65 9 13 C 9.05 13.35 9.05 13.55 9.25 13.75 C 9.45 13.95 9.7 13.9 10 14 C 10.3 14.1 10.6 14.1 10.75 14.25 C 10.9 14.4 10.9 14.6 10.75 14.75 C 10.6 14.9 10.3 15 10 15 C 9.7 15 9.5 14.9 9.25 14.75 C 9 14.6 8.95 14.45 8.75 14.25 C 8.55 14.05 8.4 14 8.25 13.75 C 8.1 13.5 8.05 13.35 8 13 C 7.95 12.65 8 12.4 8 12 C 8 11.6 7.95 11.35 8 11 C 8.05 10.65 8.1 10.5 8.25 10.25 C 8.4 10 8.6 10 8.75 9.75 C 8.9 9.5 8.9 9.3 9 9 C 9.1 8.7 9.05 8.45 9.25 8.25 " fill = "rgb(15, 152, 29)" stroke = "rgb(15, 152, 29)" stroke-width = "0"/>
    <path d="M 19 9 C 19.1 8.9 19.5 9.1 19.75 9.25 C 20 9.4 20 9.6 20.25 9.75 C 20.5 9.9 20.85 9.75 21 10 C 21.15 10.25 20.95 10.65 21 11 C 21.05 11.35 21.05 11.55 21.25 11.75 C 21.45 11.95 21.85 11.75 22 12 C 22.15 12.25 22.2 12.8 22 13 C 21.8 13.2 21.25 13.15 21 13 C 20.75 12.85 20.95 12.45 20.75 12.25 C 20.55 12.05 20.15 12.25 20 12 C 19.85 11.75 20.05 11.35 20 11 C 19.95 10.65 19.9 10.5 19.75 10.25 C 19.6 10 19.4 10 19.25 9.75 C 19.1 9.5 18.9 9.1 19 9 " fill = "rgb(95, 120, 95)" stroke = "rgb(95, 120, 95)" stroke-width = "0"/>
    <path d="M 18 10 C 18.2 9.9 18.55 10.05 18.75 10.25 C 18.95 10.45 19.1 10.8 19 11 C 18.9 11.2 18.45 11.05 18.25 11.25 C 18.05 11.45 18.05 11.65 18 12 C 17.95 12.35 18 12.6 18 13 C 18 13.4 18.2 13.8 18 14 C 17.8 14.2 17.4 14 17 14 C 16.6 14 16.15 14.15 16 14 C 15.85 13.85 16.1 13.5 16.25 13.25 C 16.4 13 16.6 13 16.75 12.75 C 16.9 12.5 16.9 12.3 17 12 C 17.1 11.7 17.1 11.5 17.25 11.25 C 17.4 11 17.6 11 17.75 10.75 C 17.9 10.5 17.8 10.1 18 10 " fill = "rgb(15, 152, 29)" stroke = "rgb(15, 152, 29)" stroke-width = "0"/>
    <path d="M 18.25 11.25 C 18.45 11.05 18.85 10.85 19 11 C 19.15 11.15 19 11.6 19 12 C 19 12.4 19.2 12.8 19 13 C 18.8 13.2 18.2 13.2 18 13 C 17.8 12.8 17.95 12.35 18 12 C 18.05 11.65 18.05 11.45 18.25 11.25 " fill = "rgb(57, 250, 65)" stroke = "rgb(57, 250, 65)" stroke-width = "0"/>
    <path d="M 19 12 C 19.2 11.8 19.8 11.8 20 12 C 20.2 12.2 20.2 12.8 20 13 C 19.8 13.2 19.2 13.2 19 13 C 18.8 12.8 18.8 12.2 19 12 " fill = "rgb(15, 152, 29)" stroke = "rgb(15, 152, 29)" stroke-width = "0"/>
    <path d="M 20 12 C 20.15 11.85 20.55 12.05 20.75 12.25 C 20.95 12.45 21.15 12.85 21 13 C 20.85 13.15 20.2 13.2 20 13 C 19.8 12.8 19.85 12.15 20 12 " fill = "rgb(39, 95, 43)" stroke = "rgb(39, 95, 43)" stroke-width = "0"/>
    <path d="M 22 12 C 22.15 11.85 22.55 12.05 22.75 12.25 C 22.95 12.45 22.95 12.65 23 13 C 23.05 13.35 23.2 13.8 23 14 C 22.8 14.2 22.2 14.2 22 14 C 21.8 13.8 22 13.4 22 13 C 22 12.6 21.85 12.15 22 12 " fill = "rgb(248, 254, 248)" stroke = "rgb(248, 254, 248)" stroke-width = "0"/>
    <path d="M 27.25 12.25 C 27.5 12.1 27.9 11.9 28 12 C 28.1 12.1 27.9 12.5 27.75 12.75 C 27.6 13 27.4 13 27.25 13.25 C 27.1 13.5 27.25 13.85 27 14 C 26.75 14.15 26.35 13.95 26 14 C 25.65 14.05 25.45 14.05 25.25 14.25 C 25.05 14.45 25.25 14.85 25 15 C 24.75 15.15 24.2 15.2 24 15 C 23.8 14.8 23.85 14.25 24 14 C 24.15 13.75 24.55 13.95 24.75 13.75 C 24.95 13.55 24.75 13.15 25 13 C 25.25 12.85 25.65 13.05 26 13 C 26.35 12.95 26.5 12.9 26.75 12.75 C 27 12.6 27 12.4 27.25 12.25 " fill = "rgb(194, 226, 194)" stroke = "rgb(194, 226, 194)" stroke-width = "0"/>
    <path d="M 28 12 C 28.25 11.85 28.6 12 29 12 C 29.4 12 29.6 12 30 12 C 30.4 12 30.75 11.85 31 12 C 31.25 12.15 31.05 12.55 31.25 12.75 C 31.45 12.95 31.85 12.75 32 13 C 32.15 13.25 32.2 13.8 32 14 C 31.8 14.2 31.25 14.15 31 14 C 30.75 13.85 30.95 13.45 30.75 13.25 C 30.55 13.05 30.35 13.05 30 13 C 29.65 12.95 29.35 12.95 29 13 C 28.65 13.05 28.5 13.1 28.25 13.25 C 28 13.4 28 13.6 27.75 13.75 C 27.5 13.9 27.1 14.1 27 14 C 26.9 13.9 27.1 13.5 27.25 13.25 C 27.4 13 27.6 13 27.75 12.75 C 27.9 12.5 27.75 12.15 28 12 " fill = "rgb(95, 120, 95)" stroke = "rgb(95, 120, 95)" stroke-width = "0"/>
    <path d="M 31 12 C 31.1 11.9 31.55 12.05 31.75 12.25 C 31.95 12.45 32.1 12.9 32 13 C 31.9 13.1 31.45 12.95 31.25 12.75 C 31.05 12.55 30.9 12.1 31 12 " fill = "rgb(145, 177, 145)" stroke = "rgb(145, 177, 145)" stroke-width = "0"/>
    <path d="M 18 13 C 18.2 12.8 18.6 13 19 13 C 19.4 13 19.8 12.8 20 13 C 20.2 13.2 19.95 13.65 20 14 C 20.05 14.35 20.05 14.55 20.25 14.75 C 20.45 14.95 20.8 14.8 21 15 C 21.2 15.2 21.1 15.5 21.25 15.75 C 21.4 16 21.6 16 21.75 16.25 C 21.9 16.5 21.95 16.65 22 17 C 22.05 17.35 22.05 17.65 22 18 C 21.95 18.35 21.9 18.5 21.75 18.75 C 21.6 19 21.4 19 21.25 19.25 C 21.1 19.5 21.05 19.65 21 20 C 20.95 20.35 21 20.6 21 21 C 21 21.4 21.2 21.8 21 22 C 20.8 22.2 20.35 22.05 20 22 C 19.65 21.95 19.45 21.95 19.25 21.75 C 19.05 21.55 19.05 21.35 19 21 C 18.95 20.65 18.95 20.35 19 20 C 19.05 19.65 19.1 19.5 19.25 19.25 C 19.4 19 19.6 19 19.75 18.75 C 19.9 18.5 20 18.3 20 18 C 20 17.7 19.95 17.45 19.75 17.25 C 19.55 17.05 19.15 17.25 19 17 C 18.85 16.75 19 16.4 19 16 C 19 15.6 19.05 15.35 19 15 C 18.95 14.65 18.95 14.45 18.75 14.25 C 18.55 14.05 18.15 14.25 18 14 C 17.85 13.75 17.8 13.2 18 13 " fill = "rgb(39, 206, 50)" stroke = "rgb(39, 206, 50)" stroke-width = "0"/>
    <path d="M 20 13 C 20.2 12.8 20.6 13 21 13 C 21.4 13 21.8 12.8 22 13 C 22.2 13.2 21.95 13.65 22 14 C 22.05 14.35 22.05 14.55 22.25 14.75 C 22.45 14.95 22.65 14.95 23 15 C 23.35 15.05 23.75 14.85 24 15 C 24.25 15.15 24.05 15.55 24.25 15.75 C 24.45 15.95 24.85 15.75 25 16 C 25.15 16.25 25.2 16.8 25 17 C 24.8 17.2 24.35 16.95 24 17 C 23.65 17.05 23.5 17.1 23.25 17.25 C 23 17.4 23 17.6 22.75 17.75 C 22.5 17.9 22.15 18.15 22 18 C 21.85 17.85 22.05 17.35 22 17 C 21.95 16.65 21.9 16.5 21.75 16.25 C 21.6 16 21.4 16 21.25 15.75 C 21.1 15.5 21.1 15.3 21 15 C 20.9 14.7 20.95 14.45 20.75 14.25 C 20.55 14.05 20.15 14.25 20 14 C 19.85 13.75 19.8 13.2 20 13 " fill = "rgb(9, 54, 13)" stroke = "rgb(9, 54, 13)" stroke-width = "0"/>
    <path d="M 24.25 13.25 C 24.45 13.05 24.9 12.9 25 13 C 25.1 13.1 24.95 13.55 24.75 13.75 C 24.55 13.95 24.1 14.1 24 14 C 23.9 13.9 24.05 13.45 24.25 13.25 " fill = "rgb(248, 254, 248)" stroke = "rgb(248, 254, 248)" stroke-width = "0"/>
    <path d="M 28.25 13.25 C 28.5 13.1 28.65 13.05 29 13 C 29.35 12.95 29.65 12.95 30 13 C 30.35 13.05 30.55 13.05 30.75 13.25 C 30.95 13.45 31.15 13.85 31 14 C 30.85 14.15 30.4 14 30 14 C 29.6 14 29.35 13.95 29 14 C 28.65 14.05 28.4 14.1 28.25 14.25 C 28.1 14.4 28.1 14.6 28.25 14.75 C 28.4 14.9 28.65 14.95 29 15 C 29.35 15.05 29.8 14.8 30 15 C 30.2 15.2 30.05 15.65 30 16 C 29.95 16.35 29.9 16.6 29.75 16.75 C 29.6 16.9 29.45 16.85 29.25 16.75 C 29.05 16.65 28.95 16.45 28.75 16.25 C 28.55 16.05 28.45 15.95 28.25 15.75 C 28.05 15.55 28 15.4 27.75 15.25 C 27.5 15.1 27.35 15.05 27 15 C 26.65 14.95 26.4 15 26 15 C 25.6 15 25.15 15.15 25 15 C 24.85 14.85 25.05 14.45 25.25 14.25 C 25.45 14.05 25.65 14.05 26 14 C 26.35 13.95 26.65 14.05 27 14 C 27.35 13.95 27.5 13.9 27.75 13.75 C 28 13.6 28 13.4 28.25 13.25 " fill = "rgb(9, 54, 13)" stroke = "rgb(9, 54, 13)" stroke-width = "0"/>
    <path d="M 32 13 C 32.2 12.8 32.65 12.95 33 13 C 33.35 13.05 33.55 13.05 33.75 13.25 C 33.95 13.45 34.15 13.85 34 14 C 33.85 14.15 33.4 14 33 14 C 32.6 14 32.2 14.2 32 14 C 31.8 13.8 31.8 13.2 32 13 " fill = "rgb(194, 226, 194)" stroke = "rgb(194, 226, 194)" stroke-width = "0"/>
    <path d="M 14.25 14.25 C 14.4 14.1 14.6 14.1 14.75 14.25 C 14.9 14.4 15 14.7 15 15 C 15 15.3 14.9 15.5 14.75 15.75 C 14.6 16 14.4 16 14.25 16.25 C 14.1 16.5 14.25 16.85 14 17 C 13.75 17.15 13.4 17 13 17 C 12.6 17 12.35 16.95 12 17 C 11.65 17.05 11.5 17.1 11.25 17.25 C 11 17.4 10.95 17.65 10.75 17.75 C 10.55 17.85 10.4 17.9 10.25 17.75 C 10.1 17.6 10.05 17.35 10 17 C 9.95 16.65 9.8 16.2 10 16 C 10.2 15.8 10.6 16 11 16 C 11.4 16 11.6 16 12 16 C 12.4 16 12.65 16.05 13 16 C 13.35 15.95 13.55 15.95 13.75 15.75 C 13.95 15.55 13.9 15.3 14 15 C 14.1 14.7 14.1 14.4 14.25 14.25 " fill = "rgb(15, 152, 29)" stroke = "rgb(15, 152, 29)" stroke-width = "0"/>
    <path d="M 16 14 C 16.2 13.8 16.6 14 17 14 C 17.4 14 17.65 13.95 18 14 C 18.35 14.05 18.55 14.05 18.75 14.25 C 18.95 14.45 18.95 14.65 19 15 C 19.05 15.35 19 15.6 19 16 C 19 16.4 19.2 16.8 19 17 C 18.8 17.2 18.4 17 18 17 C 17.6 17 17.25 17.15 17 17 C 16.75 16.85 16.95 16.45 16.75 16.25 C 16.55 16.05 16.15 16.25 16 16 C 15.85 15.75 16 15.4 16 15 C 16 14.6 15.8 14.2 16 14 " fill = "rgb(9, 54, 13)" stroke = "rgb(9, 54, 13)" stroke-width = "0"/>
    <path d="M 20 14 C 20.1 13.9 20.55 14.05 20.75 14.25 C 20.95 14.45 21.1 14.9 21 15 C 20.9 15.1 20.45 14.95 20.25 14.75 C 20.05 14.55 19.9 14.1 20 14 " fill = "rgb(15, 152, 29)" stroke = "rgb(15, 152, 29)" stroke-width = "0"/>
    <path d="M 22 14 C 22.15 13.85 22.8 13.8 23 14 C 23.2 14.2 23.15 14.85 23 15 C 22.85 15.15 22.45 14.95 22.25 14.75 C 22.05 14.55 21.85 14.15 22 14 " fill = "rgb(194, 226, 194)" stroke = "rgb(194, 226, 194)" stroke-width = "0"/>
    <path d="M 28.25 14.25 C 28.4 14.1 28.65 14.05 29 14 C 29.35 13.95 29.6 14 30 14 C 30.4 14 30.8 13.8 31 14 C 31.2 14.2 31.2 14.8 31 15 C 30.8 15.2 30.4 15 30 15 C 29.6 15 29.35 15.05 29 15 C 28.65 14.95 28.4 14.9 28.25 14.75 C 28.1 14.6 28.1 14.4 28.25 14.25 " fill = "rgb(57, 250, 65)" stroke = "rgb(57, 250, 65)" stroke-width = "0"/>
    <path d="M 31 14 C 31.2 13.8 31.8 13.8 32 14 C 32.2 14.2 32.2 14.8 32 15 C 31.8 15.2 31.2 15.2 31 15 C 30.8 14.8 30.8 14.2 31 14 " fill = "rgb(15, 152, 29)" stroke = "rgb(15, 152, 29)" stroke-width = "0"/>
    <path d="M 33 14 C 33.15 13.85 33.8 13.8 34 14 C 34.2 14.2 34.15 14.85 34 15 C 33.85 15.15 33.45 14.95 33.25 14.75 C 33.05 14.55 32.85 14.15 33 14 " fill = "rgb(248, 254, 248)" stroke = "rgb(248, 254, 248)" stroke-width = "0"/>
    <path d="M 6 15 C 6.1 14.9 6.55 15.05 6.75 15.25 C 6.95 15.45 7.1 15.9 7 16 C 6.9 16.1 6.45 15.95 6.25 15.75 C 6.05 15.55 5.9 15.1 6 15 " fill = "rgb(248, 254, 248)" stroke = "rgb(248, 254, 248)" stroke-width = "0"/>
    <path d="M 24 15 C 24.15 14.85 24.8 14.8 25 15 C 25.2 15.2 25.15 15.85 25 16 C 24.85 16.15 24.45 15.95 24.25 15.75 C 24.05 15.55 23.85 15.15 24 15 " fill = "rgb(39, 95, 43)" stroke = "rgb(39, 95, 43)" stroke-width = "0"/>
    <path d="M 25 15 C 25.2 14.8 25.6 15 26 15 C 26.4 15 26.8 14.8 27 15 C 27.2 15.2 27 15.6 27 16 C 27 16.4 27.2 16.8 27 17 C 26.8 17.2 26.4 17 26 17 C 25.6 17 25.2 17.2 25 17 C 24.8 16.8 25 16.4 25 16 C 25 15.6 24.8 15.2 25 15 " fill = "rgb(39, 206, 50)" stroke = "rgb(39, 206, 50)" stroke-width = "0"/>
    <path d="M 27 15 C 27.15 14.85 27.5 15.1 27.75 15.25 C 28 15.4 28.05 15.55 28.25 15.75 C 28.45 15.95 28.55 16.05 28.75 16.25 C 28.95 16.45 29.05 16.65 29.25 16.75 C 29.45 16.85 29.6 16.9 29.75 16.75 C 29.9 16.6 29.75 16.15 30 16 C 30.25 15.85 30.6 16 31 16 C 31.4 16 31.65 15.95 32 16 C 32.35 16.05 32.5 16.1 32.75 16.25 C 33 16.4 33.05 16.55 33.25 16.75 C 33.45 16.95 33.55 17.05 33.75 17.25 C 33.95 17.45 34.05 17.55 34.25 17.75 C 34.45 17.95 34.55 18.05 34.75 18.25 C 34.95 18.45 35.05 18.55 35.25 18.75 C 35.45 18.95 35.6 19 35.75 19.25 C 35.9 19.5 36 19.7 36 20 C 36 20.3 35.9 20.5 35.75 20.75 C 35.6 21 35.4 21 35.25 21.25 C 35.1 21.5 35.1 21.7 35 22 C 34.9 22.3 34.95 22.55 34.75 22.75 C 34.55 22.95 34.35 22.95 34 23 C 33.65 23.05 33.35 23.05 33 23 C 32.65 22.95 32.5 22.9 32.25 22.75 C 32 22.6 31.95 22.45 31.75 22.25 C 31.55 22.05 31.4 22 31.25 21.75 C 31.1 21.5 31.1 21.3 31 21 C 30.9 20.7 30.9 20.5 30.75 20.25 C 30.6 20 30.45 19.95 30.25 19.75 C 30.05 19.55 30 19.4 29.75 19.25 C 29.5 19.1 29.35 19.05 29 19 C 28.65 18.95 28.35 18.95 28 19 C 27.65 19.05 27.5 19.1 27.25 19.25 C 27 19.4 26.95 19.55 26.75 19.75 C 26.55 19.95 26.45 20.05 26.25 20.25 C 26.05 20.45 25.95 20.55 25.75 20.75 C 25.55 20.95 25.4 21 25.25 21.25 C 25.1 21.5 25.05 21.65 25 22 C 24.95 22.35 24.95 22.65 25 23 C 25.05 23.35 25.1 23.5 25.25 23.75 C 25.4 24 25.6 24 25.75 24.25 C 25.9 24.5 26.15 24.85 26 25 C 25.85 25.15 25.35 24.95 25 25 C 24.65 25.05 24.5 25.1 24.25 25.25 C 24 25.4 23.95 25.55 23.75 25.75 C 23.55 25.95 23.35 26.05 23.25 26.25 C 23.15 26.45 23.1 26.6 23.25 26.75 C 23.4 26.9 23.65 26.95 24 27 C 24.35 27.05 24.6 27 25 27 C 25.4 27 25.65 26.95 26 27 C 26.35 27.05 26.55 27.05 26.75 27.25 C 26.95 27.45 26.9 27.7 27 28 C 27.1 28.3 27.1 28.5 27.25 28.75 C 27.4 29 27.55 29.05 27.75 29.25 C 27.95 29.45 28.05 29.55 28.25 29.75 C 28.45 29.95 28.6 30 28.75 30.25 C 28.9 30.5 28.95 30.65 29 31 C 29.05 31.35 28.95 31.65 29 32 C 29.05 32.35 29.1 32.5 29.25 32.75 C 29.4 33 29.6 33 29.75 33.25 C 29.9 33.5 29.9 33.7 30 34 C 30.1 34.3 30.05 34.55 30.25 34.75 C 30.45 34.95 30.65 34.95 31 35 C 31.35 35.05 31.6 35 32 35 C 32.4 35 32.65 35.05 33 35 C 33.35 34.95 33.5 34.9 33.75 34.75 C 34 34.6 34.05 34.45 34.25 34.25 C 34.45 34.05 34.55 33.95 34.75 33.75 C 34.95 33.55 35.05 33.35 35.25 33.25 C 35.45 33.15 35.55 33.15 35.75 33.25 C 35.95 33.35 36.05 33.55 36.25 33.75 C 36.45 33.95 36.65 34.05 36.75 34.25 C 36.85 34.45 36.85 34.55 36.75 34.75 C 36.65 34.95 36.45 35.05 36.25 35.25 C 36.05 35.45 36 35.6 35.75 35.75 C 35.5 35.9 35.35 35.95 35 36 C 34.65 36.05 34.35 35.95 34 36 C 33.65 36.05 33.4 36.1 33.25 36.25 C 33.1 36.4 33.1 36.6 33.25 36.75 C 33.4 36.9 33.65 36.95 34 37 C 34.35 37.05 34.6 37 35 37 C 35.4 37 35.6 37 36 37 C 36.4 37 36.85 36.85 37 37 C 37.15 37.15 36.9 37.5 36.75 37.75 C 36.6 38 36.45 38.05 36.25 38.25 C 36.05 38.45 36 38.6 35.75 38.75 C 35.5 38.9 35.3 38.9 35 39 C 34.7 39.1 34.5 39.1 34.25 39.25 C 34 39.4 34 39.6 33.75 39.75 C 33.5 39.9 33.15 40.15 33 40 C 32.85 39.85 33.05 39.35 33 39 C 32.95 38.65 32.95 38.45 32.75 38.25 C 32.55 38.05 32.3 38 32 38 C 31.7 38 31.45 38.05 31.25 38.25 C 31.05 38.45 31.05 38.65 31 39 C 30.95 39.35 31.05 39.65 31 40 C 30.95 40.35 30.95 40.55 30.75 40.75 C 30.55 40.95 30.35 40.95 30 41 C 29.65 41.05 29.35 41.05 29 41 C 28.65 40.95 28.45 40.95 28.25 40.75 C 28.05 40.55 27.9 40.2 28 40 C 28.1 39.8 28.6 39.9 28.75 39.75 C 28.9 39.6 28.9 39.4 28.75 39.25 C 28.6 39.1 28.2 39.2 28 39 C 27.8 38.8 27.9 38.5 27.75 38.25 C 27.6 38 27.45 37.95 27.25 37.75 C 27.05 37.55 26.95 37.45 26.75 37.25 C 26.55 37.05 26.4 37 26.25 36.75 C 26.1 36.5 26.1 36.3 26 36 C 25.9 35.7 25.9 35.5 25.75 35.25 C 25.6 35 25.45 34.95 25.25 34.75 C 25.05 34.55 24.95 34.45 24.75 34.25 C 24.55 34.05 24.45 33.95 24.25 33.75 C 24.05 33.55 23.95 33.45 23.75 33.25 C 23.55 33.05 23.45 32.95 23.25 32.75 C 23.05 32.55 22.95 32.45 22.75 32.25 C 22.55 32.05 22.4 32 22.25 31.75 C 22.1 31.5 22.05 31.35 22 31 C 21.95 30.65 22.05 30.35 22 30 C 21.95 29.65 21.9 29.4 21.75 29.25 C 21.6 29.1 21.4 29.1 21.25 29.25 C 21.1 29.4 21.05 29.65 21 30 C 20.95 30.35 20.95 30.65 21 31 C 21.05 31.35 21.1 31.5 21.25 31.75 C 21.4 32 21.6 32 21.75 32.25 C 21.9 32.5 21.95 32.65 22 33 C 22.05 33.35 22.05 33.65 22 34 C 21.95 34.35 21.9 34.5 21.75 34.75 C 21.6 35 21.45 35.05 21.25 35.25 C 21.05 35.45 20.95 35.55 20.75 35.75 C 20.55 35.95 20.45 36.05 20.25 36.25 C 20.05 36.45 19.95 36.55 19.75 36.75 C 19.55 36.95 19.45 37.05 19.25 37.25 C 19.05 37.45 18.95 37.55 18.75 37.75 C 18.55 37.95 18.4 38 18.25 38.25 C 18.1 38.5 18 38.7 18 39 C 18 39.3 18.1 39.5 18.25 39.75 C 18.4 40 18.55 40.05 18.75 40.25 C 18.95 40.45 19.05 40.55 19.25 40.75 C 19.45 40.95 19.6 41 19.75 41.25 C 19.9 41.5 19.95 41.65 20 42 C 20.05 42.35 20 42.6 20 43 C 20 43.4 20.05 43.65 20 44 C 19.95 44.35 19.9 44.5 19.75 44.75 C 19.6 45 19.45 45.05 19.25 45.25 C 19.05 45.45 18.95 45.65 18.75 45.75 C 18.55 45.85 18.4 45.9 18.25 45.75 C 18.1 45.6 17.9 45.2 18 45 C 18.1 44.8 18.6 44.9 18.75 44.75 C 18.9 44.6 18.9 44.4 18.75 44.25 C 18.6 44.1 18.2 44.2 18 44 C 17.8 43.8 17.9 43.4 17.75 43.25 C 17.6 43.1 17.4 43.1 17.25 43.25 C 17.1 43.4 17.1 43.7 17 44 C 16.9 44.3 16.9 44.5 16.75 44.75 C 16.6 45 16.45 45.05 16.25 45.25 C 16.05 45.45 15.95 45.65 15.75 45.75 C 15.55 45.85 15.4 45.9 15.25 45.75 C 15.1 45.6 15.05 45.35 15 45 C 14.95 44.65 15.05 44.35 15 44 C 14.95 43.65 14.9 43.5 14.75 43.25 C 14.6 43 14.4 43 14.25 42.75 C 14.1 42.5 13.85 42.15 14 42 C 14.15 41.85 14.75 41.85 15 42 C 15.25 42.15 15.1 42.6 15.25 42.75 C 15.4 42.9 15.6 42.9 15.75 42.75 C 15.9 42.6 15.95 42.35 16 42 C 16.05 41.65 16.05 41.35 16 41 C 15.95 40.65 15.9 40.5 15.75 40.25 C 15.6 40 15.4 40 15.25 39.75 C 15.1 39.5 15.1 39.3 15 39 C 14.9 38.7 14.9 38.5 14.75 38.25 C 14.6 38 14.4 38 14.25 37.75 C 14.1 37.5 14 37.3 14 37 C 14 36.7 14.1 36.4 14.25 36.25 C 14.4 36.1 14.55 36.15 14.75 36.25 C 14.95 36.35 15.05 36.65 15.25 36.75 C 15.45 36.85 15.65 36.85 15.75 36.75 C 15.85 36.65 15.85 36.45 15.75 36.25 C 15.65 36.05 15.35 35.95 15.25 35.75 C 15.15 35.55 15.1 35.4 15.25 35.25 C 15.4 35.1 15.7 35 16 35 C 16.3 35 16.5 35.1 16.75 35.25 C 17 35.4 17.05 35.65 17.25 35.75 C 17.45 35.85 17.55 35.85 17.75 35.75 C 17.95 35.65 18.05 35.45 18.25 35.25 C 18.45 35.05 18.6 35 18.75 34.75 C 18.9 34.5 18.95 34.35 19 34 C 19.05 33.65 19 33.4 19 33 C 19 32.6 19.05 32.35 19 32 C 18.95 31.65 18.95 31.45 18.75 31.25 C 18.55 31.05 18.3 31.1 18 31 C 17.7 30.9 17.45 30.95 17.25 30.75 C 17.05 30.55 17.1 30.3 17 30 C 16.9 29.7 16.95 29.45 16.75 29.25 C 16.55 29.05 16.3 29.1 16 29 C 15.7 28.9 15.45 28.95 15.25 28.75 C 15.05 28.55 15.05 28.35 15 28 C 14.95 27.65 15.05 27.35 15 27 C 14.95 26.65 14.9 26.5 14.75 26.25 C 14.6 26 14.4 26 14.25 25.75 C 14.1 25.5 14.1 25.3 14 25 C 13.9 24.7 13.95 24.45 13.75 24.25 C 13.55 24.05 13.3 24 13 24 C 12.7 24 12.5 24.1 12.25 24.25 C 12 24.4 11.95 24.55 11.75 24.75 C 11.55 24.95 11.35 25.05 11.25 25.25 C 11.15 25.45 11.15 25.55 11.25 25.75 C 11.35 25.95 11.6 26 11.75 26.25 C 11.9 26.5 12 26.7 12 27 C 12 27.3 11.9 27.5 11.75 27.75 C 11.6 28 11.45 28.05 11.25 28.25 C 11.05 28.45 10.95 28.55 10.75 28.75 C 10.55 28.95 10.45 29.05 10.25 29.25 C 10.05 29.45 10 29.6 9.75 29.75 C 9.5 29.9 9.35 29.95 9 30 C 8.65 30.05 8.4 30 8 30 C 7.6 30 7.35 30.05 7 30 C 6.65 29.95 6.45 29.95 6.25 29.75 C 6.05 29.55 6.1 29.3 6 29 C 5.9 28.7 5.9 28.5 5.75 28.25 C 5.6 28 5.45 27.95 5.25 27.75 C 5.05 27.55 4.95 27.45 4.75 27.25 C 4.55 27.05 4.4 27 4.25 26.75 C 4.1 26.5 3.85 26.15 4 26 C 4.15 25.85 4.65 25.95 5 26 C 5.35 26.05 5.5 26.1 5.75 26.25 C 6 26.4 6.05 26.65 6.25 26.75 C 6.45 26.85 6.6 26.9 6.75 26.75 C 6.9 26.6 6.95 26.35 7 26 C 7.05 25.65 6.85 25.15 7 25 C 7.15 24.85 7.5 25.1 7.75 25.25 C 8 25.4 8 25.6 8.25 25.75 C 8.5 25.9 8.7 26 9 26 C 9.3 26 9.5 25.9 9.75 25.75 C 10 25.6 10.05 25.45 10.25 25.25 C 10.45 25.05 10.6 25 10.75 24.75 C 10.9 24.5 10.9 24.3 11 24 C 11.1 23.7 11.1 23.5 11.25 23.25 C 11.4 23 11.55 22.95 11.75 22.75 C 11.95 22.55 12.05 22.45 12.25 22.25 C 12.45 22.05 12.65 21.95 12.75 21.75 C 12.85 21.55 12.85 21.45 12.75 21.25 C 12.65 21.05 12.45 20.95 12.25 20.75 C 12.05 20.55 11.95 20.45 11.75 20.25 C 11.55 20.05 11.35 19.95 11.25 19.75 C 11.15 19.55 11.15 19.35 11.25 19.25 C 11.35 19.15 11.55 19.15 11.75 19.25 C 11.95 19.35 12.05 19.65 12.25 19.75 C 12.45 19.85 12.55 19.85 12.75 19.75 C 12.95 19.65 13 19.4 13.25 19.25 C 13.5 19.1 13.9 18.9 14 19 C 14.1 19.1 13.9 19.5 13.75 19.75 C 13.6 20 13.35 20.05 13.25 20.25 C 13.15 20.45 13.1 20.6 13.25 20.75 C 13.4 20.9 13.65 20.95 14 21 C 14.35 21.05 14.8 20.8 15 21 C 15.2 21.2 15 21.6 15 22 C 15 22.4 14.95 22.65 15 23 C 15.05 23.35 15.05 23.55 15.25 23.75 C 15.45 23.95 15.7 23.9 16 24 C 16.3 24.1 16.55 24.05 16.75 24.25 C 16.95 24.45 16.9 24.7 17 25 C 17.1 25.3 17.1 25.5 17.25 25.75 C 17.4 26 17.55 26.05 17.75 26.25 C 17.95 26.45 18.05 26.65 18.25 26.75 C 18.45 26.85 18.6 26.9 18.75 26.75 C 18.9 26.6 18.75 26.15 19 26 C 19.25 25.85 19.65 26.05 20 26 C 20.35 25.95 20.6 25.9 20.75 25.75 C 20.9 25.6 20.9 25.4 20.75 25.25 C 20.6 25.1 20.15 25.25 20 25 C 19.85 24.75 20 24.4 20 24 C 20 23.6 20 23.4 20 23 C 20 22.6 19.8 22.2 20 22 C 20.2 21.8 20.65 21.95 21 22 C 21.35 22.05 21.55 22.05 21.75 22.25 C 21.95 22.45 21.95 22.65 22 23 C 22.05 23.35 21.95 23.65 22 24 C 22.05 24.35 22.1 24.6 22.25 24.75 C 22.4 24.9 22.6 24.9 22.75 24.75 C 22.9 24.6 22.95 24.35 23 24 C 23.05 23.65 23.05 23.35 23 23 C 22.95 22.65 22.9 22.5 22.75 22.25 C 22.6 22 22.4 22 22.25 21.75 C 22.1 21.5 22.1 21.3 22 21 C 21.9 20.7 21.95 20.45 21.75 20.25 C 21.55 20.05 21.1 20.2 21 20 C 20.9 19.8 21.1 19.5 21.25 19.25 C 21.4 19 21.6 19 21.75 18.75 C 21.9 18.5 21.8 18.2 22 18 C 22.2 17.8 22.5 17.9 22.75 17.75 C 23 17.6 23 17.4 23.25 17.25 C 23.5 17.1 23.65 17.05 24 17 C 24.35 16.95 24.6 17 25 17 C 25.4 17 25.85 16.85 26 17 C 26.15 17.15 25.95 17.55 25.75 17.75 C 25.55 17.95 25.3 17.9 25 18 C 24.7 18.1 24.45 18.05 24.25 18.25 C 24.05 18.45 24 18.7 24 19 C 24 19.3 24.1 19.6 24.25 19.75 C 24.4 19.9 24.55 19.85 24.75 19.75 C 24.95 19.65 25.05 19.45 25.25 19.25 C 25.45 19.05 25.55 18.95 25.75 18.75 C 25.95 18.55 26.05 18.45 26.25 18.25 C 26.45 18.05 26.6 18 26.75 17.75 C 26.9 17.5 26.95 17.35 27 17 C 27.05 16.65 27 16.4 27 16 C 27 15.6 26.85 15.15 27 15 " fill = "rgb(15, 152, 29)" stroke = "rgb(15, 152, 29)" stroke-width = "0"/>
    <path d="M 30 15 C 30.2 14.8 30.6 15 31 15 C 31.4 15 31.8 14.8 32 15 C 32.2 15.2 32.2 15.8 32 16 C 31.8 16.2 31.4 16 31 16 C 30.6 16 30.2 16.2 30 16 C 29.8 15.8 29.8 15.2 30 15 " fill = "rgb(39, 206, 50)" stroke = "rgb(39, 206, 50)" stroke-width = "0"/>
    <path d="M 34 15 C 34.1 14.9 34.5 15.1 34.75 15.25 C 35 15.4 35.05 15.55 35.25 15.75 C 35.45 15.95 35.6 16 35.75 16.25 C 35.9 16.5 36.1 16.9 36 17 C 35.9 17.1 35.5 16.9 35.25 16.75 C 35 16.6 34.95 16.45 34.75 16.25 C 34.55 16.05 34.4 16 34.25 15.75 C 34.1 15.5 33.9 15.1 34 15 " fill = "rgb(194, 226, 194)" stroke = "rgb(194, 226, 194)" stroke-width = "0"/>
    <path d="M 16 16 C 16.2 15.9 16.55 16.05 16.75 16.25 C 16.95 16.45 17.1 16.8 17 17 C 16.9 17.2 16.45 17.05 16.25 17.25 C 16.05 17.45 16.05 17.65 16 18 C 15.95 18.35 16.2 18.8 16 19 C 15.8 19.2 15.2 19.2 15 19 C 14.8 18.8 15 18.4 15 18 C 15 17.6 14.85 17.25 15 17 C 15.15 16.75 15.55 16.95 15.75 16.75 C 15.95 16.55 15.8 16.1 16 16 " fill = "rgb(15, 152, 29)" stroke = "rgb(15, 152, 29)" stroke-width = "0"/>
    <path d="M 14 17 C 14.2 16.8 14.8 16.8 15 17 C 15.2 17.2 15 17.6 15 18 C 15 18.4 15.2 18.8 15 19 C 14.8 19.2 14.2 19.2 14 19 C 13.8 18.8 14 18.4 14 18 C 14 17.6 13.8 17.2 14 17 " fill = "rgb(57, 250, 65)" stroke = "rgb(57, 250, 65)" stroke-width = "0"/>
    <path d="M 16.25 17.25 C 16.45 17.05 16.65 17.05 17 17 C 17.35 16.95 17.85 16.85 18 17 C 18.15 17.15 17.9 17.5 17.75 17.75 C 17.6 18 17.4 18 17.25 18.25 C 17.1 18.5 17.25 18.85 17 19 C 16.75 19.15 16.2 19.2 16 19 C 15.8 18.8 15.95 18.35 16 18 C 16.05 17.65 16.05 17.45 16.25 17.25 " fill = "rgb(39, 206, 50)" stroke = "rgb(39, 206, 50)" stroke-width = "0"/>
    <path d="M 18 17 C 18.25 16.85 18.8 16.8 19 17 C 19.2 17.2 19.05 17.65 19 18 C 18.95 18.35 18.95 18.55 18.75 18.75 C 18.55 18.95 18.35 18.95 18 19 C 17.65 19.05 17.15 19.15 17 19 C 16.85 18.85 17.1 18.5 17.25 18.25 C 17.4 18 17.6 18 17.75 17.75 C 17.9 17.5 17.75 17.15 18 17 " fill = "rgb(57, 250, 65)" stroke = "rgb(57, 250, 65)" stroke-width = "0"/>
    <path d="M 19 17 C 19.15 16.85 19.55 17.05 19.75 17.25 C 19.95 17.45 20 17.7 20 18 C 20 18.3 19.9 18.5 19.75 18.75 C 19.6 19 19.4 19 19.25 19.25 C 19.1 19.5 19.2 19.9 19 20 C 18.8 20.1 18.45 19.95 18.25 19.75 C 18.05 19.55 17.9 19.2 18 19 C 18.1 18.8 18.55 18.95 18.75 18.75 C 18.95 18.55 18.95 18.35 19 18 C 19.05 17.65 18.85 17.15 19 17 " fill = "rgb(15, 152, 29)" stroke = "rgb(15, 152, 29)" stroke-width = "0"/>
    <path d="M 26 17 C 26.25 16.85 26.85 16.85 27 17 C 27.15 17.15 26.9 17.5 26.75 17.75 C 26.6 18 26.45 18.05 26.25 18.25 C 26.05 18.45 25.95 18.55 25.75 18.75 C 25.55 18.95 25.45 19.05 25.25 19.25 C 25.05 19.45 24.95 19.65 24.75 19.75 C 24.55 19.85 24.4 19.9 24.25 19.75 C 24.1 19.6 24 19.3 24 19 C 24 18.7 24.05 18.45 24.25 18.25 C 24.45 18.05 24.7 18.1 25 18 C 25.3 17.9 25.55 17.95 25.75 17.75 C 25.95 17.55 25.75 17.15 26 17 " fill = "rgb(9, 54, 13)" stroke = "rgb(9, 54, 13)" stroke-width = "0"/>
    <path d="M 31.25 17.25 C 31.35 17.15 31.55 17.15 31.75 17.25 C 31.95 17.35 32.05 17.55 32.25 17.75 C 32.45 17.95 32.65 18.05 32.75 18.25 C 32.85 18.45 32.85 18.65 32.75 18.75 C 32.65 18.85 32.45 18.85 32.25 18.75 C 32.05 18.65 31.95 18.45 31.75 18.25 C 31.55 18.05 31.35 17.95 31.25 17.75 C 31.15 17.55 31.15 17.35 31.25 17.25 " fill = "rgb(9, 54, 13)" stroke = "rgb(9, 54, 13)" stroke-width = "0"/>
    <path d="M 36 17 C 36.15 16.85 36.8 16.8 37 17 C 37.2 17.2 37.15 17.85 37 18 C 36.85 18.15 36.45 17.95 36.25 17.75 C 36.05 17.55 35.85 17.15 36 17 " fill = "rgb(248, 254, 248)" stroke = "rgb(248, 254, 248)" stroke-width = "0"/>
    <path d="M 37 17 C 37.15 16.85 37.55 17.05 37.75 17.25 C 37.95 17.45 37.95 17.65 38 18 C 38.05 18.35 38 18.6 38 19 C 38 19.4 38 19.6 38 20 C 38 20.4 38 20.6 38 21 C 38 21.4 38 21.6 38 22 C 38 22.4 38.2 22.8 38 23 C 37.8 23.2 37.2 23.2 37 23 C 36.8 22.8 37 22.4 37 22 C 37 21.6 37 21.4 37 21 C 37 20.6 37 20.4 37 20 C 37 19.6 37 19.4 37 19 C 37 18.6 37 18.4 37 18 C 37 17.6 36.85 17.15 37 17 " fill = "rgb(194, 226, 194)" stroke = "rgb(194, 226, 194)" stroke-width = "0"/>
    <path d="M 9 18 C 9.15 17.85 9.55 18.05 9.75 18.25 C 9.95 18.45 10.15 18.85 10 19 C 9.85 19.15 9.2 19.2 9 19 C 8.8 18.8 8.85 18.15 9 18 " fill = "rgb(145, 177, 145)" stroke = "rgb(145, 177, 145)" stroke-width = "0"/>
    <path d="M 2.25 19.25 C 2.5 19.1 2.85 18.85 3 19 C 3.15 19.15 3.15 19.75 3 20 C 2.85 20.25 2.45 20.05 2.25 20.25 C 2.05 20.45 2.25 20.85 2 21 C 1.75 21.15 1.15 21.15 1 21 C 0.85 20.85 1.1 20.5 1.25 20.25 C 1.4 20 1.55 19.95 1.75 19.75 C 1.95 19.55 2 19.4 2.25 19.25 " fill = "rgb(194, 226, 194)" stroke = "rgb(194, 226, 194)" stroke-width = "0"/>
    <path d="M 4 19 C 4.15 18.85 4.85 18.85 5 19 C 5.15 19.15 4.9 19.6 4.75 19.75 C 4.6 19.9 4.4 19.9 4.25 19.75 C 4.1 19.6 3.85 19.15 4 19 " fill = "rgb(95, 120, 95)" stroke = "rgb(95, 120, 95)" stroke-width = "0"/>
    <path d="M 6 19 C 6.15 18.85 6.55 19.05 6.75 19.25 C 6.95 19.45 7.15 19.85 7 20 C 6.85 20.15 6.2 20.2 6 20 C 5.8 19.8 5.85 19.15 6 19 " fill = "rgb(145, 177, 145)" stroke = "rgb(145, 177, 145)" stroke-width = "0"/>
    <path d="M 9 19 C 9.2 18.8 9.8 18.8 10 19 C 10.2 19.2 10.2 19.8 10 20 C 9.8 20.2 9.2 20.2 9 20 C 8.8 19.8 8.8 19.2 9 19 " fill = "rgb(95, 120, 95)" stroke = "rgb(95, 120, 95)" stroke-width = "0"/>
    <path d="M 14 19 C 14.25 18.85 14.8 18.8 15 19 C 15.2 19.2 15 19.6 15 20 C 15 20.4 15.2 20.8 15 21 C 14.8 21.2 14.35 21.05 14 21 C 13.65 20.95 13.4 20.9 13.25 20.75 C 13.1 20.6 13.15 20.45 13.25 20.25 C 13.35 20.05 13.6 20 13.75 19.75 C 13.9 19.5 13.75 19.15 14 19 " fill = "rgb(39, 206, 50)" stroke = "rgb(39, 206, 50)" stroke-width = "0"/>
    <path d="M 15 19 C 15.2 18.8 15.6 19 16 19 C 16.4 19 16.6 19 17 19 C 17.4 19 17.75 18.85 18 19 C 18.25 19.15 18.05 19.55 18.25 19.75 C 18.45 19.95 18.85 19.75 19 20 C 19.15 20.25 18.95 20.65 19 21 C 19.05 21.35 19.05 21.55 19.25 21.75 C 19.45 21.95 19.85 21.75 20 22 C 20.15 22.25 20 22.6 20 23 C 20 23.4 20 23.6 20 24 C 20 24.4 20.2 24.8 20 25 C 19.8 25.2 19.4 25 19 25 C 18.6 25 18.4 25 18 25 C 17.6 25 17.25 25.15 17 25 C 16.75 24.85 16.95 24.45 16.75 24.25 C 16.55 24.05 16.15 24.25 16 24 C 15.85 23.75 16.05 23.35 16 23 C 15.95 22.65 15.95 22.45 15.75 22.25 C 15.55 22.05 15.15 22.25 15 22 C 14.85 21.75 15 21.4 15 21 C 15 20.6 15 20.4 15 20 C 15 19.6 14.8 19.2 15 19 " fill = "rgb(9, 54, 13)" stroke = "rgb(9, 54, 13)" stroke-width = "0"/>
    <path d="M 2.25 20.25 C 2.45 20.05 2.9 19.9 3 20 C 3.1 20.1 2.95 20.55 2.75 20.75 C 2.55 20.95 2.1 21.1 2 21 C 1.9 20.9 2.05 20.45 2.25 20.25 " fill = "rgb(95, 120, 95)" stroke = "rgb(95, 120, 95)" stroke-width = "0"/>
    <path d="M 6 20 C 6.15 19.85 6.8 19.8 7 20 C 7.2 20.2 7.15 20.85 7 21 C 6.85 21.15 6.45 20.95 6.25 20.75 C 6.05 20.55 5.85 20.15 6 20 " fill = "rgb(39, 95, 43)" stroke = "rgb(39, 95, 43)" stroke-width = "0"/>
    <path d="M 7 20 C 7.2 19.8 7.6 20 8 20 C 8.4 20 8.6 20 9 20 C 9.4 20 9.8 19.8 10 20 C 10.2 20.2 10 20.6 10 21 C 10 21.4 10.15 21.75 10 22 C 9.85 22.25 9.45 22.05 9.25 22.25 C 9.05 22.45 9.25 22.85 9 23 C 8.75 23.15 8.2 23.2 8 23 C 7.8 22.8 8.05 22.35 8 22 C 7.95 21.65 7.95 21.45 7.75 21.25 C 7.55 21.05 7.15 21.25 7 21 C 6.85 20.75 6.8 20.2 7 20 " fill = "rgb(194, 226, 194)" stroke = "rgb(194, 226, 194)" stroke-width = "0"/>
    <path d="M 21 20 C 21.15 19.85 21.55 20.05 21.75 20.25 C 21.95 20.45 21.9 20.7 22 21 C 22.1 21.3 22.1 21.5 22.25 21.75 C 22.4 22 22.6 22 22.75 22.25 C 22.9 22.5 22.95 22.65 23 23 C 23.05 23.35 23.05 23.65 23 24 C 22.95 24.35 22.9 24.6 22.75 24.75 C 22.6 24.9 22.4 24.9 22.25 24.75 C 22.1 24.6 22.05 24.35 22 24 C 21.95 23.65 22.05 23.35 22 23 C 21.95 22.65 21.95 22.45 21.75 22.25 C 21.55 22.05 21.15 22.25 21 22 C 20.85 21.75 21 21.4 21 21 C 21 20.6 20.85 20.15 21 20 " fill = "rgb(9, 54, 13)" stroke = "rgb(9, 54, 13)" stroke-width = "0"/>
    <path d="M 3.25 21.25 C 3.45 21.05 3.8 20.9 4 21 C 4.2 21.1 4.1 21.6 4.25 21.75 C 4.4 21.9 4.6 21.9 4.75 21.75 C 4.9 21.6 4.8 21.1 5 21 C 5.2 20.9 5.55 21.05 5.75 21.25 C 5.95 21.45 5.9 21.7 6 22 C 6.1 22.3 6.05 22.55 6.25 22.75 C 6.45 22.95 6.85 22.75 7 23 C 7.15 23.25 7 23.6 7 24 C 7 24.4 7 24.6 7 25 C 7 25.4 7.05 25.65 7 26 C 6.95 26.35 6.9 26.6 6.75 26.75 C 6.6 26.9 6.45 26.85 6.25 26.75 C 6.05 26.65 6 26.4 5.75 26.25 C 5.5 26.1 5.35 26.05 5 26 C 4.65 25.95 4.2 26.2 4 26 C 3.8 25.8 4.05 25.35 4 25 C 3.95 24.65 3.95 24.45 3.75 24.25 C 3.55 24.05 3.15 24.25 3 24 C 2.85 23.75 3 23.4 3 23 C 3 22.6 2.95 22.35 3 22 C 3.05 21.65 3.05 21.45 3.25 21.25 " fill = "rgb(39, 206, 50)" stroke = "rgb(39, 206, 50)" stroke-width = "0"/>
    <path d="M 4 21 C 4.15 20.85 4.85 20.85 5 21 C 5.15 21.15 4.9 21.6 4.75 21.75 C 4.6 21.9 4.4 21.9 4.25 21.75 C 4.1 21.6 3.85 21.15 4 21 " fill = "rgb(57, 250, 65)" stroke = "rgb(57, 250, 65)" stroke-width = "0"/>
    <path d="M 10 21 C 10.15 20.85 10.6 21.1 10.75 21.25 C 10.9 21.4 10.9 21.6 10.75 21.75 C 10.6 21.9 10.15 22.15 10 22 C 9.85 21.85 9.85 21.15 10 21 " fill = "rgb(248, 254, 248)" stroke = "rgb(248, 254, 248)" stroke-width = "0"/>
    <path d="M 27.25 21.25 C 27.45 21.05 27.9 20.9 28 21 C 28.1 21.1 27.95 21.55 27.75 21.75 C 27.55 21.95 27.1 22.1 27 22 C 26.9 21.9 27.05 21.45 27.25 21.25 " fill = "rgb(137, 131, 136)" stroke = "rgb(137, 131, 136)" stroke-width = "0"/>
    <path d="M 28 21 C 28.2 20.9 28.55 21.05 28.75 21.25 C 28.95 21.45 28.95 21.65 29 22 C 29.05 22.35 29.15 22.75 29 23 C 28.85 23.25 28.45 23.05 28.25 23.25 C 28.05 23.45 28.2 23.9 28 24 C 27.8 24.1 27.45 23.95 27.25 23.75 C 27.05 23.55 27.05 23.35 27 23 C 26.95 22.65 26.85 22.25 27 22 C 27.15 21.75 27.55 21.95 27.75 21.75 C 27.95 21.55 27.8 21.1 28 21 " fill = "rgb(194, 226, 194)" stroke = "rgb(194, 226, 194)" stroke-width = "0"/>
    <path d="M 6 22 C 6.1 21.9 6.55 22.05 6.75 22.25 C 6.95 22.45 7.1 22.9 7 23 C 6.9 23.1 6.45 22.95 6.25 22.75 C 6.05 22.55 5.9 22.1 6 22 " fill = "rgb(15, 152, 29)" stroke = "rgb(15, 152, 29)" stroke-width = "0"/>
    <path d="M 9.25 22.25 C 9.45 22.05 9.9 21.9 10 22 C 10.1 22.1 9.95 22.55 9.75 22.75 C 9.55 22.95 9.1 23.1 9 23 C 8.9 22.9 9.05 22.45 9.25 22.25 " fill = "rgb(169, 164, 168)" stroke = "rgb(169, 164, 168)" stroke-width = "0"/>
    <path d="M 15 22 C 15.15 21.85 15.55 22.05 15.75 22.25 C 15.95 22.45 15.95 22.65 16 23 C 16.05 23.35 16.15 23.85 16 24 C 15.85 24.15 15.45 23.95 15.25 23.75 C 15.05 23.55 15.05 23.35 15 23 C 14.95 22.65 14.85 22.15 15 22 " fill = "rgb(39, 206, 50)" stroke = "rgb(39, 206, 50)" stroke-width = "0"/>
    <path d="M 26.25 22.25 C 26.45 22.05 26.85 21.85 27 22 C 27.15 22.15 27.2 22.8 27 23 C 26.8 23.2 26.15 23.15 26 23 C 25.85 22.85 26.05 22.45 26.25 22.25 " fill = "rgb(205, 200, 204)" stroke = "rgb(205, 200, 204)" stroke-width = "0"/>
    <path d="M 29 22 C 29.15 21.85 29.55 22.05 29.75 22.25 C 29.95 22.45 30.15 22.85 30 23 C 29.85 23.15 29.2 23.2 29 23 C 28.8 22.8 28.85 22.15 29 22 " fill = "rgb(248, 254, 248)" stroke = "rgb(248, 254, 248)" stroke-width = "0"/>
    <path d="M 8 23 C 8.15 22.85 8.85 22.85 9 23 C 9.15 23.15 8.9 23.6 8.75 23.75 C 8.6 23.9 8.4 23.9 8.25 23.75 C 8.1 23.6 7.85 23.15 8 23 " fill = "rgb(137, 131, 136)" stroke = "rgb(137, 131, 136)" stroke-width = "0"/>
    <path d="M 26 23 C 26.15 22.85 26.75 22.85 27 23 C 27.25 23.15 27.05 23.55 27.25 23.75 C 27.45 23.95 27.85 23.75 28 24 C 28.15 24.25 28.2 24.8 28 25 C 27.8 25.2 27.25 25.15 27 25 C 26.75 24.85 26.9 24.5 26.75 24.25 C 26.6 24 26.4 24 26.25 23.75 C 26.1 23.5 25.85 23.15 26 23 " fill = "rgb(95, 120, 95)" stroke = "rgb(95, 120, 95)" stroke-width = "0"/>
    <path d="M 30 23 C 30.15 22.85 30.75 22.85 31 23 C 31.25 23.15 31.05 23.55 31.25 23.75 C 31.45 23.95 31.8 23.8 32 24 C 32.2 24.2 32.05 24.55 32.25 24.75 C 32.45 24.95 32.65 24.95 33 25 C 33.35 25.05 33.6 25 34 25 C 34.4 25 34.6 25 35 25 C 35.4 25 35.85 24.85 36 25 C 36.15 25.15 35.95 25.55 35.75 25.75 C 35.55 25.95 35.35 25.95 35 26 C 34.65 26.05 34.4 26 34 26 C 33.6 26 33.4 26 33 26 C 32.6 26 32.35 26.05 32 26 C 31.65 25.95 31.45 25.95 31.25 25.75 C 31.05 25.55 31.1 25.3 31 25 C 30.9 24.7 30.9 24.5 30.75 24.25 C 30.6 24 30.4 24 30.25 23.75 C 30.1 23.5 29.85 23.15 30 23 " fill = "rgb(194, 226, 194)" stroke = "rgb(194, 226, 194)" stroke-width = "0"/>
    <path d="M 31 23 C 31.1 22.9 31.55 23.05 31.75 23.25 C 31.95 23.45 32.1 23.9 32 24 C 31.9 24.1 31.45 23.95 31.25 23.75 C 31.05 23.55 30.9 23.1 31 23 " fill = "rgb(95, 120, 95)" stroke = "rgb(95, 120, 95)" stroke-width = "0"/>
    <path d="M 36.25 23.25 C 36.5 23.1 36.85 22.85 37 23 C 37.15 23.15 37.15 23.75 37 24 C 36.85 24.25 36.45 24.05 36.25 24.25 C 36.05 24.45 36.25 24.85 36 25 C 35.75 25.15 35.15 25.15 35 25 C 34.85 24.85 35.1 24.5 35.25 24.25 C 35.4 24 35.55 23.95 35.75 23.75 C 35.95 23.55 36 23.4 36.25 23.25 " fill = "rgb(95, 120, 95)" stroke = "rgb(95, 120, 95)" stroke-width = "0"/>
    <path d="M 37 23 C 37.2 22.8 37.85 22.85 38 23 C 38.15 23.15 37.95 23.55 37.75 23.75 C 37.55 23.95 37.15 24.15 37 24 C 36.85 23.85 36.8 23.2 37 23 " fill = "rgb(248, 254, 248)" stroke = "rgb(248, 254, 248)" stroke-width = "0"/>
    <path d="M 1 24 C 1.1 23.9 1.55 24.05 1.75 24.25 C 1.95 24.45 2.1 24.9 2 25 C 1.9 25.1 1.45 24.95 1.25 24.75 C 1.05 24.55 0.9 24.1 1 24 " fill = "rgb(95, 120, 95)" stroke = "rgb(95, 120, 95)" stroke-width = "0"/>
    <path d="M 3 24 C 3.1 23.9 3.55 24.05 3.75 24.25 C 3.95 24.45 4.1 24.9 4 25 C 3.9 25.1 3.45 24.95 3.25 24.75 C 3.05 24.55 2.9 24.1 3 24 " fill = "rgb(15, 152, 29)" stroke = "rgb(15, 152, 29)" stroke-width = "0"/>
    <path d="M 2 25 C 2.15 24.85 2.55 25.05 2.75 25.25 C 2.95 25.45 2.95 25.65 3 26 C 3.05 26.35 3.2 26.8 3 27 C 2.8 27.2 2.2 27.2 2 27 C 1.8 26.8 2 26.4 2 26 C 2 25.6 1.85 25.15 2 25 " fill = "rgb(145, 177, 145)" stroke = "rgb(145, 177, 145)" stroke-width = "0"/>
    <path d="M 17 25 C 17.15 24.85 17.75 24.85 18 25 C 18.25 25.15 18.05 25.55 18.25 25.75 C 18.45 25.95 18.9 25.8 19 26 C 19.1 26.2 18.9 26.6 18.75 26.75 C 18.6 26.9 18.45 26.85 18.25 26.75 C 18.05 26.65 17.95 26.45 17.75 26.25 C 17.55 26.05 17.4 26 17.25 25.75 C 17.1 25.5 16.85 25.15 17 25 " fill = "rgb(39, 206, 50)" stroke = "rgb(39, 206, 50)" stroke-width = "0"/>
    <path d="M 18 25 C 18.15 24.85 18.6 25 19 25 C 19.4 25 19.8 24.8 20 25 C 20.2 25.2 20.2 25.8 20 26 C 19.8 26.2 19.35 26.05 19 26 C 18.65 25.95 18.45 25.95 18.25 25.75 C 18.05 25.55 17.85 25.15 18 25 " fill = "rgb(57, 250, 65)" stroke = "rgb(57, 250, 65)" stroke-width = "0"/>
    <path d="M 20 25 C 20.15 24.85 20.6 25.1 20.75 25.25 C 20.9 25.4 20.9 25.6 20.75 25.75 C 20.6 25.9 20.15 26.15 20 26 C 19.85 25.85 19.85 25.15 20 25 " fill = "rgb(39, 206, 50)" stroke = "rgb(39, 206, 50)" stroke-width = "0"/>
    <path d="M 24.25 25.25 C 24.5 25.1 24.85 24.85 25 25 C 25.15 25.15 25 25.6 25 26 C 25 26.4 25.2 26.8 25 27 C 24.8 27.2 24.35 27.05 24 27 C 23.65 26.95 23.4 26.9 23.25 26.75 C 23.1 26.6 23.15 26.45 23.25 26.25 C 23.35 26.05 23.55 25.95 23.75 25.75 C 23.95 25.55 24 25.4 24.25 25.25 " fill = "rgb(9, 54, 13)" stroke = "rgb(9, 54, 13)" stroke-width = "0"/>
    <path d="M 25 25 C 25.2 24.8 25.8 24.8 26 25 C 26.2 25.2 26 25.6 26 26 C 26 26.4 26.2 26.8 26 27 C 25.8 27.2 25.2 27.2 25 27 C 24.8 26.8 25 26.4 25 26 C 25 25.6 24.8 25.2 25 25 " fill = "rgb(39, 206, 50)" stroke = "rgb(39, 206, 50)" stroke-width = "0"/>
    <path d="M 27 25 C 27.15 24.85 27.8 24.8 28 25 C 28.2 25.2 28.15 25.85 28 26 C 27.85 26.15 27.45 25.95 27.25 25.75 C 27.05 25.55 26.85 25.15 27 25 " fill = "rgb(145, 177, 145)" stroke = "rgb(145, 177, 145)" stroke-width = "0"/>
    <path d="M 28 26 C 28.15 25.85 28.8 25.8 29 26 C 29.2 26.2 29.15 26.85 29 27 C 28.85 27.15 28.45 26.95 28.25 26.75 C 28.05 26.55 27.85 26.15 28 26 " fill = "rgb(95, 120, 95)" stroke = "rgb(95, 120, 95)" stroke-width = "0"/>
    <path d="M 29 26 C 29.15 25.85 29.55 26.05 29.75 26.25 C 29.95 26.45 29.9 26.7 30 27 C 30.1 27.3 30.1 27.5 30.25 27.75 C 30.4 28 30.6 28 30.75 28.25 C 30.9 28.5 30.95 28.65 31 29 C 31.05 29.35 31 29.6 31 30 C 31 30.4 31.2 30.8 31 31 C 30.8 31.2 30.2 31.2 30 31 C 29.8 30.8 30.05 30.35 30 30 C 29.95 29.65 29.9 29.5 29.75 29.25 C 29.6 29 29.4 29 29.25 28.75 C 29.1 28.5 29.05 28.35 29 28 C 28.95 27.65 29 27.4 29 27 C 29 26.6 28.85 26.15 29 26 " fill = "rgb(194, 226, 194)" stroke = "rgb(194, 226, 194)" stroke-width = "0"/>
    <path d="M 2 27 C 2.15 26.85 2.75 26.85 3 27 C 3.25 27.15 3.1 27.5 3.25 27.75 C 3.4 28 3.6 28 3.75 28.25 C 3.9 28.5 4.15 28.85 4 29 C 3.85 29.15 3.25 29.15 3 29 C 2.75 28.85 2.9 28.5 2.75 28.25 C 2.6 28 2.4 28 2.25 27.75 C 2.1 27.5 1.85 27.15 2 27 " fill = "rgb(194, 226, 194)" stroke = "rgb(194, 226, 194)" stroke-width = "0"/>
    <path d="M 19.25 27.25 C 19.45 27.05 19.7 27 20 27 C 20.3 27 20.6 27.1 20.75 27.25 C 20.9 27.4 20.85 27.55 20.75 27.75 C 20.65 27.95 20.45 28.05 20.25 28.25 C 20.05 28.45 19.95 28.65 19.75 28.75 C 19.55 28.85 19.4 28.9 19.25 28.75 C 19.1 28.6 19 28.3 19 28 C 19 27.7 19.05 27.45 19.25 27.25 " fill = "rgb(9, 54, 13)" stroke = "rgb(9, 54, 13)" stroke-width = "0"/>
    <path d="M 8.25 28.25 C 8.35 28.15 8.65 28.15 8.75 28.25 C 8.85 28.35 8.85 28.65 8.75 28.75 C 8.65 28.85 8.35 28.85 8.25 28.75 C 8.15 28.65 8.15 28.35 8.25 28.25 " fill = "rgb(9, 54, 13)" stroke = "rgb(9, 54, 13)" stroke-width = "0"/>
    <path d="M 25.25 28.25 C 25.4 28.1 25.6 28.1 25.75 28.25 C 25.9 28.4 26 28.7 26 29 C 26 29.3 25.9 29.6 25.75 29.75 C 25.6 29.9 25.4 29.9 25.25 29.75 C 25.1 29.6 25 29.3 25 29 C 25 28.7 25.1 28.4 25.25 28.25 " fill = "rgb(9, 54, 13)" stroke = "rgb(9, 54, 13)" stroke-width = "0"/>
    <path d="M 3 29 C 3.2 28.8 3.8 28.8 4 29 C 4.2 29.2 4 29.6 4 30 C 4 30.4 4.15 30.85 4 31 C 3.85 31.15 3.45 30.95 3.25 30.75 C 3.05 30.55 3.05 30.35 3 30 C 2.95 29.65 2.8 29.2 3 29 " fill = "rgb(248, 254, 248)" stroke = "rgb(248, 254, 248)" stroke-width = "0"/>
    <path d="M 12.25 29.25 C 12.5 29.1 12.85 28.85 13 29 C 13.15 29.15 13.15 29.75 13 30 C 12.85 30.25 12.45 30.05 12.25 30.25 C 12.05 30.45 12.25 30.85 12 31 C 11.75 31.15 11.15 31.15 11 31 C 10.85 30.85 11.1 30.5 11.25 30.25 C 11.4 30 11.55 29.95 11.75 29.75 C 11.95 29.55 12 29.4 12.25 29.25 " fill = "rgb(145, 177, 145)" stroke = "rgb(145, 177, 145)" stroke-width = "0"/>
    <path d="M 13 29 C 13.2 28.8 13.65 28.95 14 29 C 14.35 29.05 14.55 29.05 14.75 29.25 C 14.95 29.45 14.95 29.65 15 30 C 15.05 30.35 15 30.6 15 31 C 15 31.4 15.15 31.85 15 32 C 14.85 32.15 14.45 31.95 14.25 31.75 C 14.05 31.55 14.1 31.3 14 31 C 13.9 30.7 13.95 30.45 13.75 30.25 C 13.55 30.05 13.15 30.25 13 30 C 12.85 29.75 12.8 29.2 13 29 " fill = "rgb(194, 226, 194)" stroke = "rgb(194, 226, 194)" stroke-width = "0"/>
    <path d="M 4 30 C 4.15 29.85 4.5 30.1 4.75 30.25 C 5 30.4 5.05 30.55 5.25 30.75 C 5.45 30.95 5.6 31 5.75 31.25 C 5.9 31.5 6.1 31.9 6 32 C 5.9 32.1 5.5 31.9 5.25 31.75 C 5 31.6 5 31.4 4.75 31.25 C 4.5 31.1 4.15 31.25 4 31 C 3.85 30.75 3.85 30.15 4 30 " fill = "rgb(145, 177, 145)" stroke = "rgb(145, 177, 145)" stroke-width = "0"/>
    <path d="M 12.25 30.25 C 12.45 30.05 12.9 29.9 13 30 C 13.1 30.1 12.95 30.55 12.75 30.75 C 12.55 30.95 12.1 31.1 12 31 C 11.9 30.9 12.05 30.45 12.25 30.25 " fill = "rgb(248, 254, 248)" stroke = "rgb(248, 254, 248)" stroke-width = "0"/>
    <path d="M 10.25 31.25 C 10.45 31.05 10.85 30.85 11 31 C 11.15 31.15 11.2 31.8 11 32 C 10.8 32.2 10.15 32.15 10 32 C 9.85 31.85 10.05 31.45 10.25 31.25 " fill = "rgb(95, 120, 95)" stroke = "rgb(95, 120, 95)" stroke-width = "0"/>
    <path d="M 26.25 31.25 C 26.4 31.1 26.6 31.1 26.75 31.25 C 26.9 31.4 27 31.7 27 32 C 27 32.3 26.9 32.6 26.75 32.75 C 26.6 32.9 26.4 32.9 26.25 32.75 C 26.1 32.6 26 32.3 26 32 C 26 31.7 26.1 31.4 26.25 31.25 " fill = "rgb(9, 54, 13)" stroke = "rgb(9, 54, 13)" stroke-width = "0"/>
    <path d="M 30 31 C 30.15 30.85 30.8 30.8 31 31 C 31.2 31.2 31.15 31.85 31 32 C 30.85 32.15 30.45 31.95 30.25 31.75 C 30.05 31.55 29.85 31.15 30 31 " fill = "rgb(145, 177, 145)" stroke = "rgb(145, 177, 145)" stroke-width = "0"/>
    <path d="M 31 31 C 31.15 30.85 31.55 31.05 31.75 31.25 C 31.95 31.45 32.15 31.85 32 32 C 31.85 32.15 31.2 32.2 31 32 C 30.8 31.8 30.85 31.15 31 31 " fill = "rgb(248, 254, 248)" stroke = "rgb(248, 254, 248)" stroke-width = "0"/>
    <path d="M 33.25 31.25 C 33.45 31.05 33.65 31.05 34 31 C 34.35 30.95 34.6 31 35 31 C 35.4 31 35.8 30.8 36 31 C 36.2 31.2 36.2 31.8 36 32 C 35.8 32.2 35.4 32 35 32 C 34.6 32 34.4 32 34 32 C 33.6 32 33.15 32.15 33 32 C 32.85 31.85 33.05 31.45 33.25 31.25 " fill = "rgb(248, 254, 248)" stroke = "rgb(248, 254, 248)" stroke-width = "0"/>
    <path d="M 36 31 C 36.2 30.8 36.75 30.85 37 31 C 37.25 31.15 37.05 31.55 37.25 31.75 C 37.45 31.95 37.85 31.75 38 32 C 38.15 32.25 38.2 32.8 38 33 C 37.8 33.2 37.25 33.15 37 33 C 36.75 32.85 36.95 32.45 36.75 32.25 C 36.55 32.05 36.15 32.25 36 32 C 35.85 31.75 35.8 31.2 36 31 " fill = "rgb(194, 226, 194)" stroke = "rgb(194, 226, 194)" stroke-width = "0"/>
    <path d="M 37 31 C 37.1 30.9 37.55 31.05 37.75 31.25 C 37.95 31.45 38.1 31.9 38 32 C 37.9 32.1 37.45 31.95 37.25 31.75 C 37.05 31.55 36.9 31.1 37 31 " fill = "rgb(248, 254, 248)" stroke = "rgb(248, 254, 248)" stroke-width = "0"/>
    <path d="M 6 32 C 6.15 31.85 6.85 31.85 7 32 C 7.15 32.15 6.9 32.6 6.75 32.75 C 6.6 32.9 6.4 32.9 6.25 32.75 C 6.1 32.6 5.85 32.15 6 32 " fill = "rgb(194, 226, 194)" stroke = "rgb(194, 226, 194)" stroke-width = "0"/>
    <path d="M 9 32 C 9.15 31.85 9.6 32 10 32 C 10.4 32 10.85 31.85 11 32 C 11.15 32.15 10.95 32.55 10.75 32.75 C 10.55 32.95 10.3 33 10 33 C 9.7 33 9.45 32.95 9.25 32.75 C 9.05 32.55 8.85 32.15 9 32 " fill = "rgb(194, 226, 194)" stroke = "rgb(194, 226, 194)" stroke-width = "0"/>
    <path d="M 16 32 C 16.15 31.85 16.55 32.05 16.75 32.25 C 16.95 32.45 17.15 32.85 17 33 C 16.85 33.15 16.2 33.2 16 33 C 15.8 32.8 15.85 32.15 16 32 " fill = "rgb(137, 131, 136)" stroke = "rgb(137, 131, 136)" stroke-width = "0"/>
    <path d="M 31 32 C 31.15 31.85 31.75 31.85 32 32 C 32.25 32.15 32.05 32.55 32.25 32.75 C 32.45 32.95 32.9 32.8 33 33 C 33.1 33.2 32.9 33.6 32.75 33.75 C 32.6 33.9 32.45 33.85 32.25 33.75 C 32.05 33.65 31.95 33.45 31.75 33.25 C 31.55 33.05 31.4 33 31.25 32.75 C 31.1 32.5 30.85 32.15 31 32 " fill = "rgb(95, 120, 95)" stroke = "rgb(95, 120, 95)" stroke-width = "0"/>
    <path d="M 14.25 33.25 C 14.45 33.05 14.85 32.85 15 33 C 15.15 33.15 15.2 33.8 15 34 C 14.8 34.2 14.15 34.15 14 34 C 13.85 33.85 14.05 33.45 14.25 33.25 " fill = "rgb(194, 226, 194)" stroke = "rgb(194, 226, 194)" stroke-width = "0"/>
    <path d="M 15 33 C 15.2 32.8 15.8 32.8 16 33 C 16.2 33.2 16.2 33.8 16 34 C 15.8 34.2 15.2 34.2 15 34 C 14.8 33.8 14.8 33.2 15 33 " fill = "rgb(95, 120, 95)" stroke = "rgb(95, 120, 95)" stroke-width = "0"/>
    <path d="M 16 33 C 16.2 32.8 16.85 32.85 17 33 C 17.15 33.15 16.95 33.55 16.75 33.75 C 16.55 33.95 16.15 34.15 16 34 C 15.85 33.85 15.8 33.2 16 33 " fill = "rgb(39, 95, 43)" stroke = "rgb(39, 95, 43)" stroke-width = "0"/>
    <path d="M 37 33 C 37.15 32.85 37.8 32.8 38 33 C 38.2 33.2 38.15 33.85 38 34 C 37.85 34.15 37.45 33.95 37.25 33.75 C 37.05 33.55 36.85 33.15 37 33 " fill = "rgb(39, 95, 43)" stroke = "rgb(39, 95, 43)" stroke-width = "0"/>
    <path d="M 38 33 C 38.15 32.85 38.55 33.05 38.75 33.25 C 38.95 33.45 39.15 33.85 39 34 C 38.85 34.15 38.2 34.2 38 34 C 37.8 33.8 37.85 33.15 38 33 " fill = "rgb(145, 177, 145)" stroke = "rgb(145, 177, 145)" stroke-width = "0"/>
    <path d="M 13.25 34.25 C 13.45 34.05 13.9 33.9 14 34 C 14.1 34.1 13.95 34.55 13.75 34.75 C 13.55 34.95 13.1 35.1 13 35 C 12.9 34.9 13.05 34.45 13.25 34.25 " fill = "rgb(248, 254, 248)" stroke = "rgb(248, 254, 248)" stroke-width = "0"/>
    <path d="M 14 34 C 14.25 33.85 14.85 33.85 15 34 C 15.15 34.15 14.9 34.5 14.75 34.75 C 14.6 35 14.45 35.05 14.25 35.25 C 14.05 35.45 14 35.6 13.75 35.75 C 13.5 35.9 13.15 36.15 13 36 C 12.85 35.85 12.85 35.25 13 35 C 13.15 34.75 13.55 34.95 13.75 34.75 C 13.95 34.55 13.75 34.15 14 34 " fill = "rgb(145, 177, 145)" stroke = "rgb(145, 177, 145)" stroke-width = "0"/>
    <path d="M 17.25 34.25 C 17.35 34.15 17.65 34.15 17.75 34.25 C 17.85 34.35 17.85 34.65 17.75 34.75 C 17.65 34.85 17.35 34.85 17.25 34.75 C 17.15 34.65 17.15 34.35 17.25 34.25 " fill = "rgb(15, 152, 29)" stroke = "rgb(15, 152, 29)" stroke-width = "0"/>
    <path d="M 28.25 34.25 C 28.4 34.1 28.6 34.1 28.75 34.25 C 28.9 34.4 28.9 34.7 29 35 C 29.1 35.3 29.1 35.5 29.25 35.75 C 29.4 36 29.65 36.05 29.75 36.25 C 29.85 36.45 29.85 36.65 29.75 36.75 C 29.65 36.85 29.45 36.85 29.25 36.75 C 29.05 36.65 28.95 36.45 28.75 36.25 C 28.55 36.05 28.4 36 28.25 35.75 C 28.1 35.5 28 35.3 28 35 C 28 34.7 28.1 34.4 28.25 34.25 " fill = "rgb(9, 54, 13)" stroke = "rgb(9, 54, 13)" stroke-width = "0"/>
    <path d="M 38 34 C 38.2 33.8 38.8 33.8 39 34 C 39.2 34.2 39 34.6 39 35 C 39 35.4 39 35.6 39 36 C 39 36.4 39 36.6 39 37 C 39 37.4 39.2 37.8 39 38 C 38.8 38.2 38.2 38.2 38 38 C 37.8 37.8 38 37.4 38 37 C 38 36.6 38 36.4 38 36 C 38 35.6 38 35.4 38 35 C 38 34.6 37.8 34.2 38 34 " fill = "rgb(95, 120, 95)" stroke = "rgb(95, 120, 95)" stroke-width = "0"/>
    <path d="M 12.25 35.25 C 12.45 35.05 12.85 34.85 13 35 C 13.15 35.15 13.2 35.8 13 36 C 12.8 36.2 12.15 36.15 12 36 C 11.85 35.85 12.05 35.45 12.25 35.25 " fill = "rgb(194, 226, 194)" stroke = "rgb(194, 226, 194)" stroke-width = "0"/>
    <path d="M 12 36 C 12.25 35.85 12.8 35.8 13 36 C 13.2 36.2 13.15 36.75 13 37 C 12.85 37.25 12.45 37.05 12.25 37.25 C 12.05 37.45 12.25 37.85 12 38 C 11.75 38.15 11.2 38.2 11 38 C 10.8 37.8 10.85 37.25 11 37 C 11.15 36.75 11.55 36.95 11.75 36.75 C 11.95 36.55 11.75 36.15 12 36 " fill = "rgb(95, 120, 95)" stroke = "rgb(95, 120, 95)" stroke-width = "0"/>
    <path d="M 22.25 36.25 C 22.45 36.05 22.65 36.05 23 36 C 23.35 35.95 23.65 35.95 24 36 C 24.35 36.05 24.55 36.05 24.75 36.25 C 24.95 36.45 24.95 36.65 25 37 C 25.05 37.35 25 37.6 25 38 C 25 38.4 25.15 38.85 25 39 C 24.85 39.15 24.45 38.95 24.25 38.75 C 24.05 38.55 24.1 38.3 24 38 C 23.9 37.7 23.9 37.4 23.75 37.25 C 23.6 37.1 23.45 37.15 23.25 37.25 C 23.05 37.35 23 37.6 22.75 37.75 C 22.5 37.9 22.15 38.15 22 38 C 21.85 37.85 21.95 37.35 22 37 C 22.05 36.65 22.05 36.45 22.25 36.25 " fill = "rgb(194, 226, 194)" stroke = "rgb(194, 226, 194)" stroke-width = "0"/>
    <path d="M 36.25 36.25 C 36.4 36.1 36.6 36.1 36.75 36.25 C 36.9 36.4 37.15 36.85 37 37 C 36.85 37.15 36.15 37.15 36 37 C 35.85 36.85 36.1 36.4 36.25 36.25 " fill = "rgb(39, 206, 50)" stroke = "rgb(39, 206, 50)" stroke-width = "0"/>
    <path d="M 10.25 37.25 C 10.45 37.05 10.85 36.85 11 37 C 11.15 37.15 11 37.6 11 38 C 11 38.4 11 38.6 11 39 C 11 39.4 11.2 39.8 11 40 C 10.8 40.2 10.2 40.2 10 40 C 9.8 39.8 10 39.4 10 39 C 10 38.6 9.95 38.35 10 38 C 10.05 37.65 10.05 37.45 10.25 37.25 " fill = "rgb(248, 254, 248)" stroke = "rgb(248, 254, 248)" stroke-width = "0"/>
    <path d="M 12.25 37.25 C 12.45 37.05 12.9 36.9 13 37 C 13.1 37.1 12.95 37.55 12.75 37.75 C 12.55 37.95 12.1 38.1 12 38 C 11.9 37.9 12.05 37.45 12.25 37.25 " fill = "rgb(39, 95, 43)" stroke = "rgb(39, 95, 43)" stroke-width = "0"/>
    <path d="M 21.25 37.25 C 21.45 37.05 21.85 36.85 22 37 C 22.15 37.15 22.2 37.8 22 38 C 21.8 38.2 21.15 38.15 21 38 C 20.85 37.85 21.05 37.45 21.25 37.25 " fill = "rgb(145, 177, 145)" stroke = "rgb(145, 177, 145)" stroke-width = "0"/>
    <path d="M 13.25 38.25 C 13.4 38.1 13.6 38.1 13.75 38.25 C 13.9 38.4 14 38.7 14 39 C 14 39.3 13.9 39.6 13.75 39.75 C 13.6 39.9 13.4 39.9 13.25 39.75 C 13.1 39.6 13 39.3 13 39 C 13 38.7 13.1 38.4 13.25 38.25 " fill = "rgb(15, 152, 29)" stroke = "rgb(15, 152, 29)" stroke-width = "0"/>
    <path d="M 20.25 38.25 C 20.45 38.05 20.85 37.85 21 38 C 21.15 38.15 20.95 38.65 21 39 C 21.05 39.35 21.05 39.55 21.25 39.75 C 21.45 39.95 21.85 39.75 22 40 C 22.15 40.25 22.15 40.85 22 41 C 21.85 41.15 21.5 40.9 21.25 40.75 C 21 40.6 20.95 40.45 20.75 40.25 C 20.55 40.05 20.4 40 20.25 39.75 C 20.1 39.5 20 39.3 20 39 C 20 38.7 20.05 38.45 20.25 38.25 " fill = "rgb(95, 120, 95)" stroke = "rgb(95, 120, 95)" stroke-width = "0"/>
    <path d="M 31.25 38.25 C 31.45 38.05 31.7 38 32 38 C 32.3 38 32.55 38.05 32.75 38.25 C 32.95 38.45 33.15 38.85 33 39 C 32.85 39.15 32.4 39 32 39 C 31.6 39 31.15 39.15 31 39 C 30.85 38.85 31.05 38.45 31.25 38.25 " fill = "rgb(9, 54, 13)" stroke = "rgb(9, 54, 13)" stroke-width = "0"/>
    <path d="M 38 38 C 38.2 37.8 38.85 37.85 39 38 C 39.15 38.15 38.95 38.55 38.75 38.75 C 38.55 38.95 38.15 39.15 38 39 C 37.85 38.85 37.8 38.2 38 38 " fill = "rgb(145, 177, 145)" stroke = "rgb(145, 177, 145)" stroke-width = "0"/>
    <path d="M 28 39 C 28.15 38.85 28.6 39.1 28.75 39.25 C 28.9 39.4 28.9 39.6 28.75 39.75 C 28.6 39.9 28.15 40.15 28 40 C 27.85 39.85 27.85 39.15 28 39 " fill = "rgb(39, 206, 50)" stroke = "rgb(39, 206, 50)" stroke-width = "0"/>
    <path d="M 31 39 C 31.2 38.8 31.6 39 32 39 C 32.4 39 32.8 38.8 33 39 C 33.2 39.2 33.2 39.8 33 40 C 32.8 40.2 32.4 40 32 40 C 31.6 40 31.2 40.2 31 40 C 30.8 39.8 30.8 39.2 31 39 " fill = "rgb(39, 206, 50)" stroke = "rgb(39, 206, 50)" stroke-width = "0"/>
    <path d="M 37.25 39.25 C 37.5 39.1 37.85 38.85 38 39 C 38.15 39.15 38.15 39.75 38 40 C 37.85 40.25 37.45 40.05 37.25 40.25 C 37.05 40.45 37.25 40.85 37 41 C 36.75 41.15 36.35 40.95 36 41 C 35.65 41.05 35.5 41.1 35.25 41.25 C 35 41.4 35 41.6 34.75 41.75 C 34.5 41.9 34.1 42.1 34 42 C 33.9 41.9 34.1 41.5 34.25 41.25 C 34.4 41 34.6 41 34.75 40.75 C 34.9 40.5 34.75 40.15 35 40 C 35.25 39.85 35.65 40.05 36 40 C 36.35 39.95 36.5 39.9 36.75 39.75 C 37 39.6 37 39.4 37.25 39.25 " fill = "rgb(194, 226, 194)" stroke = "rgb(194, 226, 194)" stroke-width = "0"/>
    <path d="M 10 40 C 10.15 39.85 10.65 39.95 11 40 C 11.35 40.05 11.55 40.05 11.75 40.25 C 11.95 40.45 12.15 40.85 12 41 C 11.85 41.15 11.35 41.05 11 41 C 10.65 40.95 10.45 40.95 10.25 40.75 C 10.05 40.55 9.85 40.15 10 40 " fill = "rgb(194, 226, 194)" stroke = "rgb(194, 226, 194)" stroke-width = "0"/>
    <path d="M 14.25 40.25 C 14.4 40.1 14.6 40.1 14.75 40.25 C 14.9 40.4 15.15 40.85 15 41 C 14.85 41.15 14.15 41.15 14 41 C 13.85 40.85 14.1 40.4 14.25 40.25 " fill = "rgb(15, 152, 29)" stroke = "rgb(15, 152, 29)" stroke-width = "0"/>
    <path d="M 22 40 C 22.15 39.85 22.55 40.05 22.75 40.25 C 22.95 40.45 23.15 40.85 23 41 C 22.85 41.15 22.2 41.2 22 41 C 21.8 40.8 21.85 40.15 22 40 " fill = "rgb(248, 254, 248)" stroke = "rgb(248, 254, 248)" stroke-width = "0"/>
    <path d="M 34.25 40.25 C 34.5 40.1 34.9 39.9 35 40 C 35.1 40.1 34.9 40.5 34.75 40.75 C 34.6 41 34.4 41 34.25 41.25 C 34.1 41.5 34.25 41.85 34 42 C 33.75 42.15 33.35 41.95 33 42 C 32.65 42.05 32.45 42.05 32.25 42.25 C 32.05 42.45 32.25 42.85 32 43 C 31.75 43.15 31.15 43.15 31 43 C 30.85 42.85 31.1 42.5 31.25 42.25 C 31.4 42 31.55 41.95 31.75 41.75 C 31.95 41.55 32 41.4 32.25 41.25 C 32.5 41.1 32.7 41.1 33 41 C 33.3 40.9 33.5 40.9 33.75 40.75 C 34 40.6 34 40.4 34.25 40.25 " fill = "rgb(95, 120, 95)" stroke = "rgb(95, 120, 95)" stroke-width = "0"/>
    <path d="M 37.25 40.25 C 37.45 40.05 37.9 39.9 38 40 C 38.1 40.1 37.95 40.55 37.75 40.75 C 37.55 40.95 37.1 41.1 37 41 C 36.9 40.9 37.05 40.45 37.25 40.25 " fill = "rgb(248, 254, 248)" stroke = "rgb(248, 254, 248)" stroke-width = "0"/>
    <path d="M 14 41 C 14.2 40.8 14.8 40.8 15 41 C 15.2 41.2 15.2 41.8 15 42 C 14.8 42.2 14.2 42.2 14 42 C 13.8 41.8 13.8 41.2 14 41 " fill = "rgb(39, 206, 50)" stroke = "rgb(39, 206, 50)" stroke-width = "0"/>
    <path d="M 22 41 C 22.2 40.8 22.8 40.8 23 41 C 23.2 41.2 23 41.6 23 42 C 23 42.4 23 42.6 23 43 C 23 43.4 23 43.6 23 44 C 23 44.4 23.2 44.8 23 45 C 22.8 45.2 22.2 45.2 22 45 C 21.8 44.8 22 44.4 22 44 C 22 43.6 22 43.4 22 43 C 22 42.6 22 42.4 22 42 C 22 41.6 21.8 41.2 22 41 " fill = "rgb(194, 226, 194)" stroke = "rgb(194, 226, 194)" stroke-width = "0"/>
    <path d="M 26 41 C 26.1 40.9 26.5 41.1 26.75 41.25 C 27 41.4 27.05 41.55 27.25 41.75 C 27.45 41.95 27.6 42 27.75 42.25 C 27.9 42.5 28.15 42.85 28 43 C 27.85 43.15 27.25 43.15 27 43 C 26.75 42.85 26.9 42.5 26.75 42.25 C 26.6 42 26.4 42 26.25 41.75 C 26.1 41.5 25.9 41.1 26 41 " fill = "rgb(145, 177, 145)" stroke = "rgb(145, 177, 145)" stroke-width = "0"/>
    <path d="M 12 42 C 12.15 41.85 12.55 42.05 12.75 42.25 C 12.95 42.45 13.15 42.85 13 43 C 12.85 43.15 12.2 43.2 12 43 C 11.8 42.8 11.85 42.15 12 42 " fill = "rgb(95, 120, 95)" stroke = "rgb(95, 120, 95)" stroke-width = "0"/>
    <path d="M 12 43 C 12.15 42.85 12.75 42.85 13 43 C 13.25 43.15 13.05 43.55 13.25 43.75 C 13.45 43.95 13.85 43.75 14 44 C 14.15 44.25 13.95 44.65 14 45 C 14.05 45.35 14.1 45.5 14.25 45.75 C 14.4 46 14.55 46.05 14.75 46.25 C 14.95 46.45 15 46.6 15.25 46.75 C 15.5 46.9 15.65 46.95 16 47 C 16.35 47.05 16.8 46.8 17 47 C 17.2 47.2 17.2 47.8 17 48 C 16.8 48.2 16.4 48 16 48 C 15.6 48 15.35 48.05 15 48 C 14.65 47.95 14.45 47.95 14.25 47.75 C 14.05 47.55 14.1 47.3 14 47 C 13.9 46.7 13.9 46.5 13.75 46.25 C 13.6 46 13.4 46 13.25 45.75 C 13.1 45.5 13.1 45.3 13 45 C 12.9 44.7 12.9 44.5 12.75 44.25 C 12.6 44 12.4 44 12.25 43.75 C 12.1 43.5 11.85 43.15 12 43 " fill = "rgb(194, 226, 194)" stroke = "rgb(194, 226, 194)" stroke-width = "0"/>
    <path d="M 13 43 C 13.1 42.9 13.55 43.05 13.75 43.25 C 13.95 43.45 14.1 43.9 14 44 C 13.9 44.1 13.45 43.95 13.25 43.75 C 13.05 43.55 12.9 43.1 13 43 " fill = "rgb(145, 177, 145)" stroke = "rgb(145, 177, 145)" stroke-width = "0"/>
    <path d="M 27 43 C 27.15 42.85 27.6 43 28 43 C 28.4 43 28.6 43 29 43 C 29.4 43 29.6 43 30 43 C 30.4 43 30.6 43 31 43 C 31.4 43 31.85 42.85 32 43 C 32.15 43.15 31.95 43.55 31.75 43.75 C 31.55 43.95 31.35 43.95 31 44 C 30.65 44.05 30.4 44 30 44 C 29.6 44 29.4 44 29 44 C 28.6 44 28.35 44.05 28 44 C 27.65 43.95 27.45 43.95 27.25 43.75 C 27.05 43.55 26.85 43.15 27 43 " fill = "rgb(248, 254, 248)" stroke = "rgb(248, 254, 248)" stroke-width = "0"/>
    <path d="M 18 44 C 18.15 43.85 18.6 44.1 18.75 44.25 C 18.9 44.4 18.9 44.6 18.75 44.75 C 18.6 44.9 18.15 45.15 18 45 C 17.85 44.85 17.85 44.15 18 44 " fill = "rgb(39, 206, 50)" stroke = "rgb(39, 206, 50)" stroke-width = "0"/>
    <path d="M 22 45 C 22.2 44.8 22.85 44.85 23 45 C 23.15 45.15 22.95 45.55 22.75 45.75 C 22.55 45.95 22.15 46.15 22 46 C 21.85 45.85 21.8 45.2 22 45 " fill = "rgb(248, 254, 248)" stroke = "rgb(248, 254, 248)" stroke-width = "0"/>
    <path d="M 20.25 46.25 C 20.45 46.05 20.85 45.85 21 46 C 21.15 46.15 21.2 46.8 21 47 C 20.8 47.2 20.15 47.15 20 47 C 19.85 46.85 20.05 46.45 20.25 46.25 " fill = "rgb(95, 120, 95)" stroke = "rgb(95, 120, 95)" stroke-width = "0"/>
    <path d="M 17 47 C 17.2 46.8 17.6 47 18 47 C 18.4 47 18.8 46.8 19 47 C 19.2 47.2 19.2 47.8 19 48 C 18.8 48.2 18.4 48 18 48 C 17.6 48 17.2 48.2 17 48 C 16.8 47.8 16.8 47.2 17 47 " fill = "rgb(248, 254, 248)" stroke = "rgb(248, 254, 248)" stroke-width = "0"/>
    <path d="M 19 47 C 19.2 46.8 19.8 46.8 20 47 C 20.2 47.2 20.2 47.8 20 48 C 19.8 48.2 19.2 48.2 19 48 C 18.8 47.8 18.8 47.2 19 47 " fill = "rgb(194, 226, 194)" stroke = "rgb(194, 226, 194)" stroke-width = "0"/>
    <path d="M 20 47 C 20.2 46.8 20.85 46.85 21 47 C 21.15 47.15 20.95 47.55 20.75 47.75 C 20.55 47.95 20.15 48.15 20 48 C 19.85 47.85 19.8 47.2 20 47 " fill = "rgb(248, 254, 248)" stroke = "rgb(248, 254, 248)" stroke-width = "0"/>
</svg>
