<svg version="1.1" baseProfile = "full" width = "23" height = "25" xmlns = "http://www.w3.org/2000/svg">
    <path d="M 0 0 C 0.2 -0.2 0.6 -3.49691e-08 1 0 C 1.4 0 1.6 -3.49691e-08 2 0 C 2.4 0 2.6 -3.49691e-08 3 0 C 3.4 0 3.6 -3.49691e-08 4 0 C 4.4 0 4.6 -3.49691e-08 5 0 C 5.4 0 5.6 -3.49691e-08 6 0 C 6.4 0 6.6 -3.49691e-08 7 0 C 7.4 0 7.6 -3.49691e-08 8 0 C 8.4 0 8.6 -3.49691e-08 9 0 C 9.4 0 9.6 -3.49691e-08 10 0 C 10.4 0 10.6 -3.49691e-08 11 0 C 11.4 0 11.6 -3.49691e-08 12 0 C 12.4 0 12.6 -3.49691e-08 13 0 C 13.4 0 13.6 -3.49691e-08 14 0 C 14.4 0 14.6 -3.49691e-08 15 0 C 15.4 0 15.6 -3.49691e-08 16 0 C 16.4 0 16.6 -3.49691e-08 17 0 C 17.4 0 17.6 -3.49691e-08 18 0 C 18.4 0 18.6 -3.49691e-08 19 0 C 19.4 0 19.6 -3.49691e-08 20 0 C 20.4 0 20.6 -3.49691e-08 21 0 C 21.4 0 21.6 -3.49691e-08 22 0 C 22.4 0 22.8 -0.2 23 0 C 23.2 0.2 23 0.6 23 1 C 23 1.4 23 1.6 23 2 C 23 2.4 23 2.6 23 3 C 23 3.4 23 3.6 23 4 C 23 4.4 23 4.6 23 5 C 23 5.4 23 5.6 23 6 C 23 6.4 23 6.6 23 7 C 23 7.4 23 7.6 23 8 C 23 8.4 23 8.6 23 9 C 23 9.4 23 9.6 23 10 C 23 10.4 23 10.6 23 11 C 23 11.4 23 11.6 23 12 C 23 12.4 23 12.6 23 13 C 23 13.4 23 13.6 23 14 C 23 14.4 23 14.6 23 15 C 23 15.4 23 15.6 23 16 C 23 16.4 23 16.6 23 17 C 23 17.4 23 17.6 23 18 C 23 18.4 23 18.6 23 19 C 23 19.4 23 19.6 23 20 C 23 20.4 23 20.6 23 21 C 23 21.4 23 21.6 23 22 C 23 22.4 23 22.6 23 23 C 23 23.4 23 23.6 23 24 C 23 24.4 23.2 24.8 23 25 C 22.8 25.2 22.4 25 22 25 C 21.6 25 21.4 25 21 25 C 20.6 25 20.4 25 20 25 C 19.6 25 19.4 25 19 25 C 18.6 25 18.4 25 18 25 C 17.6 25 17.4 25 17 25 C 16.6 25 16.4 25 16 25 C 15.6 25 15.4 25 15 25 C 14.6 25 14.4 25 14 25 C 13.6 25 13.4 25 13 25 C 12.6 25 12.4 25 12 25 C 11.6 25 11.4 25 11 25 C 10.6 25 10.4 25 10 25 C 9.6 25 9.4 25 9 25 C 8.6 25 8.4 25 8 25 C 7.6 25 7.4 25 7 25 C 6.6 25 6.4 25 6 25 C 5.6 25 5.4 25 5 25 C 4.6 25 4.4 25 4 25 C 3.6 25 3.4 25 3 25 C 2.6 25 2.4 25 2 25 C 1.6 25 1.4 25 1 25 C 0.6 25 0.2 25.2 0 25 C -0.2 24.8 3.01992e-08 24.4 0 24 C -1.74846e-08 23.6 3.01992e-08 23.4 0 23 C -1.74846e-08 22.6 3.01992e-08 22.4 0 22 C -1.74846e-08 21.6 3.01992e-08 21.4 0 21 C -1.74846e-08 20.6 3.01992e-08 20.4 0 20 C -1.74846e-08 19.6 3.01992e-08 19.4 0 19 C -1.74846e-08 18.6 3.01992e-08 18.4 0 18 C -1.74846e-08 17.6 3.01992e-08 17.4 0 17 C -1.74846e-08 16.6 3.01992e-08 16.4 0 16 C -1.74846e-08 15.6 3.01992e-08 15.4 0 15 C -1.74846e-08 14.6 3.01992e-08 14.4 0 14 C -1.74846e-08 13.6 3.01992e-08 13.4 0 13 C -1.74846e-08 12.6 3.01992e-08 12.4 0 12 C -1.74846e-08 11.6 3.01992e-08 11.4 0 11 C -1.74846e-08 10.6 3.01992e-08 10.4 0 10 C -1.74846e-08 9.6 3.01992e-08 9.4 0 9 C -1.74846e-08 8.6 3.01992e-08 8.4 0 8 C -1.74846e-08 7.6 3.01992e-08 7.4 0 7 C -1.74846e-08 6.6 3.01992e-08 6.4 0 6 C -1.74846e-08 5.6 3.01992e-08 5.4 0 5 C -1.74846e-08 4.6 3.01992e-08 4.4 0 4 C -1.74846e-08 3.6 3.01992e-08 3.4 0 3 C -1.74846e-08 2.6 3.01992e-08 2.4 0 2 C -1.74846e-08 1.6 3.01992e-08 1.4 0 1 C -1.74846e-08 0.6 -0.2 0.2 0 0 " fill = "rgb(255, 255, 255)" stroke = "rgb(255, 255, 255)" stroke-width = "0"/>
    <path d="M 15.25 1.25 C 15.45 1.05 15.65 1.05 16 1 C 16.35 0.95 16.6 1 17 1 C 17.4 1 17.6 1 18 1 C 18.4 1 18.6 1 19 1 C 19.4 1 19.65 0.95 20 1 C 20.35 1.05 20.55 1.05 20.75 1.25 C 20.95 1.45 20.95 1.65 21 2 C 21.05 2.35 21.15 2.85 21 3 C 20.85 3.15 20.5 2.9 20.25 2.75 C 20 2.6 20 2.4 19.75 2.25 C 19.5 2.1 19.35 2.05 19 2 C 18.65 1.95 18.4 2 18 2 C 17.6 2 17.35 1.95 17 2 C 16.65 2.05 16.45 2.05 16.25 2.25 C 16.05 2.45 16.2 2.8 16 3 C 15.8 3.2 15.45 3.05 15.25 3.25 C 15.05 3.45 15.25 3.85 15 4 C 14.75 4.15 14.4 4 14 4 C 13.6 4 13.35 3.95 13 4 C 12.65 4.05 12.5 4.1 12.25 4.25 C 12 4.4 11.95 4.55 11.75 4.75 C 11.55 4.95 11.4 5 11.25 5.25 C 11.1 5.5 11.25 5.85 11 6 C 10.75 6.15 10.15 6.15 10 6 C 9.85 5.85 10.1 5.5 10.25 5.25 C 10.4 5 10.55 4.95 10.75 4.75 C 10.95 4.55 11.05 4.45 11.25 4.25 C 11.45 4.05 11.55 3.95 11.75 3.75 C 11.95 3.55 12 3.4 12.25 3.25 C 12.5 3.1 12.65 3.05 13 3 C 13.35 2.95 13.65 3.05 14 3 C 14.35 2.95 14.55 2.95 14.75 2.75 C 14.95 2.55 14.9 2.3 15 2 C 15.1 1.7 15.05 1.45 15.25 1.25 " fill = "rgb(238, 245, 240)" stroke = "rgb(238, 245, 240)" stroke-width = "0"/>
    <path d="M 16.25 2.25 C 16.45 2.05 16.65 2.05 17 2 C 17.35 1.95 17.6 2 18 2 C 18.4 2 18.65 1.95 19 2 C 19.35 2.05 19.5 2.1 19.75 2.25 C 20 2.4 20 2.6 20.25 2.75 C 20.5 2.9 20.85 2.75 21 3 C 21.15 3.25 21 3.6 21 4 C 21 4.4 21 4.6 21 5 C 21 5.4 21 5.6 21 6 C 21 6.4 21 6.6 21 7 C 21 7.4 21.2 7.8 21 8 C 20.8 8.2 20.2 8.2 20 8 C 19.8 7.8 20.05 7.35 20 7 C 19.95 6.65 19.9 6.5 19.75 6.25 C 19.6 6 19.45 5.95 19.25 5.75 C 19.05 5.55 18.95 5.45 18.75 5.25 C 18.55 5.05 18.4 5 18.25 4.75 C 18.1 4.5 18.1 4.3 18 4 C 17.9 3.7 17.95 3.45 17.75 3.25 C 17.55 3.05 17.35 3.05 17 3 C 16.65 2.95 16.15 3.15 16 3 C 15.85 2.85 16.05 2.45 16.25 2.25 " fill = "rgb(26, 26, 19)" stroke = "rgb(26, 26, 19)" stroke-width = "0"/>
    <path d="M 15.25 3.25 C 15.45 3.05 15.65 3.05 16 3 C 16.35 2.95 16.65 2.95 17 3 C 17.35 3.05 17.55 3.05 17.75 3.25 C 17.95 3.45 18.15 3.85 18 4 C 17.85 4.15 17.4 4 17 4 C 16.6 4 16.4 4 16 4 C 15.6 4 15.15 4.15 15 4 C 14.85 3.85 15.05 3.45 15.25 3.25 " fill = "rgb(148, 85, 2)" stroke = "rgb(148, 85, 2)" stroke-width = "0"/>
    <path d="M 21 3 C 21.15 2.85 21.55 3.05 21.75 3.25 C 21.95 3.45 22.15 3.85 22 4 C 21.85 4.15 21.2 4.2 21 4 C 20.8 3.8 20.85 3.15 21 3 " fill = "rgb(146, 182, 150)" stroke = "rgb(146, 182, 150)" stroke-width = "0"/>
    <path d="M 12.25 4.25 C 12.5 4.1 12.9 3.9 13 4 C 13.1 4.1 12.9 4.5 12.75 4.75 C 12.6 5 12.45 5.05 12.25 5.25 C 12.05 5.45 12 5.6 11.75 5.75 C 11.5 5.9 11.1 6.1 11 6 C 10.9 5.9 11.1 5.5 11.25 5.25 C 11.4 5 11.55 4.95 11.75 4.75 C 11.95 4.55 12 4.4 12.25 4.25 " fill = "rgb(127, 141, 126)" stroke = "rgb(127, 141, 126)" stroke-width = "0"/>
    <path d="M 13 4 C 13.25 3.85 13.8 3.8 14 4 C 14.2 4.2 14.15 4.75 14 5 C 13.85 5.25 13.45 5.05 13.25 5.25 C 13.05 5.45 13.2 5.8 13 6 C 12.8 6.2 12.45 6.05 12.25 6.25 C 12.05 6.45 12.25 6.85 12 7 C 11.75 7.15 11.4 7 11 7 C 10.6 7 10.2 7.2 10 7 C 9.8 6.8 9.8 6.2 10 6 C 10.2 5.8 10.65 6.05 11 6 C 11.35 5.95 11.5 5.9 11.75 5.75 C 12 5.6 12.05 5.45 12.25 5.25 C 12.45 5.05 12.6 5 12.75 4.75 C 12.9 4.5 12.75 4.15 13 4 " fill = "rgb(26, 26, 19)" stroke = "rgb(26, 26, 19)" stroke-width = "0"/>
    <path d="M 14 4 C 14.2 3.8 14.8 3.8 15 4 C 15.2 4.2 15.2 4.8 15 5 C 14.8 5.2 14.2 5.2 14 5 C 13.8 4.8 13.8 4.2 14 4 " fill = "rgb(37, 59, 72)" stroke = "rgb(37, 59, 72)" stroke-width = "0"/>
    <path d="M 15 4 C 15.2 3.8 15.8 3.8 16 4 C 16.2 4.2 16.2 4.8 16 5 C 15.8 5.2 15.2 5.2 15 5 C 14.8 4.8 14.8 4.2 15 4 " fill = "rgb(190, 103, 18)" stroke = "rgb(190, 103, 18)" stroke-width = "0"/>
    <path d="M 16 4 C 16.2 3.8 16.6 4 17 4 C 17.4 4 17.75 3.85 18 4 C 18.25 4.15 18.1 4.5 18.25 4.75 C 18.4 5 18.55 5.05 18.75 5.25 C 18.95 5.45 19.05 5.55 19.25 5.75 C 19.45 5.95 19.6 6 19.75 6.25 C 19.9 6.5 19.95 6.65 20 7 C 20.05 7.35 20.2 7.8 20 8 C 19.8 8.2 19.4 8 19 8 C 18.6 8 18.4 8 18 8 C 17.6 8 17.35 8.05 17 8 C 16.65 7.95 16.45 7.95 16.25 7.75 C 16.05 7.55 16.05 7.35 16 7 C 15.95 6.65 16 6.4 16 6 C 16 5.6 16 5.4 16 5 C 16 4.6 15.8 4.2 16 4 " fill = "rgb(251, 111, 0)" stroke = "rgb(251, 111, 0)" stroke-width = "0"/>
    <path d="M 21 4 C 21.2 3.8 21.8 3.8 22 4 C 22.2 4.2 22 4.6 22 5 C 22 5.4 22 5.6 22 6 C 22 6.4 22 6.6 22 7 C 22 7.4 22.2 7.8 22 8 C 21.8 8.2 21.2 8.2 21 8 C 20.8 7.8 21 7.4 21 7 C 21 6.6 21 6.4 21 6 C 21 5.6 21 5.4 21 5 C 21 4.6 20.8 4.2 21 4 " fill = "rgb(71, 111, 75)" stroke = "rgb(71, 111, 75)" stroke-width = "0"/>
    <path d="M 13.25 5.25 C 13.45 5.05 13.85 4.85 14 5 C 14.15 5.15 14 5.6 14 6 C 14 6.4 14 6.6 14 7 C 14 7.4 14 7.6 14 8 C 14 8.4 14.05 8.65 14 9 C 13.95 9.35 13.95 9.55 13.75 9.75 C 13.55 9.95 13.15 10.15 13 10 C 12.85 9.85 13 9.4 13 9 C 13 8.6 13 8.4 13 8 C 13 7.6 13 7.4 13 7 C 13 6.6 12.95 6.35 13 6 C 13.05 5.65 13.05 5.45 13.25 5.25 " fill = "rgb(251, 111, 0)" stroke = "rgb(251, 111, 0)" stroke-width = "0"/>
    <path d="M 14 5 C 14.2 4.8 14.8 4.8 15 5 C 15.2 5.2 15 5.6 15 6 C 15 6.4 15 6.6 15 7 C 15 7.4 15.2 7.8 15 8 C 14.8 8.2 14.2 8.2 14 8 C 13.8 7.8 14 7.4 14 7 C 14 6.6 14 6.4 14 6 C 14 5.6 13.8 5.2 14 5 " fill = "rgb(238, 245, 240)" stroke = "rgb(238, 245, 240)" stroke-width = "0"/>
    <path d="M 15 5 C 15.2 4.8 15.8 4.8 16 5 C 16.2 5.2 16 5.6 16 6 C 16 6.4 15.95 6.65 16 7 C 16.05 7.35 16.05 7.55 16.25 7.75 C 16.45 7.95 16.65 7.95 17 8 C 17.35 8.05 17.6 8 18 8 C 18.4 8 18.8 7.8 19 8 C 19.2 8.2 19.2 8.8 19 9 C 18.8 9.2 18.4 9 18 9 C 17.6 9 17.4 9 17 9 C 16.6 9 16.35 9.05 16 9 C 15.65 8.95 15.45 8.95 15.25 8.75 C 15.05 8.55 15.05 8.35 15 8 C 14.95 7.65 15 7.4 15 7 C 15 6.6 15 6.4 15 6 C 15 5.6 14.8 5.2 15 5 " fill = "rgb(249, 186, 90)" stroke = "rgb(249, 186, 90)" stroke-width = "0"/>
    <path d="M 12.25 6.25 C 12.45 6.05 12.85 5.85 13 6 C 13.15 6.15 13 6.6 13 7 C 13 7.4 13 7.6 13 8 C 13 8.4 13 8.6 13 9 C 13 9.4 13 9.6 13 10 C 13 10.4 13.2 10.8 13 11 C 12.8 11.2 12.35 10.95 12 11 C 11.65 11.05 11.5 11.1 11.25 11.25 C 11 11.4 10.95 11.55 10.75 11.75 C 10.55 11.95 10.4 12 10.25 12.25 C 10.1 12.5 10.1 12.7 10 13 C 9.9 13.3 9.9 13.5 9.75 13.75 C 9.6 14 9.45 14.05 9.25 14.25 C 9.05 14.45 8.95 14.55 8.75 14.75 C 8.55 14.95 8.4 15 8.25 15.25 C 8.1 15.5 8.2 15.8 8 16 C 7.8 16.2 7.5 16.1 7.25 16.25 C 7 16.4 6.95 16.55 6.75 16.75 C 6.55 16.95 6.4 17 6.25 17.25 C 6.1 17.5 6.25 17.85 6 18 C 5.75 18.15 5.2 18.2 5 18 C 4.8 17.8 4.85 17.25 5 17 C 5.15 16.75 5.55 16.95 5.75 16.75 C 5.95 16.55 5.95 16.35 6 16 C 6.05 15.65 6 15.4 6 15 C 6 14.6 5.85 14.25 6 14 C 6.15 13.75 6.55 13.95 6.75 13.75 C 6.95 13.55 6.95 13.35 7 13 C 7.05 12.65 6.85 12.25 7 12 C 7.15 11.75 7.55 11.95 7.75 11.75 C 7.95 11.55 7.9 11.3 8 11 C 8.1 10.7 8.1 10.5 8.25 10.25 C 8.4 10 8.55 9.95 8.75 9.75 C 8.95 9.55 9 9.4 9.25 9.25 C 9.5 9.1 9.7 9.1 10 9 C 10.3 8.9 10.5 8.9 10.75 8.75 C 11 8.6 11.05 8.45 11.25 8.25 C 11.45 8.05 11.6 8 11.75 7.75 C 11.9 7.5 11.9 7.3 12 7 C 12.1 6.7 12.05 6.45 12.25 6.25 " fill = "rgb(238, 245, 240)" stroke = "rgb(238, 245, 240)" stroke-width = "0"/>
    <path d="M 9.25 7.25 C 9.45 7.05 9.85 6.85 10 7 C 10.15 7.15 10.2 7.8 10 8 C 9.8 8.2 9.15 8.15 9 8 C 8.85 7.85 9.05 7.45 9.25 7.25 " fill = "rgb(71, 111, 75)" stroke = "rgb(71, 111, 75)" stroke-width = "0"/>
    <path d="M 10 7 C 10.2 6.8 10.85 6.85 11 7 C 11.15 7.15 10.95 7.55 10.75 7.75 C 10.55 7.95 10.15 8.15 10 8 C 9.85 7.85 9.8 7.2 10 7 " fill = "rgb(127, 141, 126)" stroke = "rgb(127, 141, 126)" stroke-width = "0"/>
    <path d="M 11 7 C 11.25 6.85 11.85 6.85 12 7 C 12.15 7.15 11.9 7.5 11.75 7.75 C 11.6 8 11.45 8.05 11.25 8.25 C 11.05 8.45 11 8.6 10.75 8.75 C 10.5 8.9 10.15 9.15 10 9 C 9.85 8.85 9.85 8.25 10 8 C 10.15 7.75 10.55 7.95 10.75 7.75 C 10.95 7.55 10.75 7.15 11 7 " fill = "rgb(196, 200, 201)" stroke = "rgb(196, 200, 201)" stroke-width = "0"/>
    <path d="M 7.25 8.25 C 7.5 8.1 7.85 7.85 8 8 C 8.15 8.15 8.05 8.65 8 9 C 7.95 9.35 7.95 9.55 7.75 9.75 C 7.55 9.95 7.35 9.95 7 10 C 6.65 10.05 6.15 10.15 6 10 C 5.85 9.85 6.1 9.5 6.25 9.25 C 6.4 9 6.55 8.95 6.75 8.75 C 6.95 8.55 7 8.4 7.25 8.25 " fill = "rgb(238, 245, 240)" stroke = "rgb(238, 245, 240)" stroke-width = "0"/>
    <path d="M 8 8 C 8.2 7.8 8.85 7.85 9 8 C 9.15 8.15 8.95 8.55 8.75 8.75 C 8.55 8.95 8.15 9.15 8 9 C 7.85 8.85 7.8 8.2 8 8 " fill = "rgb(146, 182, 150)" stroke = "rgb(146, 182, 150)" stroke-width = "0"/>
    <path d="M 9 8 C 9.25 7.85 9.8 7.8 10 8 C 10.2 8.2 10.15 8.75 10 9 C 9.85 9.25 9.5 9.1 9.25 9.25 C 9 9.4 8.95 9.55 8.75 9.75 C 8.55 9.95 8.4 10 8.25 10.25 C 8.1 10.5 8.25 10.85 8 11 C 7.75 11.15 7.2 11.2 7 11 C 6.8 10.8 6.85 10.25 7 10 C 7.15 9.75 7.55 9.95 7.75 9.75 C 7.95 9.55 7.8 9.2 8 9 C 8.2 8.8 8.55 8.95 8.75 8.75 C 8.95 8.55 8.75 8.15 9 8 " fill = "rgb(26, 26, 19)" stroke = "rgb(26, 26, 19)" stroke-width = "0"/>
    <path d="M 14 8 C 14.2 7.8 14.75 7.85 15 8 C 15.25 8.15 15.05 8.55 15.25 8.75 C 15.45 8.95 15.85 8.75 16 9 C 16.15 9.25 16.2 9.8 16 10 C 15.8 10.2 15.25 10.15 15 10 C 14.75 9.85 14.95 9.45 14.75 9.25 C 14.55 9.05 14.15 9.25 14 9 C 13.85 8.75 13.8 8.2 14 8 " fill = "rgb(249, 228, 157)" stroke = "rgb(249, 228, 157)" stroke-width = "0"/>
    <path d="M 19 8 C 19.2 7.8 19.8 7.8 20 8 C 20.2 8.2 20.2 8.8 20 9 C 19.8 9.2 19.2 9.2 19 9 C 18.8 8.8 18.8 8.2 19 8 " fill = "rgb(148, 85, 2)" stroke = "rgb(148, 85, 2)" stroke-width = "0"/>
    <path d="M 20 8 C 20.2 7.8 20.85 7.85 21 8 C 21.15 8.15 20.95 8.55 20.75 8.75 C 20.55 8.95 20.15 9.15 20 9 C 19.85 8.85 19.8 8.2 20 8 " fill = "rgb(100, 94, 42)" stroke = "rgb(100, 94, 42)" stroke-width = "0"/>
    <path d="M 21 8 C 21.25 7.85 21.85 7.85 22 8 C 22.15 8.15 21.9 8.5 21.75 8.75 C 21.6 9 21.4 9 21.25 9.25 C 21.1 9.5 21.05 9.65 21 10 C 20.95 10.35 21.2 10.8 21 11 C 20.8 11.2 20.2 11.2 20 11 C 19.8 10.8 20 10.4 20 10 C 20 9.6 19.85 9.25 20 9 C 20.15 8.75 20.55 8.95 20.75 8.75 C 20.95 8.55 20.75 8.15 21 8 " fill = "rgb(146, 182, 150)" stroke = "rgb(146, 182, 150)" stroke-width = "0"/>
    <path d="M 14 9 C 14.2 8.9 14.55 9.05 14.75 9.25 C 14.95 9.45 15.1 9.8 15 10 C 14.9 10.2 14.45 10.05 14.25 10.25 C 14.05 10.45 14.25 10.85 14 11 C 13.75 11.15 13.2 11.2 13 11 C 12.8 10.8 12.85 10.25 13 10 C 13.15 9.75 13.55 9.95 13.75 9.75 C 13.95 9.55 13.8 9.1 14 9 " fill = "rgb(247, 199, 16)" stroke = "rgb(247, 199, 16)" stroke-width = "0"/>
    <path d="M 16 9 C 16.2 8.8 16.6 9 17 9 C 17.4 9 17.6 9 18 9 C 18.4 9 18.8 8.8 19 9 C 19.2 9.2 19.2 9.8 19 10 C 18.8 10.2 18.4 10 18 10 C 17.6 10 17.4 10 17 10 C 16.6 10 16.2 10.2 16 10 C 15.8 9.8 15.8 9.2 16 9 " fill = "rgb(238, 245, 240)" stroke = "rgb(238, 245, 240)" stroke-width = "0"/>
    <path d="M 19 9 C 19.2 8.8 19.8 8.8 20 9 C 20.2 9.2 20 9.6 20 10 C 20 10.4 20.15 10.75 20 11 C 19.85 11.25 19.45 11.05 19.25 11.25 C 19.05 11.45 19.25 11.85 19 12 C 18.75 12.15 18.2 12.2 18 12 C 17.8 11.8 17.85 11.25 18 11 C 18.15 10.75 18.55 10.95 18.75 10.75 C 18.95 10.55 18.95 10.35 19 10 C 19.05 9.65 18.8 9.2 19 9 " fill = "rgb(26, 26, 19)" stroke = "rgb(26, 26, 19)" stroke-width = "0"/>
    <path d="M 6 10 C 6.25 9.85 6.8 9.8 7 10 C 7.2 10.2 7.15 10.75 7 11 C 6.85 11.25 6.45 11.05 6.25 11.25 C 6.05 11.45 6.25 11.85 6 12 C 5.75 12.15 5.15 12.15 5 12 C 4.85 11.85 5.1 11.5 5.25 11.25 C 5.4 11 5.6 11 5.75 10.75 C 5.9 10.5 5.75 10.15 6 10 " fill = "rgb(146, 182, 150)" stroke = "rgb(146, 182, 150)" stroke-width = "0"/>
    <path d="M 14.25 10.25 C 14.45 10.05 14.65 10.05 15 10 C 15.35 9.95 15.6 10 16 10 C 16.4 10 16.6 10 17 10 C 17.4 10 17.6 10 18 10 C 18.4 10 18.85 9.85 19 10 C 19.15 10.15 18.95 10.55 18.75 10.75 C 18.55 10.95 18.35 10.95 18 11 C 17.65 11.05 17.4 11 17 11 C 16.6 11 16.4 11 16 11 C 15.6 11 15.4 11 15 11 C 14.6 11 14.15 11.15 14 11 C 13.85 10.85 14.05 10.45 14.25 10.25 " fill = "rgb(251, 111, 0)" stroke = "rgb(251, 111, 0)" stroke-width = "0"/>
    <path d="M 6.25 11.25 C 6.45 11.05 6.85 10.85 7 11 C 7.15 11.15 7.2 11.8 7 12 C 6.8 12.2 6.15 12.15 6 12 C 5.85 11.85 6.05 11.45 6.25 11.25 " fill = "rgb(71, 111, 75)" stroke = "rgb(71, 111, 75)" stroke-width = "0"/>
    <path d="M 7 11 C 7.2 10.8 7.85 10.85 8 11 C 8.15 11.15 7.95 11.55 7.75 11.75 C 7.55 11.95 7.15 12.15 7 12 C 6.85 11.85 6.8 11.2 7 11 " fill = "rgb(172, 175, 179)" stroke = "rgb(172, 175, 179)" stroke-width = "0"/>
    <path d="M 11.25 11.25 C 11.5 11.1 11.9 10.9 12 11 C 12.1 11.1 11.9 11.5 11.75 11.75 C 11.6 12 11.4 12 11.25 12.25 C 11.1 12.5 11.25 12.85 11 13 C 10.75 13.15 10.15 13.15 10 13 C 9.85 12.85 10.1 12.5 10.25 12.25 C 10.4 12 10.55 11.95 10.75 11.75 C 10.95 11.55 11 11.4 11.25 11.25 " fill = "rgb(249, 228, 157)" stroke = "rgb(249, 228, 157)" stroke-width = "0"/>
    <path d="M 12 11 C 12.25 10.85 12.8 10.8 13 11 C 13.2 11.2 13.05 11.65 13 12 C 12.95 12.35 12.9 12.5 12.75 12.75 C 12.6 13 12.45 13.05 12.25 13.25 C 12.05 13.45 12 13.6 11.75 13.75 C 11.5 13.9 11.15 14.15 11 14 C 10.85 13.85 10.95 13.35 11 13 C 11.05 12.65 11.1 12.5 11.25 12.25 C 11.4 12 11.6 12 11.75 11.75 C 11.9 11.5 11.75 11.15 12 11 " fill = "rgb(249, 186, 90)" stroke = "rgb(249, 186, 90)" stroke-width = "0"/>
    <path d="M 13 11 C 13.2 10.8 13.6 11 14 11 C 14.4 11 14.6 11 15 11 C 15.4 11 15.6 11 16 11 C 16.4 11 16.6 11 17 11 C 17.4 11 17.8 10.8 18 11 C 18.2 11.2 18.2 11.8 18 12 C 17.8 12.2 17.4 12 17 12 C 16.6 12 16.4 12 16 12 C 15.6 12 15.4 12 15 12 C 14.6 12 14.4 12 14 12 C 13.6 12 13.2 12.2 13 12 C 12.8 11.8 12.8 11.2 13 11 " fill = "rgb(249, 228, 157)" stroke = "rgb(249, 228, 157)" stroke-width = "0"/>
    <path d="M 19.25 11.25 C 19.45 11.05 19.9 10.9 20 11 C 20.1 11.1 19.95 11.55 19.75 11.75 C 19.55 11.95 19.1 12.1 19 12 C 18.9 11.9 19.05 11.45 19.25 11.25 " fill = "rgb(127, 141, 126)" stroke = "rgb(127, 141, 126)" stroke-width = "0"/>
    <path d="M 20 11 C 20.25 10.85 20.85 10.85 21 11 C 21.15 11.15 20.9 11.5 20.75 11.75 C 20.6 12 20.45 12.05 20.25 12.25 C 20.05 12.45 20 12.6 19.75 12.75 C 19.5 12.9 19.15 13.15 19 13 C 18.85 12.85 18.85 12.25 19 12 C 19.15 11.75 19.55 11.95 19.75 11.75 C 19.95 11.55 19.75 11.15 20 11 " fill = "rgb(238, 245, 240)" stroke = "rgb(238, 245, 240)" stroke-width = "0"/>
    <path d="M 5 12 C 5.2 11.8 5.85 11.85 6 12 C 6.15 12.15 5.95 12.55 5.75 12.75 C 5.55 12.95 5.15 13.15 5 13 C 4.85 12.85 4.8 12.2 5 12 " fill = "rgb(34, 74, 40)" stroke = "rgb(34, 74, 40)" stroke-width = "0"/>
    <path d="M 6 12 C 6.25 11.85 6.8 11.8 7 12 C 7.2 12.2 7.15 12.75 7 13 C 6.85 13.25 6.45 13.05 6.25 13.25 C 6.05 13.45 6.2 13.8 6 14 C 5.8 14.2 5.45 14.05 5.25 14.25 C 5.05 14.45 5.05 14.65 5 15 C 4.95 15.35 5 15.6 5 16 C 5 16.4 5 16.6 5 17 C 5 17.4 5.05 17.65 5 18 C 4.95 18.35 4.95 18.55 4.75 18.75 C 4.55 18.95 4.15 19.15 4 19 C 3.85 18.85 4 18.4 4 18 C 4 17.6 4 17.4 4 17 C 4 16.6 4 16.4 4 16 C 4 15.6 4 15.4 4 15 C 4 14.6 3.85 14.25 4 14 C 4.15 13.75 4.55 13.95 4.75 13.75 C 4.95 13.55 4.8 13.2 5 13 C 5.2 12.8 5.55 12.95 5.75 12.75 C 5.95 12.55 5.75 12.15 6 12 " fill = "rgb(26, 26, 19)" stroke = "rgb(26, 26, 19)" stroke-width = "0"/>
    <path d="M 13 12 C 13.25 11.85 13.6 12 14 12 C 14.4 12 14.6 12 15 12 C 15.4 12 15.6 12 16 12 C 16.4 12 16.8 11.8 17 12 C 17.2 12.2 17.15 12.75 17 13 C 16.85 13.25 16.45 13.05 16.25 13.25 C 16.05 13.45 16.2 13.8 16 14 C 15.8 14.2 15.5 14.1 15.25 14.25 C 15 14.4 14.95 14.55 14.75 14.75 C 14.55 14.95 14.4 15 14.25 15.25 C 14.1 15.5 14.2 15.8 14 16 C 13.8 16.2 13.45 16.05 13.25 16.25 C 13.05 16.45 13.1 16.7 13 17 C 12.9 17.3 12.95 17.55 12.75 17.75 C 12.55 17.95 12.35 17.95 12 18 C 11.65 18.05 11.35 17.95 11 18 C 10.65 18.05 10.5 18.1 10.25 18.25 C 10 18.4 10 18.6 9.75 18.75 C 9.5 18.9 9.35 18.95 9 19 C 8.65 19.05 8.4 19 8 19 C 7.6 19 7.2 19.2 7 19 C 6.8 18.8 6.85 18.25 7 18 C 7.15 17.75 7.5 17.9 7.75 17.75 C 8 17.6 8.05 17.45 8.25 17.25 C 8.45 17.05 8.6 17 8.75 16.75 C 8.9 16.5 8.8 16.2 9 16 C 9.2 15.8 9.5 15.9 9.75 15.75 C 10 15.6 10.05 15.45 10.25 15.25 C 10.45 15.05 10.6 15 10.75 14.75 C 10.9 14.5 10.8 14.2 11 14 C 11.2 13.8 11.5 13.9 11.75 13.75 C 12 13.6 12.05 13.45 12.25 13.25 C 12.45 13.05 12.6 13 12.75 12.75 C 12.9 12.5 12.75 12.15 13 12 " fill = "rgb(238, 245, 240)" stroke = "rgb(238, 245, 240)" stroke-width = "0"/>
    <path d="M 17 12 C 17.2 11.8 17.8 11.8 18 12 C 18.2 12.2 18.2 12.8 18 13 C 17.8 13.2 17.2 13.2 17 13 C 16.8 12.8 16.8 12.2 17 12 " fill = "rgb(136, 164, 158)" stroke = "rgb(136, 164, 158)" stroke-width = "0"/>
    <path d="M 18 12 C 18.2 11.8 18.8 11.8 19 12 C 19.2 12.2 19.2 12.8 19 13 C 18.8 13.2 18.2 13.2 18 13 C 17.8 12.8 17.8 12.2 18 12 " fill = "rgb(34, 74, 40)" stroke = "rgb(34, 74, 40)" stroke-width = "0"/>
    <path d="M 4.25 13.25 C 4.45 13.05 4.9 12.9 5 13 C 5.1 13.1 4.95 13.55 4.75 13.75 C 4.55 13.95 4.1 14.1 4 14 C 3.9 13.9 4.05 13.45 4.25 13.25 " fill = "rgb(238, 245, 240)" stroke = "rgb(238, 245, 240)" stroke-width = "0"/>
    <path d="M 6.25 13.25 C 6.45 13.05 6.9 12.9 7 13 C 7.1 13.1 6.95 13.55 6.75 13.75 C 6.55 13.95 6.1 14.1 6 14 C 5.9 13.9 6.05 13.45 6.25 13.25 " fill = "rgb(71, 111, 75)" stroke = "rgb(71, 111, 75)" stroke-width = "0"/>
    <path d="M 10 13 C 10.25 12.85 10.8 12.8 11 13 C 11.2 13.2 11.15 13.75 11 14 C 10.85 14.25 10.5 14.1 10.25 14.25 C 10 14.4 9.95 14.55 9.75 14.75 C 9.55 14.95 9.4 15 9.25 15.25 C 9.1 15.5 9.1 15.7 9 16 C 8.9 16.3 8.9 16.5 8.75 16.75 C 8.6 17 8.45 17.05 8.25 17.25 C 8.05 17.45 8 17.6 7.75 17.75 C 7.5 17.9 7.1 18.1 7 18 C 6.9 17.9 7.1 17.5 7.25 17.25 C 7.4 17 7.6 17 7.75 16.75 C 7.9 16.5 7.9 16.3 8 16 C 8.1 15.7 8.1 15.5 8.25 15.25 C 8.4 15 8.55 14.95 8.75 14.75 C 8.95 14.55 9.05 14.45 9.25 14.25 C 9.45 14.05 9.6 14 9.75 13.75 C 9.9 13.5 9.75 13.15 10 13 " fill = "rgb(247, 199, 16)" stroke = "rgb(247, 199, 16)" stroke-width = "0"/>
    <path d="M 16.25 13.25 C 16.45 13.05 16.9 12.9 17 13 C 17.1 13.1 16.95 13.55 16.75 13.75 C 16.55 13.95 16.1 14.1 16 14 C 15.9 13.9 16.05 13.45 16.25 13.25 " fill = "rgb(127, 141, 126)" stroke = "rgb(127, 141, 126)" stroke-width = "0"/>
    <path d="M 17 13 C 17.25 12.85 17.8 12.8 18 13 C 18.2 13.2 18.15 13.75 18 14 C 17.85 14.25 17.5 14.1 17.25 14.25 C 17 14.4 17 14.6 16.75 14.75 C 16.5 14.9 16.3 14.9 16 15 C 15.7 15.1 15.45 15.05 15.25 15.25 C 15.05 15.45 15.1 15.7 15 16 C 14.9 16.3 14.9 16.5 14.75 16.75 C 14.6 17 14.45 17.05 14.25 17.25 C 14.05 17.45 13.95 17.55 13.75 17.75 C 13.55 17.95 13.4 18 13.25 18.25 C 13.1 18.5 13.25 18.85 13 19 C 12.75 19.15 12.4 19 12 19 C 11.6 19 11.35 18.95 11 19 C 10.65 19.05 10.45 19.05 10.25 19.25 C 10.05 19.45 10.25 19.85 10 20 C 9.75 20.15 9.4 20 9 20 C 8.6 20 8.35 19.95 8 20 C 7.65 20.05 7.45 20.05 7.25 20.25 C 7.05 20.45 7.25 20.85 7 21 C 6.75 21.15 6.2 21.2 6 21 C 5.8 20.8 6 20.4 6 20 C 6 19.6 5.8 19.2 6 19 C 6.2 18.8 6.6 19 7 19 C 7.4 19 7.6 19 8 19 C 8.4 19 8.65 19.05 9 19 C 9.35 18.95 9.5 18.9 9.75 18.75 C 10 18.6 10 18.4 10.25 18.25 C 10.5 18.1 10.65 18.05 11 18 C 11.35 17.95 11.65 18.05 12 18 C 12.35 17.95 12.55 17.95 12.75 17.75 C 12.95 17.55 12.8 17.2 13 17 C 13.2 16.8 13.55 16.95 13.75 16.75 C 13.95 16.55 13.9 16.3 14 16 C 14.1 15.7 14.1 15.5 14.25 15.25 C 14.4 15 14.55 14.95 14.75 14.75 C 14.95 14.55 15 14.4 15.25 14.25 C 15.5 14.1 15.7 14.1 16 14 C 16.3 13.9 16.55 13.95 16.75 13.75 C 16.95 13.55 16.75 13.15 17 13 " fill = "rgb(26, 26, 19)" stroke = "rgb(26, 26, 19)" stroke-width = "0"/>
    <path d="M 5.25 14.25 C 5.45 14.05 5.85 13.85 6 14 C 6.15 14.15 6 14.6 6 15 C 6 15.4 6.2 15.8 6 16 C 5.8 16.2 5.2 16.2 5 16 C 4.8 15.8 4.95 15.35 5 15 C 5.05 14.65 5.05 14.45 5.25 14.25 " fill = "rgb(146, 182, 150)" stroke = "rgb(146, 182, 150)" stroke-width = "0"/>
    <path d="M 10.25 14.25 C 10.5 14.1 10.9 13.9 11 14 C 11.1 14.1 10.9 14.5 10.75 14.75 C 10.6 15 10.45 15.05 10.25 15.25 C 10.05 15.45 10 15.6 9.75 15.75 C 9.5 15.9 9.1 16.1 9 16 C 8.9 15.9 9.1 15.5 9.25 15.25 C 9.4 15 9.55 14.95 9.75 14.75 C 9.95 14.55 10 14.4 10.25 14.25 " fill = "rgb(249, 228, 157)" stroke = "rgb(249, 228, 157)" stroke-width = "0"/>
    <path d="M 17.25 14.25 C 17.5 14.1 17.9 13.9 18 14 C 18.1 14.1 17.9 14.5 17.75 14.75 C 17.6 15 17.45 15.05 17.25 15.25 C 17.05 15.45 16.95 15.55 16.75 15.75 C 16.55 15.95 16.45 16.05 16.25 16.25 C 16.05 16.45 15.95 16.55 15.75 16.75 C 15.55 16.95 15.4 17 15.25 17.25 C 15.1 17.5 15.1 17.7 15 18 C 14.9 18.3 14.95 18.55 14.75 18.75 C 14.55 18.95 14.35 18.95 14 19 C 13.65 19.05 13.15 19.15 13 19 C 12.85 18.85 13.1 18.5 13.25 18.25 C 13.4 18 13.55 17.95 13.75 17.75 C 13.95 17.55 14.05 17.45 14.25 17.25 C 14.45 17.05 14.6 17 14.75 16.75 C 14.9 16.5 14.8 16.2 15 16 C 15.2 15.8 15.55 15.95 15.75 15.75 C 15.95 15.55 15.8 15.2 16 15 C 16.2 14.8 16.5 14.9 16.75 14.75 C 17 14.6 17 14.4 17.25 14.25 " fill = "rgb(238, 245, 240)" stroke = "rgb(238, 245, 240)" stroke-width = "0"/>
    <path d="M 15.25 15.25 C 15.45 15.05 15.9 14.9 16 15 C 16.1 15.1 15.95 15.55 15.75 15.75 C 15.55 15.95 15.1 16.1 15 16 C 14.9 15.9 15.05 15.45 15.25 15.25 " fill = "rgb(127, 141, 126)" stroke = "rgb(127, 141, 126)" stroke-width = "0"/>
    <path d="M 5 16 C 5.2 15.8 5.85 15.85 6 16 C 6.15 16.15 5.95 16.55 5.75 16.75 C 5.55 16.95 5.15 17.15 5 17 C 4.85 16.85 4.8 16.2 5 16 " fill = "rgb(172, 175, 179)" stroke = "rgb(172, 175, 179)" stroke-width = "0"/>
    <path d="M 7.25 16.25 C 7.5 16.1 7.9 15.9 8 16 C 8.1 16.1 7.9 16.5 7.75 16.75 C 7.6 17 7.4 17 7.25 17.25 C 7.1 17.5 7.05 17.65 7 18 C 6.95 18.35 7.2 18.8 7 19 C 6.8 19.2 6.2 19.2 6 19 C 5.8 18.8 5.95 18.35 6 18 C 6.05 17.65 6.1 17.5 6.25 17.25 C 6.4 17 6.55 16.95 6.75 16.75 C 6.95 16.55 7 16.4 7.25 16.25 " fill = "rgb(249, 228, 157)" stroke = "rgb(249, 228, 157)" stroke-width = "0"/>
    <path d="M 13.25 16.25 C 13.45 16.05 13.9 15.9 14 16 C 14.1 16.1 13.95 16.55 13.75 16.75 C 13.55 16.95 13.1 17.1 13 17 C 12.9 16.9 13.05 16.45 13.25 16.25 " fill = "rgb(146, 182, 150)" stroke = "rgb(146, 182, 150)" stroke-width = "0"/>
    <path d="M 5 18 C 5.25 17.85 5.8 17.8 6 18 C 6.2 18.2 6.15 18.75 6 19 C 5.85 19.25 5.5 19.1 5.25 19.25 C 5 19.4 5 19.6 4.75 19.75 C 4.5 19.9 4.15 20.15 4 20 C 3.85 19.85 3.85 19.25 4 19 C 4.15 18.75 4.55 18.95 4.75 18.75 C 4.95 18.55 4.75 18.15 5 18 " fill = "rgb(173, 140, 0)" stroke = "rgb(173, 140, 0)" stroke-width = "0"/>
    <path d="M 2.25 19.25 C 2.5 19.1 2.85 18.85 3 19 C 3.15 19.15 3.15 19.75 3 20 C 2.85 20.25 2.45 20.05 2.25 20.25 C 2.05 20.45 2.25 20.85 2 21 C 1.75 21.15 1.15 21.15 1 21 C 0.85 20.85 1.1 20.5 1.25 20.25 C 1.4 20 1.55 19.95 1.75 19.75 C 1.95 19.55 2 19.4 2.25 19.25 " fill = "rgb(238, 245, 240)" stroke = "rgb(238, 245, 240)" stroke-width = "0"/>
    <path d="M 3 19 C 3.2 18.8 3.8 18.8 4 19 C 4.2 19.2 4.2 19.8 4 20 C 3.8 20.2 3.2 20.2 3 20 C 2.8 19.8 2.8 19.2 3 19 " fill = "rgb(48, 86, 76)" stroke = "rgb(48, 86, 76)" stroke-width = "0"/>
    <path d="M 5.25 19.25 C 5.5 19.1 5.85 18.85 6 19 C 6.15 19.15 6.15 19.75 6 20 C 5.85 20.25 5.45 20.05 5.25 20.25 C 5.05 20.45 5.2 20.9 5 21 C 4.8 21.1 4.45 20.95 4.25 20.75 C 4.05 20.55 3.9 20.2 4 20 C 4.1 19.8 4.5 19.9 4.75 19.75 C 5 19.6 5 19.4 5.25 19.25 " fill = "rgb(148, 85, 2)" stroke = "rgb(148, 85, 2)" stroke-width = "0"/>
    <path d="M 10.25 19.25 C 10.45 19.05 10.85 18.85 11 19 C 11.15 19.15 11.2 19.8 11 20 C 10.8 20.2 10.15 20.15 10 20 C 9.85 19.85 10.05 19.45 10.25 19.25 " fill = "rgb(127, 141, 126)" stroke = "rgb(127, 141, 126)" stroke-width = "0"/>
    <path d="M 11 19 C 11.2 18.8 11.8 18.8 12 19 C 12.2 19.2 12.2 19.8 12 20 C 11.8 20.2 11.2 20.2 11 20 C 10.8 19.8 10.8 19.2 11 19 " fill = "rgb(146, 182, 150)" stroke = "rgb(146, 182, 150)" stroke-width = "0"/>
    <path d="M 12 19 C 12.2 18.8 12.85 18.85 13 19 C 13.15 19.15 12.95 19.55 12.75 19.75 C 12.55 19.95 12.15 20.15 12 20 C 11.85 19.85 11.8 19.2 12 19 " fill = "rgb(174, 231, 174)" stroke = "rgb(174, 231, 174)" stroke-width = "0"/>
    <path d="M 2.25 20.25 C 2.45 20.05 2.9 19.9 3 20 C 3.1 20.1 2.95 20.55 2.75 20.75 C 2.55 20.95 2.1 21.1 2 21 C 1.9 20.9 2.05 20.45 2.25 20.25 " fill = "rgb(127, 141, 126)" stroke = "rgb(127, 141, 126)" stroke-width = "0"/>
    <path d="M 3 20 C 3.25 19.85 3.75 19.85 4 20 C 4.25 20.15 4.05 20.55 4.25 20.75 C 4.45 20.95 4.9 20.8 5 21 C 5.1 21.2 4.9 21.5 4.75 21.75 C 4.6 22 4.4 22 4.25 22.25 C 4.1 22.5 4.25 22.85 4 23 C 3.75 23.15 3.35 23.05 3 23 C 2.65 22.95 2.45 22.95 2.25 22.75 C 2.05 22.55 2.05 22.35 2 22 C 1.95 21.65 1.85 21.25 2 21 C 2.15 20.75 2.55 20.95 2.75 20.75 C 2.95 20.55 2.75 20.15 3 20 " fill = "rgb(26, 26, 19)" stroke = "rgb(26, 26, 19)" stroke-width = "0"/>
    <path d="M 5.25 20.25 C 5.45 20.05 5.85 19.85 6 20 C 6.15 20.15 6.2 20.8 6 21 C 5.8 21.2 5.15 21.15 5 21 C 4.85 20.85 5.05 20.45 5.25 20.25 " fill = "rgb(100, 94, 42)" stroke = "rgb(100, 94, 42)" stroke-width = "0"/>
    <path d="M 7.25 20.25 C 7.45 20.05 7.65 20.05 8 20 C 8.35 19.95 8.8 19.8 9 20 C 9.2 20.2 9.2 20.8 9 21 C 8.8 21.2 8.4 21 8 21 C 7.6 21 7.15 21.15 7 21 C 6.85 20.85 7.05 20.45 7.25 20.25 " fill = "rgb(71, 111, 75)" stroke = "rgb(71, 111, 75)" stroke-width = "0"/>
    <path d="M 9 20 C 9.2 19.8 9.8 19.8 10 20 C 10.2 20.2 10.2 20.8 10 21 C 9.8 21.2 9.2 21.2 9 21 C 8.8 20.8 8.8 20.2 9 20 " fill = "rgb(34, 74, 40)" stroke = "rgb(34, 74, 40)" stroke-width = "0"/>
    <path d="M 10 20 C 10.2 19.8 10.85 19.85 11 20 C 11.15 20.15 10.95 20.55 10.75 20.75 C 10.55 20.95 10.15 21.15 10 21 C 9.85 20.85 9.8 20.2 10 20 " fill = "rgb(238, 245, 240)" stroke = "rgb(238, 245, 240)" stroke-width = "0"/>
    <path d="M 1 21 C 1.2 20.8 1.8 20.8 2 21 C 2.2 21.2 1.95 21.65 2 22 C 2.05 22.35 2.05 22.55 2.25 22.75 C 2.45 22.95 2.65 22.95 3 23 C 3.35 23.05 3.8 22.8 4 23 C 4.2 23.2 4.2 23.8 4 24 C 3.8 24.2 3.4 24 3 24 C 2.6 24 2.25 24.15 2 24 C 1.75 23.85 1.95 23.45 1.75 23.25 C 1.55 23.05 1.15 23.25 1 23 C 0.85 22.75 1 22.4 1 22 C 1 21.6 0.8 21.2 1 21 " fill = "rgb(146, 182, 150)" stroke = "rgb(146, 182, 150)" stroke-width = "0"/>
    <path d="M 3.25 21.25 C 3.35 21.15 3.65 21.15 3.75 21.25 C 3.85 21.35 3.85 21.65 3.75 21.75 C 3.65 21.85 3.35 21.85 3.25 21.75 C 3.15 21.65 3.15 21.35 3.25 21.25 " fill = "rgb(255, 244, 0)" stroke = "rgb(255, 244, 0)" stroke-width = "0"/>
    <path d="M 5 21 C 5.25 20.85 5.8 20.8 6 21 C 6.2 21.2 6.05 21.65 6 22 C 5.95 22.35 5.9 22.5 5.75 22.75 C 5.6 23 5.45 23.05 5.25 23.25 C 5.05 23.45 5 23.6 4.75 23.75 C 4.5 23.9 4.15 24.15 4 24 C 3.85 23.85 3.95 23.35 4 23 C 4.05 22.65 4.1 22.5 4.25 22.25 C 4.4 22 4.6 22 4.75 21.75 C 4.9 21.5 4.75 21.15 5 21 " fill = "rgb(238, 245, 240)" stroke = "rgb(238, 245, 240)" stroke-width = "0"/>
    <path d="M 1 23 C 1.1 22.9 1.55 23.05 1.75 23.25 C 1.95 23.45 2.1 23.9 2 24 C 1.9 24.1 1.45 23.95 1.25 23.75 C 1.05 23.55 0.9 23.1 1 23 " fill = "rgb(238, 245, 240)" stroke = "rgb(238, 245, 240)" stroke-width = "0"/>
</svg>
