<svg version="1.1" baseProfile = "full" width = "22" height = "21" xmlns = "http://www.w3.org/2000/svg">
    <path d="M 0 0 C 0.2 -0.2 0.6 -3.49691e-08 1 0 C 1.4 0 1.6 -3.49691e-08 2 0 C 2.4 0 2.6 -3.49691e-08 3 0 C 3.4 0 3.6 -3.49691e-08 4 0 C 4.4 0 4.6 -3.49691e-08 5 0 C 5.4 0 5.6 -3.49691e-08 6 0 C 6.4 0 6.6 -3.49691e-08 7 0 C 7.4 0 7.6 -3.49691e-08 8 0 C 8.4 0 8.6 -3.49691e-08 9 0 C 9.4 0 9.6 -3.49691e-08 10 0 C 10.4 0 10.6 -3.49691e-08 11 0 C 11.4 0 11.6 -3.49691e-08 12 0 C 12.4 0 12.6 -3.49691e-08 13 0 C 13.4 0 13.6 -3.49691e-08 14 0 C 14.4 0 14.6 -3.49691e-08 15 0 C 15.4 0 15.6 -3.49691e-08 16 0 C 16.4 0 16.6 -3.49691e-08 17 0 C 17.4 0 17.6 -3.49691e-08 18 0 C 18.4 0 18.6 -3.49691e-08 19 0 C 19.4 0 19.6 -3.49691e-08 20 0 C 20.4 0 20.6 -3.49691e-08 21 0 C 21.4 0 21.8 -0.2 22 0 C 22.2 0.2 22 0.6 22 1 C 22 1.4 22 1.6 22 2 C 22 2.4 22 2.6 22 3 C 22 3.4 22 3.6 22 4 C 22 4.4 22 4.6 22 5 C 22 5.4 22 5.6 22 6 C 22 6.4 22 6.6 22 7 C 22 7.4 22 7.6 22 8 C 22 8.4 22 8.6 22 9 C 22 9.4 22 9.6 22 10 C 22 10.4 22 10.6 22 11 C 22 11.4 22 11.6 22 12 C 22 12.4 22 12.6 22 13 C 22 13.4 22 13.6 22 14 C 22 14.4 22 14.6 22 15 C 22 15.4 22 15.6 22 16 C 22 16.4 22 16.6 22 17 C 22 17.4 22 17.6 22 18 C 22 18.4 22 18.6 22 19 C 22 19.4 22 19.6 22 20 C 22 20.4 22.2 20.8 22 21 C 21.8 21.2 21.4 21 21 21 C 20.6 21 20.4 21 20 21 C 19.6 21 19.4 21 19 21 C 18.6 21 18.4 21 18 21 C 17.6 21 17.4 21 17 21 C 16.6 21 16.4 21 16 21 C 15.6 21 15.4 21 15 21 C 14.6 21 14.4 21 14 21 C 13.6 21 13.4 21 13 21 C 12.6 21 12.4 21 12 21 C 11.6 21 11.4 21 11 21 C 10.6 21 10.4 21 10 21 C 9.6 21 9.4 21 9 21 C 8.6 21 8.4 21 8 21 C 7.6 21 7.4 21 7 21 C 6.6 21 6.4 21 6 21 C 5.6 21 5.4 21 5 21 C 4.6 21 4.4 21 4 21 C 3.6 21 3.4 21 3 21 C 2.6 21 2.4 21 2 21 C 1.6 21 1.4 21 1 21 C 0.6 21 0.2 21.2 0 21 C -0.2 20.8 3.01992e-08 20.4 0 20 C -1.74846e-08 19.6 3.01992e-08 19.4 0 19 C -1.74846e-08 18.6 3.01992e-08 18.4 0 18 C -1.74846e-08 17.6 3.01992e-08 17.4 0 17 C -1.74846e-08 16.6 3.01992e-08 16.4 0 16 C -1.74846e-08 15.6 3.01992e-08 15.4 0 15 C -1.74846e-08 14.6 3.01992e-08 14.4 0 14 C -1.74846e-08 13.6 3.01992e-08 13.4 0 13 C -1.74846e-08 12.6 3.01992e-08 12.4 0 12 C -1.74846e-08 11.6 3.01992e-08 11.4 0 11 C -1.74846e-08 10.6 3.01992e-08 10.4 0 10 C -1.74846e-08 9.6 3.01992e-08 9.4 0 9 C -1.74846e-08 8.6 3.01992e-08 8.4 0 8 C -1.74846e-08 7.6 3.01992e-08 7.4 0 7 C -1.74846e-08 6.6 3.01992e-08 6.4 0 6 C -1.74846e-08 5.6 3.01992e-08 5.4 0 5 C -1.74846e-08 4.6 3.01992e-08 4.4 0 4 C -1.74846e-08 3.6 3.01992e-08 3.4 0 3 C -1.74846e-08 2.6 3.01992e-08 2.4 0 2 C -1.74846e-08 1.6 3.01992e-08 1.4 0 1 C -1.74846e-08 0.6 -0.2 0.2 0 0 " fill = "rgb(255, 255, 255)" stroke = "rgb(255, 255, 255)" stroke-width = "0"/>
    <path d="M 13.25 1.25 C 13.45 1.05 13.65 1.05 14 1 C 14.35 0.95 14.6 1 15 1 C 15.4 1 15.6 1 16 1 C 16.4 1 16.6 1 17 1 C 17.4 1 17.6 1 18 1 C 18.4 1 18.65 0.95 19 1 C 19.35 1.05 19.55 1.05 19.75 1.25 C 19.95 1.45 19.95 1.65 20 2 C 20.05 2.35 20.15 2.85 20 3 C 19.85 3.15 19.5 2.9 19.25 2.75 C 19 2.6 19 2.4 18.75 2.25 C 18.5 2.1 18.35 2.05 18 2 C 17.65 1.95 17.4 2 17 2 C 16.6 2 16.4 2 16 2 C 15.6 2 15.35 1.95 15 2 C 14.65 2.05 14.5 2.1 14.25 2.25 C 14 2.4 14 2.6 13.75 2.75 C 13.5 2.9 13.15 3.15 13 3 C 12.85 2.85 12.95 2.35 13 2 C 13.05 1.65 13.05 1.45 13.25 1.25 " fill = "rgb(233, 249, 233)" stroke = "rgb(233, 249, 233)" stroke-width = "0"/>
    <path d="M 14.25 2.25 C 14.5 2.1 14.65 2.05 15 2 C 15.35 1.95 15.6 2 16 2 C 16.4 2 16.6 2 17 2 C 17.4 2 17.65 1.95 18 2 C 18.35 2.05 18.5 2.1 18.75 2.25 C 19 2.4 19 2.6 19.25 2.75 C 19.5 2.9 19.85 2.75 20 3 C 20.15 3.25 20 3.6 20 4 C 20 4.4 20 4.6 20 5 C 20 5.4 20 5.6 20 6 C 20 6.4 20.15 6.75 20 7 C 19.85 7.25 19.45 7.05 19.25 7.25 C 19.05 7.45 19.05 7.65 19 8 C 18.95 8.35 19.15 8.75 19 9 C 18.85 9.25 18.45 9.05 18.25 9.25 C 18.05 9.45 18.25 9.85 18 10 C 17.75 10.15 17.2 10.2 17 10 C 16.8 9.8 16.85 9.25 17 9 C 17.15 8.75 17.55 8.95 17.75 8.75 C 17.95 8.55 17.95 8.35 18 8 C 18.05 7.65 17.85 7.25 18 7 C 18.15 6.75 18.55 6.95 18.75 6.75 C 18.95 6.55 18.95 6.35 19 6 C 19.05 5.65 19 5.4 19 5 C 19 4.6 19.05 4.35 19 4 C 18.95 3.65 18.95 3.45 18.75 3.25 C 18.55 3.05 18.35 3.05 18 3 C 17.65 2.95 17.4 3 17 3 C 16.6 3 16.4 3 16 3 C 15.6 3 15.35 2.95 15 3 C 14.65 3.05 14.45 3.05 14.25 3.25 C 14.05 3.45 14.25 3.85 14 4 C 13.75 4.15 13.2 4.2 13 4 C 12.8 3.8 12.85 3.25 13 3 C 13.15 2.75 13.5 2.9 13.75 2.75 C 14 2.6 14 2.4 14.25 2.25 " fill = "rgb(25, 29, 33)" stroke = "rgb(25, 29, 33)" stroke-width = "0"/>
    <path d="M 9.25 3.25 C 9.45 3.05 9.85 2.85 10 3 C 10.15 3.15 10.2 3.8 10 4 C 9.8 4.2 9.15 4.15 9 4 C 8.85 3.85 9.05 3.45 9.25 3.25 " fill = "rgb(233, 249, 233)" stroke = "rgb(233, 249, 233)" stroke-width = "0"/>
    <path d="M 10 3 C 10.2 2.8 10.6 3 11 3 C 11.4 3 11.6 3 12 3 C 12.4 3 12.8 2.8 13 3 C 13.2 3.2 13.2 3.8 13 4 C 12.8 4.2 12.4 4 12 4 C 11.6 4 11.4 4 11 4 C 10.6 4 10.2 4.2 10 4 C 9.8 3.8 9.8 3.2 10 3 " fill = "rgb(65, 99, 55)" stroke = "rgb(65, 99, 55)" stroke-width = "0"/>
    <path d="M 14.25 3.25 C 14.45 3.05 14.65 3.05 15 3 C 15.35 2.95 15.6 3 16 3 C 16.4 3 16.8 2.8 17 3 C 17.2 3.2 17 3.6 17 4 C 17 4.4 16.95 4.65 17 5 C 17.05 5.35 17.1 5.6 17.25 5.75 C 17.4 5.9 17.6 5.9 17.75 5.75 C 17.9 5.6 17.95 5.35 18 5 C 18.05 4.65 17.8 4.2 18 4 C 18.2 3.8 18.8 3.8 19 4 C 19.2 4.2 19 4.6 19 5 C 19 5.4 19.05 5.65 19 6 C 18.95 6.35 18.95 6.55 18.75 6.75 C 18.55 6.95 18.3 6.9 18 7 C 17.7 7.1 17.4 7.1 17.25 7.25 C 17.1 7.4 17.1 7.6 17.25 7.75 C 17.4 7.9 17.9 7.8 18 8 C 18.1 8.2 17.95 8.55 17.75 8.75 C 17.55 8.95 17.3 8.9 17 9 C 16.7 9.1 16.45 9.05 16.25 9.25 C 16.05 9.45 16.05 9.65 16 10 C 15.95 10.35 16 10.6 16 11 C 16 11.4 16.15 11.75 16 12 C 15.85 12.25 15.5 12.1 15.25 12.25 C 15 12.4 14.95 12.65 14.75 12.75 C 14.55 12.85 14.45 12.85 14.25 12.75 C 14.05 12.65 14 12.4 13.75 12.25 C 13.5 12.1 13.35 12.05 13 12 C 12.65 11.95 12.35 11.95 12 12 C 11.65 12.05 11.5 12.1 11.25 12.25 C 11 12.4 11 12.6 10.75 12.75 C 10.5 12.9 10.3 12.9 10 13 C 9.7 13.1 9.4 13.1 9.25 13.25 C 9.1 13.4 9.15 13.55 9.25 13.75 C 9.35 13.95 9.55 14.05 9.75 14.25 C 9.95 14.45 10 14.6 10.25 14.75 C 10.5 14.9 10.8 14.8 11 15 C 11.2 15.2 11.05 15.55 11.25 15.75 C 11.45 15.95 11.8 15.8 12 16 C 12.2 16.2 12.05 16.55 12.25 16.75 C 12.45 16.95 12.7 16.9 13 17 C 13.3 17.1 13.6 17.1 13.75 17.25 C 13.9 17.4 13.9 17.6 13.75 17.75 C 13.6 17.9 13.35 17.95 13 18 C 12.65 18.05 12.35 18.05 12 18 C 11.65 17.95 11.5 17.9 11.25 17.75 C 11 17.6 11 17.4 10.75 17.25 C 10.5 17.1 10.35 17.05 10 17 C 9.65 16.95 9.35 16.95 9 17 C 8.65 17.05 8.5 17.1 8.25 17.25 C 8 17.4 8 17.6 7.75 17.75 C 7.5 17.9 7.35 17.95 7 18 C 6.65 18.05 6.4 18 6 18 C 5.6 18 5.25 18.15 5 18 C 4.75 17.85 4.95 17.45 4.75 17.25 C 4.55 17.05 4.3 17.1 4 17 C 3.7 16.9 3.45 16.95 3.25 16.75 C 3.05 16.55 3.05 16.35 3 16 C 2.95 15.65 3 15.4 3 15 C 3 14.6 3 14.4 3 14 C 3 13.6 3 13.4 3 13 C 3 12.6 2.95 12.35 3 12 C 3.05 11.65 3.05 11.45 3.25 11.25 C 3.45 11.05 3.85 10.85 4 11 C 4.15 11.15 4 11.6 4 12 C 4 12.4 3.95 12.65 4 13 C 4.05 13.35 4.1 13.6 4.25 13.75 C 4.4 13.9 4.6 13.9 4.75 13.75 C 4.9 13.6 4.75 13.15 5 13 C 5.25 12.85 5.75 12.85 6 13 C 6.25 13.15 6.1 13.6 6.25 13.75 C 6.4 13.9 6.55 13.85 6.75 13.75 C 6.95 13.65 7.05 13.45 7.25 13.25 C 7.45 13.05 7.6 13 7.75 12.75 C 7.9 12.5 7.9 12.3 8 12 C 8.1 11.7 8.1 11.5 8.25 11.25 C 8.4 11 8.55 10.95 8.75 10.75 C 8.95 10.55 9.05 10.45 9.25 10.25 C 9.45 10.05 9.55 9.95 9.75 9.75 C 9.95 9.55 10 9.4 10.25 9.25 C 10.5 9.1 10.8 8.9 11 9 C 11.2 9.1 11.05 9.55 11.25 9.75 C 11.45 9.95 11.7 10 12 10 C 12.3 10 12.55 9.95 12.75 9.75 C 12.95 9.55 12.95 9.35 13 9 C 13.05 8.65 12.8 8.2 13 8 C 13.2 7.8 13.65 8.05 14 8 C 14.35 7.95 14.55 7.95 14.75 7.75 C 14.95 7.55 15 7.3 15 7 C 15 6.7 14.9 6.4 14.75 6.25 C 14.6 6.1 14.4 6.1 14.25 6.25 C 14.1 6.4 14.2 6.9 14 7 C 13.8 7.1 13.45 6.95 13.25 6.75 C 13.05 6.55 12.9 6.2 13 6 C 13.1 5.8 13.55 5.95 13.75 5.75 C 13.95 5.55 13.8 5.1 14 5 C 14.2 4.9 14.5 5.1 14.75 5.25 C 15 5.4 15.05 5.65 15.25 5.75 C 15.45 5.85 15.6 5.9 15.75 5.75 C 15.9 5.6 16 5.3 16 5 C 16 4.7 15.95 4.45 15.75 4.25 C 15.55 4.05 15.35 4.05 15 4 C 14.65 3.95 14.15 4.15 14 4 C 13.85 3.85 14.05 3.45 14.25 3.25 " fill = "rgb(87, 111, 177)" stroke = "rgb(87, 111, 177)" stroke-width = "0"/>
    <path d="M 17 3 C 17.2 2.8 17.65 2.95 18 3 C 18.35 3.05 18.55 3.05 18.75 3.25 C 18.95 3.45 19.15 3.85 19 4 C 18.85 4.15 18.4 4 18 4 C 17.6 4 17.2 4.2 17 4 C 16.8 3.8 16.8 3.2 17 3 " fill = "rgb(63, 82, 127)" stroke = "rgb(63, 82, 127)" stroke-width = "0"/>
    <path d="M 20 3 C 20.15 2.85 20.55 3.05 20.75 3.25 C 20.95 3.45 21.15 3.85 21 4 C 20.85 4.15 20.2 4.2 20 4 C 19.8 3.8 19.85 3.15 20 3 " fill = "rgb(141, 179, 137)" stroke = "rgb(141, 179, 137)" stroke-width = "0"/>
    <path d="M 6.25 4.25 C 6.5 4.1 6.85 3.85 7 4 C 7.15 4.15 7.15 4.75 7 5 C 6.85 5.25 6.45 5.05 6.25 5.25 C 6.05 5.45 6.2 5.8 6 6 C 5.8 6.2 5.45 6.05 5.25 6.25 C 5.05 6.45 5.25 6.85 5 7 C 4.75 7.15 4.15 7.15 4 7 C 3.85 6.85 4.1 6.5 4.25 6.25 C 4.4 6 4.55 5.95 4.75 5.75 C 4.95 5.55 5.05 5.45 5.25 5.25 C 5.45 5.05 5.55 4.95 5.75 4.75 C 5.95 4.55 6 4.4 6.25 4.25 " fill = "rgb(233, 249, 233)" stroke = "rgb(233, 249, 233)" stroke-width = "0"/>
    <path d="M 7 4 C 7.2 3.8 7.6 4 8 4 C 8.4 4 8.8 3.8 9 4 C 9.2 4.2 9.2 4.8 9 5 C 8.8 5.2 8.4 5 8 5 C 7.6 5 7.2 5.2 7 5 C 6.8 4.8 6.8 4.2 7 4 " fill = "rgb(141, 179, 137)" stroke = "rgb(141, 179, 137)" stroke-width = "0"/>
    <path d="M 9 4 C 9.2 3.8 9.8 3.8 10 4 C 10.2 4.2 10.2 4.8 10 5 C 9.8 5.2 9.2 5.2 9 5 C 8.8 4.8 8.8 4.2 9 4 " fill = "rgb(117, 125, 129)" stroke = "rgb(117, 125, 129)" stroke-width = "0"/>
    <path d="M 10 4 C 10.2 3.8 10.8 3.8 11 4 C 11.2 4.2 11.2 4.8 11 5 C 10.8 5.2 10.2 5.2 10 5 C 9.8 4.8 9.8 4.2 10 4 " fill = "rgb(43, 56, 89)" stroke = "rgb(43, 56, 89)" stroke-width = "0"/>
    <path d="M 11 4 C 11.2 3.8 11.8 3.8 12 4 C 12.2 4.2 12.2 4.8 12 5 C 11.8 5.2 11.2 5.2 11 5 C 10.8 4.8 10.8 4.2 11 4 " fill = "rgb(63, 82, 127)" stroke = "rgb(63, 82, 127)" stroke-width = "0"/>
    <path d="M 12 4 C 12.2 3.8 12.8 3.8 13 4 C 13.2 4.2 13.2 4.8 13 5 C 12.8 5.2 12.2 5.2 12 5 C 11.8 4.8 11.8 4.2 12 4 " fill = "rgb(117, 125, 129)" stroke = "rgb(117, 125, 129)" stroke-width = "0"/>
    <path d="M 13 4 C 13.2 3.8 13.8 3.8 14 4 C 14.2 4.2 14.2 4.8 14 5 C 13.8 5.2 13.2 5.2 13 5 C 12.8 4.8 12.8 4.2 13 4 " fill = "rgb(161, 170, 168)" stroke = "rgb(161, 170, 168)" stroke-width = "0"/>
    <path d="M 14 4 C 14.2 3.8 14.65 3.95 15 4 C 15.35 4.05 15.55 4.05 15.75 4.25 C 15.95 4.45 16 4.7 16 5 C 16 5.3 15.9 5.6 15.75 5.75 C 15.6 5.9 15.45 5.85 15.25 5.75 C 15.05 5.65 15 5.4 14.75 5.25 C 14.5 5.1 14.15 5.25 14 5 C 13.85 4.75 13.8 4.2 14 4 " fill = "rgb(152, 177, 243)" stroke = "rgb(152, 177, 243)" stroke-width = "0"/>
    <path d="M 17 4 C 17.2 3.8 17.8 3.8 18 4 C 18.2 4.2 18.2 4.8 18 5 C 17.8 5.2 17.2 5.2 17 5 C 16.8 4.8 16.8 4.2 17 4 " fill = "rgb(43, 56, 89)" stroke = "rgb(43, 56, 89)" stroke-width = "0"/>
    <path d="M 20 4 C 20.2 3.8 20.8 3.8 21 4 C 21.2 4.2 21 4.6 21 5 C 21 5.4 21.2 5.8 21 6 C 20.8 6.2 20.2 6.2 20 6 C 19.8 5.8 20 5.4 20 5 C 20 4.6 19.8 4.2 20 4 " fill = "rgb(108, 147, 101)" stroke = "rgb(108, 147, 101)" stroke-width = "0"/>
    <path d="M 6.25 5.25 C 6.45 5.05 6.9 4.9 7 5 C 7.1 5.1 6.95 5.55 6.75 5.75 C 6.55 5.95 6.1 6.1 6 6 C 5.9 5.9 6.05 5.45 6.25 5.25 " fill = "rgb(191, 209, 188)" stroke = "rgb(191, 209, 188)" stroke-width = "0"/>
    <path d="M 7 5 C 7.25 4.85 7.6 5 8 5 C 8.4 5 8.6 5 9 5 C 9.4 5 9.8 4.8 10 5 C 10.2 5.2 10.05 5.65 10 6 C 9.95 6.35 9.95 6.55 9.75 6.75 C 9.55 6.95 9.35 6.95 9 7 C 8.65 7.05 8.25 7.15 8 7 C 7.75 6.85 7.9 6.4 7.75 6.25 C 7.6 6.1 7.45 6.15 7.25 6.25 C 7.05 6.35 6.95 6.55 6.75 6.75 C 6.55 6.95 6.35 7.05 6.25 7.25 C 6.15 7.45 6.1 7.6 6.25 7.75 C 6.4 7.9 6.85 7.75 7 8 C 7.15 8.25 7.2 8.8 7 9 C 6.8 9.2 6.25 9.15 6 9 C 5.75 8.85 5.95 8.45 5.75 8.25 C 5.55 8.05 5.15 8.25 5 8 C 4.85 7.75 4.85 7.25 5 7 C 5.15 6.75 5.55 6.95 5.75 6.75 C 5.95 6.55 5.8 6.2 6 6 C 6.2 5.8 6.55 5.95 6.75 5.75 C 6.95 5.55 6.75 5.15 7 5 " fill = "rgb(25, 29, 33)" stroke = "rgb(25, 29, 33)" stroke-width = "0"/>
    <path d="M 10 5 C 10.2 4.8 10.85 4.85 11 5 C 11.15 5.15 10.95 5.55 10.75 5.75 C 10.55 5.95 10.15 6.15 10 6 C 9.85 5.85 9.8 5.2 10 5 " fill = "rgb(87, 111, 177)" stroke = "rgb(87, 111, 177)" stroke-width = "0"/>
    <path d="M 11 5 C 11.25 4.85 11.85 4.85 12 5 C 12.15 5.15 11.9 5.5 11.75 5.75 C 11.6 6 11.35 6.05 11.25 6.25 C 11.15 6.45 11.15 6.65 11.25 6.75 C 11.35 6.85 11.55 6.85 11.75 6.75 C 11.95 6.65 12 6.4 12.25 6.25 C 12.5 6.1 12.8 5.9 13 6 C 13.2 6.1 13.05 6.55 13.25 6.75 C 13.45 6.95 13.85 6.75 14 7 C 14.15 7.25 14.2 7.8 14 8 C 13.8 8.2 13.4 8 13 8 C 12.6 8 12.35 7.95 12 8 C 11.65 8.05 11.45 8.05 11.25 8.25 C 11.05 8.45 11.2 8.8 11 9 C 10.8 9.2 10.5 9.1 10.25 9.25 C 10 9.4 9.95 9.55 9.75 9.75 C 9.55 9.95 9.45 10.05 9.25 10.25 C 9.05 10.45 8.95 10.55 8.75 10.75 C 8.55 10.95 8.4 11 8.25 11.25 C 8.1 11.5 8.1 11.7 8 12 C 7.9 12.3 7.9 12.5 7.75 12.75 C 7.6 13 7.45 13.05 7.25 13.25 C 7.05 13.45 6.95 13.65 6.75 13.75 C 6.55 13.85 6.4 13.9 6.25 13.75 C 6.1 13.6 6.1 13.3 6 13 C 5.9 12.7 5.95 12.45 5.75 12.25 C 5.55 12.05 5.15 12.25 5 12 C 4.85 11.75 5 11.4 5 11 C 5 10.6 4.8 10.2 5 10 C 5.2 9.8 5.65 10.05 6 10 C 6.35 9.95 6.55 9.95 6.75 9.75 C 6.95 9.55 6.95 9.35 7 9 C 7.05 8.65 6.95 8.35 7 8 C 7.05 7.65 7.05 7.45 7.25 7.25 C 7.45 7.05 7.65 7.05 8 7 C 8.35 6.95 8.65 7.05 9 7 C 9.35 6.95 9.55 6.95 9.75 6.75 C 9.95 6.55 9.8 6.2 10 6 C 10.2 5.8 10.55 5.95 10.75 5.75 C 10.95 5.55 10.75 5.15 11 5 " fill = "rgb(152, 177, 243)" stroke = "rgb(152, 177, 243)" stroke-width = "0"/>
    <path d="M 12 5 C 12.25 4.85 12.6 5 13 5 C 13.4 5 13.85 4.85 14 5 C 14.15 5.15 13.95 5.55 13.75 5.75 C 13.55 5.95 13.3 5.9 13 6 C 12.7 6.1 12.5 6.1 12.25 6.25 C 12 6.4 11.95 6.65 11.75 6.75 C 11.55 6.85 11.35 6.85 11.25 6.75 C 11.15 6.65 11.15 6.45 11.25 6.25 C 11.35 6.05 11.6 6 11.75 5.75 C 11.9 5.5 11.75 5.15 12 5 " fill = "rgb(233, 249, 233)" stroke = "rgb(233, 249, 233)" stroke-width = "0"/>
    <path d="M 17 5 C 17.15 4.85 17.85 4.85 18 5 C 18.15 5.15 17.9 5.6 17.75 5.75 C 17.6 5.9 17.4 5.9 17.25 5.75 C 17.1 5.6 16.85 5.15 17 5 " fill = "rgb(25, 29, 33)" stroke = "rgb(25, 29, 33)" stroke-width = "0"/>
    <path d="M 5.25 6.25 C 5.45 6.05 5.9 5.9 6 6 C 6.1 6.1 5.95 6.55 5.75 6.75 C 5.55 6.95 5.1 7.1 5 7 C 4.9 6.9 5.05 6.45 5.25 6.25 " fill = "rgb(141, 179, 137)" stroke = "rgb(141, 179, 137)" stroke-width = "0"/>
    <path d="M 7.25 6.25 C 7.45 6.15 7.6 6.1 7.75 6.25 C 7.9 6.4 8.1 6.8 8 7 C 7.9 7.2 7.45 7.05 7.25 7.25 C 7.05 7.45 7.2 7.9 7 8 C 6.8 8.1 6.4 7.9 6.25 7.75 C 6.1 7.6 6.15 7.45 6.25 7.25 C 6.35 7.05 6.55 6.95 6.75 6.75 C 6.95 6.55 7.05 6.35 7.25 6.25 " fill = "rgb(87, 111, 177)" stroke = "rgb(87, 111, 177)" stroke-width = "0"/>
    <path d="M 14.25 6.25 C 14.4 6.1 14.6 6.1 14.75 6.25 C 14.9 6.4 15.15 6.85 15 7 C 14.85 7.15 14.15 7.15 14 7 C 13.85 6.85 14.1 6.4 14.25 6.25 " fill = "rgb(25, 29, 33)" stroke = "rgb(25, 29, 33)" stroke-width = "0"/>
    <path d="M 16.25 6.25 C 16.35 6.15 16.65 6.15 16.75 6.25 C 16.85 6.35 16.85 6.65 16.75 6.75 C 16.65 6.85 16.35 6.85 16.25 6.75 C 16.15 6.65 16.15 6.35 16.25 6.25 " fill = "rgb(125, 148, 210)" stroke = "rgb(125, 148, 210)" stroke-width = "0"/>
    <path d="M 20 6 C 20.2 5.8 20.8 5.8 21 6 C 21.2 6.2 21.2 6.8 21 7 C 20.8 7.2 20.2 7.2 20 7 C 19.8 6.8 19.8 6.2 20 6 " fill = "rgb(141, 179, 137)" stroke = "rgb(141, 179, 137)" stroke-width = "0"/>
    <path d="M 4 7 C 4.2 6.8 4.8 6.8 5 7 C 5.2 7.2 5.2 7.8 5 8 C 4.8 8.2 4.2 8.2 4 8 C 3.8 7.8 3.8 7.2 4 7 " fill = "rgb(65, 99, 55)" stroke = "rgb(65, 99, 55)" stroke-width = "0"/>
    <path d="M 14 7 C 14.2 6.8 14.85 6.85 15 7 C 15.15 7.15 14.95 7.55 14.75 7.75 C 14.55 7.95 14.15 8.15 14 8 C 13.85 7.85 13.8 7.2 14 7 " fill = "rgb(63, 82, 127)" stroke = "rgb(63, 82, 127)" stroke-width = "0"/>
    <path d="M 17.25 7.25 C 17.4 7.1 17.85 6.85 18 7 C 18.15 7.15 18.15 7.85 18 8 C 17.85 8.15 17.4 7.9 17.25 7.75 C 17.1 7.6 17.1 7.4 17.25 7.25 " fill = "rgb(63, 82, 127)" stroke = "rgb(63, 82, 127)" stroke-width = "0"/>
    <path d="M 19.25 7.25 C 19.45 7.05 19.85 6.85 20 7 C 20.15 7.15 20 7.6 20 8 C 20 8.4 20.2 8.8 20 9 C 19.8 9.2 19.2 9.2 19 9 C 18.8 8.8 18.95 8.35 19 8 C 19.05 7.65 19.05 7.45 19.25 7.25 " fill = "rgb(191, 209, 188)" stroke = "rgb(191, 209, 188)" stroke-width = "0"/>
    <path d="M 20 7 C 20.2 6.8 20.85 6.85 21 7 C 21.15 7.15 20.95 7.55 20.75 7.75 C 20.55 7.95 20.15 8.15 20 8 C 19.85 7.85 19.8 7.2 20 7 " fill = "rgb(233, 249, 233)" stroke = "rgb(233, 249, 233)" stroke-width = "0"/>
    <path d="M 2.25 8.25 C 2.45 8.05 2.85 7.85 3 8 C 3.15 8.15 3 8.6 3 9 C 3 9.4 3.15 9.75 3 10 C 2.85 10.25 2.45 10.05 2.25 10.25 C 2.05 10.45 2.25 10.85 2 11 C 1.75 11.15 1.15 11.15 1 11 C 0.85 10.85 1.1 10.5 1.25 10.25 C 1.4 10 1.6 10 1.75 9.75 C 1.9 9.5 1.9 9.3 2 9 C 2.1 8.7 2.05 8.45 2.25 8.25 " fill = "rgb(233, 249, 233)" stroke = "rgb(233, 249, 233)" stroke-width = "0"/>
    <path d="M 3 8 C 3.2 7.8 3.8 7.8 4 8 C 4.2 8.2 4 8.6 4 9 C 4 9.4 4 9.6 4 10 C 4 10.4 4.15 10.75 4 11 C 3.85 11.25 3.45 11.05 3.25 11.25 C 3.05 11.45 3.05 11.65 3 12 C 2.95 12.35 3 12.6 3 13 C 3 13.4 3 13.6 3 14 C 3 14.4 3 14.6 3 15 C 3 15.4 2.95 15.65 3 16 C 3.05 16.35 3.05 16.55 3.25 16.75 C 3.45 16.95 3.8 16.8 4 17 C 4.2 17.2 4.05 17.55 4.25 17.75 C 4.45 17.95 4.65 17.95 5 18 C 5.35 18.05 5.6 18 6 18 C 6.4 18 6.65 18.05 7 18 C 7.35 17.95 7.5 17.9 7.75 17.75 C 8 17.6 8 17.4 8.25 17.25 C 8.5 17.1 8.65 17.05 9 17 C 9.35 16.95 9.65 16.95 10 17 C 10.35 17.05 10.5 17.1 10.75 17.25 C 11 17.4 11 17.6 11.25 17.75 C 11.5 17.9 11.65 17.95 12 18 C 12.35 18.05 12.65 18.05 13 18 C 13.35 17.95 13.6 17.9 13.75 17.75 C 13.9 17.6 13.9 17.4 13.75 17.25 C 13.6 17.1 13.3 17.1 13 17 C 12.7 16.9 12.45 16.95 12.25 16.75 C 12.05 16.55 11.85 16.15 12 16 C 12.15 15.85 12.6 16 13 16 C 13.4 16 13.65 16.05 14 16 C 14.35 15.95 14.55 15.95 14.75 15.75 C 14.95 15.55 14.75 15.15 15 15 C 15.25 14.85 15.8 14.8 16 15 C 16.2 15.2 16 15.6 16 16 C 16 16.4 16.15 16.75 16 17 C 15.85 17.25 15.5 17.1 15.25 17.25 C 15 17.4 14.95 17.55 14.75 17.75 C 14.55 17.95 14.45 18.05 14.25 18.25 C 14.05 18.45 14 18.6 13.75 18.75 C 13.5 18.9 13.35 18.95 13 19 C 12.65 19.05 12.35 19.05 12 19 C 11.65 18.95 11.5 18.9 11.25 18.75 C 11 18.6 11 18.4 10.75 18.25 C 10.5 18.1 10.35 18.05 10 18 C 9.65 17.95 9.35 17.95 9 18 C 8.65 18.05 8.5 18.1 8.25 18.25 C 8 18.4 8 18.6 7.75 18.75 C 7.5 18.9 7.35 18.95 7 19 C 6.65 19.05 6.4 19 6 19 C 5.6 19 5.35 19.05 5 19 C 4.65 18.95 4.5 18.9 4.25 18.75 C 4 18.6 3.95 18.45 3.75 18.25 C 3.55 18.05 3.45 17.95 3.25 17.75 C 3.05 17.55 3 17.4 2.75 17.25 C 2.5 17.1 2.15 17.25 2 17 C 1.85 16.75 2 16.4 2 16 C 2 15.6 2 15.4 2 15 C 2 14.6 2 14.4 2 14 C 2 13.6 2 13.4 2 13 C 2 12.6 2 12.4 2 12 C 2 11.6 1.85 11.25 2 11 C 2.15 10.75 2.55 10.95 2.75 10.75 C 2.95 10.55 2.95 10.35 3 10 C 3.05 9.65 3 9.4 3 9 C 3 8.6 2.8 8.2 3 8 " fill = "rgb(25, 29, 33)" stroke = "rgb(25, 29, 33)" stroke-width = "0"/>
    <path d="M 4 8 C 4.2 7.8 4.8 7.8 5 8 C 5.2 8.2 5.2 8.8 5 9 C 4.8 9.2 4.2 9.2 4 9 C 3.8 8.8 3.8 8.2 4 8 " fill = "rgb(63, 82, 127)" stroke = "rgb(63, 82, 127)" stroke-width = "0"/>
    <path d="M 5 8 C 5.15 7.85 5.55 8.05 5.75 8.25 C 5.95 8.45 6.15 8.85 6 9 C 5.85 9.15 5.2 9.2 5 9 C 4.8 8.8 4.85 8.15 5 8 " fill = "rgb(43, 56, 89)" stroke = "rgb(43, 56, 89)" stroke-width = "0"/>
    <path d="M 11.25 8.25 C 11.45 8.05 11.9 7.9 12 8 C 12.1 8.1 11.95 8.55 11.75 8.75 C 11.55 8.95 11.1 9.1 11 9 C 10.9 8.9 11.05 8.45 11.25 8.25 " fill = "rgb(25, 29, 33)" stroke = "rgb(25, 29, 33)" stroke-width = "0"/>
    <path d="M 12 8 C 12.25 7.85 12.8 7.8 13 8 C 13.2 8.2 13.05 8.65 13 9 C 12.95 9.35 12.95 9.55 12.75 9.75 C 12.55 9.95 12.3 10 12 10 C 11.7 10 11.45 9.95 11.25 9.75 C 11.05 9.55 10.9 9.2 11 9 C 11.1 8.8 11.55 8.95 11.75 8.75 C 11.95 8.55 11.75 8.15 12 8 " fill = "rgb(63, 82, 127)" stroke = "rgb(63, 82, 127)" stroke-width = "0"/>
    <path d="M 4 9 C 4.2 8.8 4.6 9 5 9 C 5.4 9 5.6 9 6 9 C 6.4 9 6.85 8.85 7 9 C 7.15 9.15 6.95 9.55 6.75 9.75 C 6.55 9.95 6.35 9.95 6 10 C 5.65 10.05 5.4 10 5 10 C 4.6 10 4.2 10.2 4 10 C 3.8 9.8 3.8 9.2 4 9 " fill = "rgb(87, 111, 177)" stroke = "rgb(87, 111, 177)" stroke-width = "0"/>
    <path d="M 16.25 9.25 C 16.45 9.05 16.85 8.85 17 9 C 17.15 9.15 17.2 9.8 17 10 C 16.8 10.2 16.15 10.15 16 10 C 15.85 9.85 16.05 9.45 16.25 9.25 " fill = "rgb(63, 82, 127)" stroke = "rgb(63, 82, 127)" stroke-width = "0"/>
    <path d="M 18.25 9.25 C 18.45 9.05 18.85 8.85 19 9 C 19.15 9.15 19.2 9.8 19 10 C 18.8 10.2 18.15 10.15 18 10 C 17.85 9.85 18.05 9.45 18.25 9.25 " fill = "rgb(141, 179, 137)" stroke = "rgb(141, 179, 137)" stroke-width = "0"/>
    <path d="M 19 9 C 19.2 8.8 19.85 8.85 20 9 C 20.15 9.15 19.95 9.55 19.75 9.75 C 19.55 9.95 19.15 10.15 19 10 C 18.85 9.85 18.8 9.2 19 9 " fill = "rgb(233, 249, 233)" stroke = "rgb(233, 249, 233)" stroke-width = "0"/>
    <path d="M 2.25 10.25 C 2.45 10.05 2.9 9.9 3 10 C 3.1 10.1 2.95 10.55 2.75 10.75 C 2.55 10.95 2.1 11.1 2 11 C 1.9 10.9 2.05 10.45 2.25 10.25 " fill = "rgb(161, 170, 168)" stroke = "rgb(161, 170, 168)" stroke-width = "0"/>
    <path d="M 4 10 C 4.2 9.8 4.8 9.8 5 10 C 5.2 10.2 5 10.6 5 11 C 5 11.4 5.2 11.8 5 12 C 4.8 12.2 4.2 12.2 4 12 C 3.8 11.8 4 11.4 4 11 C 4 10.6 3.8 10.2 4 10 " fill = "rgb(125, 148, 210)" stroke = "rgb(125, 148, 210)" stroke-width = "0"/>
    <path d="M 16 10 C 16.2 9.8 16.8 9.8 17 10 C 17.2 10.2 17.2 10.8 17 11 C 16.8 11.2 16.2 11.2 16 11 C 15.8 10.8 15.8 10.2 16 10 " fill = "rgb(43, 56, 89)" stroke = "rgb(43, 56, 89)" stroke-width = "0"/>
    <path d="M 17 10 C 17.2 9.8 17.8 9.8 18 10 C 18.2 10.2 18.2 10.8 18 11 C 17.8 11.2 17.2 11.2 17 11 C 16.8 10.8 16.8 10.2 17 10 " fill = "rgb(52, 62, 36)" stroke = "rgb(52, 62, 36)" stroke-width = "0"/>
    <path d="M 1 11 C 1.2 10.8 1.8 10.8 2 11 C 2.2 11.2 2 11.6 2 12 C 2 12.4 2 12.6 2 13 C 2 13.4 2 13.6 2 14 C 2 14.4 2 14.6 2 15 C 2 15.4 2 15.6 2 16 C 2 16.4 2.15 16.85 2 17 C 1.85 17.15 1.45 16.95 1.25 16.75 C 1.05 16.55 1.05 16.35 1 16 C 0.95 15.65 1 15.4 1 15 C 1 14.6 1 14.4 1 14 C 1 13.6 1 13.4 1 13 C 1 12.6 1 12.4 1 12 C 1 11.6 0.8 11.2 1 11 " fill = "rgb(141, 179, 137)" stroke = "rgb(141, 179, 137)" stroke-width = "0"/>
    <path d="M 16 11 C 16.2 10.8 16.8 10.8 17 11 C 17.2 11.2 17.2 11.8 17 12 C 16.8 12.2 16.2 12.2 16 12 C 15.8 11.8 15.8 11.2 16 11 " fill = "rgb(63, 82, 127)" stroke = "rgb(63, 82, 127)" stroke-width = "0"/>
    <path d="M 17 11 C 17.2 10.8 17.8 10.8 18 11 C 18.2 11.2 18.2 11.8 18 12 C 17.8 12.2 17.2 12.2 17 12 C 16.8 11.8 16.8 11.2 17 11 " fill = "rgb(65, 99, 55)" stroke = "rgb(65, 99, 55)" stroke-width = "0"/>
    <path d="M 18 11 C 18.15 10.85 18.6 11.1 18.75 11.25 C 18.9 11.4 18.9 11.6 18.75 11.75 C 18.6 11.9 18.15 12.15 18 12 C 17.85 11.85 17.85 11.15 18 11 " fill = "rgb(233, 249, 233)" stroke = "rgb(233, 249, 233)" stroke-width = "0"/>
    <path d="M 4 12 C 4.2 11.8 4.65 11.95 5 12 C 5.35 12.05 5.55 12.05 5.75 12.25 C 5.95 12.45 6.15 12.85 6 13 C 5.85 13.15 5.4 13 5 13 C 4.6 13 4.2 13.2 4 13 C 3.8 12.8 3.8 12.2 4 12 " fill = "rgb(25, 29, 33)" stroke = "rgb(25, 29, 33)" stroke-width = "0"/>
    <path d="M 11.25 12.25 C 11.5 12.1 11.65 12.05 12 12 C 12.35 11.95 12.65 11.95 13 12 C 13.35 12.05 13.5 12.1 13.75 12.25 C 14 12.4 14.05 12.65 14.25 12.75 C 14.45 12.85 14.55 12.85 14.75 12.75 C 14.95 12.65 15 12.4 15.25 12.25 C 15.5 12.1 15.85 11.85 16 12 C 16.15 12.15 16.15 12.75 16 13 C 15.85 13.25 15.45 13.05 15.25 13.25 C 15.05 13.45 15.2 13.9 15 14 C 14.8 14.1 14.5 13.9 14.25 13.75 C 14 13.6 14 13.4 13.75 13.25 C 13.5 13.1 13.35 13.05 13 13 C 12.65 12.95 12.35 12.95 12 13 C 11.65 13.05 11.5 13.1 11.25 13.25 C 11 13.4 10.95 13.65 10.75 13.75 C 10.55 13.85 10.4 13.9 10.25 13.75 C 10.1 13.6 9.9 13.2 10 13 C 10.1 12.8 10.5 12.9 10.75 12.75 C 11 12.6 11 12.4 11.25 12.25 " fill = "rgb(25, 29, 33)" stroke = "rgb(25, 29, 33)" stroke-width = "0"/>
    <path d="M 16 12 C 16.2 11.8 16.8 11.8 17 12 C 17.2 12.2 17.2 12.8 17 13 C 16.8 13.2 16.2 13.2 16 13 C 15.8 12.8 15.8 12.2 16 12 " fill = "rgb(141, 179, 137)" stroke = "rgb(141, 179, 137)" stroke-width = "0"/>
    <path d="M 4 13 C 4.15 12.85 4.85 12.85 5 13 C 5.15 13.15 4.9 13.6 4.75 13.75 C 4.6 13.9 4.4 13.9 4.25 13.75 C 4.1 13.6 3.85 13.15 4 13 " fill = "rgb(63, 82, 127)" stroke = "rgb(63, 82, 127)" stroke-width = "0"/>
    <path d="M 9.25 13.25 C 9.4 13.1 9.8 12.9 10 13 C 10.2 13.1 10.1 13.6 10.25 13.75 C 10.4 13.9 10.55 13.85 10.75 13.75 C 10.95 13.65 11 13.4 11.25 13.25 C 11.5 13.1 11.85 12.85 12 13 C 12.15 13.15 12.15 13.75 12 14 C 11.85 14.25 11.45 14.05 11.25 14.25 C 11.05 14.45 11.2 14.9 11 15 C 10.8 15.1 10.5 14.9 10.25 14.75 C 10 14.6 9.95 14.45 9.75 14.25 C 9.55 14.05 9.35 13.95 9.25 13.75 C 9.15 13.55 9.1 13.4 9.25 13.25 " fill = "rgb(63, 82, 127)" stroke = "rgb(63, 82, 127)" stroke-width = "0"/>
    <path d="M 12 13 C 12.2 12.8 12.65 12.95 13 13 C 13.35 13.05 13.5 13.1 13.75 13.25 C 14 13.4 14 13.6 14.25 13.75 C 14.5 13.9 14.85 13.75 15 14 C 15.15 14.25 15.15 14.75 15 15 C 14.85 15.25 14.45 15.05 14.25 15.25 C 14.05 15.45 14.25 15.85 14 16 C 13.75 16.15 13.2 16.2 13 16 C 12.8 15.8 12.85 15.25 13 15 C 13.15 14.75 13.6 14.9 13.75 14.75 C 13.9 14.6 13.9 14.4 13.75 14.25 C 13.6 14.1 13.35 14.05 13 14 C 12.65 13.95 12.2 14.2 12 14 C 11.8 13.8 11.8 13.2 12 13 " fill = "rgb(87, 111, 177)" stroke = "rgb(87, 111, 177)" stroke-width = "0"/>
    <path d="M 15.25 13.25 C 15.45 13.05 15.85 12.85 16 13 C 16.15 13.15 16.2 13.8 16 14 C 15.8 14.2 15.15 14.15 15 14 C 14.85 13.85 15.05 13.45 15.25 13.25 " fill = "rgb(196, 194, 191)" stroke = "rgb(196, 194, 191)" stroke-width = "0"/>
    <path d="M 16 13 C 16.2 12.8 16.8 12.8 17 13 C 17.2 13.2 17 13.6 17 14 C 17 14.4 17.2 14.8 17 15 C 16.8 15.2 16.2 15.2 16 15 C 15.8 14.8 16 14.4 16 14 C 16 13.6 15.8 13.2 16 13 " fill = "rgb(233, 249, 233)" stroke = "rgb(233, 249, 233)" stroke-width = "0"/>
    <path d="M 11.25 14.25 C 11.45 14.05 11.9 13.9 12 14 C 12.1 14.1 11.95 14.55 11.75 14.75 C 11.55 14.95 11.1 15.1 11 15 C 10.9 14.9 11.05 14.45 11.25 14.25 " fill = "rgb(125, 148, 210)" stroke = "rgb(125, 148, 210)" stroke-width = "0"/>
    <path d="M 12 14 C 12.25 13.85 12.65 13.95 13 14 C 13.35 14.05 13.6 14.1 13.75 14.25 C 13.9 14.4 13.9 14.6 13.75 14.75 C 13.6 14.9 13.3 14.9 13 15 C 12.7 15.1 12.45 15.05 12.25 15.25 C 12.05 15.45 12.2 15.9 12 16 C 11.8 16.1 11.45 15.95 11.25 15.75 C 11.05 15.55 10.9 15.2 11 15 C 11.1 14.8 11.55 14.95 11.75 14.75 C 11.95 14.55 11.75 14.15 12 14 " fill = "rgb(152, 177, 243)" stroke = "rgb(152, 177, 243)" stroke-width = "0"/>
    <path d="M 15 14 C 15.2 13.8 15.8 13.8 16 14 C 16.2 14.2 16.2 14.8 16 15 C 15.8 15.2 15.2 15.2 15 15 C 14.8 14.8 14.8 14.2 15 14 " fill = "rgb(117, 125, 129)" stroke = "rgb(117, 125, 129)" stroke-width = "0"/>
    <path d="M 12.25 15.25 C 12.45 15.05 12.85 14.85 13 15 C 13.15 15.15 13.2 15.8 13 16 C 12.8 16.2 12.15 16.15 12 16 C 11.85 15.85 12.05 15.45 12.25 15.25 " fill = "rgb(125, 148, 210)" stroke = "rgb(125, 148, 210)" stroke-width = "0"/>
    <path d="M 14.25 15.25 C 14.45 15.05 14.9 14.9 15 15 C 15.1 15.1 14.95 15.55 14.75 15.75 C 14.55 15.95 14.1 16.1 14 16 C 13.9 15.9 14.05 15.45 14.25 15.25 " fill = "rgb(125, 148, 210)" stroke = "rgb(125, 148, 210)" stroke-width = "0"/>
    <path d="M 16 15 C 16.2 14.8 16.8 14.8 17 15 C 17.2 15.2 17.05 15.65 17 16 C 16.95 16.35 16.95 16.55 16.75 16.75 C 16.55 16.95 16.15 17.15 16 17 C 15.85 16.85 16 16.4 16 16 C 16 15.6 15.8 15.2 16 15 " fill = "rgb(141, 179, 137)" stroke = "rgb(141, 179, 137)" stroke-width = "0"/>
    <path d="M 2 17 C 2.15 16.85 2.5 17.1 2.75 17.25 C 3 17.4 3.05 17.55 3.25 17.75 C 3.45 17.95 3.55 18.05 3.75 18.25 C 3.95 18.45 4 18.6 4.25 18.75 C 4.5 18.9 4.85 18.75 5 19 C 5.15 19.25 5.15 19.85 5 20 C 4.85 20.15 4.5 19.9 4.25 19.75 C 4 19.6 4 19.4 3.75 19.25 C 3.5 19.1 3.3 19.1 3 19 C 2.7 18.9 2.45 18.95 2.25 18.75 C 2.05 18.55 2.05 18.35 2 18 C 1.95 17.65 1.85 17.15 2 17 " fill = "rgb(233, 249, 233)" stroke = "rgb(233, 249, 233)" stroke-width = "0"/>
    <path d="M 4 17 C 4.1 16.9 4.55 17.05 4.75 17.25 C 4.95 17.45 5.1 17.9 5 18 C 4.9 18.1 4.45 17.95 4.25 17.75 C 4.05 17.55 3.9 17.1 4 17 " fill = "rgb(63, 82, 127)" stroke = "rgb(63, 82, 127)" stroke-width = "0"/>
    <path d="M 15.25 17.25 C 15.5 17.1 15.85 16.85 16 17 C 16.15 17.15 16.05 17.65 16 18 C 15.95 18.35 15.95 18.55 15.75 18.75 C 15.55 18.95 15.3 18.9 15 19 C 14.7 19.1 14.5 19.1 14.25 19.25 C 14 19.4 14 19.6 13.75 19.75 C 13.5 19.9 13.15 20.15 13 20 C 12.85 19.85 12.85 19.25 13 19 C 13.15 18.75 13.5 18.9 13.75 18.75 C 14 18.6 14.05 18.45 14.25 18.25 C 14.45 18.05 14.55 17.95 14.75 17.75 C 14.95 17.55 15 17.4 15.25 17.25 " fill = "rgb(233, 249, 233)" stroke = "rgb(233, 249, 233)" stroke-width = "0"/>
    <path d="M 8.25 18.25 C 8.5 18.1 8.9 17.9 9 18 C 9.1 18.1 8.9 18.5 8.75 18.75 C 8.6 19 8.4 19 8.25 19.25 C 8.1 19.5 8.25 19.85 8 20 C 7.75 20.15 7.2 20.2 7 20 C 6.8 19.8 6.85 19.25 7 19 C 7.15 18.75 7.5 18.9 7.75 18.75 C 8 18.6 8 18.4 8.25 18.25 " fill = "rgb(141, 179, 137)" stroke = "rgb(141, 179, 137)" stroke-width = "0"/>
    <path d="M 9 18 C 9.25 17.85 9.65 17.95 10 18 C 10.35 18.05 10.5 18.1 10.75 18.25 C 11 18.4 11 18.6 11.25 18.75 C 11.5 18.9 11.85 18.75 12 19 C 12.15 19.25 12.2 19.8 12 20 C 11.8 20.2 11.35 20.05 11 20 C 10.65 19.95 10.5 19.9 10.25 19.75 C 10 19.6 9.95 19.35 9.75 19.25 C 9.55 19.15 9.45 19.15 9.25 19.25 C 9.05 19.35 9 19.6 8.75 19.75 C 8.5 19.9 8.1 20.1 8 20 C 7.9 19.9 8.1 19.5 8.25 19.25 C 8.4 19 8.6 19 8.75 18.75 C 8.9 18.5 8.75 18.15 9 18 " fill = "rgb(233, 249, 233)" stroke = "rgb(233, 249, 233)" stroke-width = "0"/>
    <path d="M 5 19 C 5.2 18.8 5.8 18.8 6 19 C 6.2 19.2 6.2 19.8 6 20 C 5.8 20.2 5.2 20.2 5 20 C 4.8 19.8 4.8 19.2 5 19 " fill = "rgb(141, 179, 137)" stroke = "rgb(141, 179, 137)" stroke-width = "0"/>
    <path d="M 6 19 C 6.2 18.8 6.8 18.8 7 19 C 7.2 19.2 7.2 19.8 7 20 C 6.8 20.2 6.2 20.2 6 20 C 5.8 19.8 5.8 19.2 6 19 " fill = "rgb(233, 249, 233)" stroke = "rgb(233, 249, 233)" stroke-width = "0"/>
    <path d="M 12 19 C 12.2 18.8 12.8 18.8 13 19 C 13.2 19.2 13.2 19.8 13 20 C 12.8 20.2 12.2 20.2 12 20 C 11.8 19.8 11.8 19.2 12 19 " fill = "rgb(141, 179, 137)" stroke = "rgb(141, 179, 137)" stroke-width = "0"/>
</svg>
