<svg version="1.1" baseProfile = "full" width = "25" height = "25" xmlns = "http://www.w3.org/2000/svg">
    <path d="M 0 0 C 0.2 -0.2 0.6 -3.49691e-08 1 0 C 1.4 0 1.6 -3.49691e-08 2 0 C 2.4 0 2.6 -3.49691e-08 3 0 C 3.4 0 3.6 -3.49691e-08 4 0 C 4.4 0 4.6 -3.49691e-08 5 0 C 5.4 0 5.6 -3.49691e-08 6 0 C 6.4 0 6.6 -3.49691e-08 7 0 C 7.4 0 7.6 -3.49691e-08 8 0 C 8.4 0 8.6 -3.49691e-08 9 0 C 9.4 0 9.6 -3.49691e-08 10 0 C 10.4 0 10.6 -3.49691e-08 11 0 C 11.4 0 11.6 -3.49691e-08 12 0 C 12.4 0 12.6 -3.49691e-08 13 0 C 13.4 0 13.6 -3.49691e-08 14 0 C 14.4 0 14.6 -3.49691e-08 15 0 C 15.4 0 15.6 -3.49691e-08 16 0 C 16.4 0 16.6 -3.49691e-08 17 0 C 17.4 0 17.6 -3.49691e-08 18 0 C 18.4 0 18.6 -3.49691e-08 19 0 C 19.4 0 19.6 -3.49691e-08 20 0 C 20.4 0 20.6 -3.49691e-08 21 0 C 21.4 0 21.6 -3.49691e-08 22 0 C 22.4 0 22.6 -3.49691e-08 23 0 C 23.4 0 23.6 -3.49691e-08 24 0 C 24.4 0 24.8 -0.2 25 0 C 25.2 0.2 25 0.6 25 1 C 25 1.4 25 1.6 25 2 C 25 2.4 25 2.6 25 3 C 25 3.4 25 3.6 25 4 C 25 4.4 25 4.6 25 5 C 25 5.4 25 5.6 25 6 C 25 6.4 25 6.6 25 7 C 25 7.4 25 7.6 25 8 C 25 8.4 25 8.6 25 9 C 25 9.4 25 9.6 25 10 C 25 10.4 25 10.6 25 11 C 25 11.4 25 11.6 25 12 C 25 12.4 25 12.6 25 13 C 25 13.4 25 13.6 25 14 C 25 14.4 25 14.6 25 15 C 25 15.4 25 15.6 25 16 C 25 16.4 25 16.6 25 17 C 25 17.4 25 17.6 25 18 C 25 18.4 25 18.6 25 19 C 25 19.4 25 19.6 25 20 C 25 20.4 25 20.6 25 21 C 25 21.4 25 21.6 25 22 C 25 22.4 25 22.6 25 23 C 25 23.4 25 23.6 25 24 C 25 24.4 25.2 24.8 25 25 C 24.8 25.2 24.4 25 24 25 C 23.6 25 23.4 25 23 25 C 22.6 25 22.4 25 22 25 C 21.6 25 21.4 25 21 25 C 20.6 25 20.4 25 20 25 C 19.6 25 19.4 25 19 25 C 18.6 25 18.4 25 18 25 C 17.6 25 17.4 25 17 25 C 16.6 25 16.4 25 16 25 C 15.6 25 15.4 25 15 25 C 14.6 25 14.4 25 14 25 C 13.6 25 13.4 25 13 25 C 12.6 25 12.4 25 12 25 C 11.6 25 11.4 25 11 25 C 10.6 25 10.4 25 10 25 C 9.6 25 9.4 25 9 25 C 8.6 25 8.4 25 8 25 C 7.6 25 7.4 25 7 25 C 6.6 25 6.4 25 6 25 C 5.6 25 5.4 25 5 25 C 4.6 25 4.4 25 4 25 C 3.6 25 3.4 25 3 25 C 2.6 25 2.4 25 2 25 C 1.6 25 1.4 25 1 25 C 0.6 25 0.2 25.2 0 25 C -0.2 24.8 3.01992e-08 24.4 0 24 C -1.74846e-08 23.6 3.01992e-08 23.4 0 23 C -1.74846e-08 22.6 3.01992e-08 22.4 0 22 C -1.74846e-08 21.6 3.01992e-08 21.4 0 21 C -1.74846e-08 20.6 3.01992e-08 20.4 0 20 C -1.74846e-08 19.6 3.01992e-08 19.4 0 19 C -1.74846e-08 18.6 3.01992e-08 18.4 0 18 C -1.74846e-08 17.6 3.01992e-08 17.4 0 17 C -1.74846e-08 16.6 3.01992e-08 16.4 0 16 C -1.74846e-08 15.6 3.01992e-08 15.4 0 15 C -1.74846e-08 14.6 3.01992e-08 14.4 0 14 C -1.74846e-08 13.6 3.01992e-08 13.4 0 13 C -1.74846e-08 12.6 3.01992e-08 12.4 0 12 C -1.74846e-08 11.6 3.01992e-08 11.4 0 11 C -1.74846e-08 10.6 3.01992e-08 10.4 0 10 C -1.74846e-08 9.6 3.01992e-08 9.4 0 9 C -1.74846e-08 8.6 3.01992e-08 8.4 0 8 C -1.74846e-08 7.6 3.01992e-08 7.4 0 7 C -1.74846e-08 6.6 3.01992e-08 6.4 0 6 C -1.74846e-08 5.6 3.01992e-08 5.4 0 5 C -1.74846e-08 4.6 3.01992e-08 4.4 0 4 C -1.74846e-08 3.6 3.01992e-08 3.4 0 3 C -1.74846e-08 2.6 3.01992e-08 2.4 0 2 C -1.74846e-08 1.6 3.01992e-08 1.4 0 1 C -1.74846e-08 0.6 -0.2 0.2 0 0 " fill = "rgb(255, 255, 255)" stroke = "rgb(255, 255, 255)" stroke-width = "0"/>
    <path d="M 3.25 1.25 C 3.4 1.1 3.65 1.05 4 1 C 4.35 0.95 4.6 1 5 1 C 5.4 1 5.65 0.95 6 1 C 6.35 1.05 6.5 1.1 6.75 1.25 C 7 1.4 7 1.6 7.25 1.75 C 7.5 1.9 7.65 1.95 8 2 C 8.35 2.05 8.6 2 9 2 C 9.4 2 9.6 2 10 2 C 10.4 2 10.65 2.05 11 2 C 11.35 1.95 11.5 1.9 11.75 1.75 C 12 1.6 12 1.4 12.25 1.25 C 12.5 1.1 12.7 1 13 1 C 13.3 1 13.5 1.1 13.75 1.25 C 14 1.4 14 1.6 14.25 1.75 C 14.5 1.9 14.65 1.95 15 2 C 15.35 2.05 15.6 2 16 2 C 16.4 2 16.6 2 17 2 C 17.4 2 17.65 2.05 18 2 C 18.35 1.95 18.5 1.9 18.75 1.75 C 19 1.6 19 1.4 19.25 1.25 C 19.5 1.1 19.65 1.05 20 1 C 20.35 0.95 20.6 1 21 1 C 21.4 1 21.65 0.95 22 1 C 22.35 1.05 22.6 1.1 22.75 1.25 C 22.9 1.4 22.9 1.6 22.75 1.75 C 22.6 1.9 22.35 1.95 22 2 C 21.65 2.05 21.4 2 21 2 C 20.6 2 20.35 1.95 20 2 C 19.65 2.05 19.45 2.05 19.25 2.25 C 19.05 2.45 19 2.7 19 3 C 19 3.3 19.1 3.5 19.25 3.75 C 19.4 4 19.6 4 19.75 4.25 C 19.9 4.5 19.95 4.65 20 5 C 20.05 5.35 20.05 5.65 20 6 C 19.95 6.35 19.9 6.5 19.75 6.75 C 19.6 7 19.4 7 19.25 7.25 C 19.1 7.5 19.05 7.65 19 8 C 18.95 8.35 19 8.6 19 9 C 19 9.4 18.95 9.65 19 10 C 19.05 10.35 19.1 10.5 19.25 10.75 C 19.4 11 19.6 11 19.75 11.25 C 19.9 11.5 20.15 11.85 20 12 C 19.85 12.15 19.4 12 19 12 C 18.6 12 18.2 12.2 18 12 C 17.8 11.8 18 11.4 18 11 C 18 10.6 18.05 10.35 18 10 C 17.95 9.65 17.9 9.5 17.75 9.25 C 17.6 9 17.4 9 17.25 8.75 C 17.1 8.5 16.9 8.2 17 8 C 17.1 7.8 17.55 7.95 17.75 7.75 C 17.95 7.55 17.8 7.2 18 7 C 18.2 6.8 18.55 6.95 18.75 6.75 C 18.95 6.55 18.95 6.35 19 6 C 19.05 5.65 19.05 5.35 19 5 C 18.95 4.65 18.95 4.45 18.75 4.25 C 18.55 4.05 18.2 4.2 18 4 C 17.8 3.8 17.95 3.45 17.75 3.25 C 17.55 3.05 17.35 3.05 17 3 C 16.65 2.95 16.4 3 16 3 C 15.6 3 15.35 2.95 15 3 C 14.65 3.05 14.4 3.1 14.25 3.25 C 14.1 3.4 14.1 3.6 14.25 3.75 C 14.4 3.9 14.65 3.95 15 4 C 15.35 4.05 15.6 4 16 4 C 16.4 4 16.75 3.85 17 4 C 17.25 4.15 17.05 4.55 17.25 4.75 C 17.45 4.95 17.85 4.75 18 5 C 18.15 5.25 18.2 5.8 18 6 C 17.8 6.2 17.4 6 17 6 C 16.6 6 16.35 6.05 16 6 C 15.65 5.95 15.5 5.9 15.25 5.75 C 15 5.6 14.95 5.45 14.75 5.25 C 14.55 5.05 14.45 4.95 14.25 4.75 C 14.05 4.55 14 4.4 13.75 4.25 C 13.5 4.1 13.3 4.1 13 4 C 12.7 3.9 12.5 3.9 12.25 3.75 C 12 3.6 12 3.4 11.75 3.25 C 11.5 3.1 11.35 3.05 11 3 C 10.65 2.95 10.4 3 10 3 C 9.6 3 9.4 3 9 3 C 8.6 3 8.4 3 8 3 C 7.6 3 7.25 3.15 7 3 C 6.75 2.85 6.95 2.45 6.75 2.25 C 6.55 2.05 6.35 2.05 6 2 C 5.65 1.95 5.4 2 5 2 C 4.6 2 4.35 2.05 4 2 C 3.65 1.95 3.4 1.9 3.25 1.75 C 3.1 1.6 3.1 1.4 3.25 1.25 " fill = "rgb(240, 248, 242)" stroke = "rgb(240, 248, 242)" stroke-width = "0"/>
    <path d="M 7 3 C 7.25 2.85 7.8 2.8 8 3 C 8.2 3.2 8.15 3.75 8 4 C 7.85 4.25 7.45 4.05 7.25 4.25 C 7.05 4.45 7.25 4.85 7 5 C 6.75 5.15 6.2 5.2 6 5 C 5.8 4.8 5.85 4.25 6 4 C 6.15 3.75 6.55 3.95 6.75 3.75 C 6.95 3.55 6.75 3.15 7 3 " fill = "rgb(137, 168, 145)" stroke = "rgb(137, 168, 145)" stroke-width = "0"/>
    <path d="M 8 3 C 8.2 2.8 8.6 3 9 3 C 9.4 3 9.6 3 10 3 C 10.4 3 10.8 2.8 11 3 C 11.2 3.2 11.2 3.8 11 4 C 10.8 4.2 10.4 4 10 4 C 9.6 4 9.4 4 9 4 C 8.6 4 8.2 4.2 8 4 C 7.8 3.8 7.8 3.2 8 3 " fill = "rgb(99, 101, 112)" stroke = "rgb(99, 101, 112)" stroke-width = "0"/>
    <path d="M 11 3 C 11.15 2.85 11.5 3.1 11.75 3.25 C 12 3.4 12 3.6 12.25 3.75 C 12.5 3.9 12.7 3.9 13 4 C 13.3 4.1 13.5 4.1 13.75 4.25 C 14 4.4 14.05 4.55 14.25 4.75 C 14.45 4.95 14.55 5.05 14.75 5.25 C 14.95 5.45 15 5.6 15.25 5.75 C 15.5 5.9 15.65 5.95 16 6 C 16.35 6.05 16.6 6 17 6 C 17.4 6 17.8 5.8 18 6 C 18.2 6.2 18.2 6.8 18 7 C 17.8 7.2 17.4 7 17 7 C 16.6 7 16.4 7 16 7 C 15.6 7 15.35 7.05 15 7 C 14.65 6.95 14.45 6.95 14.25 6.75 C 14.05 6.55 14.1 6.3 14 6 C 13.9 5.7 13.95 5.45 13.75 5.25 C 13.55 5.05 13.3 5 13 5 C 12.7 5 12.5 5.1 12.25 5.25 C 12 5.4 11.95 5.55 11.75 5.75 C 11.55 5.95 11.35 6.05 11.25 6.25 C 11.15 6.45 11.1 6.6 11.25 6.75 C 11.4 6.9 11.65 6.95 12 7 C 12.35 7.05 12.65 6.95 13 7 C 13.35 7.05 13.55 7.05 13.75 7.25 C 13.95 7.45 13.95 7.65 14 8 C 14.05 8.35 14.2 8.8 14 9 C 13.8 9.2 13.4 9 13 9 C 12.6 9 12.4 9 12 9 C 11.6 9 11.4 9 11 9 C 10.6 9 10.2 9.2 10 9 C 9.8 8.8 9.85 8.25 10 8 C 10.15 7.75 10.6 7.9 10.75 7.75 C 10.9 7.6 10.9 7.4 10.75 7.25 C 10.6 7.1 10.35 7.05 10 7 C 9.65 6.95 9.4 7 9 7 C 8.6 7 8.15 7.15 8 7 C 7.85 6.85 8.05 6.45 8.25 6.25 C 8.45 6.05 8.65 6.05 9 6 C 9.35 5.95 9.65 6.05 10 6 C 10.35 5.95 10.5 5.9 10.75 5.75 C 11 5.6 11.05 5.45 11.25 5.25 C 11.45 5.05 11.65 4.95 11.75 4.75 C 11.85 4.55 11.9 4.4 11.75 4.25 C 11.6 4.1 11.15 4.25 11 4 C 10.85 3.75 10.85 3.15 11 3 " fill = "rgb(195, 196, 207)" stroke = "rgb(195, 196, 207)" stroke-width = "0"/>
    <path d="M 14.25 3.25 C 14.4 3.1 14.65 3.05 15 3 C 15.35 2.95 15.6 3 16 3 C 16.4 3 16.65 2.95 17 3 C 17.35 3.05 17.55 3.05 17.75 3.25 C 17.95 3.45 18.15 3.85 18 4 C 17.85 4.15 17.4 4 17 4 C 16.6 4 16.4 4 16 4 C 15.6 4 15.35 4.05 15 4 C 14.65 3.95 14.4 3.9 14.25 3.75 C 14.1 3.6 14.1 3.4 14.25 3.25 " fill = "rgb(99, 101, 112)" stroke = "rgb(99, 101, 112)" stroke-width = "0"/>
    <path d="M 5.25 4.25 C 5.45 4.05 5.85 3.85 6 4 C 6.15 4.15 6 4.6 6 5 C 6 5.4 6 5.6 6 6 C 6 6.4 6.15 6.85 6 7 C 5.85 7.15 5.45 6.95 5.25 6.75 C 5.05 6.55 5.05 6.35 5 6 C 4.95 5.65 4.95 5.35 5 5 C 5.05 4.65 5.05 4.45 5.25 4.25 " fill = "rgb(240, 248, 242)" stroke = "rgb(240, 248, 242)" stroke-width = "0"/>
    <path d="M 7.25 4.25 C 7.45 4.05 7.65 4.05 8 4 C 8.35 3.95 8.85 3.85 9 4 C 9.15 4.15 8.9 4.5 8.75 4.75 C 8.6 5 8.45 5.05 8.25 5.25 C 8.05 5.45 7.95 5.55 7.75 5.75 C 7.55 5.95 7.4 6 7.25 6.25 C 7.1 6.5 7.25 6.85 7 7 C 6.75 7.15 6.2 7.2 6 7 C 5.8 6.8 5.85 6.25 6 6 C 6.15 5.75 6.55 5.95 6.75 5.75 C 6.95 5.55 6.9 5.3 7 5 C 7.1 4.7 7.05 4.45 7.25 4.25 " fill = "rgb(195, 196, 207)" stroke = "rgb(195, 196, 207)" stroke-width = "0"/>
    <path d="M 9 4 C 9.25 3.85 9.6 4 10 4 C 10.4 4 10.65 3.95 11 4 C 11.35 4.05 11.6 4.1 11.75 4.25 C 11.9 4.4 11.85 4.55 11.75 4.75 C 11.65 4.95 11.45 5.05 11.25 5.25 C 11.05 5.45 11 5.6 10.75 5.75 C 10.5 5.9 10.35 5.95 10 6 C 9.65 6.05 9.35 5.95 9 6 C 8.65 6.05 8.45 6.05 8.25 6.25 C 8.05 6.45 8.25 6.85 8 7 C 7.75 7.15 7.15 7.15 7 7 C 6.85 6.85 7.1 6.5 7.25 6.25 C 7.4 6 7.55 5.95 7.75 5.75 C 7.95 5.55 8.05 5.45 8.25 5.25 C 8.45 5.05 8.6 5 8.75 4.75 C 8.9 4.5 8.75 4.15 9 4 " fill = "rgb(240, 248, 242)" stroke = "rgb(240, 248, 242)" stroke-width = "0"/>
    <path d="M 17 4 C 17.15 3.85 17.65 3.95 18 4 C 18.35 4.05 18.55 4.05 18.75 4.25 C 18.95 4.45 19.15 4.85 19 5 C 18.85 5.15 18.35 5.05 18 5 C 17.65 4.95 17.45 4.95 17.25 4.75 C 17.05 4.55 16.85 4.15 17 4 " fill = "rgb(195, 196, 207)" stroke = "rgb(195, 196, 207)" stroke-width = "0"/>
    <path d="M 6 5 C 6.2 4.8 6.85 4.85 7 5 C 7.15 5.15 6.95 5.55 6.75 5.75 C 6.55 5.95 6.15 6.15 6 6 C 5.85 5.85 5.8 5.2 6 5 " fill = "rgb(33, 36, 46)" stroke = "rgb(33, 36, 46)" stroke-width = "0"/>
    <path d="M 12.25 5.25 C 12.5 5.1 12.7 5 13 5 C 13.3 5 13.55 5.05 13.75 5.25 C 13.95 5.45 13.9 5.7 14 6 C 14.1 6.3 14.05 6.55 14.25 6.75 C 14.45 6.95 14.85 6.75 15 7 C 15.15 7.25 15.2 7.8 15 8 C 14.8 8.2 14.25 8.15 14 8 C 13.75 7.85 13.95 7.45 13.75 7.25 C 13.55 7.05 13.35 7.05 13 7 C 12.65 6.95 12.35 7.05 12 7 C 11.65 6.95 11.4 6.9 11.25 6.75 C 11.1 6.6 11.15 6.45 11.25 6.25 C 11.35 6.05 11.55 5.95 11.75 5.75 C 11.95 5.55 12 5.4 12.25 5.25 " fill = "rgb(151, 151, 162)" stroke = "rgb(151, 151, 162)" stroke-width = "0"/>
    <path d="M 18 5 C 18.2 4.8 18.8 4.8 19 5 C 19.2 5.2 19.05 5.65 19 6 C 18.95 6.35 18.95 6.55 18.75 6.75 C 18.55 6.95 18.15 7.15 18 7 C 17.85 6.85 18 6.4 18 6 C 18 5.6 17.8 5.2 18 5 " fill = "rgb(99, 101, 112)" stroke = "rgb(99, 101, 112)" stroke-width = "0"/>
    <path d="M 7 7 C 7.2 6.8 7.8 6.8 8 7 C 8.2 7.2 8.2 7.8 8 8 C 7.8 8.2 7.2 8.2 7 8 C 6.8 7.8 6.8 7.2 7 7 " fill = "rgb(93, 121, 106)" stroke = "rgb(93, 121, 106)" stroke-width = "0"/>
    <path d="M 8 7 C 8.2 6.8 8.6 7 9 7 C 9.4 7 9.8 6.8 10 7 C 10.2 7.2 10 7.6 10 8 C 10 8.4 10.2 8.8 10 9 C 9.8 9.2 9.25 9.15 9 9 C 8.75 8.85 8.95 8.45 8.75 8.25 C 8.55 8.05 8.15 8.25 8 8 C 7.85 7.75 7.8 7.2 8 7 " fill = "rgb(33, 36, 46)" stroke = "rgb(33, 36, 46)" stroke-width = "0"/>
    <path d="M 10 7 C 10.15 6.85 10.6 7.1 10.75 7.25 C 10.9 7.4 10.9 7.6 10.75 7.75 C 10.6 7.9 10.15 8.15 10 8 C 9.85 7.85 9.85 7.15 10 7 " fill = "rgb(99, 101, 112)" stroke = "rgb(99, 101, 112)" stroke-width = "0"/>
    <path d="M 15 7 C 15.2 6.8 15.6 7 16 7 C 16.4 7 16.6 7 17 7 C 17.4 7 17.85 6.85 18 7 C 18.15 7.15 17.95 7.55 17.75 7.75 C 17.55 7.95 17.35 7.95 17 8 C 16.65 8.05 16.4 8 16 8 C 15.6 8 15.2 8.2 15 8 C 14.8 7.8 14.8 7.2 15 7 " fill = "rgb(33, 36, 46)" stroke = "rgb(33, 36, 46)" stroke-width = "0"/>
    <path d="M 7 8 C 7.2 7.8 7.8 7.8 8 8 C 8.2 8.2 8.2 8.8 8 9 C 7.8 9.2 7.2 9.2 7 9 C 6.8 8.8 6.8 8.2 7 8 " fill = "rgb(240, 248, 242)" stroke = "rgb(240, 248, 242)" stroke-width = "0"/>
    <path d="M 8 8 C 8.15 7.85 8.55 8.05 8.75 8.25 C 8.95 8.45 8.9 8.7 9 9 C 9.1 9.3 9.1 9.5 9.25 9.75 C 9.4 10 9.55 10.05 9.75 10.25 C 9.95 10.45 10 10.6 10.25 10.75 C 10.5 10.9 10.65 10.95 11 11 C 11.35 11.05 11.6 11 12 11 C 12.4 11 12.6 11 13 11 C 13.4 11 13.65 11.05 14 11 C 14.35 10.95 14.5 10.9 14.75 10.75 C 15 10.6 15.05 10.35 15.25 10.25 C 15.45 10.15 15.6 10.1 15.75 10.25 C 15.9 10.4 15.95 10.65 16 11 C 16.05 11.35 16.2 11.8 16 12 C 15.8 12.2 15.4 12 15 12 C 14.6 12 14.4 12 14 12 C 13.6 12 13.4 12 13 12 C 12.6 12 12.4 12 12 12 C 11.6 12 11.4 12 11 12 C 10.6 12 10.25 12.15 10 12 C 9.75 11.85 9.95 11.45 9.75 11.25 C 9.55 11.05 9.2 11.2 9 11 C 8.8 10.8 8.95 10.45 8.75 10.25 C 8.55 10.05 8.15 10.25 8 10 C 7.85 9.75 8 9.4 8 9 C 8 8.6 7.85 8.15 8 8 " fill = "rgb(195, 196, 207)" stroke = "rgb(195, 196, 207)" stroke-width = "0"/>
    <path d="M 14 8 C 14.2 7.8 14.8 7.8 15 8 C 15.2 8.2 15.2 8.8 15 9 C 14.8 9.2 14.2 9.2 14 9 C 13.8 8.8 13.8 8.2 14 8 " fill = "rgb(240, 248, 242)" stroke = "rgb(240, 248, 242)" stroke-width = "0"/>
    <path d="M 15 8 C 15.2 7.8 15.6 8 16 8 C 16.4 8 16.75 7.85 17 8 C 17.25 8.15 17.1 8.5 17.25 8.75 C 17.4 9 17.6 9 17.75 9.25 C 17.9 9.5 18.15 9.85 18 10 C 17.85 10.15 17.25 10.15 17 10 C 16.75 9.85 16.95 9.45 16.75 9.25 C 16.55 9.05 16.35 9.05 16 9 C 15.65 8.95 15.2 9.2 15 9 C 14.8 8.8 14.8 8.2 15 8 " fill = "rgb(99, 101, 112)" stroke = "rgb(99, 101, 112)" stroke-width = "0"/>
    <path d="M 7 9 C 7.2 8.8 7.8 8.8 8 9 C 8.2 9.2 8.2 9.8 8 10 C 7.8 10.2 7.2 10.2 7 10 C 6.8 9.8 6.8 9.2 7 9 " fill = "rgb(137, 168, 145)" stroke = "rgb(137, 168, 145)" stroke-width = "0"/>
    <path d="M 9 9 C 9.15 8.85 9.6 9 10 9 C 10.4 9 10.6 9 11 9 C 11.4 9 11.6 9 12 9 C 12.4 9 12.6 9 13 9 C 13.4 9 13.6 9 14 9 C 14.4 9 14.6 9 15 9 C 15.4 9 15.65 8.95 16 9 C 16.35 9.05 16.55 9.05 16.75 9.25 C 16.95 9.45 16.9 9.7 17 10 C 17.1 10.3 17.05 10.55 17.25 10.75 C 17.45 10.95 17.85 10.75 18 11 C 18.15 11.25 18.2 11.8 18 12 C 17.8 12.2 17.4 12 17 12 C 16.6 12 16.2 12.2 16 12 C 15.8 11.8 16.05 11.35 16 11 C 15.95 10.65 15.9 10.4 15.75 10.25 C 15.6 10.1 15.45 10.15 15.25 10.25 C 15.05 10.35 15 10.6 14.75 10.75 C 14.5 10.9 14.35 10.95 14 11 C 13.65 11.05 13.4 11 13 11 C 12.6 11 12.4 11 12 11 C 11.6 11 11.35 11.05 11 11 C 10.65 10.95 10.5 10.9 10.25 10.75 C 10 10.6 9.95 10.45 9.75 10.25 C 9.55 10.05 9.4 10 9.25 9.75 C 9.1 9.5 8.85 9.15 9 9 " fill = "rgb(151, 151, 162)" stroke = "rgb(151, 151, 162)" stroke-width = "0"/>
    <path d="M 7 10 C 7.2 9.8 7.8 9.8 8 10 C 8.2 10.2 8.2 10.8 8 11 C 7.8 11.2 7.2 11.2 7 11 C 6.8 10.8 6.8 10.2 7 10 " fill = "rgb(93, 121, 106)" stroke = "rgb(93, 121, 106)" stroke-width = "0"/>
    <path d="M 8 10 C 8.15 9.85 8.55 10.05 8.75 10.25 C 8.95 10.45 9.15 10.85 9 11 C 8.85 11.15 8.2 11.2 8 11 C 7.8 10.8 7.85 10.15 8 10 " fill = "rgb(99, 101, 112)" stroke = "rgb(99, 101, 112)" stroke-width = "0"/>
    <path d="M 17 10 C 17.15 9.85 17.8 9.8 18 10 C 18.2 10.2 18.15 10.85 18 11 C 17.85 11.15 17.45 10.95 17.25 10.75 C 17.05 10.55 16.85 10.15 17 10 " fill = "rgb(33, 36, 46)" stroke = "rgb(33, 36, 46)" stroke-width = "0"/>
    <path d="M 5.25 11.25 C 5.45 11.05 5.65 11.05 6 11 C 6.35 10.95 6.8 10.8 7 11 C 7.2 11.2 7.15 11.75 7 12 C 6.85 12.25 6.45 12.05 6.25 12.25 C 6.05 12.45 6.05 12.65 6 13 C 5.95 13.35 6.2 13.8 6 14 C 5.8 14.2 5.2 14.2 5 14 C 4.8 13.8 5 13.4 5 13 C 5 12.6 4.95 12.35 5 12 C 5.05 11.65 5.05 11.45 5.25 11.25 " fill = "rgb(240, 248, 242)" stroke = "rgb(240, 248, 242)" stroke-width = "0"/>
    <path d="M 7 11 C 7.2 10.8 7.85 10.85 8 11 C 8.15 11.15 7.95 11.55 7.75 11.75 C 7.55 11.95 7.15 12.15 7 12 C 6.85 11.85 6.8 11.2 7 11 " fill = "rgb(195, 196, 207)" stroke = "rgb(195, 196, 207)" stroke-width = "0"/>
    <path d="M 8 11 C 8.25 10.85 8.65 10.95 9 11 C 9.35 11.05 9.55 11.05 9.75 11.25 C 9.95 11.45 10.15 11.85 10 12 C 9.85 12.15 9.35 11.95 9 12 C 8.65 12.05 8.45 12.05 8.25 12.25 C 8.05 12.45 8.25 12.85 8 13 C 7.75 13.15 7.2 13.2 7 13 C 6.8 12.8 6.85 12.25 7 12 C 7.15 11.75 7.55 11.95 7.75 11.75 C 7.95 11.55 7.75 11.15 8 11 " fill = "rgb(151, 151, 162)" stroke = "rgb(151, 151, 162)" stroke-width = "0"/>
    <path d="M 6.25 12.25 C 6.45 12.05 6.85 11.85 7 12 C 7.15 12.15 7.2 12.8 7 13 C 6.8 13.2 6.15 13.15 6 13 C 5.85 12.85 6.05 12.45 6.25 12.25 " fill = "rgb(33, 36, 46)" stroke = "rgb(33, 36, 46)" stroke-width = "0"/>
    <path d="M 8.25 12.25 C 8.45 12.05 8.65 12.05 9 12 C 9.35 11.95 9.6 12 10 12 C 10.4 12 10.75 11.85 11 12 C 11.25 12.15 11.05 12.55 11.25 12.75 C 11.45 12.95 11.65 12.95 12 13 C 12.35 13.05 12.65 13.05 13 13 C 13.35 12.95 13.55 12.95 13.75 12.75 C 13.95 12.55 13.75 12.15 14 12 C 14.25 11.85 14.6 12 15 12 C 15.4 12 15.6 12 16 12 C 16.4 12 16.75 11.85 17 12 C 17.25 12.15 17.05 12.55 17.25 12.75 C 17.45 12.95 17.85 12.75 18 13 C 18.15 13.25 17.95 13.65 18 14 C 18.05 14.35 18.05 14.55 18.25 14.75 C 18.45 14.95 18.85 14.75 19 15 C 19.15 15.25 19.2 15.8 19 16 C 18.8 16.2 18.35 16.05 18 16 C 17.65 15.95 17.5 15.9 17.25 15.75 C 17 15.6 17 15.4 16.75 15.25 C 16.5 15.1 16.3 15 16 15 C 15.7 15 15.45 15.05 15.25 15.25 C 15.05 15.45 15.05 15.65 15 16 C 14.95 16.35 15.2 16.8 15 17 C 14.8 17.2 14.4 17 14 17 C 13.6 17 13.4 17 13 17 C 12.6 17 12.4 17 12 17 C 11.6 17 11.4 17 11 17 C 10.6 17 10.2 17.2 10 17 C 9.8 16.8 10.05 16.35 10 16 C 9.95 15.65 9.95 15.45 9.75 15.25 C 9.55 15.05 9.3 15 9 15 C 8.7 15 8.5 15.1 8.25 15.25 C 8 15.4 7.95 15.65 7.75 15.75 C 7.55 15.85 7.4 15.9 7.25 15.75 C 7.1 15.6 7.05 15.35 7 15 C 6.95 14.65 6.85 14.25 7 14 C 7.15 13.75 7.55 13.95 7.75 13.75 C 7.95 13.55 7.9 13.3 8 13 C 8.1 12.7 8.05 12.45 8.25 12.25 " fill = "rgb(240, 248, 242)" stroke = "rgb(240, 248, 242)" stroke-width = "0"/>
    <path d="M 11 12 C 11.15 11.85 11.8 11.8 12 12 C 12.2 12.2 12.15 12.85 12 13 C 11.85 13.15 11.45 12.95 11.25 12.75 C 11.05 12.55 10.85 12.15 11 12 " fill = "rgb(151, 151, 162)" stroke = "rgb(151, 151, 162)" stroke-width = "0"/>
    <path d="M 12 12 C 12.2 11.8 12.6 12 13 12 C 13.4 12 13.85 11.85 14 12 C 14.15 12.15 13.95 12.55 13.75 12.75 C 13.55 12.95 13.35 12.95 13 13 C 12.65 13.05 12.2 13.2 12 13 C 11.8 12.8 11.8 12.2 12 12 " fill = "rgb(99, 101, 112)" stroke = "rgb(99, 101, 112)" stroke-width = "0"/>
    <path d="M 17 12 C 17.15 11.85 17.8 11.8 18 12 C 18.2 12.2 18.15 12.85 18 13 C 17.85 13.15 17.45 12.95 17.25 12.75 C 17.05 12.55 16.85 12.15 17 12 " fill = "rgb(195, 196, 207)" stroke = "rgb(195, 196, 207)" stroke-width = "0"/>
    <path d="M 18 12 C 18.2 11.8 18.8 11.8 19 12 C 19.2 12.2 19.2 12.8 19 13 C 18.8 13.2 18.2 13.2 18 13 C 17.8 12.8 17.8 12.2 18 12 " fill = "rgb(33, 36, 46)" stroke = "rgb(33, 36, 46)" stroke-width = "0"/>
    <path d="M 19 12 C 19.2 11.8 19.8 11.8 20 12 C 20.2 12.2 20.2 12.8 20 13 C 19.8 13.2 19.2 13.2 19 13 C 18.8 12.8 18.8 12.2 19 12 " fill = "rgb(137, 168, 145)" stroke = "rgb(137, 168, 145)" stroke-width = "0"/>
    <path d="M 6 13 C 6.2 12.8 6.8 12.8 7 13 C 7.2 13.2 7.2 13.8 7 14 C 6.8 14.2 6.2 14.2 6 14 C 5.8 13.8 5.8 13.2 6 13 " fill = "rgb(99, 101, 112)" stroke = "rgb(99, 101, 112)" stroke-width = "0"/>
    <path d="M 7 13 C 7.2 12.8 7.85 12.85 8 13 C 8.15 13.15 7.95 13.55 7.75 13.75 C 7.55 13.95 7.15 14.15 7 14 C 6.85 13.85 6.8 13.2 7 13 " fill = "rgb(195, 196, 207)" stroke = "rgb(195, 196, 207)" stroke-width = "0"/>
    <path d="M 10.25 13.25 C 10.35 13.15 10.65 13.15 10.75 13.25 C 10.85 13.35 10.85 13.65 10.75 13.75 C 10.65 13.85 10.35 13.85 10.25 13.75 C 10.15 13.65 10.15 13.35 10.25 13.25 " fill = "rgb(195, 196, 207)" stroke = "rgb(195, 196, 207)" stroke-width = "0"/>
    <path d="M 14.25 13.25 C 14.35 13.15 14.65 13.15 14.75 13.25 C 14.85 13.35 14.85 13.65 14.75 13.75 C 14.65 13.85 14.35 13.85 14.25 13.75 C 14.15 13.65 14.15 13.35 14.25 13.25 " fill = "rgb(195, 196, 207)" stroke = "rgb(195, 196, 207)" stroke-width = "0"/>
    <path d="M 18 13 C 18.2 12.8 18.8 12.8 19 13 C 19.2 13.2 19.2 13.8 19 14 C 18.8 14.2 18.2 14.2 18 14 C 17.8 13.8 17.8 13.2 18 13 " fill = "rgb(99, 101, 112)" stroke = "rgb(99, 101, 112)" stroke-width = "0"/>
    <path d="M 19 13 C 19.2 12.8 19.75 12.85 20 13 C 20.25 13.15 20.1 13.5 20.25 13.75 C 20.4 14 20.6 14 20.75 14.25 C 20.9 14.5 21.15 14.85 21 15 C 20.85 15.15 20.25 15.15 20 15 C 19.75 14.85 19.95 14.45 19.75 14.25 C 19.55 14.05 19.15 14.25 19 14 C 18.85 13.75 18.8 13.2 19 13 " fill = "rgb(240, 248, 242)" stroke = "rgb(240, 248, 242)" stroke-width = "0"/>
    <path d="M 4.25 14.25 C 4.45 14.05 4.85 13.85 5 14 C 5.15 14.15 5.2 14.8 5 15 C 4.8 15.2 4.15 15.15 4 15 C 3.85 14.85 4.05 14.45 4.25 14.25 " fill = "rgb(205, 250, 198)" stroke = "rgb(205, 250, 198)" stroke-width = "0"/>
    <path d="M 5 14 C 5.2 13.8 5.6 14 6 14 C 6.4 14 6.8 13.8 7 14 C 7.2 14.2 7.2 14.8 7 15 C 6.8 15.2 6.4 15 6 15 C 5.6 15 5.2 15.2 5 15 C 4.8 14.8 4.8 14.2 5 14 " fill = "rgb(151, 151, 162)" stroke = "rgb(151, 151, 162)" stroke-width = "0"/>
    <path d="M 18 14 C 18.15 13.85 18.8 13.8 19 14 C 19.2 14.2 19.15 14.85 19 15 C 18.85 15.15 18.45 14.95 18.25 14.75 C 18.05 14.55 17.85 14.15 18 14 " fill = "rgb(195, 196, 207)" stroke = "rgb(195, 196, 207)" stroke-width = "0"/>
    <path d="M 19 14 C 19.15 13.85 19.55 14.05 19.75 14.25 C 19.95 14.45 20.15 14.85 20 15 C 19.85 15.15 19.2 15.2 19 15 C 18.8 14.8 18.85 14.15 19 14 " fill = "rgb(151, 151, 162)" stroke = "rgb(151, 151, 162)" stroke-width = "0"/>
    <path d="M 4 15 C 4.2 14.8 4.8 14.8 5 15 C 5.2 15.2 5.05 15.65 5 16 C 4.95 16.35 4.95 16.55 4.75 16.75 C 4.55 16.95 4.15 17.15 4 17 C 3.85 16.85 4 16.4 4 16 C 4 15.6 3.8 15.2 4 15 " fill = "rgb(137, 168, 145)" stroke = "rgb(137, 168, 145)" stroke-width = "0"/>
    <path d="M 5 15 C 5.2 14.8 5.8 14.8 6 15 C 6.2 15.2 6 15.6 6 16 C 6 16.4 6 16.6 6 17 C 6 17.4 5.95 17.65 6 18 C 6.05 18.35 6.1 18.5 6.25 18.75 C 6.4 19 6.6 19 6.75 19.25 C 6.9 19.5 6.9 19.7 7 20 C 7.1 20.3 7.05 20.55 7.25 20.75 C 7.45 20.95 7.65 20.95 8 21 C 8.35 21.05 8.6 21 9 21 C 9.4 21 9.8 20.8 10 21 C 10.2 21.2 10.2 21.8 10 22 C 9.8 22.2 9.4 22 9 22 C 8.6 22 8.35 22.05 8 22 C 7.65 21.95 7.5 21.9 7.25 21.75 C 7 21.6 7 21.4 6.75 21.25 C 6.5 21.1 6.15 21.25 6 21 C 5.85 20.75 6.05 20.35 6 20 C 5.95 19.65 5.9 19.5 5.75 19.25 C 5.6 19 5.45 18.95 5.25 18.75 C 5.05 18.55 5 18.4 4.75 18.25 C 4.5 18.1 4.35 18.05 4 18 C 3.65 17.95 3.2 18.2 3 18 C 2.8 17.8 2.8 17.2 3 17 C 3.2 16.8 3.65 17.05 4 17 C 4.35 16.95 4.55 16.95 4.75 16.75 C 4.95 16.55 4.95 16.35 5 16 C 5.05 15.65 4.8 15.2 5 15 " fill = "rgb(33, 36, 46)" stroke = "rgb(33, 36, 46)" stroke-width = "0"/>
    <path d="M 6 15 C 6.2 14.8 6.75 14.85 7 15 C 7.25 15.15 7.1 15.6 7.25 15.75 C 7.4 15.9 7.55 15.85 7.75 15.75 C 7.95 15.65 8 15.4 8.25 15.25 C 8.5 15.1 8.7 15 9 15 C 9.3 15 9.55 15.05 9.75 15.25 C 9.95 15.45 10.15 15.85 10 16 C 9.85 16.15 9.35 15.95 9 16 C 8.65 16.05 8.45 16.05 8.25 16.25 C 8.05 16.45 8.25 16.85 8 17 C 7.75 17.15 7.25 17.15 7 17 C 6.75 16.85 6.95 16.45 6.75 16.25 C 6.55 16.05 6.15 16.25 6 16 C 5.85 15.75 5.8 15.2 6 15 " fill = "rgb(195, 196, 207)" stroke = "rgb(195, 196, 207)" stroke-width = "0"/>
    <path d="M 15.25 15.25 C 15.45 15.05 15.85 14.85 16 15 C 16.15 15.15 16.2 15.8 16 16 C 15.8 16.2 15.15 16.15 15 16 C 14.85 15.85 15.05 15.45 15.25 15.25 " fill = "rgb(151, 151, 162)" stroke = "rgb(151, 151, 162)" stroke-width = "0"/>
    <path d="M 16 15 C 16.15 14.85 16.5 15.1 16.75 15.25 C 17 15.4 17 15.6 17.25 15.75 C 17.5 15.9 17.65 15.95 18 16 C 18.35 16.05 18.8 15.8 19 16 C 19.2 16.2 19 16.6 19 17 C 19 17.4 19.05 17.65 19 18 C 18.95 18.35 18.95 18.55 18.75 18.75 C 18.55 18.95 18.15 19.15 18 19 C 17.85 18.85 18.05 18.35 18 18 C 17.95 17.65 17.95 17.45 17.75 17.25 C 17.55 17.05 17.2 17.2 17 17 C 16.8 16.8 16.95 16.45 16.75 16.25 C 16.55 16.05 16.15 16.25 16 16 C 15.85 15.75 15.85 15.15 16 15 " fill = "rgb(195, 196, 207)" stroke = "rgb(195, 196, 207)" stroke-width = "0"/>
    <path d="M 19 15 C 19.2 14.8 19.8 14.8 20 15 C 20.2 15.2 20 15.6 20 16 C 20 16.4 20.2 16.8 20 17 C 19.8 17.2 19.2 17.2 19 17 C 18.8 16.8 19 16.4 19 16 C 19 15.6 18.8 15.2 19 15 " fill = "rgb(99, 101, 112)" stroke = "rgb(99, 101, 112)" stroke-width = "0"/>
    <path d="M 20 15 C 20.2 14.8 20.8 14.8 21 15 C 21.2 15.2 20.95 15.65 21 16 C 21.05 16.35 21.1 16.5 21.25 16.75 C 21.4 17 21.65 17.05 21.75 17.25 C 21.85 17.45 21.85 17.55 21.75 17.75 C 21.65 17.95 21.4 18 21.25 18.25 C 21.1 18.5 21.25 18.85 21 19 C 20.75 19.15 20.2 19.2 20 19 C 19.8 18.8 20 18.4 20 18 C 20 17.6 20 17.4 20 17 C 20 16.6 20 16.4 20 16 C 20 15.6 19.8 15.2 20 15 " fill = "rgb(33, 36, 46)" stroke = "rgb(33, 36, 46)" stroke-width = "0"/>
    <path d="M 3.25 16.25 C 3.45 16.05 3.85 15.85 4 16 C 4.15 16.15 4.2 16.8 4 17 C 3.8 17.2 3.15 17.15 3 17 C 2.85 16.85 3.05 16.45 3.25 16.25 " fill = "rgb(240, 248, 242)" stroke = "rgb(240, 248, 242)" stroke-width = "0"/>
    <path d="M 6 16 C 6.15 15.85 6.55 16.05 6.75 16.25 C 6.95 16.45 6.95 16.65 7 17 C 7.05 17.35 7.2 17.8 7 18 C 6.8 18.2 6.2 18.2 6 18 C 5.8 17.8 6 17.4 6 17 C 6 16.6 5.85 16.15 6 16 " fill = "rgb(240, 248, 242)" stroke = "rgb(240, 248, 242)" stroke-width = "0"/>
    <path d="M 8.25 16.25 C 8.45 16.05 8.9 15.9 9 16 C 9.1 16.1 8.95 16.55 8.75 16.75 C 8.55 16.95 8.1 17.1 8 17 C 7.9 16.9 8.05 16.45 8.25 16.25 " fill = "rgb(99, 101, 112)" stroke = "rgb(99, 101, 112)" stroke-width = "0"/>
    <path d="M 9 16 C 9.25 15.85 9.8 15.8 10 16 C 10.2 16.2 10 16.6 10 17 C 10 17.4 10.2 17.8 10 18 C 9.8 18.2 9.4 18 9 18 C 8.6 18 8.2 18.2 8 18 C 7.8 17.8 7.85 17.25 8 17 C 8.15 16.75 8.55 16.95 8.75 16.75 C 8.95 16.55 8.75 16.15 9 16 " fill = "rgb(33, 36, 46)" stroke = "rgb(33, 36, 46)" stroke-width = "0"/>
    <path d="M 15 16 C 15.2 15.8 15.65 15.95 16 16 C 16.35 16.05 16.55 16.05 16.75 16.25 C 16.95 16.45 16.95 16.65 17 17 C 17.05 17.35 17.2 17.8 17 18 C 16.8 18.2 16.4 18 16 18 C 15.6 18 15.2 18.2 15 18 C 14.8 17.8 15 17.4 15 17 C 15 16.6 14.8 16.2 15 16 " fill = "rgb(33, 36, 46)" stroke = "rgb(33, 36, 46)" stroke-width = "0"/>
    <path d="M 21 16 C 21.15 15.85 21.65 15.95 22 16 C 22.35 16.05 22.55 16.05 22.75 16.25 C 22.95 16.45 22.9 16.7 23 17 C 23.1 17.3 23.1 17.5 23.25 17.75 C 23.4 18 23.6 18 23.75 18.25 C 23.9 18.5 24.15 18.85 24 19 C 23.85 19.15 23.25 19.15 23 19 C 22.75 18.85 22.9 18.4 22.75 18.25 C 22.6 18.1 22.4 18.1 22.25 18.25 C 22.1 18.4 22.05 18.65 22 19 C 21.95 19.35 22.15 19.75 22 20 C 21.85 20.25 21.45 20.05 21.25 20.25 C 21.05 20.45 21 20.7 21 21 C 21 21.3 21.1 21.6 21.25 21.75 C 21.4 21.9 21.6 21.9 21.75 21.75 C 21.9 21.6 21.75 21.15 22 21 C 22.25 20.85 22.8 20.8 23 21 C 23.2 21.2 23.05 21.65 23 22 C 22.95 22.35 22.95 22.55 22.75 22.75 C 22.55 22.95 22.3 22.9 22 23 C 21.7 23.1 21.5 23.1 21.25 23.25 C 21 23.4 21 23.6 20.75 23.75 C 20.5 23.9 20.15 24.15 20 24 C 19.85 23.85 19.85 23.25 20 23 C 20.15 22.75 20.6 22.9 20.75 22.75 C 20.9 22.6 20.9 22.4 20.75 22.25 C 20.6 22.1 20.35 22.05 20 22 C 19.65 21.95 19.2 22.2 19 22 C 18.8 21.8 18.85 21.25 19 21 C 19.15 20.75 19.5 20.9 19.75 20.75 C 20 20.6 20.05 20.45 20.25 20.25 C 20.45 20.05 20.6 20 20.75 19.75 C 20.9 19.5 20.9 19.3 21 19 C 21.1 18.7 21.1 18.5 21.25 18.25 C 21.4 18 21.65 17.95 21.75 17.75 C 21.85 17.55 21.85 17.45 21.75 17.25 C 21.65 17.05 21.4 17 21.25 16.75 C 21.1 16.5 20.85 16.15 21 16 " fill = "rgb(240, 248, 242)" stroke = "rgb(240, 248, 242)" stroke-width = "0"/>
    <path d="M 7 17 C 7.2 16.8 7.8 16.8 8 17 C 8.2 17.2 8.2 17.8 8 18 C 7.8 18.2 7.2 18.2 7 18 C 6.8 17.8 6.8 17.2 7 17 " fill = "rgb(151, 151, 162)" stroke = "rgb(151, 151, 162)" stroke-width = "0"/>
    <path d="M 10 17 C 10.2 16.8 10.8 16.8 11 17 C 11.2 17.2 11.2 17.8 11 18 C 10.8 18.2 10.2 18.2 10 18 C 9.8 17.8 9.8 17.2 10 17 " fill = "rgb(99, 101, 112)" stroke = "rgb(99, 101, 112)" stroke-width = "0"/>
    <path d="M 11 17 C 11.2 16.8 11.6 17 12 17 C 12.4 17 12.6 17 13 17 C 13.4 17 13.8 16.8 14 17 C 14.2 17.2 14.2 17.8 14 18 C 13.8 18.2 13.4 18 13 18 C 12.6 18 12.4 18 12 18 C 11.6 18 11.2 18.2 11 18 C 10.8 17.8 10.8 17.2 11 17 " fill = "rgb(195, 196, 207)" stroke = "rgb(195, 196, 207)" stroke-width = "0"/>
    <path d="M 14 17 C 14.2 16.8 14.8 16.8 15 17 C 15.2 17.2 15.2 17.8 15 18 C 14.8 18.2 14.2 18.2 14 18 C 13.8 17.8 13.8 17.2 14 17 " fill = "rgb(151, 151, 162)" stroke = "rgb(151, 151, 162)" stroke-width = "0"/>
    <path d="M 17 17 C 17.15 16.85 17.55 17.05 17.75 17.25 C 17.95 17.45 18.15 17.85 18 18 C 17.85 18.15 17.2 18.2 17 18 C 16.8 17.8 16.85 17.15 17 17 " fill = "rgb(151, 151, 162)" stroke = "rgb(151, 151, 162)" stroke-width = "0"/>
    <path d="M 19 17 C 19.2 16.8 19.8 16.8 20 17 C 20.2 17.2 20.2 17.8 20 18 C 19.8 18.2 19.2 18.2 19 18 C 18.8 17.8 18.8 17.2 19 17 " fill = "rgb(151, 151, 162)" stroke = "rgb(151, 151, 162)" stroke-width = "0"/>
    <path d="M 1.25 18.25 C 1.45 18.05 1.85 17.85 2 18 C 2.15 18.15 2 18.6 2 19 C 2 19.4 2 19.6 2 20 C 2 20.4 2.15 20.85 2 21 C 1.85 21.15 1.45 20.95 1.25 20.75 C 1.05 20.55 1.05 20.35 1 20 C 0.95 19.65 0.95 19.35 1 19 C 1.05 18.65 1.05 18.45 1.25 18.25 " fill = "rgb(240, 248, 242)" stroke = "rgb(240, 248, 242)" stroke-width = "0"/>
    <path d="M 2 18 C 2.2 17.8 2.8 17.8 3 18 C 3.2 18.2 3.2 18.8 3 19 C 2.8 19.2 2.2 19.2 2 19 C 1.8 18.8 1.8 18.2 2 18 " fill = "rgb(93, 121, 106)" stroke = "rgb(93, 121, 106)" stroke-width = "0"/>
    <path d="M 3 18 C 3.2 17.8 3.8 17.8 4 18 C 4.2 18.2 4 18.6 4 19 C 4 19.4 4.2 19.8 4 20 C 3.8 20.2 3.2 20.2 3 20 C 2.8 19.8 3 19.4 3 19 C 3 18.6 2.8 18.2 3 18 " fill = "rgb(240, 248, 242)" stroke = "rgb(240, 248, 242)" stroke-width = "0"/>
    <path d="M 4 18 C 4.15 17.85 4.5 18.1 4.75 18.25 C 5 18.4 5.05 18.55 5.25 18.75 C 5.45 18.95 5.6 19 5.75 19.25 C 5.9 19.5 6.1 19.9 6 20 C 5.9 20.1 5.5 19.9 5.25 19.75 C 5 19.6 5 19.4 4.75 19.25 C 4.5 19.1 4.15 19.25 4 19 C 3.85 18.75 3.85 18.15 4 18 " fill = "rgb(99, 101, 112)" stroke = "rgb(99, 101, 112)" stroke-width = "0"/>
    <path d="M 6 18 C 6.15 17.85 6.6 18 7 18 C 7.4 18 7.6 18 8 18 C 8.4 18 8.6 18 9 18 C 9.4 18 9.85 17.85 10 18 C 10.15 18.15 9.95 18.55 9.75 18.75 C 9.55 18.95 9.3 18.9 9 19 C 8.7 19.1 8.4 19.1 8.25 19.25 C 8.1 19.4 8.1 19.6 8.25 19.75 C 8.4 19.9 8.7 20 9 20 C 9.3 20 9.5 19.9 9.75 19.75 C 10 19.6 10 19.4 10.25 19.25 C 10.5 19.1 10.85 18.85 11 19 C 11.15 19.15 11.15 19.75 11 20 C 10.85 20.25 10.45 20.05 10.25 20.25 C 10.05 20.45 10.25 20.85 10 21 C 9.75 21.15 9.4 21 9 21 C 8.6 21 8.25 21.15 8 21 C 7.75 20.85 7.95 20.45 7.75 20.25 C 7.55 20.05 7.2 20.2 7 20 C 6.8 19.8 6.9 19.5 6.75 19.25 C 6.6 19 6.4 19 6.25 18.75 C 6.1 18.5 5.85 18.15 6 18 " fill = "rgb(195, 196, 207)" stroke = "rgb(195, 196, 207)" stroke-width = "0"/>
    <path d="M 10 18 C 10.25 17.85 10.8 17.8 11 18 C 11.2 18.2 11.15 18.75 11 19 C 10.85 19.25 10.5 19.1 10.25 19.25 C 10 19.4 10 19.6 9.75 19.75 C 9.5 19.9 9.3 20 9 20 C 8.7 20 8.4 19.9 8.25 19.75 C 8.1 19.6 8.1 19.4 8.25 19.25 C 8.4 19.1 8.7 19.1 9 19 C 9.3 18.9 9.55 18.95 9.75 18.75 C 9.95 18.55 9.75 18.15 10 18 " fill = "rgb(240, 248, 242)" stroke = "rgb(240, 248, 242)" stroke-width = "0"/>
    <path d="M 11 18 C 11.2 17.8 11.8 17.8 12 18 C 12.2 18.2 12.2 18.8 12 19 C 11.8 19.2 11.2 19.2 11 19 C 10.8 18.8 10.8 18.2 11 18 " fill = "rgb(128, 126, 134)" stroke = "rgb(128, 126, 134)" stroke-width = "0"/>
    <path d="M 12 18 C 12.2 17.8 12.8 17.8 13 18 C 13.2 18.2 13.2 18.8 13 19 C 12.8 19.2 12.2 19.2 12 19 C 11.8 18.8 11.8 18.2 12 18 " fill = "rgb(33, 36, 46)" stroke = "rgb(33, 36, 46)" stroke-width = "0"/>
    <path d="M 13 18 C 13.2 17.8 13.8 17.8 14 18 C 14.2 18.2 14.2 18.8 14 19 C 13.8 19.2 13.2 19.2 13 19 C 12.8 18.8 12.8 18.2 13 18 " fill = "rgb(99, 101, 112)" stroke = "rgb(99, 101, 112)" stroke-width = "0"/>
    <path d="M 14 18 C 14.2 17.8 14.75 17.85 15 18 C 15.25 18.15 15.05 18.55 15.25 18.75 C 15.45 18.95 15.7 19 16 19 C 16.3 19 16.55 18.95 16.75 18.75 C 16.95 18.55 16.75 18.15 17 18 C 17.25 17.85 17.8 17.8 18 18 C 18.2 18.2 18 18.6 18 19 C 18 19.4 18.15 19.75 18 20 C 17.85 20.25 17.45 20.05 17.25 20.25 C 17.05 20.45 17.25 20.85 17 21 C 16.75 21.15 16.25 21.15 16 21 C 15.75 20.85 15.9 20.5 15.75 20.25 C 15.6 20 15.45 19.95 15.25 19.75 C 15.05 19.55 15 19.4 14.75 19.25 C 14.5 19.1 14.15 19.25 14 19 C 13.85 18.75 13.8 18.2 14 18 " fill = "rgb(240, 248, 242)" stroke = "rgb(240, 248, 242)" stroke-width = "0"/>
    <path d="M 15 18 C 15.15 17.85 15.6 18 16 18 C 16.4 18 16.85 17.85 17 18 C 17.15 18.15 16.95 18.55 16.75 18.75 C 16.55 18.95 16.3 19 16 19 C 15.7 19 15.45 18.95 15.25 18.75 C 15.05 18.55 14.85 18.15 15 18 " fill = "rgb(195, 196, 207)" stroke = "rgb(195, 196, 207)" stroke-width = "0"/>
    <path d="M 19 18 C 19.25 17.85 19.8 17.8 20 18 C 20.2 18.2 20.05 18.65 20 19 C 19.95 19.35 19.95 19.55 19.75 19.75 C 19.55 19.95 19.35 19.95 19 20 C 18.65 20.05 18.2 20.2 18 20 C 17.8 19.8 17.85 19.25 18 19 C 18.15 18.75 18.55 18.95 18.75 18.75 C 18.95 18.55 18.75 18.15 19 18 " fill = "rgb(99, 101, 112)" stroke = "rgb(99, 101, 112)" stroke-width = "0"/>
    <path d="M 22.25 18.25 C 22.4 18.1 22.6 18.1 22.75 18.25 C 22.9 18.4 23.15 18.85 23 19 C 22.85 19.15 22.15 19.15 22 19 C 21.85 18.85 22.1 18.4 22.25 18.25 " fill = "rgb(128, 126, 134)" stroke = "rgb(128, 126, 134)" stroke-width = "0"/>
    <path d="M 2 19 C 2.2 18.8 2.8 18.8 3 19 C 3.2 19.2 2.95 19.65 3 20 C 3.05 20.35 3.1 20.5 3.25 20.75 C 3.4 21 3.6 21 3.75 21.25 C 3.9 21.5 4.15 21.85 4 22 C 3.85 22.15 3.25 22.15 3 22 C 2.75 21.85 2.95 21.45 2.75 21.25 C 2.55 21.05 2.15 21.25 2 21 C 1.85 20.75 2 20.4 2 20 C 2 19.6 1.8 19.2 2 19 " fill = "rgb(33, 36, 46)" stroke = "rgb(33, 36, 46)" stroke-width = "0"/>
    <path d="M 4 19 C 4.15 18.85 4.5 19.1 4.75 19.25 C 5 19.4 5 19.6 5.25 19.75 C 5.5 19.9 5.85 19.75 6 20 C 6.15 20.25 6.2 20.8 6 21 C 5.8 21.2 5.35 21.05 5 21 C 4.65 20.95 4.45 20.95 4.25 20.75 C 4.05 20.55 4.05 20.35 4 20 C 3.95 19.65 3.85 19.15 4 19 " fill = "rgb(195, 196, 207)" stroke = "rgb(195, 196, 207)" stroke-width = "0"/>
    <path d="M 11 19 C 11.2 18.8 11.6 19 12 19 C 12.4 19 12.8 18.8 13 19 C 13.2 19.2 13.2 19.8 13 20 C 12.8 20.2 12.4 20 12 20 C 11.6 20 11.2 20.2 11 20 C 10.8 19.8 10.8 19.2 11 19 " fill = "rgb(151, 151, 162)" stroke = "rgb(151, 151, 162)" stroke-width = "0"/>
    <path d="M 13 19 C 13.2 18.8 13.8 18.8 14 19 C 14.2 19.2 14.2 19.8 14 20 C 13.8 20.2 13.2 20.2 13 20 C 12.8 19.8 12.8 19.2 13 19 " fill = "rgb(132, 94, 110)" stroke = "rgb(132, 94, 110)" stroke-width = "0"/>
    <path d="M 14 19 C 14.15 18.85 14.5 19.1 14.75 19.25 C 15 19.4 15.05 19.55 15.25 19.75 C 15.45 19.95 15.6 20 15.75 20.25 C 15.9 20.5 16.15 20.85 16 21 C 15.85 21.15 15.25 21.15 15 21 C 14.75 20.85 14.95 20.45 14.75 20.25 C 14.55 20.05 14.15 20.25 14 20 C 13.85 19.75 13.85 19.15 14 19 " fill = "rgb(195, 196, 207)" stroke = "rgb(195, 196, 207)" stroke-width = "0"/>
    <path d="M 20 19 C 20.25 18.85 20.85 18.85 21 19 C 21.15 19.15 20.9 19.5 20.75 19.75 C 20.6 20 20.45 20.05 20.25 20.25 C 20.05 20.45 20 20.6 19.75 20.75 C 19.5 20.9 19.15 21.15 19 21 C 18.85 20.85 18.85 20.25 19 20 C 19.15 19.75 19.55 19.95 19.75 19.75 C 19.95 19.55 19.75 19.15 20 19 " fill = "rgb(151, 151, 162)" stroke = "rgb(151, 151, 162)" stroke-width = "0"/>
    <path d="M 22 19 C 22.2 18.8 22.8 18.8 23 19 C 23.2 19.2 23.2 19.8 23 20 C 22.8 20.2 22.2 20.2 22 20 C 21.8 19.8 21.8 19.2 22 19 " fill = "rgb(33, 36, 46)" stroke = "rgb(33, 36, 46)" stroke-width = "0"/>
    <path d="M 23 19 C 23.2 18.8 23.8 18.8 24 19 C 24.2 19.2 24.2 19.8 24 20 C 23.8 20.2 23.2 20.2 23 20 C 22.8 19.8 22.8 19.2 23 19 " fill = "rgb(137, 168, 145)" stroke = "rgb(137, 168, 145)" stroke-width = "0"/>
    <path d="M 3 20 C 3.15 19.85 3.75 19.85 4 20 C 4.25 20.15 4.05 20.55 4.25 20.75 C 4.45 20.95 4.85 20.75 5 21 C 5.15 21.25 5.2 21.8 5 22 C 4.8 22.2 4.25 22.15 4 22 C 3.75 21.85 3.9 21.5 3.75 21.25 C 3.6 21 3.4 21 3.25 20.75 C 3.1 20.5 2.85 20.15 3 20 " fill = "rgb(151, 151, 162)" stroke = "rgb(151, 151, 162)" stroke-width = "0"/>
    <path d="M 7 20 C 7.1 19.9 7.55 20.05 7.75 20.25 C 7.95 20.45 8.1 20.9 8 21 C 7.9 21.1 7.45 20.95 7.25 20.75 C 7.05 20.55 6.9 20.1 7 20 " fill = "rgb(151, 151, 162)" stroke = "rgb(151, 151, 162)" stroke-width = "0"/>
    <path d="M 10.25 20.25 C 10.45 20.05 10.85 19.85 11 20 C 11.15 20.15 11.2 20.8 11 21 C 10.8 21.2 10.15 21.15 10 21 C 9.85 20.85 10.05 20.45 10.25 20.25 " fill = "rgb(128, 126, 134)" stroke = "rgb(128, 126, 134)" stroke-width = "0"/>
    <path d="M 11 20 C 11.2 19.8 11.6 20 12 20 C 12.4 20 12.6 20 13 20 C 13.4 20 13.8 19.8 14 20 C 14.2 20.2 14 20.6 14 21 C 14 21.4 14.2 21.8 14 22 C 13.8 22.2 13.4 22 13 22 C 12.6 22 12.4 22 12 22 C 11.6 22 11.2 22.2 11 22 C 10.8 21.8 11 21.4 11 21 C 11 20.6 10.8 20.2 11 20 " fill = "rgb(251, 170, 186)" stroke = "rgb(251, 170, 186)" stroke-width = "0"/>
    <path d="M 14 20 C 14.15 19.85 14.55 20.05 14.75 20.25 C 14.95 20.45 15.15 20.85 15 21 C 14.85 21.15 14.2 21.2 14 21 C 13.8 20.8 13.85 20.15 14 20 " fill = "rgb(128, 126, 134)" stroke = "rgb(128, 126, 134)" stroke-width = "0"/>
    <path d="M 17.25 20.25 C 17.45 20.05 17.8 19.9 18 20 C 18.2 20.1 18.05 20.55 18.25 20.75 C 18.45 20.95 18.85 20.75 19 21 C 19.15 21.25 19.15 21.85 19 22 C 18.85 22.15 18.5 21.9 18.25 21.75 C 18 21.6 18 21.4 17.75 21.25 C 17.5 21.1 17.1 21.2 17 21 C 16.9 20.8 17.05 20.45 17.25 20.25 " fill = "rgb(195, 196, 207)" stroke = "rgb(195, 196, 207)" stroke-width = "0"/>
    <path d="M 18 20 C 18.15 19.85 18.8 19.8 19 20 C 19.2 20.2 19.15 20.85 19 21 C 18.85 21.15 18.45 20.95 18.25 20.75 C 18.05 20.55 17.85 20.15 18 20 " fill = "rgb(33, 36, 46)" stroke = "rgb(33, 36, 46)" stroke-width = "0"/>
    <path d="M 21.25 20.25 C 21.45 20.05 21.85 19.85 22 20 C 22.15 20.15 22.2 20.8 22 21 C 21.8 21.2 21.15 21.15 21 21 C 20.85 20.85 21.05 20.45 21.25 20.25 " fill = "rgb(195, 196, 207)" stroke = "rgb(195, 196, 207)" stroke-width = "0"/>
    <path d="M 22 20 C 22.2 19.8 22.8 19.8 23 20 C 23.2 20.2 23.2 20.8 23 21 C 22.8 21.2 22.2 21.2 22 21 C 21.8 20.8 21.8 20.2 22 20 " fill = "rgb(99, 101, 112)" stroke = "rgb(99, 101, 112)" stroke-width = "0"/>
    <path d="M 23 20 C 23.2 19.8 23.85 19.85 24 20 C 24.15 20.15 23.95 20.55 23.75 20.75 C 23.55 20.95 23.15 21.15 23 21 C 22.85 20.85 22.8 20.2 23 20 " fill = "rgb(152, 199, 160)" stroke = "rgb(152, 199, 160)" stroke-width = "0"/>
    <path d="M 5 21 C 5.2 20.8 5.65 20.95 6 21 C 6.35 21.05 6.5 21.1 6.75 21.25 C 7 21.4 7 21.6 7.25 21.75 C 7.5 21.9 7.65 21.95 8 22 C 8.35 22.05 8.6 22 9 22 C 9.4 22 9.6 22 10 22 C 10.4 22 10.8 21.8 11 22 C 11.2 22.2 11.2 22.8 11 23 C 10.8 23.2 10.4 23 10 23 C 9.6 23 9.35 22.95 9 23 C 8.65 23.05 8.5 23.1 8.25 23.25 C 8 23.4 8 23.6 7.75 23.75 C 7.5 23.9 7.15 24.15 7 24 C 6.85 23.85 7.05 23.35 7 23 C 6.95 22.65 6.95 22.45 6.75 22.25 C 6.55 22.05 6.35 22.05 6 22 C 5.65 21.95 5.2 22.2 5 22 C 4.8 21.8 4.8 21.2 5 21 " fill = "rgb(240, 248, 242)" stroke = "rgb(240, 248, 242)" stroke-width = "0"/>
    <path d="M 10 21 C 10.2 20.8 10.8 20.8 11 21 C 11.2 21.2 11.2 21.8 11 22 C 10.8 22.2 10.2 22.2 10 22 C 9.8 21.8 9.8 21.2 10 21 " fill = "rgb(210, 64, 86)" stroke = "rgb(210, 64, 86)" stroke-width = "0"/>
    <path d="M 14 21 C 14.2 20.8 14.8 20.8 15 21 C 15.2 21.2 15.2 21.8 15 22 C 14.8 22.2 14.2 22.2 14 22 C 13.8 21.8 13.8 21.2 14 21 " fill = "rgb(238, 90, 109)" stroke = "rgb(238, 90, 109)" stroke-width = "0"/>
    <path d="M 15 21 C 15.2 20.8 15.8 20.8 16 21 C 16.2 21.2 16.2 21.8 16 22 C 15.8 22.2 15.2 22.2 15 22 C 14.8 21.8 14.8 21.2 15 21 " fill = "rgb(79, 20, 40)" stroke = "rgb(79, 20, 40)" stroke-width = "0"/>
    <path d="M 16 21 C 16.2 20.8 16.65 20.95 17 21 C 17.35 21.05 17.5 21.1 17.75 21.25 C 18 21.4 18 21.6 18.25 21.75 C 18.5 21.9 18.65 21.95 19 22 C 19.35 22.05 19.8 21.8 20 22 C 20.2 22.2 20.2 22.8 20 23 C 19.8 23.2 19.35 23.05 19 23 C 18.65 22.95 18.5 22.9 18.25 22.75 C 18 22.6 18 22.4 17.75 22.25 C 17.5 22.1 17.35 22.05 17 22 C 16.65 21.95 16.2 22.2 16 22 C 15.8 21.8 15.8 21.2 16 21 " fill = "rgb(33, 36, 46)" stroke = "rgb(33, 36, 46)" stroke-width = "0"/>
    <path d="M 21 21 C 21.15 20.85 21.85 20.85 22 21 C 22.15 21.15 21.9 21.6 21.75 21.75 C 21.6 21.9 21.4 21.9 21.25 21.75 C 21.1 21.6 20.85 21.15 21 21 " fill = "rgb(33, 36, 46)" stroke = "rgb(33, 36, 46)" stroke-width = "0"/>
    <path d="M 2.25 22.25 C 2.4 22.1 2.65 22.05 3 22 C 3.35 21.95 3.75 21.85 4 22 C 4.25 22.15 4.05 22.55 4.25 22.75 C 4.45 22.95 4.85 22.75 5 23 C 5.15 23.25 5.15 23.85 5 24 C 4.85 24.15 4.5 23.9 4.25 23.75 C 4 23.6 4 23.4 3.75 23.25 C 3.5 23.1 3.3 23.1 3 23 C 2.7 22.9 2.4 22.9 2.25 22.75 C 2.1 22.6 2.1 22.4 2.25 22.25 " fill = "rgb(240, 248, 242)" stroke = "rgb(240, 248, 242)" stroke-width = "0"/>
    <path d="M 4 22 C 4.15 21.85 4.8 21.8 5 22 C 5.2 22.2 5.15 22.85 5 23 C 4.85 23.15 4.45 22.95 4.25 22.75 C 4.05 22.55 3.85 22.15 4 22 " fill = "rgb(137, 168, 145)" stroke = "rgb(137, 168, 145)" stroke-width = "0"/>
    <path d="M 5 22 C 5.2 21.8 5.65 21.95 6 22 C 6.35 22.05 6.55 22.05 6.75 22.25 C 6.95 22.45 7.15 22.85 7 23 C 6.85 23.15 6.4 23 6 23 C 5.6 23 5.2 23.2 5 23 C 4.8 22.8 4.8 22.2 5 22 " fill = "rgb(33, 36, 46)" stroke = "rgb(33, 36, 46)" stroke-width = "0"/>
    <path d="M 11 22 C 11.2 21.8 11.8 21.8 12 22 C 12.2 22.2 12.2 22.8 12 23 C 11.8 23.2 11.2 23.2 11 23 C 10.8 22.8 10.8 22.2 11 22 " fill = "rgb(172, 124, 124)" stroke = "rgb(172, 124, 124)" stroke-width = "0"/>
    <path d="M 12 22 C 12.2 21.8 12.6 22 13 22 C 13.4 22 13.8 21.8 14 22 C 14.2 22.2 14.2 22.8 14 23 C 13.8 23.2 13.4 23 13 23 C 12.6 23 12.2 23.2 12 23 C 11.8 22.8 11.8 22.2 12 22 " fill = "rgb(135, 49, 68)" stroke = "rgb(135, 49, 68)" stroke-width = "0"/>
    <path d="M 14 22 C 14.2 21.8 14.6 22 15 22 C 15.4 22 15.6 22 16 22 C 16.4 22 16.65 21.95 17 22 C 17.35 22.05 17.5 22.1 17.75 22.25 C 18 22.4 18 22.6 18.25 22.75 C 18.5 22.9 18.85 22.75 19 23 C 19.15 23.25 19.15 23.85 19 24 C 18.85 24.15 18.5 23.9 18.25 23.75 C 18 23.6 18 23.4 17.75 23.25 C 17.5 23.1 17.35 23.05 17 23 C 16.65 22.95 16.35 22.95 16 23 C 15.65 23.05 15.5 23.1 15.25 23.25 C 15 23.4 15 23.6 14.75 23.75 C 14.5 23.9 14.15 24.15 14 24 C 13.85 23.85 14 23.4 14 23 C 14 22.6 13.8 22.2 14 22 " fill = "rgb(240, 248, 242)" stroke = "rgb(240, 248, 242)" stroke-width = "0"/>
    <path d="M 20 22 C 20.15 21.85 20.6 22.1 20.75 22.25 C 20.9 22.4 20.9 22.6 20.75 22.75 C 20.6 22.9 20.15 23.15 20 23 C 19.85 22.85 19.85 22.15 20 22 " fill = "rgb(99, 101, 112)" stroke = "rgb(99, 101, 112)" stroke-width = "0"/>
    <path d="M 5 23 C 5.2 22.8 5.8 22.8 6 23 C 6.2 23.2 6.2 23.8 6 24 C 5.8 24.2 5.2 24.2 5 24 C 4.8 23.8 4.8 23.2 5 23 " fill = "rgb(152, 199, 160)" stroke = "rgb(152, 199, 160)" stroke-width = "0"/>
    <path d="M 6 23 C 6.2 22.8 6.8 22.8 7 23 C 7.2 23.2 7.2 23.8 7 24 C 6.8 24.2 6.2 24.2 6 24 C 5.8 23.8 5.8 23.2 6 23 " fill = "rgb(137, 168, 145)" stroke = "rgb(137, 168, 145)" stroke-width = "0"/>
    <path d="M 11 23 C 11.15 22.85 11.8 22.8 12 23 C 12.2 23.2 12.15 23.85 12 24 C 11.85 24.15 11.45 23.95 11.25 23.75 C 11.05 23.55 10.85 23.15 11 23 " fill = "rgb(205, 250, 198)" stroke = "rgb(205, 250, 198)" stroke-width = "0"/>
    <path d="M 12 23 C 12.2 22.8 12.6 23 13 23 C 13.4 23 13.8 22.8 14 23 C 14.2 23.2 14.2 23.8 14 24 C 13.8 24.2 13.4 24 13 24 C 12.6 24 12.2 24.2 12 24 C 11.8 23.8 11.8 23.2 12 23 " fill = "rgb(197, 208, 173)" stroke = "rgb(197, 208, 173)" stroke-width = "0"/>
    <path d="M 19 23 C 19.2 22.8 19.8 22.8 20 23 C 20.2 23.2 20.2 23.8 20 24 C 19.8 24.2 19.2 24.2 19 24 C 18.8 23.8 18.8 23.2 19 23 " fill = "rgb(152, 199, 160)" stroke = "rgb(152, 199, 160)" stroke-width = "0"/>
</svg>
