<svg version="1.1" baseProfile = "full" width = "24" height = "26" xmlns = "http://www.w3.org/2000/svg">
    <path d="M 0 0 C 0.2 -0.2 0.6 -3.49691e-08 1 0 C 1.4 0 1.6 -3.49691e-08 2 0 C 2.4 0 2.6 -3.49691e-08 3 0 C 3.4 0 3.6 -3.49691e-08 4 0 C 4.4 0 4.6 -3.49691e-08 5 0 C 5.4 0 5.6 -3.49691e-08 6 0 C 6.4 0 6.6 -3.49691e-08 7 0 C 7.4 0 7.6 -3.49691e-08 8 0 C 8.4 0 8.6 -3.49691e-08 9 0 C 9.4 0 9.6 -3.49691e-08 10 0 C 10.4 0 10.6 -3.49691e-08 11 0 C 11.4 0 11.6 -3.49691e-08 12 0 C 12.4 0 12.6 -3.49691e-08 13 0 C 13.4 0 13.6 -3.49691e-08 14 0 C 14.4 0 14.6 -3.49691e-08 15 0 C 15.4 0 15.6 -3.49691e-08 16 0 C 16.4 0 16.6 -3.49691e-08 17 0 C 17.4 0 17.6 -3.49691e-08 18 0 C 18.4 0 18.6 -3.49691e-08 19 0 C 19.4 0 19.6 -3.49691e-08 20 0 C 20.4 0 20.6 -3.49691e-08 21 0 C 21.4 0 21.6 -3.49691e-08 22 0 C 22.4 0 22.6 -3.49691e-08 23 0 C 23.4 0 23.8 -0.2 24 0 C 24.2 0.2 24 0.6 24 1 C 24 1.4 24 1.6 24 2 C 24 2.4 24 2.6 24 3 C 24 3.4 24 3.6 24 4 C 24 4.4 24 4.6 24 5 C 24 5.4 24 5.6 24 6 C 24 6.4 24 6.6 24 7 C 24 7.4 24 7.6 24 8 C 24 8.4 24 8.6 24 9 C 24 9.4 24 9.6 24 10 C 24 10.4 24 10.6 24 11 C 24 11.4 24 11.6 24 12 C 24 12.4 24 12.6 24 13 C 24 13.4 24 13.6 24 14 C 24 14.4 24 14.6 24 15 C 24 15.4 24 15.6 24 16 C 24 16.4 24 16.6 24 17 C 24 17.4 24 17.6 24 18 C 24 18.4 24 18.6 24 19 C 24 19.4 24 19.6 24 20 C 24 20.4 24 20.6 24 21 C 24 21.4 24 21.6 24 22 C 24 22.4 24 22.6 24 23 C 24 23.4 24 23.6 24 24 C 24 24.4 24 24.6 24 25 C 24 25.4 24.2 25.8 24 26 C 23.8 26.2 23.4 26 23 26 C 22.6 26 22.4 26 22 26 C 21.6 26 21.4 26 21 26 C 20.6 26 20.4 26 20 26 C 19.6 26 19.4 26 19 26 C 18.6 26 18.4 26 18 26 C 17.6 26 17.4 26 17 26 C 16.6 26 16.4 26 16 26 C 15.6 26 15.4 26 15 26 C 14.6 26 14.4 26 14 26 C 13.6 26 13.4 26 13 26 C 12.6 26 12.4 26 12 26 C 11.6 26 11.4 26 11 26 C 10.6 26 10.4 26 10 26 C 9.6 26 9.4 26 9 26 C 8.6 26 8.4 26 8 26 C 7.6 26 7.4 26 7 26 C 6.6 26 6.4 26 6 26 C 5.6 26 5.4 26 5 26 C 4.6 26 4.4 26 4 26 C 3.6 26 3.4 26 3 26 C 2.6 26 2.4 26 2 26 C 1.6 26 1.4 26 1 26 C 0.6 26 0.2 26.2 0 26 C -0.2 25.8 3.01992e-08 25.4 0 25 C -1.74846e-08 24.6 3.01992e-08 24.4 0 24 C -1.74846e-08 23.6 3.01992e-08 23.4 0 23 C -1.74846e-08 22.6 3.01992e-08 22.4 0 22 C -1.74846e-08 21.6 3.01992e-08 21.4 0 21 C -1.74846e-08 20.6 3.01992e-08 20.4 0 20 C -1.74846e-08 19.6 3.01992e-08 19.4 0 19 C -1.74846e-08 18.6 3.01992e-08 18.4 0 18 C -1.74846e-08 17.6 3.01992e-08 17.4 0 17 C -1.74846e-08 16.6 3.01992e-08 16.4 0 16 C -1.74846e-08 15.6 3.01992e-08 15.4 0 15 C -1.74846e-08 14.6 3.01992e-08 14.4 0 14 C -1.74846e-08 13.6 3.01992e-08 13.4 0 13 C -1.74846e-08 12.6 3.01992e-08 12.4 0 12 C -1.74846e-08 11.6 3.01992e-08 11.4 0 11 C -1.74846e-08 10.6 3.01992e-08 10.4 0 10 C -1.74846e-08 9.6 3.01992e-08 9.4 0 9 C -1.74846e-08 8.6 3.01992e-08 8.4 0 8 C -1.74846e-08 7.6 3.01992e-08 7.4 0 7 C -1.74846e-08 6.6 3.01992e-08 6.4 0 6 C -1.74846e-08 5.6 3.01992e-08 5.4 0 5 C -1.74846e-08 4.6 3.01992e-08 4.4 0 4 C -1.74846e-08 3.6 3.01992e-08 3.4 0 3 C -1.74846e-08 2.6 3.01992e-08 2.4 0 2 C -1.74846e-08 1.6 3.01992e-08 1.4 0 1 C -1.74846e-08 0.6 -0.2 0.2 0 0 " fill = "rgb(255, 255, 255)" stroke = "rgb(255, 255, 255)" stroke-width = "0"/>
    <path d="M 8.25 1.25 C 8.45 1.05 8.65 1.05 9 1 C 9.35 0.95 9.6 1 10 1 C 10.4 1 10.6 1 11 1 C 11.4 1 11.6 1 12 1 C 12.4 1 12.6 1 13 1 C 13.4 1 13.6 1 14 1 C 14.4 1 14.65 0.95 15 1 C 15.35 1.05 15.55 1.05 15.75 1.25 C 15.95 1.45 15.95 1.65 16 2 C 16.05 2.35 16.2 2.8 16 3 C 15.8 3.2 15.35 3.05 15 3 C 14.65 2.95 14.5 2.9 14.25 2.75 C 14 2.6 14 2.4 13.75 2.25 C 13.5 2.1 13.35 2.05 13 2 C 12.65 1.95 12.4 2 12 2 C 11.6 2 11.35 1.95 11 2 C 10.65 2.05 10.5 2.1 10.25 2.25 C 10 2.4 9.95 2.55 9.75 2.75 C 9.55 2.95 9.45 3.05 9.25 3.25 C 9.05 3.45 9 3.6 8.75 3.75 C 8.5 3.9 8.35 3.95 8 4 C 7.65 4.05 7.4 4 7 4 C 6.6 4 6.15 4.15 6 4 C 5.85 3.85 6.05 3.45 6.25 3.25 C 6.45 3.05 6.7 3.1 7 3 C 7.3 2.9 7.55 2.95 7.75 2.75 C 7.95 2.55 7.9 2.3 8 2 C 8.1 1.7 8.05 1.45 8.25 1.25 " fill = "rgb(196, 201, 206)" stroke = "rgb(196, 201, 206)" stroke-width = "0"/>
    <path d="M 10.25 2.25 C 10.5 2.1 10.65 2.05 11 2 C 11.35 1.95 11.6 2 12 2 C 12.4 2 12.65 1.95 13 2 C 13.35 2.05 13.5 2.1 13.75 2.25 C 14 2.4 14 2.6 14.25 2.75 C 14.5 2.9 14.8 2.8 15 3 C 15.2 3.2 15.05 3.55 15.25 3.75 C 15.45 3.95 15.85 3.75 16 4 C 16.15 4.25 16 4.6 16 5 C 16 5.4 16 5.6 16 6 C 16 6.4 16 6.6 16 7 C 16 7.4 16.15 7.75 16 8 C 15.85 8.25 15.45 8.05 15.25 8.25 C 15.05 8.45 15.25 8.85 15 9 C 14.75 9.15 14.25 9.15 14 9 C 13.75 8.85 13.9 8.5 13.75 8.25 C 13.6 8 13.45 7.95 13.25 7.75 C 13.05 7.55 13 7.4 12.75 7.25 C 12.5 7.1 12.15 7.25 12 7 C 11.85 6.75 11.8 6.2 12 6 C 12.2 5.8 12.75 5.85 13 6 C 13.25 6.15 13.05 6.55 13.25 6.75 C 13.45 6.95 13.8 6.8 14 7 C 14.2 7.2 14.1 7.6 14.25 7.75 C 14.4 7.9 14.6 7.9 14.75 7.75 C 14.9 7.6 14.95 7.35 15 7 C 15.05 6.65 15.05 6.35 15 6 C 14.95 5.65 14.95 5.45 14.75 5.25 C 14.55 5.05 14.15 5.25 14 5 C 13.85 4.75 14.05 4.35 14 4 C 13.95 3.65 13.95 3.45 13.75 3.25 C 13.55 3.05 13.35 3.05 13 3 C 12.65 2.95 12.4 3 12 3 C 11.6 3 11.35 2.95 11 3 C 10.65 3.05 10.45 3.05 10.25 3.25 C 10.05 3.45 10.2 3.8 10 4 C 9.8 4.2 9.45 4.05 9.25 4.25 C 9.05 4.45 9.2 4.8 9 5 C 8.8 5.2 8.45 5.05 8.25 5.25 C 8.05 5.45 8.05 5.65 8 6 C 7.95 6.35 8.15 6.75 8 7 C 7.85 7.25 7.45 7.05 7.25 7.25 C 7.05 7.45 7.05 7.65 7 8 C 6.95 8.35 7 8.6 7 9 C 7 9.4 7.15 9.75 7 10 C 6.85 10.25 6.45 10.05 6.25 10.25 C 6.05 10.45 6.25 10.85 6 11 C 5.75 11.15 5.35 10.95 5 11 C 4.65 11.05 4.45 11.05 4.25 11.25 C 4.05 11.45 4.1 11.7 4 12 C 3.9 12.3 3.95 12.55 3.75 12.75 C 3.55 12.95 3.35 12.95 3 13 C 2.65 13.05 2.2 13.2 2 13 C 1.8 12.8 1.85 12.25 2 12 C 2.15 11.75 2.5 11.9 2.75 11.75 C 3 11.6 3.05 11.45 3.25 11.25 C 3.45 11.05 3.6 11 3.75 10.75 C 3.9 10.5 3.8 10.2 4 10 C 4.2 9.8 4.55 9.95 4.75 9.75 C 4.95 9.55 4.8 9.2 5 9 C 5.2 8.8 5.55 8.95 5.75 8.75 C 5.95 8.55 5.95 8.35 6 8 C 6.05 7.65 5.85 7.25 6 7 C 6.15 6.75 6.55 6.95 6.75 6.75 C 6.95 6.55 6.95 6.35 7 6 C 7.05 5.65 7 5.4 7 5 C 7 4.6 6.8 4.2 7 4 C 7.2 3.8 7.65 4.05 8 4 C 8.35 3.95 8.5 3.9 8.75 3.75 C 9 3.6 9.05 3.45 9.25 3.25 C 9.45 3.05 9.55 2.95 9.75 2.75 C 9.95 2.55 10 2.4 10.25 2.25 " fill = "rgb(16, 23, 62)" stroke = "rgb(16, 23, 62)" stroke-width = "0"/>
    <path d="M 10.25 3.25 C 10.45 3.05 10.85 2.85 11 3 C 11.15 3.15 11.2 3.8 11 4 C 10.8 4.2 10.15 4.15 10 4 C 9.85 3.85 10.05 3.45 10.25 3.25 " fill = "rgb(196, 201, 206)" stroke = "rgb(196, 201, 206)" stroke-width = "0"/>
    <path d="M 11 3 C 11.2 2.8 11.6 3 12 3 C 12.4 3 12.8 2.8 13 3 C 13.2 3.2 13.2 3.8 13 4 C 12.8 4.2 12.4 4 12 4 C 11.6 4 11.2 4.2 11 4 C 10.8 3.8 10.8 3.2 11 3 " fill = "rgb(132, 134, 85)" stroke = "rgb(132, 134, 85)" stroke-width = "0"/>
    <path d="M 13 3 C 13.15 2.85 13.55 3.05 13.75 3.25 C 13.95 3.45 14.15 3.85 14 4 C 13.85 4.15 13.2 4.2 13 4 C 12.8 3.8 12.85 3.15 13 3 " fill = "rgb(108, 92, 64)" stroke = "rgb(108, 92, 64)" stroke-width = "0"/>
    <path d="M 15 3 C 15.15 2.85 15.8 2.8 16 3 C 16.2 3.2 16.15 3.85 16 4 C 15.85 4.15 15.45 3.95 15.25 3.75 C 15.05 3.55 14.85 3.15 15 3 " fill = "rgb(109, 126, 147)" stroke = "rgb(109, 126, 147)" stroke-width = "0"/>
    <path d="M 16 3 C 16.15 2.85 16.55 3.05 16.75 3.25 C 16.95 3.45 17.15 3.85 17 4 C 16.85 4.15 16.2 4.2 16 4 C 15.8 3.8 15.85 3.15 16 3 " fill = "rgb(236, 253, 240)" stroke = "rgb(236, 253, 240)" stroke-width = "0"/>
    <path d="M 6 4 C 6.2 3.8 6.8 3.8 7 4 C 7.2 4.2 7 4.6 7 5 C 7 5.4 7.2 5.8 7 6 C 6.8 6.2 6.2 6.2 6 6 C 5.8 5.8 6 5.4 6 5 C 6 4.6 5.8 4.2 6 4 " fill = "rgb(236, 253, 240)" stroke = "rgb(236, 253, 240)" stroke-width = "0"/>
    <path d="M 9.25 4.25 C 9.45 4.05 9.9 3.9 10 4 C 10.1 4.1 9.95 4.55 9.75 4.75 C 9.55 4.95 9.1 5.1 9 5 C 8.9 4.9 9.05 4.45 9.25 4.25 " fill = "rgb(108, 92, 64)" stroke = "rgb(108, 92, 64)" stroke-width = "0"/>
    <path d="M 10 4 C 10.25 3.85 10.75 3.85 11 4 C 11.25 4.15 11.1 4.5 11.25 4.75 C 11.4 5 11.6 5 11.75 5.25 C 11.9 5.5 12.15 5.85 12 6 C 11.85 6.15 11.35 5.95 11 6 C 10.65 6.05 10.45 6.05 10.25 6.25 C 10.05 6.45 10.2 6.9 10 7 C 9.8 7.1 9.5 6.9 9.25 6.75 C 9 6.6 9 6.4 8.75 6.25 C 8.5 6.1 8.1 6.2 8 6 C 7.9 5.8 8.05 5.45 8.25 5.25 C 8.45 5.05 8.7 5.1 9 5 C 9.3 4.9 9.55 4.95 9.75 4.75 C 9.95 4.55 9.75 4.15 10 4 " fill = "rgb(249, 224, 59)" stroke = "rgb(249, 224, 59)" stroke-width = "0"/>
    <path d="M 11 4 C 11.15 3.85 11.6 4 12 4 C 12.4 4 12.75 3.85 13 4 C 13.25 4.15 13.05 4.55 13.25 4.75 C 13.45 4.95 13.8 4.8 14 5 C 14.2 5.2 14.05 5.55 14.25 5.75 C 14.45 5.95 14.85 5.75 15 6 C 15.15 6.25 15.2 6.8 15 7 C 14.8 7.2 14.25 7.15 14 7 C 13.75 6.85 13.95 6.45 13.75 6.25 C 13.55 6.05 13.35 6.05 13 6 C 12.65 5.95 12.25 6.15 12 6 C 11.75 5.85 11.9 5.5 11.75 5.25 C 11.6 5 11.4 5 11.25 4.75 C 11.1 4.5 10.85 4.15 11 4 " fill = "rgb(254, 254, 113)" stroke = "rgb(254, 254, 113)" stroke-width = "0"/>
    <path d="M 13 4 C 13.15 3.85 13.8 3.8 14 4 C 14.2 4.2 14.15 4.85 14 5 C 13.85 5.15 13.45 4.95 13.25 4.75 C 13.05 4.55 12.85 4.15 13 4 " fill = "rgb(203, 197, 45)" stroke = "rgb(203, 197, 45)" stroke-width = "0"/>
    <path d="M 16 4 C 16.2 3.8 16.8 3.8 17 4 C 17.2 4.2 17.2 4.8 17 5 C 16.8 5.2 16.2 5.2 16 5 C 15.8 4.8 15.8 4.2 16 4 " fill = "rgb(133, 171, 165)" stroke = "rgb(133, 171, 165)" stroke-width = "0"/>
    <path d="M 14 5 C 14.1 4.9 14.55 5.05 14.75 5.25 C 14.95 5.45 15.1 5.9 15 6 C 14.9 6.1 14.45 5.95 14.25 5.75 C 14.05 5.55 13.9 5.1 14 5 " fill = "rgb(249, 224, 59)" stroke = "rgb(249, 224, 59)" stroke-width = "0"/>
    <path d="M 16 5 C 16.2 4.8 16.8 4.8 17 5 C 17.2 5.2 17 5.6 17 6 C 17 6.4 17.2 6.8 17 7 C 16.8 7.2 16.2 7.2 16 7 C 15.8 6.8 16 6.4 16 6 C 16 5.6 15.8 5.2 16 5 " fill = "rgb(81, 123, 128)" stroke = "rgb(81, 123, 128)" stroke-width = "0"/>
    <path d="M 5.25 6.25 C 5.45 6.05 5.85 5.85 6 6 C 6.15 6.15 6.2 6.8 6 7 C 5.8 7.2 5.15 7.15 5 7 C 4.85 6.85 5.05 6.45 5.25 6.25 " fill = "rgb(174, 218, 194)" stroke = "rgb(174, 218, 194)" stroke-width = "0"/>
    <path d="M 6 6 C 6.2 5.8 6.85 5.85 7 6 C 7.15 6.15 6.95 6.55 6.75 6.75 C 6.55 6.95 6.15 7.15 6 7 C 5.85 6.85 5.8 6.2 6 6 " fill = "rgb(61, 67, 115)" stroke = "rgb(61, 67, 115)" stroke-width = "0"/>
    <path d="M 8 6 C 8.15 5.85 8.5 6.1 8.75 6.25 C 9 6.4 9 6.6 9.25 6.75 C 9.5 6.9 9.85 6.75 10 7 C 10.15 7.25 10.2 7.8 10 8 C 9.8 8.2 9.25 8.15 9 8 C 8.75 7.85 8.95 7.45 8.75 7.25 C 8.55 7.05 8.15 7.25 8 7 C 7.85 6.75 7.85 6.15 8 6 " fill = "rgb(211, 206, 100)" stroke = "rgb(211, 206, 100)" stroke-width = "0"/>
    <path d="M 10.25 6.25 C 10.45 6.05 10.9 5.9 11 6 C 11.1 6.1 10.95 6.55 10.75 6.75 C 10.55 6.95 10.1 7.1 10 7 C 9.9 6.9 10.05 6.45 10.25 6.25 " fill = "rgb(203, 197, 45)" stroke = "rgb(203, 197, 45)" stroke-width = "0"/>
    <path d="M 11 6 C 11.25 5.85 11.8 5.8 12 6 C 12.2 6.2 12.15 6.75 12 7 C 11.85 7.25 11.45 7.05 11.25 7.25 C 11.05 7.45 11.25 7.85 11 8 C 10.75 8.15 10.2 8.2 10 8 C 9.8 7.8 9.85 7.25 10 7 C 10.15 6.75 10.55 6.95 10.75 6.75 C 10.95 6.55 10.75 6.15 11 6 " fill = "rgb(108, 92, 64)" stroke = "rgb(108, 92, 64)" stroke-width = "0"/>
    <path d="M 13 6 C 13.1 5.9 13.55 6.05 13.75 6.25 C 13.95 6.45 14.1 6.9 14 7 C 13.9 7.1 13.45 6.95 13.25 6.75 C 13.05 6.55 12.9 6.1 13 6 " fill = "rgb(108, 92, 64)" stroke = "rgb(108, 92, 64)" stroke-width = "0"/>
    <path d="M 5 7 C 5.2 6.8 5.8 6.8 6 7 C 6.2 7.2 6.2 7.8 6 8 C 5.8 8.2 5.2 8.2 5 8 C 4.8 7.8 4.8 7.2 5 7 " fill = "rgb(109, 126, 147)" stroke = "rgb(109, 126, 147)" stroke-width = "0"/>
    <path d="M 7.25 7.25 C 7.45 7.05 7.85 6.85 8 7 C 8.15 7.15 8.2 7.8 8 8 C 7.8 8.2 7.15 8.15 7 8 C 6.85 7.85 7.05 7.45 7.25 7.25 " fill = "rgb(108, 92, 64)" stroke = "rgb(108, 92, 64)" stroke-width = "0"/>
    <path d="M 8 7 C 8.15 6.85 8.55 7.05 8.75 7.25 C 8.95 7.45 8.95 7.65 9 8 C 9.05 8.35 9 8.6 9 9 C 9 9.4 9 9.6 9 10 C 9 10.4 9.15 10.85 9 11 C 8.85 11.15 8.45 10.95 8.25 10.75 C 8.05 10.55 8.05 10.35 8 10 C 7.95 9.65 8 9.4 8 9 C 8 8.6 8 8.4 8 8 C 8 7.6 7.85 7.15 8 7 " fill = "rgb(254, 254, 113)" stroke = "rgb(254, 254, 113)" stroke-width = "0"/>
    <path d="M 11.25 7.25 C 11.45 7.05 11.8 6.9 12 7 C 12.2 7.1 12.1 7.5 12.25 7.75 C 12.4 8 12.6 8 12.75 8.25 C 12.9 8.5 13.1 8.9 13 9 C 12.9 9.1 12.5 8.9 12.25 8.75 C 12 8.6 12 8.4 11.75 8.25 C 11.5 8.1 11.1 8.2 11 8 C 10.9 7.8 11.05 7.45 11.25 7.25 " fill = "rgb(169, 169, 192)" stroke = "rgb(169, 169, 192)" stroke-width = "0"/>
    <path d="M 12 7 C 12.1 6.9 12.5 7.1 12.75 7.25 C 13 7.4 13.05 7.55 13.25 7.75 C 13.45 7.95 13.6 8 13.75 8.25 C 13.9 8.5 14.15 8.85 14 9 C 13.85 9.15 13.25 9.15 13 9 C 12.75 8.85 12.9 8.5 12.75 8.25 C 12.6 8 12.4 8 12.25 7.75 C 12.1 7.5 11.9 7.1 12 7 " fill = "rgb(61, 67, 115)" stroke = "rgb(61, 67, 115)" stroke-width = "0"/>
    <path d="M 14 7 C 14.15 6.85 14.85 6.85 15 7 C 15.15 7.15 14.9 7.6 14.75 7.75 C 14.6 7.9 14.4 7.9 14.25 7.75 C 14.1 7.6 13.85 7.15 14 7 " fill = "rgb(132, 134, 85)" stroke = "rgb(132, 134, 85)" stroke-width = "0"/>
    <path d="M 16 7 C 16.2 6.8 16.8 6.8 17 7 C 17.2 7.2 17.2 7.8 17 8 C 16.8 8.2 16.2 8.2 16 8 C 15.8 7.8 15.8 7.2 16 7 " fill = "rgb(133, 171, 165)" stroke = "rgb(133, 171, 165)" stroke-width = "0"/>
    <path d="M 3.25 8.25 C 3.45 8.05 3.65 8.05 4 8 C 4.35 7.95 4.8 7.8 5 8 C 5.2 8.2 5.15 8.75 5 9 C 4.85 9.25 4.45 9.05 4.25 9.25 C 4.05 9.45 4.25 9.85 4 10 C 3.75 10.15 3.2 10.2 3 10 C 2.8 9.8 2.95 9.35 3 9 C 3.05 8.65 3.05 8.45 3.25 8.25 " fill = "rgb(196, 201, 206)" stroke = "rgb(196, 201, 206)" stroke-width = "0"/>
    <path d="M 5 8 C 5.2 7.8 5.85 7.85 6 8 C 6.15 8.15 5.95 8.55 5.75 8.75 C 5.55 8.95 5.15 9.15 5 9 C 4.85 8.85 4.8 8.2 5 8 " fill = "rgb(61, 67, 115)" stroke = "rgb(61, 67, 115)" stroke-width = "0"/>
    <path d="M 7 8 C 7.2 7.8 7.8 7.8 8 8 C 8.2 8.2 8 8.6 8 9 C 8 9.4 7.95 9.65 8 10 C 8.05 10.35 8.05 10.55 8.25 10.75 C 8.45 10.95 8.65 10.95 9 11 C 9.35 11.05 9.75 10.85 10 11 C 10.25 11.15 10.05 11.55 10.25 11.75 C 10.45 11.95 10.85 11.75 11 12 C 11.15 12.25 11 12.6 11 13 C 11 13.4 11.05 13.65 11 14 C 10.95 14.35 10.95 14.55 10.75 14.75 C 10.55 14.95 10.15 15.15 10 15 C 9.85 14.85 10.05 14.35 10 14 C 9.95 13.65 9.95 13.45 9.75 13.25 C 9.55 13.05 9.2 13.2 9 13 C 8.8 12.8 8.95 12.45 8.75 12.25 C 8.55 12.05 8.2 12.2 8 12 C 7.8 11.8 7.95 11.45 7.75 11.25 C 7.55 11.05 7.15 11.25 7 11 C 6.85 10.75 7 10.4 7 10 C 7 9.6 7 9.4 7 9 C 7 8.6 6.8 8.2 7 8 " fill = "rgb(249, 224, 59)" stroke = "rgb(249, 224, 59)" stroke-width = "0"/>
    <path d="M 9 8 C 9.2 7.8 9.8 7.8 10 8 C 10.2 8.2 10 8.6 10 9 C 10 9.4 10.2 9.8 10 10 C 9.8 10.2 9.2 10.2 9 10 C 8.8 9.8 9 9.4 9 9 C 9 8.6 8.8 8.2 9 8 " fill = "rgb(132, 134, 85)" stroke = "rgb(132, 134, 85)" stroke-width = "0"/>
    <path d="M 10 8 C 10.2 7.8 10.8 7.8 11 8 C 11.2 8.2 10.95 8.65 11 9 C 11.05 9.35 11.05 9.55 11.25 9.75 C 11.45 9.95 11.85 9.75 12 10 C 12.15 10.25 11.95 10.65 12 11 C 12.05 11.35 12.05 11.55 12.25 11.75 C 12.45 11.95 12.8 11.8 13 12 C 13.2 12.2 13.1 12.6 13.25 12.75 C 13.4 12.9 13.6 12.9 13.75 12.75 C 13.9 12.6 13.95 12.35 14 12 C 14.05 11.65 13.8 11.2 14 11 C 14.2 10.8 14.6 11 15 11 C 15.4 11 15.8 10.8 16 11 C 16.2 11.2 16.15 11.75 16 12 C 15.85 12.25 15.5 12.1 15.25 12.25 C 15 12.4 14.95 12.55 14.75 12.75 C 14.55 12.95 14.4 13 14.25 13.25 C 14.1 13.5 14.25 13.85 14 14 C 13.75 14.15 13.4 14 13 14 C 12.6 14 12.25 14.15 12 14 C 11.75 13.85 11.95 13.45 11.75 13.25 C 11.55 13.05 11.15 13.25 11 13 C 10.85 12.75 11 12.4 11 12 C 11 11.6 11.05 11.35 11 11 C 10.95 10.65 10.95 10.45 10.75 10.25 C 10.55 10.05 10.15 10.25 10 10 C 9.85 9.75 10 9.4 10 9 C 10 8.6 9.8 8.2 10 8 " fill = "rgb(16, 23, 62)" stroke = "rgb(16, 23, 62)" stroke-width = "0"/>
    <path d="M 11 8 C 11.15 7.85 11.5 8.1 11.75 8.25 C 12 8.4 12 8.6 12.25 8.75 C 12.5 8.9 12.65 8.95 13 9 C 13.35 9.05 13.6 9 14 9 C 14.4 9 14.8 8.8 15 9 C 15.2 9.2 15.15 9.75 15 10 C 14.85 10.25 14.45 10.05 14.25 10.25 C 14.05 10.45 14.25 10.85 14 11 C 13.75 11.15 13.4 11 13 11 C 12.6 11 12.2 11.2 12 11 C 11.8 10.8 12.05 10.35 12 10 C 11.95 9.65 11.95 9.45 11.75 9.25 C 11.55 9.05 11.15 9.25 11 9 C 10.85 8.75 10.85 8.15 11 8 " fill = "rgb(196, 201, 206)" stroke = "rgb(196, 201, 206)" stroke-width = "0"/>
    <path d="M 15.25 8.25 C 15.45 8.05 15.85 7.85 16 8 C 16.15 8.15 16.2 8.8 16 9 C 15.8 9.2 15.15 9.15 15 9 C 14.85 8.85 15.05 8.45 15.25 8.25 " fill = "rgb(61, 67, 115)" stroke = "rgb(61, 67, 115)" stroke-width = "0"/>
    <path d="M 16 8 C 16.2 7.8 16.85 7.85 17 8 C 17.15 8.15 16.95 8.55 16.75 8.75 C 16.55 8.95 16.15 9.15 16 9 C 15.85 8.85 15.8 8.2 16 8 " fill = "rgb(236, 253, 240)" stroke = "rgb(236, 253, 240)" stroke-width = "0"/>
    <path d="M 4.25 9.25 C 4.45 9.05 4.9 8.9 5 9 C 5.1 9.1 4.95 9.55 4.75 9.75 C 4.55 9.95 4.1 10.1 4 10 C 3.9 9.9 4.05 9.45 4.25 9.25 " fill = "rgb(95, 90, 132)" stroke = "rgb(95, 90, 132)" stroke-width = "0"/>
    <path d="M 11 9 C 11.1 8.9 11.55 9.05 11.75 9.25 C 11.95 9.45 12.1 9.9 12 10 C 11.9 10.1 11.45 9.95 11.25 9.75 C 11.05 9.55 10.9 9.1 11 9 " fill = "rgb(61, 67, 115)" stroke = "rgb(61, 67, 115)" stroke-width = "0"/>
    <path d="M 2.25 10.25 C 2.5 10.1 2.9 9.9 3 10 C 3.1 10.1 2.9 10.5 2.75 10.75 C 2.6 11 2.4 11 2.25 11.25 C 2.1 11.5 2.25 11.85 2 12 C 1.75 12.15 1.15 12.15 1 12 C 0.85 11.85 1.1 11.5 1.25 11.25 C 1.4 11 1.55 10.95 1.75 10.75 C 1.95 10.55 2 10.4 2.25 10.25 " fill = "rgb(236, 253, 240)" stroke = "rgb(236, 253, 240)" stroke-width = "0"/>
    <path d="M 3 10 C 3.25 9.85 3.85 9.85 4 10 C 4.15 10.15 3.9 10.5 3.75 10.75 C 3.6 11 3.45 11.05 3.25 11.25 C 3.05 11.45 3 11.6 2.75 11.75 C 2.5 11.9 2.1 12.1 2 12 C 1.9 11.9 2.1 11.5 2.25 11.25 C 2.4 11 2.6 11 2.75 10.75 C 2.9 10.5 2.75 10.15 3 10 " fill = "rgb(109, 126, 147)" stroke = "rgb(109, 126, 147)" stroke-width = "0"/>
    <path d="M 6.25 10.25 C 6.45 10.05 6.85 9.85 7 10 C 7.15 10.15 7.2 10.8 7 11 C 6.8 11.2 6.15 11.15 6 11 C 5.85 10.85 6.05 10.45 6.25 10.25 " fill = "rgb(47, 117, 12)" stroke = "rgb(47, 117, 12)" stroke-width = "0"/>
    <path d="M 9 10 C 9.2 9.8 9.8 9.8 10 10 C 10.2 10.2 10.2 10.8 10 11 C 9.8 11.2 9.2 11.2 9 11 C 8.8 10.8 8.8 10.2 9 10 " fill = "rgb(211, 206, 100)" stroke = "rgb(211, 206, 100)" stroke-width = "0"/>
    <path d="M 10 10 C 10.15 9.85 10.55 10.05 10.75 10.25 C 10.95 10.45 11.15 10.85 11 11 C 10.85 11.15 10.2 11.2 10 11 C 9.8 10.8 9.85 10.15 10 10 " fill = "rgb(108, 92, 64)" stroke = "rgb(108, 92, 64)" stroke-width = "0"/>
    <path d="M 14.25 10.25 C 14.45 10.05 14.85 9.85 15 10 C 15.15 10.15 15.2 10.8 15 11 C 14.8 11.2 14.15 11.15 14 11 C 13.85 10.85 14.05 10.45 14.25 10.25 " fill = "rgb(109, 126, 147)" stroke = "rgb(109, 126, 147)" stroke-width = "0"/>
    <path d="M 15 10 C 15.2 9.8 15.6 10 16 10 C 16.4 10 16.6 10 17 10 C 17.4 10 17.8 9.8 18 10 C 18.2 10.2 18.2 10.8 18 11 C 17.8 11.2 17.4 11 17 11 C 16.6 11 16.4 11 16 11 C 15.6 11 15.2 11.2 15 11 C 14.8 10.8 14.8 10.2 15 10 " fill = "rgb(81, 123, 128)" stroke = "rgb(81, 123, 128)" stroke-width = "0"/>
    <path d="M 18 10 C 18.2 9.8 18.8 9.8 19 10 C 19.2 10.2 19.2 10.8 19 11 C 18.8 11.2 18.2 11.2 18 11 C 17.8 10.8 17.8 10.2 18 10 " fill = "rgb(133, 171, 165)" stroke = "rgb(133, 171, 165)" stroke-width = "0"/>
    <path d="M 19 10 C 19.15 9.85 19.5 10.1 19.75 10.25 C 20 10.4 20.05 10.55 20.25 10.75 C 20.45 10.95 20.6 11 20.75 11.25 C 20.9 11.5 21.1 11.9 21 12 C 20.9 12.1 20.5 11.9 20.25 11.75 C 20 11.6 20 11.4 19.75 11.25 C 19.5 11.1 19.15 11.25 19 11 C 18.85 10.75 18.85 10.15 19 10 " fill = "rgb(236, 253, 240)" stroke = "rgb(236, 253, 240)" stroke-width = "0"/>
    <path d="M 4.25 11.25 C 4.45 11.05 4.85 10.85 5 11 C 5.15 11.15 5.2 11.8 5 12 C 4.8 12.2 4.15 12.15 4 12 C 3.85 11.85 4.05 11.45 4.25 11.25 " fill = "rgb(108, 92, 64)" stroke = "rgb(108, 92, 64)" stroke-width = "0"/>
    <path d="M 5 11 C 5.2 10.8 5.8 10.8 6 11 C 6.2 11.2 6.2 11.8 6 12 C 5.8 12.2 5.2 12.2 5 12 C 4.8 11.8 4.8 11.2 5 11 " fill = "rgb(115, 152, 22)" stroke = "rgb(115, 152, 22)" stroke-width = "0"/>
    <path d="M 6 11 C 6.2 10.8 6.8 10.8 7 11 C 7.2 11.2 7.2 11.8 7 12 C 6.8 12.2 6.2 12.2 6 12 C 5.8 11.8 5.8 11.2 6 11 " fill = "rgb(98, 188, 8)" stroke = "rgb(98, 188, 8)" stroke-width = "0"/>
    <path d="M 7 11 C 7.15 10.85 7.55 11.05 7.75 11.25 C 7.95 11.45 8.15 11.85 8 12 C 7.85 12.15 7.2 12.2 7 12 C 6.8 11.8 6.85 11.15 7 11 " fill = "rgb(115, 152, 22)" stroke = "rgb(115, 152, 22)" stroke-width = "0"/>
    <path d="M 10 11 C 10.15 10.85 10.8 10.8 11 11 C 11.2 11.2 11.15 11.85 11 12 C 10.85 12.15 10.45 11.95 10.25 11.75 C 10.05 11.55 9.85 11.15 10 11 " fill = "rgb(203, 197, 45)" stroke = "rgb(203, 197, 45)" stroke-width = "0"/>
    <path d="M 12 11 C 12.15 10.85 12.8 10.8 13 11 C 13.2 11.2 13.15 11.85 13 12 C 12.85 12.15 12.45 11.95 12.25 11.75 C 12.05 11.55 11.85 11.15 12 11 " fill = "rgb(109, 126, 147)" stroke = "rgb(109, 126, 147)" stroke-width = "0"/>
    <path d="M 13 11 C 13.2 10.8 13.8 10.8 14 11 C 14.2 11.2 14.2 11.8 14 12 C 13.8 12.2 13.2 12.2 13 12 C 12.8 11.8 12.8 11.2 13 11 " fill = "rgb(169, 169, 192)" stroke = "rgb(169, 169, 192)" stroke-width = "0"/>
    <path d="M 16 11 C 16.2 10.8 16.8 10.8 17 11 C 17.2 11.2 17.2 11.8 17 12 C 16.8 12.2 16.2 12.2 16 12 C 15.8 11.8 15.8 11.2 16 11 " fill = "rgb(47, 117, 12)" stroke = "rgb(47, 117, 12)" stroke-width = "0"/>
    <path d="M 17 11 C 17.2 10.8 17.6 11 18 11 C 18.4 11 18.75 10.85 19 11 C 19.25 11.15 19.1 11.5 19.25 11.75 C 19.4 12 19.55 12.05 19.75 12.25 C 19.95 12.45 20 12.6 20.25 12.75 C 20.5 12.9 20.8 12.8 21 13 C 21.2 13.2 21.05 13.55 21.25 13.75 C 21.45 13.95 21.85 13.75 22 14 C 22.15 14.25 22 14.6 22 15 C 22 15.4 22 15.6 22 16 C 22 16.4 22 16.6 22 17 C 22 17.4 22.2 17.8 22 18 C 21.8 18.2 21.4 18 21 18 C 20.6 18 20.35 17.95 20 18 C 19.65 18.05 19.45 18.05 19.25 18.25 C 19.05 18.45 19.25 18.85 19 19 C 18.75 19.15 18.2 19.2 18 19 C 17.8 18.8 18 18.4 18 18 C 18 17.6 17.8 17.2 18 17 C 18.2 16.8 18.6 17 19 17 C 19.4 17 19.65 17.05 20 17 C 20.35 16.95 20.55 16.95 20.75 16.75 C 20.95 16.55 20.95 16.35 21 16 C 21.05 15.65 21.05 15.35 21 15 C 20.95 14.65 20.95 14.45 20.75 14.25 C 20.55 14.05 20.35 14.05 20 14 C 19.65 13.95 19.25 14.15 19 14 C 18.75 13.85 18.95 13.45 18.75 13.25 C 18.55 13.05 18.2 13.2 18 13 C 17.8 12.8 17.95 12.45 17.75 12.25 C 17.55 12.05 17.15 12.25 17 12 C 16.85 11.75 16.8 11.2 17 11 " fill = "rgb(16, 23, 62)" stroke = "rgb(16, 23, 62)" stroke-width = "0"/>
    <path d="M 19 11 C 19.1 10.9 19.5 11.1 19.75 11.25 C 20 11.4 20 11.6 20.25 11.75 C 20.5 11.9 20.85 11.75 21 12 C 21.15 12.25 21.15 12.85 21 13 C 20.85 13.15 20.5 12.9 20.25 12.75 C 20 12.6 19.95 12.45 19.75 12.25 C 19.55 12.05 19.4 12 19.25 11.75 C 19.1 11.5 18.9 11.1 19 11 " fill = "rgb(109, 126, 147)" stroke = "rgb(109, 126, 147)" stroke-width = "0"/>
    <path d="M 1 12 C 1.2 11.8 1.8 11.8 2 12 C 2.2 12.2 2.2 12.8 2 13 C 1.8 13.2 1.2 13.2 1 13 C 0.8 12.8 0.8 12.2 1 12 " fill = "rgb(81, 123, 128)" stroke = "rgb(81, 123, 128)" stroke-width = "0"/>
    <path d="M 4 12 C 4.25 11.85 4.85 11.85 5 12 C 5.15 12.15 4.9 12.5 4.75 12.75 C 4.6 13 4.4 13 4.25 13.25 C 4.1 13.5 4.2 13.9 4 14 C 3.8 14.1 3.45 13.95 3.25 13.75 C 3.05 13.55 2.9 13.2 3 13 C 3.1 12.8 3.55 12.95 3.75 12.75 C 3.95 12.55 3.75 12.15 4 12 " fill = "rgb(254, 254, 113)" stroke = "rgb(254, 254, 113)" stroke-width = "0"/>
    <path d="M 5 12 C 5.25 11.85 5.75 11.85 6 12 C 6.25 12.15 6.1 12.5 6.25 12.75 C 6.4 13 6.55 13.05 6.75 13.25 C 6.95 13.45 7 13.6 7.25 13.75 C 7.5 13.9 7.85 13.75 8 14 C 8.15 14.25 8.2 14.8 8 15 C 7.8 15.2 7.25 15.15 7 15 C 6.75 14.85 6.9 14.4 6.75 14.25 C 6.6 14.1 6.45 14.15 6.25 14.25 C 6.05 14.35 6 14.6 5.75 14.75 C 5.5 14.9 5.35 14.95 5 15 C 4.65 15.05 4.2 15.2 4 15 C 3.8 14.8 3.95 14.35 4 14 C 4.05 13.65 4.1 13.5 4.25 13.25 C 4.4 13 4.6 13 4.75 12.75 C 4.9 12.5 4.75 12.15 5 12 " fill = "rgb(249, 224, 59)" stroke = "rgb(249, 224, 59)" stroke-width = "0"/>
    <path d="M 6 12 C 6.15 11.85 6.75 11.85 7 12 C 7.25 12.15 7.1 12.6 7.25 12.75 C 7.4 12.9 7.6 12.9 7.75 12.75 C 7.9 12.6 7.8 12.1 8 12 C 8.2 11.9 8.55 12.05 8.75 12.25 C 8.95 12.45 9.1 12.8 9 13 C 8.9 13.2 8.45 13.05 8.25 13.25 C 8.05 13.45 8.2 13.9 8 14 C 7.8 14.1 7.5 13.9 7.25 13.75 C 7 13.6 6.95 13.45 6.75 13.25 C 6.55 13.05 6.4 13 6.25 12.75 C 6.1 12.5 5.85 12.15 6 12 " fill = "rgb(203, 197, 45)" stroke = "rgb(203, 197, 45)" stroke-width = "0"/>
    <path d="M 7 12 C 7.15 11.85 7.85 11.85 8 12 C 8.15 12.15 7.9 12.6 7.75 12.75 C 7.6 12.9 7.4 12.9 7.25 12.75 C 7.1 12.6 6.85 12.15 7 12 " fill = "rgb(16, 23, 62)" stroke = "rgb(16, 23, 62)" stroke-width = "0"/>
    <path d="M 13 12 C 13.15 11.85 13.85 11.85 14 12 C 14.15 12.15 13.9 12.6 13.75 12.75 C 13.6 12.9 13.4 12.9 13.25 12.75 C 13.1 12.6 12.85 12.15 13 12 " fill = "rgb(40, 35, 99)" stroke = "rgb(40, 35, 99)" stroke-width = "0"/>
    <path d="M 15.25 12.25 C 15.5 12.1 15.65 12.05 16 12 C 16.35 11.95 16.8 11.8 17 12 C 17.2 12.2 17.2 12.8 17 13 C 16.8 13.2 16.35 12.95 16 13 C 15.65 13.05 15.45 13.05 15.25 13.25 C 15.05 13.45 15.25 13.85 15 14 C 14.75 14.15 14.15 14.15 14 14 C 13.85 13.85 14.1 13.5 14.25 13.25 C 14.4 13 14.55 12.95 14.75 12.75 C 14.95 12.55 15 12.4 15.25 12.25 " fill = "rgb(144, 218, 25)" stroke = "rgb(144, 218, 25)" stroke-width = "0"/>
    <path d="M 17 12 C 17.15 11.85 17.55 12.05 17.75 12.25 C 17.95 12.45 18.15 12.85 18 13 C 17.85 13.15 17.2 13.2 17 13 C 16.8 12.8 16.85 12.15 17 12 " fill = "rgb(203, 197, 45)" stroke = "rgb(203, 197, 45)" stroke-width = "0"/>
    <path d="M 21 12 C 21.2 11.8 21.65 11.95 22 12 C 22.35 12.05 22.55 12.05 22.75 12.25 C 22.95 12.45 23.15 12.85 23 13 C 22.85 13.15 22.4 13 22 13 C 21.6 13 21.2 13.2 21 13 C 20.8 12.8 20.8 12.2 21 12 " fill = "rgb(196, 201, 206)" stroke = "rgb(196, 201, 206)" stroke-width = "0"/>
    <path d="M 1 13 C 1.2 12.8 1.8 12.8 2 13 C 2.2 13.2 2.2 13.8 2 14 C 1.8 14.2 1.2 14.2 1 14 C 0.8 13.8 0.8 13.2 1 13 " fill = "rgb(35, 83, 98)" stroke = "rgb(35, 83, 98)" stroke-width = "0"/>
    <path d="M 2 13 C 2.2 12.8 2.75 12.85 3 13 C 3.25 13.15 3.05 13.55 3.25 13.75 C 3.45 13.95 3.85 13.75 4 14 C 4.15 14.25 4.15 14.85 4 15 C 3.85 15.15 3.5 14.9 3.25 14.75 C 3 14.6 3 14.4 2.75 14.25 C 2.5 14.1 2.15 14.25 2 14 C 1.85 13.75 1.8 13.2 2 13 " fill = "rgb(132, 134, 85)" stroke = "rgb(132, 134, 85)" stroke-width = "0"/>
    <path d="M 8.25 13.25 C 8.45 13.05 8.85 12.85 9 13 C 9.15 13.15 9 13.6 9 14 C 9 14.4 9 14.6 9 15 C 9 15.4 9.2 15.8 9 16 C 8.8 16.2 8.2 16.2 8 16 C 7.8 15.8 8 15.4 8 15 C 8 14.6 7.95 14.35 8 14 C 8.05 13.65 8.05 13.45 8.25 13.25 " fill = "rgb(47, 117, 12)" stroke = "rgb(47, 117, 12)" stroke-width = "0"/>
    <path d="M 9 13 C 9.15 12.85 9.55 13.05 9.75 13.25 C 9.95 13.45 9.95 13.65 10 14 C 10.05 14.35 10 14.6 10 15 C 10 15.4 10.2 15.8 10 16 C 9.8 16.2 9.2 16.2 9 16 C 8.8 15.8 9 15.4 9 15 C 9 14.6 9 14.4 9 14 C 9 13.6 8.85 13.15 9 13 " fill = "rgb(115, 152, 22)" stroke = "rgb(115, 152, 22)" stroke-width = "0"/>
    <path d="M 11 13 C 11.15 12.85 11.55 13.05 11.75 13.25 C 11.95 13.45 11.95 13.65 12 14 C 12.05 14.35 12.15 14.75 12 15 C 11.85 15.25 11.45 15.05 11.25 15.25 C 11.05 15.45 11.25 15.85 11 16 C 10.75 16.15 10.2 16.2 10 16 C 9.8 15.8 9.85 15.25 10 15 C 10.15 14.75 10.55 14.95 10.75 14.75 C 10.95 14.55 10.95 14.35 11 14 C 11.05 13.65 10.85 13.15 11 13 " fill = "rgb(203, 197, 45)" stroke = "rgb(203, 197, 45)" stroke-width = "0"/>
    <path d="M 15.25 13.25 C 15.45 13.05 15.85 12.85 16 13 C 16.15 13.15 16.2 13.8 16 14 C 15.8 14.2 15.15 14.15 15 14 C 14.85 13.85 15.05 13.45 15.25 13.25 " fill = "rgb(203, 197, 45)" stroke = "rgb(203, 197, 45)" stroke-width = "0"/>
    <path d="M 16 13 C 16.2 12.8 16.6 13 17 13 C 17.4 13 17.75 12.85 18 13 C 18.25 13.15 18.05 13.55 18.25 13.75 C 18.45 13.95 18.8 13.8 19 14 C 19.2 14.2 19.05 14.55 19.25 14.75 C 19.45 14.95 19.85 14.75 20 15 C 20.15 15.25 20.2 15.8 20 16 C 19.8 16.2 19.35 15.95 19 16 C 18.65 16.05 18.45 16.05 18.25 16.25 C 18.05 16.45 18.25 16.85 18 17 C 17.75 17.15 17.4 17 17 17 C 16.6 17 16.2 17.2 16 17 C 15.8 16.8 15.85 16.25 16 16 C 16.15 15.75 16.55 15.95 16.75 15.75 C 16.95 15.55 17 15.3 17 15 C 17 14.7 16.95 14.45 16.75 14.25 C 16.55 14.05 16.15 14.25 16 14 C 15.85 13.75 15.8 13.2 16 13 " fill = "rgb(249, 224, 59)" stroke = "rgb(249, 224, 59)" stroke-width = "0"/>
    <path d="M 18 13 C 18.1 12.9 18.55 13.05 18.75 13.25 C 18.95 13.45 19.1 13.9 19 14 C 18.9 14.1 18.45 13.95 18.25 13.75 C 18.05 13.55 17.9 13.1 18 13 " fill = "rgb(254, 254, 113)" stroke = "rgb(254, 254, 113)" stroke-width = "0"/>
    <path d="M 21 13 C 21.15 12.85 21.8 12.8 22 13 C 22.2 13.2 22.15 13.85 22 14 C 21.85 14.15 21.45 13.95 21.25 13.75 C 21.05 13.55 20.85 13.15 21 13 " fill = "rgb(61, 67, 115)" stroke = "rgb(61, 67, 115)" stroke-width = "0"/>
    <path d="M 22 13 C 22.2 12.8 22.8 12.8 23 13 C 23.2 13.2 23 13.6 23 14 C 23 14.4 23 14.6 23 15 C 23 15.4 23 15.6 23 16 C 23 16.4 23 16.6 23 17 C 23 17.4 23.05 17.65 23 18 C 22.95 18.35 22.95 18.55 22.75 18.75 C 22.55 18.95 22.15 19.15 22 19 C 21.85 18.85 22 18.4 22 18 C 22 17.6 22 17.4 22 17 C 22 16.6 22 16.4 22 16 C 22 15.6 22 15.4 22 15 C 22 14.6 22 14.4 22 14 C 22 13.6 21.8 13.2 22 13 " fill = "rgb(236, 253, 240)" stroke = "rgb(236, 253, 240)" stroke-width = "0"/>
    <path d="M 1 14 C 1.2 13.8 1.8 13.8 2 14 C 2.2 14.2 2.2 14.8 2 15 C 1.8 15.2 1.2 15.2 1 15 C 0.8 14.8 0.8 14.2 1 14 " fill = "rgb(81, 123, 128)" stroke = "rgb(81, 123, 128)" stroke-width = "0"/>
    <path d="M 2 14 C 2.15 13.85 2.5 14.1 2.75 14.25 C 3 14.4 3 14.6 3.25 14.75 C 3.5 14.9 3.8 14.8 4 15 C 4.2 15.2 4.05 15.55 4.25 15.75 C 4.45 15.95 4.8 15.8 5 16 C 5.2 16.2 5.05 16.55 5.25 16.75 C 5.45 16.95 5.65 16.95 6 17 C 6.35 17.05 6.65 17.05 7 17 C 7.35 16.95 7.55 16.95 7.75 16.75 C 7.95 16.55 7.75 16.15 8 16 C 8.25 15.85 8.8 15.8 9 16 C 9.2 16.2 9.15 16.75 9 17 C 8.85 17.25 8.45 17.05 8.25 17.25 C 8.05 17.45 8.05 17.65 8 18 C 7.95 18.35 8.15 18.85 8 19 C 7.85 19.15 7.5 18.9 7.25 18.75 C 7 18.6 7 18.4 6.75 18.25 C 6.5 18.1 6.35 18.05 6 18 C 5.65 17.95 5.25 18.15 5 18 C 4.75 17.85 4.95 17.45 4.75 17.25 C 4.55 17.05 4.2 17.2 4 17 C 3.8 16.8 3.95 16.45 3.75 16.25 C 3.55 16.05 3.2 16.2 3 16 C 2.8 15.8 2.95 15.45 2.75 15.25 C 2.55 15.05 2.15 15.25 2 15 C 1.85 14.75 1.85 14.15 2 14 " fill = "rgb(16, 23, 62)" stroke = "rgb(16, 23, 62)" stroke-width = "0"/>
    <path d="M 6.25 14.25 C 6.45 14.15 6.6 14.1 6.75 14.25 C 6.9 14.4 7.1 14.8 7 15 C 6.9 15.2 6.45 15.05 6.25 15.25 C 6.05 15.45 6.25 15.85 6 16 C 5.75 16.15 5.2 16.2 5 16 C 4.8 15.8 4.85 15.25 5 15 C 5.15 14.75 5.5 14.9 5.75 14.75 C 6 14.6 6.05 14.35 6.25 14.25 " fill = "rgb(203, 197, 45)" stroke = "rgb(203, 197, 45)" stroke-width = "0"/>
    <path d="M 12 14 C 12.2 13.8 12.6 14 13 14 C 13.4 14 13.6 14 14 14 C 14.4 14 14.8 13.8 15 14 C 15.2 14.2 15 14.6 15 15 C 15 15.4 15.2 15.8 15 16 C 14.8 16.2 14.25 16.15 14 16 C 13.75 15.85 13.95 15.45 13.75 15.25 C 13.55 15.05 13.35 15.05 13 15 C 12.65 14.95 12.2 15.2 12 15 C 11.8 14.8 11.8 14.2 12 14 " fill = "rgb(47, 117, 12)" stroke = "rgb(47, 117, 12)" stroke-width = "0"/>
    <path d="M 15 14 C 15.2 13.8 15.8 13.8 16 14 C 16.2 14.2 16 14.6 16 15 C 16 15.4 16.2 15.8 16 16 C 15.8 16.2 15.2 16.2 15 16 C 14.8 15.8 15 15.4 15 15 C 15 14.6 14.8 14.2 15 14 " fill = "rgb(98, 188, 8)" stroke = "rgb(98, 188, 8)" stroke-width = "0"/>
    <path d="M 16 14 C 16.15 13.85 16.55 14.05 16.75 14.25 C 16.95 14.45 17 14.7 17 15 C 17 15.3 16.95 15.55 16.75 15.75 C 16.55 15.95 16.15 16.15 16 16 C 15.85 15.85 16 15.4 16 15 C 16 14.6 15.85 14.15 16 14 " fill = "rgb(115, 152, 22)" stroke = "rgb(115, 152, 22)" stroke-width = "0"/>
    <path d="M 19 14 C 19.15 13.85 19.8 13.8 20 14 C 20.2 14.2 20.15 14.85 20 15 C 19.85 15.15 19.45 14.95 19.25 14.75 C 19.05 14.55 18.85 14.15 19 14 " fill = "rgb(203, 197, 45)" stroke = "rgb(203, 197, 45)" stroke-width = "0"/>
    <path d="M 20 14 C 20.15 13.85 20.55 14.05 20.75 14.25 C 20.95 14.45 21.15 14.85 21 15 C 20.85 15.15 20.2 15.2 20 15 C 19.8 14.8 19.85 14.15 20 14 " fill = "rgb(132, 134, 85)" stroke = "rgb(132, 134, 85)" stroke-width = "0"/>
    <path d="M 1 15 C 1.15 14.85 1.75 14.85 2 15 C 2.25 15.15 2.05 15.55 2.25 15.75 C 2.45 15.95 2.85 15.75 3 16 C 3.15 16.25 3.2 16.8 3 17 C 2.8 17.2 2.25 17.15 2 17 C 1.75 16.85 1.9 16.5 1.75 16.25 C 1.6 16 1.4 16 1.25 15.75 C 1.1 15.5 0.85 15.15 1 15 " fill = "rgb(174, 218, 194)" stroke = "rgb(174, 218, 194)" stroke-width = "0"/>
    <path d="M 2 15 C 2.1 14.9 2.55 15.05 2.75 15.25 C 2.95 15.45 3.1 15.9 3 16 C 2.9 16.1 2.45 15.95 2.25 15.75 C 2.05 15.55 1.9 15.1 2 15 " fill = "rgb(61, 67, 115)" stroke = "rgb(61, 67, 115)" stroke-width = "0"/>
    <path d="M 4 15 C 4.15 14.85 4.8 14.8 5 15 C 5.2 15.2 5.15 15.85 5 16 C 4.85 16.15 4.45 15.95 4.25 15.75 C 4.05 15.55 3.85 15.15 4 15 " fill = "rgb(182, 144, 60)" stroke = "rgb(182, 144, 60)" stroke-width = "0"/>
    <path d="M 6.25 15.25 C 6.45 15.05 6.65 15.05 7 15 C 7.35 14.95 7.8 14.8 8 15 C 8.2 15.2 8.2 15.8 8 16 C 7.8 16.2 7.4 16 7 16 C 6.6 16 6.15 16.15 6 16 C 5.85 15.85 6.05 15.45 6.25 15.25 " fill = "rgb(144, 218, 25)" stroke = "rgb(144, 218, 25)" stroke-width = "0"/>
    <path d="M 11.25 15.25 C 11.45 15.05 11.65 15.05 12 15 C 12.35 14.95 12.65 14.95 13 15 C 13.35 15.05 13.55 15.05 13.75 15.25 C 13.95 15.45 14.1 15.8 14 16 C 13.9 16.2 13.4 16.1 13.25 16.25 C 13.1 16.4 13.15 16.55 13.25 16.75 C 13.35 16.95 13.6 17 13.75 17.25 C 13.9 17.5 14.1 17.9 14 18 C 13.9 18.1 13.5 17.9 13.25 17.75 C 13 17.6 12.95 17.45 12.75 17.25 C 12.55 17.05 12.45 16.95 12.25 16.75 C 12.05 16.55 12 16.4 11.75 16.25 C 11.5 16.1 11.1 16.2 11 16 C 10.9 15.8 11.05 15.45 11.25 15.25 " fill = "rgb(98, 188, 8)" stroke = "rgb(98, 188, 8)" stroke-width = "0"/>
    <path d="M 20 15 C 20.2 14.8 20.8 14.8 21 15 C 21.2 15.2 21.05 15.65 21 16 C 20.95 16.35 20.95 16.55 20.75 16.75 C 20.55 16.95 20.15 17.15 20 17 C 19.85 16.85 20 16.4 20 16 C 20 15.6 19.8 15.2 20 15 " fill = "rgb(211, 206, 100)" stroke = "rgb(211, 206, 100)" stroke-width = "0"/>
    <path d="M 3 16 C 3.15 15.85 3.55 16.05 3.75 16.25 C 3.95 16.45 4.15 16.85 4 17 C 3.85 17.15 3.2 17.2 3 17 C 2.8 16.8 2.85 16.15 3 16 " fill = "rgb(40, 35, 99)" stroke = "rgb(40, 35, 99)" stroke-width = "0"/>
    <path d="M 5 16 C 5.15 15.85 5.8 15.8 6 16 C 6.2 16.2 6.15 16.85 6 17 C 5.85 17.15 5.45 16.95 5.25 16.75 C 5.05 16.55 4.85 16.15 5 16 " fill = "rgb(47, 117, 12)" stroke = "rgb(47, 117, 12)" stroke-width = "0"/>
    <path d="M 6 16 C 6.2 15.8 6.8 15.8 7 16 C 7.2 16.2 7.2 16.8 7 17 C 6.8 17.2 6.2 17.2 6 17 C 5.8 16.8 5.8 16.2 6 16 " fill = "rgb(98, 188, 8)" stroke = "rgb(98, 188, 8)" stroke-width = "0"/>
    <path d="M 7 16 C 7.2 15.8 7.85 15.85 8 16 C 8.15 16.15 7.95 16.55 7.75 16.75 C 7.55 16.95 7.15 17.15 7 17 C 6.85 16.85 6.8 16.2 7 16 " fill = "rgb(28, 159, 0)" stroke = "rgb(28, 159, 0)" stroke-width = "0"/>
    <path d="M 9 16 C 9.2 15.8 9.8 15.8 10 16 C 10.2 16.2 10.2 16.8 10 17 C 9.8 17.2 9.2 17.2 9 17 C 8.8 16.8 8.8 16.2 9 16 " fill = "rgb(44, 77, 54)" stroke = "rgb(44, 77, 54)" stroke-width = "0"/>
    <path d="M 10 16 C 10.2 15.8 10.8 15.8 11 16 C 11.2 16.2 11.2 16.8 11 17 C 10.8 17.2 10.2 17.2 10 17 C 9.8 16.8 9.8 16.2 10 16 " fill = "rgb(144, 218, 25)" stroke = "rgb(144, 218, 25)" stroke-width = "0"/>
    <path d="M 11 16 C 11.15 15.85 11.5 16.1 11.75 16.25 C 12 16.4 12.05 16.55 12.25 16.75 C 12.45 16.95 12.55 17.05 12.75 17.25 C 12.95 17.45 13 17.6 13.25 17.75 C 13.5 17.9 13.85 17.75 14 18 C 14.15 18.25 14.2 18.8 14 19 C 13.8 19.2 13.4 19 13 19 C 12.6 19 12.25 19.15 12 19 C 11.75 18.85 11.95 18.45 11.75 18.25 C 11.55 18.05 11.15 18.25 11 18 C 10.85 17.75 11 17.4 11 17 C 11 16.6 10.85 16.15 11 16 " fill = "rgb(47, 117, 12)" stroke = "rgb(47, 117, 12)" stroke-width = "0"/>
    <path d="M 13.25 16.25 C 13.4 16.1 13.65 16.05 14 16 C 14.35 15.95 14.75 15.85 15 16 C 15.25 16.15 15.05 16.55 15.25 16.75 C 15.45 16.95 15.65 16.95 16 17 C 16.35 17.05 16.8 16.8 17 17 C 17.2 17.2 17.2 17.8 17 18 C 16.8 18.2 16.4 18 16 18 C 15.6 18 15.4 18 15 18 C 14.6 18 14.25 18.15 14 18 C 13.75 17.85 13.9 17.5 13.75 17.25 C 13.6 17 13.35 16.95 13.25 16.75 C 13.15 16.55 13.1 16.4 13.25 16.25 " fill = "rgb(144, 218, 25)" stroke = "rgb(144, 218, 25)" stroke-width = "0"/>
    <path d="M 15 16 C 15.15 15.85 15.8 15.8 16 16 C 16.2 16.2 16.15 16.85 16 17 C 15.85 17.15 15.45 16.95 15.25 16.75 C 15.05 16.55 14.85 16.15 15 16 " fill = "rgb(203, 197, 45)" stroke = "rgb(203, 197, 45)" stroke-width = "0"/>
    <path d="M 18.25 16.25 C 18.45 16.05 18.65 16.05 19 16 C 19.35 15.95 19.8 15.8 20 16 C 20.2 16.2 20.2 16.8 20 17 C 19.8 17.2 19.4 17 19 17 C 18.6 17 18.15 17.15 18 17 C 17.85 16.85 18.05 16.45 18.25 16.25 " fill = "rgb(254, 254, 113)" stroke = "rgb(254, 254, 113)" stroke-width = "0"/>
    <path d="M 2 17 C 2.15 16.85 2.6 17 3 17 C 3.4 17 3.8 16.8 4 17 C 4.2 17.2 4.2 17.8 4 18 C 3.8 18.2 3.35 18.05 3 18 C 2.65 17.95 2.45 17.95 2.25 17.75 C 2.05 17.55 1.85 17.15 2 17 " fill = "rgb(236, 253, 240)" stroke = "rgb(236, 253, 240)" stroke-width = "0"/>
    <path d="M 4 17 C 4.15 16.85 4.55 17.05 4.75 17.25 C 4.95 17.45 5.15 17.85 5 18 C 4.85 18.15 4.2 18.2 4 18 C 3.8 17.8 3.85 17.15 4 17 " fill = "rgb(61, 67, 115)" stroke = "rgb(61, 67, 115)" stroke-width = "0"/>
    <path d="M 8.25 17.25 C 8.45 17.05 8.85 16.85 9 17 C 9.15 17.15 9 17.6 9 18 C 9 18.4 9 18.6 9 19 C 9 19.4 9.15 19.85 9 20 C 8.85 20.15 8.45 19.95 8.25 19.75 C 8.05 19.55 8.05 19.35 8 19 C 7.95 18.65 7.95 18.35 8 18 C 8.05 17.65 8.05 17.45 8.25 17.25 " fill = "rgb(61, 67, 115)" stroke = "rgb(61, 67, 115)" stroke-width = "0"/>
    <path d="M 9 17 C 9.2 16.8 9.8 16.8 10 17 C 10.2 17.2 10 17.6 10 18 C 10 18.4 10 18.6 10 19 C 10 19.4 10 19.6 10 20 C 10 20.4 10 20.6 10 21 C 10 21.4 10.2 21.8 10 22 C 9.8 22.2 9.2 22.2 9 22 C 8.8 21.8 9 21.4 9 21 C 9 20.6 9 20.4 9 20 C 9 19.6 9 19.4 9 19 C 9 18.6 9 18.4 9 18 C 9 17.6 8.8 17.2 9 17 " fill = "rgb(82, 116, 67)" stroke = "rgb(82, 116, 67)" stroke-width = "0"/>
    <path d="M 10 17 C 10.2 16.8 10.8 16.8 11 17 C 11.2 17.2 11 17.6 11 18 C 11 18.4 11 18.6 11 19 C 11 19.4 10.95 19.65 11 20 C 11.05 20.35 11.1 20.6 11.25 20.75 C 11.4 20.9 11.6 20.9 11.75 20.75 C 11.9 20.6 11.95 20.35 12 20 C 12.05 19.65 11.8 19.2 12 19 C 12.2 18.8 12.8 18.8 13 19 C 13.2 19.2 13 19.6 13 20 C 13 20.4 13.15 20.75 13 21 C 12.85 21.25 12.45 21.05 12.25 21.25 C 12.05 21.45 12.05 21.65 12 22 C 11.95 22.35 12.2 22.8 12 23 C 11.8 23.2 11.4 23 11 23 C 10.6 23 10.2 23.2 10 23 C 9.8 22.8 10 22.4 10 22 C 10 21.6 10 21.4 10 21 C 10 20.6 10 20.4 10 20 C 10 19.6 10 19.4 10 19 C 10 18.6 10 18.4 10 18 C 10 17.6 9.8 17.2 10 17 " fill = "rgb(98, 188, 8)" stroke = "rgb(98, 188, 8)" stroke-width = "0"/>
    <path d="M 17 17 C 17.2 16.8 17.8 16.8 18 17 C 18.2 17.2 18.2 17.8 18 18 C 17.8 18.2 17.2 18.2 17 18 C 16.8 17.8 16.8 17.2 17 17 " fill = "rgb(203, 197, 45)" stroke = "rgb(203, 197, 45)" stroke-width = "0"/>
    <path d="M 3 18 C 3.15 17.85 3.8 17.8 4 18 C 4.2 18.2 4.15 18.85 4 19 C 3.85 19.15 3.45 18.95 3.25 18.75 C 3.05 18.55 2.85 18.15 3 18 " fill = "rgb(196, 201, 206)" stroke = "rgb(196, 201, 206)" stroke-width = "0"/>
    <path d="M 4 18 C 4.2 17.8 4.8 17.8 5 18 C 5.2 18.2 5.2 18.8 5 19 C 4.8 19.2 4.2 19.2 4 19 C 3.8 18.8 3.8 18.2 4 18 " fill = "rgb(174, 218, 194)" stroke = "rgb(174, 218, 194)" stroke-width = "0"/>
    <path d="M 5 18 C 5.2 17.8 5.8 17.8 6 18 C 6.2 18.2 6.2 18.8 6 19 C 5.8 19.2 5.2 19.2 5 19 C 4.8 18.8 4.8 18.2 5 18 " fill = "rgb(133, 171, 165)" stroke = "rgb(133, 171, 165)" stroke-width = "0"/>
    <path d="M 6 18 C 6.15 17.85 6.5 18.1 6.75 18.25 C 7 18.4 7 18.6 7.25 18.75 C 7.5 18.9 7.8 18.8 8 19 C 8.2 19.2 8.05 19.55 8.25 19.75 C 8.45 19.95 8.85 19.75 9 20 C 9.15 20.25 9 20.6 9 21 C 9 21.4 9.2 21.8 9 22 C 8.8 22.2 8.2 22.2 8 22 C 7.8 21.8 8.05 21.35 8 21 C 7.95 20.65 7.95 20.45 7.75 20.25 C 7.55 20.05 7.2 20.2 7 20 C 6.8 19.8 6.95 19.45 6.75 19.25 C 6.55 19.05 6.15 19.25 6 19 C 5.85 18.75 5.85 18.15 6 18 " fill = "rgb(109, 126, 147)" stroke = "rgb(109, 126, 147)" stroke-width = "0"/>
    <path d="M 11 18 C 11.15 17.85 11.55 18.05 11.75 18.25 C 11.95 18.45 12.15 18.85 12 19 C 11.85 19.15 11.2 19.2 11 19 C 10.8 18.8 10.85 18.15 11 18 " fill = "rgb(115, 152, 22)" stroke = "rgb(115, 152, 22)" stroke-width = "0"/>
    <path d="M 14 18 C 14.2 17.8 14.8 17.8 15 18 C 15.2 18.2 15.2 18.8 15 19 C 14.8 19.2 14.2 19.2 14 19 C 13.8 18.8 13.8 18.2 14 18 " fill = "rgb(82, 116, 67)" stroke = "rgb(82, 116, 67)" stroke-width = "0"/>
    <path d="M 15 18 C 15.2 17.8 15.6 18 16 18 C 16.4 18 16.8 17.8 17 18 C 17.2 18.2 17.2 18.8 17 19 C 16.8 19.2 16.4 19 16 19 C 15.6 19 15.2 19.2 15 19 C 14.8 18.8 14.8 18.2 15 18 " fill = "rgb(47, 117, 12)" stroke = "rgb(47, 117, 12)" stroke-width = "0"/>
    <path d="M 17 18 C 17.2 17.8 17.8 17.8 18 18 C 18.2 18.2 18.2 18.8 18 19 C 17.8 19.2 17.2 19.2 17 19 C 16.8 18.8 16.8 18.2 17 18 " fill = "rgb(78, 87, 46)" stroke = "rgb(78, 87, 46)" stroke-width = "0"/>
    <path d="M 19.25 18.25 C 19.45 18.05 19.85 17.85 20 18 C 20.15 18.15 20.2 18.8 20 19 C 19.8 19.2 19.15 19.15 19 19 C 18.85 18.85 19.05 18.45 19.25 18.25 " fill = "rgb(109, 126, 147)" stroke = "rgb(109, 126, 147)" stroke-width = "0"/>
    <path d="M 20 18 C 20.2 17.8 20.8 17.8 21 18 C 21.2 18.2 21.2 18.8 21 19 C 20.8 19.2 20.2 19.2 20 19 C 19.8 18.8 19.8 18.2 20 18 " fill = "rgb(133, 171, 165)" stroke = "rgb(133, 171, 165)" stroke-width = "0"/>
    <path d="M 21 18 C 21.2 17.8 21.8 17.8 22 18 C 22.2 18.2 22.2 18.8 22 19 C 21.8 19.2 21.2 19.2 21 19 C 20.8 18.8 20.8 18.2 21 18 " fill = "rgb(174, 218, 194)" stroke = "rgb(174, 218, 194)" stroke-width = "0"/>
    <path d="M 6 19 C 6.1 18.9 6.55 19.05 6.75 19.25 C 6.95 19.45 7.1 19.9 7 20 C 6.9 20.1 6.45 19.95 6.25 19.75 C 6.05 19.55 5.9 19.1 6 19 " fill = "rgb(236, 253, 240)" stroke = "rgb(236, 253, 240)" stroke-width = "0"/>
    <path d="M 11 19 C 11.2 18.8 11.8 18.8 12 19 C 12.2 19.2 12.05 19.65 12 20 C 11.95 20.35 11.9 20.6 11.75 20.75 C 11.6 20.9 11.4 20.9 11.25 20.75 C 11.1 20.6 11.05 20.35 11 20 C 10.95 19.65 10.8 19.2 11 19 " fill = "rgb(144, 218, 25)" stroke = "rgb(144, 218, 25)" stroke-width = "0"/>
    <path d="M 13 19 C 13.2 18.8 13.6 19 14 19 C 14.4 19 14.6 19 15 19 C 15.4 19 15.6 19 16 19 C 16.4 19 16.8 18.8 17 19 C 17.2 19.2 17.2 19.8 17 20 C 16.8 20.2 16.4 20 16 20 C 15.6 20 15.4 20 15 20 C 14.6 20 14.4 20 14 20 C 13.6 20 13.2 20.2 13 20 C 12.8 19.8 12.8 19.2 13 19 " fill = "rgb(16, 23, 62)" stroke = "rgb(16, 23, 62)" stroke-width = "0"/>
    <path d="M 17 19 C 17.2 18.8 17.8 18.8 18 19 C 18.2 19.2 18.2 19.8 18 20 C 17.8 20.2 17.2 20.2 17 20 C 16.8 19.8 16.8 19.2 17 19 " fill = "rgb(35, 83, 98)" stroke = "rgb(35, 83, 98)" stroke-width = "0"/>
    <path d="M 18 19 C 18.2 18.8 18.8 18.8 19 19 C 19.2 19.2 19.2 19.8 19 20 C 18.8 20.2 18.2 20.2 18 20 C 17.8 19.8 17.8 19.2 18 19 " fill = "rgb(81, 123, 128)" stroke = "rgb(81, 123, 128)" stroke-width = "0"/>
    <path d="M 19 19 C 19.2 18.8 19.85 18.85 20 19 C 20.15 19.15 19.95 19.55 19.75 19.75 C 19.55 19.95 19.15 20.15 19 20 C 18.85 19.85 18.8 19.2 19 19 " fill = "rgb(236, 253, 240)" stroke = "rgb(236, 253, 240)" stroke-width = "0"/>
    <path d="M 13 20 C 13.2 19.8 13.8 19.8 14 20 C 14.2 20.2 14.2 20.8 14 21 C 13.8 21.2 13.2 21.2 13 21 C 12.8 20.8 12.8 20.2 13 20 " fill = "rgb(47, 117, 12)" stroke = "rgb(47, 117, 12)" stroke-width = "0"/>
    <path d="M 14 20 C 14.2 19.8 14.85 19.85 15 20 C 15.15 20.15 14.95 20.55 14.75 20.75 C 14.55 20.95 14.15 21.15 14 21 C 13.85 20.85 13.8 20.2 14 20 " fill = "rgb(40, 35, 99)" stroke = "rgb(40, 35, 99)" stroke-width = "0"/>
    <path d="M 15 20 C 15.25 19.85 15.8 19.8 16 20 C 16.2 20.2 16.05 20.65 16 21 C 15.95 21.35 15.95 21.55 15.75 21.75 C 15.55 21.95 15.35 21.95 15 22 C 14.65 22.05 14.2 22.2 14 22 C 13.8 21.8 13.85 21.25 14 21 C 14.15 20.75 14.55 20.95 14.75 20.75 C 14.95 20.55 14.75 20.15 15 20 " fill = "rgb(236, 253, 240)" stroke = "rgb(236, 253, 240)" stroke-width = "0"/>
    <path d="M 12.25 21.25 C 12.45 21.05 12.85 20.85 13 21 C 13.15 21.15 13.2 21.8 13 22 C 12.8 22.2 12.15 22.15 12 22 C 11.85 21.85 12.05 21.45 12.25 21.25 " fill = "rgb(82, 116, 67)" stroke = "rgb(82, 116, 67)" stroke-width = "0"/>
    <path d="M 13 21 C 13.2 20.8 13.8 20.8 14 21 C 14.2 21.2 14.2 21.8 14 22 C 13.8 22.2 13.2 22.2 13 22 C 12.8 21.8 12.8 21.2 13 21 " fill = "rgb(109, 126, 147)" stroke = "rgb(109, 126, 147)" stroke-width = "0"/>
    <path d="M 8 22 C 8.15 21.85 8.8 21.8 9 22 C 9.2 22.2 9.15 22.85 9 23 C 8.85 23.15 8.45 22.95 8.25 22.75 C 8.05 22.55 7.85 22.15 8 22 " fill = "rgb(174, 218, 194)" stroke = "rgb(174, 218, 194)" stroke-width = "0"/>
    <path d="M 9 22 C 9.2 21.8 9.8 21.8 10 22 C 10.2 22.2 10.2 22.8 10 23 C 9.8 23.2 9.2 23.2 9 23 C 8.8 22.8 8.8 22.2 9 22 " fill = "rgb(120, 167, 105)" stroke = "rgb(120, 167, 105)" stroke-width = "0"/>
    <path d="M 12 22 C 12.2 21.8 12.8 21.8 13 22 C 13.2 22.2 13.2 22.8 13 23 C 12.8 23.2 12.2 23.2 12 23 C 11.8 22.8 11.8 22.2 12 22 " fill = "rgb(120, 167, 105)" stroke = "rgb(120, 167, 105)" stroke-width = "0"/>
    <path d="M 13 22 C 13.2 21.8 13.85 21.85 14 22 C 14.15 22.15 13.95 22.55 13.75 22.75 C 13.55 22.95 13.15 23.15 13 23 C 12.85 22.85 12.8 22.2 13 22 " fill = "rgb(186, 216, 216)" stroke = "rgb(186, 216, 216)" stroke-width = "0"/>
    <path d="M 9 23 C 9.2 22.8 9.8 22.8 10 23 C 10.2 23.2 10.2 23.8 10 24 C 9.8 24.2 9.2 24.2 9 24 C 8.8 23.8 8.8 23.2 9 23 " fill = "rgb(185, 251, 166)" stroke = "rgb(185, 251, 166)" stroke-width = "0"/>
    <path d="M 10 23 C 10.2 22.8 10.6 23 11 23 C 11.4 23 11.8 22.8 12 23 C 12.2 23.2 12.2 23.8 12 24 C 11.8 24.2 11.4 24 11 24 C 10.6 24 10.2 24.2 10 24 C 9.8 23.8 9.8 23.2 10 23 " fill = "rgb(47, 117, 12)" stroke = "rgb(47, 117, 12)" stroke-width = "0"/>
    <path d="M 12 23 C 12.2 22.8 12.8 22.8 13 23 C 13.2 23.2 13.2 23.8 13 24 C 12.8 24.2 12.2 24.2 12 24 C 11.8 23.8 11.8 23.2 12 23 " fill = "rgb(185, 251, 166)" stroke = "rgb(185, 251, 166)" stroke-width = "0"/>
    <path d="M 9 24 C 9.15 23.85 9.6 24 10 24 C 10.4 24 10.6 24 11 24 C 11.4 24 11.6 24 12 24 C 12.4 24 12.85 23.85 13 24 C 13.15 24.15 12.95 24.55 12.75 24.75 C 12.55 24.95 12.35 24.95 12 25 C 11.65 25.05 11.4 25 11 25 C 10.6 25 10.35 25.05 10 25 C 9.65 24.95 9.45 24.95 9.25 24.75 C 9.05 24.55 8.85 24.15 9 24 " fill = "rgb(196, 201, 206)" stroke = "rgb(196, 201, 206)" stroke-width = "0"/>
</svg>
