<svg version="1.1" baseProfile = "full" width = "26" height = "24" xmlns = "http://www.w3.org/2000/svg">
    <path d="M 0 0 C 0.2 -0.2 0.6 -3.49691e-08 1 0 C 1.4 0 1.6 -3.49691e-08 2 0 C 2.4 0 2.6 -3.49691e-08 3 0 C 3.4 0 3.6 -3.49691e-08 4 0 C 4.4 0 4.6 -3.49691e-08 5 0 C 5.4 0 5.6 -3.49691e-08 6 0 C 6.4 0 6.6 -3.49691e-08 7 0 C 7.4 0 7.6 -3.49691e-08 8 0 C 8.4 0 8.6 -3.49691e-08 9 0 C 9.4 0 9.6 -3.49691e-08 10 0 C 10.4 0 10.6 -3.49691e-08 11 0 C 11.4 0 11.6 -3.49691e-08 12 0 C 12.4 0 12.6 -3.49691e-08 13 0 C 13.4 0 13.6 -3.49691e-08 14 0 C 14.4 0 14.6 -3.49691e-08 15 0 C 15.4 0 15.6 -3.49691e-08 16 0 C 16.4 0 16.6 -3.49691e-08 17 0 C 17.4 0 17.6 -3.49691e-08 18 0 C 18.4 0 18.6 -3.49691e-08 19 0 C 19.4 0 19.6 -3.49691e-08 20 0 C 20.4 0 20.6 -3.49691e-08 21 0 C 21.4 0 21.6 -3.49691e-08 22 0 C 22.4 0 22.6 -3.49691e-08 23 0 C 23.4 0 23.6 -3.49691e-08 24 0 C 24.4 0 24.6 -3.49691e-08 25 0 C 25.4 0 25.8 -0.2 26 0 C 26.2 0.2 26 0.6 26 1 C 26 1.4 26 1.6 26 2 C 26 2.4 26 2.6 26 3 C 26 3.4 26 3.6 26 4 C 26 4.4 26 4.6 26 5 C 26 5.4 26 5.6 26 6 C 26 6.4 26 6.6 26 7 C 26 7.4 26 7.6 26 8 C 26 8.4 26 8.6 26 9 C 26 9.4 26 9.6 26 10 C 26 10.4 26 10.6 26 11 C 26 11.4 26 11.6 26 12 C 26 12.4 26 12.6 26 13 C 26 13.4 26 13.6 26 14 C 26 14.4 26 14.6 26 15 C 26 15.4 26 15.6 26 16 C 26 16.4 26 16.6 26 17 C 26 17.4 26 17.6 26 18 C 26 18.4 26 18.6 26 19 C 26 19.4 26 19.6 26 20 C 26 20.4 26 20.6 26 21 C 26 21.4 26 21.6 26 22 C 26 22.4 26 22.6 26 23 C 26 23.4 26.2 23.8 26 24 C 25.8 24.2 25.4 24 25 24 C 24.6 24 24.4 24 24 24 C 23.6 24 23.25 24.15 23 24 C 22.75 23.85 22.9 23.5 22.75 23.25 C 22.6 23 22.35 22.95 22.25 22.75 C 22.15 22.55 22.15 22.45 22.25 22.25 C 22.35 22.05 22.6 22 22.75 21.75 C 22.9 21.5 22.95 21.35 23 21 C 23.05 20.65 23 20.4 23 20 C 23 19.6 23 19.4 23 19 C 23 18.6 23 18.4 23 18 C 23 17.6 23 17.4 23 17 C 23 16.6 23 16.4 23 16 C 23 15.6 22.8 15.2 23 15 C 23.2 14.8 23.65 15.05 24 15 C 24.35 14.95 24.55 14.95 24.75 14.75 C 24.95 14.55 24.95 14.35 25 14 C 25.05 13.65 25 13.4 25 13 C 25 12.6 25 12.4 25 12 C 25 11.6 25 11.4 25 11 C 25 10.6 25.05 10.35 25 10 C 24.95 9.65 24.9 9.4 24.75 9.25 C 24.6 9.1 24.4 9.1 24.25 9.25 C 24.1 9.4 24.25 9.85 24 10 C 23.75 10.15 23.2 10.2 23 10 C 22.8 9.8 23 9.4 23 9 C 23 8.6 23 8.4 23 8 C 23 7.6 23 7.4 23 7 C 23 6.6 23.05 6.35 23 6 C 22.95 5.65 22.9 5.5 22.75 5.25 C 22.6 5 22.45 4.95 22.25 4.75 C 22.05 4.55 21.95 4.45 21.75 4.25 C 21.55 4.05 21.4 4 21.25 3.75 C 21.1 3.5 21.05 3.35 21 3 C 20.95 2.65 21.05 2.35 21 2 C 20.95 1.65 20.95 1.45 20.75 1.25 C 20.55 1.05 20.35 1.05 20 1 C 19.65 0.95 19.4 1 19 1 C 18.6 1 18.4 1 18 1 C 17.6 1 17.4 1 17 1 C 16.6 1 16.4 1 16 1 C 15.6 1 15.4 1 15 1 C 14.6 1 14.4 1 14 1 C 13.6 1 13.4 1 13 1 C 12.6 1 12.4 1 12 1 C 11.6 1 11.35 0.95 11 1 C 10.65 1.05 10.45 1.05 10.25 1.25 C 10.05 1.45 10.05 1.65 10 2 C 9.95 2.35 10.2 2.8 10 3 C 9.8 3.2 9.4 3 9 3 C 8.6 3 8.35 2.95 8 3 C 7.65 3.05 7.45 3.05 7.25 3.25 C 7.05 3.45 7.25 3.85 7 4 C 6.75 4.15 6.4 4 6 4 C 5.6 4 5.35 3.95 5 4 C 4.65 4.05 4.5 4.1 4.25 4.25 C 4 4.4 4 4.6 3.75 4.75 C 3.5 4.9 3.3 4.9 3 5 C 2.7 5.1 2.5 5.1 2.25 5.25 C 2 5.4 1.95 5.55 1.75 5.75 C 1.55 5.95 1.4 6 1.25 6.25 C 1.1 6.5 1.05 6.65 1 7 C 0.95 7.35 1 7.6 1 8 C 1 8.4 0.95 8.65 1 9 C 1.05 9.35 1.1 9.5 1.25 9.75 C 1.4 10 1.55 10.05 1.75 10.25 C 1.95 10.45 2 10.6 2.25 10.75 C 2.5 10.9 2.85 10.75 3 11 C 3.15 11.25 3 11.6 3 12 C 3 12.4 3 12.6 3 13 C 3 13.4 3 13.6 3 14 C 3 14.4 3 14.6 3 15 C 3 15.4 3 15.6 3 16 C 3 16.4 3 16.6 3 17 C 3 17.4 3 17.6 3 18 C 3 18.4 3 18.6 3 19 C 3 19.4 3 19.6 3 20 C 3 20.4 2.95 20.65 3 21 C 3.05 21.35 3.1 21.5 3.25 21.75 C 3.4 22 3.55 22.05 3.75 22.25 C 3.95 22.45 4 22.6 4.25 22.75 C 4.5 22.9 4.65 22.95 5 23 C 5.35 23.05 5.6 23 6 23 C 6.4 23 6.6 23 7 23 C 7.4 23 7.6 23 8 23 C 8.4 23 8.6 23 9 23 C 9.4 23 9.6 23 10 23 C 10.4 23 10.6 23 11 23 C 11.4 23 11.6 23 12 23 C 12.4 23 12.6 23 13 23 C 13.4 23 13.6 23 14 23 C 14.4 23 14.6 23 15 23 C 15.4 23 15.6 23 16 23 C 16.4 23 16.6 23 17 23 C 17.4 23 17.6 23 18 23 C 18.4 23 18.6 23 19 23 C 19.4 23 19.6 23 20 23 C 20.4 23 20.65 22.95 21 23 C 21.35 23.05 21.55 23.05 21.75 23.25 C 21.95 23.45 22.15 23.85 22 24 C 21.85 24.15 21.4 24 21 24 C 20.6 24 20.4 24 20 24 C 19.6 24 19.4 24 19 24 C 18.6 24 18.4 24 18 24 C 17.6 24 17.4 24 17 24 C 16.6 24 16.4 24 16 24 C 15.6 24 15.4 24 15 24 C 14.6 24 14.4 24 14 24 C 13.6 24 13.4 24 13 24 C 12.6 24 12.4 24 12 24 C 11.6 24 11.4 24 11 24 C 10.6 24 10.4 24 10 24 C 9.6 24 9.4 24 9 24 C 8.6 24 8.4 24 8 24 C 7.6 24 7.4 24 7 24 C 6.6 24 6.4 24 6 24 C 5.6 24 5.4 24 5 24 C 4.6 24 4.4 24 4 24 C 3.6 24 3.4 24 3 24 C 2.6 24 2.4 24 2 24 C 1.6 24 1.4 24 1 24 C 0.6 24 0.2 24.2 0 24 C -0.2 23.8 3.01992e-08 23.4 0 23 C -1.74846e-08 22.6 3.01992e-08 22.4 0 22 C -1.74846e-08 21.6 3.01992e-08 21.4 0 21 C -1.74846e-08 20.6 3.01992e-08 20.4 0 20 C -1.74846e-08 19.6 3.01992e-08 19.4 0 19 C -1.74846e-08 18.6 3.01992e-08 18.4 0 18 C -1.74846e-08 17.6 3.01992e-08 17.4 0 17 C -1.74846e-08 16.6 3.01992e-08 16.4 0 16 C -1.74846e-08 15.6 3.01992e-08 15.4 0 15 C -1.74846e-08 14.6 3.01992e-08 14.4 0 14 C -1.74846e-08 13.6 3.01992e-08 13.4 0 13 C -1.74846e-08 12.6 3.01992e-08 12.4 0 12 C -1.74846e-08 11.6 3.01992e-08 11.4 0 11 C -1.74846e-08 10.6 3.01992e-08 10.4 0 10 C -1.74846e-08 9.6 3.01992e-08 9.4 0 9 C -1.74846e-08 8.6 3.01992e-08 8.4 0 8 C -1.74846e-08 7.6 3.01992e-08 7.4 0 7 C -1.74846e-08 6.6 3.01992e-08 6.4 0 6 C -1.74846e-08 5.6 3.01992e-08 5.4 0 5 C -1.74846e-08 4.6 3.01992e-08 4.4 0 4 C -1.74846e-08 3.6 3.01992e-08 3.4 0 3 C -1.74846e-08 2.6 3.01992e-08 2.4 0 2 C -1.74846e-08 1.6 3.01992e-08 1.4 0 1 C -1.74846e-08 0.6 -0.2 0.2 0 0 " fill = "rgb(255, 255, 255)" stroke = "rgb(255, 255, 255)" stroke-width = "0"/>
    <path d="M 10.25 1.25 C 10.45 1.05 10.65 1.05 11 1 C 11.35 0.95 11.6 1 12 1 C 12.4 1 12.6 1 13 1 C 13.4 1 13.6 1 14 1 C 14.4 1 14.6 1 15 1 C 15.4 1 15.6 1 16 1 C 16.4 1 16.6 1 17 1 C 17.4 1 17.6 1 18 1 C 18.4 1 18.6 1 19 1 C 19.4 1 19.65 0.95 20 1 C 20.35 1.05 20.55 1.05 20.75 1.25 C 20.95 1.45 20.95 1.65 21 2 C 21.05 2.35 20.95 2.65 21 3 C 21.05 3.35 21.1 3.5 21.25 3.75 C 21.4 4 21.55 4.05 21.75 4.25 C 21.95 4.45 22.05 4.55 22.25 4.75 C 22.45 4.95 22.6 5 22.75 5.25 C 22.9 5.5 23.15 5.85 23 6 C 22.85 6.15 22.25 6.15 22 6 C 21.75 5.85 21.9 5.5 21.75 5.25 C 21.6 5 21.45 4.95 21.25 4.75 C 21.05 4.55 21 4.4 20.75 4.25 C 20.5 4.1 20.15 4.25 20 4 C 19.85 3.75 20.05 3.35 20 3 C 19.95 2.65 19.95 2.45 19.75 2.25 C 19.55 2.05 19.35 2.05 19 2 C 18.65 1.95 18.4 2 18 2 C 17.6 2 17.4 2 17 2 C 16.6 2 16.4 2 16 2 C 15.6 2 15.4 2 15 2 C 14.6 2 14.4 2 14 2 C 13.6 2 13.4 2 13 2 C 12.6 2 12.4 2 12 2 C 11.6 2 11.4 2 11 2 C 10.6 2 10.15 2.15 10 2 C 9.85 1.85 10.05 1.45 10.25 1.25 " fill = "rgb(236, 249, 233)" stroke = "rgb(236, 249, 233)" stroke-width = "0"/>
    <path d="M 10 2 C 10.2 1.8 10.85 1.85 11 2 C 11.15 2.15 10.95 2.55 10.75 2.75 C 10.55 2.95 10.15 3.15 10 3 C 9.85 2.85 9.8 2.2 10 2 " fill = "rgb(88, 130, 86)" stroke = "rgb(88, 130, 86)" stroke-width = "0"/>
    <path d="M 11 2 C 11.25 1.85 11.6 2 12 2 C 12.4 2 12.6 2 13 2 C 13.4 2 13.6 2 14 2 C 14.4 2 14.6 2 15 2 C 15.4 2 15.6 2 16 2 C 16.4 2 16.6 2 17 2 C 17.4 2 17.6 2 18 2 C 18.4 2 18.65 1.95 19 2 C 19.35 2.05 19.55 2.05 19.75 2.25 C 19.95 2.45 19.95 2.65 20 3 C 20.05 3.35 19.95 3.65 20 4 C 20.05 4.35 20.1 4.5 20.25 4.75 C 20.4 5 20.6 5 20.75 5.25 C 20.9 5.5 21.1 5.8 21 6 C 20.9 6.2 20.45 6.05 20.25 6.25 C 20.05 6.45 20.05 6.65 20 7 C 19.95 7.35 20 7.6 20 8 C 20 8.4 20 8.6 20 9 C 20 9.4 20.15 9.75 20 10 C 19.85 10.25 19.4 10.1 19.25 10.25 C 19.1 10.4 19.1 10.6 19.25 10.75 C 19.4 10.9 19.8 10.8 20 11 C 20.2 11.2 20.1 11.6 20.25 11.75 C 20.4 11.9 20.6 11.9 20.75 11.75 C 20.9 11.6 20.95 11.35 21 11 C 21.05 10.65 20.8 10.2 21 10 C 21.2 9.8 21.6 10 22 10 C 22.4 10 22.6 10 23 10 C 23.4 10 23.8 9.8 24 10 C 24.2 10.2 24 10.6 24 11 C 24 11.4 24 11.6 24 12 C 24 12.4 24.05 12.65 24 13 C 23.95 13.35 23.9 13.5 23.75 13.75 C 23.6 14 23.4 14 23.25 14.25 C 23.1 14.5 23.2 14.8 23 15 C 22.8 15.2 22.45 15.05 22.25 15.25 C 22.05 15.45 22.05 15.65 22 16 C 21.95 16.35 22 16.6 22 17 C 22 17.4 22 17.6 22 18 C 22 18.4 22 18.6 22 19 C 22 19.4 22 19.6 22 20 C 22 20.4 22.15 20.75 22 21 C 21.85 21.25 21.45 21.05 21.25 21.25 C 21.05 21.45 21.25 21.85 21 22 C 20.75 22.15 20.4 22 20 22 C 19.6 22 19.4 22 19 22 C 18.6 22 18.4 22 18 22 C 17.6 22 17.4 22 17 22 C 16.6 22 16.4 22 16 22 C 15.6 22 15.4 22 15 22 C 14.6 22 14.4 22 14 22 C 13.6 22 13.4 22 13 22 C 12.6 22 12.4 22 12 22 C 11.6 22 11.4 22 11 22 C 10.6 22 10.4 22 10 22 C 9.6 22 9.4 22 9 22 C 8.6 22 8.4 22 8 22 C 7.6 22 7.4 22 7 22 C 6.6 22 6.4 22 6 22 C 5.6 22 5.25 22.15 5 22 C 4.75 21.85 4.95 21.45 4.75 21.25 C 4.55 21.05 4.15 21.25 4 21 C 3.85 20.75 4 20.4 4 20 C 4 19.6 4 19.4 4 19 C 4 18.6 4 18.4 4 18 C 4 17.6 4 17.4 4 17 C 4 16.6 4 16.4 4 16 C 4 15.6 4 15.4 4 15 C 4 14.6 4 14.4 4 14 C 4 13.6 4 13.4 4 13 C 4 12.6 4 12.4 4 12 C 4 11.6 4.05 11.35 4 11 C 3.95 10.65 3.95 10.45 3.75 10.25 C 3.55 10.05 3.3 10.1 3 10 C 2.7 9.9 2.45 9.95 2.25 9.75 C 2.05 9.55 2.05 9.35 2 9 C 1.95 8.65 2 8.4 2 8 C 2 7.6 1.95 7.35 2 7 C 2.05 6.65 2.05 6.45 2.25 6.25 C 2.45 6.05 2.65 6.05 3 6 C 3.35 5.95 3.65 6.05 4 6 C 4.35 5.95 4.55 5.95 4.75 5.75 C 4.95 5.55 4.75 5.15 5 5 C 5.25 4.85 5.6 5 6 5 C 6.4 5 6.65 5.05 7 5 C 7.35 4.95 7.55 4.95 7.75 4.75 C 7.95 4.55 7.75 4.15 8 4 C 8.25 3.85 8.8 3.8 9 4 C 9.2 4.2 9 4.6 9 5 C 9 5.4 9 5.6 9 6 C 9 6.4 9 6.6 9 7 C 9 7.4 9 7.6 9 8 C 9 8.4 9 8.6 9 9 C 9 9.4 8.95 9.65 9 10 C 9.05 10.35 9.1 10.6 9.25 10.75 C 9.4 10.9 9.6 10.9 9.75 10.75 C 9.9 10.6 9.8 10.2 10 10 C 10.2 9.8 10.55 9.95 10.75 9.75 C 10.95 9.55 10.75 9.15 11 9 C 11.25 8.85 11.6 9 12 9 C 12.4 9 12.6 9 13 9 C 13.4 9 13.6 9 14 9 C 14.4 9 14.65 9.05 15 9 C 15.35 8.95 15.55 8.95 15.75 8.75 C 15.95 8.55 15.95 8.35 16 8 C 16.05 7.65 16 7.4 16 7 C 16 6.6 16 6.4 16 6 C 16 5.6 16 5.4 16 5 C 16 4.6 16.05 4.35 16 4 C 15.95 3.65 15.95 3.45 15.75 3.25 C 15.55 3.05 15.35 3.05 15 3 C 14.65 2.95 14.4 3 14 3 C 13.6 3 13.4 3 13 3 C 12.6 3 12.35 2.95 12 3 C 11.65 3.05 11.45 3.05 11.25 3.25 C 11.05 3.45 11.1 3.7 11 4 C 10.9 4.3 10.9 4.6 10.75 4.75 C 10.6 4.9 10.4 4.9 10.25 4.75 C 10.1 4.6 10.05 4.35 10 4 C 9.95 3.65 9.85 3.25 10 3 C 10.15 2.75 10.55 2.95 10.75 2.75 C 10.95 2.55 10.75 2.15 11 2 " fill = "rgb(56, 13, 6)" stroke = "rgb(56, 13, 6)" stroke-width = "0"/>
    <path d="M 7.25 3.25 C 7.45 3.05 7.85 2.85 8 3 C 8.15 3.15 8.2 3.8 8 4 C 7.8 4.2 7.15 4.15 7 4 C 6.85 3.85 7.05 3.45 7.25 3.25 " fill = "rgb(236, 249, 233)" stroke = "rgb(236, 249, 233)" stroke-width = "0"/>
    <path d="M 8 3 C 8.2 2.8 8.8 2.8 9 3 C 9.2 3.2 9.2 3.8 9 4 C 8.8 4.2 8.2 4.2 8 4 C 7.8 3.8 7.8 3.2 8 3 " fill = "rgb(28, 74, 24)" stroke = "rgb(28, 74, 24)" stroke-width = "0"/>
    <path d="M 9 3 C 9.2 2.8 9.8 2.8 10 3 C 10.2 3.2 10.2 3.8 10 4 C 9.8 4.2 9.2 4.2 9 4 C 8.8 3.8 8.8 3.2 9 3 " fill = "rgb(42, 90, 58)" stroke = "rgb(42, 90, 58)" stroke-width = "0"/>
    <path d="M 11.25 3.25 C 11.45 3.05 11.85 2.85 12 3 C 12.15 3.15 12 3.6 12 4 C 12 4.4 12 4.6 12 5 C 12 5.4 12 5.6 12 6 C 12 6.4 12 6.6 12 7 C 12 7.4 12 7.6 12 8 C 12 8.4 12.2 8.8 12 9 C 11.8 9.2 11.4 9 11 9 C 10.6 9 10.2 9.2 10 9 C 9.8 8.8 10 8.4 10 8 C 10 7.6 10 7.4 10 7 C 10 6.6 10.05 6.35 10 6 C 9.95 5.65 9.95 5.45 9.75 5.25 C 9.55 5.05 9.15 5.25 9 5 C 8.85 4.75 8.8 4.2 9 4 C 9.2 3.8 9.75 3.85 10 4 C 10.25 4.15 10.1 4.6 10.25 4.75 C 10.4 4.9 10.6 4.9 10.75 4.75 C 10.9 4.6 10.9 4.3 11 4 C 11.1 3.7 11.05 3.45 11.25 3.25 " fill = "rgb(144, 37, 17)" stroke = "rgb(144, 37, 17)" stroke-width = "0"/>
    <path d="M 12 3 C 12.2 2.8 12.6 3 13 3 C 13.4 3 13.6 3 14 3 C 14.4 3 14.65 2.95 15 3 C 15.35 3.05 15.55 3.05 15.75 3.25 C 15.95 3.45 15.95 3.65 16 4 C 16.05 4.35 16 4.6 16 5 C 16 5.4 16 5.6 16 6 C 16 6.4 16.2 6.8 16 7 C 15.8 7.2 15.4 7 15 7 C 14.6 7 14.4 7 14 7 C 13.6 7 13.4 7 13 7 C 12.6 7 12.2 7.2 12 7 C 11.8 6.8 11.85 6.25 12 6 C 12.15 5.75 12.5 5.9 12.75 5.75 C 13 5.6 13 5.4 13.25 5.25 C 13.5 5.1 13.7 5.1 14 5 C 14.3 4.9 14.6 4.9 14.75 4.75 C 14.9 4.6 14.9 4.4 14.75 4.25 C 14.6 4.1 14.35 4.05 14 4 C 13.65 3.95 13.4 4 13 4 C 12.6 4 12.2 4.2 12 4 C 11.8 3.8 11.8 3.2 12 3 " fill = "rgb(226, 77, 47)" stroke = "rgb(226, 77, 47)" stroke-width = "0"/>
    <path d="M 17.25 3.25 C 17.45 3.05 17.85 2.85 18 3 C 18.15 3.15 17.95 3.65 18 4 C 18.05 4.35 18.05 4.55 18.25 4.75 C 18.45 4.95 18.85 4.75 19 5 C 19.15 5.25 19.15 5.75 19 6 C 18.85 6.25 18.45 6.05 18.25 6.25 C 18.05 6.45 18.25 6.85 18 7 C 17.75 7.15 17.2 7.2 17 7 C 16.8 6.8 17 6.4 17 6 C 17 5.6 17 5.4 17 5 C 17 4.6 16.95 4.35 17 4 C 17.05 3.65 17.05 3.45 17.25 3.25 " fill = "rgb(226, 77, 47)" stroke = "rgb(226, 77, 47)" stroke-width = "0"/>
    <path d="M 18 3 C 18.15 2.85 18.55 3.05 18.75 3.25 C 18.95 3.45 19.15 3.85 19 4 C 18.85 4.15 18.2 4.2 18 4 C 17.8 3.8 17.85 3.15 18 3 " fill = "rgb(144, 37, 17)" stroke = "rgb(144, 37, 17)" stroke-width = "0"/>
    <path d="M 4.25 4.25 C 4.5 4.1 4.85 3.85 5 4 C 5.15 4.15 5.05 4.65 5 5 C 4.95 5.35 4.95 5.55 4.75 5.75 C 4.55 5.95 4.35 5.95 4 6 C 3.65 6.05 3.35 5.95 3 6 C 2.65 6.05 2.45 6.05 2.25 6.25 C 2.05 6.45 2.05 6.65 2 7 C 1.95 7.35 2 7.6 2 8 C 2 8.4 1.95 8.65 2 9 C 2.05 9.35 2.05 9.55 2.25 9.75 C 2.45 9.95 2.85 9.75 3 10 C 3.15 10.25 3.15 10.85 3 11 C 2.85 11.15 2.5 10.9 2.25 10.75 C 2 10.6 1.95 10.45 1.75 10.25 C 1.55 10.05 1.4 10 1.25 9.75 C 1.1 9.5 1.05 9.35 1 9 C 0.95 8.65 1 8.4 1 8 C 1 7.6 0.95 7.35 1 7 C 1.05 6.65 1.1 6.5 1.25 6.25 C 1.4 6 1.55 5.95 1.75 5.75 C 1.95 5.55 2 5.4 2.25 5.25 C 2.5 5.1 2.7 5.1 3 5 C 3.3 4.9 3.5 4.9 3.75 4.75 C 4 4.6 4 4.4 4.25 4.25 " fill = "rgb(236, 249, 233)" stroke = "rgb(236, 249, 233)" stroke-width = "0"/>
    <path d="M 5 4 C 5.2 3.8 5.6 4 6 4 C 6.4 4 6.8 3.8 7 4 C 7.2 4.2 7.2 4.8 7 5 C 6.8 5.2 6.4 5 6 5 C 5.6 5 5.2 5.2 5 5 C 4.8 4.8 4.8 4.2 5 4 " fill = "rgb(132, 169, 131)" stroke = "rgb(132, 169, 131)" stroke-width = "0"/>
    <path d="M 7 4 C 7.2 3.8 7.85 3.85 8 4 C 8.15 4.15 7.95 4.55 7.75 4.75 C 7.55 4.95 7.15 5.15 7 5 C 6.85 4.85 6.8 4.2 7 4 " fill = "rgb(88, 130, 86)" stroke = "rgb(88, 130, 86)" stroke-width = "0"/>
    <path d="M 12 4 C 12.2 3.8 12.6 4 13 4 C 13.4 4 13.65 3.95 14 4 C 14.35 4.05 14.6 4.1 14.75 4.25 C 14.9 4.4 14.9 4.6 14.75 4.75 C 14.6 4.9 14.3 4.9 14 5 C 13.7 5.1 13.5 5.1 13.25 5.25 C 13 5.4 13 5.6 12.75 5.75 C 12.5 5.9 12.15 6.15 12 6 C 11.85 5.85 12 5.4 12 5 C 12 4.6 11.8 4.2 12 4 " fill = "rgb(255, 108, 72)" stroke = "rgb(255, 108, 72)" stroke-width = "0"/>
    <path d="M 18 4 C 18.15 3.85 18.8 3.8 19 4 C 19.2 4.2 19.15 4.85 19 5 C 18.85 5.15 18.45 4.95 18.25 4.75 C 18.05 4.55 17.85 4.15 18 4 " fill = "rgb(177, 63, 37)" stroke = "rgb(177, 63, 37)" stroke-width = "0"/>
    <path d="M 20 4 C 20.1 3.9 20.5 4.1 20.75 4.25 C 21 4.4 21.05 4.55 21.25 4.75 C 21.45 4.95 21.6 5 21.75 5.25 C 21.9 5.5 22.15 5.85 22 6 C 21.85 6.15 21.25 6.15 21 6 C 20.75 5.85 20.9 5.5 20.75 5.25 C 20.6 5 20.4 5 20.25 4.75 C 20.1 4.5 19.9 4.1 20 4 " fill = "rgb(132, 169, 131)" stroke = "rgb(132, 169, 131)" stroke-width = "0"/>
    <path d="M 9 5 C 9.15 4.85 9.55 5.05 9.75 5.25 C 9.95 5.45 9.95 5.65 10 6 C 10.05 6.35 10.2 6.8 10 7 C 9.8 7.2 9.2 7.2 9 7 C 8.8 6.8 9 6.4 9 6 C 9 5.6 8.85 5.15 9 5 " fill = "rgb(255, 108, 72)" stroke = "rgb(255, 108, 72)" stroke-width = "0"/>
    <path d="M 18.25 6.25 C 18.45 6.05 18.85 5.85 19 6 C 19.15 6.15 19.2 6.8 19 7 C 18.8 7.2 18.15 7.15 18 7 C 17.85 6.85 18.05 6.45 18.25 6.25 " fill = "rgb(177, 63, 37)" stroke = "rgb(177, 63, 37)" stroke-width = "0"/>
    <path d="M 20.25 6.25 C 20.45 6.05 20.85 5.85 21 6 C 21.15 6.15 21.2 6.8 21 7 C 20.8 7.2 20.15 7.15 20 7 C 19.85 6.85 20.05 6.45 20.25 6.25 " fill = "rgb(238, 193, 157)" stroke = "rgb(238, 193, 157)" stroke-width = "0"/>
    <path d="M 21 6 C 21.2 5.8 21.8 5.8 22 6 C 22.2 6.2 22.2 6.8 22 7 C 21.8 7.2 21.2 7.2 21 7 C 20.8 6.8 20.8 6.2 21 6 " fill = "rgb(70, 62, 40)" stroke = "rgb(70, 62, 40)" stroke-width = "0"/>
    <path d="M 22 6 C 22.2 5.8 22.8 5.8 23 6 C 23.2 6.2 23 6.6 23 7 C 23 7.4 23 7.6 23 8 C 23 8.4 23 8.6 23 9 C 23 9.4 23.2 9.8 23 10 C 22.8 10.2 22.2 10.2 22 10 C 21.8 9.8 22 9.4 22 9 C 22 8.6 22 8.4 22 8 C 22 7.6 22 7.4 22 7 C 22 6.6 21.8 6.2 22 6 " fill = "rgb(88, 130, 86)" stroke = "rgb(88, 130, 86)" stroke-width = "0"/>
    <path d="M 3.25 7.25 C 3.45 7.05 3.85 6.85 4 7 C 4.15 7.15 4 7.6 4 8 C 4 8.4 4.15 8.85 4 9 C 3.85 9.15 3.45 8.95 3.25 8.75 C 3.05 8.55 3 8.3 3 8 C 3 7.7 3.05 7.45 3.25 7.25 " fill = "rgb(106, 92, 85)" stroke = "rgb(106, 92, 85)" stroke-width = "0"/>
    <path d="M 4 7 C 4.2 6.8 4.8 6.8 5 7 C 5.2 7.2 5.2 7.8 5 8 C 4.8 8.2 4.2 8.2 4 8 C 3.8 7.8 3.8 7.2 4 7 " fill = "rgb(204, 180, 178)" stroke = "rgb(204, 180, 178)" stroke-width = "0"/>
    <path d="M 5 7 C 5.2 6.8 5.85 6.85 6 7 C 6.15 7.15 5.95 7.55 5.75 7.75 C 5.55 7.95 5.15 8.15 5 8 C 4.85 7.85 4.8 7.2 5 7 " fill = "rgb(177, 63, 37)" stroke = "rgb(177, 63, 37)" stroke-width = "0"/>
    <path d="M 6 7 C 6.25 6.85 6.8 6.8 7 7 C 7.2 7.2 7 7.6 7 8 C 7 8.4 7.2 8.8 7 9 C 6.8 9.2 6.4 9 6 9 C 5.6 9 5.2 9.2 5 9 C 4.8 8.8 4.85 8.25 5 8 C 5.15 7.75 5.55 7.95 5.75 7.75 C 5.95 7.55 5.75 7.15 6 7 " fill = "rgb(226, 77, 47)" stroke = "rgb(226, 77, 47)" stroke-width = "0"/>
    <path d="M 7 7 C 7.15 6.85 7.55 7.05 7.75 7.25 C 7.95 7.45 8 7.7 8 8 C 8 8.3 7.95 8.55 7.75 8.75 C 7.55 8.95 7.15 9.15 7 9 C 6.85 8.85 7 8.4 7 8 C 7 7.6 6.85 7.15 7 7 " fill = "rgb(144, 37, 17)" stroke = "rgb(144, 37, 17)" stroke-width = "0"/>
    <path d="M 9 7 C 9.2 6.8 9.8 6.8 10 7 C 10.2 7.2 10.2 7.8 10 8 C 9.8 8.2 9.2 8.2 9 8 C 8.8 7.8 8.8 7.2 9 7 " fill = "rgb(226, 77, 47)" stroke = "rgb(226, 77, 47)" stroke-width = "0"/>
    <path d="M 12 7 C 12.2 6.8 12.6 7 13 7 C 13.4 7 13.6 7 14 7 C 14.4 7 14.85 6.85 15 7 C 15.15 7.15 14.95 7.55 14.75 7.75 C 14.55 7.95 14.35 7.95 14 8 C 13.65 8.05 13.4 8 13 8 C 12.6 8 12.2 8.2 12 8 C 11.8 7.8 11.8 7.2 12 7 " fill = "rgb(238, 193, 157)" stroke = "rgb(238, 193, 157)" stroke-width = "0"/>
    <path d="M 15 7 C 15.25 6.85 15.8 6.8 16 7 C 16.2 7.2 16.15 7.75 16 8 C 15.85 8.25 15.45 8.05 15.25 8.25 C 15.05 8.45 15.25 8.85 15 9 C 14.75 9.15 14.4 9 14 9 C 13.6 9 13.4 9 13 9 C 12.6 9 12.2 9.2 12 9 C 11.8 8.8 11.8 8.2 12 8 C 12.2 7.8 12.6 8 13 8 C 13.4 8 13.65 8.05 14 8 C 14.35 7.95 14.55 7.95 14.75 7.75 C 14.95 7.55 14.75 7.15 15 7 " fill = "rgb(198, 149, 113)" stroke = "rgb(198, 149, 113)" stroke-width = "0"/>
    <path d="M 17 7 C 17.2 6.8 17.8 6.8 18 7 C 18.2 7.2 18 7.6 18 8 C 18 8.4 18.15 8.85 18 9 C 17.85 9.15 17.45 8.95 17.25 8.75 C 17.05 8.55 17.05 8.35 17 8 C 16.95 7.65 16.8 7.2 17 7 " fill = "rgb(198, 149, 113)" stroke = "rgb(198, 149, 113)" stroke-width = "0"/>
    <path d="M 18 7 C 18.2 6.8 18.8 6.8 19 7 C 19.2 7.2 19.05 7.65 19 8 C 18.95 8.35 18.95 8.55 18.75 8.75 C 18.55 8.95 18.15 9.15 18 9 C 17.85 8.85 18 8.4 18 8 C 18 7.6 17.8 7.2 18 7 " fill = "rgb(169, 106, 76)" stroke = "rgb(169, 106, 76)" stroke-width = "0"/>
    <path d="M 20 7 C 20.2 6.8 20.8 6.8 21 7 C 21.2 7.2 21 7.6 21 8 C 21 8.4 21.2 8.8 21 9 C 20.8 9.2 20.2 9.2 20 9 C 19.8 8.8 20 8.4 20 8 C 20 7.6 19.8 7.2 20 7 " fill = "rgb(125, 126, 108)" stroke = "rgb(125, 126, 108)" stroke-width = "0"/>
    <path d="M 21 7 C 21.2 6.8 21.8 6.8 22 7 C 22.2 7.2 22 7.6 22 8 C 22 8.4 22.2 8.8 22 9 C 21.8 9.2 21.2 9.2 21 9 C 20.8 8.8 21 8.4 21 8 C 21 7.6 20.8 7.2 21 7 " fill = "rgb(56, 13, 6)" stroke = "rgb(56, 13, 6)" stroke-width = "0"/>
    <path d="M 4 8 C 4.2 7.8 4.8 7.8 5 8 C 5.2 8.2 5.2 8.8 5 9 C 4.8 9.2 4.2 9.2 4 9 C 3.8 8.8 3.8 8.2 4 8 " fill = "rgb(238, 193, 157)" stroke = "rgb(238, 193, 157)" stroke-width = "0"/>
    <path d="M 9 8 C 9.2 7.8 9.8 7.8 10 8 C 10.2 8.2 10.2 8.8 10 9 C 9.8 9.2 9.2 9.2 9 9 C 8.8 8.8 8.8 8.2 9 8 " fill = "rgb(255, 108, 72)" stroke = "rgb(255, 108, 72)" stroke-width = "0"/>
    <path d="M 15.25 8.25 C 15.45 8.05 15.9 7.9 16 8 C 16.1 8.1 15.95 8.55 15.75 8.75 C 15.55 8.95 15.1 9.1 15 9 C 14.9 8.9 15.05 8.45 15.25 8.25 " fill = "rgb(169, 106, 76)" stroke = "rgb(169, 106, 76)" stroke-width = "0"/>
    <path d="M 9 9 C 9.2 8.8 9.8 8.8 10 9 C 10.2 9.2 10.2 9.8 10 10 C 9.8 10.2 9.2 10.2 9 10 C 8.8 9.8 8.8 9.2 9 9 " fill = "rgb(250, 243, 190)" stroke = "rgb(250, 243, 190)" stroke-width = "0"/>
    <path d="M 10 9 C 10.2 8.8 10.85 8.85 11 9 C 11.15 9.15 10.95 9.55 10.75 9.75 C 10.55 9.95 10.15 10.15 10 10 C 9.85 9.85 9.8 9.2 10 9 " fill = "rgb(169, 106, 76)" stroke = "rgb(169, 106, 76)" stroke-width = "0"/>
    <path d="M 20 9 C 20.2 8.8 20.8 8.8 21 9 C 21.2 9.2 21.2 9.8 21 10 C 20.8 10.2 20.2 10.2 20 10 C 19.8 9.8 19.8 9.2 20 9 " fill = "rgb(250, 243, 190)" stroke = "rgb(250, 243, 190)" stroke-width = "0"/>
    <path d="M 21 9 C 21.2 8.8 21.8 8.8 22 9 C 22.2 9.2 22.2 9.8 22 10 C 21.8 10.2 21.2 10.2 21 10 C 20.8 9.8 20.8 9.2 21 9 " fill = "rgb(70, 62, 40)" stroke = "rgb(70, 62, 40)" stroke-width = "0"/>
    <path d="M 24.25 9.25 C 24.4 9.1 24.6 9.1 24.75 9.25 C 24.9 9.4 24.95 9.65 25 10 C 25.05 10.35 25 10.6 25 11 C 25 11.4 25 11.6 25 12 C 25 12.4 25 12.6 25 13 C 25 13.4 25.05 13.65 25 14 C 24.95 14.35 24.95 14.55 24.75 14.75 C 24.55 14.95 24.35 14.95 24 15 C 23.65 15.05 23.15 15.15 23 15 C 22.85 14.85 23.1 14.5 23.25 14.25 C 23.4 14 23.6 14 23.75 13.75 C 23.9 13.5 23.95 13.35 24 13 C 24.05 12.65 24 12.4 24 12 C 24 11.6 24 11.4 24 11 C 24 10.6 23.95 10.35 24 10 C 24.05 9.65 24.1 9.4 24.25 9.25 " fill = "rgb(236, 249, 233)" stroke = "rgb(236, 249, 233)" stroke-width = "0"/>
    <path d="M 3 10 C 3.15 9.85 3.55 10.05 3.75 10.25 C 3.95 10.45 4.15 10.85 4 11 C 3.85 11.15 3.2 11.2 3 11 C 2.8 10.8 2.85 10.15 3 10 " fill = "rgb(125, 126, 108)" stroke = "rgb(125, 126, 108)" stroke-width = "0"/>
    <path d="M 6.25 10.25 C 6.45 10.05 6.85 9.85 7 10 C 7.15 10.15 7 10.6 7 11 C 7 11.4 7 11.6 7 12 C 7 12.4 6.95 12.65 7 13 C 7.05 13.35 7.05 13.55 7.25 13.75 C 7.45 13.95 7.65 13.95 8 14 C 8.35 14.05 8.6 14 9 14 C 9.4 14 9.6 14 10 14 C 10.4 14 10.6 14 11 14 C 11.4 14 11.6 14 12 14 C 12.4 14 12.6 14 13 14 C 13.4 14 13.6 14 14 14 C 14.4 14 14.6 14 15 14 C 15.4 14 15.6 14 16 14 C 16.4 14 16.6 14 17 14 C 17.4 14 17.6 14 18 14 C 18.4 14 18.65 13.95 19 14 C 19.35 14.05 19.55 14.05 19.75 14.25 C 19.95 14.45 19.95 14.65 20 15 C 20.05 15.35 20.2 15.8 20 16 C 19.8 16.2 19.4 16 19 16 C 18.6 16 18.4 16 18 16 C 17.6 16 17.25 16.15 17 16 C 16.75 15.85 16.9 15.4 16.75 15.25 C 16.6 15.1 16.4 15.1 16.25 15.25 C 16.1 15.4 16.25 15.85 16 16 C 15.75 16.15 15.4 16 15 16 C 14.6 16 14.4 16 14 16 C 13.6 16 13.4 16 13 16 C 12.6 16 12.4 16 12 16 C 11.6 16 11.4 16 11 16 C 10.6 16 10.4 16 10 16 C 9.6 16 9.4 16 9 16 C 8.6 16 8.4 16 8 16 C 7.6 16 7.25 16.15 7 16 C 6.75 15.85 6.95 15.45 6.75 15.25 C 6.55 15.05 6.15 15.25 6 15 C 5.85 14.75 6 14.4 6 14 C 6 13.6 6 13.4 6 13 C 6 12.6 6 12.4 6 12 C 6 11.6 5.95 11.35 6 11 C 6.05 10.65 6.05 10.45 6.25 10.25 " fill = "rgb(226, 77, 47)" stroke = "rgb(226, 77, 47)" stroke-width = "0"/>
    <path d="M 7 10 C 7.15 9.85 7.55 10.05 7.75 10.25 C 7.95 10.45 8.15 10.85 8 11 C 7.85 11.15 7.2 11.2 7 11 C 6.8 10.8 6.85 10.15 7 10 " fill = "rgb(144, 37, 17)" stroke = "rgb(144, 37, 17)" stroke-width = "0"/>
    <path d="M 9 10 C 9.15 9.85 9.85 9.85 10 10 C 10.15 10.15 9.9 10.6 9.75 10.75 C 9.6 10.9 9.4 10.9 9.25 10.75 C 9.1 10.6 8.85 10.15 9 10 " fill = "rgb(144, 37, 17)" stroke = "rgb(144, 37, 17)" stroke-width = "0"/>
    <path d="M 19.25 10.25 C 19.4 10.1 19.85 9.85 20 10 C 20.15 10.15 20.15 10.85 20 11 C 19.85 11.15 19.4 10.9 19.25 10.75 C 19.1 10.6 19.1 10.4 19.25 10.25 " fill = "rgb(144, 37, 17)" stroke = "rgb(144, 37, 17)" stroke-width = "0"/>
    <path d="M 20 10 C 20.2 9.8 20.8 9.8 21 10 C 21.2 10.2 21.2 10.8 21 11 C 20.8 11.2 20.2 11.2 20 11 C 19.8 10.8 19.8 10.2 20 10 " fill = "rgb(236, 249, 233)" stroke = "rgb(236, 249, 233)" stroke-width = "0"/>
    <path d="M 3 11 C 3.2 10.8 3.8 10.8 4 11 C 4.2 11.2 4 11.6 4 12 C 4 12.4 4 12.6 4 13 C 4 13.4 4 13.6 4 14 C 4 14.4 4 14.6 4 15 C 4 15.4 4 15.6 4 16 C 4 16.4 4 16.6 4 17 C 4 17.4 4 17.6 4 18 C 4 18.4 4 18.6 4 19 C 4 19.4 4 19.6 4 20 C 4 20.4 4.2 20.8 4 21 C 3.8 21.2 3.2 21.2 3 21 C 2.8 20.8 3 20.4 3 20 C 3 19.6 3 19.4 3 19 C 3 18.6 3 18.4 3 18 C 3 17.6 3 17.4 3 17 C 3 16.6 3 16.4 3 16 C 3 15.6 3 15.4 3 15 C 3 14.6 3 14.4 3 14 C 3 13.6 3 13.4 3 13 C 3 12.6 3 12.4 3 12 C 3 11.6 2.8 11.2 3 11 " fill = "rgb(132, 169, 131)" stroke = "rgb(132, 169, 131)" stroke-width = "0"/>
    <path d="M 7 11 C 7.2 10.8 7.8 10.8 8 11 C 8.2 11.2 8 11.6 8 12 C 8 12.4 8.2 12.8 8 13 C 7.8 13.2 7.2 13.2 7 13 C 6.8 12.8 7 12.4 7 12 C 7 11.6 6.8 11.2 7 11 " fill = "rgb(177, 63, 37)" stroke = "rgb(177, 63, 37)" stroke-width = "0"/>
    <path d="M 20 11 C 20.15 10.85 20.85 10.85 21 11 C 21.15 11.15 20.9 11.6 20.75 11.75 C 20.6 11.9 20.4 11.9 20.25 11.75 C 20.1 11.6 19.85 11.15 20 11 " fill = "rgb(204, 180, 178)" stroke = "rgb(204, 180, 178)" stroke-width = "0"/>
    <path d="M 7 13 C 7.15 12.85 7.8 12.8 8 13 C 8.2 13.2 8.15 13.85 8 14 C 7.85 14.15 7.45 13.95 7.25 13.75 C 7.05 13.55 6.85 13.15 7 13 " fill = "rgb(144, 37, 17)" stroke = "rgb(144, 37, 17)" stroke-width = "0"/>
    <path d="M 6 15 C 6.15 14.85 6.55 15.05 6.75 15.25 C 6.95 15.45 7 15.7 7 16 C 7 16.3 6.9 16.5 6.75 16.75 C 6.6 17 6.4 17 6.25 17.25 C 6.1 17.5 6.25 17.85 6 18 C 5.75 18.15 5.2 18.2 5 18 C 4.8 17.8 4.85 17.25 5 17 C 5.15 16.75 5.55 16.95 5.75 16.75 C 5.95 16.55 5.95 16.35 6 16 C 6.05 15.65 5.85 15.15 6 15 " fill = "rgb(144, 37, 17)" stroke = "rgb(144, 37, 17)" stroke-width = "0"/>
    <path d="M 16.25 15.25 C 16.4 15.1 16.6 15.1 16.75 15.25 C 16.9 15.4 17.15 15.85 17 16 C 16.85 16.15 16.15 16.15 16 16 C 15.85 15.85 16.1 15.4 16.25 15.25 " fill = "rgb(177, 63, 37)" stroke = "rgb(177, 63, 37)" stroke-width = "0"/>
    <path d="M 20 15 C 20.15 14.85 20.55 15.05 20.75 15.25 C 20.95 15.45 21.15 15.85 21 16 C 20.85 16.15 20.2 16.2 20 16 C 19.8 15.8 19.85 15.15 20 15 " fill = "rgb(144, 37, 17)" stroke = "rgb(144, 37, 17)" stroke-width = "0"/>
    <path d="M 22.25 15.25 C 22.45 15.05 22.85 14.85 23 15 C 23.15 15.15 23 15.6 23 16 C 23 16.4 23 16.6 23 17 C 23 17.4 23 17.6 23 18 C 23 18.4 23 18.6 23 19 C 23 19.4 23 19.6 23 20 C 23 20.4 23.2 20.8 23 21 C 22.8 21.2 22.2 21.2 22 21 C 21.8 20.8 22 20.4 22 20 C 22 19.6 22 19.4 22 19 C 22 18.6 22 18.4 22 18 C 22 17.6 22 17.4 22 17 C 22 16.6 21.95 16.35 22 16 C 22.05 15.65 22.05 15.45 22.25 15.25 " fill = "rgb(88, 130, 86)" stroke = "rgb(88, 130, 86)" stroke-width = "0"/>
    <path d="M 5.25 16.25 C 5.45 16.05 5.9 15.9 6 16 C 6.1 16.1 5.95 16.55 5.75 16.75 C 5.55 16.95 5.1 17.1 5 17 C 4.9 16.9 5.05 16.45 5.25 16.25 " fill = "rgb(255, 108, 72)" stroke = "rgb(255, 108, 72)" stroke-width = "0"/>
    <path d="M 20 16 C 20.2 15.8 20.8 15.8 21 16 C 21.2 16.2 21.2 16.8 21 17 C 20.8 17.2 20.2 17.2 20 17 C 19.8 16.8 19.8 16.2 20 16 " fill = "rgb(255, 108, 72)" stroke = "rgb(255, 108, 72)" stroke-width = "0"/>
    <path d="M 8.25 17.25 C 8.35 17.15 8.65 17.15 8.75 17.25 C 8.85 17.35 8.85 17.65 8.75 17.75 C 8.65 17.85 8.35 17.85 8.25 17.75 C 8.15 17.65 8.15 17.35 8.25 17.25 " fill = "rgb(144, 37, 17)" stroke = "rgb(144, 37, 17)" stroke-width = "0"/>
    <path d="M 10.25 17.25 C 10.4 17.1 10.7 17 11 17 C 11.3 17 11.6 17.1 11.75 17.25 C 11.9 17.4 11.9 17.6 11.75 17.75 C 11.6 17.9 11.3 18 11 18 C 10.7 18 10.4 17.9 10.25 17.75 C 10.1 17.6 10.1 17.4 10.25 17.25 " fill = "rgb(226, 77, 47)" stroke = "rgb(226, 77, 47)" stroke-width = "0"/>
    <path d="M 13.25 17.25 C 13.35 17.15 13.65 17.15 13.75 17.25 C 13.85 17.35 13.85 17.65 13.75 17.75 C 13.65 17.85 13.35 17.85 13.25 17.75 C 13.15 17.65 13.15 17.35 13.25 17.25 " fill = "rgb(144, 37, 17)" stroke = "rgb(144, 37, 17)" stroke-width = "0"/>
    <path d="M 15.25 17.25 C 15.4 17.1 15.8 16.9 16 17 C 16.2 17.1 16.05 17.55 16.25 17.75 C 16.45 17.95 16.85 17.75 17 18 C 17.15 18.25 17.15 18.85 17 19 C 16.85 19.15 16.5 18.9 16.25 18.75 C 16 18.6 15.95 18.45 15.75 18.25 C 15.55 18.05 15.35 17.95 15.25 17.75 C 15.15 17.55 15.1 17.4 15.25 17.25 " fill = "rgb(144, 37, 17)" stroke = "rgb(144, 37, 17)" stroke-width = "0"/>
    <path d="M 16 17 C 16.15 16.85 16.8 16.8 17 17 C 17.2 17.2 17.15 17.85 17 18 C 16.85 18.15 16.45 17.95 16.25 17.75 C 16.05 17.55 15.85 17.15 16 17 " fill = "rgb(226, 77, 47)" stroke = "rgb(226, 77, 47)" stroke-width = "0"/>
    <path d="M 17 17 C 17.2 16.8 17.8 16.8 18 17 C 18.2 17.2 18.2 17.8 18 18 C 17.8 18.2 17.2 18.2 17 18 C 16.8 17.8 16.8 17.2 17 17 " fill = "rgb(236, 249, 233)" stroke = "rgb(236, 249, 233)" stroke-width = "0"/>
    <path d="M 18 17 C 18.2 16.8 18.8 16.8 19 17 C 19.2 17.2 19.2 17.8 19 18 C 18.8 18.2 18.2 18.2 18 18 C 17.8 17.8 17.8 17.2 18 17 " fill = "rgb(238, 193, 157)" stroke = "rgb(238, 193, 157)" stroke-width = "0"/>
    <path d="M 19 17 C 19.2 16.8 19.85 16.85 20 17 C 20.15 17.15 19.95 17.55 19.75 17.75 C 19.55 17.95 19.15 18.15 19 18 C 18.85 17.85 18.8 17.2 19 17 " fill = "rgb(226, 77, 47)" stroke = "rgb(226, 77, 47)" stroke-width = "0"/>
    <path d="M 20 17 C 20.25 16.85 20.8 16.8 21 17 C 21.2 17.2 21.15 17.75 21 18 C 20.85 18.25 20.45 18.05 20.25 18.25 C 20.05 18.45 20.25 18.85 20 19 C 19.75 19.15 19.2 19.2 19 19 C 18.8 18.8 18.85 18.25 19 18 C 19.15 17.75 19.55 17.95 19.75 17.75 C 19.95 17.55 19.75 17.15 20 17 " fill = "rgb(144, 37, 17)" stroke = "rgb(144, 37, 17)" stroke-width = "0"/>
    <path d="M 5 18 C 5.15 17.85 5.85 17.85 6 18 C 6.15 18.15 5.9 18.6 5.75 18.75 C 5.6 18.9 5.4 18.9 5.25 18.75 C 5.1 18.6 4.85 18.15 5 18 " fill = "rgb(106, 58, 46)" stroke = "rgb(106, 58, 46)" stroke-width = "0"/>
    <path d="M 17 18 C 17.2 17.8 17.6 18 18 18 C 18.4 18 18.8 17.8 19 18 C 19.2 18.2 19.2 18.8 19 19 C 18.8 19.2 18.4 19 18 19 C 17.6 19 17.2 19.2 17 19 C 16.8 18.8 16.8 18.2 17 18 " fill = "rgb(106, 92, 85)" stroke = "rgb(106, 92, 85)" stroke-width = "0"/>
    <path d="M 20.25 18.25 C 20.45 18.05 20.85 17.85 21 18 C 21.15 18.15 21.2 18.8 21 19 C 20.8 19.2 20.15 19.15 20 19 C 19.85 18.85 20.05 18.45 20.25 18.25 " fill = "rgb(198, 149, 113)" stroke = "rgb(198, 149, 113)" stroke-width = "0"/>
    <path d="M 20 19 C 20.15 18.85 20.85 18.85 21 19 C 21.15 19.15 20.9 19.6 20.75 19.75 C 20.6 19.9 20.4 19.9 20.25 19.75 C 20.1 19.6 19.85 19.15 20 19 " fill = "rgb(238, 193, 157)" stroke = "rgb(238, 193, 157)" stroke-width = "0"/>
    <path d="M 6.25 20.25 C 6.4 20.1 6.65 20.05 7 20 C 7.35 19.95 7.8 19.8 8 20 C 8.2 20.2 8.2 20.8 8 21 C 7.8 21.2 7.35 21.05 7 21 C 6.65 20.95 6.4 20.9 6.25 20.75 C 6.1 20.6 6.1 20.4 6.25 20.25 " fill = "rgb(236, 249, 233)" stroke = "rgb(236, 249, 233)" stroke-width = "0"/>
    <path d="M 8 20 C 8.15 19.85 8.6 20.1 8.75 20.25 C 8.9 20.4 8.9 20.6 8.75 20.75 C 8.6 20.9 8.15 21.15 8 21 C 7.85 20.85 7.85 20.15 8 20 " fill = "rgb(238, 193, 157)" stroke = "rgb(238, 193, 157)" stroke-width = "0"/>
    <path d="M 10.25 20.25 C 10.4 20.1 10.65 20.05 11 20 C 11.35 19.95 11.8 19.8 12 20 C 12.2 20.2 12.2 20.8 12 21 C 11.8 21.2 11.35 21.05 11 21 C 10.65 20.95 10.4 20.9 10.25 20.75 C 10.1 20.6 10.1 20.4 10.25 20.25 " fill = "rgb(236, 249, 233)" stroke = "rgb(236, 249, 233)" stroke-width = "0"/>
    <path d="M 12 20 C 12.2 19.8 12.8 19.8 13 20 C 13.2 20.2 13.2 20.8 13 21 C 12.8 21.2 12.2 21.2 12 21 C 11.8 20.8 11.8 20.2 12 20 " fill = "rgb(250, 243, 190)" stroke = "rgb(250, 243, 190)" stroke-width = "0"/>
    <path d="M 13 20 C 13.2 19.8 13.8 19.8 14 20 C 14.2 20.2 14.2 20.8 14 21 C 13.8 21.2 13.2 21.2 13 21 C 12.8 20.8 12.8 20.2 13 20 " fill = "rgb(106, 92, 85)" stroke = "rgb(106, 92, 85)" stroke-width = "0"/>
    <path d="M 14 20 C 14.2 19.8 14.8 19.8 15 20 C 15.2 20.2 15.2 20.8 15 21 C 14.8 21.2 14.2 21.2 14 21 C 13.8 20.8 13.8 20.2 14 20 " fill = "rgb(204, 180, 178)" stroke = "rgb(204, 180, 178)" stroke-width = "0"/>
    <path d="M 15 20 C 15.2 19.8 15.8 19.8 16 20 C 16.2 20.2 16.2 20.8 16 21 C 15.8 21.2 15.2 21.2 15 21 C 14.8 20.8 14.8 20.2 15 20 " fill = "rgb(236, 249, 233)" stroke = "rgb(236, 249, 233)" stroke-width = "0"/>
    <path d="M 16 20 C 16.2 19.8 16.8 19.8 17 20 C 17.2 20.2 17.2 20.8 17 21 C 16.8 21.2 16.2 21.2 16 21 C 15.8 20.8 15.8 20.2 16 20 " fill = "rgb(250, 243, 190)" stroke = "rgb(250, 243, 190)" stroke-width = "0"/>
    <path d="M 17 20 C 17.2 19.8 17.8 19.8 18 20 C 18.2 20.2 18.2 20.8 18 21 C 17.8 21.2 17.2 21.2 17 21 C 16.8 20.8 16.8 20.2 17 20 " fill = "rgb(125, 126, 108)" stroke = "rgb(125, 126, 108)" stroke-width = "0"/>
    <path d="M 18 20 C 18.2 19.8 18.8 19.8 19 20 C 19.2 20.2 19.2 20.8 19 21 C 18.8 21.2 18.2 21.2 18 21 C 17.8 20.8 17.8 20.2 18 20 " fill = "rgb(204, 180, 178)" stroke = "rgb(204, 180, 178)" stroke-width = "0"/>
    <path d="M 19 20 C 19.15 19.85 19.6 20.1 19.75 20.25 C 19.9 20.4 19.9 20.6 19.75 20.75 C 19.6 20.9 19.15 21.15 19 21 C 18.85 20.85 18.85 20.15 19 20 " fill = "rgb(236, 249, 233)" stroke = "rgb(236, 249, 233)" stroke-width = "0"/>
    <path d="M 3 21 C 3.15 20.85 3.75 20.85 4 21 C 4.25 21.15 4.05 21.55 4.25 21.75 C 4.45 21.95 4.85 21.75 5 22 C 5.15 22.25 5.15 22.85 5 23 C 4.85 23.15 4.5 22.9 4.25 22.75 C 4 22.6 3.95 22.45 3.75 22.25 C 3.55 22.05 3.4 22 3.25 21.75 C 3.1 21.5 2.85 21.15 3 21 " fill = "rgb(236, 249, 233)" stroke = "rgb(236, 249, 233)" stroke-width = "0"/>
    <path d="M 4 21 C 4.1 20.9 4.55 21.05 4.75 21.25 C 4.95 21.45 5.1 21.9 5 22 C 4.9 22.1 4.45 21.95 4.25 21.75 C 4.05 21.55 3.9 21.1 4 21 " fill = "rgb(163, 176, 160)" stroke = "rgb(163, 176, 160)" stroke-width = "0"/>
    <path d="M 21.25 21.25 C 21.45 21.05 21.9 20.9 22 21 C 22.1 21.1 21.95 21.55 21.75 21.75 C 21.55 21.95 21.1 22.1 21 22 C 20.9 21.9 21.05 21.45 21.25 21.25 " fill = "rgb(132, 169, 131)" stroke = "rgb(132, 169, 131)" stroke-width = "0"/>
    <path d="M 22 21 C 22.25 20.85 22.85 20.85 23 21 C 23.15 21.15 22.9 21.5 22.75 21.75 C 22.6 22 22.35 22.05 22.25 22.25 C 22.15 22.45 22.15 22.55 22.25 22.75 C 22.35 22.95 22.6 23 22.75 23.25 C 22.9 23.5 23.15 23.85 23 24 C 22.85 24.15 22.25 24.15 22 24 C 21.75 23.85 21.95 23.45 21.75 23.25 C 21.55 23.05 21.15 23.25 21 23 C 20.85 22.75 20.85 22.25 21 22 C 21.15 21.75 21.55 21.95 21.75 21.75 C 21.95 21.55 21.75 21.15 22 21 " fill = "rgb(236, 249, 233)" stroke = "rgb(236, 249, 233)" stroke-width = "0"/>
    <path d="M 5 22 C 5.2 21.8 5.6 22 6 22 C 6.4 22 6.6 22 7 22 C 7.4 22 7.6 22 8 22 C 8.4 22 8.6 22 9 22 C 9.4 22 9.6 22 10 22 C 10.4 22 10.6 22 11 22 C 11.4 22 11.6 22 12 22 C 12.4 22 12.6 22 13 22 C 13.4 22 13.6 22 14 22 C 14.4 22 14.6 22 15 22 C 15.4 22 15.6 22 16 22 C 16.4 22 16.6 22 17 22 C 17.4 22 17.6 22 18 22 C 18.4 22 18.6 22 19 22 C 19.4 22 19.6 22 20 22 C 20.4 22 20.8 21.8 21 22 C 21.2 22.2 21.2 22.8 21 23 C 20.8 23.2 20.4 23 20 23 C 19.6 23 19.4 23 19 23 C 18.6 23 18.4 23 18 23 C 17.6 23 17.4 23 17 23 C 16.6 23 16.4 23 16 23 C 15.6 23 15.4 23 15 23 C 14.6 23 14.4 23 14 23 C 13.6 23 13.4 23 13 23 C 12.6 23 12.4 23 12 23 C 11.6 23 11.4 23 11 23 C 10.6 23 10.4 23 10 23 C 9.6 23 9.4 23 9 23 C 8.6 23 8.4 23 8 23 C 7.6 23 7.4 23 7 23 C 6.6 23 6.4 23 6 23 C 5.6 23 5.2 23.2 5 23 C 4.8 22.8 4.8 22.2 5 22 " fill = "rgb(88, 130, 86)" stroke = "rgb(88, 130, 86)" stroke-width = "0"/>
</svg>
