<svg version="1.1" baseProfile = "full" width = "48" height = "47" xmlns = "http://www.w3.org/2000/svg">
    <path d="M 0 0 C 0.2 -0.2 0.6 -3.49691e-08 1 0 C 1.4 0 1.6 -3.49691e-08 2 0 C 2.4 0 2.6 -3.49691e-08 3 0 C 3.4 0 3.6 -3.49691e-08 4 0 C 4.4 0 4.6 -3.49691e-08 5 0 C 5.4 0 5.6 -3.49691e-08 6 0 C 6.4 0 6.6 -3.49691e-08 7 0 C 7.4 0 7.6 -3.49691e-08 8 0 C 8.4 0 8.6 -3.49691e-08 9 0 C 9.4 0 9.6 -3.49691e-08 10 0 C 10.4 0 10.6 -3.49691e-08 11 0 C 11.4 0 11.6 -3.49691e-08 12 0 C 12.4 0 12.6 -3.49691e-08 13 0 C 13.4 0 13.6 -3.49691e-08 14 0 C 14.4 0 14.6 -3.49691e-08 15 0 C 15.4 0 15.6 -3.49691e-08 16 0 C 16.4 0 16.6 -3.49691e-08 17 0 C 17.4 0 17.6 -3.49691e-08 18 0 C 18.4 0 18.6 -3.49691e-08 19 0 C 19.4 0 19.6 -3.49691e-08 20 0 C 20.4 0 20.6 -3.49691e-08 21 0 C 21.4 0 21.6 -3.49691e-08 22 0 C 22.4 0 22.6 -3.49691e-08 23 0 C 23.4 0 23.6 -3.49691e-08 24 0 C 24.4 0 24.6 -3.49691e-08 25 0 C 25.4 0 25.6 -3.49691e-08 26 0 C 26.4 0 26.6 -3.49691e-08 27 0 C 27.4 0 27.6 -3.49691e-08 28 0 C 28.4 0 28.6 -3.49691e-08 29 0 C 29.4 0 29.6 -3.49691e-08 30 0 C 30.4 0 30.6 -3.49691e-08 31 0 C 31.4 0 31.6 -3.49691e-08 32 0 C 32.4 0 32.6 -3.49691e-08 33 0 C 33.4 0 33.6 -3.49691e-08 34 0 C 34.4 0 34.6 -3.49691e-08 35 0 C 35.4 0 35.6 -3.49691e-08 36 0 C 36.4 0 36.6 -3.49691e-08 37 0 C 37.4 0 37.6 -3.49691e-08 38 0 C 38.4 0 38.6 -3.49691e-08 39 0 C 39.4 0 39.6 -3.49691e-08 40 0 C 40.4 0 40.6 -3.49691e-08 41 0 C 41.4 0 41.6 -3.49691e-08 42 0 C 42.4 0 42.6 -3.49691e-08 43 0 C 43.4 0 43.6 -3.49691e-08 44 0 C 44.4 0 44.6 -3.49691e-08 45 0 C 45.4 0 45.6 -3.49691e-08 46 0 C 46.4 0 46.6 -3.49691e-08 47 0 C 47.4 0 47.8 -0.2 48 0 C 48.2 0.2 48 0.6 48 1 C 48 1.4 48 1.6 48 2 C 48 2.4 48 2.6 48 3 C 48 3.4 48 3.6 48 4 C 48 4.4 48 4.6 48 5 C 48 5.4 48 5.6 48 6 C 48 6.4 48 6.6 48 7 C 48 7.4 48 7.6 48 8 C 48 8.4 48 8.6 48 9 C 48 9.4 48 9.6 48 10 C 48 10.4 48 10.6 48 11 C 48 11.4 48 11.6 48 12 C 48 12.4 48 12.6 48 13 C 48 13.4 48 13.6 48 14 C 48 14.4 48 14.6 48 15 C 48 15.4 48 15.6 48 16 C 48 16.4 48 16.6 48 17 C 48 17.4 48 17.6 48 18 C 48 18.4 48 18.6 48 19 C 48 19.4 48 19.6 48 20 C 48 20.4 48 20.6 48 21 C 48 21.4 48 21.6 48 22 C 48 22.4 48 22.6 48 23 C 48 23.4 48 23.6 48 24 C 48 24.4 48 24.6 48 25 C 48 25.4 48 25.6 48 26 C 48 26.4 48 26.6 48 27 C 48 27.4 48 27.6 48 28 C 48 28.4 48 28.6 48 29 C 48 29.4 48 29.6 48 30 C 48 30.4 48 30.6 48 31 C 48 31.4 48 31.6 48 32 C 48 32.4 48 32.6 48 33 C 48 33.4 48 33.6 48 34 C 48 34.4 48 34.6 48 35 C 48 35.4 48 35.6 48 36 C 48 36.4 48 36.6 48 37 C 48 37.4 48 37.6 48 38 C 48 38.4 48 38.6 48 39 C 48 39.4 48 39.6 48 40 C 48 40.4 48 40.6 48 41 C 48 41.4 48 41.6 48 42 C 48 42.4 48 42.6 48 43 C 48 43.4 48 43.6 48 44 C 48 44.4 48 44.6 48 45 C 48 45.4 48 45.6 48 46 C 48 46.4 48.2 46.8 48 47 C 47.8 47.2 47.4 47 47 47 C 46.6 47 46.4 47 46 47 C 45.6 47 45.4 47 45 47 C 44.6 47 44.4 47 44 47 C 43.6 47 43.4 47 43 47 C 42.6 47 42.4 47 42 47 C 41.6 47 41.4 47 41 47 C 40.6 47 40.4 47 40 47 C 39.6 47 39.4 47 39 47 C 38.6 47 38.4 47 38 47 C 37.6 47 37.4 47 37 47 C 36.6 47 36.4 47 36 47 C 35.6 47 35.4 47 35 47 C 34.6 47 34.4 47 34 47 C 33.6 47 33.4 47 33 47 C 32.6 47 32.4 47 32 47 C 31.6 47 31.4 47 31 47 C 30.6 47 30.4 47 30 47 C 29.6 47 29.4 47 29 47 C 28.6 47 28.4 47 28 47 C 27.6 47 27.4 47 27 47 C 26.6 47 26.4 47 26 47 C 25.6 47 25.4 47 25 47 C 24.6 47 24.4 47 24 47 C 23.6 47 23.4 47 23 47 C 22.6 47 22.4 47 22 47 C 21.6 47 21.4 47 21 47 C 20.6 47 20.4 47 20 47 C 19.6 47 19.4 47 19 47 C 18.6 47 18.4 47 18 47 C 17.6 47 17.4 47 17 47 C 16.6 47 16.4 47 16 47 C 15.6 47 15.4 47 15 47 C 14.6 47 14.4 47 14 47 C 13.6 47 13.4 47 13 47 C 12.6 47 12.4 47 12 47 C 11.6 47 11.4 47 11 47 C 10.6 47 10.4 47 10 47 C 9.6 47 9.4 47 9 47 C 8.6 47 8.4 47 8 47 C 7.6 47 7.4 47 7 47 C 6.6 47 6.4 47 6 47 C 5.6 47 5.4 47 5 47 C 4.6 47 4.4 47 4 47 C 3.6 47 3.4 47 3 47 C 2.6 47 2.4 47 2 47 C 1.6 47 1.4 47 1 47 C 0.6 47 0.2 47.2 0 47 C -0.2 46.8 3.01992e-08 46.4 0 46 C -1.74846e-08 45.6 3.01992e-08 45.4 0 45 C -1.74846e-08 44.6 3.01992e-08 44.4 0 44 C -1.74846e-08 43.6 3.01992e-08 43.4 0 43 C -1.74846e-08 42.6 3.01992e-08 42.4 0 42 C -1.74846e-08 41.6 3.01992e-08 41.4 0 41 C -1.74846e-08 40.6 3.01992e-08 40.4 0 40 C -1.74846e-08 39.6 3.01992e-08 39.4 0 39 C -1.74846e-08 38.6 3.01992e-08 38.4 0 38 C -1.74846e-08 37.6 3.01992e-08 37.4 0 37 C -1.74846e-08 36.6 3.01992e-08 36.4 0 36 C -1.74846e-08 35.6 3.01992e-08 35.4 0 35 C -1.74846e-08 34.6 3.01992e-08 34.4 0 34 C -1.74846e-08 33.6 3.01992e-08 33.4 0 33 C -1.74846e-08 32.6 3.01992e-08 32.4 0 32 C -1.74846e-08 31.6 3.01992e-08 31.4 0 31 C -1.74846e-08 30.6 3.01992e-08 30.4 0 30 C -1.74846e-08 29.6 3.01992e-08 29.4 0 29 C -1.74846e-08 28.6 3.01992e-08 28.4 0 28 C -1.74846e-08 27.6 3.01992e-08 27.4 0 27 C -1.74846e-08 26.6 3.01992e-08 26.4 0 26 C -1.74846e-08 25.6 3.01992e-08 25.4 0 25 C -1.74846e-08 24.6 3.01992e-08 24.4 0 24 C -1.74846e-08 23.6 3.01992e-08 23.4 0 23 C -1.74846e-08 22.6 3.01992e-08 22.4 0 22 C -1.74846e-08 21.6 3.01992e-08 21.4 0 21 C -1.74846e-08 20.6 3.01992e-08 20.4 0 20 C -1.74846e-08 19.6 3.01992e-08 19.4 0 19 C -1.74846e-08 18.6 3.01992e-08 18.4 0 18 C -1.74846e-08 17.6 3.01992e-08 17.4 0 17 C -1.74846e-08 16.6 3.01992e-08 16.4 0 16 C -1.74846e-08 15.6 3.01992e-08 15.4 0 15 C -1.74846e-08 14.6 3.01992e-08 14.4 0 14 C -1.74846e-08 13.6 3.01992e-08 13.4 0 13 C -1.74846e-08 12.6 3.01992e-08 12.4 0 12 C -1.74846e-08 11.6 3.01992e-08 11.4 0 11 C -1.74846e-08 10.6 3.01992e-08 10.4 0 10 C -1.74846e-08 9.6 3.01992e-08 9.4 0 9 C -1.74846e-08 8.6 3.01992e-08 8.4 0 8 C -1.74846e-08 7.6 3.01992e-08 7.4 0 7 C -1.74846e-08 6.6 3.01992e-08 6.4 0 6 C -1.74846e-08 5.6 3.01992e-08 5.4 0 5 C -1.74846e-08 4.6 3.01992e-08 4.4 0 4 C -1.74846e-08 3.6 3.01992e-08 3.4 0 3 C -1.74846e-08 2.6 3.01992e-08 2.4 0 2 C -1.74846e-08 1.6 3.01992e-08 1.4 0 1 C -1.74846e-08 0.6 -0.2 0.2 0 0 " fill = "rgb(255, 255, 255)" stroke = "rgb(255, 255, 255)" stroke-width = "0"/>
    <path d="M 17.25 1.25 C 17.45 1.05 17.65 1.05 18 1 C 18.35 0.95 18.6 1 19 1 C 19.4 1 19.65 0.95 20 1 C 20.35 1.05 20.5 1.1 20.75 1.25 C 21 1.4 21.05 1.55 21.25 1.75 C 21.45 1.95 21.6 2 21.75 2.25 C 21.9 2.5 22.1 2.9 22 3 C 21.9 3.1 21.5 2.9 21.25 2.75 C 21 2.6 21 2.4 20.75 2.25 C 20.5 2.1 20.35 2.05 20 2 C 19.65 1.95 19.4 2 19 2 C 18.6 2 18.4 2 18 2 C 17.6 2 17.15 2.15 17 2 C 16.85 1.85 17.05 1.45 17.25 1.25 " fill = "rgb(241, 253, 239)" stroke = "rgb(241, 253, 239)" stroke-width = "0"/>
    <path d="M 17 2 C 17.2 1.8 17.8 1.8 18 2 C 18.2 2.2 18.05 2.65 18 3 C 17.95 3.35 17.95 3.55 17.75 3.75 C 17.55 3.95 17.15 4.15 17 4 C 16.85 3.85 17 3.4 17 3 C 17 2.6 16.8 2.2 17 2 " fill = "rgb(120, 133, 112)" stroke = "rgb(120, 133, 112)" stroke-width = "0"/>
    <path d="M 18 2 C 18.2 1.8 18.75 1.85 19 2 C 19.25 2.15 19.1 2.5 19.25 2.75 C 19.4 3 19.55 3.05 19.75 3.25 C 19.95 3.45 20.05 3.55 20.25 3.75 C 20.45 3.95 20.55 4.05 20.75 4.25 C 20.95 4.45 21 4.6 21.25 4.75 C 21.5 4.9 21.8 4.8 22 5 C 22.2 5.2 22.05 5.55 22.25 5.75 C 22.45 5.95 22.65 5.95 23 6 C 23.35 6.05 23.65 6.05 24 6 C 24.35 5.95 24.55 5.95 24.75 5.75 C 24.95 5.55 24.8 5.2 25 5 C 25.2 4.8 25.55 4.95 25.75 4.75 C 25.95 4.55 25.8 4.2 26 4 C 26.2 3.8 26.55 3.95 26.75 3.75 C 26.95 3.55 26.75 3.15 27 3 C 27.25 2.85 27.75 2.85 28 3 C 28.25 3.15 28.05 3.55 28.25 3.75 C 28.45 3.95 28.85 3.75 29 4 C 29.15 4.25 28.95 4.65 29 5 C 29.05 5.35 29.1 5.5 29.25 5.75 C 29.4 6 29.55 6.05 29.75 6.25 C 29.95 6.45 30.05 6.55 30.25 6.75 C 30.45 6.95 30.55 7.05 30.75 7.25 C 30.95 7.45 31.05 7.55 31.25 7.75 C 31.45 7.95 31.55 8.05 31.75 8.25 C 31.95 8.45 32 8.6 32.25 8.75 C 32.5 8.9 32.8 8.8 33 9 C 33.2 9.2 33.05 9.55 33.25 9.75 C 33.45 9.95 33.65 9.95 34 10 C 34.35 10.05 34.75 9.85 35 10 C 35.25 10.15 35.1 10.5 35.25 10.75 C 35.4 11 35.55 11.05 35.75 11.25 C 35.95 11.45 36 11.6 36.25 11.75 C 36.5 11.9 36.65 11.95 37 12 C 37.35 12.05 37.65 12.05 38 12 C 38.35 11.95 38.5 11.9 38.75 11.75 C 39 11.6 39.05 11.45 39.25 11.25 C 39.45 11.05 39.6 11 39.75 10.75 C 39.9 10.5 39.75 10.15 40 10 C 40.25 9.85 40.6 10 41 10 C 41.4 10 41.6 10 42 10 C 42.4 10 42.6 10 43 10 C 43.4 10 43.8 9.8 44 10 C 44.2 10.2 44 10.6 44 11 C 44 11.4 44 11.6 44 12 C 44 12.4 44 12.6 44 13 C 44 13.4 44 13.6 44 14 C 44 14.4 44.15 14.75 44 15 C 43.85 15.25 43.45 15.05 43.25 15.25 C 43.05 15.45 43.05 15.65 43 16 C 42.95 16.35 43 16.6 43 17 C 43 17.4 42.95 17.65 43 18 C 43.05 18.35 43.05 18.55 43.25 18.75 C 43.45 18.95 43.8 18.8 44 19 C 44.2 19.2 44.05 19.55 44.25 19.75 C 44.45 19.95 44.8 19.8 45 20 C 45.2 20.2 45.05 20.55 45.25 20.75 C 45.45 20.95 45.85 20.75 46 21 C 46.15 21.25 46 21.6 46 22 C 46 22.4 46.2 22.8 46 23 C 45.8 23.2 45.35 22.95 45 23 C 44.65 23.05 44.5 23.1 44.25 23.25 C 44 23.4 43.95 23.55 43.75 23.75 C 43.55 23.95 43.4 24 43.25 24.25 C 43.1 24.5 43.2 24.8 43 25 C 42.8 25.2 42.45 25.05 42.25 25.25 C 42.05 25.45 42.05 25.65 42 26 C 41.95 26.35 42.15 26.75 42 27 C 41.85 27.25 41.5 27.1 41.25 27.25 C 41 27.4 40.95 27.55 40.75 27.75 C 40.55 27.95 40.4 28 40.25 28.25 C 40.1 28.5 40.05 28.65 40 29 C 39.95 29.35 40 29.6 40 30 C 40 30.4 40 30.6 40 31 C 40 31.4 39.95 31.65 40 32 C 40.05 32.35 40.05 32.55 40.25 32.75 C 40.45 32.95 40.8 32.8 41 33 C 41.2 33.2 41.05 33.55 41.25 33.75 C 41.45 33.95 41.85 33.75 42 34 C 42.15 34.25 42 34.6 42 35 C 42 35.4 42 35.6 42 36 C 42 36.4 42 36.6 42 37 C 42 37.4 42.2 37.8 42 38 C 41.8 38.2 41.4 38 41 38 C 40.6 38 40.4 38 40 38 C 39.6 38 39.4 38 39 38 C 38.6 38 38.4 38 38 38 C 37.6 38 37.25 38.15 37 38 C 36.75 37.85 36.95 37.45 36.75 37.25 C 36.55 37.05 36.35 37.05 36 37 C 35.65 36.95 35.35 36.95 35 37 C 34.65 37.05 34.5 37.1 34.25 37.25 C 34 37.4 33.95 37.55 33.75 37.75 C 33.55 37.95 33.45 38.05 33.25 38.25 C 33.05 38.45 32.95 38.55 32.75 38.75 C 32.55 38.95 32.45 39.05 32.25 39.25 C 32.05 39.45 31.95 39.55 31.75 39.75 C 31.55 39.95 31.4 40 31.25 40.25 C 31.1 40.5 31.1 40.7 31 41 C 30.9 41.3 30.95 41.55 30.75 41.75 C 30.55 41.95 30.35 41.95 30 42 C 29.65 42.05 29.4 42 29 42 C 28.6 42 28.25 42.15 28 42 C 27.75 41.85 27.95 41.45 27.75 41.25 C 27.55 41.05 27.35 41.05 27 41 C 26.65 40.95 26.35 40.95 26 41 C 25.65 41.05 25.45 41.05 25.25 41.25 C 25.05 41.45 25.2 41.8 25 42 C 24.8 42.2 24.45 42.05 24.25 42.25 C 24.05 42.45 24.05 42.65 24 43 C 23.95 43.35 24 43.6 24 44 C 24 44.4 24.2 44.8 24 45 C 23.8 45.2 23.4 45 23 45 C 22.6 45 22.25 45.15 22 45 C 21.75 44.85 21.95 44.45 21.75 44.25 C 21.55 44.05 21.2 44.2 21 44 C 20.8 43.8 20.9 43.5 20.75 43.25 C 20.6 43 20.45 42.95 20.25 42.75 C 20.05 42.55 19.95 42.45 19.75 42.25 C 19.55 42.05 19.45 41.95 19.25 41.75 C 19.05 41.55 18.95 41.45 18.75 41.25 C 18.55 41.05 18.45 40.95 18.25 40.75 C 18.05 40.55 18 40.4 17.75 40.25 C 17.5 40.1 17.2 40.2 17 40 C 16.8 39.8 16.95 39.45 16.75 39.25 C 16.55 39.05 16.2 39.2 16 39 C 15.8 38.8 15.9 38.4 15.75 38.25 C 15.6 38.1 15.45 38.15 15.25 38.25 C 15.05 38.35 14.95 38.55 14.75 38.75 C 14.55 38.95 14.4 39 14.25 39.25 C 14.1 39.5 14.25 39.85 14 40 C 13.75 40.15 13.25 40.15 13 40 C 12.75 39.85 12.9 39.5 12.75 39.25 C 12.6 39 12.45 38.95 12.25 38.75 C 12.05 38.55 12 38.4 11.75 38.25 C 11.5 38.1 11.15 38.25 11 38 C 10.85 37.75 11 37.4 11 37 C 11 36.6 11 36.4 11 36 C 11 35.6 11.05 35.35 11 35 C 10.95 34.65 10.95 34.45 10.75 34.25 C 10.55 34.05 10.35 34.05 10 34 C 9.65 33.95 9.4 34 9 34 C 8.6 34 8.25 34.15 8 34 C 7.75 33.85 7.95 33.45 7.75 33.25 C 7.55 33.05 7.35 33.05 7 33 C 6.65 32.95 6.4 33 6 33 C 5.6 33 5.4 33 5 33 C 4.6 33 4.4 33 4 33 C 3.6 33 3.25 33.15 3 33 C 2.75 32.85 2.9 32.5 2.75 32.25 C 2.6 32 2.4 32 2.25 31.75 C 2.1 31.5 2.05 31.35 2 31 C 1.95 30.65 1.85 30.25 2 30 C 2.15 29.75 2.5 29.9 2.75 29.75 C 3 29.6 3.05 29.45 3.25 29.25 C 3.45 29.05 3.55 28.95 3.75 28.75 C 3.95 28.55 4.05 28.45 4.25 28.25 C 4.45 28.05 4.6 28 4.75 27.75 C 4.9 27.5 4.8 27.2 5 27 C 5.2 26.8 5.55 26.95 5.75 26.75 C 5.95 26.55 5.8 26.2 6 26 C 6.2 25.8 6.55 25.95 6.75 25.75 C 6.95 25.55 6.95 25.35 7 25 C 7.05 24.65 7.05 24.35 7 24 C 6.95 23.65 6.9 23.5 6.75 23.25 C 6.6 23 6.45 22.95 6.25 22.75 C 6.05 22.55 5.95 22.45 5.75 22.25 C 5.55 22.05 5.45 21.95 5.25 21.75 C 5.05 21.55 5 21.4 4.75 21.25 C 4.5 21.1 4.2 21.2 4 21 C 3.8 20.8 3.95 20.45 3.75 20.25 C 3.55 20.05 3.15 20.25 3 20 C 2.85 19.75 3 19.4 3 19 C 3 18.6 2.85 18.25 3 18 C 3.15 17.75 3.55 17.95 3.75 17.75 C 3.95 17.55 3.75 17.15 4 17 C 4.25 16.85 4.6 17 5 17 C 5.4 17 5.6 17 6 17 C 6.4 17 6.6 17 7 17 C 7.4 17 7.65 17.05 8 17 C 8.35 16.95 8.55 16.95 8.75 16.75 C 8.95 16.55 8.8 16.2 9 16 C 9.2 15.8 9.55 15.95 9.75 15.75 C 9.95 15.55 9.95 15.35 10 15 C 10.05 14.65 10 14.4 10 14 C 10 13.6 10 13.4 10 13 C 10 12.6 10 12.4 10 12 C 10 11.6 9.8 11.2 10 11 C 10.2 10.8 10.75 10.85 11 11 C 11.25 11.15 11.05 11.55 11.25 11.75 C 11.45 11.95 11.7 12 12 12 C 12.3 12 12.55 11.95 12.75 11.75 C 12.95 11.55 12.8 11.2 13 11 C 13.2 10.8 13.5 10.9 13.75 10.75 C 14 10.6 14.05 10.45 14.25 10.25 C 14.45 10.05 14.6 10 14.75 9.75 C 14.9 9.5 14.95 9.35 15 9 C 15.05 8.65 14.95 8.35 15 8 C 15.05 7.65 15.1 7.5 15.25 7.25 C 15.4 7 15.6 7 15.75 6.75 C 15.9 6.5 15.95 6.35 16 6 C 16.05 5.65 15.85 5.25 16 5 C 16.15 4.75 16.55 4.95 16.75 4.75 C 16.95 4.55 16.8 4.2 17 4 C 17.2 3.8 17.55 3.95 17.75 3.75 C 17.95 3.55 17.95 3.35 18 3 C 18.05 2.65 17.8 2.2 18 2 " fill = "rgb(42, 34, 25)" stroke = "rgb(42, 34, 25)" stroke-width = "0"/>
    <path d="M 19 2 C 19.15 1.85 19.75 1.85 20 2 C 20.25 2.15 20.1 2.5 20.25 2.75 C 20.4 3 20.55 3.05 20.75 3.25 C 20.95 3.45 21 3.6 21.25 3.75 C 21.5 3.9 21.85 3.75 22 4 C 22.15 4.25 22.15 4.85 22 5 C 21.85 5.15 21.5 4.9 21.25 4.75 C 21 4.6 20.95 4.45 20.75 4.25 C 20.55 4.05 20.45 3.95 20.25 3.75 C 20.05 3.55 19.95 3.45 19.75 3.25 C 19.55 3.05 19.4 3 19.25 2.75 C 19.1 2.5 18.85 2.15 19 2 " fill = "rgb(109, 100, 89)" stroke = "rgb(109, 100, 89)" stroke-width = "0"/>
    <path d="M 20 2 C 20.1 1.9 20.5 2.1 20.75 2.25 C 21 2.4 21 2.6 21.25 2.75 C 21.5 2.9 21.85 2.75 22 3 C 22.15 3.25 22.15 3.85 22 4 C 21.85 4.15 21.5 3.9 21.25 3.75 C 21 3.6 20.95 3.45 20.75 3.25 C 20.55 3.05 20.4 3 20.25 2.75 C 20.1 2.5 19.9 2.1 20 2 " fill = "rgb(191, 216, 186)" stroke = "rgb(191, 216, 186)" stroke-width = "0"/>
    <path d="M 26.25 2.25 C 26.5 2.1 26.65 2.05 27 2 C 27.35 1.95 27.6 2 28 2 C 28.4 2 28.65 1.95 29 2 C 29.35 2.05 29.55 2.05 29.75 2.25 C 29.95 2.45 29.95 2.65 30 3 C 30.05 3.35 29.95 3.65 30 4 C 30.05 4.35 30.1 4.5 30.25 4.75 C 30.4 5 30.6 5 30.75 5.25 C 30.9 5.5 31.1 5.9 31 6 C 30.9 6.1 30.5 5.9 30.25 5.75 C 30 5.6 30 5.4 29.75 5.25 C 29.5 5.1 29.15 5.25 29 5 C 28.85 4.75 29.05 4.35 29 4 C 28.95 3.65 28.95 3.45 28.75 3.25 C 28.55 3.05 28.35 3.05 28 3 C 27.65 2.95 27.35 2.95 27 3 C 26.65 3.05 26.45 3.05 26.25 3.25 C 26.05 3.45 26.2 3.8 26 4 C 25.8 4.2 25.45 4.05 25.25 4.25 C 25.05 4.45 25.1 4.7 25 5 C 24.9 5.3 24.95 5.55 24.75 5.75 C 24.55 5.95 24.35 5.95 24 6 C 23.65 6.05 23.25 6.15 23 6 C 22.75 5.85 22.95 5.45 22.75 5.25 C 22.55 5.05 22.15 5.25 22 5 C 21.85 4.75 21.85 4.15 22 4 C 22.15 3.85 22.5 4.1 22.75 4.25 C 23 4.4 23.05 4.65 23.25 4.75 C 23.45 4.85 23.55 4.85 23.75 4.75 C 23.95 4.65 24.05 4.45 24.25 4.25 C 24.45 4.05 24.55 3.95 24.75 3.75 C 24.95 3.55 25.05 3.45 25.25 3.25 C 25.45 3.05 25.55 2.95 25.75 2.75 C 25.95 2.55 26 2.4 26.25 2.25 " fill = "rgb(241, 253, 239)" stroke = "rgb(241, 253, 239)" stroke-width = "0"/>
    <path d="M 26.25 3.25 C 26.45 3.05 26.9 2.9 27 3 C 27.1 3.1 26.95 3.55 26.75 3.75 C 26.55 3.95 26.1 4.1 26 4 C 25.9 3.9 26.05 3.45 26.25 3.25 " fill = "rgb(152, 172, 146)" stroke = "rgb(152, 172, 146)" stroke-width = "0"/>
    <path d="M 28 3 C 28.1 2.9 28.55 3.05 28.75 3.25 C 28.95 3.45 29.1 3.9 29 4 C 28.9 4.1 28.45 3.95 28.25 3.75 C 28.05 3.55 27.9 3.1 28 3 " fill = "rgb(109, 100, 89)" stroke = "rgb(109, 100, 89)" stroke-width = "0"/>
    <path d="M 16.25 4.25 C 16.45 4.05 16.9 3.9 17 4 C 17.1 4.1 16.95 4.55 16.75 4.75 C 16.55 4.95 16.1 5.1 16 5 C 15.9 4.9 16.05 4.45 16.25 4.25 " fill = "rgb(241, 253, 239)" stroke = "rgb(241, 253, 239)" stroke-width = "0"/>
    <path d="M 25.25 4.25 C 25.45 4.05 25.9 3.9 26 4 C 26.1 4.1 25.95 4.55 25.75 4.75 C 25.55 4.95 25.1 5.1 25 5 C 24.9 4.9 25.05 4.45 25.25 4.25 " fill = "rgb(191, 216, 186)" stroke = "rgb(191, 216, 186)" stroke-width = "0"/>
    <path d="M 18.25 5.25 C 18.45 5.05 18.85 4.85 19 5 C 19.15 5.15 19.05 5.65 19 6 C 18.95 6.35 18.9 6.5 18.75 6.75 C 18.6 7 18.4 7 18.25 7.25 C 18.1 7.5 18.05 7.65 18 8 C 17.95 8.35 18.05 8.65 18 9 C 17.95 9.35 17.9 9.5 17.75 9.75 C 17.6 10 17.45 10.05 17.25 10.25 C 17.05 10.45 17 10.6 16.75 10.75 C 16.5 10.9 16.1 11.1 16 11 C 15.9 10.9 16.1 10.5 16.25 10.25 C 16.4 10 16.6 10 16.75 9.75 C 16.9 9.5 16.95 9.35 17 9 C 17.05 8.65 16.95 8.35 17 8 C 17.05 7.65 17.1 7.5 17.25 7.25 C 17.4 7 17.6 7 17.75 6.75 C 17.9 6.5 17.9 6.3 18 6 C 18.1 5.7 18.05 5.45 18.25 5.25 " fill = "rgb(187, 111, 9)" stroke = "rgb(187, 111, 9)" stroke-width = "0"/>
    <path d="M 19 5 C 19.15 4.85 19.5 5.1 19.75 5.25 C 20 5.4 20.05 5.55 20.25 5.75 C 20.45 5.95 20.55 6.05 20.75 6.25 C 20.95 6.45 21.05 6.55 21.25 6.75 C 21.45 6.95 21.6 7 21.75 7.25 C 21.9 7.5 21.9 7.7 22 8 C 22.1 8.3 22.05 8.55 22.25 8.75 C 22.45 8.95 22.65 8.95 23 9 C 23.35 9.05 23.65 9.05 24 9 C 24.35 8.95 24.5 8.9 24.75 8.75 C 25 8.6 25.05 8.45 25.25 8.25 C 25.45 8.05 25.55 7.95 25.75 7.75 C 25.95 7.55 26 7.4 26.25 7.25 C 26.5 7.1 26.7 7 27 7 C 27.3 7 27.5 7.1 27.75 7.25 C 28 7.4 28.05 7.55 28.25 7.75 C 28.45 7.95 28.55 8.05 28.75 8.25 C 28.95 8.45 29.05 8.55 29.25 8.75 C 29.45 8.95 29.55 9.05 29.75 9.25 C 29.95 9.45 30.05 9.55 30.25 9.75 C 30.45 9.95 30.55 10.05 30.75 10.25 C 30.95 10.45 31.05 10.55 31.25 10.75 C 31.45 10.95 31.55 11.05 31.75 11.25 C 31.95 11.45 32.05 11.55 32.25 11.75 C 32.45 11.95 32.55 12.05 32.75 12.25 C 32.95 12.45 33.05 12.55 33.25 12.75 C 33.45 12.95 33.55 13.05 33.75 13.25 C 33.95 13.45 34 13.6 34.25 13.75 C 34.5 13.9 34.65 13.95 35 14 C 35.35 14.05 35.6 14 36 14 C 36.4 14 36.6 14 37 14 C 37.4 14 37.6 14 38 14 C 38.4 14 38.6 14 39 14 C 39.4 14 39.6 14 40 14 C 40.4 14 40.8 13.8 41 14 C 41.2 14.2 41.15 14.75 41 15 C 40.85 15.25 40.45 15.05 40.25 15.25 C 40.05 15.45 40.05 15.65 40 16 C 39.95 16.35 40 16.6 40 17 C 40 17.4 40 17.6 40 18 C 40 18.4 39.95 18.65 40 19 C 40.05 19.35 40.05 19.55 40.25 19.75 C 40.45 19.95 40.7 19.9 41 20 C 41.3 20.1 41.55 20.05 41.75 20.25 C 41.95 20.45 42 20.7 42 21 C 42 21.3 41.9 21.5 41.75 21.75 C 41.6 22 41.45 22.05 41.25 22.25 C 41.05 22.45 40.95 22.55 40.75 22.75 C 40.55 22.95 40.45 23.05 40.25 23.25 C 40.05 23.45 40 23.6 39.75 23.75 C 39.5 23.9 39.3 23.9 39 24 C 38.7 24.1 38.4 24.1 38.25 24.25 C 38.1 24.4 38.1 24.6 38.25 24.75 C 38.4 24.9 38.85 24.75 39 25 C 39.15 25.25 39 25.6 39 26 C 39 26.4 39.15 26.75 39 27 C 38.85 27.25 38.45 27.05 38.25 27.25 C 38.05 27.45 38.05 27.65 38 28 C 37.95 28.35 38 28.6 38 29 C 38 29.4 38 29.6 38 30 C 38 30.4 38 30.6 38 31 C 38 31.4 38 31.6 38 32 C 38 32.4 38 32.6 38 33 C 38 33.4 38.2 33.8 38 34 C 37.8 34.2 37.4 34 37 34 C 36.6 34 36.4 34 36 34 C 35.6 34 35.4 34 35 34 C 34.6 34 34.35 33.95 34 34 C 33.65 34.05 33.5 34.1 33.25 34.25 C 33 34.4 32.95 34.55 32.75 34.75 C 32.55 34.95 32.45 35.05 32.25 35.25 C 32.05 35.45 31.95 35.55 31.75 35.75 C 31.55 35.95 31.4 36 31.25 36.25 C 31.1 36.5 31.1 36.7 31 37 C 30.9 37.3 30.9 37.5 30.75 37.75 C 30.6 38 30.4 38 30.25 38.25 C 30.1 38.5 30.1 38.7 30 39 C 29.9 39.3 29.95 39.55 29.75 39.75 C 29.55 39.95 29.2 40.1 29 40 C 28.8 39.9 28.9 39.5 28.75 39.25 C 28.6 39 28.45 38.95 28.25 38.75 C 28.05 38.55 28 38.4 27.75 38.25 C 27.5 38.1 27.35 38.05 27 38 C 26.65 37.95 26.35 37.95 26 38 C 25.65 38.05 25.5 38.1 25.25 38.25 C 25 38.4 24.95 38.55 24.75 38.75 C 24.55 38.95 24.45 39.05 24.25 39.25 C 24.05 39.45 23.95 39.55 23.75 39.75 C 23.55 39.95 23.45 40.05 23.25 40.25 C 23.05 40.45 23 40.6 22.75 40.75 C 22.5 40.9 22.3 41 22 41 C 21.7 41 21.45 40.95 21.25 40.75 C 21.05 40.55 21.1 40.3 21 40 C 20.9 39.7 20.9 39.5 20.75 39.25 C 20.6 39 20.45 38.95 20.25 38.75 C 20.05 38.55 19.95 38.45 19.75 38.25 C 19.55 38.05 19.4 38 19.25 37.75 C 19.1 37.5 19.1 37.3 19 37 C 18.9 36.7 18.95 36.45 18.75 36.25 C 18.55 36.05 18.3 36.1 18 36 C 17.7 35.9 17.5 35.9 17.25 35.75 C 17 35.6 17 35.4 16.75 35.25 C 16.5 35.1 16.3 35 16 35 C 15.7 35 15.5 35.1 15.25 35.25 C 15 35.4 15 35.6 14.75 35.75 C 14.5 35.9 14.15 36.15 14 36 C 13.85 35.85 14 35.4 14 35 C 14 34.6 14.05 34.35 14 34 C 13.95 33.65 13.95 33.45 13.75 33.25 C 13.55 33.05 13.35 33.05 13 33 C 12.65 32.95 12.4 33 12 33 C 11.6 33 11.25 33.15 11 33 C 10.75 32.85 10.95 32.45 10.75 32.25 C 10.55 32.05 10.2 32.2 10 32 C 9.8 31.8 9.9 31.5 9.75 31.25 C 9.6 31 9.45 30.95 9.25 30.75 C 9.05 30.55 9 30.4 8.75 30.25 C 8.5 30.1 8.35 30.05 8 30 C 7.65 29.95 7.35 30.05 7 30 C 6.65 29.95 6.4 29.9 6.25 29.75 C 6.1 29.6 6.15 29.45 6.25 29.25 C 6.35 29.05 6.55 28.95 6.75 28.75 C 6.95 28.55 7.05 28.45 7.25 28.25 C 7.45 28.05 7.55 27.95 7.75 27.75 C 7.95 27.55 8.05 27.45 8.25 27.25 C 8.45 27.05 8.55 26.95 8.75 26.75 C 8.95 26.55 9.05 26.35 9.25 26.25 C 9.45 26.15 9.6 26.1 9.75 26.25 C 9.9 26.4 9.95 26.65 10 27 C 10.05 27.35 10 27.6 10 28 C 10 28.4 10 28.6 10 29 C 10 29.4 9.95 29.65 10 30 C 10.05 30.35 10.05 30.55 10.25 30.75 C 10.45 30.95 10.7 30.9 11 31 C 11.3 31.1 11.5 31.1 11.75 31.25 C 12 31.4 12 31.6 12.25 31.75 C 12.5 31.9 12.65 31.95 13 32 C 13.35 32.05 13.6 32 14 32 C 14.4 32 14.6 32 15 32 C 15.4 32 15.6 32 16 32 C 16.4 32 16.6 32 17 32 C 17.4 32 17.6 32 18 32 C 18.4 32 18.75 31.85 19 32 C 19.25 32.15 19.05 32.55 19.25 32.75 C 19.45 32.95 19.7 32.9 20 33 C 20.3 33.1 20.5 33.1 20.75 33.25 C 21 33.4 21 33.6 21.25 33.75 C 21.5 33.9 21.7 33.9 22 34 C 22.3 34.1 22.5 34.1 22.75 34.25 C 23 34.4 23 34.6 23.25 34.75 C 23.5 34.9 23.65 34.95 24 35 C 24.35 35.05 24.6 35 25 35 C 25.4 35 25.6 35 26 35 C 26.4 35 26.65 35.05 27 35 C 27.35 34.95 27.5 34.9 27.75 34.75 C 28 34.6 28.05 34.45 28.25 34.25 C 28.45 34.05 28.55 33.95 28.75 33.75 C 28.95 33.55 29 33.4 29.25 33.25 C 29.5 33.1 29.7 33.1 30 33 C 30.3 32.9 30.5 32.9 30.75 32.75 C 31 32.6 31 32.4 31.25 32.25 C 31.5 32.1 31.7 32.1 32 32 C 32.3 31.9 32.5 31.9 32.75 31.75 C 33 31.6 33.05 31.45 33.25 31.25 C 33.45 31.05 33.55 30.95 33.75 30.75 C 33.95 30.55 34.05 30.45 34.25 30.25 C 34.45 30.05 34.6 30 34.75 29.75 C 34.9 29.5 34.9 29.3 35 29 C 35.1 28.7 35.1 28.5 35.25 28.25 C 35.4 28 35.6 28 35.75 27.75 C 35.9 27.5 35.9 27.3 36 27 C 36.1 26.7 36.1 26.5 36.25 26.25 C 36.4 26 36.6 26 36.75 25.75 C 36.9 25.5 36.95 25.35 37 25 C 37.05 24.65 37 24.4 37 24 C 37 23.6 37 23.4 37 23 C 37 22.6 37.05 22.35 37 22 C 36.95 21.65 36.9 21.5 36.75 21.25 C 36.6 21 36.4 21 36.25 20.75 C 36.1 20.5 36.1 20.3 36 20 C 35.9 19.7 35.9 19.5 35.75 19.25 C 35.6 19 35.45 18.95 35.25 18.75 C 35.05 18.55 34.95 18.45 34.75 18.25 C 34.55 18.05 34.4 18 34.25 17.75 C 34.1 17.5 34.1 17.3 34 17 C 33.9 16.7 33.9 16.5 33.75 16.25 C 33.6 16 33.45 15.95 33.25 15.75 C 33.05 15.55 33 15.4 32.75 15.25 C 32.5 15.1 32.3 15.1 32 15 C 31.7 14.9 31.5 14.9 31.25 14.75 C 31 14.6 31 14.4 30.75 14.25 C 30.5 14.1 30.3 14.1 30 14 C 29.7 13.9 29.5 13.9 29.25 13.75 C 29 13.6 29 13.4 28.75 13.25 C 28.5 13.1 28.35 13.05 28 13 C 27.65 12.95 27.4 13 27 13 C 26.6 13 26.35 13.05 26 13 C 25.65 12.95 25.5 12.9 25.25 12.75 C 25 12.6 25 12.4 24.75 12.25 C 24.5 12.1 24.3 12 24 12 C 23.7 12 23.5 12.1 23.25 12.25 C 23 12.4 23 12.6 22.75 12.75 C 22.5 12.9 22.3 12.9 22 13 C 21.7 13.1 21.5 13.1 21.25 13.25 C 21 13.4 21 13.6 20.75 13.75 C 20.5 13.9 20.3 13.9 20 14 C 19.7 14.1 19.5 14.1 19.25 14.25 C 19 14.4 19 14.6 18.75 14.75 C 18.5 14.9 18.3 14.9 18 15 C 17.7 15.1 17.5 15.1 17.25 15.25 C 17 15.4 16.95 15.55 16.75 15.75 C 16.55 15.95 16.4 16 16.25 16.25 C 16.1 16.5 16.1 16.7 16 17 C 15.9 17.3 15.9 17.5 15.75 17.75 C 15.6 18 15.4 18 15.25 18.25 C 15.1 18.5 15.05 18.65 15 19 C 14.95 19.35 15.05 19.65 15 20 C 14.95 20.35 14.9 20.6 14.75 20.75 C 14.6 20.9 14.45 20.85 14.25 20.75 C 14.05 20.65 14 20.4 13.75 20.25 C 13.5 20.1 13.3 20 13 20 C 12.7 20 12.45 20.05 12.25 20.25 C 12.05 20.45 12 20.7 12 21 C 12 21.3 12.05 21.55 12.25 21.75 C 12.45 21.95 12.65 21.95 13 22 C 13.35 22.05 13.8 21.8 14 22 C 14.2 22.2 14.2 22.8 14 23 C 13.8 23.2 13.35 22.95 13 23 C 12.65 23.05 12.45 23.05 12.25 23.25 C 12.05 23.45 12.05 23.65 12 24 C 11.95 24.35 12.2 24.8 12 25 C 11.8 25.2 11.4 25 11 25 C 10.6 25 10.2 25.2 10 25 C 9.8 24.8 10 24.4 10 24 C 10 23.6 10.05 23.35 10 23 C 9.95 22.65 9.95 22.45 9.75 22.25 C 9.55 22.05 9.35 22.05 9 22 C 8.65 21.95 8.25 22.15 8 22 C 7.75 21.85 7.9 21.5 7.75 21.25 C 7.6 21 7.35 20.95 7.25 20.75 C 7.15 20.55 7.1 20.4 7.25 20.25 C 7.4 20.1 7.65 20.05 8 20 C 8.35 19.95 8.6 20 9 20 C 9.4 20 9.65 20.05 10 20 C 10.35 19.95 10.5 19.9 10.75 19.75 C 11 19.6 11.05 19.45 11.25 19.25 C 11.45 19.05 11.55 18.95 11.75 18.75 C 11.95 18.55 12.05 18.45 12.25 18.25 C 12.45 18.05 12.6 18 12.75 17.75 C 12.9 17.5 12.95 17.35 13 17 C 13.05 16.65 13 16.4 13 16 C 13 15.6 13 15.4 13 15 C 13 14.6 12.8 14.2 13 14 C 13.2 13.8 13.65 14.05 14 14 C 14.35 13.95 14.55 13.95 14.75 13.75 C 14.95 13.55 14.8 13.2 15 13 C 15.2 12.8 15.55 12.95 15.75 12.75 C 15.95 12.55 15.95 12.35 16 12 C 16.05 11.65 15.85 11.25 16 11 C 16.15 10.75 16.5 10.9 16.75 10.75 C 17 10.6 17.05 10.45 17.25 10.25 C 17.45 10.05 17.6 10 17.75 9.75 C 17.9 9.5 17.95 9.35 18 9 C 18.05 8.65 17.95 8.35 18 8 C 18.05 7.65 18.1 7.5 18.25 7.25 C 18.4 7 18.6 7 18.75 6.75 C 18.9 6.5 18.95 6.35 19 6 C 19.05 5.65 18.85 5.15 19 5 " fill = "rgb(246, 172, 12)" stroke = "rgb(246, 172, 12)" stroke-width = "0"/>
    <path d="M 22 5 C 22.1 4.9 22.55 5.05 22.75 5.25 C 22.95 5.45 23.1 5.9 23 6 C 22.9 6.1 22.45 5.95 22.25 5.75 C 22.05 5.55 21.9 5.1 22 5 " fill = "rgb(120, 133, 112)" stroke = "rgb(120, 133, 112)" stroke-width = "0"/>
    <path d="M 29 5 C 29.1 4.9 29.5 5.1 29.75 5.25 C 30 5.4 30 5.6 30.25 5.75 C 30.5 5.9 30.8 5.8 31 6 C 31.2 6.2 31.1 6.5 31.25 6.75 C 31.4 7 31.55 7.05 31.75 7.25 C 31.95 7.45 32 7.6 32.25 7.75 C 32.5 7.9 32.85 7.75 33 8 C 33.15 8.25 33.15 8.85 33 9 C 32.85 9.15 32.5 8.9 32.25 8.75 C 32 8.6 31.95 8.45 31.75 8.25 C 31.55 8.05 31.45 7.95 31.25 7.75 C 31.05 7.55 30.95 7.45 30.75 7.25 C 30.55 7.05 30.45 6.95 30.25 6.75 C 30.05 6.55 29.95 6.45 29.75 6.25 C 29.55 6.05 29.4 6 29.25 5.75 C 29.1 5.5 28.9 5.1 29 5 " fill = "rgb(191, 216, 186)" stroke = "rgb(191, 216, 186)" stroke-width = "0"/>
    <path d="M 15.25 6.25 C 15.5 6.1 15.9 5.9 16 6 C 16.1 6.1 15.9 6.5 15.75 6.75 C 15.6 7 15.4 7 15.25 7.25 C 15.1 7.5 15.05 7.65 15 8 C 14.95 8.35 15.15 8.75 15 9 C 14.85 9.25 14.5 9.1 14.25 9.25 C 14 9.4 13.95 9.55 13.75 9.75 C 13.55 9.95 13.4 10 13.25 10.25 C 13.1 10.5 13.25 10.85 13 11 C 12.75 11.15 12.4 11 12 11 C 11.6 11 11.4 11 11 11 C 10.6 11 10.4 11 10 11 C 9.6 11 9.15 11.15 9 11 C 8.85 10.85 9.05 10.45 9.25 10.25 C 9.45 10.05 9.65 10.05 10 10 C 10.35 9.95 10.6 10 11 10 C 11.4 10 11.65 10.05 12 10 C 12.35 9.95 12.5 9.9 12.75 9.75 C 13 9.6 13.05 9.45 13.25 9.25 C 13.45 9.05 13.65 8.95 13.75 8.75 C 13.85 8.55 13.85 8.45 13.75 8.25 C 13.65 8.05 13.35 7.95 13.25 7.75 C 13.15 7.55 13.1 7.4 13.25 7.25 C 13.4 7.1 13.7 7.1 14 7 C 14.3 6.9 14.5 6.9 14.75 6.75 C 15 6.6 15 6.4 15.25 6.25 " fill = "rgb(241, 253, 239)" stroke = "rgb(241, 253, 239)" stroke-width = "0"/>
    <path d="M 26.25 6.25 C 26.5 6.1 26.7 6 27 6 C 27.3 6 27.5 6.1 27.75 6.25 C 28 6.4 28.05 6.55 28.25 6.75 C 28.45 6.95 28.55 7.05 28.75 7.25 C 28.95 7.45 29.05 7.55 29.25 7.75 C 29.45 7.95 29.55 8.05 29.75 8.25 C 29.95 8.45 30.05 8.55 30.25 8.75 C 30.45 8.95 30.55 9.05 30.75 9.25 C 30.95 9.45 31.05 9.55 31.25 9.75 C 31.45 9.95 31.55 10.05 31.75 10.25 C 31.95 10.45 32.05 10.55 32.25 10.75 C 32.45 10.95 32.55 11.05 32.75 11.25 C 32.95 11.45 33.05 11.55 33.25 11.75 C 33.45 11.95 33.55 12.05 33.75 12.25 C 33.95 12.45 34.05 12.55 34.25 12.75 C 34.45 12.95 34.6 13 34.75 13.25 C 34.9 13.5 35.1 13.9 35 14 C 34.9 14.1 34.5 13.9 34.25 13.75 C 34 13.6 33.95 13.45 33.75 13.25 C 33.55 13.05 33.45 12.95 33.25 12.75 C 33.05 12.55 32.95 12.45 32.75 12.25 C 32.55 12.05 32.45 11.95 32.25 11.75 C 32.05 11.55 31.95 11.45 31.75 11.25 C 31.55 11.05 31.45 10.95 31.25 10.75 C 31.05 10.55 30.95 10.45 30.75 10.25 C 30.55 10.05 30.45 9.95 30.25 9.75 C 30.05 9.55 29.95 9.45 29.75 9.25 C 29.55 9.05 29.45 8.95 29.25 8.75 C 29.05 8.55 28.95 8.45 28.75 8.25 C 28.55 8.05 28.45 7.95 28.25 7.75 C 28.05 7.55 28 7.4 27.75 7.25 C 27.5 7.1 27.3 7 27 7 C 26.7 7 26.5 7.1 26.25 7.25 C 26 7.4 25.95 7.55 25.75 7.75 C 25.55 7.95 25.45 8.05 25.25 8.25 C 25.05 8.45 25 8.6 24.75 8.75 C 24.5 8.9 24.1 9.1 24 9 C 23.9 8.9 24.1 8.5 24.25 8.25 C 24.4 8 24.55 7.95 24.75 7.75 C 24.95 7.55 25.05 7.45 25.25 7.25 C 25.45 7.05 25.55 6.95 25.75 6.75 C 25.95 6.55 26 6.4 26.25 6.25 " fill = "rgb(187, 111, 9)" stroke = "rgb(187, 111, 9)" stroke-width = "0"/>
    <path d="M 22 8 C 22.1 7.9 22.55 8.05 22.75 8.25 C 22.95 8.45 23.1 8.9 23 9 C 22.9 9.1 22.45 8.95 22.25 8.75 C 22.05 8.55 21.9 8.1 22 8 " fill = "rgb(187, 111, 9)" stroke = "rgb(187, 111, 9)" stroke-width = "0"/>
    <path d="M 33 8 C 33.15 7.85 33.55 8.05 33.75 8.25 C 33.95 8.45 34.15 8.85 34 9 C 33.85 9.15 33.2 9.2 33 9 C 32.8 8.8 32.85 8.15 33 8 " fill = "rgb(241, 253, 239)" stroke = "rgb(241, 253, 239)" stroke-width = "0"/>
    <path d="M 14.25 9.25 C 14.5 9.1 14.9 8.9 15 9 C 15.1 9.1 14.9 9.5 14.75 9.75 C 14.6 10 14.45 10.05 14.25 10.25 C 14.05 10.45 14 10.6 13.75 10.75 C 13.5 10.9 13.1 11.1 13 11 C 12.9 10.9 13.1 10.5 13.25 10.25 C 13.4 10 13.55 9.95 13.75 9.75 C 13.95 9.55 14 9.4 14.25 9.25 " fill = "rgb(152, 172, 146)" stroke = "rgb(152, 172, 146)" stroke-width = "0"/>
    <path d="M 19.25 9.25 C 19.4 9.1 19.7 9 20 9 C 20.3 9 20.6 9.1 20.75 9.25 C 20.9 9.4 20.9 9.6 20.75 9.75 C 20.6 9.9 20.3 10 20 10 C 19.7 10 19.4 9.9 19.25 9.75 C 19.1 9.6 19.1 9.4 19.25 9.25 " fill = "rgb(246, 213, 119)" stroke = "rgb(246, 213, 119)" stroke-width = "0"/>
    <path d="M 27.25 9.25 C 27.35 9.15 27.65 9.15 27.75 9.25 C 27.85 9.35 27.85 9.65 27.75 9.75 C 27.65 9.85 27.35 9.85 27.25 9.75 C 27.15 9.65 27.15 9.35 27.25 9.25 " fill = "rgb(246, 213, 119)" stroke = "rgb(246, 213, 119)" stroke-width = "0"/>
    <path d="M 33 9 C 33.15 8.85 33.8 8.8 34 9 C 34.2 9.2 34.15 9.85 34 10 C 33.85 10.15 33.45 9.95 33.25 9.75 C 33.05 9.55 32.85 9.15 33 9 " fill = "rgb(152, 172, 146)" stroke = "rgb(152, 172, 146)" stroke-width = "0"/>
    <path d="M 34 9 C 34.2 8.8 34.8 8.8 35 9 C 35.2 9.2 35.2 9.8 35 10 C 34.8 10.2 34.2 10.2 34 10 C 33.8 9.8 33.8 9.2 34 9 " fill = "rgb(191, 216, 186)" stroke = "rgb(191, 216, 186)" stroke-width = "0"/>
    <path d="M 35 9 C 35.15 8.85 35.5 9.1 35.75 9.25 C 36 9.4 36 9.6 36.25 9.75 C 36.5 9.9 36.65 9.95 37 10 C 37.35 10.05 37.65 10.05 38 10 C 38.35 9.95 38.5 9.9 38.75 9.75 C 39 9.6 39 9.4 39.25 9.25 C 39.5 9.1 39.85 8.85 40 9 C 40.15 9.15 40.15 9.75 40 10 C 39.85 10.25 39.5 10.1 39.25 10.25 C 39 10.4 39 10.6 38.75 10.75 C 38.5 10.9 38.35 10.95 38 11 C 37.65 11.05 37.35 11.05 37 11 C 36.65 10.95 36.5 10.9 36.25 10.75 C 36 10.6 36 10.4 35.75 10.25 C 35.5 10.1 35.15 10.25 35 10 C 34.85 9.75 34.85 9.15 35 9 " fill = "rgb(241, 253, 239)" stroke = "rgb(241, 253, 239)" stroke-width = "0"/>
    <path d="M 40 9 C 40.2 8.8 40.6 9 41 9 C 41.4 9 41.6 9 42 9 C 42.4 9 42.6 9 43 9 C 43.4 9 43.8 8.8 44 9 C 44.2 9.2 44.2 9.8 44 10 C 43.8 10.2 43.4 10 43 10 C 42.6 10 42.4 10 42 10 C 41.6 10 41.4 10 41 10 C 40.6 10 40.2 10.2 40 10 C 39.8 9.8 39.8 9.2 40 9 " fill = "rgb(191, 216, 186)" stroke = "rgb(191, 216, 186)" stroke-width = "0"/>
    <path d="M 44 9 C 44.15 8.85 44.55 9.05 44.75 9.25 C 44.95 9.45 45.15 9.85 45 10 C 44.85 10.15 44.2 10.2 44 10 C 43.8 9.8 43.85 9.15 44 9 " fill = "rgb(241, 253, 239)" stroke = "rgb(241, 253, 239)" stroke-width = "0"/>
    <path d="M 35 10 C 35.1 9.9 35.5 10.1 35.75 10.25 C 36 10.4 36 10.6 36.25 10.75 C 36.5 10.9 36.85 10.75 37 11 C 37.15 11.25 37.15 11.85 37 12 C 36.85 12.15 36.5 11.9 36.25 11.75 C 36 11.6 35.95 11.45 35.75 11.25 C 35.55 11.05 35.4 11 35.25 10.75 C 35.1 10.5 34.9 10.1 35 10 " fill = "rgb(120, 133, 112)" stroke = "rgb(120, 133, 112)" stroke-width = "0"/>
    <path d="M 39.25 10.25 C 39.5 10.1 39.9 9.9 40 10 C 40.1 10.1 39.9 10.5 39.75 10.75 C 39.6 11 39.45 11.05 39.25 11.25 C 39.05 11.45 39 11.6 38.75 11.75 C 38.5 11.9 38.15 12.15 38 12 C 37.85 11.85 37.85 11.25 38 11 C 38.15 10.75 38.5 10.9 38.75 10.75 C 39 10.6 39 10.4 39.25 10.25 " fill = "rgb(120, 133, 112)" stroke = "rgb(120, 133, 112)" stroke-width = "0"/>
    <path d="M 44 10 C 44.2 9.8 44.8 9.8 45 10 C 45.2 10.2 45.2 10.8 45 11 C 44.8 11.2 44.2 11.2 44 11 C 43.8 10.8 43.8 10.2 44 10 " fill = "rgb(152, 172, 146)" stroke = "rgb(152, 172, 146)" stroke-width = "0"/>
    <path d="M 9 11 C 9.2 10.8 9.8 10.8 10 11 C 10.2 11.2 10.2 11.8 10 12 C 9.8 12.2 9.2 12.2 9 12 C 8.8 11.8 8.8 11.2 9 11 " fill = "rgb(191, 216, 186)" stroke = "rgb(191, 216, 186)" stroke-width = "0"/>
    <path d="M 11 11 C 11.15 10.85 11.6 11 12 11 C 12.4 11 12.85 10.85 13 11 C 13.15 11.15 12.95 11.55 12.75 11.75 C 12.55 11.95 12.3 12 12 12 C 11.7 12 11.45 11.95 11.25 11.75 C 11.05 11.55 10.85 11.15 11 11 " fill = "rgb(109, 100, 89)" stroke = "rgb(109, 100, 89)" stroke-width = "0"/>
    <path d="M 37 11 C 37.2 10.8 37.8 10.8 38 11 C 38.2 11.2 38.2 11.8 38 12 C 37.8 12.2 37.2 12.2 37 12 C 36.8 11.8 36.8 11.2 37 11 " fill = "rgb(109, 100, 89)" stroke = "rgb(109, 100, 89)" stroke-width = "0"/>
    <path d="M 44 11 C 44.2 10.8 44.8 10.8 45 11 C 45.2 11.2 45 11.6 45 12 C 45 12.4 45 12.6 45 13 C 45 13.4 45 13.6 45 14 C 45 14.4 45.2 14.8 45 15 C 44.8 15.2 44.2 15.2 44 15 C 43.8 14.8 44 14.4 44 14 C 44 13.6 44 13.4 44 13 C 44 12.6 44 12.4 44 12 C 44 11.6 43.8 11.2 44 11 " fill = "rgb(120, 133, 112)" stroke = "rgb(120, 133, 112)" stroke-width = "0"/>
    <path d="M 9 12 C 9.2 11.8 9.8 11.8 10 12 C 10.2 12.2 10 12.6 10 13 C 10 13.4 10 13.6 10 14 C 10 14.4 10.2 14.8 10 15 C 9.8 15.2 9.2 15.2 9 15 C 8.8 14.8 9 14.4 9 14 C 9 13.6 9 13.4 9 13 C 9 12.6 8.8 12.2 9 12 " fill = "rgb(152, 172, 146)" stroke = "rgb(152, 172, 146)" stroke-width = "0"/>
    <path d="M 15.25 12.25 C 15.45 12.05 15.9 11.9 16 12 C 16.1 12.1 15.95 12.55 15.75 12.75 C 15.55 12.95 15.1 13.1 15 13 C 14.9 12.9 15.05 12.45 15.25 12.25 " fill = "rgb(187, 111, 9)" stroke = "rgb(187, 111, 9)" stroke-width = "0"/>
    <path d="M 23.25 12.25 C 23.5 12.1 23.7 12 24 12 C 24.3 12 24.5 12.1 24.75 12.25 C 25 12.4 25 12.6 25.25 12.75 C 25.5 12.9 25.65 12.95 26 13 C 26.35 13.05 26.6 13 27 13 C 27.4 13 27.65 12.95 28 13 C 28.35 13.05 28.5 13.1 28.75 13.25 C 29 13.4 29 13.6 29.25 13.75 C 29.5 13.9 29.7 13.9 30 14 C 30.3 14.1 30.5 14.1 30.75 14.25 C 31 14.4 31 14.6 31.25 14.75 C 31.5 14.9 31.7 14.9 32 15 C 32.3 15.1 32.5 15.1 32.75 15.25 C 33 15.4 33.05 15.55 33.25 15.75 C 33.45 15.95 33.6 16 33.75 16.25 C 33.9 16.5 33.9 16.7 34 17 C 34.1 17.3 34.1 17.5 34.25 17.75 C 34.4 18 34.55 18.05 34.75 18.25 C 34.95 18.45 35.05 18.55 35.25 18.75 C 35.45 18.95 35.6 19 35.75 19.25 C 35.9 19.5 35.9 19.7 36 20 C 36.1 20.3 36.1 20.5 36.25 20.75 C 36.4 21 36.6 21 36.75 21.25 C 36.9 21.5 36.95 21.65 37 22 C 37.05 22.35 37 22.6 37 23 C 37 23.4 37 23.6 37 24 C 37 24.4 37.05 24.65 37 25 C 36.95 25.35 36.9 25.5 36.75 25.75 C 36.6 26 36.4 26 36.25 26.25 C 36.1 26.5 36.1 26.7 36 27 C 35.9 27.3 35.9 27.5 35.75 27.75 C 35.6 28 35.4 28 35.25 28.25 C 35.1 28.5 35.1 28.7 35 29 C 34.9 29.3 34.9 29.5 34.75 29.75 C 34.6 30 34.45 30.05 34.25 30.25 C 34.05 30.45 33.95 30.55 33.75 30.75 C 33.55 30.95 33.45 31.05 33.25 31.25 C 33.05 31.45 33 31.6 32.75 31.75 C 32.5 31.9 32.3 31.9 32 32 C 31.7 32.1 31.5 32.1 31.25 32.25 C 31 32.4 31 32.6 30.75 32.75 C 30.5 32.9 30.3 32.9 30 33 C 29.7 33.1 29.5 33.1 29.25 33.25 C 29 33.4 28.95 33.55 28.75 33.75 C 28.55 33.95 28.45 34.05 28.25 34.25 C 28.05 34.45 28 34.6 27.75 34.75 C 27.5 34.9 27.35 34.95 27 35 C 26.65 35.05 26.4 35 26 35 C 25.6 35 25.4 35 25 35 C 24.6 35 24.35 35.05 24 35 C 23.65 34.95 23.5 34.9 23.25 34.75 C 23 34.6 23 34.4 22.75 34.25 C 22.5 34.1 22.3 34.1 22 34 C 21.7 33.9 21.5 33.9 21.25 33.75 C 21 33.6 21 33.4 20.75 33.25 C 20.5 33.1 20.3 33.1 20 33 C 19.7 32.9 19.45 32.95 19.25 32.75 C 19.05 32.55 18.85 32.15 19 32 C 19.15 31.85 19.6 32 20 32 C 20.4 32 20.65 32.05 21 32 C 21.35 31.95 21.55 31.95 21.75 31.75 C 21.95 31.55 21.8 31.2 22 31 C 22.2 30.8 22.55 30.95 22.75 30.75 C 22.95 30.55 22.95 30.35 23 30 C 23.05 29.65 23 29.4 23 29 C 23 28.6 23 28.4 23 28 C 23 27.6 23 27.4 23 27 C 23 26.6 23.05 26.35 23 26 C 22.95 25.65 22.95 25.45 22.75 25.25 C 22.55 25.05 22.35 25.05 22 25 C 21.65 24.95 21.25 25.15 21 25 C 20.75 24.85 20.95 24.45 20.75 24.25 C 20.55 24.05 20.35 24.05 20 24 C 19.65 23.95 19.2 24.2 19 24 C 18.8 23.8 18.85 23.25 19 23 C 19.15 22.75 19.55 22.95 19.75 22.75 C 19.95 22.55 19.95 22.35 20 22 C 20.05 21.65 20 21.4 20 21 C 20 20.6 19.85 20.25 20 20 C 20.15 19.75 20.55 19.95 20.75 19.75 C 20.95 19.55 21 19.3 21 19 C 21 18.7 20.95 18.45 20.75 18.25 C 20.55 18.05 20.2 18.2 20 18 C 19.8 17.8 19.95 17.45 19.75 17.25 C 19.55 17.05 19.3 17 19 17 C 18.7 17 18.45 17.05 18.25 17.25 C 18.05 17.45 18.2 17.8 18 18 C 17.8 18.2 17.45 18.05 17.25 18.25 C 17.05 18.45 17.05 18.65 17 19 C 16.95 19.35 17 19.6 17 20 C 17 20.4 17 20.6 17 21 C 17 21.4 17 21.6 17 22 C 17 22.4 17.2 22.8 17 23 C 16.8 23.2 16.4 23 16 23 C 15.6 23 15.4 23 15 23 C 14.6 23 14.2 23.2 14 23 C 13.8 22.8 14.05 22.35 14 22 C 13.95 21.65 13.95 21.45 13.75 21.25 C 13.55 21.05 13.35 21.05 13 21 C 12.65 20.95 12.15 21.15 12 21 C 11.85 20.85 12.05 20.45 12.25 20.25 C 12.45 20.05 12.7 20 13 20 C 13.3 20 13.5 20.1 13.75 20.25 C 14 20.4 14.05 20.65 14.25 20.75 C 14.45 20.85 14.6 20.9 14.75 20.75 C 14.9 20.6 14.95 20.35 15 20 C 15.05 19.65 14.95 19.35 15 19 C 15.05 18.65 15.1 18.5 15.25 18.25 C 15.4 18 15.6 18 15.75 17.75 C 15.9 17.5 15.9 17.3 16 17 C 16.1 16.7 16.1 16.5 16.25 16.25 C 16.4 16 16.55 15.95 16.75 15.75 C 16.95 15.55 17 15.4 17.25 15.25 C 17.5 15.1 17.7 15.1 18 15 C 18.3 14.9 18.5 14.9 18.75 14.75 C 19 14.6 19 14.4 19.25 14.25 C 19.5 14.1 19.7 14.1 20 14 C 20.3 13.9 20.5 13.9 20.75 13.75 C 21 13.6 21 13.4 21.25 13.25 C 21.5 13.1 21.7 13.1 22 13 C 22.3 12.9 22.5 12.9 22.75 12.75 C 23 12.6 23 12.4 23.25 12.25 " fill = "rgb(246, 213, 119)" stroke = "rgb(246, 213, 119)" stroke-width = "0"/>
    <path d="M 41.25 12.25 C 41.45 12.15 41.6 12.1 41.75 12.25 C 41.9 12.4 42 12.7 42 13 C 42 13.3 41.95 13.55 41.75 13.75 C 41.55 13.95 41.35 13.95 41 14 C 40.65 14.05 40.2 14.2 40 14 C 39.8 13.8 39.85 13.25 40 13 C 40.15 12.75 40.5 12.9 40.75 12.75 C 41 12.6 41.05 12.35 41.25 12.25 " fill = "rgb(187, 111, 9)" stroke = "rgb(187, 111, 9)" stroke-width = "0"/>
    <path d="M 14.25 13.25 C 14.45 13.05 14.9 12.9 15 13 C 15.1 13.1 14.95 13.55 14.75 13.75 C 14.55 13.95 14.1 14.1 14 14 C 13.9 13.9 14.05 13.45 14.25 13.25 " fill = "rgb(120, 78, 20)" stroke = "rgb(120, 78, 20)" stroke-width = "0"/>
    <path d="M 39.25 13.25 C 39.45 13.05 39.85 12.85 40 13 C 40.15 13.15 40.2 13.8 40 14 C 39.8 14.2 39.15 14.15 39 14 C 38.85 13.85 39.05 13.45 39.25 13.25 " fill = "rgb(120, 78, 20)" stroke = "rgb(120, 78, 20)" stroke-width = "0"/>
    <path d="M 12.25 14.25 C 12.45 14.05 12.85 13.85 13 14 C 13.15 14.15 13 14.6 13 15 C 13 15.4 13 15.6 13 16 C 13 16.4 13.05 16.65 13 17 C 12.95 17.35 12.9 17.5 12.75 17.75 C 12.6 18 12.45 18.05 12.25 18.25 C 12.05 18.45 11.95 18.55 11.75 18.75 C 11.55 18.95 11.45 19.05 11.25 19.25 C 11.05 19.45 11 19.6 10.75 19.75 C 10.5 19.9 10.35 19.95 10 20 C 9.65 20.05 9.4 20 9 20 C 8.6 20 8.35 19.95 8 20 C 7.65 20.05 7.4 20.1 7.25 20.25 C 7.1 20.4 7.15 20.55 7.25 20.75 C 7.35 20.95 7.6 21 7.75 21.25 C 7.9 21.5 8.1 21.9 8 22 C 7.9 22.1 7.5 21.9 7.25 21.75 C 7 21.6 6.95 21.45 6.75 21.25 C 6.55 21.05 6.4 21 6.25 20.75 C 6.1 20.5 6 20.3 6 20 C 6 19.7 6.05 19.45 6.25 19.25 C 6.45 19.05 6.65 19.05 7 19 C 7.35 18.95 7.6 19 8 19 C 8.4 19 8.65 19.05 9 19 C 9.35 18.95 9.5 18.9 9.75 18.75 C 10 18.6 10 18.4 10.25 18.25 C 10.5 18.1 10.7 18.1 11 18 C 11.3 17.9 11.55 17.95 11.75 17.75 C 11.95 17.55 11.95 17.35 12 17 C 12.05 16.65 12 16.4 12 16 C 12 15.6 11.95 15.35 12 15 C 12.05 14.65 12.05 14.45 12.25 14.25 " fill = "rgb(187, 111, 9)" stroke = "rgb(187, 111, 9)" stroke-width = "0"/>
    <path d="M 9 15 C 9.2 14.8 9.85 14.85 10 15 C 10.15 15.15 9.95 15.55 9.75 15.75 C 9.55 15.95 9.15 16.15 9 16 C 8.85 15.85 8.8 15.2 9 15 " fill = "rgb(191, 216, 186)" stroke = "rgb(191, 216, 186)" stroke-width = "0"/>
    <path d="M 40.25 15.25 C 40.45 15.05 40.85 14.85 41 15 C 41.15 15.15 41 15.6 41 16 C 41 16.4 41 16.6 41 17 C 41 17.4 40.95 17.65 41 18 C 41.05 18.35 41.1 18.5 41.25 18.75 C 41.4 19 41.55 19.05 41.75 19.25 C 41.95 19.45 42.05 19.55 42.25 19.75 C 42.45 19.95 42.6 20 42.75 20.25 C 42.9 20.5 42.95 20.65 43 21 C 43.05 21.35 43.15 21.75 43 22 C 42.85 22.25 42.5 22.1 42.25 22.25 C 42 22.4 41.95 22.55 41.75 22.75 C 41.55 22.95 41.45 23.05 41.25 23.25 C 41.05 23.45 40.95 23.55 40.75 23.75 C 40.55 23.95 40.4 24 40.25 24.25 C 40.1 24.5 40.1 24.7 40 25 C 39.9 25.3 39.95 25.55 39.75 25.75 C 39.55 25.95 39.15 26.15 39 26 C 38.85 25.85 39 25.4 39 25 C 39 24.6 38.85 24.25 39 24 C 39.15 23.75 39.5 23.9 39.75 23.75 C 40 23.6 40.05 23.45 40.25 23.25 C 40.45 23.05 40.55 22.95 40.75 22.75 C 40.95 22.55 41.05 22.45 41.25 22.25 C 41.45 22.05 41.6 22 41.75 21.75 C 41.9 21.5 42 21.3 42 21 C 42 20.7 41.95 20.45 41.75 20.25 C 41.55 20.05 41.3 20.1 41 20 C 40.7 19.9 40.45 19.95 40.25 19.75 C 40.05 19.55 40.05 19.35 40 19 C 39.95 18.65 40 18.4 40 18 C 40 17.6 40 17.4 40 17 C 40 16.6 39.95 16.35 40 16 C 40.05 15.65 40.05 15.45 40.25 15.25 " fill = "rgb(187, 111, 9)" stroke = "rgb(187, 111, 9)" stroke-width = "0"/>
    <path d="M 43.25 15.25 C 43.45 15.05 43.85 14.85 44 15 C 44.15 15.15 44.2 15.8 44 16 C 43.8 16.2 43.15 16.15 43 16 C 42.85 15.85 43.05 15.45 43.25 15.25 " fill = "rgb(152, 172, 146)" stroke = "rgb(152, 172, 146)" stroke-width = "0"/>
    <path d="M 44 15 C 44.2 14.8 44.85 14.85 45 15 C 45.15 15.15 44.95 15.55 44.75 15.75 C 44.55 15.95 44.15 16.15 44 16 C 43.85 15.85 43.8 15.2 44 15 " fill = "rgb(241, 253, 239)" stroke = "rgb(241, 253, 239)" stroke-width = "0"/>
    <path d="M 4.25 16.25 C 4.45 16.05 4.85 15.85 5 16 C 5.15 16.15 5.2 16.8 5 17 C 4.8 17.2 4.15 17.15 4 17 C 3.85 16.85 4.05 16.45 4.25 16.25 " fill = "rgb(241, 253, 239)" stroke = "rgb(241, 253, 239)" stroke-width = "0"/>
    <path d="M 5 16 C 5.2 15.8 5.6 16 6 16 C 6.4 16 6.6 16 7 16 C 7.4 16 7.6 16 8 16 C 8.4 16 8.85 15.85 9 16 C 9.15 16.15 8.95 16.55 8.75 16.75 C 8.55 16.95 8.35 16.95 8 17 C 7.65 17.05 7.4 17 7 17 C 6.6 17 6.4 17 6 17 C 5.6 17 5.2 17.2 5 17 C 4.8 16.8 4.8 16.2 5 16 " fill = "rgb(120, 133, 112)" stroke = "rgb(120, 133, 112)" stroke-width = "0"/>
    <path d="M 43 16 C 43.2 15.8 43.8 15.8 44 16 C 44.2 16.2 44 16.6 44 17 C 44 17.4 44.2 17.8 44 18 C 43.8 18.2 43.2 18.2 43 18 C 42.8 17.8 43 17.4 43 17 C 43 16.6 42.8 16.2 43 16 " fill = "rgb(191, 216, 186)" stroke = "rgb(191, 216, 186)" stroke-width = "0"/>
    <path d="M 2.25 17.25 C 2.45 17.05 2.85 16.85 3 17 C 3.15 17.15 3 17.6 3 18 C 3 18.4 3 18.6 3 19 C 3 19.4 3 19.6 3 20 C 3 20.4 3.15 20.85 3 21 C 2.85 21.15 2.45 20.95 2.25 20.75 C 2.05 20.55 2.05 20.35 2 20 C 1.95 19.65 2 19.4 2 19 C 2 18.6 1.95 18.35 2 18 C 2.05 17.65 2.05 17.45 2.25 17.25 " fill = "rgb(241, 253, 239)" stroke = "rgb(241, 253, 239)" stroke-width = "0"/>
    <path d="M 3 17 C 3.2 16.8 3.85 16.85 4 17 C 4.15 17.15 3.95 17.55 3.75 17.75 C 3.55 17.95 3.15 18.15 3 18 C 2.85 17.85 2.8 17.2 3 17 " fill = "rgb(191, 216, 186)" stroke = "rgb(191, 216, 186)" stroke-width = "0"/>
    <path d="M 11.25 17.25 C 11.45 17.05 11.9 16.9 12 17 C 12.1 17.1 11.95 17.55 11.75 17.75 C 11.55 17.95 11.1 18.1 11 18 C 10.9 17.9 11.05 17.45 11.25 17.25 " fill = "rgb(120, 78, 20)" stroke = "rgb(120, 78, 20)" stroke-width = "0"/>
    <path d="M 18.25 17.25 C 18.45 17.05 18.7 17 19 17 C 19.3 17 19.55 17.05 19.75 17.25 C 19.95 17.45 20.15 17.85 20 18 C 19.85 18.15 19.4 18 19 18 C 18.6 18 18.15 18.15 18 18 C 17.85 17.85 18.05 17.45 18.25 17.25 " fill = "rgb(172, 143, 83)" stroke = "rgb(172, 143, 83)" stroke-width = "0"/>
    <path d="M 24.25 17.25 C 24.4 17.1 24.6 17.1 24.75 17.25 C 24.9 17.4 25.15 17.85 25 18 C 24.85 18.15 24.15 18.15 24 18 C 23.85 17.85 24.1 17.4 24.25 17.25 " fill = "rgb(172, 143, 83)" stroke = "rgb(172, 143, 83)" stroke-width = "0"/>
    <path d="M 17.25 18.25 C 17.45 18.05 17.85 17.85 18 18 C 18.15 18.15 18.2 18.8 18 19 C 17.8 19.2 17.15 19.15 17 19 C 16.85 18.85 17.05 18.45 17.25 18.25 " fill = "rgb(246, 172, 12)" stroke = "rgb(246, 172, 12)" stroke-width = "0"/>
    <path d="M 18 18 C 18.2 17.8 18.6 18 19 18 C 19.4 18 19.8 17.8 20 18 C 20.2 18.2 20 18.6 20 19 C 20 19.4 20 19.6 20 20 C 20 20.4 20.15 20.75 20 21 C 19.85 21.25 19.45 21.05 19.25 21.25 C 19.05 21.45 19.25 21.85 19 22 C 18.75 22.15 18.2 22.2 18 22 C 17.8 21.8 18 21.4 18 21 C 18 20.6 18 20.4 18 20 C 18 19.6 18 19.4 18 19 C 18 18.6 17.8 18.2 18 18 " fill = "rgb(42, 34, 25)" stroke = "rgb(42, 34, 25)" stroke-width = "0"/>
    <path d="M 20 18 C 20.15 17.85 20.55 18.05 20.75 18.25 C 20.95 18.45 21.15 18.85 21 19 C 20.85 19.15 20.2 19.2 20 19 C 19.8 18.8 19.85 18.15 20 18 " fill = "rgb(187, 111, 9)" stroke = "rgb(187, 111, 9)" stroke-width = "0"/>
    <path d="M 23.25 18.25 C 23.45 18.05 23.9 17.9 24 18 C 24.1 18.1 23.95 18.55 23.75 18.75 C 23.55 18.95 23.1 19.1 23 19 C 22.9 18.9 23.05 18.45 23.25 18.25 " fill = "rgb(187, 111, 9)" stroke = "rgb(187, 111, 9)" stroke-width = "0"/>
    <path d="M 24 18 C 24.25 17.85 24.8 17.8 25 18 C 25.2 18.2 25 18.6 25 19 C 25 19.4 25 19.6 25 20 C 25 20.4 25 20.6 25 21 C 25 21.4 25.2 21.8 25 22 C 24.8 22.2 24.4 22 24 22 C 23.6 22 23.2 22.2 23 22 C 22.8 21.8 23 21.4 23 21 C 23 20.6 23 20.4 23 20 C 23 19.6 22.85 19.25 23 19 C 23.15 18.75 23.55 18.95 23.75 18.75 C 23.95 18.55 23.75 18.15 24 18 " fill = "rgb(42, 34, 25)" stroke = "rgb(42, 34, 25)" stroke-width = "0"/>
    <path d="M 25 18 C 25.15 17.85 25.55 18.05 25.75 18.25 C 25.95 18.45 26.15 18.85 26 19 C 25.85 19.15 25.2 19.2 25 19 C 24.8 18.8 24.85 18.15 25 18 " fill = "rgb(187, 111, 9)" stroke = "rgb(187, 111, 9)" stroke-width = "0"/>
    <path d="M 43 18 C 43.15 17.85 43.8 17.8 44 18 C 44.2 18.2 44.15 18.85 44 19 C 43.85 19.15 43.45 18.95 43.25 18.75 C 43.05 18.55 42.85 18.15 43 18 " fill = "rgb(147, 148, 143)" stroke = "rgb(147, 148, 143)" stroke-width = "0"/>
    <path d="M 44 18 C 44.15 17.85 44.5 18.1 44.75 18.25 C 45 18.4 45 18.6 45.25 18.75 C 45.5 18.9 45.7 18.9 46 19 C 46.3 19.1 46.55 19.05 46.75 19.25 C 46.95 19.45 46.95 19.65 47 20 C 47.05 20.35 47 20.6 47 21 C 47 21.4 47.05 21.65 47 22 C 46.95 22.35 46.95 22.55 46.75 22.75 C 46.55 22.95 46.15 23.15 46 23 C 45.85 22.85 46 22.4 46 22 C 46 21.6 46.05 21.35 46 21 C 45.95 20.65 45.95 20.45 45.75 20.25 C 45.55 20.05 45.2 20.2 45 20 C 44.8 19.8 44.95 19.45 44.75 19.25 C 44.55 19.05 44.15 19.25 44 19 C 43.85 18.75 43.85 18.15 44 18 " fill = "rgb(241, 253, 239)" stroke = "rgb(241, 253, 239)" stroke-width = "0"/>
    <path d="M 17 19 C 17.2 18.8 17.8 18.8 18 19 C 18.2 19.2 18.2 19.8 18 20 C 17.8 20.2 17.2 20.2 17 20 C 16.8 19.8 16.8 19.2 17 19 " fill = "rgb(187, 111, 9)" stroke = "rgb(187, 111, 9)" stroke-width = "0"/>
    <path d="M 20 19 C 20.2 18.8 20.85 18.85 21 19 C 21.15 19.15 20.95 19.55 20.75 19.75 C 20.55 19.95 20.15 20.15 20 20 C 19.85 19.85 19.8 19.2 20 19 " fill = "rgb(204, 144, 27)" stroke = "rgb(204, 144, 27)" stroke-width = "0"/>
    <path d="M 22.25 19.25 C 22.45 19.05 22.85 18.85 23 19 C 23.15 19.15 23 19.6 23 20 C 23 20.4 23 20.6 23 21 C 23 21.4 23 21.6 23 22 C 23 22.4 23.15 22.85 23 23 C 22.85 23.15 22.45 22.95 22.25 22.75 C 22.05 22.55 22.05 22.35 22 22 C 21.95 21.65 22 21.4 22 21 C 22 20.6 21.95 20.35 22 20 C 22.05 19.65 22.05 19.45 22.25 19.25 " fill = "rgb(172, 143, 83)" stroke = "rgb(172, 143, 83)" stroke-width = "0"/>
    <path d="M 25 19 C 25.2 18.8 25.85 18.85 26 19 C 26.15 19.15 25.95 19.55 25.75 19.75 C 25.55 19.95 25.15 20.15 25 20 C 24.85 19.85 24.8 19.2 25 19 " fill = "rgb(246, 172, 12)" stroke = "rgb(246, 172, 12)" stroke-width = "0"/>
    <path d="M 44 19 C 44.1 18.9 44.55 19.05 44.75 19.25 C 44.95 19.45 45.1 19.9 45 20 C 44.9 20.1 44.45 19.95 44.25 19.75 C 44.05 19.55 43.9 19.1 44 19 " fill = "rgb(152, 172, 146)" stroke = "rgb(152, 172, 146)" stroke-width = "0"/>
    <path d="M 3 20 C 3.15 19.85 3.55 20.05 3.75 20.25 C 3.95 20.45 4.15 20.85 4 21 C 3.85 21.15 3.2 21.2 3 21 C 2.8 20.8 2.85 20.15 3 20 " fill = "rgb(191, 216, 186)" stroke = "rgb(191, 216, 186)" stroke-width = "0"/>
    <path d="M 17 20 C 17.2 19.8 17.8 19.8 18 20 C 18.2 20.2 18 20.6 18 21 C 18 21.4 18.2 21.8 18 22 C 17.8 22.2 17.2 22.2 17 22 C 16.8 21.8 17 21.4 17 21 C 17 20.6 16.8 20.2 17 20 " fill = "rgb(109, 100, 89)" stroke = "rgb(109, 100, 89)" stroke-width = "0"/>
    <path d="M 45 20 C 45.1 19.9 45.55 20.05 45.75 20.25 C 45.95 20.45 46.1 20.9 46 21 C 45.9 21.1 45.45 20.95 45.25 20.75 C 45.05 20.55 44.9 20.1 45 20 " fill = "rgb(147, 148, 143)" stroke = "rgb(147, 148, 143)" stroke-width = "0"/>
    <path d="M 4 21 C 4.1 20.9 4.5 21.1 4.75 21.25 C 5 21.4 5.05 21.55 5.25 21.75 C 5.45 21.95 5.55 22.05 5.75 22.25 C 5.95 22.45 6.05 22.55 6.25 22.75 C 6.45 22.95 6.6 23 6.75 23.25 C 6.9 23.5 6.95 23.65 7 24 C 7.05 24.35 7.15 24.75 7 25 C 6.85 25.25 6.45 25.05 6.25 25.25 C 6.05 25.45 6.2 25.8 6 26 C 5.8 26.2 5.45 26.05 5.25 26.25 C 5.05 26.45 5.2 26.8 5 27 C 4.8 27.2 4.5 27.1 4.25 27.25 C 4 27.4 3.95 27.55 3.75 27.75 C 3.55 27.95 3.45 28.05 3.25 28.25 C 3.05 28.45 2.95 28.55 2.75 28.75 C 2.55 28.95 2.4 29 2.25 29.25 C 2.1 29.5 2.05 29.65 2 30 C 1.95 30.35 1.95 30.65 2 31 C 2.05 31.35 2.1 31.5 2.25 31.75 C 2.4 32 2.6 32 2.75 32.25 C 2.9 32.5 2.9 32.7 3 33 C 3.1 33.3 3.05 33.55 3.25 33.75 C 3.45 33.95 3.65 33.95 4 34 C 4.35 34.05 4.6 34 5 34 C 5.4 34 5.6 34 6 34 C 6.4 34 6.6 34 7 34 C 7.4 34 7.75 33.85 8 34 C 8.25 34.15 8.05 34.55 8.25 34.75 C 8.45 34.95 8.65 34.95 9 35 C 9.35 35.05 9.8 34.8 10 35 C 10.2 35.2 10.2 35.8 10 36 C 9.8 36.2 9.35 36.05 9 36 C 8.65 35.95 8.5 35.9 8.25 35.75 C 8 35.6 8 35.4 7.75 35.25 C 7.5 35.1 7.35 35.05 7 35 C 6.65 34.95 6.4 35 6 35 C 5.6 35 5.4 35 5 35 C 4.6 35 4.4 35 4 35 C 3.6 35 3.35 35.05 3 35 C 2.65 34.95 2.45 34.95 2.25 34.75 C 2.05 34.55 2.05 34.35 2 34 C 1.95 33.65 2.05 33.35 2 33 C 1.95 32.65 1.9 32.5 1.75 32.25 C 1.6 32 1.4 32 1.25 31.75 C 1.1 31.5 1.05 31.35 1 31 C 0.95 30.65 0.95 30.35 1 30 C 1.05 29.65 1.1 29.5 1.25 29.25 C 1.4 29 1.6 29 1.75 28.75 C 1.9 28.5 1.9 28.3 2 28 C 2.1 27.7 2.05 27.45 2.25 27.25 C 2.45 27.05 2.7 27.1 3 27 C 3.3 26.9 3.5 26.9 3.75 26.75 C 4 26.6 4.05 26.45 4.25 26.25 C 4.45 26.05 4.55 25.95 4.75 25.75 C 4.95 25.55 5.05 25.45 5.25 25.25 C 5.45 25.05 5.6 25 5.75 24.75 C 5.9 24.5 6 24.3 6 24 C 6 23.7 5.9 23.5 5.75 23.25 C 5.6 23 5.45 22.95 5.25 22.75 C 5.05 22.55 4.95 22.45 4.75 22.25 C 4.55 22.05 4.4 22 4.25 21.75 C 4.1 21.5 3.9 21.1 4 21 " fill = "rgb(241, 253, 239)" stroke = "rgb(241, 253, 239)" stroke-width = "0"/>
    <path d="M 12 21 C 12.15 20.85 12.65 20.95 13 21 C 13.35 21.05 13.55 21.05 13.75 21.25 C 13.95 21.45 14.15 21.85 14 22 C 13.85 22.15 13.35 22.05 13 22 C 12.65 21.95 12.45 21.95 12.25 21.75 C 12.05 21.55 11.85 21.15 12 21 " fill = "rgb(252, 150, 117)" stroke = "rgb(252, 150, 117)" stroke-width = "0"/>
    <path d="M 19.25 21.25 C 19.45 21.05 19.85 20.85 20 21 C 20.15 21.15 20.2 21.8 20 22 C 19.8 22.2 19.15 22.15 19 22 C 18.85 21.85 19.05 21.45 19.25 21.25 " fill = "rgb(120, 78, 20)" stroke = "rgb(120, 78, 20)" stroke-width = "0"/>
    <path d="M 43 21 C 43.15 20.85 43.6 21.1 43.75 21.25 C 43.9 21.4 43.9 21.6 43.75 21.75 C 43.6 21.9 43.15 22.15 43 22 C 42.85 21.85 42.85 21.15 43 21 " fill = "rgb(120, 78, 20)" stroke = "rgb(120, 78, 20)" stroke-width = "0"/>
    <path d="M 8 22 C 8.15 21.85 8.75 21.85 9 22 C 9.25 22.15 9.05 22.55 9.25 22.75 C 9.45 22.95 9.85 22.75 10 23 C 10.15 23.25 10 23.6 10 24 C 10 24.4 10.2 24.8 10 25 C 9.8 25.2 9.2 25.2 9 25 C 8.8 24.8 9.05 24.35 9 24 C 8.95 23.65 8.9 23.5 8.75 23.25 C 8.6 23 8.4 23 8.25 22.75 C 8.1 22.5 7.85 22.15 8 22 " fill = "rgb(120, 78, 20)" stroke = "rgb(120, 78, 20)" stroke-width = "0"/>
    <path d="M 9 22 C 9.1 21.9 9.55 22.05 9.75 22.25 C 9.95 22.45 10.1 22.9 10 23 C 9.9 23.1 9.45 22.95 9.25 22.75 C 9.05 22.55 8.9 22.1 9 22 " fill = "rgb(187, 111, 9)" stroke = "rgb(187, 111, 9)" stroke-width = "0"/>
    <path d="M 17 22 C 17.2 21.8 17.8 21.8 18 22 C 18.2 22.2 18.2 22.8 18 23 C 17.8 23.2 17.2 23.2 17 23 C 16.8 22.8 16.8 22.2 17 22 " fill = "rgb(136, 105, 55)" stroke = "rgb(136, 105, 55)" stroke-width = "0"/>
    <path d="M 18 22 C 18.2 21.8 18.8 21.8 19 22 C 19.2 22.2 19.2 22.8 19 23 C 18.8 23.2 18.2 23.2 18 23 C 17.8 22.8 17.8 22.2 18 22 " fill = "rgb(187, 111, 9)" stroke = "rgb(187, 111, 9)" stroke-width = "0"/>
    <path d="M 19 22 C 19.2 21.8 19.85 21.85 20 22 C 20.15 22.15 19.95 22.55 19.75 22.75 C 19.55 22.95 19.15 23.15 19 23 C 18.85 22.85 18.8 22.2 19 22 " fill = "rgb(246, 172, 12)" stroke = "rgb(246, 172, 12)" stroke-width = "0"/>
    <path d="M 23 22 C 23.2 21.8 23.8 21.8 24 22 C 24.2 22.2 24.2 22.8 24 23 C 23.8 23.2 23.2 23.2 23 23 C 22.8 22.8 22.8 22.2 23 22 " fill = "rgb(120, 78, 20)" stroke = "rgb(120, 78, 20)" stroke-width = "0"/>
    <path d="M 24 22 C 24.2 21.8 24.85 21.85 25 22 C 25.15 22.15 24.95 22.55 24.75 22.75 C 24.55 22.95 24.15 23.15 24 23 C 23.85 22.85 23.8 22.2 24 22 " fill = "rgb(187, 111, 9)" stroke = "rgb(187, 111, 9)" stroke-width = "0"/>
    <path d="M 12.25 23.25 C 12.45 23.05 12.85 22.85 13 23 C 13.15 23.15 13.2 23.8 13 24 C 12.8 24.2 12.15 24.15 12 24 C 11.85 23.85 12.05 23.45 12.25 23.25 " fill = "rgb(252, 150, 117)" stroke = "rgb(252, 150, 117)" stroke-width = "0"/>
    <path d="M 13 23 C 13.2 22.8 13.8 22.8 14 23 C 14.2 23.2 14.2 23.8 14 24 C 13.8 24.2 13.2 24.2 13 24 C 12.8 23.8 12.8 23.2 13 23 " fill = "rgb(172, 70, 133)" stroke = "rgb(172, 70, 133)" stroke-width = "0"/>
    <path d="M 14 23 C 14.2 22.8 14.6 23 15 23 C 15.4 23 15.6 23 16 23 C 16.4 23 16.8 22.8 17 23 C 17.2 23.2 17.2 23.8 17 24 C 16.8 24.2 16.4 24 16 24 C 15.6 24 15.4 24 15 24 C 14.6 24 14.2 24.2 14 24 C 13.8 23.8 13.8 23.2 14 23 " fill = "rgb(42, 34, 25)" stroke = "rgb(42, 34, 25)" stroke-width = "0"/>
    <path d="M 17 23 C 17.2 22.8 17.8 22.8 18 23 C 18.2 23.2 18.2 23.8 18 24 C 17.8 24.2 17.2 24.2 17 24 C 16.8 23.8 16.8 23.2 17 23 " fill = "rgb(15, 31, 108)" stroke = "rgb(15, 31, 108)" stroke-width = "0"/>
    <path d="M 18 23 C 18.2 22.8 18.8 22.8 19 23 C 19.2 23.2 19.2 23.8 19 24 C 18.8 24.2 18.2 24.2 18 24 C 17.8 23.8 17.8 23.2 18 23 " fill = "rgb(166, 158, 132)" stroke = "rgb(166, 158, 132)" stroke-width = "0"/>
    <path d="M 28.25 23.25 C 28.45 23.05 28.65 23.05 29 23 C 29.35 22.95 29.6 23 30 23 C 30.4 23 30.6 23 31 23 C 31.4 23 31.8 22.8 32 23 C 32.2 23.2 32.05 23.65 32 24 C 31.95 24.35 31.95 24.55 31.75 24.75 C 31.55 24.95 31.35 24.95 31 25 C 30.65 25.05 30.4 25 30 25 C 29.6 25 29.35 25.05 29 25 C 28.65 24.95 28.45 24.95 28.25 24.75 C 28.05 24.55 28 24.3 28 24 C 28 23.7 28.05 23.45 28.25 23.25 " fill = "rgb(255, 110, 134)" stroke = "rgb(255, 110, 134)" stroke-width = "0"/>
    <path d="M 32 23 C 32.15 22.85 32.55 23.05 32.75 23.25 C 32.95 23.45 33 23.7 33 24 C 33 24.3 32.9 24.5 32.75 24.75 C 32.6 25 32.45 25.05 32.25 25.25 C 32.05 25.45 31.95 25.65 31.75 25.75 C 31.55 25.85 31.4 25.9 31.25 25.75 C 31.1 25.6 30.9 25.2 31 25 C 31.1 24.8 31.55 24.95 31.75 24.75 C 31.95 24.55 31.95 24.35 32 24 C 32.05 23.65 31.85 23.15 32 23 " fill = "rgb(252, 150, 117)" stroke = "rgb(252, 150, 117)" stroke-width = "0"/>
    <path d="M 44.25 23.25 C 44.5 23.1 44.85 22.85 45 23 C 45.15 23.15 45.15 23.75 45 24 C 44.85 24.25 44.5 24.1 44.25 24.25 C 44 24.4 44 24.6 43.75 24.75 C 43.5 24.9 43.1 25.1 43 25 C 42.9 24.9 43.1 24.5 43.25 24.25 C 43.4 24 43.55 23.95 43.75 23.75 C 43.95 23.55 44 23.4 44.25 23.25 " fill = "rgb(120, 133, 112)" stroke = "rgb(120, 133, 112)" stroke-width = "0"/>
    <path d="M 12 24 C 12.2 23.8 12.85 23.85 13 24 C 13.15 24.15 12.95 24.55 12.75 24.75 C 12.55 24.95 12.15 25.15 12 25 C 11.85 24.85 11.8 24.2 12 24 " fill = "rgb(136, 105, 55)" stroke = "rgb(136, 105, 55)" stroke-width = "0"/>
    <path d="M 13 24 C 13.25 23.85 13.85 23.85 14 24 C 14.15 24.15 13.9 24.5 13.75 24.75 C 13.6 25 13.45 25.05 13.25 25.25 C 13.05 25.45 13 25.6 12.75 25.75 C 12.5 25.9 12.15 26.15 12 26 C 11.85 25.85 11.85 25.25 12 25 C 12.15 24.75 12.55 24.95 12.75 24.75 C 12.95 24.55 12.75 24.15 13 24 " fill = "rgb(57, 115, 160)" stroke = "rgb(57, 115, 160)" stroke-width = "0"/>
    <path d="M 14 24 C 14.25 23.85 14.6 24 15 24 C 15.4 24 15.6 24 16 24 C 16.4 24 16.75 23.85 17 24 C 17.25 24.15 17.05 24.55 17.25 24.75 C 17.45 24.95 17.8 24.8 18 25 C 18.2 25.2 18.1 25.5 18.25 25.75 C 18.4 26 18.65 26.05 18.75 26.25 C 18.85 26.45 18.85 26.55 18.75 26.75 C 18.65 26.95 18.4 27 18.25 27.25 C 18.1 27.5 18.1 27.7 18 28 C 17.9 28.3 17.9 28.5 17.75 28.75 C 17.6 29 17.4 29 17.25 29.25 C 17.1 29.5 17.25 29.85 17 30 C 16.75 30.15 16.4 30 16 30 C 15.6 30 15.4 30 15 30 C 14.6 30 14.25 30.15 14 30 C 13.75 29.85 13.9 29.5 13.75 29.25 C 13.6 29 13.45 28.95 13.25 28.75 C 13.05 28.55 13 28.4 12.75 28.25 C 12.5 28.1 12.15 28.25 12 28 C 11.85 27.75 12 27.4 12 27 C 12 26.6 11.85 26.25 12 26 C 12.15 25.75 12.5 25.9 12.75 25.75 C 13 25.6 13.05 25.45 13.25 25.25 C 13.45 25.05 13.6 25 13.75 24.75 C 13.9 24.5 13.75 24.15 14 24 " fill = "rgb(120, 180, 209)" stroke = "rgb(120, 180, 209)" stroke-width = "0"/>
    <path d="M 17 24 C 17.15 23.85 17.8 23.8 18 24 C 18.2 24.2 18.15 24.85 18 25 C 17.85 25.15 17.45 24.95 17.25 24.75 C 17.05 24.55 16.85 24.15 17 24 " fill = "rgb(51, 67, 114)" stroke = "rgb(51, 67, 114)" stroke-width = "0"/>
    <path d="M 18 24 C 18.2 23.8 18.6 24 19 24 C 19.4 24 19.8 23.8 20 24 C 20.2 24.2 20.2 24.8 20 25 C 19.8 25.2 19.4 25 19 25 C 18.6 25 18.2 25.2 18 25 C 17.8 24.8 17.8 24.2 18 24 " fill = "rgb(42, 34, 25)" stroke = "rgb(42, 34, 25)" stroke-width = "0"/>
    <path d="M 20 24 C 20.15 23.85 20.55 24.05 20.75 24.25 C 20.95 24.45 21.15 24.85 21 25 C 20.85 25.15 20.2 25.2 20 25 C 19.8 24.8 19.85 24.15 20 24 " fill = "rgb(109, 100, 89)" stroke = "rgb(109, 100, 89)" stroke-width = "0"/>
    <path d="M 38.25 24.25 C 38.4 24.1 38.85 23.85 39 24 C 39.15 24.15 39.15 24.85 39 25 C 38.85 25.15 38.4 24.9 38.25 24.75 C 38.1 24.6 38.1 24.4 38.25 24.25 " fill = "rgb(255, 218, 18)" stroke = "rgb(255, 218, 18)" stroke-width = "0"/>
    <path d="M 44.25 24.25 C 44.5 24.1 44.9 23.9 45 24 C 45.1 24.1 44.9 24.5 44.75 24.75 C 44.6 25 44.45 25.05 44.25 25.25 C 44.05 25.45 44 25.6 43.75 25.75 C 43.5 25.9 43.15 26.15 43 26 C 42.85 25.85 42.85 25.25 43 25 C 43.15 24.75 43.5 24.9 43.75 24.75 C 44 24.6 44 24.4 44.25 24.25 " fill = "rgb(241, 253, 239)" stroke = "rgb(241, 253, 239)" stroke-width = "0"/>
    <path d="M 6.25 25.25 C 6.45 25.05 6.9 24.9 7 25 C 7.1 25.1 6.95 25.55 6.75 25.75 C 6.55 25.95 6.1 26.1 6 26 C 5.9 25.9 6.05 25.45 6.25 25.25 " fill = "rgb(120, 133, 112)" stroke = "rgb(120, 133, 112)" stroke-width = "0"/>
    <path d="M 9 25 C 9.25 24.85 9.6 25 10 25 C 10.4 25 10.8 24.8 11 25 C 11.2 25.2 11 25.6 11 26 C 11 26.4 11 26.6 11 27 C 11 27.4 11 27.6 11 28 C 11 28.4 11.2 28.8 11 29 C 10.8 29.2 10.2 29.2 10 29 C 9.8 28.8 10 28.4 10 28 C 10 27.6 10.05 27.35 10 27 C 9.95 26.65 9.9 26.4 9.75 26.25 C 9.6 26.1 9.45 26.15 9.25 26.25 C 9.05 26.35 8.95 26.55 8.75 26.75 C 8.55 26.95 8.45 27.05 8.25 27.25 C 8.05 27.45 7.95 27.55 7.75 27.75 C 7.55 27.95 7.45 28.05 7.25 28.25 C 7.05 28.45 6.95 28.55 6.75 28.75 C 6.55 28.95 6.35 29.05 6.25 29.25 C 6.15 29.45 6.1 29.6 6.25 29.75 C 6.4 29.9 6.65 29.95 7 30 C 7.35 30.05 7.65 29.95 8 30 C 8.35 30.05 8.5 30.1 8.75 30.25 C 9 30.4 9.05 30.55 9.25 30.75 C 9.45 30.95 9.6 31 9.75 31.25 C 9.9 31.5 10.1 31.9 10 32 C 9.9 32.1 9.5 31.9 9.25 31.75 C 9 31.6 9 31.4 8.75 31.25 C 8.5 31.1 8.35 31.05 8 31 C 7.65 30.95 7.4 31 7 31 C 6.6 31 6.4 31 6 31 C 5.6 31 5.35 31.05 5 31 C 4.65 30.95 4.4 30.9 4.25 30.75 C 4.1 30.6 4.15 30.45 4.25 30.25 C 4.35 30.05 4.55 29.95 4.75 29.75 C 4.95 29.55 5.05 29.45 5.25 29.25 C 5.45 29.05 5.55 28.95 5.75 28.75 C 5.95 28.55 6.05 28.45 6.25 28.25 C 6.45 28.05 6.55 27.95 6.75 27.75 C 6.95 27.55 7.05 27.45 7.25 27.25 C 7.45 27.05 7.55 26.95 7.75 26.75 C 7.95 26.55 8.05 26.45 8.25 26.25 C 8.45 26.05 8.6 26 8.75 25.75 C 8.9 25.5 8.75 25.15 9 25 " fill = "rgb(187, 111, 9)" stroke = "rgb(187, 111, 9)" stroke-width = "0"/>
    <path d="M 11 25 C 11.2 24.8 11.8 24.8 12 25 C 12.2 25.2 12.2 25.8 12 26 C 11.8 26.2 11.2 26.2 11 26 C 10.8 25.8 10.8 25.2 11 25 " fill = "rgb(172, 143, 83)" stroke = "rgb(172, 143, 83)" stroke-width = "0"/>
    <path d="M 14.25 25.25 C 14.45 25.15 14.65 25.15 14.75 25.25 C 14.85 25.35 14.85 25.55 14.75 25.75 C 14.65 25.95 14.4 26 14.25 26.25 C 14.1 26.5 14.1 26.7 14 27 C 13.9 27.3 13.9 27.6 13.75 27.75 C 13.6 27.9 13.4 27.9 13.25 27.75 C 13.1 27.6 13 27.3 13 27 C 13 26.7 13.1 26.5 13.25 26.25 C 13.4 26 13.55 25.95 13.75 25.75 C 13.95 25.55 14.05 25.35 14.25 25.25 " fill = "rgb(141, 207, 230)" stroke = "rgb(141, 207, 230)" stroke-width = "0"/>
    <path d="M 16.25 25.25 C 16.35 25.15 16.65 25.15 16.75 25.25 C 16.85 25.35 16.85 25.65 16.75 25.75 C 16.65 25.85 16.35 25.85 16.25 25.75 C 16.15 25.65 16.15 25.35 16.25 25.25 " fill = "rgb(141, 207, 230)" stroke = "rgb(141, 207, 230)" stroke-width = "0"/>
    <path d="M 18 25 C 18.15 24.85 18.6 25 19 25 C 19.4 25 19.6 25 20 25 C 20.4 25 20.8 24.8 21 25 C 21.2 25.2 20.95 25.65 21 26 C 21.05 26.35 21.05 26.55 21.25 26.75 C 21.45 26.95 21.85 26.75 22 27 C 22.15 27.25 22 27.6 22 28 C 22 28.4 22 28.6 22 29 C 22 29.4 22 29.6 22 30 C 22 30.4 22.2 30.8 22 31 C 21.8 31.2 21.4 31 21 31 C 20.6 31 20.4 31 20 31 C 19.6 31 19.35 31.05 19 31 C 18.65 30.95 18.4 30.9 18.25 30.75 C 18.1 30.6 18.15 30.45 18.25 30.25 C 18.35 30.05 18.65 29.95 18.75 29.75 C 18.85 29.55 18.85 29.35 18.75 29.25 C 18.65 29.15 18.45 29.15 18.25 29.25 C 18.05 29.35 18 29.6 17.75 29.75 C 17.5 29.9 17.1 30.1 17 30 C 16.9 29.9 17.1 29.5 17.25 29.25 C 17.4 29 17.6 29 17.75 28.75 C 17.9 28.5 17.9 28.3 18 28 C 18.1 27.7 18.1 27.5 18.25 27.25 C 18.4 27 18.65 26.95 18.75 26.75 C 18.85 26.55 18.85 26.45 18.75 26.25 C 18.65 26.05 18.4 26 18.25 25.75 C 18.1 25.5 17.85 25.15 18 25 " fill = "rgb(57, 115, 160)" stroke = "rgb(57, 115, 160)" stroke-width = "0"/>
    <path d="M 21 25 C 21.2 24.8 21.8 24.8 22 25 C 22.2 25.2 22.2 25.8 22 26 C 21.8 26.2 21.2 26.2 21 26 C 20.8 25.8 20.8 25.2 21 25 " fill = "rgb(120, 133, 112)" stroke = "rgb(120, 133, 112)" stroke-width = "0"/>
    <path d="M 22 25 C 22.15 24.85 22.55 25.05 22.75 25.25 C 22.95 25.45 23.15 25.85 23 26 C 22.85 26.15 22.2 26.2 22 26 C 21.8 25.8 21.85 25.15 22 25 " fill = "rgb(204, 175, 113)" stroke = "rgb(204, 175, 113)" stroke-width = "0"/>
    <path d="M 42.25 25.25 C 42.45 25.05 42.85 24.85 43 25 C 43.15 25.15 43.2 25.8 43 26 C 42.8 26.2 42.15 26.15 42 26 C 41.85 25.85 42.05 25.45 42.25 25.25 " fill = "rgb(152, 172, 146)" stroke = "rgb(152, 172, 146)" stroke-width = "0"/>
    <path d="M 5.25 26.25 C 5.45 26.05 5.9 25.9 6 26 C 6.1 26.1 5.95 26.55 5.75 26.75 C 5.55 26.95 5.1 27.1 5 27 C 4.9 26.9 5.05 26.45 5.25 26.25 " fill = "rgb(152, 172, 146)" stroke = "rgb(152, 172, 146)" stroke-width = "0"/>
    <path d="M 11 26 C 11.2 25.8 11.8 25.8 12 26 C 12.2 26.2 12.2 26.8 12 27 C 11.8 27.2 11.2 27.2 11 27 C 10.8 26.8 10.8 26.2 11 26 " fill = "rgb(109, 100, 89)" stroke = "rgb(109, 100, 89)" stroke-width = "0"/>
    <path d="M 21 26 C 21.15 25.85 21.8 25.8 22 26 C 22.2 26.2 22.15 26.85 22 27 C 21.85 27.15 21.45 26.95 21.25 26.75 C 21.05 26.55 20.85 26.15 21 26 " fill = "rgb(51, 67, 114)" stroke = "rgb(51, 67, 114)" stroke-width = "0"/>
    <path d="M 22 26 C 22.2 25.8 22.8 25.8 23 26 C 23.2 26.2 23 26.6 23 27 C 23 27.4 23 27.6 23 28 C 23 28.4 23 28.6 23 29 C 23 29.4 23.2 29.8 23 30 C 22.8 30.2 22.2 30.2 22 30 C 21.8 29.8 22 29.4 22 29 C 22 28.6 22 28.4 22 28 C 22 27.6 22 27.4 22 27 C 22 26.6 21.8 26.2 22 26 " fill = "rgb(109, 100, 89)" stroke = "rgb(109, 100, 89)" stroke-width = "0"/>
    <path d="M 42 26 C 42.2 25.8 42.8 25.8 43 26 C 43.2 26.2 43.2 26.8 43 27 C 42.8 27.2 42.2 27.2 42 27 C 41.8 26.8 41.8 26.2 42 26 " fill = "rgb(191, 216, 186)" stroke = "rgb(191, 216, 186)" stroke-width = "0"/>
    <path d="M 4.25 27.25 C 4.5 27.1 4.9 26.9 5 27 C 5.1 27.1 4.9 27.5 4.75 27.75 C 4.6 28 4.45 28.05 4.25 28.25 C 4.05 28.45 3.95 28.55 3.75 28.75 C 3.55 28.95 3.45 29.05 3.25 29.25 C 3.05 29.45 3 29.6 2.75 29.75 C 2.5 29.9 2.1 30.1 2 30 C 1.9 29.9 2.1 29.5 2.25 29.25 C 2.4 29 2.55 28.95 2.75 28.75 C 2.95 28.55 3.05 28.45 3.25 28.25 C 3.45 28.05 3.55 27.95 3.75 27.75 C 3.95 27.55 4 27.4 4.25 27.25 " fill = "rgb(120, 133, 112)" stroke = "rgb(120, 133, 112)" stroke-width = "0"/>
    <path d="M 11 27 C 11.2 26.8 11.8 26.8 12 27 C 12.2 27.2 12 27.6 12 28 C 12 28.4 12.2 28.8 12 29 C 11.8 29.2 11.2 29.2 11 29 C 10.8 28.8 11 28.4 11 28 C 11 27.6 10.8 27.2 11 27 " fill = "rgb(51, 67, 114)" stroke = "rgb(51, 67, 114)" stroke-width = "0"/>
    <path d="M 20.25 27.25 C 20.4 27.1 20.6 27.1 20.75 27.25 C 20.9 27.4 21 27.7 21 28 C 21 28.3 20.9 28.6 20.75 28.75 C 20.6 28.9 20.4 28.9 20.25 28.75 C 20.1 28.6 20 28.3 20 28 C 20 27.7 20.1 27.4 20.25 27.25 " fill = "rgb(120, 180, 209)" stroke = "rgb(120, 180, 209)" stroke-width = "0"/>
    <path d="M 38.25 27.25 C 38.45 27.05 38.9 26.9 39 27 C 39.1 27.1 38.95 27.55 38.75 27.75 C 38.55 27.95 38.1 28.1 38 28 C 37.9 27.9 38.05 27.45 38.25 27.25 " fill = "rgb(187, 111, 9)" stroke = "rgb(187, 111, 9)" stroke-width = "0"/>
    <path d="M 41.25 27.25 C 41.5 27.1 41.85 26.85 42 27 C 42.15 27.15 42.15 27.75 42 28 C 41.85 28.25 41.45 28.05 41.25 28.25 C 41.05 28.45 41.25 28.85 41 29 C 40.75 29.15 40.15 29.15 40 29 C 39.85 28.85 40.1 28.5 40.25 28.25 C 40.4 28 40.55 27.95 40.75 27.75 C 40.95 27.55 41 27.4 41.25 27.25 " fill = "rgb(109, 100, 89)" stroke = "rgb(109, 100, 89)" stroke-width = "0"/>
    <path d="M 42 27 C 42.2 26.8 42.8 26.8 43 27 C 43.2 27.2 43.05 27.65 43 28 C 42.95 28.35 42.9 28.5 42.75 28.75 C 42.6 29 42.4 29 42.25 29.25 C 42.1 29.5 42.05 29.65 42 30 C 41.95 30.35 42 30.6 42 31 C 42 31.4 41.95 31.65 42 32 C 42.05 32.35 42.1 32.5 42.25 32.75 C 42.4 33 42.6 33 42.75 33.25 C 42.9 33.5 42.95 33.65 43 34 C 43.05 34.35 43 34.6 43 35 C 43 35.4 43 35.6 43 36 C 43 36.4 43 36.6 43 37 C 43 37.4 43.05 37.65 43 38 C 42.95 38.35 42.95 38.55 42.75 38.75 C 42.55 38.95 42.15 39.15 42 39 C 41.85 38.85 42 38.4 42 38 C 42 37.6 42 37.4 42 37 C 42 36.6 42 36.4 42 36 C 42 35.6 42 35.4 42 35 C 42 34.6 42.05 34.35 42 34 C 41.95 33.65 41.95 33.45 41.75 33.25 C 41.55 33.05 41.15 33.25 41 33 C 40.85 32.75 41 32.4 41 32 C 41 31.6 41 31.4 41 31 C 41 30.6 41 30.4 41 30 C 41 29.6 40.85 29.25 41 29 C 41.15 28.75 41.55 28.95 41.75 28.75 C 41.95 28.55 41.95 28.35 42 28 C 42.05 27.65 41.8 27.2 42 27 " fill = "rgb(241, 253, 239)" stroke = "rgb(241, 253, 239)" stroke-width = "0"/>
    <path d="M 12 28 C 12.15 27.85 12.5 28.1 12.75 28.25 C 13 28.4 13.05 28.55 13.25 28.75 C 13.45 28.95 13.6 29 13.75 29.25 C 13.9 29.5 14.15 29.85 14 30 C 13.85 30.15 13.4 30 13 30 C 12.6 30 12.2 30.2 12 30 C 11.8 29.8 12 29.4 12 29 C 12 28.6 11.85 28.15 12 28 " fill = "rgb(57, 115, 160)" stroke = "rgb(57, 115, 160)" stroke-width = "0"/>
    <path d="M 41.25 28.25 C 41.45 28.05 41.9 27.9 42 28 C 42.1 28.1 41.95 28.55 41.75 28.75 C 41.55 28.95 41.1 29.1 41 29 C 40.9 28.9 41.05 28.45 41.25 28.25 " fill = "rgb(191, 216, 186)" stroke = "rgb(191, 216, 186)" stroke-width = "0"/>
    <path d="M 10 29 C 10.2 28.8 10.8 28.8 11 29 C 11.2 29.2 11 29.6 11 30 C 11 30.4 11.15 30.85 11 31 C 10.85 31.15 10.45 30.95 10.25 30.75 C 10.05 30.55 10.05 30.35 10 30 C 9.95 29.65 9.8 29.2 10 29 " fill = "rgb(204, 144, 27)" stroke = "rgb(204, 144, 27)" stroke-width = "0"/>
    <path d="M 11 29 C 11.2 28.8 11.8 28.8 12 29 C 12.2 29.2 12.2 29.8 12 30 C 11.8 30.2 11.2 30.2 11 30 C 10.8 29.8 10.8 29.2 11 29 " fill = "rgb(42, 34, 25)" stroke = "rgb(42, 34, 25)" stroke-width = "0"/>
    <path d="M 18.25 29.25 C 18.45 29.15 18.65 29.15 18.75 29.25 C 18.85 29.35 18.85 29.55 18.75 29.75 C 18.65 29.95 18.35 30.05 18.25 30.25 C 18.15 30.45 18.1 30.6 18.25 30.75 C 18.4 30.9 18.85 30.75 19 31 C 19.15 31.25 19.2 31.8 19 32 C 18.8 32.2 18.4 32 18 32 C 17.6 32 17.4 32 17 32 C 16.6 32 16.4 32 16 32 C 15.6 32 15.4 32 15 32 C 14.6 32 14.25 32.15 14 32 C 13.75 31.85 13.95 31.45 13.75 31.25 C 13.55 31.05 13.3 31.1 13 31 C 12.7 30.9 12.45 30.95 12.25 30.75 C 12.05 30.55 11.85 30.15 12 30 C 12.15 29.85 12.6 30 13 30 C 13.4 30 13.75 29.85 14 30 C 14.25 30.15 14.05 30.55 14.25 30.75 C 14.45 30.95 14.65 30.95 15 31 C 15.35 31.05 15.65 31.05 16 31 C 16.35 30.95 16.55 30.95 16.75 30.75 C 16.95 30.55 16.8 30.2 17 30 C 17.2 29.8 17.5 29.9 17.75 29.75 C 18 29.6 18.05 29.35 18.25 29.25 " fill = "rgb(51, 67, 114)" stroke = "rgb(51, 67, 114)" stroke-width = "0"/>
    <path d="M 40 29 C 40.2 28.8 40.8 28.8 41 29 C 41.2 29.2 41.2 29.8 41 30 C 40.8 30.2 40.2 30.2 40 30 C 39.8 29.8 39.8 29.2 40 29 " fill = "rgb(147, 148, 143)" stroke = "rgb(147, 148, 143)" stroke-width = "0"/>
    <path d="M 11 30 C 11.2 29.8 11.75 29.85 12 30 C 12.25 30.15 12.05 30.55 12.25 30.75 C 12.45 30.95 12.85 30.75 13 31 C 13.15 31.25 13.15 31.85 13 32 C 12.85 32.15 12.5 31.9 12.25 31.75 C 12 31.6 12 31.4 11.75 31.25 C 11.5 31.1 11.15 31.25 11 31 C 10.85 30.75 10.8 30.2 11 30 " fill = "rgb(109, 100, 89)" stroke = "rgb(109, 100, 89)" stroke-width = "0"/>
    <path d="M 14 30 C 14.15 29.85 14.8 29.8 15 30 C 15.2 30.2 15.15 30.85 15 31 C 14.85 31.15 14.45 30.95 14.25 30.75 C 14.05 30.55 13.85 30.15 14 30 " fill = "rgb(11, 120, 182)" stroke = "rgb(11, 120, 182)" stroke-width = "0"/>
    <path d="M 15 30 C 15.2 29.8 15.8 29.8 16 30 C 16.2 30.2 16.2 30.8 16 31 C 15.8 31.2 15.2 31.2 15 31 C 14.8 30.8 14.8 30.2 15 30 " fill = "rgb(57, 115, 160)" stroke = "rgb(57, 115, 160)" stroke-width = "0"/>
    <path d="M 16 30 C 16.2 29.8 16.85 29.85 17 30 C 17.15 30.15 16.95 30.55 16.75 30.75 C 16.55 30.95 16.15 31.15 16 31 C 15.85 30.85 15.8 30.2 16 30 " fill = "rgb(11, 120, 182)" stroke = "rgb(11, 120, 182)" stroke-width = "0"/>
    <path d="M 22 30 C 22.2 29.8 22.85 29.85 23 30 C 23.15 30.15 22.95 30.55 22.75 30.75 C 22.55 30.95 22.15 31.15 22 31 C 21.85 30.85 21.8 30.2 22 30 " fill = "rgb(172, 143, 83)" stroke = "rgb(172, 143, 83)" stroke-width = "0"/>
    <path d="M 40 30 C 40.2 29.8 40.8 29.8 41 30 C 41.2 30.2 41 30.6 41 31 C 41 31.4 41.2 31.8 41 32 C 40.8 32.2 40.2 32.2 40 32 C 39.8 31.8 40 31.4 40 31 C 40 30.6 39.8 30.2 40 30 " fill = "rgb(120, 133, 112)" stroke = "rgb(120, 133, 112)" stroke-width = "0"/>
    <path d="M 13 31 C 13.15 30.85 13.55 31.05 13.75 31.25 C 13.95 31.45 14.15 31.85 14 32 C 13.85 32.15 13.2 32.2 13 32 C 12.8 31.8 12.85 31.15 13 31 " fill = "rgb(15, 31, 108)" stroke = "rgb(15, 31, 108)" stroke-width = "0"/>
    <path d="M 19 31 C 19.2 30.8 19.8 30.8 20 31 C 20.2 31.2 20.2 31.8 20 32 C 19.8 32.2 19.2 32.2 19 32 C 18.8 31.8 18.8 31.2 19 31 " fill = "rgb(15, 31, 108)" stroke = "rgb(15, 31, 108)" stroke-width = "0"/>
    <path d="M 20 31 C 20.2 30.8 20.8 30.8 21 31 C 21.2 31.2 21.2 31.8 21 32 C 20.8 32.2 20.2 32.2 20 32 C 19.8 31.8 19.8 31.2 20 31 " fill = "rgb(63, 57, 98)" stroke = "rgb(63, 57, 98)" stroke-width = "0"/>
    <path d="M 21 31 C 21.2 30.8 21.85 30.85 22 31 C 22.15 31.15 21.95 31.55 21.75 31.75 C 21.55 31.95 21.15 32.15 21 32 C 20.85 31.85 20.8 31.2 21 31 " fill = "rgb(204, 175, 113)" stroke = "rgb(204, 175, 113)" stroke-width = "0"/>
    <path d="M 10 32 C 10.1 31.9 10.55 32.05 10.75 32.25 C 10.95 32.45 11.1 32.9 11 33 C 10.9 33.1 10.45 32.95 10.25 32.75 C 10.05 32.55 9.9 32.1 10 32 " fill = "rgb(120, 78, 20)" stroke = "rgb(120, 78, 20)" stroke-width = "0"/>
    <path d="M 40 32 C 40.15 31.85 40.8 31.8 41 32 C 41.2 32.2 41.15 32.85 41 33 C 40.85 33.15 40.45 32.95 40.25 32.75 C 40.05 32.55 39.85 32.15 40 32 " fill = "rgb(147, 148, 143)" stroke = "rgb(147, 148, 143)" stroke-width = "0"/>
    <path d="M 3 33 C 3.15 32.85 3.6 33 4 33 C 4.4 33 4.6 33 5 33 C 5.4 33 5.6 33 6 33 C 6.4 33 6.65 32.95 7 33 C 7.35 33.05 7.55 33.05 7.75 33.25 C 7.95 33.45 8.15 33.85 8 34 C 7.85 34.15 7.4 34 7 34 C 6.6 34 6.4 34 6 34 C 5.6 34 5.4 34 5 34 C 4.6 34 4.35 34.05 4 34 C 3.65 33.95 3.45 33.95 3.25 33.75 C 3.05 33.55 2.85 33.15 3 33 " fill = "rgb(188, 185, 183)" stroke = "rgb(188, 185, 183)" stroke-width = "0"/>
    <path d="M 12 33 C 12.15 32.85 12.75 32.85 13 33 C 13.25 33.15 13.05 33.55 13.25 33.75 C 13.45 33.95 13.85 33.75 14 34 C 14.15 34.25 14 34.6 14 35 C 14 35.4 14 35.6 14 36 C 14 36.4 14.15 36.85 14 37 C 13.85 37.15 13.45 36.95 13.25 36.75 C 13.05 36.55 13.05 36.35 13 36 C 12.95 35.65 13.05 35.35 13 35 C 12.95 34.65 12.9 34.5 12.75 34.25 C 12.6 34 12.4 34 12.25 33.75 C 12.1 33.5 11.85 33.15 12 33 " fill = "rgb(120, 78, 20)" stroke = "rgb(120, 78, 20)" stroke-width = "0"/>
    <path d="M 13 33 C 13.1 32.9 13.55 33.05 13.75 33.25 C 13.95 33.45 14.1 33.9 14 34 C 13.9 34.1 13.45 33.95 13.25 33.75 C 13.05 33.55 12.9 33.1 13 33 " fill = "rgb(187, 111, 9)" stroke = "rgb(187, 111, 9)" stroke-width = "0"/>
    <path d="M 41 33 C 41.1 32.9 41.55 33.05 41.75 33.25 C 41.95 33.45 42.1 33.9 42 34 C 41.9 34.1 41.45 33.95 41.25 33.75 C 41.05 33.55 40.9 33.1 41 33 " fill = "rgb(120, 133, 112)" stroke = "rgb(120, 133, 112)" stroke-width = "0"/>
    <path d="M 8 34 C 8.15 33.85 8.8 33.8 9 34 C 9.2 34.2 9.15 34.85 9 35 C 8.85 35.15 8.45 34.95 8.25 34.75 C 8.05 34.55 7.85 34.15 8 34 " fill = "rgb(152, 172, 146)" stroke = "rgb(152, 172, 146)" stroke-width = "0"/>
    <path d="M 9 34 C 9.2 33.8 9.8 33.8 10 34 C 10.2 34.2 10.2 34.8 10 35 C 9.8 35.2 9.2 35.2 9 35 C 8.8 34.8 8.8 34.2 9 34 " fill = "rgb(120, 133, 112)" stroke = "rgb(120, 133, 112)" stroke-width = "0"/>
    <path d="M 10 34 C 10.15 33.85 10.55 34.05 10.75 34.25 C 10.95 34.45 11.15 34.85 11 35 C 10.85 35.15 10.2 35.2 10 35 C 9.8 34.8 9.85 34.15 10 34 " fill = "rgb(109, 100, 89)" stroke = "rgb(109, 100, 89)" stroke-width = "0"/>
    <path d="M 33.25 34.25 C 33.5 34.1 33.65 34.05 34 34 C 34.35 33.95 34.6 34 35 34 C 35.4 34 35.6 34 36 34 C 36.4 34 36.6 34 37 34 C 37.4 34 37.65 33.95 38 34 C 38.35 34.05 38.55 34.05 38.75 34.25 C 38.95 34.45 38.95 34.65 39 35 C 39.05 35.35 39.15 35.85 39 36 C 38.85 36.15 38.5 35.9 38.25 35.75 C 38 35.6 38 35.4 37.75 35.25 C 37.5 35.1 37.35 35.05 37 35 C 36.65 34.95 36.4 35 36 35 C 35.6 35 35.4 35 35 35 C 34.6 35 34.35 34.95 34 35 C 33.65 35.05 33.5 35.1 33.25 35.25 C 33 35.4 32.95 35.55 32.75 35.75 C 32.55 35.95 32.4 36 32.25 36.25 C 32.1 36.5 32.1 36.7 32 37 C 31.9 37.3 31.9 37.5 31.75 37.75 C 31.6 38 31.45 38.05 31.25 38.25 C 31.05 38.45 31 38.6 30.75 38.75 C 30.5 38.9 30.1 39.1 30 39 C 29.9 38.9 30.1 38.5 30.25 38.25 C 30.4 38 30.6 38 30.75 37.75 C 30.9 37.5 30.9 37.3 31 37 C 31.1 36.7 31.1 36.5 31.25 36.25 C 31.4 36 31.55 35.95 31.75 35.75 C 31.95 35.55 32.05 35.45 32.25 35.25 C 32.45 35.05 32.55 34.95 32.75 34.75 C 32.95 34.55 33 34.4 33.25 34.25 " fill = "rgb(187, 111, 9)" stroke = "rgb(187, 111, 9)" stroke-width = "0"/>
    <path d="M 10 35 C 10.2 34.8 10.8 34.8 11 35 C 11.2 35.2 11 35.6 11 36 C 11 36.4 11.2 36.8 11 37 C 10.8 37.2 10.2 37.2 10 37 C 9.8 36.8 10 36.4 10 36 C 10 35.6 9.8 35.2 10 35 " fill = "rgb(191, 216, 186)" stroke = "rgb(191, 216, 186)" stroke-width = "0"/>
    <path d="M 15.25 35.25 C 15.5 35.1 15.7 35 16 35 C 16.3 35 16.5 35.1 16.75 35.25 C 17 35.4 17 35.6 17.25 35.75 C 17.5 35.9 17.7 35.9 18 36 C 18.3 36.1 18.55 36.05 18.75 36.25 C 18.95 36.45 18.9 36.7 19 37 C 19.1 37.3 19.1 37.5 19.25 37.75 C 19.4 38 19.55 38.05 19.75 38.25 C 19.95 38.45 20.05 38.55 20.25 38.75 C 20.45 38.95 20.6 39 20.75 39.25 C 20.9 39.5 20.9 39.7 21 40 C 21.1 40.3 21.05 40.55 21.25 40.75 C 21.45 40.95 21.7 41 22 41 C 22.3 41 22.5 40.9 22.75 40.75 C 23 40.6 23.05 40.45 23.25 40.25 C 23.45 40.05 23.55 39.95 23.75 39.75 C 23.95 39.55 24.05 39.45 24.25 39.25 C 24.45 39.05 24.55 38.95 24.75 38.75 C 24.95 38.55 25 38.4 25.25 38.25 C 25.5 38.1 25.65 38.05 26 38 C 26.35 37.95 26.65 37.95 27 38 C 27.35 38.05 27.5 38.1 27.75 38.25 C 28 38.4 28.05 38.55 28.25 38.75 C 28.45 38.95 28.6 39 28.75 39.25 C 28.9 39.5 29.1 39.9 29 40 C 28.9 40.1 28.5 39.9 28.25 39.75 C 28 39.6 28 39.4 27.75 39.25 C 27.5 39.1 27.35 39.05 27 39 C 26.65 38.95 26.35 38.95 26 39 C 25.65 39.05 25.5 39.1 25.25 39.25 C 25 39.4 24.95 39.55 24.75 39.75 C 24.55 39.95 24.45 40.05 24.25 40.25 C 24.05 40.45 23.95 40.55 23.75 40.75 C 23.55 40.95 23.4 41 23.25 41.25 C 23.1 41.5 23.25 41.85 23 42 C 22.75 42.15 22.4 42 22 42 C 21.6 42 21.25 42.15 21 42 C 20.75 41.85 20.9 41.5 20.75 41.25 C 20.6 41 20.4 41 20.25 40.75 C 20.1 40.5 20.1 40.3 20 40 C 19.9 39.7 19.9 39.5 19.75 39.25 C 19.6 39 19.45 38.95 19.25 38.75 C 19.05 38.55 18.95 38.45 18.75 38.25 C 18.55 38.05 18.45 37.95 18.25 37.75 C 18.05 37.55 17.95 37.45 17.75 37.25 C 17.55 37.05 17.45 36.95 17.25 36.75 C 17.05 36.55 17 36.4 16.75 36.25 C 16.5 36.1 16.3 36 16 36 C 15.7 36 15.5 36.1 15.25 36.25 C 15 36.4 15 36.6 14.75 36.75 C 14.5 36.9 14.15 37.15 14 37 C 13.85 36.85 13.85 36.25 14 36 C 14.15 35.75 14.5 35.9 14.75 35.75 C 15 35.6 15 35.4 15.25 35.25 " fill = "rgb(187, 111, 9)" stroke = "rgb(187, 111, 9)" stroke-width = "0"/>
    <path d="M 39 35 C 39.15 34.85 39.6 35.1 39.75 35.25 C 39.9 35.4 39.9 35.6 39.75 35.75 C 39.6 35.9 39.15 36.15 39 36 C 38.85 35.85 38.85 35.15 39 35 " fill = "rgb(120, 78, 20)" stroke = "rgb(120, 78, 20)" stroke-width = "0"/>
    <path d="M 10 37 C 10.2 36.8 10.8 36.8 11 37 C 11.2 37.2 10.95 37.65 11 38 C 11.05 38.35 11.1 38.5 11.25 38.75 C 11.4 39 11.55 39.05 11.75 39.25 C 11.95 39.45 12 39.6 12.25 39.75 C 12.5 39.9 12.65 39.95 13 40 C 13.35 40.05 13.6 40 14 40 C 14.4 40 14.85 39.85 15 40 C 15.15 40.15 14.95 40.55 14.75 40.75 C 14.55 40.95 14.35 40.95 14 41 C 13.65 41.05 13.4 41 13 41 C 12.6 41 12.35 41.05 12 41 C 11.65 40.95 11.45 40.95 11.25 40.75 C 11.05 40.55 11.1 40.3 11 40 C 10.9 39.7 10.9 39.5 10.75 39.25 C 10.6 39 10.4 39 10.25 38.75 C 10.1 38.5 10.05 38.35 10 38 C 9.95 37.65 9.8 37.2 10 37 " fill = "rgb(241, 253, 239)" stroke = "rgb(241, 253, 239)" stroke-width = "0"/>
    <path d="M 34.25 37.25 C 34.5 37.1 34.85 36.85 35 37 C 35.15 37.15 35.15 37.75 35 38 C 34.85 38.25 34.5 38.1 34.25 38.25 C 34 38.4 33.95 38.55 33.75 38.75 C 33.55 38.95 33.45 39.05 33.25 39.25 C 33.05 39.45 32.95 39.55 32.75 39.75 C 32.55 39.95 32.4 40 32.25 40.25 C 32.1 40.5 32.05 40.65 32 41 C 31.95 41.35 32.15 41.75 32 42 C 31.85 42.25 31.45 42.05 31.25 42.25 C 31.05 42.45 31.25 42.85 31 43 C 30.75 43.15 30.4 43 30 43 C 29.6 43 29.35 43.05 29 43 C 28.65 42.95 28.45 42.95 28.25 42.75 C 28.05 42.55 27.85 42.15 28 42 C 28.15 41.85 28.6 42 29 42 C 29.4 42 29.65 42.05 30 42 C 30.35 41.95 30.55 41.95 30.75 41.75 C 30.95 41.55 30.9 41.3 31 41 C 31.1 40.7 31.1 40.5 31.25 40.25 C 31.4 40 31.55 39.95 31.75 39.75 C 31.95 39.55 32.05 39.45 32.25 39.25 C 32.45 39.05 32.55 38.95 32.75 38.75 C 32.95 38.55 33.05 38.45 33.25 38.25 C 33.45 38.05 33.55 37.95 33.75 37.75 C 33.95 37.55 34 37.4 34.25 37.25 " fill = "rgb(120, 133, 112)" stroke = "rgb(120, 133, 112)" stroke-width = "0"/>
    <path d="M 35 37 C 35.2 36.8 35.8 36.8 36 37 C 36.2 37.2 36.2 37.8 36 38 C 35.8 38.2 35.2 38.2 35 38 C 34.8 37.8 34.8 37.2 35 37 " fill = "rgb(191, 216, 186)" stroke = "rgb(191, 216, 186)" stroke-width = "0"/>
    <path d="M 36 37 C 36.15 36.85 36.55 37.05 36.75 37.25 C 36.95 37.45 37.15 37.85 37 38 C 36.85 38.15 36.2 38.2 36 38 C 35.8 37.8 35.85 37.15 36 37 " fill = "rgb(152, 172, 146)" stroke = "rgb(152, 172, 146)" stroke-width = "0"/>
    <path d="M 11 38 C 11.1 37.9 11.5 38.1 11.75 38.25 C 12 38.4 12.05 38.55 12.25 38.75 C 12.45 38.95 12.6 39 12.75 39.25 C 12.9 39.5 13.1 39.9 13 40 C 12.9 40.1 12.5 39.9 12.25 39.75 C 12 39.6 11.95 39.45 11.75 39.25 C 11.55 39.05 11.4 39 11.25 38.75 C 11.1 38.5 10.9 38.1 11 38 " fill = "rgb(120, 133, 112)" stroke = "rgb(120, 133, 112)" stroke-width = "0"/>
    <path d="M 15.25 38.25 C 15.45 38.15 15.6 38.1 15.75 38.25 C 15.9 38.4 16.1 38.8 16 39 C 15.9 39.2 15.45 39.05 15.25 39.25 C 15.05 39.45 15.25 39.85 15 40 C 14.75 40.15 14.15 40.15 14 40 C 13.85 39.85 14.1 39.5 14.25 39.25 C 14.4 39 14.55 38.95 14.75 38.75 C 14.95 38.55 15.05 38.35 15.25 38.25 " fill = "rgb(120, 133, 112)" stroke = "rgb(120, 133, 112)" stroke-width = "0"/>
    <path d="M 34.25 38.25 C 34.5 38.1 34.9 37.9 35 38 C 35.1 38.1 34.9 38.5 34.75 38.75 C 34.6 39 34.45 39.05 34.25 39.25 C 34.05 39.45 33.95 39.55 33.75 39.75 C 33.55 39.95 33.4 40 33.25 40.25 C 33.1 40.5 33.05 40.65 33 41 C 32.95 41.35 33.05 41.65 33 42 C 32.95 42.35 32.9 42.5 32.75 42.75 C 32.6 43 32.45 43.05 32.25 43.25 C 32.05 43.45 32 43.6 31.75 43.75 C 31.5 43.9 31.35 43.95 31 44 C 30.65 44.05 30.4 44 30 44 C 29.6 44 29.4 44 29 44 C 28.6 44 28.35 44.05 28 44 C 27.65 43.95 27.45 43.95 27.25 43.75 C 27.05 43.55 27.1 43.3 27 43 C 26.9 42.7 26.9 42.4 26.75 42.25 C 26.6 42.1 26.45 42.15 26.25 42.25 C 26.05 42.35 25.95 42.55 25.75 42.75 C 25.55 42.95 25.45 43.05 25.25 43.25 C 25.05 43.45 25 43.6 24.75 43.75 C 24.5 43.9 24.15 44.15 24 44 C 23.85 43.85 23.85 43.25 24 43 C 24.15 42.75 24.55 42.95 24.75 42.75 C 24.95 42.55 24.8 42.2 25 42 C 25.2 41.8 25.55 41.95 25.75 41.75 C 25.95 41.55 25.75 41.15 26 41 C 26.25 40.85 26.75 40.85 27 41 C 27.25 41.15 27.05 41.55 27.25 41.75 C 27.45 41.95 27.8 41.8 28 42 C 28.2 42.2 28.05 42.55 28.25 42.75 C 28.45 42.95 28.65 42.95 29 43 C 29.35 43.05 29.6 43 30 43 C 30.4 43 30.65 43.05 31 43 C 31.35 42.95 31.55 42.95 31.75 42.75 C 31.95 42.55 31.95 42.35 32 42 C 32.05 41.65 31.95 41.35 32 41 C 32.05 40.65 32.1 40.5 32.25 40.25 C 32.4 40 32.55 39.95 32.75 39.75 C 32.95 39.55 33.05 39.45 33.25 39.25 C 33.45 39.05 33.55 38.95 33.75 38.75 C 33.95 38.55 34 38.4 34.25 38.25 " fill = "rgb(241, 253, 239)" stroke = "rgb(241, 253, 239)" stroke-width = "0"/>
    <path d="M 36 38 C 36.15 37.85 36.8 37.8 37 38 C 37.2 38.2 37.15 38.85 37 39 C 36.85 39.15 36.45 38.95 36.25 38.75 C 36.05 38.55 35.85 38.15 36 38 " fill = "rgb(241, 253, 239)" stroke = "rgb(241, 253, 239)" stroke-width = "0"/>
    <path d="M 37 38 C 37.2 37.8 37.8 37.8 38 38 C 38.2 38.2 38.2 38.8 38 39 C 37.8 39.2 37.2 39.2 37 39 C 36.8 38.8 36.8 38.2 37 38 " fill = "rgb(81, 116, 66)" stroke = "rgb(81, 116, 66)" stroke-width = "0"/>
    <path d="M 38 38 C 38.2 37.8 38.6 38 39 38 C 39.4 38 39.8 37.8 40 38 C 40.2 38.2 40.2 38.8 40 39 C 39.8 39.2 39.4 39 39 39 C 38.6 39 38.2 39.2 38 39 C 37.8 38.8 37.8 38.2 38 38 " fill = "rgb(120, 133, 112)" stroke = "rgb(120, 133, 112)" stroke-width = "0"/>
    <path d="M 40 38 C 40.2 37.8 40.8 37.8 41 38 C 41.2 38.2 41.2 38.8 41 39 C 40.8 39.2 40.2 39.2 40 39 C 39.8 38.8 39.8 38.2 40 38 " fill = "rgb(81, 116, 66)" stroke = "rgb(81, 116, 66)" stroke-width = "0"/>
    <path d="M 41 38 C 41.2 37.8 41.8 37.8 42 38 C 42.2 38.2 42.2 38.8 42 39 C 41.8 39.2 41.2 39.2 41 39 C 40.8 38.8 40.8 38.2 41 38 " fill = "rgb(152, 172, 146)" stroke = "rgb(152, 172, 146)" stroke-width = "0"/>
    <path d="M 16 39 C 16.1 38.9 16.55 39.05 16.75 39.25 C 16.95 39.45 17.1 39.9 17 40 C 16.9 40.1 16.45 39.95 16.25 39.75 C 16.05 39.55 15.9 39.1 16 39 " fill = "rgb(81, 116, 66)" stroke = "rgb(81, 116, 66)" stroke-width = "0"/>
    <path d="M 17 40 C 17.15 39.85 17.5 40.1 17.75 40.25 C 18 40.4 18.05 40.55 18.25 40.75 C 18.45 40.95 18.55 41.05 18.75 41.25 C 18.95 41.45 19.05 41.55 19.25 41.75 C 19.45 41.95 19.55 42.05 19.75 42.25 C 19.95 42.45 20.05 42.55 20.25 42.75 C 20.45 42.95 20.6 43 20.75 43.25 C 20.9 43.5 21.15 43.85 21 44 C 20.85 44.15 20.25 44.15 20 44 C 19.75 43.85 19.95 43.45 19.75 43.25 C 19.55 43.05 19.2 43.2 19 43 C 18.8 42.8 18.9 42.5 18.75 42.25 C 18.6 42 18.45 41.95 18.25 41.75 C 18.05 41.55 18 41.4 17.75 41.25 C 17.5 41.1 17.15 41.25 17 41 C 16.85 40.75 16.85 40.15 17 40 " fill = "rgb(120, 133, 112)" stroke = "rgb(120, 133, 112)" stroke-width = "0"/>
    <path d="M 17 41 C 17.1 40.9 17.5 41.1 17.75 41.25 C 18 41.4 18.05 41.55 18.25 41.75 C 18.45 41.95 18.6 42 18.75 42.25 C 18.9 42.5 18.9 42.7 19 43 C 19.1 43.3 19.05 43.55 19.25 43.75 C 19.45 43.95 19.65 43.95 20 44 C 20.35 44.05 20.75 43.85 21 44 C 21.25 44.15 21.05 44.55 21.25 44.75 C 21.45 44.95 21.85 44.75 22 45 C 22.15 45.25 22.2 45.8 22 46 C 21.8 46.2 21.35 46.05 21 46 C 20.65 45.95 20.5 45.9 20.25 45.75 C 20 45.6 19.95 45.45 19.75 45.25 C 19.55 45.05 19.45 44.95 19.25 44.75 C 19.05 44.55 18.95 44.45 18.75 44.25 C 18.55 44.05 18.4 44 18.25 43.75 C 18.1 43.5 18.1 43.3 18 43 C 17.9 42.7 17.9 42.5 17.75 42.25 C 17.6 42 17.4 42 17.25 41.75 C 17.1 41.5 16.9 41.1 17 41 " fill = "rgb(241, 253, 239)" stroke = "rgb(241, 253, 239)" stroke-width = "0"/>
    <path d="M 25.25 41.25 C 25.45 41.05 25.9 40.9 26 41 C 26.1 41.1 25.95 41.55 25.75 41.75 C 25.55 41.95 25.1 42.1 25 42 C 24.9 41.9 25.05 41.45 25.25 41.25 " fill = "rgb(191, 216, 186)" stroke = "rgb(191, 216, 186)" stroke-width = "0"/>
    <path d="M 27 41 C 27.1 40.9 27.55 41.05 27.75 41.25 C 27.95 41.45 28.1 41.9 28 42 C 27.9 42.1 27.45 41.95 27.25 41.75 C 27.05 41.55 26.9 41.1 27 41 " fill = "rgb(152, 172, 146)" stroke = "rgb(152, 172, 146)" stroke-width = "0"/>
    <path d="M 21 42 C 21.15 41.85 21.6 42 22 42 C 22.4 42 22.85 41.85 23 42 C 23.15 42.15 22.95 42.55 22.75 42.75 C 22.55 42.95 22.3 43 22 43 C 21.7 43 21.45 42.95 21.25 42.75 C 21.05 42.55 20.85 42.15 21 42 " fill = "rgb(120, 78, 20)" stroke = "rgb(120, 78, 20)" stroke-width = "0"/>
    <path d="M 24.25 42.25 C 24.45 42.05 24.9 41.9 25 42 C 25.1 42.1 24.95 42.55 24.75 42.75 C 24.55 42.95 24.1 43.1 24 43 C 23.9 42.9 24.05 42.45 24.25 42.25 " fill = "rgb(120, 133, 112)" stroke = "rgb(120, 133, 112)" stroke-width = "0"/>
    <path d="M 31.25 42.25 C 31.45 42.05 31.9 41.9 32 42 C 32.1 42.1 31.95 42.55 31.75 42.75 C 31.55 42.95 31.1 43.1 31 43 C 30.9 42.9 31.05 42.45 31.25 42.25 " fill = "rgb(191, 216, 186)" stroke = "rgb(191, 216, 186)" stroke-width = "0"/>
    <path d="M 19 43 C 19.1 42.9 19.55 43.05 19.75 43.25 C 19.95 43.45 20.1 43.9 20 44 C 19.9 44.1 19.45 43.95 19.25 43.75 C 19.05 43.55 18.9 43.1 19 43 " fill = "rgb(191, 216, 186)" stroke = "rgb(191, 216, 186)" stroke-width = "0"/>
    <path d="M 21 44 C 21.1 43.9 21.55 44.05 21.75 44.25 C 21.95 44.45 22.1 44.9 22 45 C 21.9 45.1 21.45 44.95 21.25 44.75 C 21.05 44.55 20.9 44.1 21 44 " fill = "rgb(109, 100, 89)" stroke = "rgb(109, 100, 89)" stroke-width = "0"/>
    <path d="M 22 45 C 22.2 44.8 22.8 44.8 23 45 C 23.2 45.2 23.2 45.8 23 46 C 22.8 46.2 22.2 46.2 22 46 C 21.8 45.8 21.8 45.2 22 45 " fill = "rgb(191, 216, 186)" stroke = "rgb(191, 216, 186)" stroke-width = "0"/>
    <path d="M 23 45 C 23.2 44.8 23.65 44.95 24 45 C 24.35 45.05 24.6 45.1 24.75 45.25 C 24.9 45.4 24.9 45.6 24.75 45.75 C 24.6 45.9 24.35 45.95 24 46 C 23.65 46.05 23.2 46.2 23 46 C 22.8 45.8 22.8 45.2 23 45 " fill = "rgb(241, 253, 239)" stroke = "rgb(241, 253, 239)" stroke-width = "0"/>
</svg>
