<svg version="1.1" baseProfile = "full" width = "16" height = "25" xmlns = "http://www.w3.org/2000/svg">
    <path d="M 0 0 C 0.2 -0.2 0.6 -3.49691e-08 1 0 C 1.4 0 1.6 -3.49691e-08 2 0 C 2.4 0 2.6 -3.49691e-08 3 0 C 3.4 0 3.6 -3.49691e-08 4 0 C 4.4 0 4.6 -3.49691e-08 5 0 C 5.4 0 5.6 -3.49691e-08 6 0 C 6.4 0 6.6 -3.49691e-08 7 0 C 7.4 0 7.6 -3.49691e-08 8 0 C 8.4 0 8.6 -3.49691e-08 9 0 C 9.4 0 9.6 -3.49691e-08 10 0 C 10.4 0 10.6 -3.49691e-08 11 0 C 11.4 0 11.6 -3.49691e-08 12 0 C 12.4 0 12.6 -3.49691e-08 13 0 C 13.4 0 13.6 -3.49691e-08 14 0 C 14.4 0 14.6 -3.49691e-08 15 0 C 15.4 0 15.8 -0.2 16 0 C 16.2 0.2 16 0.6 16 1 C 16 1.4 16 1.6 16 2 C 16 2.4 16 2.6 16 3 C 16 3.4 16 3.6 16 4 C 16 4.4 16 4.6 16 5 C 16 5.4 16 5.6 16 6 C 16 6.4 16 6.6 16 7 C 16 7.4 16 7.6 16 8 C 16 8.4 16 8.6 16 9 C 16 9.4 16 9.6 16 10 C 16 10.4 16 10.6 16 11 C 16 11.4 16 11.6 16 12 C 16 12.4 16 12.6 16 13 C 16 13.4 16 13.6 16 14 C 16 14.4 16 14.6 16 15 C 16 15.4 16 15.6 16 16 C 16 16.4 16 16.6 16 17 C 16 17.4 16 17.6 16 18 C 16 18.4 16 18.6 16 19 C 16 19.4 16 19.6 16 20 C 16 20.4 16 20.6 16 21 C 16 21.4 16 21.6 16 22 C 16 22.4 16 22.6 16 23 C 16 23.4 16 23.6 16 24 C 16 24.4 16.2 24.8 16 25 C 15.8 25.2 15.4 25 15 25 C 14.6 25 14.4 25 14 25 C 13.6 25 13.4 25 13 25 C 12.6 25 12.4 25 12 25 C 11.6 25 11.4 25 11 25 C 10.6 25 10.4 25 10 25 C 9.6 25 9.4 25 9 25 C 8.6 25 8.4 25 8 25 C 7.6 25 7.4 25 7 25 C 6.6 25 6.4 25 6 25 C 5.6 25 5.4 25 5 25 C 4.6 25 4.4 25 4 25 C 3.6 25 3.4 25 3 25 C 2.6 25 2.4 25 2 25 C 1.6 25 1.4 25 1 25 C 0.6 25 0.2 25.2 0 25 C -0.2 24.8 3.01992e-08 24.4 0 24 C -1.74846e-08 23.6 3.01992e-08 23.4 0 23 C -1.74846e-08 22.6 3.01992e-08 22.4 0 22 C -1.74846e-08 21.6 3.01992e-08 21.4 0 21 C -1.74846e-08 20.6 3.01992e-08 20.4 0 20 C -1.74846e-08 19.6 3.01992e-08 19.4 0 19 C -1.74846e-08 18.6 3.01992e-08 18.4 0 18 C -1.74846e-08 17.6 3.01992e-08 17.4 0 17 C -1.74846e-08 16.6 3.01992e-08 16.4 0 16 C -1.74846e-08 15.6 3.01992e-08 15.4 0 15 C -1.74846e-08 14.6 3.01992e-08 14.4 0 14 C -1.74846e-08 13.6 3.01992e-08 13.4 0 13 C -1.74846e-08 12.6 3.01992e-08 12.4 0 12 C -1.74846e-08 11.6 3.01992e-08 11.4 0 11 C -1.74846e-08 10.6 3.01992e-08 10.4 0 10 C -1.74846e-08 9.6 3.01992e-08 9.4 0 9 C -1.74846e-08 8.6 3.01992e-08 8.4 0 8 C -1.74846e-08 7.6 3.01992e-08 7.4 0 7 C -1.74846e-08 6.6 3.01992e-08 6.4 0 6 C -1.74846e-08 5.6 3.01992e-08 5.4 0 5 C -1.74846e-08 4.6 3.01992e-08 4.4 0 4 C -1.74846e-08 3.6 3.01992e-08 3.4 0 3 C -1.74846e-08 2.6 3.01992e-08 2.4 0 2 C -1.74846e-08 1.6 3.01992e-08 1.4 0 1 C -1.74846e-08 0.6 -0.2 0.2 0 0 " fill = "rgb(235, 0, 235)" stroke = "rgb(235, 0, 235)" stroke-width = "0"/>
    <path d="M 9.25 1.25 C 9.5 1.1 9.8 0.9 10 1 C 10.2 1.1 10.1 1.5 10.25 1.75 C 10.4 2 10.6 2 10.75 2.25 C 10.9 2.5 11.15 2.85 11 3 C 10.85 3.15 10.25 3.15 10 3 C 9.75 2.85 9.9 2.4 9.75 2.25 C 9.6 2.1 9.4 2.1 9.25 2.25 C 9.1 2.4 9.25 2.85 9 3 C 8.75 3.15 8.15 3.15 8 3 C 7.85 2.85 8.1 2.5 8.25 2.25 C 8.4 2 8.55 1.95 8.75 1.75 C 8.95 1.55 9 1.4 9.25 1.25 " fill = "rgb(248, 128, 216)" stroke = "rgb(248, 128, 216)" stroke-width = "0"/>
    <path d="M 10 1 C 10.1 0.9 10.5 1.1 10.75 1.25 C 11 1.4 11.05 1.55 11.25 1.75 C 11.45 1.95 11.6 2 11.75 2.25 C 11.9 2.5 12.15 2.85 12 3 C 11.85 3.15 11.25 3.15 11 3 C 10.75 2.85 10.9 2.5 10.75 2.25 C 10.6 2 10.4 2 10.25 1.75 C 10.1 1.5 9.9 1.1 10 1 " fill = "rgb(248, 80, 224)" stroke = "rgb(248, 80, 224)" stroke-width = "0"/>
    <path d="M 9.25 2.25 C 9.4 2.1 9.6 2.1 9.75 2.25 C 9.9 2.4 10.15 2.85 10 3 C 9.85 3.15 9.15 3.15 9 3 C 8.85 2.85 9.1 2.4 9.25 2.25 " fill = "rgb(248, 248, 248)" stroke = "rgb(248, 248, 248)" stroke-width = "0"/>
    <path d="M 5.25 3.25 C 5.5 3.1 5.65 3.05 6 3 C 6.35 2.95 6.6 3 7 3 C 7.4 3 7.6 3 8 3 C 8.4 3 8.6 3 9 3 C 9.4 3 9.6 3 10 3 C 10.4 3 10.6 3 11 3 C 11.4 3 11.65 2.95 12 3 C 12.35 3.05 12.5 3.1 12.75 3.25 C 13 3.4 13.05 3.55 13.25 3.75 C 13.45 3.95 13.55 4.05 13.75 4.25 C 13.95 4.45 14.05 4.55 14.25 4.75 C 14.45 4.95 14.6 5 14.75 5.25 C 14.9 5.5 14.95 5.65 15 6 C 15.05 6.35 15 6.6 15 7 C 15 7.4 15 7.6 15 8 C 15 8.4 15 8.6 15 9 C 15 9.4 15 9.6 15 10 C 15 10.4 15.05 10.65 15 11 C 14.95 11.35 14.9 11.5 14.75 11.75 C 14.6 12 14.4 12 14.25 12.25 C 14.1 12.5 14.25 12.85 14 13 C 13.75 13.15 13.15 13.15 13 13 C 12.85 12.85 13.1 12.5 13.25 12.25 C 13.4 12 13.6 12 13.75 11.75 C 13.9 11.5 13.95 11.35 14 11 C 14.05 10.65 14 10.4 14 10 C 14 9.6 14 9.4 14 9 C 14 8.6 14 8.4 14 8 C 14 7.6 14 7.4 14 7 C 14 6.6 14.05 6.35 14 6 C 13.95 5.65 13.9 5.5 13.75 5.25 C 13.6 5 13.45 4.95 13.25 4.75 C 13.05 4.55 13 4.4 12.75 4.25 C 12.5 4.1 12.35 4.05 12 4 C 11.65 3.95 11.4 4 11 4 C 10.6 4 10.4 4 10 4 C 9.6 4 9.4 4 9 4 C 8.6 4 8.4 4 8 4 C 7.6 4 7.4 4 7 4 C 6.6 4 6.35 3.95 6 4 C 5.65 4.05 5.45 4.05 5.25 4.25 C 5.05 4.45 5.25 4.85 5 5 C 4.75 5.15 4.35 4.95 4 5 C 3.65 5.05 3.5 5.1 3.25 5.25 C 3 5.4 2.95 5.55 2.75 5.75 C 2.55 5.95 2.45 6.05 2.25 6.25 C 2.05 6.45 2 6.6 1.75 6.75 C 1.5 6.9 1.1 7.1 1 7 C 0.9 6.9 1.1 6.5 1.25 6.25 C 1.4 6 1.55 5.95 1.75 5.75 C 1.95 5.55 2.05 5.45 2.25 5.25 C 2.45 5.05 2.55 4.95 2.75 4.75 C 2.95 4.55 3 4.4 3.25 4.25 C 3.5 4.1 3.7 4.1 4 4 C 4.3 3.9 4.5 3.9 4.75 3.75 C 5 3.6 5 3.4 5.25 3.25 " fill = "rgb(168, 168, 224)" stroke = "rgb(168, 168, 224)" stroke-width = "0"/>
    <path d="M 5.25 4.25 C 5.45 4.05 5.65 4.05 6 4 C 6.35 3.95 6.6 4 7 4 C 7.4 4 7.6 4 8 4 C 8.4 4 8.6 4 9 4 C 9.4 4 9.6 4 10 4 C 10.4 4 10.6 4 11 4 C 11.4 4 11.65 3.95 12 4 C 12.35 4.05 12.5 4.1 12.75 4.25 C 13 4.4 13.05 4.55 13.25 4.75 C 13.45 4.95 13.6 5 13.75 5.25 C 13.9 5.5 14.1 5.9 14 6 C 13.9 6.1 13.5 5.9 13.25 5.75 C 13 5.6 13 5.4 12.75 5.25 C 12.5 5.1 12.35 5.05 12 5 C 11.65 4.95 11.4 5 11 5 C 10.6 5 10.4 5 10 5 C 9.6 5 9.4 5 9 5 C 8.6 5 8.4 5 8 5 C 7.6 5 7.4 5 7 5 C 6.6 5 6.4 5 6 5 C 5.6 5 5.15 5.15 5 5 C 4.85 4.85 5.05 4.45 5.25 4.25 " fill = "rgb(192, 184, 240)" stroke = "rgb(192, 184, 240)" stroke-width = "0"/>
    <path d="M 3.25 5.25 C 3.5 5.1 3.9 4.9 4 5 C 4.1 5.1 3.9 5.5 3.75 5.75 C 3.6 6 3.45 6.05 3.25 6.25 C 3.05 6.45 2.95 6.55 2.75 6.75 C 2.55 6.95 2.45 7.05 2.25 7.25 C 2.05 7.45 2 7.6 1.75 7.75 C 1.5 7.9 1.15 8.15 1 8 C 0.85 7.85 0.85 7.25 1 7 C 1.15 6.75 1.5 6.9 1.75 6.75 C 2 6.6 2.05 6.45 2.25 6.25 C 2.45 6.05 2.55 5.95 2.75 5.75 C 2.95 5.55 3 5.4 3.25 5.25 " fill = "rgb(192, 184, 240)" stroke = "rgb(192, 184, 240)" stroke-width = "0"/>
    <path d="M 4 5 C 4.25 4.85 4.6 5 5 5 C 5.4 5 5.6 5 6 5 C 6.4 5 6.6 5 7 5 C 7.4 5 7.6 5 8 5 C 8.4 5 8.6 5 9 5 C 9.4 5 9.6 5 10 5 C 10.4 5 10.6 5 11 5 C 11.4 5 11.65 4.95 12 5 C 12.35 5.05 12.5 5.1 12.75 5.25 C 13 5.4 13 5.6 13.25 5.75 C 13.5 5.9 13.85 5.75 14 6 C 14.15 6.25 14.15 6.75 14 7 C 13.85 7.25 13.5 7.1 13.25 7.25 C 13 7.4 12.95 7.55 12.75 7.75 C 12.55 7.95 12.4 8 12.25 8.25 C 12.1 8.5 12.05 8.65 12 9 C 11.95 9.35 12 9.6 12 10 C 12 10.4 12 10.6 12 11 C 12 11.4 12 11.6 12 12 C 12 12.4 12.05 12.65 12 13 C 11.95 13.35 11.9 13.5 11.75 13.75 C 11.6 14 11.4 14 11.25 14.25 C 11.1 14.5 11.25 14.85 11 15 C 10.75 15.15 10.15 15.15 10 15 C 9.85 14.85 10.1 14.5 10.25 14.25 C 10.4 14 10.6 14 10.75 13.75 C 10.9 13.5 10.95 13.35 11 13 C 11.05 12.65 11 12.4 11 12 C 11 11.6 11 11.4 11 11 C 11 10.6 11 10.4 11 10 C 11 9.6 10.95 9.35 11 9 C 11.05 8.65 11.1 8.5 11.25 8.25 C 11.4 8 11.55 7.95 11.75 7.75 C 11.95 7.55 12.05 7.45 12.25 7.25 C 12.45 7.05 12.65 6.95 12.75 6.75 C 12.85 6.55 12.9 6.4 12.75 6.25 C 12.6 6.1 12.35 6.05 12 6 C 11.65 5.95 11.4 6 11 6 C 10.6 6 10.4 6 10 6 C 9.6 6 9.4 6 9 6 C 8.6 6 8.4 6 8 6 C 7.6 6 7.4 6 7 6 C 6.6 6 6.4 6 6 6 C 5.6 6 5.35 5.95 5 6 C 4.65 6.05 4.5 6.1 4.25 6.25 C 4 6.4 3.95 6.55 3.75 6.75 C 3.55 6.95 3.4 7 3.25 7.25 C 3.1 7.5 3.2 7.8 3 8 C 2.8 8.2 2.45 8.05 2.25 8.25 C 2.05 8.45 2.05 8.65 2 9 C 1.95 9.35 2 9.6 2 10 C 2 10.4 2 10.6 2 11 C 2 11.4 2 11.6 2 12 C 2 12.4 2.2 12.8 2 13 C 1.8 13.2 1.2 13.2 1 13 C 0.8 12.8 1 12.4 1 12 C 1 11.6 1 11.4 1 11 C 1 10.6 1 10.4 1 10 C 1 9.6 1 9.4 1 9 C 1 8.6 0.85 8.25 1 8 C 1.15 7.75 1.5 7.9 1.75 7.75 C 2 7.6 2.05 7.45 2.25 7.25 C 2.45 7.05 2.55 6.95 2.75 6.75 C 2.95 6.55 3.05 6.45 3.25 6.25 C 3.45 6.05 3.6 6 3.75 5.75 C 3.9 5.5 3.75 5.15 4 5 " fill = "rgb(208, 208, 240)" stroke = "rgb(208, 208, 240)" stroke-width = "0"/>
    <path d="M 4.25 6.25 C 4.5 6.1 4.65 6.05 5 6 C 5.35 5.95 5.6 6 6 6 C 6.4 6 6.6 6 7 6 C 7.4 6 7.6 6 8 6 C 8.4 6 8.6 6 9 6 C 9.4 6 9.6 6 10 6 C 10.4 6 10.6 6 11 6 C 11.4 6 11.65 5.95 12 6 C 12.35 6.05 12.6 6.1 12.75 6.25 C 12.9 6.4 12.85 6.55 12.75 6.75 C 12.65 6.95 12.45 7.05 12.25 7.25 C 12.05 7.45 11.95 7.55 11.75 7.75 C 11.55 7.95 11.4 8 11.25 8.25 C 11.1 8.5 11.25 8.85 11 9 C 10.75 9.15 10.4 9 10 9 C 9.6 9 9.4 9 9 9 C 8.6 9 8.4 9 8 9 C 7.6 9 7.35 9.05 7 9 C 6.65 8.95 6.5 8.9 6.25 8.75 C 6 8.6 6 8.4 5.75 8.25 C 5.5 8.1 5.35 8.05 5 8 C 4.65 7.95 4.4 8 4 8 C 3.6 8 3.15 8.15 3 8 C 2.85 7.85 3.1 7.5 3.25 7.25 C 3.4 7 3.55 6.95 3.75 6.75 C 3.95 6.55 4 6.4 4.25 6.25 " fill = "rgb(232, 232, 248)" stroke = "rgb(232, 232, 248)" stroke-width = "0"/>
    <path d="M 6.25 7.25 C 6.4 7.1 6.65 7.05 7 7 C 7.35 6.95 7.6 7 8 7 C 8.4 7 8.6 7 9 7 C 9.4 7 9.65 6.95 10 7 C 10.35 7.05 10.6 7.1 10.75 7.25 C 10.9 7.4 10.9 7.6 10.75 7.75 C 10.6 7.9 10.35 7.95 10 8 C 9.65 8.05 9.4 8 9 8 C 8.6 8 8.4 8 8 8 C 7.6 8 7.35 8.05 7 8 C 6.65 7.95 6.4 7.9 6.25 7.75 C 6.1 7.6 6.1 7.4 6.25 7.25 " fill = "rgb(248, 248, 248)" stroke = "rgb(248, 248, 248)" stroke-width = "0"/>
    <path d="M 13.25 7.25 C 13.5 7.1 13.85 6.85 14 7 C 14.15 7.15 14 7.6 14 8 C 14 8.4 14 8.6 14 9 C 14 9.4 14 9.6 14 10 C 14 10.4 14.05 10.65 14 11 C 13.95 11.35 13.9 11.5 13.75 11.75 C 13.6 12 13.4 12 13.25 12.25 C 13.1 12.5 13.25 12.85 13 13 C 12.75 13.15 12.2 13.2 12 13 C 11.8 12.8 12 12.4 12 12 C 12 11.6 12 11.4 12 11 C 12 10.6 12 10.4 12 10 C 12 9.6 11.95 9.35 12 9 C 12.05 8.65 12.1 8.5 12.25 8.25 C 12.4 8 12.55 7.95 12.75 7.75 C 12.95 7.55 13 7.4 13.25 7.25 " fill = "rgb(192, 184, 240)" stroke = "rgb(192, 184, 240)" stroke-width = "0"/>
    <path d="M 2.25 8.25 C 2.45 8.05 2.65 8.05 3 8 C 3.35 7.95 3.75 7.85 4 8 C 4.25 8.15 4.1 8.5 4.25 8.75 C 4.4 9 4.6 9 4.75 9.25 C 4.9 9.5 4.95 9.65 5 10 C 5.05 10.35 5 10.6 5 11 C 5 11.4 5 11.6 5 12 C 5 12.4 4.95 12.65 5 13 C 5.05 13.35 5.05 13.55 5.25 13.75 C 5.45 13.95 5.7 14 6 14 C 6.3 14 6.55 13.95 6.75 13.75 C 6.95 13.55 6.95 13.35 7 13 C 7.05 12.65 7 12.4 7 12 C 7 11.6 6.95 11.35 7 11 C 7.05 10.65 7.05 10.45 7.25 10.25 C 7.45 10.05 7.85 9.85 8 10 C 8.15 10.15 8 10.6 8 11 C 8 11.4 8 11.6 8 12 C 8 12.4 8 12.6 8 13 C 8 13.4 8 13.6 8 14 C 8 14.4 8.2 14.8 8 15 C 7.8 15.2 7.4 15 7 15 C 6.6 15 6.35 15.05 6 15 C 5.65 14.95 5.5 14.9 5.25 14.75 C 5 14.6 5 14.4 4.75 14.25 C 4.5 14.1 4.15 14.25 4 14 C 3.85 13.75 4 13.4 4 13 C 4 12.6 4 12.4 4 12 C 4 11.6 4 11.4 4 11 C 4 10.6 4.05 10.35 4 10 C 3.95 9.65 3.9 9.4 3.75 9.25 C 3.6 9.1 3.4 9.1 3.25 9.25 C 3.1 9.4 3.05 9.65 3 10 C 2.95 10.35 3 10.6 3 11 C 3 11.4 3 11.6 3 12 C 3 12.4 3 12.6 3 13 C 3 13.4 3.2 13.8 3 14 C 2.8 14.2 2.2 14.2 2 14 C 1.8 13.8 2 13.4 2 13 C 2 12.6 2 12.4 2 12 C 2 11.6 2 11.4 2 11 C 2 10.6 2 10.4 2 10 C 2 9.6 1.95 9.35 2 9 C 2.05 8.65 2.05 8.45 2.25 8.25 " fill = "rgb(224, 152, 56)" stroke = "rgb(224, 152, 56)" stroke-width = "0"/>
    <path d="M 4 8 C 4.15 7.85 4.65 7.95 5 8 C 5.35 8.05 5.5 8.1 5.75 8.25 C 6 8.4 6 8.6 6.25 8.75 C 6.5 8.9 6.65 8.95 7 9 C 7.35 9.05 7.6 9 8 9 C 8.4 9 8.6 9 9 9 C 9.4 9 9.6 9 10 9 C 10.4 9 10.8 8.8 11 9 C 11.2 9.2 11.15 9.75 11 10 C 10.85 10.25 10.45 10.05 10.25 10.25 C 10.05 10.45 10.05 10.65 10 11 C 9.95 11.35 10 11.6 10 12 C 10 12.4 10.05 12.65 10 13 C 9.95 13.35 9.95 13.55 9.75 13.75 C 9.55 13.95 9.15 14.15 9 14 C 8.85 13.85 9 13.4 9 13 C 9 12.6 9 12.4 9 12 C 9 11.6 9.05 11.35 9 11 C 8.95 10.65 8.95 10.45 8.75 10.25 C 8.55 10.05 8.3 10 8 10 C 7.7 10 7.45 10.05 7.25 10.25 C 7.05 10.45 7.05 10.65 7 11 C 6.95 11.35 7 11.6 7 12 C 7 12.4 7.05 12.65 7 13 C 6.95 13.35 6.95 13.55 6.75 13.75 C 6.55 13.95 6.3 14 6 14 C 5.7 14 5.45 13.95 5.25 13.75 C 5.05 13.55 5.05 13.35 5 13 C 4.95 12.65 5 12.4 5 12 C 5 11.6 5 11.4 5 11 C 5 10.6 5.05 10.35 5 10 C 4.95 9.65 4.9 9.5 4.75 9.25 C 4.6 9 4.4 9 4.25 8.75 C 4.1 8.5 3.85 8.15 4 8 " fill = "rgb(248, 192, 128)" stroke = "rgb(248, 192, 128)" stroke-width = "0"/>
    <path d="M 3.25 9.25 C 3.4 9.1 3.6 9.1 3.75 9.25 C 3.9 9.4 3.95 9.65 4 10 C 4.05 10.35 4 10.6 4 11 C 4 11.4 4 11.6 4 12 C 4 12.4 4 12.6 4 13 C 4 13.4 4.2 13.8 4 14 C 3.8 14.2 3.2 14.2 3 14 C 2.8 13.8 3 13.4 3 13 C 3 12.6 3 12.4 3 12 C 3 11.6 3 11.4 3 11 C 3 10.6 2.95 10.35 3 10 C 3.05 9.65 3.1 9.4 3.25 9.25 " fill = "rgb(56, 8, 8)" stroke = "rgb(56, 8, 8)" stroke-width = "0"/>
    <path d="M 8 10 C 8.15 9.85 8.55 10.05 8.75 10.25 C 8.95 10.45 8.95 10.65 9 11 C 9.05 11.35 9 11.6 9 12 C 9 12.4 9 12.6 9 13 C 9 13.4 9 13.6 9 14 C 9 14.4 9.2 14.8 9 15 C 8.8 15.2 8.2 15.2 8 15 C 7.8 14.8 8 14.4 8 14 C 8 13.6 8 13.4 8 13 C 8 12.6 8 12.4 8 12 C 8 11.6 8 11.4 8 11 C 8 10.6 7.85 10.15 8 10 " fill = "rgb(56, 8, 8)" stroke = "rgb(56, 8, 8)" stroke-width = "0"/>
    <path d="M 10.25 10.25 C 10.45 10.05 10.85 9.85 11 10 C 11.15 10.15 11 10.6 11 11 C 11 11.4 11 11.6 11 12 C 11 12.4 11.05 12.65 11 13 C 10.95 13.35 10.9 13.5 10.75 13.75 C 10.6 14 10.4 14 10.25 14.25 C 10.1 14.5 10.25 14.85 10 15 C 9.75 15.15 9.2 15.2 9 15 C 8.8 14.8 8.85 14.25 9 14 C 9.15 13.75 9.55 13.95 9.75 13.75 C 9.95 13.55 9.95 13.35 10 13 C 10.05 12.65 10 12.4 10 12 C 10 11.6 9.95 11.35 10 11 C 10.05 10.65 10.05 10.45 10.25 10.25 " fill = "rgb(224, 152, 56)" stroke = "rgb(224, 152, 56)" stroke-width = "0"/>
    <path d="M 1 13 C 1.15 12.85 1.8 12.8 2 13 C 2.2 13.2 2.15 13.85 2 14 C 1.85 14.15 1.45 13.95 1.25 13.75 C 1.05 13.55 0.85 13.15 1 13 " fill = "rgb(192, 184, 240)" stroke = "rgb(192, 184, 240)" stroke-width = "0"/>
    <path d="M 12 13 C 12.25 12.85 12.75 12.85 13 13 C 13.25 13.15 13.1 13.5 13.25 13.75 C 13.4 14 13.65 14.05 13.75 14.25 C 13.85 14.45 13.85 14.55 13.75 14.75 C 13.65 14.95 13.45 15.05 13.25 15.25 C 13.05 15.45 12.95 15.65 12.75 15.75 C 12.55 15.85 12.45 15.85 12.25 15.75 C 12.05 15.65 12 15.4 11.75 15.25 C 11.5 15.1 11.1 15.2 11 15 C 10.9 14.8 11.1 14.5 11.25 14.25 C 11.4 14 11.6 14 11.75 13.75 C 11.9 13.5 11.75 13.15 12 13 " fill = "rgb(248, 128, 216)" stroke = "rgb(248, 128, 216)" stroke-width = "0"/>
    <path d="M 13 13 C 13.15 12.85 13.75 12.85 14 13 C 14.25 13.15 14.1 13.5 14.25 13.75 C 14.4 14 14.6 14 14.75 14.25 C 14.9 14.5 15.1 14.8 15 15 C 14.9 15.2 14.5 15.1 14.25 15.25 C 14 15.4 13.95 15.55 13.75 15.75 C 13.55 15.95 13.4 16 13.25 16.25 C 13.1 16.5 13.25 16.85 13 17 C 12.75 17.15 12.25 17.15 12 17 C 11.75 16.85 11.95 16.45 11.75 16.25 C 11.55 16.05 11.15 16.25 11 16 C 10.85 15.75 10.85 15.15 11 15 C 11.15 14.85 11.5 15.1 11.75 15.25 C 12 15.4 12.05 15.65 12.25 15.75 C 12.45 15.85 12.55 15.85 12.75 15.75 C 12.95 15.65 13.05 15.45 13.25 15.25 C 13.45 15.05 13.65 14.95 13.75 14.75 C 13.85 14.55 13.85 14.45 13.75 14.25 C 13.65 14.05 13.4 14 13.25 13.75 C 13.1 13.5 12.85 13.15 13 13 " fill = "rgb(248, 80, 224)" stroke = "rgb(248, 80, 224)" stroke-width = "0"/>
    <path d="M 2 14 C 2.2 13.8 2.8 13.8 3 14 C 3.2 14.2 3.2 14.8 3 15 C 2.8 15.2 2.2 15.2 2 15 C 1.8 14.8 1.8 14.2 2 14 " fill = "rgb(168, 168, 224)" stroke = "rgb(168, 168, 224)" stroke-width = "0"/>
    <path d="M 3 14 C 3.2 13.8 3.8 13.8 4 14 C 4.2 14.2 4.2 14.8 4 15 C 3.8 15.2 3.2 15.2 3 15 C 2.8 14.8 2.8 14.2 3 14 " fill = "rgb(232, 232, 248)" stroke = "rgb(232, 232, 248)" stroke-width = "0"/>
    <path d="M 4 14 C 4.15 13.85 4.5 14.1 4.75 14.25 C 5 14.4 5 14.6 5.25 14.75 C 5.5 14.9 5.85 14.75 6 15 C 6.15 15.25 6.15 15.75 6 16 C 5.85 16.25 5.45 16.05 5.25 16.25 C 5.05 16.45 5.25 16.85 5 17 C 4.75 17.15 4.2 17.2 4 17 C 3.8 16.8 3.85 16.25 4 16 C 4.15 15.75 4.6 15.9 4.75 15.75 C 4.9 15.6 4.9 15.4 4.75 15.25 C 4.6 15.1 4.15 15.25 4 15 C 3.85 14.75 3.85 14.15 4 14 " fill = "rgb(208, 208, 240)" stroke = "rgb(208, 208, 240)" stroke-width = "0"/>
    <path d="M 12.25 14.25 C 12.35 14.15 12.65 14.15 12.75 14.25 C 12.85 14.35 12.85 14.65 12.75 14.75 C 12.65 14.85 12.35 14.85 12.25 14.75 C 12.15 14.65 12.15 14.35 12.25 14.25 " fill = "rgb(248, 248, 248)" stroke = "rgb(248, 248, 248)" stroke-width = "0"/>
    <path d="M 2 15 C 2.15 14.85 2.75 14.85 3 15 C 3.25 15.15 3.05 15.55 3.25 15.75 C 3.45 15.95 3.85 15.75 4 16 C 4.15 16.25 4.15 16.85 4 17 C 3.85 17.15 3.5 16.9 3.25 16.75 C 3 16.6 2.95 16.45 2.75 16.25 C 2.55 16.05 2.4 16 2.25 15.75 C 2.1 15.5 1.85 15.15 2 15 " fill = "rgb(248, 80, 224)" stroke = "rgb(248, 80, 224)" stroke-width = "0"/>
    <path d="M 3 15 C 3.15 14.85 3.8 14.8 4 15 C 4.2 15.2 4.15 15.85 4 16 C 3.85 16.15 3.45 15.95 3.25 15.75 C 3.05 15.55 2.85 15.15 3 15 " fill = "rgb(248, 128, 216)" stroke = "rgb(248, 128, 216)" stroke-width = "0"/>
    <path d="M 4 15 C 4.15 14.85 4.6 15.1 4.75 15.25 C 4.9 15.4 4.9 15.6 4.75 15.75 C 4.6 15.9 4.15 16.15 4 16 C 3.85 15.85 3.85 15.15 4 15 " fill = "rgb(192, 184, 240)" stroke = "rgb(192, 184, 240)" stroke-width = "0"/>
    <path d="M 6 15 C 6.2 14.8 6.6 15 7 15 C 7.4 15 7.6 15 8 15 C 8.4 15 8.6 15 9 15 C 9.4 15 9.8 14.8 10 15 C 10.2 15.2 10.2 15.8 10 16 C 9.8 16.2 9.4 16 9 16 C 8.6 16 8.4 16 8 16 C 7.6 16 7.4 16 7 16 C 6.6 16 6.2 16.2 6 16 C 5.8 15.8 5.8 15.2 6 15 " fill = "rgb(232, 232, 248)" stroke = "rgb(232, 232, 248)" stroke-width = "0"/>
    <path d="M 10 15 C 10.2 14.8 10.8 14.8 11 15 C 11.2 15.2 11.2 15.8 11 16 C 10.8 16.2 10.2 16.2 10 16 C 9.8 15.8 9.8 15.2 10 15 " fill = "rgb(192, 184, 240)" stroke = "rgb(192, 184, 240)" stroke-width = "0"/>
    <path d="M 14.25 15.25 C 14.5 15.1 14.9 14.9 15 15 C 15.1 15.1 14.9 15.5 14.75 15.75 C 14.6 16 14.45 16.05 14.25 16.25 C 14.05 16.45 14 16.6 13.75 16.75 C 13.5 16.9 13.1 17.1 13 17 C 12.9 16.9 13.1 16.5 13.25 16.25 C 13.4 16 13.55 15.95 13.75 15.75 C 13.95 15.55 14 15.4 14.25 15.25 " fill = "rgb(224, 32, 176)" stroke = "rgb(224, 32, 176)" stroke-width = "0"/>
    <path d="M 5.25 16.25 C 5.45 16.05 5.8 15.9 6 16 C 6.2 16.1 6.05 16.55 6.25 16.75 C 6.45 16.95 6.65 16.95 7 17 C 7.35 17.05 7.65 17.05 8 17 C 8.35 16.95 8.55 16.95 8.75 16.75 C 8.95 16.55 8.75 16.15 9 16 C 9.25 15.85 9.85 15.85 10 16 C 10.15 16.15 9.9 16.5 9.75 16.75 C 9.6 17 9.4 17 9.25 17.25 C 9.1 17.5 9.25 17.85 9 18 C 8.75 18.15 8.4 18 8 18 C 7.6 18 7.4 18 7 18 C 6.6 18 6.4 18 6 18 C 5.6 18 5.2 18.2 5 18 C 4.8 17.8 4.95 17.35 5 17 C 5.05 16.65 5.05 16.45 5.25 16.25 " fill = "rgb(0, 72, 224)" stroke = "rgb(0, 72, 224)" stroke-width = "0"/>
    <path d="M 6 16 C 6.15 15.85 6.6 16 7 16 C 7.4 16 7.6 16 8 16 C 8.4 16 8.85 15.85 9 16 C 9.15 16.15 8.95 16.55 8.75 16.75 C 8.55 16.95 8.35 16.95 8 17 C 7.65 17.05 7.35 17.05 7 17 C 6.65 16.95 6.45 16.95 6.25 16.75 C 6.05 16.55 5.85 16.15 6 16 " fill = "rgb(0, 128, 232)" stroke = "rgb(0, 128, 232)" stroke-width = "0"/>
    <path d="M 10 16 C 10.25 15.85 10.8 15.8 11 16 C 11.2 16.2 11 16.6 11 17 C 11 17.4 11.2 17.8 11 18 C 10.8 18.2 10.4 18 10 18 C 9.6 18 9.15 18.15 9 18 C 8.85 17.85 9.1 17.5 9.25 17.25 C 9.4 17 9.6 17 9.75 16.75 C 9.9 16.5 9.75 16.15 10 16 " fill = "rgb(0, 32, 208)" stroke = "rgb(0, 32, 208)" stroke-width = "0"/>
    <path d="M 11 16 C 11.15 15.85 11.55 16.05 11.75 16.25 C 11.95 16.45 12.15 16.85 12 17 C 11.85 17.15 11.2 17.2 11 17 C 10.8 16.8 10.85 16.15 11 16 " fill = "rgb(248, 248, 248)" stroke = "rgb(248, 248, 248)" stroke-width = "0"/>
    <path d="M 11 17 C 11.2 16.8 11.75 16.85 12 17 C 12.25 17.15 12.1 17.5 12.25 17.75 C 12.4 18 12.6 18 12.75 18.25 C 12.9 18.5 12.95 18.65 13 19 C 13.05 19.35 13.15 19.85 13 20 C 12.85 20.15 12.45 19.95 12.25 19.75 C 12.05 19.55 12.1 19.3 12 19 C 11.9 18.7 11.95 18.45 11.75 18.25 C 11.55 18.05 11.15 18.25 11 18 C 10.85 17.75 10.8 17.2 11 17 " fill = "rgb(224, 32, 176)" stroke = "rgb(224, 32, 176)" stroke-width = "0"/>
    <path d="M 5 18 C 5.2 17.8 5.8 17.8 6 18 C 6.2 18.2 6.2 18.8 6 19 C 5.8 19.2 5.2 19.2 5 19 C 4.8 18.8 4.8 18.2 5 18 " fill = "rgb(56, 8, 8)" stroke = "rgb(56, 8, 8)" stroke-width = "0"/>
    <path d="M 6 18 C 6.2 17.8 6.6 18 7 18 C 7.4 18 7.8 17.8 8 18 C 8.2 18.2 8.2 18.8 8 19 C 7.8 19.2 7.4 19 7 19 C 6.6 19 6.2 19.2 6 19 C 5.8 18.8 5.8 18.2 6 18 " fill = "rgb(248, 248, 24)" stroke = "rgb(248, 248, 24)" stroke-width = "0"/>
    <path d="M 8 18 C 8.2 17.8 8.6 18 9 18 C 9.4 18 9.6 18 10 18 C 10.4 18 10.8 17.8 11 18 C 11.2 18.2 11.2 18.8 11 19 C 10.8 19.2 10.4 19 10 19 C 9.6 19 9.4 19 9 19 C 8.6 19 8.2 19.2 8 19 C 7.8 18.8 7.8 18.2 8 18 " fill = "rgb(56, 8, 8)" stroke = "rgb(56, 8, 8)" stroke-width = "0"/>
    <path d="M 11 18 C 11.15 17.85 11.55 18.05 11.75 18.25 C 11.95 18.45 11.9 18.7 12 19 C 12.1 19.3 12.05 19.55 12.25 19.75 C 12.45 19.95 12.9 19.8 13 20 C 13.1 20.2 12.9 20.5 12.75 20.75 C 12.6 21 12.45 21.05 12.25 21.25 C 12.05 21.45 12 21.6 11.75 21.75 C 11.5 21.9 11.3 22 11 22 C 10.7 22 10.5 21.9 10.25 21.75 C 10 21.6 9.95 21.45 9.75 21.25 C 9.55 21.05 9.4 21 9.25 20.75 C 9.1 20.5 8.85 20.15 9 20 C 9.15 19.85 9.75 19.85 10 20 C 10.25 20.15 10.05 20.55 10.25 20.75 C 10.45 20.95 10.7 21 11 21 C 11.3 21 11.6 20.9 11.75 20.75 C 11.9 20.6 11.9 20.4 11.75 20.25 C 11.6 20.1 11.15 20.25 11 20 C 10.85 19.75 11 19.4 11 19 C 11 18.6 10.85 18.15 11 18 " fill = "rgb(248, 80, 224)" stroke = "rgb(248, 80, 224)" stroke-width = "0"/>
    <path d="M 3.25 19.25 C 3.5 19.1 3.65 19.05 4 19 C 4.35 18.95 4.75 18.85 5 19 C 5.25 19.15 5.1 19.5 5.25 19.75 C 5.4 20 5.6 20 5.75 20.25 C 5.9 20.5 6 20.7 6 21 C 6 21.3 5.95 21.55 5.75 21.75 C 5.55 21.95 5.35 21.95 5 22 C 4.65 22.05 4.4 22 4 22 C 3.6 22 3.25 22.15 3 22 C 2.75 21.85 2.95 21.45 2.75 21.25 C 2.55 21.05 2.1 21.2 2 21 C 1.9 20.8 2.1 20.5 2.25 20.25 C 2.4 20 2.55 19.95 2.75 19.75 C 2.95 19.55 3 19.4 3.25 19.25 " fill = "rgb(248, 128, 216)" stroke = "rgb(248, 128, 216)" stroke-width = "0"/>
    <path d="M 5 19 C 5.15 18.85 5.75 18.85 6 19 C 6.25 19.15 6.05 19.55 6.25 19.75 C 6.45 19.95 6.85 19.75 7 20 C 7.15 20.25 7 20.6 7 21 C 7 21.4 7.05 21.65 7 22 C 6.95 22.35 6.95 22.55 6.75 22.75 C 6.55 22.95 6.35 22.95 6 23 C 5.65 23.05 5.35 23.05 5 23 C 4.65 22.95 4.45 22.95 4.25 22.75 C 4.05 22.55 3.85 22.15 4 22 C 4.15 21.85 4.65 22.05 5 22 C 5.35 21.95 5.55 21.95 5.75 21.75 C 5.95 21.55 6 21.3 6 21 C 6 20.7 5.9 20.5 5.75 20.25 C 5.6 20 5.4 20 5.25 19.75 C 5.1 19.5 4.85 19.15 5 19 " fill = "rgb(248, 80, 224)" stroke = "rgb(248, 80, 224)" stroke-width = "0"/>
    <path d="M 6 19 C 6.15 18.85 6.8 18.8 7 19 C 7.2 19.2 7.15 19.85 7 20 C 6.85 20.15 6.45 19.95 6.25 19.75 C 6.05 19.55 5.85 19.15 6 19 " fill = "rgb(232, 232, 248)" stroke = "rgb(232, 232, 248)" stroke-width = "0"/>
    <path d="M 7 19 C 7.2 18.8 7.8 18.8 8 19 C 8.2 19.2 8.2 19.8 8 20 C 7.8 20.2 7.2 20.2 7 20 C 6.8 19.8 6.8 19.2 7 19 " fill = "rgb(0, 72, 224)" stroke = "rgb(0, 72, 224)" stroke-width = "0"/>
    <path d="M 8 19 C 8.2 18.8 8.8 18.8 9 19 C 9.2 19.2 9.2 19.8 9 20 C 8.8 20.2 8.2 20.2 8 20 C 7.8 19.8 7.8 19.2 8 19 " fill = "rgb(0, 32, 208)" stroke = "rgb(0, 32, 208)" stroke-width = "0"/>
    <path d="M 9 19 C 9.2 18.8 9.8 18.8 10 19 C 10.2 19.2 10.2 19.8 10 20 C 9.8 20.2 9.2 20.2 9 20 C 8.8 19.8 8.8 19.2 9 19 " fill = "rgb(192, 184, 240)" stroke = "rgb(192, 184, 240)" stroke-width = "0"/>
    <path d="M 10 19 C 10.2 18.8 10.8 18.8 11 19 C 11.2 19.2 11.2 19.8 11 20 C 10.8 20.2 10.2 20.2 10 20 C 9.8 19.8 9.8 19.2 10 19 " fill = "rgb(248, 248, 248)" stroke = "rgb(248, 248, 248)" stroke-width = "0"/>
    <path d="M 3.25 20.25 C 3.4 20.1 3.7 20 4 20 C 4.3 20 4.6 20.1 4.75 20.25 C 4.9 20.4 4.9 20.6 4.75 20.75 C 4.6 20.9 4.3 21 4 21 C 3.7 21 3.4 20.9 3.25 20.75 C 3.1 20.6 3.1 20.4 3.25 20.25 " fill = "rgb(248, 248, 248)" stroke = "rgb(248, 248, 248)" stroke-width = "0"/>
    <path d="M 10 20 C 10.15 19.85 10.65 19.95 11 20 C 11.35 20.05 11.6 20.1 11.75 20.25 C 11.9 20.4 11.9 20.6 11.75 20.75 C 11.6 20.9 11.3 21 11 21 C 10.7 21 10.45 20.95 10.25 20.75 C 10.05 20.55 9.85 20.15 10 20 " fill = "rgb(248, 128, 216)" stroke = "rgb(248, 128, 216)" stroke-width = "0"/>
    <path d="M 2 21 C 2.1 20.9 2.55 21.05 2.75 21.25 C 2.95 21.45 3.1 21.9 3 22 C 2.9 22.1 2.45 21.95 2.25 21.75 C 2.05 21.55 1.9 21.1 2 21 " fill = "rgb(248, 80, 224)" stroke = "rgb(248, 80, 224)" stroke-width = "0"/>
    <path d="M 7 21 C 7.15 20.85 7.55 21.05 7.75 21.25 C 7.95 21.45 8 21.7 8 22 C 8 22.3 7.9 22.5 7.75 22.75 C 7.6 23 7.45 23.05 7.25 23.25 C 7.05 23.45 7 23.6 6.75 23.75 C 6.5 23.9 6.35 23.95 6 24 C 5.65 24.05 5.35 24.05 5 24 C 4.65 23.95 4.5 23.9 4.25 23.75 C 4 23.6 3.95 23.45 3.75 23.25 C 3.55 23.05 3.4 23 3.25 22.75 C 3.1 22.5 2.85 22.15 3 22 C 3.15 21.85 3.75 21.85 4 22 C 4.25 22.15 4.05 22.55 4.25 22.75 C 4.45 22.95 4.65 22.95 5 23 C 5.35 23.05 5.65 23.05 6 23 C 6.35 22.95 6.55 22.95 6.75 22.75 C 6.95 22.55 6.95 22.35 7 22 C 7.05 21.65 6.85 21.15 7 21 " fill = "rgb(224, 32, 176)" stroke = "rgb(224, 32, 176)" stroke-width = "0"/>
</svg>
