<svg version="1.1" baseProfile = "full" width = "18" height = "17" xmlns = "http://www.w3.org/2000/svg">
    <path d="M 0 0 C 0.2 -0.2 0.6 -3.49691e-08 1 0 C 1.4 0 1.6 -3.49691e-08 2 0 C 2.4 0 2.6 -3.49691e-08 3 0 C 3.4 0 3.6 -3.49691e-08 4 0 C 4.4 0 4.6 -3.49691e-08 5 0 C 5.4 0 5.6 -3.49691e-08 6 0 C 6.4 0 6.6 -3.49691e-08 7 0 C 7.4 0 7.6 -3.49691e-08 8 0 C 8.4 0 8.6 -3.49691e-08 9 0 C 9.4 0 9.6 -3.49691e-08 10 0 C 10.4 0 10.6 -3.49691e-08 11 0 C 11.4 0 11.6 -3.49691e-08 12 0 C 12.4 0 12.6 -3.49691e-08 13 0 C 13.4 0 13.6 -3.49691e-08 14 0 C 14.4 0 14.6 -3.49691e-08 15 0 C 15.4 0 15.6 -3.49691e-08 16 0 C 16.4 0 16.6 -3.49691e-08 17 0 C 17.4 0 17.8 -0.2 18 0 C 18.2 0.2 18 0.6 18 1 C 18 1.4 18 1.6 18 2 C 18 2.4 18 2.6 18 3 C 18 3.4 18 3.6 18 4 C 18 4.4 18 4.6 18 5 C 18 5.4 18 5.6 18 6 C 18 6.4 18 6.6 18 7 C 18 7.4 18 7.6 18 8 C 18 8.4 18 8.6 18 9 C 18 9.4 18 9.6 18 10 C 18 10.4 18 10.6 18 11 C 18 11.4 18 11.6 18 12 C 18 12.4 18 12.6 18 13 C 18 13.4 18 13.6 18 14 C 18 14.4 18 14.6 18 15 C 18 15.4 18 15.6 18 16 C 18 16.4 18.2 16.8 18 17 C 17.8 17.2 17.4 17 17 17 C 16.6 17 16.4 17 16 17 C 15.6 17 15.4 17 15 17 C 14.6 17 14.4 17 14 17 C 13.6 17 13.4 17 13 17 C 12.6 17 12.4 17 12 17 C 11.6 17 11.4 17 11 17 C 10.6 17 10.4 17 10 17 C 9.6 17 9.4 17 9 17 C 8.6 17 8.4 17 8 17 C 7.6 17 7.4 17 7 17 C 6.6 17 6.4 17 6 17 C 5.6 17 5.4 17 5 17 C 4.6 17 4.4 17 4 17 C 3.6 17 3.4 17 3 17 C 2.6 17 2.4 17 2 17 C 1.6 17 1.4 17 1 17 C 0.6 17 0.2 17.2 0 17 C -0.2 16.8 3.01992e-08 16.4 0 16 C -1.74846e-08 15.6 3.01992e-08 15.4 0 15 C -1.74846e-08 14.6 3.01992e-08 14.4 0 14 C -1.74846e-08 13.6 3.01992e-08 13.4 0 13 C -1.74846e-08 12.6 3.01992e-08 12.4 0 12 C -1.74846e-08 11.6 3.01992e-08 11.4 0 11 C -1.74846e-08 10.6 3.01992e-08 10.4 0 10 C -1.74846e-08 9.6 3.01992e-08 9.4 0 9 C -1.74846e-08 8.6 3.01992e-08 8.4 0 8 C -1.74846e-08 7.6 3.01992e-08 7.4 0 7 C -1.74846e-08 6.6 3.01992e-08 6.4 0 6 C -1.74846e-08 5.6 3.01992e-08 5.4 0 5 C -1.74846e-08 4.6 3.01992e-08 4.4 0 4 C -1.74846e-08 3.6 3.01992e-08 3.4 0 3 C -1.74846e-08 2.6 3.01992e-08 2.4 0 2 C -1.74846e-08 1.6 3.01992e-08 1.4 0 1 C -1.74846e-08 0.6 -0.2 0.2 0 0 " fill = "rgb(235, 0, 235)" stroke = "rgb(235, 0, 235)" stroke-width = "0"/>
    <path d="M 7.25 1.25 C 7.5 1.1 7.65 1.05 8 1 C 8.35 0.95 8.6 1 9 1 C 9.4 1 9.6 1 10 1 C 10.4 1 10.6 1 11 1 C 11.4 1 11.6 1 12 1 C 12.4 1 12.65 0.95 13 1 C 13.35 1.05 13.55 1.05 13.75 1.25 C 13.95 1.45 13.9 1.7 14 2 C 14.1 2.3 14.1 2.5 14.25 2.75 C 14.4 3 14.55 3.05 14.75 3.25 C 14.95 3.45 15.05 3.55 15.25 3.75 C 15.45 3.95 15.6 4 15.75 4.25 C 15.9 4.5 15.95 4.65 16 5 C 16.05 5.35 15.95 5.65 16 6 C 16.05 6.35 16.1 6.5 16.25 6.75 C 16.4 7 16.6 7 16.75 7.25 C 16.9 7.5 16.95 7.65 17 8 C 17.05 8.35 17.05 8.65 17 9 C 16.95 9.35 16.9 9.5 16.75 9.75 C 16.6 10 16.4 10 16.25 10.25 C 16.1 10.5 16.05 10.65 16 11 C 15.95 11.35 16 11.6 16 12 C 16 12.4 16 12.6 16 13 C 16 13.4 16.05 13.65 16 14 C 15.95 14.35 15.9 14.5 15.75 14.75 C 15.6 15 15.45 15.05 15.25 15.25 C 15.05 15.45 15 15.6 14.75 15.75 C 14.5 15.9 14.35 15.95 14 16 C 13.65 16.05 13.4 16 13 16 C 12.6 16 12.4 16 12 16 C 11.6 16 11.4 16 11 16 C 10.6 16 10.4 16 10 16 C 9.6 16 9.4 16 9 16 C 8.6 16 8.4 16 8 16 C 7.6 16 7.4 16 7 16 C 6.6 16 6.4 16 6 16 C 5.6 16 5.4 16 5 16 C 4.6 16 4.35 16.05 4 16 C 3.65 15.95 3.5 15.9 3.25 15.75 C 3 15.6 2.95 15.45 2.75 15.25 C 2.55 15.05 2.4 15 2.25 14.75 C 2.1 14.5 2.05 14.35 2 14 C 1.95 13.65 2 13.4 2 13 C 2 12.6 2 12.4 2 12 C 2 11.6 2 11.4 2 11 C 2 10.6 2 10.4 2 10 C 2 9.6 2 9.4 2 9 C 2 8.6 2.05 8.35 2 8 C 1.95 7.65 1.9 7.5 1.75 7.25 C 1.6 7 1.4 7 1.25 6.75 C 1.1 6.5 1.05 6.35 1 6 C 0.95 5.65 0.95 5.35 1 5 C 1.05 4.65 1.05 4.45 1.25 4.25 C 1.45 4.05 1.7 4.1 2 4 C 2.3 3.9 2.5 3.9 2.75 3.75 C 3 3.6 3 3.4 3.25 3.25 C 3.5 3.1 3.7 3.1 4 3 C 4.3 2.9 4.5 2.9 4.75 2.75 C 5 2.6 5 2.4 5.25 2.25 C 5.5 2.1 5.7 2.1 6 2 C 6.3 1.9 6.5 1.9 6.75 1.75 C 7 1.6 7 1.4 7.25 1.25 " fill = "rgb(16, 16, 8)" stroke = "rgb(16, 16, 8)" stroke-width = "0"/>
    <path d="M 7.25 2.25 C 7.45 2.05 7.85 1.85 8 2 C 8.15 2.15 8 2.6 8 3 C 8 3.4 8 3.6 8 4 C 8 4.4 7.95 4.65 8 5 C 8.05 5.35 8.05 5.55 8.25 5.75 C 8.45 5.95 8.65 5.95 9 6 C 9.35 6.05 9.65 6.05 10 6 C 10.35 5.95 10.55 5.95 10.75 5.75 C 10.95 5.55 10.95 5.35 11 5 C 11.05 4.65 11 4.4 11 4 C 11 3.6 11 3.4 11 3 C 11 2.6 10.8 2.2 11 2 C 11.2 1.8 11.8 1.8 12 2 C 12.2 2.2 12 2.6 12 3 C 12 3.4 12 3.6 12 4 C 12 4.4 11.95 4.65 12 5 C 12.05 5.35 12.1 5.6 12.25 5.75 C 12.4 5.9 12.6 5.9 12.75 5.75 C 12.9 5.6 12.95 5.35 13 5 C 13.05 4.65 13 4.4 13 4 C 13 3.6 12.85 3.15 13 3 C 13.15 2.85 13.55 3.05 13.75 3.25 C 13.95 3.45 13.95 3.65 14 4 C 14.05 4.35 14 4.6 14 5 C 14 5.4 14 5.6 14 6 C 14 6.4 14 6.6 14 7 C 14 7.4 14 7.6 14 8 C 14 8.4 13.95 8.65 14 9 C 14.05 9.35 14.1 9.6 14.25 9.75 C 14.4 9.9 14.55 9.85 14.75 9.75 C 14.95 9.65 15.05 9.35 15.25 9.25 C 15.45 9.15 15.65 9.15 15.75 9.25 C 15.85 9.35 15.85 9.55 15.75 9.75 C 15.65 9.95 15.4 10 15.25 10.25 C 15.1 10.5 15.2 10.9 15 11 C 14.8 11.1 14.5 10.9 14.25 10.75 C 14 10.6 14 10.4 13.75 10.25 C 13.5 10.1 13.35 10.05 13 10 C 12.65 9.95 12.2 10.2 12 10 C 11.8 9.8 12 9.4 12 9 C 12 8.6 12 8.4 12 8 C 12 7.6 12.05 7.35 12 7 C 11.95 6.65 11.9 6.4 11.75 6.25 C 11.6 6.1 11.4 6.1 11.25 6.25 C 11.1 6.4 11.05 6.65 11 7 C 10.95 7.35 11 7.6 11 8 C 11 8.4 11 8.6 11 9 C 11 9.4 11.2 9.8 11 10 C 10.8 10.2 10.4 10 10 10 C 9.6 10 9.4 10 9 10 C 8.6 10 8.4 10 8 10 C 7.6 10 7.4 10 7 10 C 6.6 10 6.2 10.2 6 10 C 5.8 9.8 6 9.4 6 9 C 6 8.6 6.05 8.35 6 8 C 5.95 7.65 5.95 7.45 5.75 7.25 C 5.55 7.05 5.3 7 5 7 C 4.7 7 4.45 7.05 4.25 7.25 C 4.05 7.45 4.05 7.65 4 8 C 3.95 8.35 4 8.6 4 9 C 4 9.4 4.15 9.85 4 10 C 3.85 10.15 3.45 9.95 3.25 9.75 C 3.05 9.55 3.05 9.35 3 9 C 2.95 8.65 3 8.4 3 8 C 3 7.6 3 7.4 3 7 C 3 6.6 2.8 6.2 3 6 C 3.2 5.8 3.65 6.05 4 6 C 4.35 5.95 4.55 5.95 4.75 5.75 C 4.95 5.55 4.9 5.3 5 5 C 5.1 4.7 5.05 4.45 5.25 4.25 C 5.45 4.05 5.85 3.85 6 4 C 6.15 4.15 6 4.6 6 5 C 6 5.4 5.95 5.65 6 6 C 6.05 6.35 6.1 6.6 6.25 6.75 C 6.4 6.9 6.6 6.9 6.75 6.75 C 6.9 6.6 6.95 6.35 7 6 C 7.05 5.65 7 5.4 7 5 C 7 4.6 7 4.4 7 4 C 7 3.6 6.95 3.35 7 3 C 7.05 2.65 7.05 2.45 7.25 2.25 " fill = "rgb(115, 16, 0)" stroke = "rgb(115, 16, 0)" stroke-width = "0"/>
    <path d="M 8 2 C 8.2 1.8 8.6 2 9 2 C 9.4 2 9.6 2 10 2 C 10.4 2 10.8 1.8 11 2 C 11.2 2.2 11 2.6 11 3 C 11 3.4 11 3.6 11 4 C 11 4.4 11.2 4.8 11 5 C 10.8 5.2 10.4 5 10 5 C 9.6 5 9.4 5 9 5 C 8.6 5 8.2 5.2 8 5 C 7.8 4.8 8 4.4 8 4 C 8 3.6 8 3.4 8 3 C 8 2.6 7.8 2.2 8 2 " fill = "rgb(247, 90, 58)" stroke = "rgb(247, 90, 58)" stroke-width = "0"/>
    <path d="M 12 2 C 12.15 1.85 12.55 2.05 12.75 2.25 C 12.95 2.45 12.95 2.65 13 3 C 13.05 3.35 13 3.6 13 4 C 13 4.4 13.2 4.8 13 5 C 12.8 5.2 12.2 5.2 12 5 C 11.8 4.8 12 4.4 12 4 C 12 3.6 12 3.4 12 3 C 12 2.6 11.85 2.15 12 2 " fill = "rgb(247, 90, 58)" stroke = "rgb(247, 90, 58)" stroke-width = "0"/>
    <path d="M 6.25 3.25 C 6.45 3.05 6.85 2.85 7 3 C 7.15 3.15 7 3.6 7 4 C 7 4.4 7 4.6 7 5 C 7 5.4 7.2 5.8 7 6 C 6.8 6.2 6.2 6.2 6 6 C 5.8 5.8 6 5.4 6 5 C 6 4.6 5.95 4.35 6 4 C 6.05 3.65 6.05 3.45 6.25 3.25 " fill = "rgb(247, 90, 58)" stroke = "rgb(247, 90, 58)" stroke-width = "0"/>
    <path d="M 14 4 C 14.15 3.85 14.55 4.05 14.75 4.25 C 14.95 4.45 15.15 4.85 15 5 C 14.85 5.15 14.2 5.2 14 5 C 13.8 4.8 13.85 4.15 14 4 " fill = "rgb(214, 189, 148)" stroke = "rgb(214, 189, 148)" stroke-width = "0"/>
    <path d="M 2.25 5.25 C 2.4 5.1 2.85 4.85 3 5 C 3.15 5.15 3.15 5.85 3 6 C 2.85 6.15 2.4 5.9 2.25 5.75 C 2.1 5.6 2.1 5.4 2.25 5.25 " fill = "rgb(255, 222, 222)" stroke = "rgb(255, 222, 222)" stroke-width = "0"/>
    <path d="M 3 5 C 3.2 4.8 3.6 5 4 5 C 4.4 5 4.85 4.85 5 5 C 5.15 5.15 4.95 5.55 4.75 5.75 C 4.55 5.95 4.35 5.95 4 6 C 3.65 6.05 3.2 6.2 3 6 C 2.8 5.8 2.8 5.2 3 5 " fill = "rgb(247, 90, 58)" stroke = "rgb(247, 90, 58)" stroke-width = "0"/>
    <path d="M 8 5 C 8.15 4.85 8.6 5 9 5 C 9.4 5 9.6 5 10 5 C 10.4 5 10.85 4.85 11 5 C 11.15 5.15 10.95 5.55 10.75 5.75 C 10.55 5.95 10.35 5.95 10 6 C 9.65 6.05 9.35 6.05 9 6 C 8.65 5.95 8.45 5.95 8.25 5.75 C 8.05 5.55 7.85 5.15 8 5 " fill = "rgb(214, 189, 148)" stroke = "rgb(214, 189, 148)" stroke-width = "0"/>
    <path d="M 12 5 C 12.15 4.85 12.85 4.85 13 5 C 13.15 5.15 12.9 5.6 12.75 5.75 C 12.6 5.9 12.4 5.9 12.25 5.75 C 12.1 5.6 11.85 5.15 12 5 " fill = "rgb(214, 189, 148)" stroke = "rgb(214, 189, 148)" stroke-width = "0"/>
    <path d="M 14 5 C 14.2 4.8 14.8 4.8 15 5 C 15.2 5.2 15.2 5.8 15 6 C 14.8 6.2 14.2 6.2 14 6 C 13.8 5.8 13.8 5.2 14 5 " fill = "rgb(74, 74, 66)" stroke = "rgb(74, 74, 66)" stroke-width = "0"/>
    <path d="M 6 6 C 6.15 5.85 6.85 5.85 7 6 C 7.15 6.15 6.9 6.6 6.75 6.75 C 6.6 6.9 6.4 6.9 6.25 6.75 C 6.1 6.6 5.85 6.15 6 6 " fill = "rgb(214, 189, 148)" stroke = "rgb(214, 189, 148)" stroke-width = "0"/>
    <path d="M 11.25 6.25 C 11.4 6.1 11.6 6.1 11.75 6.25 C 11.9 6.4 11.95 6.65 12 7 C 12.05 7.35 12 7.6 12 8 C 12 8.4 12 8.6 12 9 C 12 9.4 12.2 9.8 12 10 C 11.8 10.2 11.2 10.2 11 10 C 10.8 9.8 11 9.4 11 9 C 11 8.6 11 8.4 11 8 C 11 7.6 10.95 7.35 11 7 C 11.05 6.65 11.1 6.4 11.25 6.25 " fill = "rgb(16, 16, 8)" stroke = "rgb(16, 16, 8)" stroke-width = "0"/>
    <path d="M 14 6 C 14.2 5.8 14.8 5.8 15 6 C 15.2 6.2 15.2 6.8 15 7 C 14.8 7.2 14.2 7.2 14 7 C 13.8 6.8 13.8 6.2 14 6 " fill = "rgb(214, 189, 148)" stroke = "rgb(214, 189, 148)" stroke-width = "0"/>
    <path d="M 4.25 7.25 C 4.45 7.05 4.85 6.85 5 7 C 5.15 7.15 5 7.6 5 8 C 5 8.4 4.95 8.65 5 9 C 5.05 9.35 5.05 9.55 5.25 9.75 C 5.45 9.95 5.65 9.95 6 10 C 6.35 10.05 6.6 10 7 10 C 7.4 10 7.6 10 8 10 C 8.4 10 8.6 10 9 10 C 9.4 10 9.6 10 10 10 C 10.4 10 10.6 10 11 10 C 11.4 10 11.6 10 12 10 C 12.4 10 12.65 9.95 13 10 C 13.35 10.05 13.5 10.1 13.75 10.25 C 14 10.4 14 10.6 14.25 10.75 C 14.5 10.9 14.85 10.75 15 11 C 15.15 11.25 15.15 11.75 15 12 C 14.85 12.25 14.45 12.05 14.25 12.25 C 14.05 12.45 14.25 12.85 14 13 C 13.75 13.15 13.2 13.2 13 13 C 12.8 12.8 12.85 12.25 13 12 C 13.15 11.75 13.6 11.9 13.75 11.75 C 13.9 11.6 13.9 11.4 13.75 11.25 C 13.6 11.1 13.35 11.05 13 11 C 12.65 10.95 12.4 11 12 11 C 11.6 11 11.4 11 11 11 C 10.6 11 10.4 11 10 11 C 9.6 11 9.4 11 9 11 C 8.6 11 8.4 11 8 11 C 7.6 11 7.4 11 7 11 C 6.6 11 6.4 11 6 11 C 5.6 11 5.35 10.95 5 11 C 4.65 11.05 4.5 11.1 4.25 11.25 C 4 11.4 4 11.6 3.75 11.75 C 3.5 11.9 3.1 12.1 3 12 C 2.9 11.9 3.1 11.5 3.25 11.25 C 3.4 11 3.6 11 3.75 10.75 C 3.9 10.5 3.95 10.35 4 10 C 4.05 9.65 4 9.4 4 9 C 4 8.6 3.95 8.35 4 8 C 4.05 7.65 4.05 7.45 4.25 7.25 " fill = "rgb(247, 90, 58)" stroke = "rgb(247, 90, 58)" stroke-width = "0"/>
    <path d="M 5 7 C 5.15 6.85 5.55 7.05 5.75 7.25 C 5.95 7.45 5.95 7.65 6 8 C 6.05 8.35 6 8.6 6 9 C 6 9.4 6.15 9.85 6 10 C 5.85 10.15 5.45 9.95 5.25 9.75 C 5.05 9.55 5.05 9.35 5 9 C 4.95 8.65 5 8.4 5 8 C 5 7.6 4.85 7.15 5 7 " fill = "rgb(16, 16, 8)" stroke = "rgb(16, 16, 8)" stroke-width = "0"/>
    <path d="M 14 7 C 14.2 6.8 14.8 6.8 15 7 C 15.2 7.2 15.2 7.8 15 8 C 14.8 8.2 14.2 8.2 14 8 C 13.8 7.8 13.8 7.2 14 7 " fill = "rgb(255, 222, 222)" stroke = "rgb(255, 222, 222)" stroke-width = "0"/>
    <path d="M 14 8 C 14.2 7.8 14.85 7.85 15 8 C 15.15 8.15 14.95 8.55 14.75 8.75 C 14.55 8.95 14.15 9.15 14 9 C 13.85 8.85 13.8 8.2 14 8 " fill = "rgb(74, 74, 66)" stroke = "rgb(74, 74, 66)" stroke-width = "0"/>
    <path d="M 4.25 11.25 C 4.5 11.1 4.65 11.05 5 11 C 5.35 10.95 5.6 11 6 11 C 6.4 11 6.6 11 7 11 C 7.4 11 7.6 11 8 11 C 8.4 11 8.6 11 9 11 C 9.4 11 9.6 11 10 11 C 10.4 11 10.8 10.8 11 11 C 11.2 11.2 11 11.6 11 12 C 11 12.4 11.2 12.8 11 13 C 10.8 13.2 10.4 13 10 13 C 9.6 13 9.4 13 9 13 C 8.6 13 8.25 13.15 8 13 C 7.75 12.85 7.9 12.4 7.75 12.25 C 7.6 12.1 7.4 12.1 7.25 12.25 C 7.1 12.4 7.25 12.85 7 13 C 6.75 13.15 6.4 13 6 13 C 5.6 13 5.4 13 5 13 C 4.6 13 4.4 13 4 13 C 3.6 13 3.2 13.2 3 13 C 2.8 12.8 2.85 12.25 3 12 C 3.15 11.75 3.5 11.9 3.75 11.75 C 4 11.6 4 11.4 4.25 11.25 " fill = "rgb(115, 16, 0)" stroke = "rgb(115, 16, 0)" stroke-width = "0"/>
    <path d="M 11 11 C 11.2 10.8 11.8 10.8 12 11 C 12.2 11.2 12.2 11.8 12 12 C 11.8 12.2 11.2 12.2 11 12 C 10.8 11.8 10.8 11.2 11 11 " fill = "rgb(16, 16, 8)" stroke = "rgb(16, 16, 8)" stroke-width = "0"/>
    <path d="M 12 11 C 12.2 10.8 12.65 10.95 13 11 C 13.35 11.05 13.6 11.1 13.75 11.25 C 13.9 11.4 13.9 11.6 13.75 11.75 C 13.6 11.9 13.35 11.95 13 12 C 12.65 12.05 12.2 12.2 12 12 C 11.8 11.8 11.8 11.2 12 11 " fill = "rgb(115, 16, 0)" stroke = "rgb(115, 16, 0)" stroke-width = "0"/>
    <path d="M 7.25 12.25 C 7.4 12.1 7.6 12.1 7.75 12.25 C 7.9 12.4 8.15 12.85 8 13 C 7.85 13.15 7.15 13.15 7 13 C 6.85 12.85 7.1 12.4 7.25 12.25 " fill = "rgb(247, 90, 58)" stroke = "rgb(247, 90, 58)" stroke-width = "0"/>
    <path d="M 11 12 C 11.2 11.8 11.8 11.8 12 12 C 12.2 12.2 12.2 12.8 12 13 C 11.8 13.2 11.2 13.2 11 13 C 10.8 12.8 10.8 12.2 11 12 " fill = "rgb(247, 90, 58)" stroke = "rgb(247, 90, 58)" stroke-width = "0"/>
    <path d="M 12 12 C 12.2 11.8 12.8 11.8 13 12 C 13.2 12.2 13.2 12.8 13 13 C 12.8 13.2 12.2 13.2 12 13 C 11.8 12.8 11.8 12.2 12 12 " fill = "rgb(255, 222, 222)" stroke = "rgb(255, 222, 222)" stroke-width = "0"/>
    <path d="M 14.25 12.25 C 14.45 12.05 14.85 11.85 15 12 C 15.15 12.15 15.2 12.8 15 13 C 14.8 13.2 14.15 13.15 14 13 C 13.85 12.85 14.05 12.45 14.25 12.25 " fill = "rgb(115, 16, 0)" stroke = "rgb(115, 16, 0)" stroke-width = "0"/>
    <path d="M 3 13 C 3.15 12.85 3.85 12.85 4 13 C 4.15 13.15 3.9 13.6 3.75 13.75 C 3.6 13.9 3.4 13.9 3.25 13.75 C 3.1 13.6 2.85 13.15 3 13 " fill = "rgb(74, 74, 66)" stroke = "rgb(74, 74, 66)" stroke-width = "0"/>
    <path d="M 14 13 C 14.15 12.85 14.85 12.85 15 13 C 15.15 13.15 14.9 13.6 14.75 13.75 C 14.6 13.9 14.4 13.9 14.25 13.75 C 14.1 13.6 13.85 13.15 14 13 " fill = "rgb(214, 189, 148)" stroke = "rgb(214, 189, 148)" stroke-width = "0"/>
    <path d="M 4.25 14.25 C 4.4 14.1 4.85 13.85 5 14 C 5.15 14.15 5.15 14.85 5 15 C 4.85 15.15 4.4 14.9 4.25 14.75 C 4.1 14.6 4.1 14.4 4.25 14.25 " fill = "rgb(255, 222, 222)" stroke = "rgb(255, 222, 222)" stroke-width = "0"/>
    <path d="M 5 14 C 5.2 13.8 5.8 13.8 6 14 C 6.2 14.2 6.2 14.8 6 15 C 5.8 15.2 5.2 15.2 5 15 C 4.8 14.8 4.8 14.2 5 14 " fill = "rgb(214, 189, 148)" stroke = "rgb(214, 189, 148)" stroke-width = "0"/>
    <path d="M 6 14 C 6.2 13.8 6.8 13.8 7 14 C 7.2 14.2 7.2 14.8 7 15 C 6.8 15.2 6.2 15.2 6 15 C 5.8 14.8 5.8 14.2 6 14 " fill = "rgb(74, 74, 66)" stroke = "rgb(74, 74, 66)" stroke-width = "0"/>
    <path d="M 7 14 C 7.2 13.8 7.8 13.8 8 14 C 8.2 14.2 8.2 14.8 8 15 C 7.8 15.2 7.2 15.2 7 15 C 6.8 14.8 6.8 14.2 7 14 " fill = "rgb(255, 222, 222)" stroke = "rgb(255, 222, 222)" stroke-width = "0"/>
    <path d="M 8 14 C 8.2 13.8 8.8 13.8 9 14 C 9.2 14.2 9.2 14.8 9 15 C 8.8 15.2 8.2 15.2 8 15 C 7.8 14.8 7.8 14.2 8 14 " fill = "rgb(214, 189, 148)" stroke = "rgb(214, 189, 148)" stroke-width = "0"/>
    <path d="M 9 14 C 9.2 13.8 9.8 13.8 10 14 C 10.2 14.2 10.2 14.8 10 15 C 9.8 15.2 9.2 15.2 9 15 C 8.8 14.8 8.8 14.2 9 14 " fill = "rgb(74, 74, 66)" stroke = "rgb(74, 74, 66)" stroke-width = "0"/>
    <path d="M 10 14 C 10.2 13.8 10.8 13.8 11 14 C 11.2 14.2 11.2 14.8 11 15 C 10.8 15.2 10.2 15.2 10 15 C 9.8 14.8 9.8 14.2 10 14 " fill = "rgb(255, 222, 222)" stroke = "rgb(255, 222, 222)" stroke-width = "0"/>
    <path d="M 11 14 C 11.2 13.8 11.8 13.8 12 14 C 12.2 14.2 12.2 14.8 12 15 C 11.8 15.2 11.2 15.2 11 15 C 10.8 14.8 10.8 14.2 11 14 " fill = "rgb(214, 189, 148)" stroke = "rgb(214, 189, 148)" stroke-width = "0"/>
    <path d="M 12 14 C 12.2 13.8 12.8 13.8 13 14 C 13.2 14.2 13.2 14.8 13 15 C 12.8 15.2 12.2 15.2 12 15 C 11.8 14.8 11.8 14.2 12 14 " fill = "rgb(74, 74, 66)" stroke = "rgb(74, 74, 66)" stroke-width = "0"/>
    <path d="M 13 14 C 13.15 13.85 13.6 14.1 13.75 14.25 C 13.9 14.4 13.9 14.6 13.75 14.75 C 13.6 14.9 13.15 15.15 13 15 C 12.85 14.85 12.85 14.15 13 14 " fill = "rgb(255, 222, 222)" stroke = "rgb(255, 222, 222)" stroke-width = "0"/>
</svg>
