<svg version="1.1" baseProfile = "full" width = "18" height = "18" xmlns = "http://www.w3.org/2000/svg">
    <path d="M 0 0 C 0.2 -0.2 0.6 -3.49691e-08 1 0 C 1.4 0 1.6 -3.49691e-08 2 0 C 2.4 0 2.6 -3.49691e-08 3 0 C 3.4 0 3.6 -3.49691e-08 4 0 C 4.4 0 4.6 -3.49691e-08 5 0 C 5.4 0 5.6 -3.49691e-08 6 0 C 6.4 0 6.6 -3.49691e-08 7 0 C 7.4 0 7.6 -3.49691e-08 8 0 C 8.4 0 8.6 -3.49691e-08 9 0 C 9.4 0 9.6 -3.49691e-08 10 0 C 10.4 0 10.6 -3.49691e-08 11 0 C 11.4 0 11.6 -3.49691e-08 12 0 C 12.4 0 12.6 -3.49691e-08 13 0 C 13.4 0 13.6 -3.49691e-08 14 0 C 14.4 0 14.6 -3.49691e-08 15 0 C 15.4 0 15.6 -3.49691e-08 16 0 C 16.4 0 16.6 -3.49691e-08 17 0 C 17.4 0 17.8 -0.2 18 0 C 18.2 0.2 18 0.6 18 1 C 18 1.4 18 1.6 18 2 C 18 2.4 18 2.6 18 3 C 18 3.4 18 3.6 18 4 C 18 4.4 18 4.6 18 5 C 18 5.4 18 5.6 18 6 C 18 6.4 18 6.6 18 7 C 18 7.4 18 7.6 18 8 C 18 8.4 18 8.6 18 9 C 18 9.4 18 9.6 18 10 C 18 10.4 18 10.6 18 11 C 18 11.4 18 11.6 18 12 C 18 12.4 18 12.6 18 13 C 18 13.4 18 13.6 18 14 C 18 14.4 18 14.6 18 15 C 18 15.4 18 15.6 18 16 C 18 16.4 18 16.6 18 17 C 18 17.4 18.2 17.8 18 18 C 17.8 18.2 17.4 18 17 18 C 16.6 18 16.4 18 16 18 C 15.6 18 15.4 18 15 18 C 14.6 18 14.4 18 14 18 C 13.6 18 13.4 18 13 18 C 12.6 18 12.4 18 12 18 C 11.6 18 11.4 18 11 18 C 10.6 18 10.4 18 10 18 C 9.6 18 9.4 18 9 18 C 8.6 18 8.4 18 8 18 C 7.6 18 7.4 18 7 18 C 6.6 18 6.4 18 6 18 C 5.6 18 5.4 18 5 18 C 4.6 18 4.4 18 4 18 C 3.6 18 3.4 18 3 18 C 2.6 18 2.4 18 2 18 C 1.6 18 1.4 18 1 18 C 0.6 18 0.2 18.2 0 18 C -0.2 17.8 3.01992e-08 17.4 0 17 C -1.74846e-08 16.6 3.01992e-08 16.4 0 16 C -1.74846e-08 15.6 3.01992e-08 15.4 0 15 C -1.74846e-08 14.6 3.01992e-08 14.4 0 14 C -1.74846e-08 13.6 3.01992e-08 13.4 0 13 C -1.74846e-08 12.6 3.01992e-08 12.4 0 12 C -1.74846e-08 11.6 3.01992e-08 11.4 0 11 C -1.74846e-08 10.6 3.01992e-08 10.4 0 10 C -1.74846e-08 9.6 3.01992e-08 9.4 0 9 C -1.74846e-08 8.6 3.01992e-08 8.4 0 8 C -1.74846e-08 7.6 3.01992e-08 7.4 0 7 C -1.74846e-08 6.6 3.01992e-08 6.4 0 6 C -1.74846e-08 5.6 3.01992e-08 5.4 0 5 C -1.74846e-08 4.6 3.01992e-08 4.4 0 4 C -1.74846e-08 3.6 3.01992e-08 3.4 0 3 C -1.74846e-08 2.6 3.01992e-08 2.4 0 2 C -1.74846e-08 1.6 3.01992e-08 1.4 0 1 C -1.74846e-08 0.6 -0.2 0.2 0 0 " fill = "rgb(235, 0, 235)" stroke = "rgb(235, 0, 235)" stroke-width = "0"/>
    <path d="M 5.25 1.25 C 5.5 1.1 5.65 1.05 6 1 C 6.35 0.95 6.65 0.95 7 1 C 7.35 1.05 7.55 1.05 7.75 1.25 C 7.95 1.45 8.15 1.85 8 2 C 7.85 2.15 7.4 2 7 2 C 6.6 2 6.35 1.95 6 2 C 5.65 2.05 5.45 2.05 5.25 2.25 C 5.05 2.45 5.25 2.85 5 3 C 4.75 3.15 4.15 3.15 4 3 C 3.85 2.85 4.1 2.5 4.25 2.25 C 4.4 2 4.55 1.95 4.75 1.75 C 4.95 1.55 5 1.4 5.25 1.25 " fill = "rgb(140, 140, 148)" stroke = "rgb(140, 140, 148)" stroke-width = "0"/>
    <path d="M 10.25 1.25 C 10.45 1.05 10.65 1.05 11 1 C 11.35 0.95 11.65 0.95 12 1 C 12.35 1.05 12.5 1.1 12.75 1.25 C 13 1.4 13.05 1.55 13.25 1.75 C 13.45 1.95 13.6 2 13.75 2.25 C 13.9 2.5 14.15 2.85 14 3 C 13.85 3.15 13.25 3.15 13 3 C 12.75 2.85 12.95 2.45 12.75 2.25 C 12.55 2.05 12.35 2.05 12 2 C 11.65 1.95 11.4 2 11 2 C 10.6 2 10.15 2.15 10 2 C 9.85 1.85 10.05 1.45 10.25 1.25 " fill = "rgb(140, 140, 148)" stroke = "rgb(140, 140, 148)" stroke-width = "0"/>
    <path d="M 5.25 2.25 C 5.45 2.05 5.9 1.9 6 2 C 6.1 2.1 5.95 2.55 5.75 2.75 C 5.55 2.95 5.1 3.1 5 3 C 4.9 2.9 5.05 2.45 5.25 2.25 " fill = "rgb(197, 197, 214)" stroke = "rgb(197, 197, 214)" stroke-width = "0"/>
    <path d="M 6 2 C 6.25 1.85 6.6 2 7 2 C 7.4 2 7.85 1.85 8 2 C 8.15 2.15 7.9 2.5 7.75 2.75 C 7.6 3 7.4 3 7.25 3.25 C 7.1 3.5 7.25 3.85 7 4 C 6.75 4.15 6.35 4.05 6 4 C 5.65 3.95 5.45 3.95 5.25 3.75 C 5.05 3.55 4.9 3.2 5 3 C 5.1 2.8 5.55 2.95 5.75 2.75 C 5.95 2.55 5.75 2.15 6 2 " fill = "rgb(255, 255, 255)" stroke = "rgb(255, 255, 255)" stroke-width = "0"/>
    <path d="M 8 2 C 8.25 1.85 8.6 2 9 2 C 9.4 2 9.75 1.85 10 2 C 10.25 2.15 10.1 2.5 10.25 2.75 C 10.4 3 10.6 3 10.75 3.25 C 10.9 3.5 11.1 3.9 11 4 C 10.9 4.1 10.5 3.9 10.25 3.75 C 10 3.6 10 3.4 9.75 3.25 C 9.5 3.1 9.3 3 9 3 C 8.7 3 8.5 3.1 8.25 3.25 C 8 3.4 8 3.6 7.75 3.75 C 7.5 3.9 7.1 4.1 7 4 C 6.9 3.9 7.1 3.5 7.25 3.25 C 7.4 3 7.6 3 7.75 2.75 C 7.9 2.5 7.75 2.15 8 2 " fill = "rgb(197, 197, 214)" stroke = "rgb(197, 197, 214)" stroke-width = "0"/>
    <path d="M 10 2 C 10.15 1.85 10.6 2 11 2 C 11.4 2 11.75 1.85 12 2 C 12.25 2.15 12.05 2.55 12.25 2.75 C 12.45 2.95 12.9 2.8 13 3 C 13.1 3.2 12.95 3.55 12.75 3.75 C 12.55 3.95 12.35 3.95 12 4 C 11.65 4.05 11.25 4.15 11 4 C 10.75 3.85 10.9 3.5 10.75 3.25 C 10.6 3 10.4 3 10.25 2.75 C 10.1 2.5 9.85 2.15 10 2 " fill = "rgb(255, 255, 255)" stroke = "rgb(255, 255, 255)" stroke-width = "0"/>
    <path d="M 12 2 C 12.1 1.9 12.55 2.05 12.75 2.25 C 12.95 2.45 13.1 2.9 13 3 C 12.9 3.1 12.45 2.95 12.25 2.75 C 12.05 2.55 11.9 2.1 12 2 " fill = "rgb(197, 197, 214)" stroke = "rgb(197, 197, 214)" stroke-width = "0"/>
    <path d="M 4 3 C 4.15 2.85 4.75 2.85 5 3 C 5.25 3.15 5.05 3.55 5.25 3.75 C 5.45 3.95 5.65 3.95 6 4 C 6.35 4.05 6.8 3.8 7 4 C 7.2 4.2 7.05 4.65 7 5 C 6.95 5.35 6.9 5.5 6.75 5.75 C 6.6 6 6.4 6 6.25 6.25 C 6.1 6.5 6.25 6.85 6 7 C 5.75 7.15 5.15 7.15 5 7 C 4.85 6.85 5.1 6.5 5.25 6.25 C 5.4 6 5.65 5.95 5.75 5.75 C 5.85 5.55 5.85 5.45 5.75 5.25 C 5.65 5.05 5.45 4.95 5.25 4.75 C 5.05 4.55 4.95 4.45 4.75 4.25 C 4.55 4.05 4.4 4 4.25 3.75 C 4.1 3.5 3.85 3.15 4 3 " fill = "rgb(58, 58, 74)" stroke = "rgb(58, 58, 74)" stroke-width = "0"/>
    <path d="M 8.25 3.25 C 8.5 3.1 8.7 3 9 3 C 9.3 3 9.5 3.1 9.75 3.25 C 10 3.4 10 3.6 10.25 3.75 C 10.5 3.9 10.85 3.75 11 4 C 11.15 4.25 11.15 4.85 11 5 C 10.85 5.15 10.5 4.9 10.25 4.75 C 10 4.6 10 4.4 9.75 4.25 C 9.5 4.1 9.3 4 9 4 C 8.7 4 8.5 4.1 8.25 4.25 C 8 4.4 8 4.6 7.75 4.75 C 7.5 4.9 7.15 5.15 7 5 C 6.85 4.85 6.85 4.25 7 4 C 7.15 3.75 7.5 3.9 7.75 3.75 C 8 3.6 8 3.4 8.25 3.25 " fill = "rgb(140, 140, 148)" stroke = "rgb(140, 140, 148)" stroke-width = "0"/>
    <path d="M 13 3 C 13.25 2.85 13.85 2.85 14 3 C 14.15 3.15 13.9 3.5 13.75 3.75 C 13.6 4 13.45 4.05 13.25 4.25 C 13.05 4.45 12.95 4.55 12.75 4.75 C 12.55 4.95 12.35 5.05 12.25 5.25 C 12.15 5.45 12.15 5.55 12.25 5.75 C 12.35 5.95 12.6 6 12.75 6.25 C 12.9 6.5 13.15 6.85 13 7 C 12.85 7.15 12.25 7.15 12 7 C 11.75 6.85 11.9 6.5 11.75 6.25 C 11.6 6 11.4 6 11.25 5.75 C 11.1 5.5 11.05 5.35 11 5 C 10.95 4.65 10.8 4.2 11 4 C 11.2 3.8 11.65 4.05 12 4 C 12.35 3.95 12.55 3.95 12.75 3.75 C 12.95 3.55 12.75 3.15 13 3 " fill = "rgb(58, 58, 74)" stroke = "rgb(58, 58, 74)" stroke-width = "0"/>
    <path d="M 8.25 4.25 C 8.5 4.1 8.7 4 9 4 C 9.3 4 9.5 4.1 9.75 4.25 C 10 4.4 10 4.6 10.25 4.75 C 10.5 4.9 10.8 4.8 11 5 C 11.2 5.2 11.1 5.5 11.25 5.75 C 11.4 6 11.6 6 11.75 6.25 C 11.9 6.5 12.1 6.9 12 7 C 11.9 7.1 11.5 6.9 11.25 6.75 C 11 6.6 11 6.4 10.75 6.25 C 10.5 6.1 10.35 6.05 10 6 C 9.65 5.95 9.4 6 9 6 C 8.6 6 8.35 5.95 8 6 C 7.65 6.05 7.5 6.1 7.25 6.25 C 7 6.4 7 6.6 6.75 6.75 C 6.5 6.9 6.1 7.1 6 7 C 5.9 6.9 6.1 6.5 6.25 6.25 C 6.4 6 6.6 6 6.75 5.75 C 6.9 5.5 6.8 5.2 7 5 C 7.2 4.8 7.5 4.9 7.75 4.75 C 8 4.6 8 4.4 8.25 4.25 " fill = "rgb(197, 197, 214)" stroke = "rgb(197, 197, 214)" stroke-width = "0"/>
    <path d="M 7.25 6.25 C 7.5 6.1 7.65 6.05 8 6 C 8.35 5.95 8.6 6 9 6 C 9.4 6 9.65 5.95 10 6 C 10.35 6.05 10.5 6.1 10.75 6.25 C 11 6.4 11 6.6 11.25 6.75 C 11.5 6.9 11.65 6.95 12 7 C 12.35 7.05 12.8 6.8 13 7 C 13.2 7.2 13.2 7.8 13 8 C 12.8 8.2 12.4 8 12 8 C 11.6 8 11.25 8.15 11 8 C 10.75 7.85 10.95 7.45 10.75 7.25 C 10.55 7.05 10.35 7.05 10 7 C 9.65 6.95 9.4 7 9 7 C 8.6 7 8.35 6.95 8 7 C 7.65 7.05 7.45 7.05 7.25 7.25 C 7.05 7.45 7.25 7.85 7 8 C 6.75 8.15 6.4 8 6 8 C 5.6 8 5.2 8.2 5 8 C 4.8 7.8 4.8 7.2 5 7 C 5.2 6.8 5.65 7.05 6 7 C 6.35 6.95 6.5 6.9 6.75 6.75 C 7 6.6 7 6.4 7.25 6.25 " fill = "rgb(140, 140, 148)" stroke = "rgb(140, 140, 148)" stroke-width = "0"/>
    <path d="M 7.25 7.25 C 7.45 7.05 7.65 7.05 8 7 C 8.35 6.95 8.6 7 9 7 C 9.4 7 9.65 6.95 10 7 C 10.35 7.05 10.55 7.05 10.75 7.25 C 10.95 7.45 11.15 7.85 11 8 C 10.85 8.15 10.4 8 10 8 C 9.6 8 9.4 8 9 8 C 8.6 8 8.4 8 8 8 C 7.6 8 7.15 8.15 7 8 C 6.85 7.85 7.05 7.45 7.25 7.25 " fill = "rgb(197, 197, 214)" stroke = "rgb(197, 197, 214)" stroke-width = "0"/>
    <path d="M 4.25 8.25 C 4.45 8.05 4.85 7.85 5 8 C 5.15 8.15 5.2 8.8 5 9 C 4.8 9.2 4.15 9.15 4 9 C 3.85 8.85 4.05 8.45 4.25 8.25 " fill = "rgb(58, 58, 74)" stroke = "rgb(58, 58, 74)" stroke-width = "0"/>
    <path d="M 5 8 C 5.2 7.8 5.85 7.85 6 8 C 6.15 8.15 5.95 8.55 5.75 8.75 C 5.55 8.95 5.15 9.15 5 9 C 4.85 8.85 4.8 8.2 5 8 " fill = "rgb(197, 197, 214)" stroke = "rgb(197, 197, 214)" stroke-width = "0"/>
    <path d="M 6 8 C 6.25 7.85 6.6 8 7 8 C 7.4 8 7.75 7.85 8 8 C 8.25 8.15 8.05 8.55 8.25 8.75 C 8.45 8.95 8.7 9 9 9 C 9.3 9 9.55 8.95 9.75 8.75 C 9.95 8.55 9.75 8.15 10 8 C 10.25 7.85 10.6 8 11 8 C 11.4 8 11.75 7.85 12 8 C 12.25 8.15 12.05 8.55 12.25 8.75 C 12.45 8.95 12.85 8.75 13 9 C 13.15 9.25 13.05 9.65 13 10 C 12.95 10.35 12.95 10.55 12.75 10.75 C 12.55 10.95 12.3 10.9 12 11 C 11.7 11.1 11.45 11.05 11.25 11.25 C 11.05 11.45 11.25 11.85 11 12 C 10.75 12.15 10.4 12 10 12 C 9.6 12 9.4 12 9 12 C 8.6 12 8.4 12 8 12 C 7.6 12 7.25 12.15 7 12 C 6.75 11.85 6.95 11.45 6.75 11.25 C 6.55 11.05 6.3 11.1 6 11 C 5.7 10.9 5.45 10.95 5.25 10.75 C 5.05 10.55 5.05 10.35 5 10 C 4.95 9.65 4.85 9.25 5 9 C 5.15 8.75 5.55 8.95 5.75 8.75 C 5.95 8.55 5.75 8.15 6 8 " fill = "rgb(255, 255, 255)" stroke = "rgb(255, 255, 255)" stroke-width = "0"/>
    <path d="M 8 8 C 8.15 7.85 8.6 8 9 8 C 9.4 8 9.85 7.85 10 8 C 10.15 8.15 9.95 8.55 9.75 8.75 C 9.55 8.95 9.3 9 9 9 C 8.7 9 8.45 8.95 8.25 8.75 C 8.05 8.55 7.85 8.15 8 8 " fill = "rgb(140, 140, 148)" stroke = "rgb(140, 140, 148)" stroke-width = "0"/>
    <path d="M 12 8 C 12.15 7.85 12.8 7.8 13 8 C 13.2 8.2 13.15 8.85 13 9 C 12.85 9.15 12.45 8.95 12.25 8.75 C 12.05 8.55 11.85 8.15 12 8 " fill = "rgb(197, 197, 214)" stroke = "rgb(197, 197, 214)" stroke-width = "0"/>
    <path d="M 13 8 C 13.15 7.85 13.55 8.05 13.75 8.25 C 13.95 8.45 14.15 8.85 14 9 C 13.85 9.15 13.2 9.2 13 9 C 12.8 8.8 12.85 8.15 13 8 " fill = "rgb(58, 58, 74)" stroke = "rgb(58, 58, 74)" stroke-width = "0"/>
    <path d="M 4 9 C 4.2 8.8 4.8 8.8 5 9 C 5.2 9.2 5.2 9.8 5 10 C 4.8 10.2 4.2 10.2 4 10 C 3.8 9.8 3.8 9.2 4 9 " fill = "rgb(140, 140, 148)" stroke = "rgb(140, 140, 148)" stroke-width = "0"/>
    <path d="M 7.25 9.25 C 7.35 9.15 7.65 9.15 7.75 9.25 C 7.85 9.35 7.85 9.65 7.75 9.75 C 7.65 9.85 7.35 9.85 7.25 9.75 C 7.15 9.65 7.15 9.35 7.25 9.25 " fill = "rgb(197, 197, 214)" stroke = "rgb(197, 197, 214)" stroke-width = "0"/>
    <path d="M 10.25 9.25 C 10.35 9.15 10.65 9.15 10.75 9.25 C 10.85 9.35 10.85 9.65 10.75 9.75 C 10.65 9.85 10.35 9.85 10.25 9.75 C 10.15 9.65 10.15 9.35 10.25 9.25 " fill = "rgb(197, 197, 214)" stroke = "rgb(197, 197, 214)" stroke-width = "0"/>
    <path d="M 13 9 C 13.2 8.8 13.8 8.8 14 9 C 14.2 9.2 14.2 9.8 14 10 C 13.8 10.2 13.2 10.2 13 10 C 12.8 9.8 12.8 9.2 13 9 " fill = "rgb(140, 140, 148)" stroke = "rgb(140, 140, 148)" stroke-width = "0"/>
    <path d="M 3.25 10.25 C 3.45 10.05 3.85 9.85 4 10 C 4.15 10.15 4 10.6 4 11 C 4 11.4 4 11.6 4 12 C 4 12.4 3.95 12.65 4 13 C 4.05 13.35 4.05 13.55 4.25 13.75 C 4.45 13.95 4.9 13.8 5 14 C 5.1 14.2 4.9 14.6 4.75 14.75 C 4.6 14.9 4.45 14.85 4.25 14.75 C 4.05 14.65 4 14.4 3.75 14.25 C 3.5 14.1 3.2 14.2 3 14 C 2.8 13.8 2.9 13.4 2.75 13.25 C 2.6 13.1 2.4 13.1 2.25 13.25 C 2.1 13.4 2 13.7 2 14 C 2 14.3 2.05 14.55 2.25 14.75 C 2.45 14.95 2.8 14.8 3 15 C 3.2 15.2 3.05 15.55 3.25 15.75 C 3.45 15.95 3.7 16 4 16 C 4.3 16 4.5 15.9 4.75 15.75 C 5 15.6 5 15.4 5.25 15.25 C 5.5 15.1 5.65 15.05 6 15 C 6.35 14.95 6.8 14.8 7 15 C 7.2 15.2 7.2 15.8 7 16 C 6.8 16.2 6.35 15.95 6 16 C 5.65 16.05 5.5 16.1 5.25 16.25 C 5 16.4 5 16.6 4.75 16.75 C 4.5 16.9 4.3 17 4 17 C 3.7 17 3.5 16.9 3.25 16.75 C 3 16.6 2.95 16.45 2.75 16.25 C 2.55 16.05 2.45 15.95 2.25 15.75 C 2.05 15.55 1.95 15.45 1.75 15.25 C 1.55 15.05 1.4 15 1.25 14.75 C 1.1 14.5 1 14.3 1 14 C 1 13.7 1.1 13.5 1.25 13.25 C 1.4 13 1.55 12.95 1.75 12.75 C 1.95 12.55 2.05 12.45 2.25 12.25 C 2.45 12.05 2.6 12 2.75 11.75 C 2.9 11.5 2.9 11.3 3 11 C 3.1 10.7 3.05 10.45 3.25 10.25 " fill = "rgb(58, 58, 74)" stroke = "rgb(58, 58, 74)" stroke-width = "0"/>
    <path d="M 4 10 C 4.2 9.8 4.75 9.85 5 10 C 5.25 10.15 5.05 10.55 5.25 10.75 C 5.45 10.95 5.85 10.75 6 11 C 6.15 11.25 6.15 11.75 6 12 C 5.85 12.25 5.5 12.1 5.25 12.25 C 5 12.4 5 12.6 4.75 12.75 C 4.5 12.9 4.15 13.15 4 13 C 3.85 12.85 4 12.4 4 12 C 4 11.6 4 11.4 4 11 C 4 10.6 3.8 10.2 4 10 " fill = "rgb(197, 197, 214)" stroke = "rgb(197, 197, 214)" stroke-width = "0"/>
    <path d="M 13 10 C 13.25 9.85 13.8 9.8 14 10 C 14.2 10.2 14 10.6 14 11 C 14 11.4 14 11.6 14 12 C 14 12.4 14.15 12.85 14 13 C 13.85 13.15 13.5 12.9 13.25 12.75 C 13 12.6 13 12.4 12.75 12.25 C 12.5 12.1 12.15 12.25 12 12 C 11.85 11.75 11.85 11.25 12 11 C 12.15 10.75 12.55 10.95 12.75 10.75 C 12.95 10.55 12.75 10.15 13 10 " fill = "rgb(197, 197, 214)" stroke = "rgb(197, 197, 214)" stroke-width = "0"/>
    <path d="M 14 10 C 14.15 9.85 14.55 10.05 14.75 10.25 C 14.95 10.45 14.9 10.7 15 11 C 15.1 11.3 15.1 11.5 15.25 11.75 C 15.4 12 15.55 12.05 15.75 12.25 C 15.95 12.45 16.05 12.55 16.25 12.75 C 16.45 12.95 16.6 13 16.75 13.25 C 16.9 13.5 17 13.7 17 14 C 17 14.3 16.9 14.5 16.75 14.75 C 16.6 15 16.45 15.05 16.25 15.25 C 16.05 15.45 15.95 15.55 15.75 15.75 C 15.55 15.95 15.45 16.05 15.25 16.25 C 15.05 16.45 15 16.6 14.75 16.75 C 14.5 16.9 14.3 17 14 17 C 13.7 17 13.5 16.9 13.25 16.75 C 13 16.6 13 16.4 12.75 16.25 C 12.5 16.1 12.35 16.05 12 16 C 11.65 15.95 11.2 16.2 11 16 C 10.8 15.8 10.8 15.2 11 15 C 11.2 14.8 11.65 14.95 12 15 C 12.35 15.05 12.5 15.1 12.75 15.25 C 13 15.4 13 15.6 13.25 15.75 C 13.5 15.9 13.7 16 14 16 C 14.3 16 14.55 15.95 14.75 15.75 C 14.95 15.55 14.8 15.2 15 15 C 15.2 14.8 15.55 14.95 15.75 14.75 C 15.95 14.55 16 14.3 16 14 C 16 13.7 15.9 13.4 15.75 13.25 C 15.6 13.1 15.4 13.1 15.25 13.25 C 15.1 13.4 15.2 13.8 15 14 C 14.8 14.2 14.5 14.1 14.25 14.25 C 14 14.4 13.95 14.65 13.75 14.75 C 13.55 14.85 13.4 14.9 13.25 14.75 C 13.1 14.6 12.9 14.2 13 14 C 13.1 13.8 13.55 13.95 13.75 13.75 C 13.95 13.55 13.95 13.35 14 13 C 14.05 12.65 14 12.4 14 12 C 14 11.6 14 11.4 14 11 C 14 10.6 13.85 10.15 14 10 " fill = "rgb(58, 58, 74)" stroke = "rgb(58, 58, 74)" stroke-width = "0"/>
    <path d="M 6 11 C 6.15 10.85 6.55 11.05 6.75 11.25 C 6.95 11.45 6.95 11.65 7 12 C 7.05 12.35 7.2 12.8 7 13 C 6.8 13.2 6.2 13.2 6 13 C 5.8 12.8 6 12.4 6 12 C 6 11.6 5.85 11.15 6 11 " fill = "rgb(0, 0, 0)" stroke = "rgb(0, 0, 0)" stroke-width = "0"/>
    <path d="M 11.25 11.25 C 11.45 11.05 11.85 10.85 12 11 C 12.15 11.15 12 11.6 12 12 C 12 12.4 12.2 12.8 12 13 C 11.8 13.2 11.2 13.2 11 13 C 10.8 12.8 10.95 12.35 11 12 C 11.05 11.65 11.05 11.45 11.25 11.25 " fill = "rgb(0, 0, 0)" stroke = "rgb(0, 0, 0)" stroke-width = "0"/>
    <path d="M 5.25 12.25 C 5.5 12.1 5.85 11.85 6 12 C 6.15 12.15 6.15 12.75 6 13 C 5.85 13.25 5.45 13.05 5.25 13.25 C 5.05 13.45 5.2 13.9 5 14 C 4.8 14.1 4.45 13.95 4.25 13.75 C 4.05 13.55 3.9 13.2 4 13 C 4.1 12.8 4.5 12.9 4.75 12.75 C 5 12.6 5 12.4 5.25 12.25 " fill = "rgb(140, 140, 148)" stroke = "rgb(140, 140, 148)" stroke-width = "0"/>
    <path d="M 7 12 C 7.2 11.8 7.8 11.8 8 12 C 8.2 12.2 8.2 12.8 8 13 C 7.8 13.2 7.2 13.2 7 13 C 6.8 12.8 6.8 12.2 7 12 " fill = "rgb(140, 140, 148)" stroke = "rgb(140, 140, 148)" stroke-width = "0"/>
    <path d="M 8 12 C 8.2 11.8 8.6 12 9 12 C 9.4 12 9.8 11.8 10 12 C 10.2 12.2 10.2 12.8 10 13 C 9.8 13.2 9.4 13 9 13 C 8.6 13 8.2 13.2 8 13 C 7.8 12.8 7.8 12.2 8 12 " fill = "rgb(197, 197, 214)" stroke = "rgb(197, 197, 214)" stroke-width = "0"/>
    <path d="M 10 12 C 10.2 11.8 10.8 11.8 11 12 C 11.2 12.2 11.2 12.8 11 13 C 10.8 13.2 10.2 13.2 10 13 C 9.8 12.8 9.8 12.2 10 12 " fill = "rgb(140, 140, 148)" stroke = "rgb(140, 140, 148)" stroke-width = "0"/>
    <path d="M 12 12 C 12.15 11.85 12.5 12.1 12.75 12.25 C 13 12.4 13 12.6 13.25 12.75 C 13.5 12.9 13.9 12.8 14 13 C 14.1 13.2 13.95 13.55 13.75 13.75 C 13.55 13.95 13.2 14.1 13 14 C 12.8 13.9 12.95 13.45 12.75 13.25 C 12.55 13.05 12.15 13.25 12 13 C 11.85 12.75 11.85 12.15 12 12 " fill = "rgb(140, 140, 148)" stroke = "rgb(140, 140, 148)" stroke-width = "0"/>
    <path d="M 2.25 13.25 C 2.4 13.1 2.6 13.1 2.75 13.25 C 2.9 13.4 3.15 13.85 3 14 C 2.85 14.15 2.15 14.15 2 14 C 1.85 13.85 2.1 13.4 2.25 13.25 " fill = "rgb(255, 255, 255)" stroke = "rgb(255, 255, 255)" stroke-width = "0"/>
    <path d="M 5.25 13.25 C 5.45 13.05 5.65 13.05 6 13 C 6.35 12.95 6.6 13 7 13 C 7.4 13 7.8 12.8 8 13 C 8.2 13.2 8.15 13.75 8 14 C 7.85 14.25 7.45 14.05 7.25 14.25 C 7.05 14.45 7.25 14.85 7 15 C 6.75 15.15 6.25 15.15 6 15 C 5.75 14.85 5.95 14.45 5.75 14.25 C 5.55 14.05 5.1 14.2 5 14 C 4.9 13.8 5.05 13.45 5.25 13.25 " fill = "rgb(255, 255, 255)" stroke = "rgb(255, 255, 255)" stroke-width = "0"/>
    <path d="M 8 13 C 8.2 12.8 8.6 13 9 13 C 9.4 13 9.8 12.8 10 13 C 10.2 13.2 10.2 13.8 10 14 C 9.8 14.2 9.4 14 9 14 C 8.6 14 8.2 14.2 8 14 C 7.8 13.8 7.8 13.2 8 13 " fill = "rgb(58, 58, 74)" stroke = "rgb(58, 58, 74)" stroke-width = "0"/>
    <path d="M 10 13 C 10.2 12.8 10.6 13 11 13 C 11.4 13 11.65 12.95 12 13 C 12.35 13.05 12.55 13.05 12.75 13.25 C 12.95 13.45 13.1 13.8 13 14 C 12.9 14.2 12.45 14.05 12.25 14.25 C 12.05 14.45 12.25 14.85 12 15 C 11.75 15.15 11.25 15.15 11 15 C 10.75 14.85 10.95 14.45 10.75 14.25 C 10.55 14.05 10.15 14.25 10 14 C 9.85 13.75 9.8 13.2 10 13 " fill = "rgb(255, 255, 255)" stroke = "rgb(255, 255, 255)" stroke-width = "0"/>
    <path d="M 15.25 13.25 C 15.4 13.1 15.6 13.1 15.75 13.25 C 15.9 13.4 16.15 13.85 16 14 C 15.85 14.15 15.15 14.15 15 14 C 14.85 13.85 15.1 13.4 15.25 13.25 " fill = "rgb(255, 255, 255)" stroke = "rgb(255, 255, 255)" stroke-width = "0"/>
    <path d="M 2 14 C 2.15 13.85 2.65 13.95 3 14 C 3.35 14.05 3.5 14.1 3.75 14.25 C 4 14.4 4.05 14.65 4.25 14.75 C 4.45 14.85 4.6 14.9 4.75 14.75 C 4.9 14.6 4.8 14.1 5 14 C 5.2 13.9 5.55 14.05 5.75 14.25 C 5.95 14.45 6.1 14.8 6 15 C 5.9 15.2 5.5 15.1 5.25 15.25 C 5 15.4 5 15.6 4.75 15.75 C 4.5 15.9 4.2 16.1 4 16 C 3.8 15.9 3.95 15.45 3.75 15.25 C 3.55 15.05 3.3 15.1 3 15 C 2.7 14.9 2.45 14.95 2.25 14.75 C 2.05 14.55 1.85 14.15 2 14 " fill = "rgb(197, 197, 214)" stroke = "rgb(197, 197, 214)" stroke-width = "0"/>
    <path d="M 7.25 14.25 C 7.45 14.05 7.85 13.85 8 14 C 8.15 14.15 8.2 14.8 8 15 C 7.8 15.2 7.15 15.15 7 15 C 6.85 14.85 7.05 14.45 7.25 14.25 " fill = "rgb(140, 140, 148)" stroke = "rgb(140, 140, 148)" stroke-width = "0"/>
    <path d="M 8 14 C 8.2 13.8 8.6 14 9 14 C 9.4 14 9.8 13.8 10 14 C 10.2 14.2 10 14.6 10 15 C 10 15.4 10.2 15.8 10 16 C 9.8 16.2 9.4 16 9 16 C 8.6 16 8.2 16.2 8 16 C 7.8 15.8 8 15.4 8 15 C 8 14.6 7.8 14.2 8 14 " fill = "rgb(255, 165, 181)" stroke = "rgb(255, 165, 181)" stroke-width = "0"/>
    <path d="M 10 14 C 10.15 13.85 10.55 14.05 10.75 14.25 C 10.95 14.45 11.15 14.85 11 15 C 10.85 15.15 10.2 15.2 10 15 C 9.8 14.8 9.85 14.15 10 14 " fill = "rgb(140, 140, 148)" stroke = "rgb(140, 140, 148)" stroke-width = "0"/>
    <path d="M 12.25 14.25 C 12.45 14.05 12.8 13.9 13 14 C 13.2 14.1 13.1 14.6 13.25 14.75 C 13.4 14.9 13.55 14.85 13.75 14.75 C 13.95 14.65 14 14.4 14.25 14.25 C 14.5 14.1 14.65 14.05 15 14 C 15.35 13.95 15.85 13.85 16 14 C 16.15 14.15 15.95 14.55 15.75 14.75 C 15.55 14.95 15.3 14.9 15 15 C 14.7 15.1 14.45 15.05 14.25 15.25 C 14.05 15.45 14.2 15.9 14 16 C 13.8 16.1 13.5 15.9 13.25 15.75 C 13 15.6 13 15.4 12.75 15.25 C 12.5 15.1 12.1 15.2 12 15 C 11.9 14.8 12.05 14.45 12.25 14.25 " fill = "rgb(197, 197, 214)" stroke = "rgb(197, 197, 214)" stroke-width = "0"/>
    <path d="M 3 15 C 3.1 14.9 3.55 15.05 3.75 15.25 C 3.95 15.45 4.1 15.9 4 16 C 3.9 16.1 3.45 15.95 3.25 15.75 C 3.05 15.55 2.9 15.1 3 15 " fill = "rgb(255, 255, 255)" stroke = "rgb(255, 255, 255)" stroke-width = "0"/>
    <path d="M 7 15 C 7.2 14.8 7.8 14.8 8 15 C 8.2 15.2 8.2 15.8 8 16 C 7.8 16.2 7.2 16.2 7 16 C 6.8 15.8 6.8 15.2 7 15 " fill = "rgb(214, 107, 123)" stroke = "rgb(214, 107, 123)" stroke-width = "0"/>
    <path d="M 10 15 C 10.2 14.8 10.8 14.8 11 15 C 11.2 15.2 11.2 15.8 11 16 C 10.8 16.2 10.2 16.2 10 16 C 9.8 15.8 9.8 15.2 10 15 " fill = "rgb(214, 107, 123)" stroke = "rgb(214, 107, 123)" stroke-width = "0"/>
    <path d="M 14.25 15.25 C 14.45 15.05 14.9 14.9 15 15 C 15.1 15.1 14.95 15.55 14.75 15.75 C 14.55 15.95 14.1 16.1 14 16 C 13.9 15.9 14.05 15.45 14.25 15.25 " fill = "rgb(255, 255, 255)" stroke = "rgb(255, 255, 255)" stroke-width = "0"/>
    <path d="M 8 16 C 8.15 15.85 8.6 16 9 16 C 9.4 16 9.85 15.85 10 16 C 10.15 16.15 9.95 16.55 9.75 16.75 C 9.55 16.95 9.3 17 9 17 C 8.7 17 8.45 16.95 8.25 16.75 C 8.05 16.55 7.85 16.15 8 16 " fill = "rgb(140, 66, 82)" stroke = "rgb(140, 66, 82)" stroke-width = "0"/>
</svg>
