<svg version="1.1" baseProfile = "full" width = "36" height = "35" xmlns = "http://www.w3.org/2000/svg">
    <path d="M 0 0 C 0.2 -0.2 0.6 -3.49691e-08 1 0 C 1.4 0 1.6 -3.49691e-08 2 0 C 2.4 0 2.6 -3.49691e-08 3 0 C 3.4 0 3.6 -3.49691e-08 4 0 C 4.4 0 4.6 -3.49691e-08 5 0 C 5.4 0 5.6 -3.49691e-08 6 0 C 6.4 0 6.6 -3.49691e-08 7 0 C 7.4 0 7.6 -3.49691e-08 8 0 C 8.4 0 8.6 -3.49691e-08 9 0 C 9.4 0 9.6 -3.49691e-08 10 0 C 10.4 0 10.6 -3.49691e-08 11 0 C 11.4 0 11.6 -3.49691e-08 12 0 C 12.4 0 12.6 -3.49691e-08 13 0 C 13.4 0 13.6 -3.49691e-08 14 0 C 14.4 0 14.6 -3.49691e-08 15 0 C 15.4 0 15.6 -3.49691e-08 16 0 C 16.4 0 16.6 -3.49691e-08 17 0 C 17.4 0 17.6 -3.49691e-08 18 0 C 18.4 0 18.6 -3.49691e-08 19 0 C 19.4 0 19.6 -3.49691e-08 20 0 C 20.4 0 20.6 -3.49691e-08 21 0 C 21.4 0 21.6 -3.49691e-08 22 0 C 22.4 0 22.6 -3.49691e-08 23 0 C 23.4 0 23.6 -3.49691e-08 24 0 C 24.4 0 24.6 -3.49691e-08 25 0 C 25.4 0 25.6 -3.49691e-08 26 0 C 26.4 0 26.6 -3.49691e-08 27 0 C 27.4 0 27.6 -3.49691e-08 28 0 C 28.4 0 28.6 -3.49691e-08 29 0 C 29.4 0 29.6 -3.49691e-08 30 0 C 30.4 0 30.6 -3.49691e-08 31 0 C 31.4 0 31.6 -3.49691e-08 32 0 C 32.4 0 32.6 -3.49691e-08 33 0 C 33.4 0 33.6 -3.49691e-08 34 0 C 34.4 0 34.6 -3.49691e-08 35 0 C 35.4 0 35.8 -0.2 36 0 C 36.2 0.2 36 0.6 36 1 C 36 1.4 36 1.6 36 2 C 36 2.4 36 2.6 36 3 C 36 3.4 36 3.6 36 4 C 36 4.4 36 4.6 36 5 C 36 5.4 36 5.6 36 6 C 36 6.4 36 6.6 36 7 C 36 7.4 36 7.6 36 8 C 36 8.4 36 8.6 36 9 C 36 9.4 36 9.6 36 10 C 36 10.4 36 10.6 36 11 C 36 11.4 36 11.6 36 12 C 36 12.4 36 12.6 36 13 C 36 13.4 36 13.6 36 14 C 36 14.4 36 14.6 36 15 C 36 15.4 36 15.6 36 16 C 36 16.4 36 16.6 36 17 C 36 17.4 36 17.6 36 18 C 36 18.4 36 18.6 36 19 C 36 19.4 36 19.6 36 20 C 36 20.4 36 20.6 36 21 C 36 21.4 36 21.6 36 22 C 36 22.4 36 22.6 36 23 C 36 23.4 36 23.6 36 24 C 36 24.4 36 24.6 36 25 C 36 25.4 36 25.6 36 26 C 36 26.4 36 26.6 36 27 C 36 27.4 36 27.6 36 28 C 36 28.4 36 28.6 36 29 C 36 29.4 36 29.6 36 30 C 36 30.4 36 30.6 36 31 C 36 31.4 36 31.6 36 32 C 36 32.4 36 32.6 36 33 C 36 33.4 36 33.6 36 34 C 36 34.4 36.2 34.8 36 35 C 35.8 35.2 35.4 35 35 35 C 34.6 35 34.4 35 34 35 C 33.6 35 33.4 35 33 35 C 32.6 35 32.4 35 32 35 C 31.6 35 31.4 35 31 35 C 30.6 35 30.4 35 30 35 C 29.6 35 29.4 35 29 35 C 28.6 35 28.4 35 28 35 C 27.6 35 27.4 35 27 35 C 26.6 35 26.4 35 26 35 C 25.6 35 25.4 35 25 35 C 24.6 35 24.4 35 24 35 C 23.6 35 23.4 35 23 35 C 22.6 35 22.4 35 22 35 C 21.6 35 21.4 35 21 35 C 20.6 35 20.4 35 20 35 C 19.6 35 19.4 35 19 35 C 18.6 35 18.4 35 18 35 C 17.6 35 17.4 35 17 35 C 16.6 35 16.4 35 16 35 C 15.6 35 15.4 35 15 35 C 14.6 35 14.4 35 14 35 C 13.6 35 13.4 35 13 35 C 12.6 35 12.4 35 12 35 C 11.6 35 11.4 35 11 35 C 10.6 35 10.4 35 10 35 C 9.6 35 9.4 35 9 35 C 8.6 35 8.4 35 8 35 C 7.6 35 7.4 35 7 35 C 6.6 35 6.4 35 6 35 C 5.6 35 5.4 35 5 35 C 4.6 35 4.4 35 4 35 C 3.6 35 3.4 35 3 35 C 2.6 35 2.4 35 2 35 C 1.6 35 1.4 35 1 35 C 0.6 35 0.2 35.2 0 35 C -0.2 34.8 3.01992e-08 34.4 0 34 C -1.74846e-08 33.6 3.01992e-08 33.4 0 33 C -1.74846e-08 32.6 3.01992e-08 32.4 0 32 C -1.74846e-08 31.6 3.01992e-08 31.4 0 31 C -1.74846e-08 30.6 3.01992e-08 30.4 0 30 C -1.74846e-08 29.6 3.01992e-08 29.4 0 29 C -1.74846e-08 28.6 3.01992e-08 28.4 0 28 C -1.74846e-08 27.6 3.01992e-08 27.4 0 27 C -1.74846e-08 26.6 3.01992e-08 26.4 0 26 C -1.74846e-08 25.6 3.01992e-08 25.4 0 25 C -1.74846e-08 24.6 3.01992e-08 24.4 0 24 C -1.74846e-08 23.6 3.01992e-08 23.4 0 23 C -1.74846e-08 22.6 3.01992e-08 22.4 0 22 C -1.74846e-08 21.6 3.01992e-08 21.4 0 21 C -1.74846e-08 20.6 3.01992e-08 20.4 0 20 C -1.74846e-08 19.6 3.01992e-08 19.4 0 19 C -1.74846e-08 18.6 3.01992e-08 18.4 0 18 C -1.74846e-08 17.6 3.01992e-08 17.4 0 17 C -1.74846e-08 16.6 3.01992e-08 16.4 0 16 C -1.74846e-08 15.6 3.01992e-08 15.4 0 15 C -1.74846e-08 14.6 3.01992e-08 14.4 0 14 C -1.74846e-08 13.6 3.01992e-08 13.4 0 13 C -1.74846e-08 12.6 3.01992e-08 12.4 0 12 C -1.74846e-08 11.6 3.01992e-08 11.4 0 11 C -1.74846e-08 10.6 3.01992e-08 10.4 0 10 C -1.74846e-08 9.6 3.01992e-08 9.4 0 9 C -1.74846e-08 8.6 3.01992e-08 8.4 0 8 C -1.74846e-08 7.6 3.01992e-08 7.4 0 7 C -1.74846e-08 6.6 3.01992e-08 6.4 0 6 C -1.74846e-08 5.6 3.01992e-08 5.4 0 5 C -1.74846e-08 4.6 3.01992e-08 4.4 0 4 C -1.74846e-08 3.6 3.01992e-08 3.4 0 3 C -1.74846e-08 2.6 3.01992e-08 2.4 0 2 C -1.74846e-08 1.6 3.01992e-08 1.4 0 1 C -1.74846e-08 0.6 -0.2 0.2 0 0 " fill = "rgb(235, 0, 235)" stroke = "rgb(235, 0, 235)" stroke-width = "0"/>
    <path d="M 13.25 1.25 C 13.45 1.05 13.7 1 14 1 C 14.3 1 14.5 1.1 14.75 1.25 C 15 1.4 15.05 1.55 15.25 1.75 C 15.45 1.95 15.55 2.05 15.75 2.25 C 15.95 2.45 16.05 2.55 16.25 2.75 C 16.45 2.95 16.55 3.05 16.75 3.25 C 16.95 3.45 17 3.6 17.25 3.75 C 17.5 3.9 17.7 4 18 4 C 18.3 4 18.5 3.9 18.75 3.75 C 19 3.6 19.05 3.45 19.25 3.25 C 19.45 3.05 19.55 2.95 19.75 2.75 C 19.95 2.55 20 2.4 20.25 2.25 C 20.5 2.1 20.7 2 21 2 C 21.3 2 21.55 2.05 21.75 2.25 C 21.95 2.45 21.9 2.7 22 3 C 22.1 3.3 22.1 3.5 22.25 3.75 C 22.4 4 22.55 4.05 22.75 4.25 C 22.95 4.45 23.05 4.55 23.25 4.75 C 23.45 4.95 23.55 5.05 23.75 5.25 C 23.95 5.45 24.05 5.55 24.25 5.75 C 24.45 5.95 24.55 6.05 24.75 6.25 C 24.95 6.45 25 6.6 25.25 6.75 C 25.5 6.9 25.7 6.9 26 7 C 26.3 7.1 26.5 7.1 26.75 7.25 C 27 7.4 27 7.6 27.25 7.75 C 27.5 7.9 27.65 7.95 28 8 C 28.35 8.05 28.65 8.05 29 8 C 29.35 7.95 29.5 7.9 29.75 7.75 C 30 7.6 30 7.4 30.25 7.25 C 30.5 7.1 30.65 7.05 31 7 C 31.35 6.95 31.6 7 32 7 C 32.4 7 32.65 6.95 33 7 C 33.35 7.05 33.55 7.05 33.75 7.25 C 33.95 7.45 33.95 7.65 34 8 C 34.05 8.35 34 8.6 34 9 C 34 9.4 34.05 9.65 34 10 C 33.95 10.35 33.9 10.5 33.75 10.75 C 33.6 11 33.4 11 33.25 11.25 C 33.1 11.5 33.05 11.65 33 12 C 32.95 12.35 32.95 12.65 33 13 C 33.05 13.35 33.1 13.5 33.25 13.75 C 33.4 14 33.55 14.05 33.75 14.25 C 33.95 14.45 34.05 14.55 34.25 14.75 C 34.45 14.95 34.6 15 34.75 15.25 C 34.9 15.5 35 15.7 35 16 C 35 16.3 34.9 16.5 34.75 16.75 C 34.6 17 34.45 17.05 34.25 17.25 C 34.05 17.45 33.95 17.55 33.75 17.75 C 33.55 17.95 33.45 18.05 33.25 18.25 C 33.05 18.45 32.95 18.55 32.75 18.75 C 32.55 18.95 32.4 19 32.25 19.25 C 32.1 19.5 32.1 19.7 32 20 C 31.9 20.3 31.9 20.5 31.75 20.75 C 31.6 21 31.4 21 31.25 21.25 C 31.1 21.5 31.05 21.65 31 22 C 30.95 22.35 31 22.6 31 23 C 31 23.4 30.95 23.65 31 24 C 31.05 24.35 31.1 24.5 31.25 24.75 C 31.4 25 31.6 25 31.75 25.25 C 31.9 25.5 31.95 25.65 32 26 C 32.05 26.35 32 26.6 32 27 C 32 27.4 32.05 27.65 32 28 C 31.95 28.35 31.95 28.55 31.75 28.75 C 31.55 28.95 31.35 28.95 31 29 C 30.65 29.05 30.4 29 30 29 C 29.6 29 29.35 29.05 29 29 C 28.65 28.95 28.5 28.9 28.25 28.75 C 28 28.6 28 28.4 27.75 28.25 C 27.5 28.1 27.3 28 27 28 C 26.7 28 26.5 28.1 26.25 28.25 C 26 28.4 25.95 28.55 25.75 28.75 C 25.55 28.95 25.45 29.05 25.25 29.25 C 25.05 29.45 24.95 29.55 24.75 29.75 C 24.55 29.95 24.4 30 24.25 30.25 C 24.1 30.5 24.1 30.7 24 31 C 23.9 31.3 23.95 31.55 23.75 31.75 C 23.55 31.95 23.35 31.95 23 32 C 22.65 32.05 22.35 32.05 22 32 C 21.65 31.95 21.5 31.9 21.25 31.75 C 21 31.6 21 31.4 20.75 31.25 C 20.5 31.1 20.3 31 20 31 C 19.7 31 19.5 31.1 19.25 31.25 C 19 31.4 18.95 31.55 18.75 31.75 C 18.55 31.95 18.4 32 18.25 32.25 C 18.1 32.5 18.1 32.7 18 33 C 17.9 33.3 17.95 33.55 17.75 33.75 C 17.55 33.95 17.3 34 17 34 C 16.7 34 16.5 33.9 16.25 33.75 C 16 33.6 15.95 33.45 15.75 33.25 C 15.55 33.05 15.45 32.95 15.25 32.75 C 15.05 32.55 14.95 32.45 14.75 32.25 C 14.55 32.05 14.45 31.95 14.25 31.75 C 14.05 31.55 13.95 31.45 13.75 31.25 C 13.55 31.05 13.45 30.95 13.25 30.75 C 13.05 30.55 12.95 30.45 12.75 30.25 C 12.55 30.05 12.45 29.95 12.25 29.75 C 12.05 29.55 11.95 29.35 11.75 29.25 C 11.55 29.15 11.45 29.15 11.25 29.25 C 11.05 29.35 11 29.6 10.75 29.75 C 10.5 29.9 10.3 30 10 30 C 9.7 30 9.5 29.9 9.25 29.75 C 9 29.6 8.95 29.45 8.75 29.25 C 8.55 29.05 8.4 29 8.25 28.75 C 8.1 28.5 8.05 28.35 8 28 C 7.95 27.65 8.05 27.35 8 27 C 7.95 26.65 7.95 26.45 7.75 26.25 C 7.55 26.05 7.3 26.1 7 26 C 6.7 25.9 6.5 25.9 6.25 25.75 C 6 25.6 6 25.4 5.75 25.25 C 5.5 25.1 5.35 25.05 5 25 C 4.65 24.95 4.4 25 4 25 C 3.6 25 3.35 25.05 3 25 C 2.65 24.95 2.5 24.9 2.25 24.75 C 2 24.6 1.95 24.45 1.75 24.25 C 1.55 24.05 1.4 24 1.25 23.75 C 1.1 23.5 1 23.3 1 23 C 1 22.7 1.1 22.5 1.25 22.25 C 1.4 22 1.55 21.95 1.75 21.75 C 1.95 21.55 2.05 21.45 2.25 21.25 C 2.45 21.05 2.55 20.95 2.75 20.75 C 2.95 20.55 3.05 20.45 3.25 20.25 C 3.45 20.05 3.55 19.95 3.75 19.75 C 3.95 19.55 4.05 19.45 4.25 19.25 C 4.45 19.05 4.6 19 4.75 18.75 C 4.9 18.5 5 18.3 5 18 C 5 17.7 4.9 17.5 4.75 17.25 C 4.6 17 4.45 16.95 4.25 16.75 C 4.05 16.55 3.95 16.45 3.75 16.25 C 3.55 16.05 3.45 15.95 3.25 15.75 C 3.05 15.55 2.95 15.45 2.75 15.25 C 2.55 15.05 2.4 15 2.25 14.75 C 2.1 14.5 2 14.3 2 14 C 2 13.7 2.1 13.5 2.25 13.25 C 2.4 13 2.55 12.95 2.75 12.75 C 2.95 12.55 3 12.4 3.25 12.25 C 3.5 12.1 3.65 12.05 4 12 C 4.35 11.95 4.6 12 5 12 C 5.4 12 5.65 12.05 6 12 C 6.35 11.95 6.55 11.95 6.75 11.75 C 6.95 11.55 6.95 11.35 7 11 C 7.05 10.65 7 10.4 7 10 C 7 9.6 6.95 9.35 7 9 C 7.05 8.65 7.05 8.45 7.25 8.25 C 7.45 8.05 7.65 8.05 8 8 C 8.35 7.95 8.65 8.05 9 8 C 9.35 7.95 9.5 7.9 9.75 7.75 C 10 7.6 10.05 7.45 10.25 7.25 C 10.45 7.05 10.6 7 10.75 6.75 C 10.9 6.5 10.9 6.3 11 6 C 11.1 5.7 11.1 5.5 11.25 5.25 C 11.4 5 11.6 5 11.75 4.75 C 11.9 4.5 11.9 4.3 12 4 C 12.1 3.7 12.1 3.5 12.25 3.25 C 12.4 3 12.6 3 12.75 2.75 C 12.9 2.5 12.9 2.3 13 2 C 13.1 1.7 13.05 1.45 13.25 1.25 " fill = "rgb(49, 41, 33)" stroke = "rgb(49, 41, 33)" stroke-width = "0"/>
    <path d="M 14.25 3.25 C 14.4 3.1 14.55 3.15 14.75 3.25 C 14.95 3.35 15.05 3.55 15.25 3.75 C 15.45 3.95 15.55 4.05 15.75 4.25 C 15.95 4.45 16.05 4.55 16.25 4.75 C 16.45 4.95 16.55 5.05 16.75 5.25 C 16.95 5.45 17 5.6 17.25 5.75 C 17.5 5.9 17.7 6 18 6 C 18.3 6 18.5 5.9 18.75 5.75 C 19 5.6 19.05 5.45 19.25 5.25 C 19.45 5.05 19.55 4.95 19.75 4.75 C 19.95 4.55 20.05 4.35 20.25 4.25 C 20.45 4.15 20.55 4.15 20.75 4.25 C 20.95 4.35 21.05 4.55 21.25 4.75 C 21.45 4.95 21.55 5.05 21.75 5.25 C 21.95 5.45 22.05 5.55 22.25 5.75 C 22.45 5.95 22.55 6.05 22.75 6.25 C 22.95 6.45 23.05 6.55 23.25 6.75 C 23.45 6.95 23.55 7.05 23.75 7.25 C 23.95 7.45 24.05 7.55 24.25 7.75 C 24.45 7.95 24.6 8 24.75 8.25 C 24.9 8.5 25.1 8.9 25 9 C 24.9 9.1 24.5 8.9 24.25 8.75 C 24 8.6 23.95 8.45 23.75 8.25 C 23.55 8.05 23.45 7.95 23.25 7.75 C 23.05 7.55 22.95 7.45 22.75 7.25 C 22.55 7.05 22.45 6.95 22.25 6.75 C 22.05 6.55 22 6.4 21.75 6.25 C 21.5 6.1 21.2 6.2 21 6 C 20.8 5.8 20.9 5.4 20.75 5.25 C 20.6 5.1 20.45 5.15 20.25 5.25 C 20.05 5.35 19.95 5.55 19.75 5.75 C 19.55 5.95 19.4 6 19.25 6.25 C 19.1 6.5 19.25 6.85 19 7 C 18.75 7.15 18.4 7 18 7 C 17.6 7 17.25 7.15 17 7 C 16.75 6.85 16.9 6.5 16.75 6.25 C 16.6 6 16.45 5.95 16.25 5.75 C 16.05 5.55 15.95 5.45 15.75 5.25 C 15.55 5.05 15.45 4.95 15.25 4.75 C 15.05 4.55 15 4.4 14.75 4.25 C 14.5 4.1 14.1 4.2 14 4 C 13.9 3.8 14.1 3.4 14.25 3.25 " fill = "rgb(222, 115, 0)" stroke = "rgb(222, 115, 0)" stroke-width = "0"/>
    <path d="M 14 4 C 14.15 3.85 14.5 4.1 14.75 4.25 C 15 4.4 15.05 4.55 15.25 4.75 C 15.45 4.95 15.55 5.05 15.75 5.25 C 15.95 5.45 16.05 5.55 16.25 5.75 C 16.45 5.95 16.6 6 16.75 6.25 C 16.9 6.5 17.1 6.9 17 7 C 16.9 7.1 16.5 6.9 16.25 6.75 C 16 6.6 16 6.4 15.75 6.25 C 15.5 6.1 15.3 6 15 6 C 14.7 6 14.45 6.05 14.25 6.25 C 14.05 6.45 14.1 6.7 14 7 C 13.9 7.3 13.9 7.5 13.75 7.75 C 13.6 8 13.4 8 13.25 8.25 C 13.1 8.5 13.1 8.7 13 9 C 12.9 9.3 12.9 9.5 12.75 9.75 C 12.6 10 12.45 10.05 12.25 10.25 C 12.05 10.45 12 10.6 11.75 10.75 C 11.5 10.9 11.3 10.9 11 11 C 10.7 11.1 10.45 11.05 10.25 11.25 C 10.05 11.45 10 11.7 10 12 C 10 12.3 10.1 12.6 10.25 12.75 C 10.4 12.9 10.55 12.85 10.75 12.75 C 10.95 12.65 11.05 12.45 11.25 12.25 C 11.45 12.05 11.55 11.95 11.75 11.75 C 11.95 11.55 12.05 11.45 12.25 11.25 C 12.45 11.05 12.55 10.95 12.75 10.75 C 12.95 10.55 13.05 10.45 13.25 10.25 C 13.45 10.05 13.55 9.95 13.75 9.75 C 13.95 9.55 14 9.4 14.25 9.25 C 14.5 9.1 14.65 9.05 15 9 C 15.35 8.95 15.8 8.8 16 9 C 16.2 9.2 16.2 9.8 16 10 C 15.8 10.2 15.35 9.95 15 10 C 14.65 10.05 14.45 10.05 14.25 10.25 C 14.05 10.45 14.2 10.8 14 11 C 13.8 11.2 13.5 11.1 13.25 11.25 C 13 11.4 12.95 11.55 12.75 11.75 C 12.55 11.95 12.4 12 12.25 12.25 C 12.1 12.5 12.2 12.8 12 13 C 11.8 13.2 11.45 13.05 11.25 13.25 C 11.05 13.45 11.2 13.9 11 14 C 10.8 14.1 10.5 13.9 10.25 13.75 C 10 13.6 10 13.4 9.75 13.25 C 9.5 13.1 9.15 13.25 9 13 C 8.85 12.75 9 12.4 9 12 C 9 11.6 8.95 11.35 9 11 C 9.05 10.65 9.05 10.45 9.25 10.25 C 9.45 10.05 9.65 10.05 10 10 C 10.35 9.95 10.65 10.05 11 10 C 11.35 9.95 11.55 9.95 11.75 9.75 C 11.95 9.55 11.95 9.35 12 9 C 12.05 8.65 11.85 8.25 12 8 C 12.15 7.75 12.55 7.95 12.75 7.75 C 12.95 7.55 12.95 7.35 13 7 C 13.05 6.65 12.85 6.25 13 6 C 13.15 5.75 13.55 5.95 13.75 5.75 C 13.95 5.55 13.95 5.35 14 5 C 14.05 4.65 13.85 4.15 14 4 " fill = "rgb(239, 156, 8)" stroke = "rgb(239, 156, 8)" stroke-width = "0"/>
    <path d="M 13.25 5.25 C 13.45 5.05 13.9 4.9 14 5 C 14.1 5.1 13.95 5.55 13.75 5.75 C 13.55 5.95 13.1 6.1 13 6 C 12.9 5.9 13.05 5.45 13.25 5.25 " fill = "rgb(222, 115, 0)" stroke = "rgb(222, 115, 0)" stroke-width = "0"/>
    <path d="M 20.25 5.25 C 20.45 5.15 20.6 5.1 20.75 5.25 C 20.9 5.4 21.1 5.8 21 6 C 20.9 6.2 20.5 6.1 20.25 6.25 C 20 6.4 20 6.6 19.75 6.75 C 19.5 6.9 19.1 7.1 19 7 C 18.9 6.9 19.1 6.5 19.25 6.25 C 19.4 6 19.55 5.95 19.75 5.75 C 19.95 5.55 20.05 5.35 20.25 5.25 " fill = "rgb(239, 156, 8)" stroke = "rgb(239, 156, 8)" stroke-width = "0"/>
    <path d="M 14.25 6.25 C 14.45 6.05 14.7 6 15 6 C 15.3 6 15.5 6.1 15.75 6.25 C 16 6.4 16 6.6 16.25 6.75 C 16.5 6.9 16.65 6.95 17 7 C 17.35 7.05 17.6 7 18 7 C 18.4 7 18.65 7.05 19 7 C 19.35 6.95 19.5 6.9 19.75 6.75 C 20 6.6 20 6.4 20.25 6.25 C 20.5 6.1 20.7 6 21 6 C 21.3 6 21.5 6.1 21.75 6.25 C 22 6.4 22.05 6.55 22.25 6.75 C 22.45 6.95 22.55 7.05 22.75 7.25 C 22.95 7.45 23.05 7.55 23.25 7.75 C 23.45 7.95 23.55 8.05 23.75 8.25 C 23.95 8.45 24 8.6 24.25 8.75 C 24.5 8.9 24.9 8.8 25 9 C 25.1 9.2 24.95 9.55 24.75 9.75 C 24.55 9.95 24.35 9.95 24 10 C 23.65 10.05 23.4 10 23 10 C 22.6 10 22.25 10.15 22 10 C 21.75 9.85 21.95 9.45 21.75 9.25 C 21.55 9.05 21.2 9.2 21 9 C 20.8 8.8 20.95 8.45 20.75 8.25 C 20.55 8.05 20.3 8 20 8 C 19.7 8 19.45 8.05 19.25 8.25 C 19.05 8.45 19.25 8.85 19 9 C 18.75 9.15 18.4 9 18 9 C 17.6 9 17.4 9 17 9 C 16.6 9 16.4 9 16 9 C 15.6 9 15.35 8.95 15 9 C 14.65 9.05 14.5 9.1 14.25 9.25 C 14 9.4 13.95 9.55 13.75 9.75 C 13.55 9.95 13.45 10.05 13.25 10.25 C 13.05 10.45 12.95 10.55 12.75 10.75 C 12.55 10.95 12.45 11.05 12.25 11.25 C 12.05 11.45 11.95 11.55 11.75 11.75 C 11.55 11.95 11.45 12.05 11.25 12.25 C 11.05 12.45 10.95 12.65 10.75 12.75 C 10.55 12.85 10.4 12.9 10.25 12.75 C 10.1 12.6 10 12.3 10 12 C 10 11.7 10.05 11.45 10.25 11.25 C 10.45 11.05 10.7 11.1 11 11 C 11.3 10.9 11.5 10.9 11.75 10.75 C 12 10.6 12.05 10.45 12.25 10.25 C 12.45 10.05 12.6 10 12.75 9.75 C 12.9 9.5 12.9 9.3 13 9 C 13.1 8.7 13.1 8.5 13.25 8.25 C 13.4 8 13.6 8 13.75 7.75 C 13.9 7.5 13.9 7.3 14 7 C 14.1 6.7 14.05 6.45 14.25 6.25 " fill = "rgb(247, 189, 16)" stroke = "rgb(247, 189, 16)" stroke-width = "0"/>
    <path d="M 12.25 7.25 C 12.45 7.05 12.9 6.9 13 7 C 13.1 7.1 12.95 7.55 12.75 7.75 C 12.55 7.95 12.1 8.1 12 8 C 11.9 7.9 12.05 7.45 12.25 7.25 " fill = "rgb(222, 115, 0)" stroke = "rgb(222, 115, 0)" stroke-width = "0"/>
    <path d="M 19.25 8.25 C 19.45 8.05 19.7 8 20 8 C 20.3 8 20.55 8.05 20.75 8.25 C 20.95 8.45 21.15 8.85 21 9 C 20.85 9.15 20.4 9 20 9 C 19.6 9 19.15 9.15 19 9 C 18.85 8.85 19.05 8.45 19.25 8.25 " fill = "rgb(239, 156, 8)" stroke = "rgb(239, 156, 8)" stroke-width = "0"/>
    <path d="M 11.25 9.25 C 11.45 9.05 11.9 8.9 12 9 C 12.1 9.1 11.95 9.55 11.75 9.75 C 11.55 9.95 11.1 10.1 11 10 C 10.9 9.9 11.05 9.45 11.25 9.25 " fill = "rgb(222, 115, 0)" stroke = "rgb(222, 115, 0)" stroke-width = "0"/>
    <path d="M 16 9 C 16.2 8.8 16.85 8.85 17 9 C 17.15 9.15 16.95 9.55 16.75 9.75 C 16.55 9.95 16.15 10.15 16 10 C 15.85 9.85 15.8 9.2 16 9 " fill = "rgb(239, 198, 74)" stroke = "rgb(239, 198, 74)" stroke-width = "0"/>
    <path d="M 17 9 C 17.25 8.85 17.6 9 18 9 C 18.4 9 18.6 9 19 9 C 19.4 9 19.6 9 20 9 C 20.4 9 20.75 8.85 21 9 C 21.25 9.15 21.05 9.55 21.25 9.75 C 21.45 9.95 21.65 9.95 22 10 C 22.35 10.05 22.75 9.85 23 10 C 23.25 10.15 23.05 10.55 23.25 10.75 C 23.45 10.95 23.7 10.9 24 11 C 24.3 11.1 24.5 11.1 24.75 11.25 C 25 11.4 25.05 11.55 25.25 11.75 C 25.45 11.95 25.6 12 25.75 12.25 C 25.9 12.5 25.9 12.7 26 13 C 26.1 13.3 26.05 13.55 26.25 13.75 C 26.45 13.95 26.85 13.75 27 14 C 27.15 14.25 26.95 14.65 27 15 C 27.05 15.35 27.05 15.55 27.25 15.75 C 27.45 15.95 27.85 15.75 28 16 C 28.15 16.25 28 16.6 28 17 C 28 17.4 28 17.6 28 18 C 28 18.4 28.15 18.75 28 19 C 27.85 19.25 27.45 19.05 27.25 19.25 C 27.05 19.45 27.05 19.65 27 20 C 26.95 20.35 27.15 20.75 27 21 C 26.85 21.25 26.45 21.05 26.25 21.25 C 26.05 21.45 26.1 21.7 26 22 C 25.9 22.3 25.9 22.5 25.75 22.75 C 25.6 23 25.45 23.05 25.25 23.25 C 25.05 23.45 25 23.6 24.75 23.75 C 24.5 23.9 24.3 23.9 24 24 C 23.7 24.1 23.45 24.05 23.25 24.25 C 23.05 24.45 23.25 24.85 23 25 C 22.75 25.15 22.35 24.95 22 25 C 21.65 25.05 21.45 25.05 21.25 25.25 C 21.05 25.45 21.25 25.85 21 26 C 20.75 26.15 20.4 26 20 26 C 19.6 26 19.4 26 19 26 C 18.6 26 18.4 26 18 26 C 17.6 26 17.25 26.15 17 26 C 16.75 25.85 16.9 25.5 16.75 25.25 C 16.6 25 16.4 25 16.25 24.75 C 16.1 24.5 16 24.3 16 24 C 16 23.7 16.1 23.5 16.25 23.25 C 16.4 23 16.6 23 16.75 22.75 C 16.9 22.5 16.95 22.35 17 22 C 17.05 21.65 17 21.4 17 21 C 17 20.6 17.05 20.35 17 20 C 16.95 19.65 16.9 19.5 16.75 19.25 C 16.6 19 16.45 18.95 16.25 18.75 C 16.05 18.55 16 18.4 15.75 18.25 C 15.5 18.1 15.3 18.1 15 18 C 14.7 17.9 14.45 17.95 14.25 17.75 C 14.05 17.55 13.9 17.2 14 17 C 14.1 16.8 14.55 16.95 14.75 16.75 C 14.95 16.55 14.95 16.35 15 16 C 15.05 15.65 14.85 15.25 15 15 C 15.15 14.75 15.55 14.95 15.75 14.75 C 15.95 14.55 16 14.3 16 14 C 16 13.7 15.95 13.45 15.75 13.25 C 15.55 13.05 15.35 13.05 15 13 C 14.65 12.95 14.35 12.95 14 13 C 13.65 13.05 13.45 13.05 13.25 13.25 C 13.05 13.45 13.05 13.65 13 14 C 12.95 14.35 13 14.6 13 15 C 13 15.4 13 15.6 13 16 C 13 16.4 13.2 16.8 13 17 C 12.8 17.2 12.4 17 12 17 C 11.6 17 11.4 17 11 17 C 10.6 17 10.2 17.2 10 17 C 9.8 16.8 9.85 16.25 10 16 C 10.15 15.75 10.55 15.95 10.75 15.75 C 10.95 15.55 10.95 15.35 11 15 C 11.05 14.65 10.85 14.25 11 14 C 11.15 13.75 11.55 13.95 11.75 13.75 C 11.95 13.55 11.9 13.3 12 13 C 12.1 12.7 12.1 12.5 12.25 12.25 C 12.4 12 12.55 11.95 12.75 11.75 C 12.95 11.55 13 11.4 13.25 11.25 C 13.5 11.1 13.7 11.1 14 11 C 14.3 10.9 14.55 10.95 14.75 10.75 C 14.95 10.55 14.75 10.15 15 10 C 15.25 9.85 15.65 10.05 16 10 C 16.35 9.95 16.55 9.95 16.75 9.75 C 16.95 9.55 16.75 9.15 17 9 " fill = "rgb(247, 214, 123)" stroke = "rgb(247, 214, 123)" stroke-width = "0"/>
    <path d="M 21 9 C 21.1 8.9 21.55 9.05 21.75 9.25 C 21.95 9.45 22.1 9.9 22 10 C 21.9 10.1 21.45 9.95 21.25 9.75 C 21.05 9.55 20.9 9.1 21 9 " fill = "rgb(239, 198, 74)" stroke = "rgb(239, 198, 74)" stroke-width = "0"/>
    <path d="M 25 9 C 25.25 8.85 25.75 8.85 26 9 C 26.25 9.15 26.05 9.55 26.25 9.75 C 26.45 9.95 26.65 9.95 27 10 C 27.35 10.05 27.6 10 28 10 C 28.4 10 28.6 10 29 10 C 29.4 10 29.65 9.95 30 10 C 30.35 10.05 30.55 10.05 30.75 10.25 C 30.95 10.45 31.15 10.85 31 11 C 30.85 11.15 30.4 11 30 11 C 29.6 11 29.4 11 29 11 C 28.6 11 28.4 11 28 11 C 27.6 11 27.35 11.05 27 11 C 26.65 10.95 26.5 10.9 26.25 10.75 C 26 10.6 25.95 10.35 25.75 10.25 C 25.55 10.15 25.35 10.15 25.25 10.25 C 25.15 10.35 25.15 10.55 25.25 10.75 C 25.35 10.95 25.55 11.05 25.75 11.25 C 25.95 11.45 26.05 11.55 26.25 11.75 C 26.45 11.95 26.55 12.05 26.75 12.25 C 26.95 12.45 27.05 12.55 27.25 12.75 C 27.45 12.95 27.6 13 27.75 13.25 C 27.9 13.5 27.9 13.7 28 14 C 28.1 14.3 28.1 14.5 28.25 14.75 C 28.4 15 28.6 15 28.75 15.25 C 28.9 15.5 28.95 15.65 29 16 C 29.05 16.35 29 16.6 29 17 C 29 17.4 28.95 17.65 29 18 C 29.05 18.35 29.05 18.55 29.25 18.75 C 29.45 18.95 29.85 18.75 30 19 C 30.15 19.25 30.15 19.75 30 20 C 29.85 20.25 29.45 20.05 29.25 20.25 C 29.05 20.45 29.05 20.65 29 21 C 28.95 21.35 29 21.6 29 22 C 29 22.4 29 22.6 29 23 C 29 23.4 29 23.6 29 24 C 29 24.4 29.05 24.65 29 25 C 28.95 25.35 28.95 25.55 28.75 25.75 C 28.55 25.95 28.35 25.95 28 26 C 27.65 26.05 27.25 26.15 27 26 C 26.75 25.85 26.9 25.4 26.75 25.25 C 26.6 25.1 26.4 25.1 26.25 25.25 C 26.1 25.4 26.2 25.8 26 26 C 25.8 26.2 25.5 26.1 25.25 26.25 C 25 26.4 24.95 26.55 24.75 26.75 C 24.55 26.95 24.4 27 24.25 27.25 C 24.1 27.5 24.2 27.8 24 28 C 23.8 28.2 23.45 28.05 23.25 28.25 C 23.05 28.45 23.1 28.7 23 29 C 22.9 29.3 22.95 29.55 22.75 29.75 C 22.55 29.95 22.2 30.1 22 30 C 21.8 29.9 21.95 29.45 21.75 29.25 C 21.55 29.05 21.35 29.05 21 29 C 20.65 28.95 20.4 29 20 29 C 19.6 29 19.35 28.95 19 29 C 18.65 29.05 18.5 29.1 18.25 29.25 C 18 29.4 17.95 29.55 17.75 29.75 C 17.55 29.95 17.4 30 17.25 30.25 C 17.1 30.5 17.1 30.7 17 31 C 16.9 31.3 16.9 31.6 16.75 31.75 C 16.6 31.9 16.4 31.9 16.25 31.75 C 16.1 31.6 16.1 31.3 16 31 C 15.9 30.7 15.95 30.45 15.75 30.25 C 15.55 30.05 15.2 30.2 15 30 C 14.8 29.8 14.95 29.45 14.75 29.25 C 14.55 29.05 14.15 29.25 14 29 C 13.85 28.75 14.05 28.35 14 28 C 13.95 27.65 13.95 27.45 13.75 27.25 C 13.55 27.05 13.35 27.05 13 27 C 12.65 26.95 12.4 27 12 27 C 11.6 27 11.4 27 11 27 C 10.6 27 10.2 27.2 10 27 C 9.8 26.8 10.05 26.35 10 26 C 9.95 25.65 9.95 25.45 9.75 25.25 C 9.55 25.05 9.2 25.2 9 25 C 8.8 24.8 8.9 24.5 8.75 24.25 C 8.6 24 8.45 23.95 8.25 23.75 C 8.05 23.55 8 23.4 7.75 23.25 C 7.5 23.1 7.35 23.05 7 23 C 6.65 22.95 6.25 23.15 6 23 C 5.75 22.85 5.9 22.5 5.75 22.25 C 5.6 22 5.35 21.95 5.25 21.75 C 5.15 21.55 5.15 21.45 5.25 21.25 C 5.35 21.05 5.55 20.95 5.75 20.75 C 5.95 20.55 6.05 20.45 6.25 20.25 C 6.45 20.05 6.6 20 6.75 19.75 C 6.9 19.5 6.95 19.35 7 19 C 7.05 18.65 7 18.4 7 18 C 7 17.6 7 17.4 7 17 C 7 16.6 6.85 16.15 7 16 C 7.15 15.85 7.55 16.05 7.75 16.25 C 7.95 16.45 7.9 16.7 8 17 C 8.1 17.3 8.05 17.55 8.25 17.75 C 8.45 17.95 8.9 17.8 9 18 C 9.1 18.2 8.9 18.5 8.75 18.75 C 8.6 19 8.4 19 8.25 19.25 C 8.1 19.5 8.05 19.65 8 20 C 7.95 20.35 8 20.6 8 21 C 8 21.4 7.95 21.65 8 22 C 8.05 22.35 8.1 22.5 8.25 22.75 C 8.4 23 8.55 23.05 8.75 23.25 C 8.95 23.45 9 23.6 9.25 23.75 C 9.5 23.9 9.65 23.95 10 24 C 10.35 24.05 10.6 24 11 24 C 11.4 24 11.6 24 12 24 C 12.4 24 12.6 24 13 24 C 13.4 24 13.75 23.85 14 24 C 14.25 24.15 14.05 24.55 14.25 24.75 C 14.45 24.95 14.7 24.9 15 25 C 15.3 25.1 15.5 25.1 15.75 25.25 C 16 25.4 16 25.6 16.25 25.75 C 16.5 25.9 16.65 25.95 17 26 C 17.35 26.05 17.6 26 18 26 C 18.4 26 18.85 25.85 19 26 C 19.15 26.15 18.95 26.55 18.75 26.75 C 18.55 26.95 18.35 26.95 18 27 C 17.65 27.05 17.35 27.05 17 27 C 16.65 26.95 16.5 26.9 16.25 26.75 C 16 26.6 15.95 26.35 15.75 26.25 C 15.55 26.15 15.35 26.15 15.25 26.25 C 15.15 26.35 15.15 26.55 15.25 26.75 C 15.35 26.95 15.6 27 15.75 27.25 C 15.9 27.5 15.9 27.7 16 28 C 16.1 28.3 16.05 28.55 16.25 28.75 C 16.45 28.95 16.7 29 17 29 C 17.3 29 17.5 28.9 17.75 28.75 C 18 28.6 18 28.4 18.25 28.25 C 18.5 28.1 18.65 28.05 19 28 C 19.35 27.95 19.6 28 20 28 C 20.4 28 20.6 28 21 28 C 21.4 28 21.65 28.05 22 28 C 22.35 27.95 22.5 27.9 22.75 27.75 C 23 27.6 23.05 27.45 23.25 27.25 C 23.45 27.05 23.55 26.95 23.75 26.75 C 23.95 26.55 24.05 26.45 24.25 26.25 C 24.45 26.05 24.55 25.95 24.75 25.75 C 24.95 25.55 25.05 25.45 25.25 25.25 C 25.45 25.05 25.55 24.95 25.75 24.75 C 25.95 24.55 26 24.4 26.25 24.25 C 26.5 24.1 26.7 24.1 27 24 C 27.3 23.9 27.55 23.95 27.75 23.75 C 27.95 23.55 28 23.3 28 23 C 28 22.7 27.95 22.45 27.75 22.25 C 27.55 22.05 27.15 22.25 27 22 C 26.85 21.75 27 21.4 27 21 C 27 20.6 26.85 20.25 27 20 C 27.15 19.75 27.55 19.95 27.75 19.75 C 27.95 19.55 27.95 19.35 28 19 C 28.05 18.65 28 18.4 28 18 C 28 17.6 28 17.4 28 17 C 28 16.6 28.05 16.35 28 16 C 27.95 15.65 27.95 15.45 27.75 15.25 C 27.55 15.05 27.15 15.25 27 15 C 26.85 14.75 27.05 14.35 27 14 C 26.95 13.65 26.95 13.45 26.75 13.25 C 26.55 13.05 26.2 13.2 26 13 C 25.8 12.8 25.9 12.5 25.75 12.25 C 25.6 12 25.45 11.95 25.25 11.75 C 25.05 11.55 25 11.4 24.75 11.25 C 24.5 11.1 24.15 11.25 24 11 C 23.85 10.75 23.85 10.25 24 10 C 24.15 9.75 24.55 9.95 24.75 9.75 C 24.95 9.55 24.75 9.15 25 9 " fill = "rgb(239, 156, 8)" stroke = "rgb(239, 156, 8)" stroke-width = "0"/>
    <path d="M 26 9 C 26.1 8.9 26.55 9.05 26.75 9.25 C 26.95 9.45 27.1 9.9 27 10 C 26.9 10.1 26.45 9.95 26.25 9.75 C 26.05 9.55 25.9 9.1 26 9 " fill = "rgb(99, 74, 16)" stroke = "rgb(99, 74, 16)" stroke-width = "0"/>
    <path d="M 30.25 9.25 C 30.45 9.05 30.8 8.9 31 9 C 31.2 9.1 31.05 9.55 31.25 9.75 C 31.45 9.95 31.9 9.8 32 10 C 32.1 10.2 31.95 10.55 31.75 10.75 C 31.55 10.95 31.2 11.1 31 11 C 30.8 10.9 30.95 10.45 30.75 10.25 C 30.55 10.05 30.1 10.2 30 10 C 29.9 9.8 30.05 9.45 30.25 9.25 " fill = "rgb(99, 74, 16)" stroke = "rgb(99, 74, 16)" stroke-width = "0"/>
    <path d="M 31 9 C 31.1 8.9 31.55 9.05 31.75 9.25 C 31.95 9.45 32.1 9.9 32 10 C 31.9 10.1 31.45 9.95 31.25 9.75 C 31.05 9.55 30.9 9.1 31 9 " fill = "rgb(222, 115, 0)" stroke = "rgb(222, 115, 0)" stroke-width = "0"/>
    <path d="M 14.25 10.25 C 14.45 10.05 14.9 9.9 15 10 C 15.1 10.1 14.95 10.55 14.75 10.75 C 14.55 10.95 14.1 11.1 14 11 C 13.9 10.9 14.05 10.45 14.25 10.25 " fill = "rgb(239, 198, 74)" stroke = "rgb(239, 198, 74)" stroke-width = "0"/>
    <path d="M 23 10 C 23.15 9.85 23.8 9.8 24 10 C 24.2 10.2 24.15 10.85 24 11 C 23.85 11.15 23.45 10.95 23.25 10.75 C 23.05 10.55 22.85 10.15 23 10 " fill = "rgb(239, 198, 74)" stroke = "rgb(239, 198, 74)" stroke-width = "0"/>
    <path d="M 25.25 10.25 C 25.35 10.15 25.55 10.15 25.75 10.25 C 25.95 10.35 26 10.6 26.25 10.75 C 26.5 10.9 26.65 10.95 27 11 C 27.35 11.05 27.6 11 28 11 C 28.4 11 28.6 11 29 11 C 29.4 11 29.8 10.8 30 11 C 30.2 11.2 30.15 11.75 30 12 C 29.85 12.25 29.45 12.05 29.25 12.25 C 29.05 12.45 29 12.7 29 13 C 29 13.3 29.1 13.5 29.25 13.75 C 29.4 14 29.55 14.05 29.75 14.25 C 29.95 14.45 30.05 14.55 30.25 14.75 C 30.45 14.95 30.6 15 30.75 15.25 C 30.9 15.5 31 15.7 31 16 C 31 16.3 30.9 16.5 30.75 16.75 C 30.6 17 30.4 17 30.25 17.25 C 30.1 17.5 30.05 17.65 30 18 C 29.95 18.35 30.15 18.85 30 19 C 29.85 19.15 29.45 18.95 29.25 18.75 C 29.05 18.55 29.05 18.35 29 18 C 28.95 17.65 29 17.4 29 17 C 29 16.6 29.05 16.35 29 16 C 28.95 15.65 28.9 15.5 28.75 15.25 C 28.6 15 28.4 15 28.25 14.75 C 28.1 14.5 28.1 14.3 28 14 C 27.9 13.7 27.9 13.5 27.75 13.25 C 27.6 13 27.45 12.95 27.25 12.75 C 27.05 12.55 26.95 12.45 26.75 12.25 C 26.55 12.05 26.45 11.95 26.25 11.75 C 26.05 11.55 25.95 11.45 25.75 11.25 C 25.55 11.05 25.35 10.95 25.25 10.75 C 25.15 10.55 25.15 10.35 25.25 10.25 " fill = "rgb(247, 189, 16)" stroke = "rgb(247, 189, 16)" stroke-width = "0"/>
    <path d="M 30 11 C 30.2 10.8 30.8 10.8 31 11 C 31.2 11.2 31 11.6 31 12 C 31 12.4 30.95 12.65 31 13 C 31.05 13.35 31.1 13.5 31.25 13.75 C 31.4 14 31.6 14 31.75 14.25 C 31.9 14.5 32.1 14.9 32 15 C 31.9 15.1 31.5 14.9 31.25 14.75 C 31 14.6 30.95 14.45 30.75 14.25 C 30.55 14.05 30.4 14 30.25 13.75 C 30.1 13.5 30.05 13.35 30 13 C 29.95 12.65 30 12.4 30 12 C 30 11.6 29.8 11.2 30 11 " fill = "rgb(222, 115, 0)" stroke = "rgb(222, 115, 0)" stroke-width = "0"/>
    <path d="M 29.25 12.25 C 29.45 12.05 29.85 11.85 30 12 C 30.15 12.15 29.95 12.65 30 13 C 30.05 13.35 30.1 13.5 30.25 13.75 C 30.4 14 30.55 14.05 30.75 14.25 C 30.95 14.45 31 14.6 31.25 14.75 C 31.5 14.9 31.7 14.9 32 15 C 32.3 15.1 32.55 15.05 32.75 15.25 C 32.95 15.45 33.1 15.8 33 16 C 32.9 16.2 32.5 16.1 32.25 16.25 C 32 16.4 31.95 16.55 31.75 16.75 C 31.55 16.95 31.45 17.05 31.25 17.25 C 31.05 17.45 31 17.6 30.75 17.75 C 30.5 17.9 30.1 18.1 30 18 C 29.9 17.9 30.1 17.5 30.25 17.25 C 30.4 17 30.6 17 30.75 16.75 C 30.9 16.5 31 16.3 31 16 C 31 15.7 30.9 15.5 30.75 15.25 C 30.6 15 30.45 14.95 30.25 14.75 C 30.05 14.55 29.95 14.45 29.75 14.25 C 29.55 14.05 29.4 14 29.25 13.75 C 29.1 13.5 29 13.3 29 13 C 29 12.7 29.05 12.45 29.25 12.25 " fill = "rgb(239, 156, 8)" stroke = "rgb(239, 156, 8)" stroke-width = "0"/>
    <path d="M 7.25 13.25 C 7.45 13.05 7.85 12.85 8 13 C 8.15 13.15 8.2 13.8 8 14 C 7.8 14.2 7.15 14.15 7 14 C 6.85 13.85 7.05 13.45 7.25 13.25 " fill = "rgb(99, 74, 16)" stroke = "rgb(99, 74, 16)" stroke-width = "0"/>
    <path d="M 8 13 C 8.2 12.8 8.85 12.85 9 13 C 9.15 13.15 8.95 13.55 8.75 13.75 C 8.55 13.95 8.15 14.15 8 14 C 7.85 13.85 7.8 13.2 8 13 " fill = "rgb(222, 115, 0)" stroke = "rgb(222, 115, 0)" stroke-width = "0"/>
    <path d="M 9 13 C 9.2 12.9 9.5 13.1 9.75 13.25 C 10 13.4 10 13.6 10.25 13.75 C 10.5 13.9 10.85 13.75 11 14 C 11.15 14.25 11.2 14.8 11 15 C 10.8 15.2 10.35 14.95 10 15 C 9.65 15.05 9.45 15.05 9.25 15.25 C 9.05 15.45 9.05 15.65 9 16 C 8.95 16.35 9 16.6 9 17 C 9 17.4 9.15 17.85 9 18 C 8.85 18.15 8.45 17.95 8.25 17.75 C 8.05 17.55 8.1 17.3 8 17 C 7.9 16.7 7.95 16.45 7.75 16.25 C 7.55 16.05 7.3 16.1 7 16 C 6.7 15.9 6.45 15.95 6.25 15.75 C 6.05 15.55 5.85 15.15 6 15 C 6.15 14.85 6.65 15.05 7 15 C 7.35 14.95 7.55 14.95 7.75 14.75 C 7.95 14.55 7.8 14.2 8 14 C 8.2 13.8 8.55 13.95 8.75 13.75 C 8.95 13.55 8.8 13.1 9 13 " fill = "rgb(247, 189, 16)" stroke = "rgb(247, 189, 16)" stroke-width = "0"/>
    <path d="M 11.25 13.25 C 11.45 13.05 11.9 12.9 12 13 C 12.1 13.1 11.95 13.55 11.75 13.75 C 11.55 13.95 11.1 14.1 11 14 C 10.9 13.9 11.05 13.45 11.25 13.25 " fill = "rgb(239, 198, 74)" stroke = "rgb(239, 198, 74)" stroke-width = "0"/>
    <path d="M 13.25 13.25 C 13.45 13.05 13.85 12.85 14 13 C 14.15 13.15 14.2 13.8 14 14 C 13.8 14.2 13.15 14.15 13 14 C 12.85 13.85 13.05 13.45 13.25 13.25 " fill = "rgb(222, 115, 0)" stroke = "rgb(222, 115, 0)" stroke-width = "0"/>
    <path d="M 14 13 C 14.2 12.8 14.8 12.8 15 13 C 15.2 13.2 15 13.6 15 14 C 15 14.4 15 14.6 15 15 C 15 15.4 15.2 15.8 15 16 C 14.8 16.2 14.2 16.2 14 16 C 13.8 15.8 14 15.4 14 15 C 14 14.6 14 14.4 14 14 C 14 13.6 13.8 13.2 14 13 " fill = "rgb(33, 33, 33)" stroke = "rgb(33, 33, 33)" stroke-width = "0"/>
    <path d="M 15 13 C 15.15 12.85 15.55 13.05 15.75 13.25 C 15.95 13.45 16.15 13.85 16 14 C 15.85 14.15 15.2 14.2 15 14 C 14.8 13.8 14.85 13.15 15 13 " fill = "rgb(239, 156, 8)" stroke = "rgb(239, 156, 8)" stroke-width = "0"/>
    <path d="M 17.25 13.25 C 17.45 13.05 17.85 12.85 18 13 C 18.15 13.15 18.2 13.8 18 14 C 17.8 14.2 17.15 14.15 17 14 C 16.85 13.85 17.05 13.45 17.25 13.25 " fill = "rgb(222, 115, 0)" stroke = "rgb(222, 115, 0)" stroke-width = "0"/>
    <path d="M 18 13 C 18.2 12.8 18.8 12.8 19 13 C 19.2 13.2 19 13.6 19 14 C 19 14.4 19 14.6 19 15 C 19 15.4 19.2 15.8 19 16 C 18.8 16.2 18.4 16 18 16 C 17.6 16 17.2 16.2 17 16 C 16.8 15.8 16.85 15.25 17 15 C 17.15 14.75 17.55 14.95 17.75 14.75 C 17.95 14.55 17.95 14.35 18 14 C 18.05 13.65 17.8 13.2 18 13 " fill = "rgb(49, 41, 33)" stroke = "rgb(49, 41, 33)" stroke-width = "0"/>
    <path d="M 19 13 C 19.15 12.85 19.55 13.05 19.75 13.25 C 19.95 13.45 20.15 13.85 20 14 C 19.85 14.15 19.2 14.2 19 14 C 18.8 13.8 18.85 13.15 19 13 " fill = "rgb(239, 156, 8)" stroke = "rgb(239, 156, 8)" stroke-width = "0"/>
    <path d="M 26 13 C 26.1 12.9 26.55 13.05 26.75 13.25 C 26.95 13.45 27.1 13.9 27 14 C 26.9 14.1 26.45 13.95 26.25 13.75 C 26.05 13.55 25.9 13.1 26 13 " fill = "rgb(239, 198, 74)" stroke = "rgb(239, 198, 74)" stroke-width = "0"/>
    <path d="M 4.25 14.25 C 4.4 14.1 4.8 13.9 5 14 C 5.2 14.1 5.05 14.55 5.25 14.75 C 5.45 14.95 5.8 14.8 6 15 C 6.2 15.2 6.05 15.55 6.25 15.75 C 6.45 15.95 6.85 15.75 7 16 C 7.15 16.25 7.15 16.85 7 17 C 6.85 17.15 6.5 16.9 6.25 16.75 C 6 16.6 5.95 16.45 5.75 16.25 C 5.55 16.05 5.45 15.95 5.25 15.75 C 5.05 15.55 4.95 15.45 4.75 15.25 C 4.55 15.05 4.35 14.95 4.25 14.75 C 4.15 14.55 4.1 14.4 4.25 14.25 " fill = "rgb(222, 115, 0)" stroke = "rgb(222, 115, 0)" stroke-width = "0"/>
    <path d="M 5 14 C 5.15 13.85 5.6 14 6 14 C 6.4 14 6.6 14 7 14 C 7.4 14 7.85 13.85 8 14 C 8.15 14.15 7.95 14.55 7.75 14.75 C 7.55 14.95 7.35 14.95 7 15 C 6.65 15.05 6.35 15.05 6 15 C 5.65 14.95 5.45 14.95 5.25 14.75 C 5.05 14.55 4.85 14.15 5 14 " fill = "rgb(239, 156, 8)" stroke = "rgb(239, 156, 8)" stroke-width = "0"/>
    <path d="M 13 14 C 13.2 13.8 13.8 13.8 14 14 C 14.2 14.2 14.2 14.8 14 15 C 13.8 15.2 13.2 15.2 13 15 C 12.8 14.8 12.8 14.2 13 14 " fill = "rgb(99, 74, 16)" stroke = "rgb(99, 74, 16)" stroke-width = "0"/>
    <path d="M 15 14 C 15.2 13.8 15.85 13.85 16 14 C 16.15 14.15 15.95 14.55 15.75 14.75 C 15.55 14.95 15.15 15.15 15 15 C 14.85 14.85 14.8 14.2 15 14 " fill = "rgb(247, 189, 16)" stroke = "rgb(247, 189, 16)" stroke-width = "0"/>
    <path d="M 17 14 C 17.2 13.8 17.85 13.85 18 14 C 18.15 14.15 17.95 14.55 17.75 14.75 C 17.55 14.95 17.15 15.15 17 15 C 16.85 14.85 16.8 14.2 17 14 " fill = "rgb(99, 74, 16)" stroke = "rgb(99, 74, 16)" stroke-width = "0"/>
    <path d="M 19 14 C 19.2 13.8 19.85 13.85 20 14 C 20.15 14.15 19.95 14.55 19.75 14.75 C 19.55 14.95 19.15 15.15 19 15 C 18.85 14.85 18.8 14.2 19 14 " fill = "rgb(247, 189, 16)" stroke = "rgb(247, 189, 16)" stroke-width = "0"/>
    <path d="M 9.25 15.25 C 9.45 15.05 9.85 14.85 10 15 C 10.15 15.15 10.2 15.8 10 16 C 9.8 16.2 9.15 16.15 9 16 C 8.85 15.85 9.05 15.45 9.25 15.25 " fill = "rgb(255, 132, 132)" stroke = "rgb(255, 132, 132)" stroke-width = "0"/>
    <path d="M 10 15 C 10.2 14.8 10.85 14.85 11 15 C 11.15 15.15 10.95 15.55 10.75 15.75 C 10.55 15.95 10.15 16.15 10 16 C 9.85 15.85 9.8 15.2 10 15 " fill = "rgb(239, 198, 74)" stroke = "rgb(239, 198, 74)" stroke-width = "0"/>
    <path d="M 13 15 C 13.2 14.8 13.8 14.8 14 15 C 14.2 15.2 14.2 15.8 14 16 C 13.8 16.2 13.2 16.2 13 16 C 12.8 15.8 12.8 15.2 13 15 " fill = "rgb(49, 41, 33)" stroke = "rgb(49, 41, 33)" stroke-width = "0"/>
    <path d="M 27 15 C 27.1 14.9 27.55 15.05 27.75 15.25 C 27.95 15.45 28.1 15.9 28 16 C 27.9 16.1 27.45 15.95 27.25 15.75 C 27.05 15.55 26.9 15.1 27 15 " fill = "rgb(239, 198, 74)" stroke = "rgb(239, 198, 74)" stroke-width = "0"/>
    <path d="M 9 16 C 9.2 15.8 9.8 15.8 10 16 C 10.2 16.2 10.2 16.8 10 17 C 9.8 17.2 9.2 17.2 9 17 C 8.8 16.8 8.8 16.2 9 16 " fill = "rgb(239, 156, 8)" stroke = "rgb(239, 156, 8)" stroke-width = "0"/>
    <path d="M 13 16 C 13.2 15.8 13.8 15.8 14 16 C 14.2 16.2 14.2 16.8 14 17 C 13.8 17.2 13.2 17.2 13 17 C 12.8 16.8 12.8 16.2 13 16 " fill = "rgb(99, 74, 16)" stroke = "rgb(99, 74, 16)" stroke-width = "0"/>
    <path d="M 14 16 C 14.2 15.8 14.85 15.85 15 16 C 15.15 16.15 14.95 16.55 14.75 16.75 C 14.55 16.95 14.15 17.15 14 17 C 13.85 16.85 13.8 16.2 14 16 " fill = "rgb(222, 115, 0)" stroke = "rgb(222, 115, 0)" stroke-width = "0"/>
    <path d="M 17 16 C 17.15 15.85 17.8 15.8 18 16 C 18.2 16.2 18.15 16.85 18 17 C 17.85 17.15 17.45 16.95 17.25 16.75 C 17.05 16.55 16.85 16.15 17 16 " fill = "rgb(99, 74, 16)" stroke = "rgb(99, 74, 16)" stroke-width = "0"/>
    <path d="M 18 16 C 18.2 15.8 18.85 15.85 19 16 C 19.15 16.15 18.95 16.55 18.75 16.75 C 18.55 16.95 18.15 17.15 18 17 C 17.85 16.85 17.8 16.2 18 16 " fill = "rgb(222, 115, 0)" stroke = "rgb(222, 115, 0)" stroke-width = "0"/>
    <path d="M 32.25 16.25 C 32.5 16.1 32.9 15.9 33 16 C 33.1 16.1 32.9 16.5 32.75 16.75 C 32.6 17 32.45 17.05 32.25 17.25 C 32.05 17.45 31.95 17.55 31.75 17.75 C 31.55 17.95 31.45 18.05 31.25 18.25 C 31.05 18.45 31 18.6 30.75 18.75 C 30.5 18.9 30.15 19.15 30 19 C 29.85 18.85 29.85 18.25 30 18 C 30.15 17.75 30.5 17.9 30.75 17.75 C 31 17.6 31.05 17.45 31.25 17.25 C 31.45 17.05 31.55 16.95 31.75 16.75 C 31.95 16.55 32 16.4 32.25 16.25 " fill = "rgb(99, 74, 16)" stroke = "rgb(99, 74, 16)" stroke-width = "0"/>
    <path d="M 9 17 C 9.2 16.8 9.85 16.85 10 17 C 10.15 17.15 9.95 17.55 9.75 17.75 C 9.55 17.95 9.15 18.15 9 18 C 8.85 17.85 8.8 17.2 9 17 " fill = "rgb(255, 132, 132)" stroke = "rgb(255, 132, 132)" stroke-width = "0"/>
    <path d="M 10 17 C 10.25 16.85 10.6 17 11 17 C 11.4 17 11.6 17 12 17 C 12.4 17 12.6 17 13 17 C 13.4 17 13.75 16.85 14 17 C 14.25 17.15 14.05 17.55 14.25 17.75 C 14.45 17.95 14.7 17.9 15 18 C 15.3 18.1 15.5 18.1 15.75 18.25 C 16 18.4 16.05 18.55 16.25 18.75 C 16.45 18.95 16.6 19 16.75 19.25 C 16.9 19.5 16.95 19.65 17 20 C 17.05 20.35 17 20.6 17 21 C 17 21.4 17.05 21.65 17 22 C 16.95 22.35 16.9 22.5 16.75 22.75 C 16.6 23 16.4 23 16.25 23.25 C 16.1 23.5 16.25 23.85 16 24 C 15.75 24.15 15.4 24 15 24 C 14.6 24 14.4 24 14 24 C 13.6 24 13.4 24 13 24 C 12.6 24 12.4 24 12 24 C 11.6 24 11.4 24 11 24 C 10.6 24 10.35 24.05 10 24 C 9.65 23.95 9.5 23.9 9.25 23.75 C 9 23.6 8.95 23.45 8.75 23.25 C 8.55 23.05 8.4 23 8.25 22.75 C 8.1 22.5 8.05 22.35 8 22 C 7.95 21.65 8 21.4 8 21 C 8 20.6 7.95 20.35 8 20 C 8.05 19.65 8.1 19.5 8.25 19.25 C 8.4 19 8.6 19 8.75 18.75 C 8.9 18.5 8.8 18.2 9 18 C 9.2 17.8 9.55 17.95 9.75 17.75 C 9.95 17.55 9.75 17.15 10 17 " fill = "rgb(66, 74, 107)" stroke = "rgb(66, 74, 107)" stroke-width = "0"/>
    <path d="M 21.25 17.25 C 21.45 17.05 21.65 17.05 22 17 C 22.35 16.95 22.6 17 23 17 C 23.4 17 23.65 16.95 24 17 C 24.35 17.05 24.55 17.05 24.75 17.25 C 24.95 17.45 25 17.7 25 18 C 25 18.3 24.95 18.55 24.75 18.75 C 24.55 18.95 24.35 18.95 24 19 C 23.65 19.05 23.4 19 23 19 C 22.6 19 22.35 19.05 22 19 C 21.65 18.95 21.45 18.95 21.25 18.75 C 21.05 18.55 21 18.3 21 18 C 21 17.7 21.05 17.45 21.25 17.25 " fill = "rgb(255, 132, 132)" stroke = "rgb(255, 132, 132)" stroke-width = "0"/>
    <path d="M 10.25 18.25 C 10.5 18.1 10.65 18.05 11 18 C 11.35 17.95 11.65 17.95 12 18 C 12.35 18.05 12.5 18.1 12.75 18.25 C 13 18.4 13 18.6 13.25 18.75 C 13.5 18.9 13.85 18.75 14 19 C 14.15 19.25 14.05 19.65 14 20 C 13.95 20.35 13.9 20.5 13.75 20.75 C 13.6 21 13.45 21.05 13.25 21.25 C 13.05 21.45 13 21.6 12.75 21.75 C 12.5 21.9 12.35 21.95 12 22 C 11.65 22.05 11.35 22.05 11 22 C 10.65 21.95 10.5 21.9 10.25 21.75 C 10 21.6 10 21.4 9.75 21.25 C 9.5 21.1 9.15 21.25 9 21 C 8.85 20.75 8.95 20.35 9 20 C 9.05 19.65 9.1 19.5 9.25 19.25 C 9.4 19 9.55 18.95 9.75 18.75 C 9.95 18.55 10 18.4 10.25 18.25 " fill = "rgb(132, 189, 214)" stroke = "rgb(132, 189, 214)" stroke-width = "0"/>
    <path d="M 6.25 19.25 C 6.5 19.1 6.9 18.9 7 19 C 7.1 19.1 6.9 19.5 6.75 19.75 C 6.6 20 6.45 20.05 6.25 20.25 C 6.05 20.45 5.95 20.55 5.75 20.75 C 5.55 20.95 5.35 21.05 5.25 21.25 C 5.15 21.45 5.15 21.55 5.25 21.75 C 5.35 21.95 5.6 22 5.75 22.25 C 5.9 22.5 6.15 22.85 6 23 C 5.85 23.15 5.4 23 5 23 C 4.6 23 4.35 23.05 4 23 C 3.65 22.95 3.4 22.9 3.25 22.75 C 3.1 22.6 3.15 22.45 3.25 22.25 C 3.35 22.05 3.55 21.95 3.75 21.75 C 3.95 21.55 4.05 21.45 4.25 21.25 C 4.45 21.05 4.55 20.95 4.75 20.75 C 4.95 20.55 5.05 20.45 5.25 20.25 C 5.45 20.05 5.55 19.95 5.75 19.75 C 5.95 19.55 6 19.4 6.25 19.25 " fill = "rgb(222, 115, 0)" stroke = "rgb(222, 115, 0)" stroke-width = "0"/>
    <path d="M 14 19 C 14.2 18.8 14.65 18.95 15 19 C 15.35 19.05 15.55 19.05 15.75 19.25 C 15.95 19.45 16.1 19.8 16 20 C 15.9 20.2 15.45 20.05 15.25 20.25 C 15.05 20.45 15.2 20.8 15 21 C 14.8 21.2 14.4 21.1 14.25 21.25 C 14.1 21.4 14.1 21.6 14.25 21.75 C 14.4 21.9 14.65 21.95 15 22 C 15.35 22.05 15.85 21.85 16 22 C 16.15 22.15 15.95 22.55 15.75 22.75 C 15.55 22.95 15.3 23 15 23 C 14.7 23 14.5 22.9 14.25 22.75 C 14 22.6 13.95 22.35 13.75 22.25 C 13.55 22.15 13.45 22.15 13.25 22.25 C 13.05 22.35 13 22.6 12.75 22.75 C 12.5 22.9 12.35 22.95 12 23 C 11.65 23.05 11.35 23.05 11 23 C 10.65 22.95 10.5 22.9 10.25 22.75 C 10 22.6 9.95 22.45 9.75 22.25 C 9.55 22.05 9.4 22 9.25 21.75 C 9.1 21.5 8.9 21.1 9 21 C 9.1 20.9 9.5 21.1 9.75 21.25 C 10 21.4 10 21.6 10.25 21.75 C 10.5 21.9 10.65 21.95 11 22 C 11.35 22.05 11.65 22.05 12 22 C 12.35 21.95 12.5 21.9 12.75 21.75 C 13 21.6 13.05 21.45 13.25 21.25 C 13.45 21.05 13.6 21 13.75 20.75 C 13.9 20.5 13.95 20.35 14 20 C 14.05 19.65 13.8 19.2 14 19 " fill = "rgb(41, 132, 181)" stroke = "rgb(41, 132, 181)" stroke-width = "0"/>
    <path d="M 27.25 19.25 C 27.45 19.05 27.9 18.9 28 19 C 28.1 19.1 27.95 19.55 27.75 19.75 C 27.55 19.95 27.1 20.1 27 20 C 26.9 19.9 27.05 19.45 27.25 19.25 " fill = "rgb(239, 198, 74)" stroke = "rgb(239, 198, 74)" stroke-width = "0"/>
    <path d="M 15.25 20.25 C 15.45 20.05 15.85 19.85 16 20 C 16.15 20.15 16 20.6 16 21 C 16 21.4 16.2 21.8 16 22 C 15.8 22.2 15.2 22.2 15 22 C 14.8 21.8 14.95 21.35 15 21 C 15.05 20.65 15.05 20.45 15.25 20.25 " fill = "rgb(132, 189, 214)" stroke = "rgb(132, 189, 214)" stroke-width = "0"/>
    <path d="M 29.25 20.25 C 29.45 20.05 29.9 19.9 30 20 C 30.1 20.1 29.95 20.55 29.75 20.75 C 29.55 20.95 29.1 21.1 29 21 C 28.9 20.9 29.05 20.45 29.25 20.25 " fill = "rgb(99, 74, 16)" stroke = "rgb(99, 74, 16)" stroke-width = "0"/>
    <path d="M 14.25 21.25 C 14.4 21.1 14.85 20.85 15 21 C 15.15 21.15 15.15 21.85 15 22 C 14.85 22.15 14.4 21.9 14.25 21.75 C 14.1 21.6 14.1 21.4 14.25 21.25 " fill = "rgb(66, 74, 107)" stroke = "rgb(66, 74, 107)" stroke-width = "0"/>
    <path d="M 26.25 21.25 C 26.45 21.05 26.85 20.85 27 21 C 27.15 21.15 27.2 21.8 27 22 C 26.8 22.2 26.15 22.15 26 22 C 25.85 21.85 26.05 21.45 26.25 21.25 " fill = "rgb(239, 198, 74)" stroke = "rgb(239, 198, 74)" stroke-width = "0"/>
    <path d="M 26 22 C 26.25 21.85 26.65 21.95 27 22 C 27.35 22.05 27.55 22.05 27.75 22.25 C 27.95 22.45 28 22.7 28 23 C 28 23.3 27.95 23.55 27.75 23.75 C 27.55 23.95 27.3 23.9 27 24 C 26.7 24.1 26.5 24.1 26.25 24.25 C 26 24.4 25.95 24.55 25.75 24.75 C 25.55 24.95 25.45 25.05 25.25 25.25 C 25.05 25.45 24.95 25.55 24.75 25.75 C 24.55 25.95 24.45 26.05 24.25 26.25 C 24.05 26.45 23.95 26.55 23.75 26.75 C 23.55 26.95 23.45 27.05 23.25 27.25 C 23.05 27.45 23 27.6 22.75 27.75 C 22.5 27.9 22.35 27.95 22 28 C 21.65 28.05 21.4 28 21 28 C 20.6 28 20.4 28 20 28 C 19.6 28 19.35 27.95 19 28 C 18.65 28.05 18.5 28.1 18.25 28.25 C 18 28.4 18 28.6 17.75 28.75 C 17.5 28.9 17.3 29 17 29 C 16.7 29 16.45 28.95 16.25 28.75 C 16.05 28.55 16.1 28.3 16 28 C 15.9 27.7 15.9 27.5 15.75 27.25 C 15.6 27 15.35 26.95 15.25 26.75 C 15.15 26.55 15.15 26.35 15.25 26.25 C 15.35 26.15 15.55 26.15 15.75 26.25 C 15.95 26.35 16 26.6 16.25 26.75 C 16.5 26.9 16.65 26.95 17 27 C 17.35 27.05 17.65 27.05 18 27 C 18.35 26.95 18.55 26.95 18.75 26.75 C 18.95 26.55 18.75 26.15 19 26 C 19.25 25.85 19.6 26 20 26 C 20.4 26 20.65 26.05 21 26 C 21.35 25.95 21.55 25.95 21.75 25.75 C 21.95 25.55 21.75 25.15 22 25 C 22.25 24.85 22.65 25.05 23 25 C 23.35 24.95 23.55 24.95 23.75 24.75 C 23.95 24.55 23.8 24.2 24 24 C 24.2 23.8 24.5 23.9 24.75 23.75 C 25 23.6 25.05 23.45 25.25 23.25 C 25.45 23.05 25.6 23 25.75 22.75 C 25.9 22.5 25.75 22.15 26 22 " fill = "rgb(247, 189, 16)" stroke = "rgb(247, 189, 16)" stroke-width = "0"/>
    <path d="M 6 23 C 6.15 22.85 6.8 22.8 7 23 C 7.2 23.2 7.15 23.85 7 24 C 6.85 24.15 6.45 23.95 6.25 23.75 C 6.05 23.55 5.85 23.15 6 23 " fill = "rgb(99, 74, 16)" stroke = "rgb(99, 74, 16)" stroke-width = "0"/>
    <path d="M 7 23 C 7.15 22.85 7.5 23.1 7.75 23.25 C 8 23.4 8.05 23.55 8.25 23.75 C 8.45 23.95 8.6 24 8.75 24.25 C 8.9 24.5 9.1 24.9 9 25 C 8.9 25.1 8.5 24.9 8.25 24.75 C 8 24.6 8 24.4 7.75 24.25 C 7.5 24.1 7.15 24.25 7 24 C 6.85 23.75 6.85 23.15 7 23 " fill = "rgb(222, 115, 0)" stroke = "rgb(222, 115, 0)" stroke-width = "0"/>
    <path d="M 14 24 C 14.15 23.85 14.6 24 15 24 C 15.4 24 15.75 23.85 16 24 C 16.25 24.15 16.1 24.5 16.25 24.75 C 16.4 25 16.6 25 16.75 25.25 C 16.9 25.5 17.1 25.9 17 26 C 16.9 26.1 16.5 25.9 16.25 25.75 C 16 25.6 16 25.4 15.75 25.25 C 15.5 25.1 15.3 25.1 15 25 C 14.7 24.9 14.45 24.95 14.25 24.75 C 14.05 24.55 13.85 24.15 14 24 " fill = "rgb(239, 198, 74)" stroke = "rgb(239, 198, 74)" stroke-width = "0"/>
    <path d="M 23.25 24.25 C 23.45 24.05 23.9 23.9 24 24 C 24.1 24.1 23.95 24.55 23.75 24.75 C 23.55 24.95 23.1 25.1 23 25 C 22.9 24.9 23.05 24.45 23.25 24.25 " fill = "rgb(239, 198, 74)" stroke = "rgb(239, 198, 74)" stroke-width = "0"/>
    <path d="M 21.25 25.25 C 21.45 25.05 21.9 24.9 22 25 C 22.1 25.1 21.95 25.55 21.75 25.75 C 21.55 25.95 21.1 26.1 21 26 C 20.9 25.9 21.05 25.45 21.25 25.25 " fill = "rgb(239, 198, 74)" stroke = "rgb(239, 198, 74)" stroke-width = "0"/>
    <path d="M 26.25 25.25 C 26.4 25.1 26.6 25.1 26.75 25.25 C 26.9 25.4 27.15 25.85 27 26 C 26.85 26.15 26.15 26.15 26 26 C 25.85 25.85 26.1 25.4 26.25 25.25 " fill = "rgb(222, 115, 0)" stroke = "rgb(222, 115, 0)" stroke-width = "0"/>
    <path d="M 29 25 C 29.2 24.9 29.55 25.05 29.75 25.25 C 29.95 25.45 30.1 25.8 30 26 C 29.9 26.2 29.45 26.05 29.25 26.25 C 29.05 26.45 29.2 26.9 29 27 C 28.8 27.1 28.45 26.95 28.25 26.75 C 28.05 26.55 27.9 26.2 28 26 C 28.1 25.8 28.55 25.95 28.75 25.75 C 28.95 25.55 28.8 25.1 29 25 " fill = "rgb(99, 74, 16)" stroke = "rgb(99, 74, 16)" stroke-width = "0"/>
    <path d="M 25.25 26.25 C 25.5 26.1 25.9 25.9 26 26 C 26.1 26.1 25.9 26.5 25.75 26.75 C 25.6 27 25.45 27.05 25.25 27.25 C 25.05 27.45 25 27.6 24.75 27.75 C 24.5 27.9 24.1 28.1 24 28 C 23.9 27.9 24.1 27.5 24.25 27.25 C 24.4 27 24.55 26.95 24.75 26.75 C 24.95 26.55 25 26.4 25.25 26.25 " fill = "rgb(99, 74, 16)" stroke = "rgb(99, 74, 16)" stroke-width = "0"/>
    <path d="M 29.25 26.25 C 29.45 26.05 29.9 25.9 30 26 C 30.1 26.1 29.95 26.55 29.75 26.75 C 29.55 26.95 29.1 27.1 29 27 C 28.9 26.9 29.05 26.45 29.25 26.25 " fill = "rgb(222, 115, 0)" stroke = "rgb(222, 115, 0)" stroke-width = "0"/>
    <path d="M 10 27 C 10.15 26.85 10.85 26.85 11 27 C 11.15 27.15 10.9 27.6 10.75 27.75 C 10.6 27.9 10.4 27.9 10.25 27.75 C 10.1 27.6 9.85 27.15 10 27 " fill = "rgb(222, 115, 0)" stroke = "rgb(222, 115, 0)" stroke-width = "0"/>
    <path d="M 12 27 C 12.15 26.85 12.8 26.8 13 27 C 13.2 27.2 13.15 27.85 13 28 C 12.85 28.15 12.45 27.95 12.25 27.75 C 12.05 27.55 11.85 27.15 12 27 " fill = "rgb(99, 74, 16)" stroke = "rgb(99, 74, 16)" stroke-width = "0"/>
    <path d="M 13 27 C 13.15 26.85 13.55 27.05 13.75 27.25 C 13.95 27.45 14.15 27.85 14 28 C 13.85 28.15 13.2 28.2 13 28 C 12.8 27.8 12.85 27.15 13 27 " fill = "rgb(222, 115, 0)" stroke = "rgb(222, 115, 0)" stroke-width = "0"/>
    <path d="M 23.25 28.25 C 23.45 28.05 23.9 27.9 24 28 C 24.1 28.1 23.95 28.55 23.75 28.75 C 23.55 28.95 23.1 29.1 23 29 C 22.9 28.9 23.05 28.45 23.25 28.25 " fill = "rgb(222, 115, 0)" stroke = "rgb(222, 115, 0)" stroke-width = "0"/>
    <path d="M 14 29 C 14.1 28.9 14.55 29.05 14.75 29.25 C 14.95 29.45 15.1 29.9 15 30 C 14.9 30.1 14.45 29.95 14.25 29.75 C 14.05 29.55 13.9 29.1 14 29 " fill = "rgb(99, 74, 16)" stroke = "rgb(99, 74, 16)" stroke-width = "0"/>
    <path d="M 18.25 29.25 C 18.5 29.1 18.9 28.9 19 29 C 19.1 29.1 18.9 29.5 18.75 29.75 C 18.6 30 18.45 30.05 18.25 30.25 C 18.05 30.45 18 30.6 17.75 30.75 C 17.5 30.9 17.1 31.1 17 31 C 16.9 30.9 17.1 30.5 17.25 30.25 C 17.4 30 17.55 29.95 17.75 29.75 C 17.95 29.55 18 29.4 18.25 29.25 " fill = "rgb(222, 115, 0)" stroke = "rgb(222, 115, 0)" stroke-width = "0"/>
    <path d="M 21 29 C 21.1 28.9 21.55 29.05 21.75 29.25 C 21.95 29.45 22.1 29.9 22 30 C 21.9 30.1 21.45 29.95 21.25 29.75 C 21.05 29.55 20.9 29.1 21 29 " fill = "rgb(222, 115, 0)" stroke = "rgb(222, 115, 0)" stroke-width = "0"/>
    <path d="M 15 30 C 15.1 29.9 15.55 30.05 15.75 30.25 C 15.95 30.45 16.1 30.9 16 31 C 15.9 31.1 15.45 30.95 15.25 30.75 C 15.05 30.55 14.9 30.1 15 30 " fill = "rgb(222, 115, 0)" stroke = "rgb(222, 115, 0)" stroke-width = "0"/>
</svg>
