<svg version="1.1" baseProfile = "full" width = "17" height = "18" xmlns = "http://www.w3.org/2000/svg">
    <path d="M 0 0 C 0.2 -0.2 0.6 -3.49691e-08 1 0 C 1.4 0 1.6 -3.49691e-08 2 0 C 2.4 0 2.6 -3.49691e-08 3 0 C 3.4 0 3.6 -3.49691e-08 4 0 C 4.4 0 4.6 -3.49691e-08 5 0 C 5.4 0 5.6 -3.49691e-08 6 0 C 6.4 0 6.6 -3.49691e-08 7 0 C 7.4 0 7.6 -3.49691e-08 8 0 C 8.4 0 8.6 -3.49691e-08 9 0 C 9.4 0 9.6 -3.49691e-08 10 0 C 10.4 0 10.6 -3.49691e-08 11 0 C 11.4 0 11.6 -3.49691e-08 12 0 C 12.4 0 12.6 -3.49691e-08 13 0 C 13.4 0 13.6 -3.49691e-08 14 0 C 14.4 0 14.6 -3.49691e-08 15 0 C 15.4 0 15.6 -3.49691e-08 16 0 C 16.4 0 16.8 -0.2 17 0 C 17.2 0.2 17 0.6 17 1 C 17 1.4 17 1.6 17 2 C 17 2.4 17 2.6 17 3 C 17 3.4 17 3.6 17 4 C 17 4.4 17 4.6 17 5 C 17 5.4 17 5.6 17 6 C 17 6.4 17 6.6 17 7 C 17 7.4 17 7.6 17 8 C 17 8.4 17 8.6 17 9 C 17 9.4 17 9.6 17 10 C 17 10.4 17 10.6 17 11 C 17 11.4 17 11.6 17 12 C 17 12.4 17 12.6 17 13 C 17 13.4 17 13.6 17 14 C 17 14.4 17 14.6 17 15 C 17 15.4 17 15.6 17 16 C 17 16.4 17 16.6 17 17 C 17 17.4 17.2 17.8 17 18 C 16.8 18.2 16.4 18 16 18 C 15.6 18 15.4 18 15 18 C 14.6 18 14.4 18 14 18 C 13.6 18 13.4 18 13 18 C 12.6 18 12.4 18 12 18 C 11.6 18 11.4 18 11 18 C 10.6 18 10.4 18 10 18 C 9.6 18 9.4 18 9 18 C 8.6 18 8.4 18 8 18 C 7.6 18 7.4 18 7 18 C 6.6 18 6.4 18 6 18 C 5.6 18 5.4 18 5 18 C 4.6 18 4.4 18 4 18 C 3.6 18 3.4 18 3 18 C 2.6 18 2.4 18 2 18 C 1.6 18 1.4 18 1 18 C 0.6 18 0.2 18.2 0 18 C -0.2 17.8 3.01992e-08 17.4 0 17 C -1.74846e-08 16.6 3.01992e-08 16.4 0 16 C -1.74846e-08 15.6 3.01992e-08 15.4 0 15 C -1.74846e-08 14.6 3.01992e-08 14.4 0 14 C -1.74846e-08 13.6 3.01992e-08 13.4 0 13 C -1.74846e-08 12.6 3.01992e-08 12.4 0 12 C -1.74846e-08 11.6 3.01992e-08 11.4 0 11 C -1.74846e-08 10.6 3.01992e-08 10.4 0 10 C -1.74846e-08 9.6 3.01992e-08 9.4 0 9 C -1.74846e-08 8.6 3.01992e-08 8.4 0 8 C -1.74846e-08 7.6 3.01992e-08 7.4 0 7 C -1.74846e-08 6.6 3.01992e-08 6.4 0 6 C -1.74846e-08 5.6 3.01992e-08 5.4 0 5 C -1.74846e-08 4.6 3.01992e-08 4.4 0 4 C -1.74846e-08 3.6 3.01992e-08 3.4 0 3 C -1.74846e-08 2.6 3.01992e-08 2.4 0 2 C -1.74846e-08 1.6 3.01992e-08 1.4 0 1 C -1.74846e-08 0.6 -0.2 0.2 0 0 " fill = "rgb(235, 0, 235)" stroke = "rgb(235, 0, 235)" stroke-width = "0"/>
    <path d="M 6.25 1.25 C 6.5 1.1 6.9 0.9 7 1 C 7.1 1.1 6.9 1.5 6.75 1.75 C 6.6 2 6.45 2.05 6.25 2.25 C 6.05 2.45 6 2.6 5.75 2.75 C 5.5 2.9 5.1 3.1 5 3 C 4.9 2.9 5.1 2.5 5.25 2.25 C 5.4 2 5.55 1.95 5.75 1.75 C 5.95 1.55 6 1.4 6.25 1.25 " fill = "rgb(74, 73, 115)" stroke = "rgb(74, 73, 115)" stroke-width = "0"/>
    <path d="M 7 1 C 7.25 0.85 7.6 1 8 1 C 8.4 1 8.6 1 9 1 C 9.4 1 9.75 0.85 10 1 C 10.25 1.15 10.1 1.5 10.25 1.75 C 10.4 2 10.55 2.05 10.75 2.25 C 10.95 2.45 11 2.6 11.25 2.75 C 11.5 2.9 11.85 2.75 12 3 C 12.15 3.25 12 3.6 12 4 C 12 4.4 12.15 4.75 12 5 C 11.85 5.25 11.45 5.05 11.25 5.25 C 11.05 5.45 11.25 5.85 11 6 C 10.75 6.15 10.25 6.15 10 6 C 9.75 5.85 9.9 5.5 9.75 5.25 C 9.6 5 9.4 5 9.25 4.75 C 9.1 4.5 8.9 4.1 9 4 C 9.1 3.9 9.5 4.1 9.75 4.25 C 10 4.4 10.05 4.65 10.25 4.75 C 10.45 4.85 10.6 4.9 10.75 4.75 C 10.9 4.6 11 4.3 11 4 C 11 3.7 10.9 3.5 10.75 3.25 C 10.6 3 10.45 2.95 10.25 2.75 C 10.05 2.55 10 2.4 9.75 2.25 C 9.5 2.1 9.35 2.05 9 2 C 8.65 1.95 8.35 1.95 8 2 C 7.65 2.05 7.45 2.05 7.25 2.25 C 7.05 2.45 7.2 2.8 7 3 C 6.8 3.2 6.45 3.05 6.25 3.25 C 6.05 3.45 6.05 3.65 6 4 C 5.95 4.35 6.15 4.75 6 5 C 5.85 5.25 5.45 5.05 5.25 5.25 C 5.05 5.45 5.05 5.65 5 6 C 4.95 6.35 5.15 6.75 5 7 C 4.85 7.25 4.45 7.05 4.25 7.25 C 4.05 7.45 4.2 7.8 4 8 C 3.8 8.2 3.5 8.1 3.25 8.25 C 3 8.4 2.95 8.55 2.75 8.75 C 2.55 8.95 2.35 9.05 2.25 9.25 C 2.15 9.45 2.1 9.6 2.25 9.75 C 2.4 9.9 2.8 9.8 3 10 C 3.2 10.2 3.05 10.55 3.25 10.75 C 3.45 10.95 3.8 10.8 4 11 C 4.2 11.2 4.05 11.55 4.25 11.75 C 4.45 11.95 4.7 12 5 12 C 5.3 12 5.55 11.95 5.75 11.75 C 5.95 11.55 5.75 11.15 6 11 C 6.25 10.85 6.8 10.8 7 11 C 7.2 11.2 7.15 11.75 7 12 C 6.85 12.25 6.5 12.1 6.25 12.25 C 6 12.4 6 12.6 5.75 12.75 C 5.5 12.9 5.35 12.95 5 13 C 4.65 13.05 4.25 13.15 4 13 C 3.75 12.85 3.9 12.5 3.75 12.25 C 3.6 12 3.45 11.95 3.25 11.75 C 3.05 11.55 2.95 11.45 2.75 11.25 C 2.55 11.05 2.45 10.95 2.25 10.75 C 2.05 10.55 2 10.4 1.75 10.25 C 1.5 10.1 1.15 10.25 1 10 C 0.85 9.75 0.85 9.25 1 9 C 1.15 8.75 1.5 8.9 1.75 8.75 C 2 8.6 2.05 8.45 2.25 8.25 C 2.45 8.05 2.55 7.95 2.75 7.75 C 2.95 7.55 3.05 7.45 3.25 7.25 C 3.45 7.05 3.6 7 3.75 6.75 C 3.9 6.5 3.95 6.35 4 6 C 4.05 5.65 3.85 5.25 4 5 C 4.15 4.75 4.55 4.95 4.75 4.75 C 4.95 4.55 4.95 4.35 5 4 C 5.05 3.65 4.85 3.25 5 3 C 5.15 2.75 5.5 2.9 5.75 2.75 C 6 2.6 6.05 2.45 6.25 2.25 C 6.45 2.05 6.6 2 6.75 1.75 C 6.9 1.5 6.75 1.15 7 1 " fill = "rgb(8, 16, 66)" stroke = "rgb(8, 16, 66)" stroke-width = "0"/>
    <path d="M 10 1 C 10.1 0.9 10.5 1.1 10.75 1.25 C 11 1.4 11.05 1.55 11.25 1.75 C 11.45 1.95 11.6 2 11.75 2.25 C 11.9 2.5 12.1 2.9 12 3 C 11.9 3.1 11.5 2.9 11.25 2.75 C 11 2.6 10.95 2.45 10.75 2.25 C 10.55 2.05 10.4 2 10.25 1.75 C 10.1 1.5 9.9 1.1 10 1 " fill = "rgb(74, 73, 115)" stroke = "rgb(74, 73, 115)" stroke-width = "0"/>
    <path d="M 7.25 2.25 C 7.45 2.05 7.85 1.85 8 2 C 8.15 2.15 8.2 2.8 8 3 C 7.8 3.2 7.15 3.15 7 3 C 6.85 2.85 7.05 2.45 7.25 2.25 " fill = "rgb(214, 170, 49)" stroke = "rgb(214, 170, 49)" stroke-width = "0"/>
    <path d="M 8 2 C 8.2 1.8 8.75 1.85 9 2 C 9.25 2.15 9.1 2.5 9.25 2.75 C 9.4 3 9.55 3.05 9.75 3.25 C 9.95 3.45 10 3.6 10.25 3.75 C 10.5 3.9 10.9 3.8 11 4 C 11.1 4.2 10.9 4.6 10.75 4.75 C 10.6 4.9 10.45 4.85 10.25 4.75 C 10.05 4.65 10 4.4 9.75 4.25 C 9.5 4.1 9.2 4.2 9 4 C 8.8 3.8 8.95 3.45 8.75 3.25 C 8.55 3.05 8.15 3.25 8 3 C 7.85 2.75 7.8 2.2 8 2 " fill = "rgb(255, 251, 115)" stroke = "rgb(255, 251, 115)" stroke-width = "0"/>
    <path d="M 9 2 C 9.1 1.9 9.5 2.1 9.75 2.25 C 10 2.4 10.05 2.55 10.25 2.75 C 10.45 2.95 10.6 3 10.75 3.25 C 10.9 3.5 11.1 3.9 11 4 C 10.9 4.1 10.5 3.9 10.25 3.75 C 10 3.6 9.95 3.45 9.75 3.25 C 9.55 3.05 9.4 3 9.25 2.75 C 9.1 2.5 8.9 2.1 9 2 " fill = "rgb(255, 211, 57)" stroke = "rgb(255, 211, 57)" stroke-width = "0"/>
    <path d="M 6.25 3.25 C 6.45 3.05 6.65 3.05 7 3 C 7.35 2.95 7.65 2.95 8 3 C 8.35 3.05 8.55 3.05 8.75 3.25 C 8.95 3.45 9.15 3.85 9 4 C 8.85 4.15 8.4 4 8 4 C 7.6 4 7.4 4 7 4 C 6.6 4 6.15 4.15 6 4 C 5.85 3.85 6.05 3.45 6.25 3.25 " fill = "rgb(255, 211, 57)" stroke = "rgb(255, 211, 57)" stroke-width = "0"/>
    <path d="M 4.25 4.25 C 4.45 4.05 4.9 3.9 5 4 C 5.1 4.1 4.95 4.55 4.75 4.75 C 4.55 4.95 4.1 5.1 4 5 C 3.9 4.9 4.05 4.45 4.25 4.25 " fill = "rgb(74, 73, 115)" stroke = "rgb(74, 73, 115)" stroke-width = "0"/>
    <path d="M 6 4 C 6.2 3.8 6.8 3.8 7 4 C 7.2 4.2 7 4.6 7 5 C 7 5.4 7 5.6 7 6 C 7 6.4 7 6.6 7 7 C 7 7.4 7.2 7.8 7 8 C 6.8 8.2 6.2 8.2 6 8 C 5.8 7.8 6 7.4 6 7 C 6 6.6 6 6.4 6 6 C 6 5.6 6 5.4 6 5 C 6 4.6 5.8 4.2 6 4 " fill = "rgb(255, 251, 115)" stroke = "rgb(255, 251, 115)" stroke-width = "0"/>
    <path d="M 7 4 C 7.2 3.8 7.8 3.8 8 4 C 8.2 4.2 8.2 4.8 8 5 C 7.8 5.2 7.2 5.2 7 5 C 6.8 4.8 6.8 4.2 7 4 " fill = "rgb(214, 170, 49)" stroke = "rgb(214, 170, 49)" stroke-width = "0"/>
    <path d="M 8 4 C 8.2 3.8 8.75 3.85 9 4 C 9.25 4.15 9.1 4.5 9.25 4.75 C 9.4 5 9.6 5 9.75 5.25 C 9.9 5.5 10.1 5.8 10 6 C 9.9 6.2 9.45 6.05 9.25 6.25 C 9.05 6.45 9.2 6.9 9 7 C 8.8 7.1 8.45 6.95 8.25 6.75 C 8.05 6.55 7.9 6.2 8 6 C 8.1 5.8 8.6 5.9 8.75 5.75 C 8.9 5.6 8.9 5.4 8.75 5.25 C 8.6 5.1 8.15 5.25 8 5 C 7.85 4.75 7.8 4.2 8 4 " fill = "rgb(74, 73, 115)" stroke = "rgb(74, 73, 115)" stroke-width = "0"/>
    <path d="M 5.25 5.25 C 5.45 5.05 5.85 4.85 6 5 C 6.15 5.15 6 5.6 6 6 C 6 6.4 6.2 6.8 6 7 C 5.8 7.2 5.2 7.2 5 7 C 4.8 6.8 4.95 6.35 5 6 C 5.05 5.65 5.05 5.45 5.25 5.25 " fill = "rgb(255, 211, 57)" stroke = "rgb(255, 211, 57)" stroke-width = "0"/>
    <path d="M 7 5 C 7.2 4.8 7.8 4.8 8 5 C 8.2 5.2 7.95 5.65 8 6 C 8.05 6.35 8.05 6.55 8.25 6.75 C 8.45 6.95 8.85 6.75 9 7 C 9.15 7.25 8.95 7.65 9 8 C 9.05 8.35 9.1 8.6 9.25 8.75 C 9.4 8.9 9.55 8.85 9.75 8.75 C 9.95 8.65 10.05 8.45 10.25 8.25 C 10.45 8.05 10.6 8 10.75 7.75 C 10.9 7.5 10.75 7.15 11 7 C 11.25 6.85 11.6 7 12 7 C 12.4 7 12.75 6.85 13 7 C 13.25 7.15 13.1 7.5 13.25 7.75 C 13.4 8 13.55 8.05 13.75 8.25 C 13.95 8.45 14.05 8.55 14.25 8.75 C 14.45 8.95 14.55 9.05 14.75 9.25 C 14.95 9.45 15 9.6 15.25 9.75 C 15.5 9.9 15.85 9.75 16 10 C 16.15 10.25 16 10.6 16 11 C 16 11.4 16.15 11.75 16 12 C 15.85 12.25 15.45 12.05 15.25 12.25 C 15.05 12.45 15.25 12.85 15 13 C 14.75 13.15 14.35 12.95 14 13 C 13.65 13.05 13.45 13.05 13.25 13.25 C 13.05 13.45 13.25 13.85 13 14 C 12.75 14.15 12.4 14 12 14 C 11.6 14 11.4 14 11 14 C 10.6 14 10.2 14.2 10 14 C 9.8 13.8 9.8 13.2 10 13 C 10.2 12.8 10.6 13 11 13 C 11.4 13 11.65 13.05 12 13 C 12.35 12.95 12.55 12.95 12.75 12.75 C 12.95 12.55 12.75 12.15 13 12 C 13.25 11.85 13.65 12.05 14 12 C 14.35 11.95 14.55 11.95 14.75 11.75 C 14.95 11.55 15 11.3 15 11 C 15 10.7 14.9 10.5 14.75 10.25 C 14.6 10 14.45 9.95 14.25 9.75 C 14.05 9.55 14 9.4 13.75 9.25 C 13.5 9.1 13.2 9.2 13 9 C 12.8 8.8 12.95 8.45 12.75 8.25 C 12.55 8.05 12.3 8 12 8 C 11.7 8 11.5 8.1 11.25 8.25 C 11 8.4 10.95 8.55 10.75 8.75 C 10.55 8.95 10.4 9 10.25 9.25 C 10.1 9.5 10.25 9.85 10 10 C 9.75 10.15 9.25 10.15 9 10 C 8.75 9.85 8.95 9.45 8.75 9.25 C 8.55 9.05 8.15 9.25 8 9 C 7.85 8.75 8.05 8.35 8 8 C 7.95 7.65 7.95 7.45 7.75 7.25 C 7.55 7.05 7.15 7.25 7 7 C 6.85 6.75 7 6.4 7 6 C 7 5.6 6.8 5.2 7 5 " fill = "rgb(8, 16, 66)" stroke = "rgb(8, 16, 66)" stroke-width = "0"/>
    <path d="M 8 5 C 8.15 4.85 8.6 5.1 8.75 5.25 C 8.9 5.4 8.9 5.6 8.75 5.75 C 8.6 5.9 8.15 6.15 8 6 C 7.85 5.85 7.85 5.15 8 5 " fill = "rgb(235, 0, 235)" stroke = "rgb(235, 0, 235)" stroke-width = "0"/>
    <path d="M 11.25 5.25 C 11.45 5.05 11.9 4.9 12 5 C 12.1 5.1 11.95 5.55 11.75 5.75 C 11.55 5.95 11.1 6.1 11 6 C 10.9 5.9 11.05 5.45 11.25 5.25 " fill = "rgb(74, 73, 115)" stroke = "rgb(74, 73, 115)" stroke-width = "0"/>
    <path d="M 3.25 6.25 C 3.5 6.1 3.9 5.9 4 6 C 4.1 6.1 3.9 6.5 3.75 6.75 C 3.6 7 3.45 7.05 3.25 7.25 C 3.05 7.45 2.95 7.55 2.75 7.75 C 2.55 7.95 2.45 8.05 2.25 8.25 C 2.05 8.45 2 8.6 1.75 8.75 C 1.5 8.9 1.1 9.1 1 9 C 0.9 8.9 1.1 8.5 1.25 8.25 C 1.4 8 1.55 7.95 1.75 7.75 C 1.95 7.55 2.05 7.45 2.25 7.25 C 2.45 7.05 2.55 6.95 2.75 6.75 C 2.95 6.55 3 6.4 3.25 6.25 " fill = "rgb(74, 73, 115)" stroke = "rgb(74, 73, 115)" stroke-width = "0"/>
    <path d="M 4.25 7.25 C 4.45 7.05 4.8 6.9 5 7 C 5.2 7.1 5.05 7.55 5.25 7.75 C 5.45 7.95 5.8 7.8 6 8 C 6.2 8.2 6.1 8.5 6.25 8.75 C 6.4 9 6.6 9 6.75 9.25 C 6.9 9.5 6.95 9.65 7 10 C 7.05 10.35 7.2 10.8 7 11 C 6.8 11.2 6.2 11.2 6 11 C 5.8 10.8 6.05 10.35 6 10 C 5.95 9.65 5.95 9.45 5.75 9.25 C 5.55 9.05 5.2 9.2 5 9 C 4.8 8.8 4.95 8.45 4.75 8.25 C 4.55 8.05 4.1 8.2 4 8 C 3.9 7.8 4.05 7.45 4.25 7.25 " fill = "rgb(41, 113, 0)" stroke = "rgb(41, 113, 0)" stroke-width = "0"/>
    <path d="M 5 7 C 5.15 6.85 5.8 6.8 6 7 C 6.2 7.2 6.15 7.85 6 8 C 5.85 8.15 5.45 7.95 5.25 7.75 C 5.05 7.55 4.85 7.15 5 7 " fill = "rgb(214, 170, 49)" stroke = "rgb(214, 170, 49)" stroke-width = "0"/>
    <path d="M 7 7 C 7.15 6.85 7.55 7.05 7.75 7.25 C 7.95 7.45 8.15 7.85 8 8 C 7.85 8.15 7.2 8.2 7 8 C 6.8 7.8 6.85 7.15 7 7 " fill = "rgb(214, 170, 49)" stroke = "rgb(214, 170, 49)" stroke-width = "0"/>
    <path d="M 10.25 7.25 C 10.5 7.1 10.9 6.9 11 7 C 11.1 7.1 10.9 7.5 10.75 7.75 C 10.6 8 10.45 8.05 10.25 8.25 C 10.05 8.45 9.95 8.65 9.75 8.75 C 9.55 8.85 9.4 8.9 9.25 8.75 C 9.1 8.6 8.9 8.2 9 8 C 9.1 7.8 9.5 7.9 9.75 7.75 C 10 7.6 10 7.4 10.25 7.25 " fill = "rgb(74, 73, 115)" stroke = "rgb(74, 73, 115)" stroke-width = "0"/>
    <path d="M 13 7 C 13.1 6.9 13.5 7.1 13.75 7.25 C 14 7.4 14.05 7.55 14.25 7.75 C 14.45 7.95 14.55 8.05 14.75 8.25 C 14.95 8.45 15.05 8.55 15.25 8.75 C 15.45 8.95 15.6 9 15.75 9.25 C 15.9 9.5 16.1 9.9 16 10 C 15.9 10.1 15.5 9.9 15.25 9.75 C 15 9.6 14.95 9.45 14.75 9.25 C 14.55 9.05 14.45 8.95 14.25 8.75 C 14.05 8.55 13.95 8.45 13.75 8.25 C 13.55 8.05 13.4 8 13.25 7.75 C 13.1 7.5 12.9 7.1 13 7 " fill = "rgb(74, 73, 115)" stroke = "rgb(74, 73, 115)" stroke-width = "0"/>
    <path d="M 3.25 8.25 C 3.5 8.1 3.9 7.9 4 8 C 4.1 8.1 3.9 8.5 3.75 8.75 C 3.6 9 3.4 9 3.25 9.25 C 3.1 9.5 3.2 9.9 3 10 C 2.8 10.1 2.4 9.9 2.25 9.75 C 2.1 9.6 2.15 9.45 2.25 9.25 C 2.35 9.05 2.55 8.95 2.75 8.75 C 2.95 8.55 3 8.4 3.25 8.25 " fill = "rgb(255, 251, 115)" stroke = "rgb(255, 251, 115)" stroke-width = "0"/>
    <path d="M 4 8 C 4.2 7.9 4.55 8.05 4.75 8.25 C 4.95 8.45 5 8.7 5 9 C 5 9.3 4.9 9.5 4.75 9.75 C 4.6 10 4.4 10 4.25 10.25 C 4.1 10.5 4.2 10.9 4 11 C 3.8 11.1 3.45 10.95 3.25 10.75 C 3.05 10.55 3 10.3 3 10 C 3 9.7 3.1 9.5 3.25 9.25 C 3.4 9 3.6 9 3.75 8.75 C 3.9 8.5 3.8 8.1 4 8 " fill = "rgb(255, 211, 57)" stroke = "rgb(255, 211, 57)" stroke-width = "0"/>
    <path d="M 6 8 C 6.15 7.85 6.6 8 7 8 C 7.4 8 7.8 7.8 8 8 C 8.2 8.2 8 8.6 8 9 C 8 9.4 8.2 9.8 8 10 C 7.8 10.2 7.25 10.15 7 10 C 6.75 9.85 6.9 9.5 6.75 9.25 C 6.6 9 6.4 9 6.25 8.75 C 6.1 8.5 5.85 8.15 6 8 " fill = "rgb(255, 211, 57)" stroke = "rgb(255, 211, 57)" stroke-width = "0"/>
    <path d="M 11.25 8.25 C 11.5 8.1 11.9 7.9 12 8 C 12.1 8.1 11.9 8.5 11.75 8.75 C 11.6 9 11.4 9 11.25 9.25 C 11.1 9.5 11.25 9.85 11 10 C 10.75 10.15 10.15 10.15 10 10 C 9.85 9.85 10.1 9.5 10.25 9.25 C 10.4 9 10.55 8.95 10.75 8.75 C 10.95 8.55 11 8.4 11.25 8.25 " fill = "rgb(123, 203, 24)" stroke = "rgb(123, 203, 24)" stroke-width = "0"/>
    <path d="M 12 8 C 12.2 7.9 12.55 8.05 12.75 8.25 C 12.95 8.45 13.1 8.8 13 9 C 12.9 9.2 12.4 9.1 12.25 9.25 C 12.1 9.4 12.15 9.55 12.25 9.75 C 12.35 9.95 12.65 10.05 12.75 10.25 C 12.85 10.45 12.85 10.55 12.75 10.75 C 12.65 10.95 12.35 11.05 12.25 11.25 C 12.15 11.45 12.1 11.6 12.25 11.75 C 12.4 11.9 12.9 11.8 13 12 C 13.1 12.2 12.95 12.55 12.75 12.75 C 12.55 12.95 12.2 13.1 12 13 C 11.8 12.9 11.9 12.5 11.75 12.25 C 11.6 12 11.4 12 11.25 11.75 C 11.1 11.5 10.9 11.2 11 11 C 11.1 10.8 11.6 10.9 11.75 10.75 C 11.9 10.6 11.9 10.4 11.75 10.25 C 11.6 10.1 11.1 10.2 11 10 C 10.9 9.8 11.1 9.5 11.25 9.25 C 11.4 9 11.6 9 11.75 8.75 C 11.9 8.5 11.8 8.1 12 8 " fill = "rgb(189, 203, 41)" stroke = "rgb(189, 203, 41)" stroke-width = "0"/>
    <path d="M 5 9 C 5.2 8.9 5.55 9.05 5.75 9.25 C 5.95 9.45 5.95 9.65 6 10 C 6.05 10.35 6.2 10.8 6 11 C 5.8 11.2 5.4 11 5 11 C 4.6 11 4.15 11.15 4 11 C 3.85 10.85 4.1 10.5 4.25 10.25 C 4.4 10 4.6 10 4.75 9.75 C 4.9 9.5 4.8 9.1 5 9 " fill = "rgb(189, 203, 41)" stroke = "rgb(189, 203, 41)" stroke-width = "0"/>
    <path d="M 8 9 C 8.15 8.85 8.55 9.05 8.75 9.25 C 8.95 9.45 9.15 9.85 9 10 C 8.85 10.15 8.2 10.2 8 10 C 7.8 9.8 7.85 9.15 8 9 " fill = "rgb(214, 170, 49)" stroke = "rgb(214, 170, 49)" stroke-width = "0"/>
    <path d="M 12.25 9.25 C 12.4 9.1 12.8 8.9 13 9 C 13.2 9.1 13.1 9.5 13.25 9.75 C 13.4 10 13.65 10.05 13.75 10.25 C 13.85 10.45 13.85 10.55 13.75 10.75 C 13.65 10.95 13.4 11 13.25 11.25 C 13.1 11.5 13.2 11.9 13 12 C 12.8 12.1 12.4 11.9 12.25 11.75 C 12.1 11.6 12.15 11.45 12.25 11.25 C 12.35 11.05 12.65 10.95 12.75 10.75 C 12.85 10.55 12.85 10.45 12.75 10.25 C 12.65 10.05 12.35 9.95 12.25 9.75 C 12.15 9.55 12.1 9.4 12.25 9.25 " fill = "rgb(255, 211, 57)" stroke = "rgb(255, 211, 57)" stroke-width = "0"/>
    <path d="M 13 9 C 13.1 8.9 13.5 9.1 13.75 9.25 C 14 9.4 14.05 9.55 14.25 9.75 C 14.45 9.95 14.6 10 14.75 10.25 C 14.9 10.5 15 10.7 15 11 C 15 11.3 14.95 11.55 14.75 11.75 C 14.55 11.95 14.35 11.95 14 12 C 13.65 12.05 13.15 12.15 13 12 C 12.85 11.85 13.1 11.5 13.25 11.25 C 13.4 11 13.65 10.95 13.75 10.75 C 13.85 10.55 13.85 10.45 13.75 10.25 C 13.65 10.05 13.4 10 13.25 9.75 C 13.1 9.5 12.9 9.1 13 9 " fill = "rgb(255, 251, 115)" stroke = "rgb(255, 251, 115)" stroke-width = "0"/>
    <path d="M 1 10 C 1.1 9.9 1.5 10.1 1.75 10.25 C 2 10.4 2.05 10.55 2.25 10.75 C 2.45 10.95 2.55 11.05 2.75 11.25 C 2.95 11.45 3.05 11.55 3.25 11.75 C 3.45 11.95 3.6 12 3.75 12.25 C 3.9 12.5 4.1 12.9 4 13 C 3.9 13.1 3.5 12.9 3.25 12.75 C 3 12.6 2.95 12.45 2.75 12.25 C 2.55 12.05 2.45 11.95 2.25 11.75 C 2.05 11.55 1.95 11.45 1.75 11.25 C 1.55 11.05 1.4 11 1.25 10.75 C 1.1 10.5 0.9 10.1 1 10 " fill = "rgb(74, 73, 115)" stroke = "rgb(74, 73, 115)" stroke-width = "0"/>
    <path d="M 7 10 C 7.2 9.8 7.85 9.85 8 10 C 8.15 10.15 7.95 10.55 7.75 10.75 C 7.55 10.95 7.15 11.15 7 11 C 6.85 10.85 6.8 10.2 7 10 " fill = "rgb(189, 203, 41)" stroke = "rgb(189, 203, 41)" stroke-width = "0"/>
    <path d="M 8 10 C 8.25 9.85 8.85 9.85 9 10 C 9.15 10.15 8.9 10.5 8.75 10.75 C 8.6 11 8.4 11 8.25 11.25 C 8.1 11.5 8 11.7 8 12 C 8 12.3 8.1 12.5 8.25 12.75 C 8.4 13 8.6 13 8.75 13.25 C 8.9 13.5 8.95 13.65 9 14 C 9.05 14.35 9 14.6 9 15 C 9 15.4 9.2 15.8 9 16 C 8.8 16.2 8.4 16 8 16 C 7.6 16 7.2 16.2 7 16 C 6.8 15.8 7 15.4 7 15 C 7 14.6 7 14.4 7 14 C 7 13.6 7 13.4 7 13 C 7 12.6 7 12.4 7 12 C 7 11.6 6.85 11.25 7 11 C 7.15 10.75 7.55 10.95 7.75 10.75 C 7.95 10.55 7.75 10.15 8 10 " fill = "rgb(123, 203, 24)" stroke = "rgb(123, 203, 24)" stroke-width = "0"/>
    <path d="M 9 10 C 9.25 9.85 9.8 9.8 10 10 C 10.2 10.2 10.15 10.75 10 11 C 9.85 11.25 9.4 11.1 9.25 11.25 C 9.1 11.4 9.15 11.55 9.25 11.75 C 9.35 11.95 9.6 12 9.75 12.25 C 9.9 12.5 10.1 12.9 10 13 C 9.9 13.1 9.5 12.9 9.25 12.75 C 9 12.6 9 12.4 8.75 12.25 C 8.5 12.1 8.1 12.2 8 12 C 7.9 11.8 8.1 11.5 8.25 11.25 C 8.4 11 8.6 11 8.75 10.75 C 8.9 10.5 8.75 10.15 9 10 " fill = "rgb(49, 146, 0)" stroke = "rgb(49, 146, 0)" stroke-width = "0"/>
    <path d="M 10 10 C 10.2 9.8 10.8 9.8 11 10 C 11.2 10.2 11.2 10.8 11 11 C 10.8 11.2 10.2 11.2 10 11 C 9.8 10.8 9.8 10.2 10 10 " fill = "rgb(41, 113, 0)" stroke = "rgb(41, 113, 0)" stroke-width = "0"/>
    <path d="M 11 10 C 11.15 9.85 11.6 10.1 11.75 10.25 C 11.9 10.4 11.9 10.6 11.75 10.75 C 11.6 10.9 11.15 11.15 11 11 C 10.85 10.85 10.85 10.15 11 10 " fill = "rgb(49, 146, 0)" stroke = "rgb(49, 146, 0)" stroke-width = "0"/>
    <path d="M 4 11 C 4.15 10.85 4.8 10.8 5 11 C 5.2 11.2 5.15 11.85 5 12 C 4.85 12.15 4.45 11.95 4.25 11.75 C 4.05 11.55 3.85 11.15 4 11 " fill = "rgb(123, 203, 24)" stroke = "rgb(123, 203, 24)" stroke-width = "0"/>
    <path d="M 5 11 C 5.2 10.8 5.85 10.85 6 11 C 6.15 11.15 5.95 11.55 5.75 11.75 C 5.55 11.95 5.15 12.15 5 12 C 4.85 11.85 4.8 11.2 5 11 " fill = "rgb(49, 146, 0)" stroke = "rgb(49, 146, 0)" stroke-width = "0"/>
    <path d="M 9.25 11.25 C 9.4 11.1 9.65 11.05 10 11 C 10.35 10.95 10.75 10.85 11 11 C 11.25 11.15 11.1 11.5 11.25 11.75 C 11.4 12 11.6 12 11.75 12.25 C 11.9 12.5 12.15 12.85 12 13 C 11.85 13.15 11.4 13 11 13 C 10.6 13 10.25 13.15 10 13 C 9.75 12.85 9.9 12.5 9.75 12.25 C 9.6 12 9.35 11.95 9.25 11.75 C 9.15 11.55 9.1 11.4 9.25 11.25 " fill = "rgb(123, 203, 24)" stroke = "rgb(123, 203, 24)" stroke-width = "0"/>
    <path d="M 6.25 12.25 C 6.5 12.1 6.85 11.85 7 12 C 7.15 12.15 7 12.6 7 13 C 7 13.4 7 13.6 7 14 C 7 14.4 7 14.6 7 15 C 7 15.4 7.15 15.85 7 16 C 6.85 16.15 6.45 15.95 6.25 15.75 C 6.05 15.55 6.1 15.3 6 15 C 5.9 14.7 5.9 14.5 5.75 14.25 C 5.6 14 5.4 14 5.25 13.75 C 5.1 13.5 4.9 13.2 5 13 C 5.1 12.8 5.5 12.9 5.75 12.75 C 6 12.6 6 12.4 6.25 12.25 " fill = "rgb(74, 73, 115)" stroke = "rgb(74, 73, 115)" stroke-width = "0"/>
    <path d="M 8 12 C 8.1 11.9 8.5 12.1 8.75 12.25 C 9 12.4 9 12.6 9.25 12.75 C 9.5 12.9 9.85 12.75 10 13 C 10.15 13.25 10.2 13.8 10 14 C 9.8 14.2 9.25 14.15 9 14 C 8.75 13.85 8.9 13.5 8.75 13.25 C 8.6 13 8.4 13 8.25 12.75 C 8.1 12.5 7.9 12.1 8 12 " fill = "rgb(41, 113, 0)" stroke = "rgb(41, 113, 0)" stroke-width = "0"/>
    <path d="M 15.25 12.25 C 15.45 12.05 15.9 11.9 16 12 C 16.1 12.1 15.95 12.55 15.75 12.75 C 15.55 12.95 15.1 13.1 15 13 C 14.9 12.9 15.05 12.45 15.25 12.25 " fill = "rgb(74, 73, 115)" stroke = "rgb(74, 73, 115)" stroke-width = "0"/>
    <path d="M 13.25 13.25 C 13.45 13.05 13.9 12.9 14 13 C 14.1 13.1 13.95 13.55 13.75 13.75 C 13.55 13.95 13.1 14.1 13 14 C 12.9 13.9 13.05 13.45 13.25 13.25 " fill = "rgb(74, 73, 115)" stroke = "rgb(74, 73, 115)" stroke-width = "0"/>
    <path d="M 9 14 C 9.2 13.8 9.85 13.85 10 14 C 10.15 14.15 9.95 14.55 9.75 14.75 C 9.55 14.95 9.15 15.15 9 15 C 8.85 14.85 8.8 14.2 9 14 " fill = "rgb(49, 146, 0)" stroke = "rgb(49, 146, 0)" stroke-width = "0"/>
    <path d="M 10 14 C 10.25 13.85 10.85 13.85 11 14 C 11.15 14.15 10.9 14.5 10.75 14.75 C 10.6 15 10.45 15.05 10.25 15.25 C 10.05 15.45 10 15.6 9.75 15.75 C 9.5 15.9 9.15 16.15 9 16 C 8.85 15.85 8.85 15.25 9 15 C 9.15 14.75 9.55 14.95 9.75 14.75 C 9.95 14.55 9.75 14.15 10 14 " fill = "rgb(74, 73, 115)" stroke = "rgb(74, 73, 115)" stroke-width = "0"/>
    <path d="M 7 16 C 7.15 15.85 7.6 16 8 16 C 8.4 16 8.85 15.85 9 16 C 9.15 16.15 8.95 16.55 8.75 16.75 C 8.55 16.95 8.3 17 8 17 C 7.7 17 7.45 16.95 7.25 16.75 C 7.05 16.55 6.85 16.15 7 16 " fill = "rgb(49, 146, 0)" stroke = "rgb(49, 146, 0)" stroke-width = "0"/>
</svg>
