<svg version="1.1" baseProfile = "full" width = "29" height = "35" xmlns = "http://www.w3.org/2000/svg">
    <path d="M 0 0 C 0.2 -0.2 0.6 -3.49691e-08 1 0 C 1.4 0 1.6 -3.49691e-08 2 0 C 2.4 0 2.6 -3.49691e-08 3 0 C 3.4 0 3.6 -3.49691e-08 4 0 C 4.4 0 4.6 -3.49691e-08 5 0 C 5.4 0 5.6 -3.49691e-08 6 0 C 6.4 0 6.6 -3.49691e-08 7 0 C 7.4 0 7.6 -3.49691e-08 8 0 C 8.4 0 8.6 -3.49691e-08 9 0 C 9.4 0 9.6 -3.49691e-08 10 0 C 10.4 0 10.6 -3.49691e-08 11 0 C 11.4 0 11.6 -3.49691e-08 12 0 C 12.4 0 12.6 -3.49691e-08 13 0 C 13.4 0 13.6 -3.49691e-08 14 0 C 14.4 0 14.6 -3.49691e-08 15 0 C 15.4 0 15.6 -3.49691e-08 16 0 C 16.4 0 16.6 -3.49691e-08 17 0 C 17.4 0 17.6 -3.49691e-08 18 0 C 18.4 0 18.6 -3.49691e-08 19 0 C 19.4 0 19.6 -3.49691e-08 20 0 C 20.4 0 20.6 -3.49691e-08 21 0 C 21.4 0 21.6 -3.49691e-08 22 0 C 22.4 0 22.6 -3.49691e-08 23 0 C 23.4 0 23.6 -3.49691e-08 24 0 C 24.4 0 24.6 -3.49691e-08 25 0 C 25.4 0 25.6 -3.49691e-08 26 0 C 26.4 0 26.6 -3.49691e-08 27 0 C 27.4 0 27.6 -3.49691e-08 28 0 C 28.4 0 28.8 -0.2 29 0 C 29.2 0.2 29 0.6 29 1 C 29 1.4 29 1.6 29 2 C 29 2.4 29 2.6 29 3 C 29 3.4 29 3.6 29 4 C 29 4.4 29 4.6 29 5 C 29 5.4 29 5.6 29 6 C 29 6.4 29 6.6 29 7 C 29 7.4 29 7.6 29 8 C 29 8.4 29 8.6 29 9 C 29 9.4 29 9.6 29 10 C 29 10.4 29 10.6 29 11 C 29 11.4 29 11.6 29 12 C 29 12.4 29 12.6 29 13 C 29 13.4 29 13.6 29 14 C 29 14.4 29 14.6 29 15 C 29 15.4 29 15.6 29 16 C 29 16.4 29 16.6 29 17 C 29 17.4 29 17.6 29 18 C 29 18.4 29 18.6 29 19 C 29 19.4 29 19.6 29 20 C 29 20.4 29 20.6 29 21 C 29 21.4 29 21.6 29 22 C 29 22.4 29 22.6 29 23 C 29 23.4 29 23.6 29 24 C 29 24.4 29 24.6 29 25 C 29 25.4 29 25.6 29 26 C 29 26.4 29 26.6 29 27 C 29 27.4 29 27.6 29 28 C 29 28.4 29 28.6 29 29 C 29 29.4 29 29.6 29 30 C 29 30.4 29 30.6 29 31 C 29 31.4 29 31.6 29 32 C 29 32.4 29 32.6 29 33 C 29 33.4 29 33.6 29 34 C 29 34.4 29.2 34.8 29 35 C 28.8 35.2 28.4 35 28 35 C 27.6 35 27.4 35 27 35 C 26.6 35 26.4 35 26 35 C 25.6 35 25.4 35 25 35 C 24.6 35 24.4 35 24 35 C 23.6 35 23.4 35 23 35 C 22.6 35 22.4 35 22 35 C 21.6 35 21.4 35 21 35 C 20.6 35 20.4 35 20 35 C 19.6 35 19.4 35 19 35 C 18.6 35 18.4 35 18 35 C 17.6 35 17.4 35 17 35 C 16.6 35 16.4 35 16 35 C 15.6 35 15.4 35 15 35 C 14.6 35 14.4 35 14 35 C 13.6 35 13.4 35 13 35 C 12.6 35 12.4 35 12 35 C 11.6 35 11.4 35 11 35 C 10.6 35 10.4 35 10 35 C 9.6 35 9.4 35 9 35 C 8.6 35 8.4 35 8 35 C 7.6 35 7.4 35 7 35 C 6.6 35 6.4 35 6 35 C 5.6 35 5.4 35 5 35 C 4.6 35 4.4 35 4 35 C 3.6 35 3.4 35 3 35 C 2.6 35 2.4 35 2 35 C 1.6 35 1.4 35 1 35 C 0.6 35 0.2 35.2 0 35 C -0.2 34.8 3.01992e-08 34.4 0 34 C -1.74846e-08 33.6 3.01992e-08 33.4 0 33 C -1.74846e-08 32.6 3.01992e-08 32.4 0 32 C -1.74846e-08 31.6 3.01992e-08 31.4 0 31 C -1.74846e-08 30.6 3.01992e-08 30.4 0 30 C -1.74846e-08 29.6 3.01992e-08 29.4 0 29 C -1.74846e-08 28.6 3.01992e-08 28.4 0 28 C -1.74846e-08 27.6 3.01992e-08 27.4 0 27 C -1.74846e-08 26.6 3.01992e-08 26.4 0 26 C -1.74846e-08 25.6 3.01992e-08 25.4 0 25 C -1.74846e-08 24.6 3.01992e-08 24.4 0 24 C -1.74846e-08 23.6 3.01992e-08 23.4 0 23 C -1.74846e-08 22.6 3.01992e-08 22.4 0 22 C -1.74846e-08 21.6 3.01992e-08 21.4 0 21 C -1.74846e-08 20.6 3.01992e-08 20.4 0 20 C -1.74846e-08 19.6 3.01992e-08 19.4 0 19 C -1.74846e-08 18.6 3.01992e-08 18.4 0 18 C -1.74846e-08 17.6 3.01992e-08 17.4 0 17 C -1.74846e-08 16.6 3.01992e-08 16.4 0 16 C -1.74846e-08 15.6 3.01992e-08 15.4 0 15 C -1.74846e-08 14.6 3.01992e-08 14.4 0 14 C -1.74846e-08 13.6 3.01992e-08 13.4 0 13 C -1.74846e-08 12.6 3.01992e-08 12.4 0 12 C -1.74846e-08 11.6 3.01992e-08 11.4 0 11 C -1.74846e-08 10.6 3.01992e-08 10.4 0 10 C -1.74846e-08 9.6 3.01992e-08 9.4 0 9 C -1.74846e-08 8.6 3.01992e-08 8.4 0 8 C -1.74846e-08 7.6 3.01992e-08 7.4 0 7 C -1.74846e-08 6.6 3.01992e-08 6.4 0 6 C -1.74846e-08 5.6 3.01992e-08 5.4 0 5 C -1.74846e-08 4.6 3.01992e-08 4.4 0 4 C -1.74846e-08 3.6 3.01992e-08 3.4 0 3 C -1.74846e-08 2.6 3.01992e-08 2.4 0 2 C -1.74846e-08 1.6 3.01992e-08 1.4 0 1 C -1.74846e-08 0.6 -0.2 0.2 0 0 " fill = "rgb(235, 0, 235)" stroke = "rgb(235, 0, 235)" stroke-width = "0"/>
    <path d="M 6.25 1.25 C 6.4 1.1 6.6 1.1 6.75 1.25 C 6.9 1.4 6.9 1.7 7 2 C 7.1 2.3 7.1 2.5 7.25 2.75 C 7.4 3 7.55 3.05 7.75 3.25 C 7.95 3.45 8 3.6 8.25 3.75 C 8.5 3.9 8.7 4 9 4 C 9.3 4 9.6 3.9 9.75 3.75 C 9.9 3.6 9.85 3.45 9.75 3.25 C 9.65 3.05 9.4 3 9.25 2.75 C 9.1 2.5 9 2.3 9 2 C 9 1.7 9.1 1.4 9.25 1.25 C 9.4 1.1 9.6 1.1 9.75 1.25 C 9.9 1.4 9.9 1.7 10 2 C 10.1 2.3 10.1 2.5 10.25 2.75 C 10.4 3 10.55 3.05 10.75 3.25 C 10.95 3.45 11 3.6 11.25 3.75 C 11.5 3.9 11.7 3.9 12 4 C 12.3 4.1 12.5 4.1 12.75 4.25 C 13 4.4 13.05 4.55 13.25 4.75 C 13.45 4.95 13.6 5 13.75 5.25 C 13.9 5.5 13.9 5.7 14 6 C 14.1 6.3 14.1 6.5 14.25 6.75 C 14.4 7 14.6 7 14.75 7.25 C 14.9 7.5 14.9 7.7 15 8 C 15.1 8.3 15.1 8.5 15.25 8.75 C 15.4 9 15.6 9 15.75 9.25 C 15.9 9.5 15.9 9.7 16 10 C 16.1 10.3 16.05 10.55 16.25 10.75 C 16.45 10.95 16.7 11 17 11 C 17.3 11 17.5 10.9 17.75 10.75 C 18 10.6 18 10.4 18.25 10.25 C 18.5 10.1 18.7 10.1 19 10 C 19.3 9.9 19.5 9.9 19.75 9.75 C 20 9.6 20 9.4 20.25 9.25 C 20.5 9.1 20.65 9.05 21 9 C 21.35 8.95 21.65 8.95 22 9 C 22.35 9.05 22.5 9.1 22.75 9.25 C 23 9.4 23.05 9.55 23.25 9.75 C 23.45 9.95 23.55 10.05 23.75 10.25 C 23.95 10.45 24.05 10.55 24.25 10.75 C 24.45 10.95 24.55 11.05 24.75 11.25 C 24.95 11.45 25.05 11.55 25.25 11.75 C 25.45 11.95 25.55 12.05 25.75 12.25 C 25.95 12.45 26.05 12.55 26.25 12.75 C 26.45 12.95 26.6 13 26.75 13.25 C 26.9 13.5 26.95 13.65 27 14 C 27.05 14.35 27 14.6 27 15 C 27 15.4 27.05 15.65 27 16 C 26.95 16.35 26.9 16.5 26.75 16.75 C 26.6 17 26.45 17.05 26.25 17.25 C 26.05 17.45 26 17.6 25.75 17.75 C 25.5 17.9 25.35 17.95 25 18 C 24.65 18.05 24.35 18.05 24 18 C 23.65 17.95 23.5 17.9 23.25 17.75 C 23 17.6 22.95 17.45 22.75 17.25 C 22.55 17.05 22.45 16.95 22.25 16.75 C 22.05 16.55 21.95 16.45 21.75 16.25 C 21.55 16.05 21.45 15.95 21.25 15.75 C 21.05 15.55 20.95 15.35 20.75 15.25 C 20.55 15.15 20.45 15.15 20.25 15.25 C 20.05 15.35 19.95 15.55 19.75 15.75 C 19.55 15.95 19.35 16.05 19.25 16.25 C 19.15 16.45 19.15 16.55 19.25 16.75 C 19.35 16.95 19.6 17 19.75 17.25 C 19.9 17.5 19.9 17.7 20 18 C 20.1 18.3 20.1 18.5 20.25 18.75 C 20.4 19 20.6 19 20.75 19.25 C 20.9 19.5 20.9 19.7 21 20 C 21.1 20.3 21.1 20.5 21.25 20.75 C 21.4 21 21.6 21 21.75 21.25 C 21.9 21.5 21.9 21.7 22 22 C 22.1 22.3 22.1 22.5 22.25 22.75 C 22.4 23 22.55 23.05 22.75 23.25 C 22.95 23.45 23.05 23.65 23.25 23.75 C 23.45 23.85 23.55 23.85 23.75 23.75 C 23.95 23.65 24 23.4 24.25 23.25 C 24.5 23.1 24.65 23.05 25 23 C 25.35 22.95 25.65 22.95 26 23 C 26.35 23.05 26.5 23.1 26.75 23.25 C 27 23.4 27.05 23.55 27.25 23.75 C 27.45 23.95 27.6 24 27.75 24.25 C 27.9 24.5 27.95 24.65 28 25 C 28.05 25.35 28 25.6 28 26 C 28 26.4 28.05 26.65 28 27 C 27.95 27.35 27.9 27.5 27.75 27.75 C 27.6 28 27.45 28.05 27.25 28.25 C 27.05 28.45 27 28.6 26.75 28.75 C 26.5 28.9 26.3 28.9 26 29 C 25.7 29.1 25.5 29.1 25.25 29.25 C 25 29.4 25 29.6 24.75 29.75 C 24.5 29.9 24.3 29.9 24 30 C 23.7 30.1 23.5 30.1 23.25 30.25 C 23 30.4 23 30.6 22.75 30.75 C 22.5 30.9 22.35 30.95 22 31 C 21.65 31.05 21.35 31.05 21 31 C 20.65 30.95 20.5 30.9 20.25 30.75 C 20 30.6 19.95 30.45 19.75 30.25 C 19.55 30.05 19.4 30 19.25 29.75 C 19.1 29.5 19.1 29.3 19 29 C 18.9 28.7 18.9 28.5 18.75 28.25 C 18.6 28 18.4 28 18.25 27.75 C 18.1 27.5 18.1 27.3 18 27 C 17.9 26.7 17.95 26.45 17.75 26.25 C 17.55 26.05 17.3 26 17 26 C 16.7 26 16.5 26.1 16.25 26.25 C 16 26.4 15.95 26.55 15.75 26.75 C 15.55 26.95 15.4 27 15.25 27.25 C 15.1 27.5 15 27.7 15 28 C 15 28.3 15.1 28.5 15.25 28.75 C 15.4 29 15.6 29 15.75 29.25 C 15.9 29.5 15.95 29.65 16 30 C 16.05 30.35 16 30.6 16 31 C 16 31.4 16.05 31.65 16 32 C 15.95 32.35 15.9 32.5 15.75 32.75 C 15.6 33 15.45 33.05 15.25 33.25 C 15.05 33.45 15 33.6 14.75 33.75 C 14.5 33.9 14.35 33.95 14 34 C 13.65 34.05 13.4 34 13 34 C 12.6 34 12.35 34.05 12 34 C 11.65 33.95 11.5 33.9 11.25 33.75 C 11 33.6 10.95 33.45 10.75 33.25 C 10.55 33.05 10.4 33 10.25 32.75 C 10.1 32.5 10.1 32.3 10 32 C 9.9 31.7 9.9 31.5 9.75 31.25 C 9.6 31 9.4 31 9.25 30.75 C 9.1 30.5 9.1 30.3 9 30 C 8.9 29.7 8.9 29.5 8.75 29.25 C 8.6 29 8.4 29 8.25 28.75 C 8.1 28.5 8 28.3 8 28 C 8 27.7 8.1 27.5 8.25 27.25 C 8.4 27 8.55 26.95 8.75 26.75 C 8.95 26.55 9.05 26.45 9.25 26.25 C 9.45 26.05 9.55 25.95 9.75 25.75 C 9.95 25.55 10.05 25.45 10.25 25.25 C 10.45 25.05 10.55 24.95 10.75 24.75 C 10.95 24.55 11.05 24.45 11.25 24.25 C 11.45 24.05 11.65 23.95 11.75 23.75 C 11.85 23.55 11.85 23.45 11.75 23.25 C 11.65 23.05 11.4 23 11.25 22.75 C 11.1 22.5 11.1 22.3 11 22 C 10.9 21.7 10.95 21.45 10.75 21.25 C 10.55 21.05 10.3 21 10 21 C 9.7 21 9.5 21.1 9.25 21.25 C 9 21.4 8.95 21.55 8.75 21.75 C 8.55 21.95 8.45 22.05 8.25 22.25 C 8.05 22.45 8 22.6 7.75 22.75 C 7.5 22.9 7.35 22.95 7 23 C 6.65 23.05 6.4 23 6 23 C 5.6 23 5.35 23.05 5 23 C 4.65 22.95 4.5 22.9 4.25 22.75 C 4 22.6 3.95 22.45 3.75 22.25 C 3.55 22.05 3.4 22 3.25 21.75 C 3.1 21.5 3.1 21.3 3 21 C 2.9 20.7 2.9 20.5 2.75 20.25 C 2.6 20 2.4 20 2.25 19.75 C 2.1 19.5 2.1 19.3 2 19 C 1.9 18.7 1.9 18.5 1.75 18.25 C 1.6 18 1.4 18 1.25 17.75 C 1.1 17.5 1.05 17.35 1 17 C 0.95 16.65 0.95 16.35 1 16 C 1.05 15.65 1.1 15.5 1.25 15.25 C 1.4 15 1.55 14.95 1.75 14.75 C 1.95 14.55 2 14.4 2.25 14.25 C 2.5 14.1 2.65 14.05 3 14 C 3.35 13.95 3.65 13.95 4 14 C 4.35 14.05 4.5 14.1 4.75 14.25 C 5 14.4 5.05 14.55 5.25 14.75 C 5.45 14.95 5.6 15 5.75 15.25 C 5.9 15.5 5.9 15.7 6 16 C 6.1 16.3 6.1 16.6 6.25 16.75 C 6.4 16.9 6.55 16.85 6.75 16.75 C 6.95 16.65 7.05 16.45 7.25 16.25 C 7.45 16.05 7.65 15.95 7.75 15.75 C 7.85 15.55 7.85 15.45 7.75 15.25 C 7.65 15.05 7.4 15 7.25 14.75 C 7.1 14.5 7.1 14.3 7 14 C 6.9 13.7 6.9 13.5 6.75 13.25 C 6.6 13 6.4 13 6.25 12.75 C 6.1 12.5 6.1 12.3 6 12 C 5.9 11.7 5.9 11.5 5.75 11.25 C 5.6 11 5.4 11 5.25 10.75 C 5.1 10.5 5.05 10.35 5 10 C 4.95 9.65 5 9.4 5 9 C 5 8.6 5 8.4 5 8 C 5 7.6 5 7.4 5 7 C 5 6.6 5.05 6.35 5 6 C 4.95 5.65 4.9 5.5 4.75 5.25 C 4.6 5 4.4 5 4.25 4.75 C 4.1 4.5 4 4.3 4 4 C 4 3.7 4.1 3.4 4.25 3.25 C 4.4 3.1 4.6 3.1 4.75 3.25 C 4.9 3.4 4.9 3.7 5 4 C 5.1 4.3 5.05 4.55 5.25 4.75 C 5.45 4.95 5.7 5 6 5 C 6.3 5 6.55 4.95 6.75 4.75 C 6.95 4.55 7 4.3 7 4 C 7 3.7 6.9 3.5 6.75 3.25 C 6.6 3 6.4 3 6.25 2.75 C 6.1 2.5 6 2.3 6 2 C 6 1.7 6.1 1.4 6.25 1.25 " fill = "rgb(8, 8, 8)" stroke = "rgb(8, 8, 8)" stroke-width = "0"/>
    <path d="M 7.25 5.25 C 7.45 5.05 7.8 4.9 8 5 C 8.2 5.1 8.1 5.5 8.25 5.75 C 8.4 6 8.6 6 8.75 6.25 C 8.9 6.5 8.9 6.7 9 7 C 9.1 7.3 9.1 7.5 9.25 7.75 C 9.4 8 9.6 8 9.75 8.25 C 9.9 8.5 9.9 8.7 10 9 C 10.1 9.3 10.1 9.5 10.25 9.75 C 10.4 10 10.6 10 10.75 10.25 C 10.9 10.5 10.9 10.7 11 11 C 11.1 11.3 11.1 11.5 11.25 11.75 C 11.4 12 11.6 12 11.75 12.25 C 11.9 12.5 11.95 12.65 12 13 C 12.05 13.35 12.2 13.8 12 14 C 11.8 14.2 11.2 14.2 11 14 C 10.8 13.8 11.05 13.35 11 13 C 10.95 12.65 10.9 12.5 10.75 12.25 C 10.6 12 10.4 12 10.25 11.75 C 10.1 11.5 10.1 11.3 10 11 C 9.9 10.7 9.9 10.5 9.75 10.25 C 9.6 10 9.4 10 9.25 9.75 C 9.1 9.5 9.1 9.3 9 9 C 8.9 8.7 8.9 8.5 8.75 8.25 C 8.6 8 8.4 8 8.25 7.75 C 8.1 7.5 8.1 7.3 8 7 C 7.9 6.7 7.95 6.45 7.75 6.25 C 7.55 6.05 7.1 6.2 7 6 C 6.9 5.8 7.05 5.45 7.25 5.25 " fill = "rgb(16, 160, 32)" stroke = "rgb(16, 160, 32)" stroke-width = "0"/>
    <path d="M 8 5 C 8.15 4.85 8.6 5 9 5 C 9.4 5 9.75 4.85 10 5 C 10.25 5.15 10.1 5.5 10.25 5.75 C 10.4 6 10.6 6 10.75 6.25 C 10.9 6.5 10.9 6.7 11 7 C 11.1 7.3 11.1 7.5 11.25 7.75 C 11.4 8 11.6 8 11.75 8.25 C 11.9 8.5 11.95 8.65 12 9 C 12.05 9.35 12 9.6 12 10 C 12 10.4 11.95 10.65 12 11 C 12.05 11.35 12.05 11.55 12.25 11.75 C 12.45 11.95 12.7 12 13 12 C 13.3 12 13.55 11.95 13.75 11.75 C 13.95 11.55 14 11.3 14 11 C 14 10.7 13.95 10.45 13.75 10.25 C 13.55 10.05 13.15 10.25 13 10 C 12.85 9.75 12.95 9.35 13 9 C 13.05 8.65 13.05 8.45 13.25 8.25 C 13.45 8.05 13.85 7.85 14 8 C 14.15 8.15 13.95 8.65 14 9 C 14.05 9.35 14.05 9.55 14.25 9.75 C 14.45 9.95 14.85 9.75 15 10 C 15.15 10.25 15.05 10.65 15 11 C 14.95 11.35 14.9 11.5 14.75 11.75 C 14.6 12 14.4 12 14.25 12.25 C 14.1 12.5 14 12.7 14 13 C 14 13.3 14.1 13.6 14.25 13.75 C 14.4 13.9 14.6 13.9 14.75 13.75 C 14.9 13.6 14.9 13.3 15 13 C 15.1 12.7 15.05 12.45 15.25 12.25 C 15.45 12.05 15.85 11.85 16 12 C 16.15 12.15 16 12.6 16 13 C 16 13.4 16.15 13.75 16 14 C 15.85 14.25 15.45 14.05 15.25 14.25 C 15.05 14.45 15.1 14.7 15 15 C 14.9 15.3 14.95 15.55 14.75 15.75 C 14.55 15.95 14.15 16.15 14 16 C 13.85 15.85 14.05 15.35 14 15 C 13.95 14.65 13.95 14.45 13.75 14.25 C 13.55 14.05 13.35 14.05 13 14 C 12.65 13.95 12.2 14.2 12 14 C 11.8 13.8 12.05 13.35 12 13 C 11.95 12.65 11.9 12.5 11.75 12.25 C 11.6 12 11.4 12 11.25 11.75 C 11.1 11.5 11.1 11.3 11 11 C 10.9 10.7 10.9 10.5 10.75 10.25 C 10.6 10 10.4 10 10.25 9.75 C 10.1 9.5 10.1 9.3 10 9 C 9.9 8.7 9.9 8.5 9.75 8.25 C 9.6 8 9.4 8 9.25 7.75 C 9.1 7.5 9.1 7.3 9 7 C 8.9 6.7 8.9 6.5 8.75 6.25 C 8.6 6 8.4 6 8.25 5.75 C 8.1 5.5 7.85 5.15 8 5 " fill = "rgb(48, 216, 56)" stroke = "rgb(48, 216, 56)" stroke-width = "0"/>
    <path d="M 10 5 C 10.15 4.85 10.6 5 11 5 C 11.4 5 11.8 4.8 12 5 C 12.2 5.2 12 5.6 12 6 C 12 6.4 11.95 6.65 12 7 C 12.05 7.35 12.1 7.6 12.25 7.75 C 12.4 7.9 12.6 7.9 12.75 7.75 C 12.9 7.6 12.8 7.1 13 7 C 13.2 6.9 13.55 7.05 13.75 7.25 C 13.95 7.45 14.1 7.8 14 8 C 13.9 8.2 13.45 8.05 13.25 8.25 C 13.05 8.45 13.05 8.65 13 9 C 12.95 9.35 13.2 9.8 13 10 C 12.8 10.2 12.2 10.2 12 10 C 11.8 9.8 12.05 9.35 12 9 C 11.95 8.65 11.9 8.5 11.75 8.25 C 11.6 8 11.4 8 11.25 7.75 C 11.1 7.5 11.1 7.3 11 7 C 10.9 6.7 10.9 6.5 10.75 6.25 C 10.6 6 10.4 6 10.25 5.75 C 10.1 5.5 9.85 5.15 10 5 " fill = "rgb(16, 160, 32)" stroke = "rgb(16, 160, 32)" stroke-width = "0"/>
    <path d="M 12 5 C 12.15 4.85 12.55 5.05 12.75 5.25 C 12.95 5.45 13.15 5.85 13 6 C 12.85 6.15 12.2 6.2 12 6 C 11.8 5.8 11.85 5.15 12 5 " fill = "rgb(8, 104, 16)" stroke = "rgb(8, 104, 16)" stroke-width = "0"/>
    <path d="M 6.25 6.25 C 6.45 6.05 6.85 5.85 7 6 C 7.15 6.15 7.2 6.8 7 7 C 6.8 7.2 6.15 7.15 6 7 C 5.85 6.85 6.05 6.45 6.25 6.25 " fill = "rgb(8, 104, 16)" stroke = "rgb(8, 104, 16)" stroke-width = "0"/>
    <path d="M 7 6 C 7.15 5.85 7.55 6.05 7.75 6.25 C 7.95 6.45 7.9 6.7 8 7 C 8.1 7.3 8.1 7.5 8.25 7.75 C 8.4 8 8.6 8 8.75 8.25 C 8.9 8.5 8.9 8.7 9 9 C 9.1 9.3 9.1 9.5 9.25 9.75 C 9.4 10 9.6 10 9.75 10.25 C 9.9 10.5 9.9 10.7 10 11 C 10.1 11.3 10.1 11.5 10.25 11.75 C 10.4 12 10.6 12 10.75 12.25 C 10.9 12.5 10.95 12.65 11 13 C 11.05 13.35 11 13.6 11 14 C 11 14.4 11.15 14.85 11 15 C 10.85 15.15 10.45 14.95 10.25 14.75 C 10.05 14.55 10.05 14.35 10 14 C 9.95 13.65 10.05 13.35 10 13 C 9.95 12.65 9.95 12.45 9.75 12.25 C 9.55 12.05 9.35 12.05 9 12 C 8.65 11.95 8.2 12.2 8 12 C 7.8 11.8 8.05 11.35 8 11 C 7.95 10.65 7.9 10.5 7.75 10.25 C 7.6 10 7.4 10 7.25 9.75 C 7.1 9.5 7.05 9.35 7 9 C 6.95 8.65 7 8.4 7 8 C 7 7.6 7 7.4 7 7 C 7 6.6 6.85 6.15 7 6 " fill = "rgb(48, 216, 56)" stroke = "rgb(48, 216, 56)" stroke-width = "0"/>
    <path d="M 12 6 C 12.2 5.8 12.8 5.8 13 6 C 13.2 6.2 13.05 6.65 13 7 C 12.95 7.35 12.9 7.6 12.75 7.75 C 12.6 7.9 12.4 7.9 12.25 7.75 C 12.1 7.6 12.05 7.35 12 7 C 11.95 6.65 11.8 6.2 12 6 " fill = "rgb(48, 216, 56)" stroke = "rgb(48, 216, 56)" stroke-width = "0"/>
    <path d="M 6 7 C 6.2 6.8 6.8 6.8 7 7 C 7.2 7.2 7 7.6 7 8 C 7 8.4 6.95 8.65 7 9 C 7.05 9.35 7.1 9.5 7.25 9.75 C 7.4 10 7.6 10 7.75 10.25 C 7.9 10.5 7.95 10.65 8 11 C 8.05 11.35 8.05 11.65 8 12 C 7.95 12.35 7.9 12.6 7.75 12.75 C 7.6 12.9 7.4 12.9 7.25 12.75 C 7.1 12.6 7.05 12.35 7 12 C 6.95 11.65 7.05 11.35 7 11 C 6.95 10.65 6.95 10.45 6.75 10.25 C 6.55 10.05 6.15 10.25 6 10 C 5.85 9.75 6 9.4 6 9 C 6 8.6 6 8.4 6 8 C 6 7.6 5.8 7.2 6 7 " fill = "rgb(16, 160, 32)" stroke = "rgb(16, 160, 32)" stroke-width = "0"/>
    <path d="M 14 9 C 14.1 8.9 14.55 9.05 14.75 9.25 C 14.95 9.45 15.1 9.9 15 10 C 14.9 10.1 14.45 9.95 14.25 9.75 C 14.05 9.55 13.9 9.1 14 9 " fill = "rgb(16, 160, 32)" stroke = "rgb(16, 160, 32)" stroke-width = "0"/>
    <path d="M 6 10 C 6.1 9.9 6.55 10.05 6.75 10.25 C 6.95 10.45 7.1 10.9 7 11 C 6.9 11.1 6.45 10.95 6.25 10.75 C 6.05 10.55 5.9 10.1 6 10 " fill = "rgb(8, 104, 16)" stroke = "rgb(8, 104, 16)" stroke-width = "0"/>
    <path d="M 12 10 C 12.2 9.8 12.65 9.95 13 10 C 13.35 10.05 13.55 10.05 13.75 10.25 C 13.95 10.45 14 10.7 14 11 C 14 11.3 13.95 11.55 13.75 11.75 C 13.55 11.95 13.3 12 13 12 C 12.7 12 12.45 11.95 12.25 11.75 C 12.05 11.55 12.05 11.35 12 11 C 11.95 10.65 11.8 10.2 12 10 " fill = "rgb(8, 8, 8)" stroke = "rgb(8, 8, 8)" stroke-width = "0"/>
    <path d="M 20.25 10.25 C 20.5 10.1 20.65 10.05 21 10 C 21.35 9.95 21.65 9.95 22 10 C 22.35 10.05 22.55 10.05 22.75 10.25 C 22.95 10.45 23 10.7 23 11 C 23 11.3 22.9 11.6 22.75 11.75 C 22.6 11.9 22.45 11.85 22.25 11.75 C 22.05 11.65 22 11.4 21.75 11.25 C 21.5 11.1 21.3 11 21 11 C 20.7 11 20.5 11.1 20.25 11.25 C 20 11.4 20 11.6 19.75 11.75 C 19.5 11.9 19.35 11.95 19 12 C 18.65 12.05 18.15 12.15 18 12 C 17.85 11.85 18.05 11.45 18.25 11.25 C 18.45 11.05 18.7 11.1 19 11 C 19.3 10.9 19.5 10.9 19.75 10.75 C 20 10.6 20 10.4 20.25 10.25 " fill = "rgb(48, 216, 56)" stroke = "rgb(48, 216, 56)" stroke-width = "0"/>
    <path d="M 15 11 C 15.2 10.9 15.55 11.05 15.75 11.25 C 15.95 11.45 16.1 11.8 16 12 C 15.9 12.2 15.45 12.05 15.25 12.25 C 15.05 12.45 15.1 12.7 15 13 C 14.9 13.3 14.9 13.6 14.75 13.75 C 14.6 13.9 14.4 13.9 14.25 13.75 C 14.1 13.6 14 13.3 14 13 C 14 12.7 14.1 12.5 14.25 12.25 C 14.4 12 14.6 12 14.75 11.75 C 14.9 11.5 14.8 11.1 15 11 " fill = "rgb(16, 160, 32)" stroke = "rgb(16, 160, 32)" stroke-width = "0"/>
    <path d="M 20.25 11.25 C 20.5 11.1 20.7 11 21 11 C 21.3 11 21.5 11.1 21.75 11.25 C 22 11.4 22.05 11.65 22.25 11.75 C 22.45 11.85 22.6 11.9 22.75 11.75 C 22.9 11.6 22.8 11.1 23 11 C 23.2 10.9 23.5 11.1 23.75 11.25 C 24 11.4 24.05 11.55 24.25 11.75 C 24.45 11.95 24.55 12.05 24.75 12.25 C 24.95 12.45 25.05 12.55 25.25 12.75 C 25.45 12.95 25.6 13 25.75 13.25 C 25.9 13.5 26.1 13.8 26 14 C 25.9 14.2 25.5 14.1 25.25 14.25 C 25 14.4 24.95 14.65 24.75 14.75 C 24.55 14.85 24.45 14.85 24.25 14.75 C 24.05 14.65 23.95 14.45 23.75 14.25 C 23.55 14.05 23.45 13.95 23.25 13.75 C 23.05 13.55 22.95 13.45 22.75 13.25 C 22.55 13.05 22.45 12.95 22.25 12.75 C 22.05 12.55 22 12.4 21.75 12.25 C 21.5 12.1 21.3 12 21 12 C 20.7 12 20.5 12.1 20.25 12.25 C 20 12.4 19.95 12.55 19.75 12.75 C 19.55 12.95 19.35 13.05 19.25 13.25 C 19.15 13.45 19.1 13.6 19.25 13.75 C 19.4 13.9 19.9 13.8 20 14 C 20.1 14.2 19.9 14.5 19.75 14.75 C 19.6 15 19.45 15.05 19.25 15.25 C 19.05 15.45 19 15.6 18.75 15.75 C 18.5 15.9 18.1 16.1 18 16 C 17.9 15.9 18.1 15.5 18.25 15.25 C 18.4 15 18.65 14.95 18.75 14.75 C 18.85 14.55 18.85 14.35 18.75 14.25 C 18.65 14.15 18.45 14.15 18.25 14.25 C 18.05 14.35 17.95 14.65 17.75 14.75 C 17.55 14.85 17.4 14.9 17.25 14.75 C 17.1 14.6 17.1 14.3 17 14 C 16.9 13.7 16.95 13.45 16.75 13.25 C 16.55 13.05 16.15 13.25 16 13 C 15.85 12.75 15.8 12.2 16 12 C 16.2 11.8 16.75 11.85 17 12 C 17.25 12.15 17.05 12.55 17.25 12.75 C 17.45 12.95 17.7 13 18 13 C 18.3 13 18.55 12.95 18.75 12.75 C 18.95 12.55 18.8 12.2 19 12 C 19.2 11.8 19.5 11.9 19.75 11.75 C 20 11.6 20 11.4 20.25 11.25 " fill = "rgb(8, 104, 16)" stroke = "rgb(8, 104, 16)" stroke-width = "0"/>
    <path d="M 17 12 C 17.15 11.85 17.6 12 18 12 C 18.4 12 18.85 11.85 19 12 C 19.15 12.15 18.95 12.55 18.75 12.75 C 18.55 12.95 18.3 13 18 13 C 17.7 13 17.45 12.95 17.25 12.75 C 17.05 12.55 16.85 12.15 17 12 " fill = "rgb(16, 160, 32)" stroke = "rgb(16, 160, 32)" stroke-width = "0"/>
    <path d="M 20.25 12.25 C 20.5 12.1 20.7 12 21 12 C 21.3 12 21.5 12.1 21.75 12.25 C 22 12.4 22.05 12.55 22.25 12.75 C 22.45 12.95 22.55 13.05 22.75 13.25 C 22.95 13.45 23.05 13.55 23.25 13.75 C 23.45 13.95 23.55 14.05 23.75 14.25 C 23.95 14.45 24.05 14.65 24.25 14.75 C 24.45 14.85 24.55 14.85 24.75 14.75 C 24.95 14.65 25 14.4 25.25 14.25 C 25.5 14.1 25.85 13.85 26 14 C 26.15 14.15 26.15 14.75 26 15 C 25.85 15.25 25.45 15.05 25.25 15.25 C 25.05 15.45 25.05 15.65 25 16 C 24.95 16.35 25.2 16.8 25 17 C 24.8 17.2 24.25 17.15 24 17 C 23.75 16.85 23.9 16.5 23.75 16.25 C 23.6 16 23.45 15.95 23.25 15.75 C 23.05 15.55 22.95 15.45 22.75 15.25 C 22.55 15.05 22.45 14.95 22.25 14.75 C 22.05 14.55 22 14.4 21.75 14.25 C 21.5 14.1 21.35 14.05 21 14 C 20.65 13.95 20.35 14.05 20 14 C 19.65 13.95 19.4 13.9 19.25 13.75 C 19.1 13.6 19.15 13.45 19.25 13.25 C 19.35 13.05 19.55 12.95 19.75 12.75 C 19.95 12.55 20 12.4 20.25 12.25 " fill = "rgb(16, 160, 32)" stroke = "rgb(16, 160, 32)" stroke-width = "0"/>
    <path d="M 23.25 12.25 C 23.35 12.15 23.55 12.15 23.75 12.25 C 23.95 12.35 24.05 12.55 24.25 12.75 C 24.45 12.95 24.65 13.05 24.75 13.25 C 24.85 13.45 24.85 13.65 24.75 13.75 C 24.65 13.85 24.45 13.85 24.25 13.75 C 24.05 13.65 23.95 13.45 23.75 13.25 C 23.55 13.05 23.35 12.95 23.25 12.75 C 23.15 12.55 23.15 12.35 23.25 12.25 " fill = "rgb(16, 160, 32)" stroke = "rgb(16, 160, 32)" stroke-width = "0"/>
    <path d="M 16 13 C 16.15 12.85 16.55 13.05 16.75 13.25 C 16.95 13.45 16.9 13.7 17 14 C 17.1 14.3 17.1 14.6 17.25 14.75 C 17.4 14.9 17.55 14.85 17.75 14.75 C 17.95 14.65 18.05 14.35 18.25 14.25 C 18.45 14.15 18.65 14.15 18.75 14.25 C 18.85 14.35 18.85 14.55 18.75 14.75 C 18.65 14.95 18.4 15 18.25 15.25 C 18.1 15.5 18.05 15.65 18 16 C 17.95 16.35 18.05 16.65 18 17 C 17.95 17.35 17.9 17.6 17.75 17.75 C 17.6 17.9 17.4 17.9 17.25 17.75 C 17.1 17.6 17.1 17.3 17 17 C 16.9 16.7 16.9 16.5 16.75 16.25 C 16.6 16 16.4 16 16.25 15.75 C 16.1 15.5 16.05 15.35 16 15 C 15.95 14.65 16 14.4 16 14 C 16 13.6 15.85 13.15 16 13 " fill = "rgb(16, 160, 32)" stroke = "rgb(16, 160, 32)" stroke-width = "0"/>
    <path d="M 8.25 14.25 C 8.4 14.1 8.65 14.05 9 14 C 9.35 13.95 9.75 13.85 10 14 C 10.25 14.15 10.05 14.55 10.25 14.75 C 10.45 14.95 10.85 14.75 11 15 C 11.15 15.25 10.95 15.65 11 16 C 11.05 16.35 11.05 16.55 11.25 16.75 C 11.45 16.95 11.8 16.8 12 17 C 12.2 17.2 12.05 17.55 12.25 17.75 C 12.45 17.95 12.8 17.8 13 18 C 13.2 18.2 13.05 18.55 13.25 18.75 C 13.45 18.95 13.85 18.75 14 19 C 14.15 19.25 13.95 19.65 14 20 C 14.05 20.35 14.1 20.5 14.25 20.75 C 14.4 21 14.6 21 14.75 21.25 C 14.9 21.5 14.9 21.7 15 22 C 15.1 22.3 15.1 22.5 15.25 22.75 C 15.4 23 15.6 23 15.75 23.25 C 15.9 23.5 16 23.7 16 24 C 16 24.3 15.9 24.5 15.75 24.75 C 15.6 25 15.45 25.05 15.25 25.25 C 15.05 25.45 14.95 25.55 14.75 25.75 C 14.55 25.95 14.45 26.05 14.25 26.25 C 14.05 26.45 13.95 26.55 13.75 26.75 C 13.55 26.95 13.4 27 13.25 27.25 C 13.1 27.5 13 27.7 13 28 C 13 28.3 13.1 28.5 13.25 28.75 C 13.4 29 13.55 29.05 13.75 29.25 C 13.95 29.45 14 29.6 14.25 29.75 C 14.5 29.9 14.85 29.75 15 30 C 15.15 30.25 15 30.6 15 31 C 15 31.4 15.15 31.75 15 32 C 14.85 32.25 14.45 32.05 14.25 32.25 C 14.05 32.45 14.25 32.85 14 33 C 13.75 33.15 13.2 33.2 13 33 C 12.8 32.8 13.05 32.35 13 32 C 12.95 31.65 12.9 31.5 12.75 31.25 C 12.6 31 12.4 31 12.25 30.75 C 12.1 30.5 12.1 30.3 12 30 C 11.9 29.7 11.9 29.5 11.75 29.25 C 11.6 29 11.4 29 11.25 28.75 C 11.1 28.5 11 28.3 11 28 C 11 27.7 11.1 27.5 11.25 27.25 C 11.4 27 11.55 26.95 11.75 26.75 C 11.95 26.55 12.05 26.45 12.25 26.25 C 12.45 26.05 12.55 25.95 12.75 25.75 C 12.95 25.55 13.05 25.45 13.25 25.25 C 13.45 25.05 13.6 25 13.75 24.75 C 13.9 24.5 13.95 24.35 14 24 C 14.05 23.65 14.05 23.35 14 23 C 13.95 22.65 13.95 22.45 13.75 22.25 C 13.55 22.05 13.35 22.05 13 22 C 12.65 21.95 12.25 22.15 12 22 C 11.75 21.85 11.9 21.5 11.75 21.25 C 11.6 21 11.4 21 11.25 20.75 C 11.1 20.5 11.1 20.3 11 20 C 10.9 19.7 10.9 19.5 10.75 19.25 C 10.6 19 10.4 19 10.25 18.75 C 10.1 18.5 10.1 18.3 10 18 C 9.9 17.7 9.9 17.5 9.75 17.25 C 9.6 17 9.4 17 9.25 16.75 C 9.1 16.5 9.1 16.3 9 16 C 8.9 15.7 8.9 15.5 8.75 15.25 C 8.6 15 8.35 14.95 8.25 14.75 C 8.15 14.55 8.1 14.4 8.25 14.25 " fill = "rgb(16, 160, 32)" stroke = "rgb(16, 160, 32)" stroke-width = "0"/>
    <path d="M 11 14 C 11.2 13.8 11.8 13.8 12 14 C 12.2 14.2 12.2 14.8 12 15 C 11.8 15.2 11.2 15.2 11 15 C 10.8 14.8 10.8 14.2 11 14 " fill = "rgb(16, 72, 24)" stroke = "rgb(16, 72, 24)" stroke-width = "0"/>
    <path d="M 12 14 C 12.2 13.8 12.75 13.85 13 14 C 13.25 14.15 13.05 14.55 13.25 14.75 C 13.45 14.95 13.85 14.75 14 15 C 14.15 15.25 14 15.6 14 16 C 14 16.4 14 16.6 14 17 C 14 17.4 14.2 17.8 14 18 C 13.8 18.2 13.25 18.15 13 18 C 12.75 17.85 12.95 17.45 12.75 17.25 C 12.55 17.05 12.15 17.25 12 17 C 11.85 16.75 12 16.4 12 16 C 12 15.6 12 15.4 12 15 C 12 14.6 11.8 14.2 12 14 " fill = "rgb(8, 8, 8)" stroke = "rgb(8, 8, 8)" stroke-width = "0"/>
    <path d="M 13 14 C 13.1 13.9 13.55 14.05 13.75 14.25 C 13.95 14.45 14.1 14.9 14 15 C 13.9 15.1 13.45 14.95 13.25 14.75 C 13.05 14.55 12.9 14.1 13 14 " fill = "rgb(16, 72, 24)" stroke = "rgb(16, 72, 24)" stroke-width = "0"/>
    <path d="M 15.25 14.25 C 15.45 14.05 15.85 13.85 16 14 C 16.15 14.15 15.95 14.65 16 15 C 16.05 15.35 16.1 15.5 16.25 15.75 C 16.4 16 16.6 16 16.75 16.25 C 16.9 16.5 16.9 16.7 17 17 C 17.1 17.3 17.1 17.6 17.25 17.75 C 17.4 17.9 17.6 17.9 17.75 17.75 C 17.9 17.6 17.8 17.1 18 17 C 18.2 16.9 18.55 17.05 18.75 17.25 C 18.95 17.45 19.1 17.8 19 18 C 18.9 18.2 18.45 18.05 18.25 18.25 C 18.05 18.45 18 18.7 18 19 C 18 19.3 18.1 19.6 18.25 19.75 C 18.4 19.9 18.6 19.9 18.75 19.75 C 18.9 19.6 18.8 19.1 19 19 C 19.2 18.9 19.55 19.05 19.75 19.25 C 19.95 19.45 20.1 19.8 20 20 C 19.9 20.2 19.45 20.05 19.25 20.25 C 19.05 20.45 19 20.7 19 21 C 19 21.3 19.1 21.6 19.25 21.75 C 19.4 21.9 19.6 21.9 19.75 21.75 C 19.9 21.6 19.8 21.1 20 21 C 20.2 20.9 20.55 21.05 20.75 21.25 C 20.95 21.45 21.1 21.8 21 22 C 20.9 22.2 20.45 22.05 20.25 22.25 C 20.05 22.45 20 22.7 20 23 C 20 23.3 20.1 23.6 20.25 23.75 C 20.4 23.9 20.6 23.9 20.75 23.75 C 20.9 23.6 20.8 23.1 21 23 C 21.2 22.9 21.55 23.05 21.75 23.25 C 21.95 23.45 22.1 23.8 22 24 C 21.9 24.2 21.45 24.05 21.25 24.25 C 21.05 24.45 21 24.7 21 25 C 21 25.3 21.1 25.5 21.25 25.75 C 21.4 26 21.55 26.05 21.75 26.25 C 21.95 26.45 22 26.6 22.25 26.75 C 22.5 26.9 22.7 27 23 27 C 23.3 27 23.5 26.9 23.75 26.75 C 24 26.6 24 26.4 24.25 26.25 C 24.5 26.1 24.7 26.1 25 26 C 25.3 25.9 25.5 25.9 25.75 25.75 C 26 25.6 26 25.4 26.25 25.25 C 26.5 25.1 26.85 24.85 27 25 C 27.15 25.15 27.15 25.75 27 26 C 26.85 26.25 26.5 26.1 26.25 26.25 C 26 26.4 26 26.6 25.75 26.75 C 25.5 26.9 25.3 26.9 25 27 C 24.7 27.1 24.4 27.1 24.25 27.25 C 24.1 27.4 24.1 27.6 24.25 27.75 C 24.4 27.9 24.9 27.8 25 28 C 25.1 28.2 24.95 28.55 24.75 28.75 C 24.55 28.95 24.2 29.1 24 29 C 23.8 28.9 23.95 28.45 23.75 28.25 C 23.55 28.05 23.3 28.1 23 28 C 22.7 27.9 22.5 27.9 22.25 27.75 C 22 27.6 21.95 27.45 21.75 27.25 C 21.55 27.05 21.45 26.95 21.25 26.75 C 21.05 26.55 20.95 26.45 20.75 26.25 C 20.55 26.05 20.4 26 20.25 25.75 C 20.1 25.5 20.1 25.3 20 25 C 19.9 24.7 19.9 24.5 19.75 24.25 C 19.6 24 19.4 24 19.25 23.75 C 19.1 23.5 19.1 23.3 19 23 C 18.9 22.7 18.9 22.5 18.75 22.25 C 18.6 22 18.4 22 18.25 21.75 C 18.1 21.5 18.1 21.3 18 21 C 17.9 20.7 17.9 20.5 17.75 20.25 C 17.6 20 17.4 20 17.25 19.75 C 17.1 19.5 17.1 19.3 17 19 C 16.9 18.7 16.9 18.5 16.75 18.25 C 16.6 18 16.4 18 16.25 17.75 C 16.1 17.5 16.1 17.3 16 17 C 15.9 16.7 15.9 16.4 15.75 16.25 C 15.6 16.1 15.4 16.1 15.25 16.25 C 15.1 16.4 15.25 16.85 15 17 C 14.75 17.15 14.2 17.2 14 17 C 13.8 16.8 13.85 16.25 14 16 C 14.15 15.75 14.55 15.95 14.75 15.75 C 14.95 15.55 14.9 15.3 15 15 C 15.1 14.7 15.05 14.45 15.25 14.25 " fill = "rgb(8, 104, 16)" stroke = "rgb(8, 104, 16)" stroke-width = "0"/>
    <path d="M 21 14 C 21.1 13.9 21.5 14.1 21.75 14.25 C 22 14.4 22.05 14.55 22.25 14.75 C 22.45 14.95 22.55 15.05 22.75 15.25 C 22.95 15.45 23.05 15.55 23.25 15.75 C 23.45 15.95 23.6 16 23.75 16.25 C 23.9 16.5 24.1 16.9 24 17 C 23.9 17.1 23.5 16.9 23.25 16.75 C 23 16.6 22.95 16.45 22.75 16.25 C 22.55 16.05 22.45 15.95 22.25 15.75 C 22.05 15.55 21.95 15.45 21.75 15.25 C 21.55 15.05 21.4 15 21.25 14.75 C 21.1 14.5 20.9 14.1 21 14 " fill = "rgb(8, 104, 16)" stroke = "rgb(8, 104, 16)" stroke-width = "0"/>
    <path d="M 2.25 15.25 C 2.45 15.05 2.9 14.9 3 15 C 3.1 15.1 2.95 15.55 2.75 15.75 C 2.55 15.95 2.1 16.1 2 16 C 1.9 15.9 2.05 15.45 2.25 15.25 " fill = "rgb(16, 160, 32)" stroke = "rgb(16, 160, 32)" stroke-width = "0"/>
    <path d="M 3 15 C 3.25 14.85 3.75 14.85 4 15 C 4.25 15.15 4.05 15.55 4.25 15.75 C 4.45 15.95 4.85 15.75 5 16 C 5.15 16.25 5 16.6 5 17 C 5 17.4 5.05 17.65 5 18 C 4.95 18.35 4.95 18.55 4.75 18.75 C 4.55 18.95 4.35 18.95 4 19 C 3.65 19.05 3.2 19.2 3 19 C 2.8 18.8 3.05 18.35 3 18 C 2.95 17.65 2.95 17.45 2.75 17.25 C 2.55 17.05 2.15 17.25 2 17 C 1.85 16.75 1.85 16.25 2 16 C 2.15 15.75 2.55 15.95 2.75 15.75 C 2.95 15.55 2.75 15.15 3 15 " fill = "rgb(48, 216, 56)" stroke = "rgb(48, 216, 56)" stroke-width = "0"/>
    <path d="M 4 15 C 4.1 14.9 4.55 15.05 4.75 15.25 C 4.95 15.45 5.1 15.9 5 16 C 4.9 16.1 4.45 15.95 4.25 15.75 C 4.05 15.55 3.9 15.1 4 15 " fill = "rgb(16, 160, 32)" stroke = "rgb(16, 160, 32)" stroke-width = "0"/>
    <path d="M 11 15 C 11.2 14.8 11.8 14.8 12 15 C 12.2 15.2 12.2 15.8 12 16 C 11.8 16.2 11.2 16.2 11 16 C 10.8 15.8 10.8 15.2 11 15 " fill = "rgb(8, 104, 16)" stroke = "rgb(8, 104, 16)" stroke-width = "0"/>
    <path d="M 25.25 15.25 C 25.45 15.05 25.85 14.85 26 15 C 26.15 15.15 26.05 15.65 26 16 C 25.95 16.35 25.95 16.55 25.75 16.75 C 25.55 16.95 25.15 17.15 25 17 C 24.85 16.85 24.95 16.35 25 16 C 25.05 15.65 25.05 15.45 25.25 15.25 " fill = "rgb(8, 104, 16)" stroke = "rgb(8, 104, 16)" stroke-width = "0"/>
    <path d="M 8.25 16.25 C 8.5 16.1 8.8 15.9 9 16 C 9.2 16.1 9.1 16.5 9.25 16.75 C 9.4 17 9.6 17 9.75 17.25 C 9.9 17.5 9.9 17.7 10 18 C 10.1 18.3 10.1 18.5 10.25 18.75 C 10.4 19 10.6 19 10.75 19.25 C 10.9 19.5 11.15 19.85 11 20 C 10.85 20.15 10.25 20.15 10 20 C 9.75 19.85 9.9 19.5 9.75 19.25 C 9.6 19 9.4 19 9.25 18.75 C 9.1 18.5 9.1 18.3 9 18 C 8.9 17.7 8.9 17.4 8.75 17.25 C 8.6 17.1 8.45 17.15 8.25 17.25 C 8.05 17.35 8 17.6 7.75 17.75 C 7.5 17.9 7.1 18.1 7 18 C 6.9 17.9 7.1 17.5 7.25 17.25 C 7.4 17 7.55 16.95 7.75 16.75 C 7.95 16.55 8 16.4 8.25 16.25 " fill = "rgb(16, 72, 24)" stroke = "rgb(16, 72, 24)" stroke-width = "0"/>
    <path d="M 11 16 C 11.15 15.85 11.8 15.8 12 16 C 12.2 16.2 12.15 16.85 12 17 C 11.85 17.15 11.45 16.95 11.25 16.75 C 11.05 16.55 10.85 16.15 11 16 " fill = "rgb(48, 216, 56)" stroke = "rgb(48, 216, 56)" stroke-width = "0"/>
    <path d="M 15.25 16.25 C 15.4 16.1 15.6 16.1 15.75 16.25 C 15.9 16.4 15.9 16.7 16 17 C 16.1 17.3 16.1 17.5 16.25 17.75 C 16.4 18 16.6 18 16.75 18.25 C 16.9 18.5 16.9 18.7 17 19 C 17.1 19.3 17.1 19.5 17.25 19.75 C 17.4 20 17.6 20 17.75 20.25 C 17.9 20.5 17.9 20.7 18 21 C 18.1 21.3 18.1 21.5 18.25 21.75 C 18.4 22 18.6 22 18.75 22.25 C 18.9 22.5 18.9 22.7 19 23 C 19.1 23.3 19.1 23.5 19.25 23.75 C 19.4 24 19.6 24 19.75 24.25 C 19.9 24.5 19.9 24.7 20 25 C 20.1 25.3 20.1 25.5 20.25 25.75 C 20.4 26 20.55 26.05 20.75 26.25 C 20.95 26.45 21.05 26.55 21.25 26.75 C 21.45 26.95 21.55 27.05 21.75 27.25 C 21.95 27.45 22 27.6 22.25 27.75 C 22.5 27.9 22.7 27.9 23 28 C 23.3 28.1 23.55 28.05 23.75 28.25 C 23.95 28.45 24.15 28.85 24 29 C 23.85 29.15 23.35 28.95 23 29 C 22.65 29.05 22.45 29.05 22.25 29.25 C 22.05 29.45 22.25 29.85 22 30 C 21.75 30.15 21.25 30.15 21 30 C 20.75 29.85 20.95 29.45 20.75 29.25 C 20.55 29.05 20.15 29.25 20 29 C 19.85 28.75 20.05 28.35 20 28 C 19.95 27.65 19.95 27.45 19.75 27.25 C 19.55 27.05 19.15 27.25 19 27 C 18.85 26.75 19.05 26.35 19 26 C 18.95 25.65 18.95 25.45 18.75 25.25 C 18.55 25.05 18.2 25.2 18 25 C 17.8 24.8 17.95 24.45 17.75 24.25 C 17.55 24.05 17.2 24.2 17 24 C 16.8 23.8 16.9 23.5 16.75 23.25 C 16.6 23 16.4 23 16.25 22.75 C 16.1 22.5 16.1 22.3 16 22 C 15.9 21.7 15.9 21.5 15.75 21.25 C 15.6 21 15.4 21 15.25 20.75 C 15.1 20.5 15.05 20.35 15 20 C 14.95 19.65 15 19.4 15 19 C 15 18.6 15 18.4 15 18 C 15 17.6 14.95 17.35 15 17 C 15.05 16.65 15.1 16.4 15.25 16.25 " fill = "rgb(16, 160, 32)" stroke = "rgb(16, 160, 32)" stroke-width = "0"/>
    <path d="M 2 17 C 2.1 16.9 2.55 17.05 2.75 17.25 C 2.95 17.45 3.1 17.9 3 18 C 2.9 18.1 2.45 17.95 2.25 17.75 C 2.05 17.55 1.9 17.1 2 17 " fill = "rgb(16, 160, 32)" stroke = "rgb(16, 160, 32)" stroke-width = "0"/>
    <path d="M 5 17 C 5.15 16.85 5.55 17.05 5.75 17.25 C 5.95 17.45 6.15 17.85 6 18 C 5.85 18.15 5.2 18.2 5 18 C 4.8 17.8 4.85 17.15 5 17 " fill = "rgb(8, 104, 16)" stroke = "rgb(8, 104, 16)" stroke-width = "0"/>
    <path d="M 8.25 17.25 C 8.45 17.15 8.6 17.1 8.75 17.25 C 8.9 17.4 9.1 17.8 9 18 C 8.9 18.2 8.5 18.1 8.25 18.25 C 8 18.4 7.95 18.55 7.75 18.75 C 7.55 18.95 7.45 19.05 7.25 19.25 C 7.05 19.45 6.95 19.55 6.75 19.75 C 6.55 19.95 6.45 20.05 6.25 20.25 C 6.05 20.45 6 20.6 5.75 20.75 C 5.5 20.9 5.35 20.95 5 21 C 4.65 21.05 4.2 21.2 4 21 C 3.8 20.8 4 20.4 4 20 C 4 19.6 3.85 19.25 4 19 C 4.15 18.75 4.55 18.95 4.75 18.75 C 4.95 18.55 4.75 18.15 5 18 C 5.25 17.85 5.75 17.85 6 18 C 6.25 18.15 6.1 18.6 6.25 18.75 C 6.4 18.9 6.6 18.9 6.75 18.75 C 6.9 18.6 6.8 18.2 7 18 C 7.2 17.8 7.5 17.9 7.75 17.75 C 8 17.6 8.05 17.35 8.25 17.25 " fill = "rgb(16, 160, 32)" stroke = "rgb(16, 160, 32)" stroke-width = "0"/>
    <path d="M 12 17 C 12.1 16.9 12.55 17.05 12.75 17.25 C 12.95 17.45 13.1 17.9 13 18 C 12.9 18.1 12.45 17.95 12.25 17.75 C 12.05 17.55 11.9 17.1 12 17 " fill = "rgb(16, 72, 24)" stroke = "rgb(16, 72, 24)" stroke-width = "0"/>
    <path d="M 14 17 C 14.2 16.8 14.8 16.8 15 17 C 15.2 17.2 15.2 17.8 15 18 C 14.8 18.2 14.2 18.2 14 18 C 13.8 17.8 13.8 17.2 14 17 " fill = "rgb(16, 72, 24)" stroke = "rgb(16, 72, 24)" stroke-width = "0"/>
    <path d="M 8.25 18.25 C 8.5 18.1 8.8 17.9 9 18 C 9.2 18.1 9.1 18.5 9.25 18.75 C 9.4 19 9.6 19 9.75 19.25 C 9.9 19.5 10.1 19.8 10 20 C 9.9 20.2 9.5 20.1 9.25 20.25 C 9 20.4 8.95 20.55 8.75 20.75 C 8.55 20.95 8.45 21.05 8.25 21.25 C 8.05 21.45 8 21.6 7.75 21.75 C 7.5 21.9 7.1 22.1 7 22 C 6.9 21.9 7.1 21.5 7.25 21.25 C 7.4 21 7.55 20.95 7.75 20.75 C 7.95 20.55 8.05 20.45 8.25 20.25 C 8.45 20.05 8.65 19.95 8.75 19.75 C 8.85 19.55 8.85 19.35 8.75 19.25 C 8.65 19.15 8.45 19.15 8.25 19.25 C 8.05 19.35 7.95 19.55 7.75 19.75 C 7.55 19.95 7.45 20.05 7.25 20.25 C 7.05 20.45 6.95 20.55 6.75 20.75 C 6.55 20.95 6.4 21 6.25 21.25 C 6.1 21.5 6.25 21.85 6 22 C 5.75 22.15 5.35 22.05 5 22 C 4.65 21.95 4.45 21.95 4.25 21.75 C 4.05 21.55 3.85 21.15 4 21 C 4.15 20.85 4.65 21.05 5 21 C 5.35 20.95 5.5 20.9 5.75 20.75 C 6 20.6 6.05 20.45 6.25 20.25 C 6.45 20.05 6.55 19.95 6.75 19.75 C 6.95 19.55 7.05 19.45 7.25 19.25 C 7.45 19.05 7.55 18.95 7.75 18.75 C 7.95 18.55 8 18.4 8.25 18.25 " fill = "rgb(8, 104, 16)" stroke = "rgb(8, 104, 16)" stroke-width = "0"/>
    <path d="M 13 18 C 13.15 17.85 13.6 18 14 18 C 14.4 18 14.8 17.8 15 18 C 15.2 18.2 15.2 18.8 15 19 C 14.8 19.2 14.35 19.05 14 19 C 13.65 18.95 13.45 18.95 13.25 18.75 C 13.05 18.55 12.85 18.15 13 18 " fill = "rgb(48, 216, 56)" stroke = "rgb(48, 216, 56)" stroke-width = "0"/>
    <path d="M 18.25 18.25 C 18.45 18.05 18.85 17.85 19 18 C 19.15 18.15 19.05 18.65 19 19 C 18.95 19.35 18.9 19.6 18.75 19.75 C 18.6 19.9 18.4 19.9 18.25 19.75 C 18.1 19.6 18 19.3 18 19 C 18 18.7 18.05 18.45 18.25 18.25 " fill = "rgb(16, 160, 32)" stroke = "rgb(16, 160, 32)" stroke-width = "0"/>
    <path d="M 3 19 C 3.15 18.85 3.8 18.8 4 19 C 4.2 19.2 4.15 19.85 4 20 C 3.85 20.15 3.45 19.95 3.25 19.75 C 3.05 19.55 2.85 19.15 3 19 " fill = "rgb(8, 104, 16)" stroke = "rgb(8, 104, 16)" stroke-width = "0"/>
    <path d="M 8.25 19.25 C 8.45 19.15 8.65 19.15 8.75 19.25 C 8.85 19.35 8.85 19.55 8.75 19.75 C 8.65 19.95 8.45 20.05 8.25 20.25 C 8.05 20.45 7.95 20.55 7.75 20.75 C 7.55 20.95 7.4 21 7.25 21.25 C 7.1 21.5 7.25 21.85 7 22 C 6.75 22.15 6.15 22.15 6 22 C 5.85 21.85 6.1 21.5 6.25 21.25 C 6.4 21 6.55 20.95 6.75 20.75 C 6.95 20.55 7.05 20.45 7.25 20.25 C 7.45 20.05 7.55 19.95 7.75 19.75 C 7.95 19.55 8.05 19.35 8.25 19.25 " fill = "rgb(16, 160, 32)" stroke = "rgb(16, 160, 32)" stroke-width = "0"/>
    <path d="M 14 19 C 14.2 18.8 14.8 18.8 15 19 C 15.2 19.2 14.95 19.65 15 20 C 15.05 20.35 15.1 20.5 15.25 20.75 C 15.4 21 15.6 21 15.75 21.25 C 15.9 21.5 15.9 21.7 16 22 C 16.1 22.3 16.1 22.5 16.25 22.75 C 16.4 23 16.6 23 16.75 23.25 C 16.9 23.5 16.95 23.65 17 24 C 17.05 24.35 17.15 24.75 17 25 C 16.85 25.25 16.5 25.1 16.25 25.25 C 16 25.4 15.95 25.55 15.75 25.75 C 15.55 25.95 15.45 26.05 15.25 26.25 C 15.05 26.45 14.95 26.55 14.75 26.75 C 14.55 26.95 14.4 27 14.25 27.25 C 14.1 27.5 14 27.7 14 28 C 14 28.3 14.1 28.5 14.25 28.75 C 14.4 29 14.6 29 14.75 29.25 C 14.9 29.5 15.1 29.9 15 30 C 14.9 30.1 14.5 29.9 14.25 29.75 C 14 29.6 13.95 29.45 13.75 29.25 C 13.55 29.05 13.4 29 13.25 28.75 C 13.1 28.5 13 28.3 13 28 C 13 27.7 13.1 27.5 13.25 27.25 C 13.4 27 13.55 26.95 13.75 26.75 C 13.95 26.55 14.05 26.45 14.25 26.25 C 14.45 26.05 14.55 25.95 14.75 25.75 C 14.95 25.55 15.05 25.45 15.25 25.25 C 15.45 25.05 15.6 25 15.75 24.75 C 15.9 24.5 16 24.3 16 24 C 16 23.7 15.9 23.5 15.75 23.25 C 15.6 23 15.4 23 15.25 22.75 C 15.1 22.5 15.1 22.3 15 22 C 14.9 21.7 14.9 21.5 14.75 21.25 C 14.6 21 14.4 21 14.25 20.75 C 14.1 20.5 14.05 20.35 14 20 C 13.95 19.65 13.8 19.2 14 19 " fill = "rgb(8, 104, 16)" stroke = "rgb(8, 104, 16)" stroke-width = "0"/>
    <path d="M 19.25 20.25 C 19.45 20.05 19.85 19.85 20 20 C 20.15 20.15 20.05 20.65 20 21 C 19.95 21.35 19.9 21.6 19.75 21.75 C 19.6 21.9 19.4 21.9 19.25 21.75 C 19.1 21.6 19 21.3 19 21 C 19 20.7 19.05 20.45 19.25 20.25 " fill = "rgb(16, 160, 32)" stroke = "rgb(16, 160, 32)" stroke-width = "0"/>
    <path d="M 12 22 C 12.15 21.85 12.65 21.95 13 22 C 13.35 22.05 13.55 22.05 13.75 22.25 C 13.95 22.45 13.95 22.65 14 23 C 14.05 23.35 14.05 23.65 14 24 C 13.95 24.35 13.9 24.5 13.75 24.75 C 13.6 25 13.45 25.05 13.25 25.25 C 13.05 25.45 12.95 25.55 12.75 25.75 C 12.55 25.95 12.45 26.05 12.25 26.25 C 12.05 26.45 11.95 26.55 11.75 26.75 C 11.55 26.95 11.4 27 11.25 27.25 C 11.1 27.5 11 27.7 11 28 C 11 28.3 11.1 28.5 11.25 28.75 C 11.4 29 11.6 29 11.75 29.25 C 11.9 29.5 11.9 29.7 12 30 C 12.1 30.3 12.1 30.5 12.25 30.75 C 12.4 31 12.6 31 12.75 31.25 C 12.9 31.5 12.95 31.65 13 32 C 13.05 32.35 13.2 32.8 13 33 C 12.8 33.2 12.2 33.2 12 33 C 11.8 32.8 12.05 32.35 12 32 C 11.95 31.65 11.9 31.5 11.75 31.25 C 11.6 31 11.4 31 11.25 30.75 C 11.1 30.5 11.1 30.3 11 30 C 10.9 29.7 10.9 29.5 10.75 29.25 C 10.6 29 10.4 29 10.25 28.75 C 10.1 28.5 10 28.3 10 28 C 10 27.7 10.1 27.5 10.25 27.25 C 10.4 27 10.55 26.95 10.75 26.75 C 10.95 26.55 11.05 26.45 11.25 26.25 C 11.45 26.05 11.55 25.95 11.75 25.75 C 11.95 25.55 12.05 25.45 12.25 25.25 C 12.45 25.05 12.6 25 12.75 24.75 C 12.9 24.5 13 24.3 13 24 C 13 23.7 12.9 23.5 12.75 23.25 C 12.6 23 12.4 23 12.25 22.75 C 12.1 22.5 11.85 22.15 12 22 " fill = "rgb(8, 104, 16)" stroke = "rgb(8, 104, 16)" stroke-width = "0"/>
    <path d="M 20.25 22.25 C 20.45 22.05 20.85 21.85 21 22 C 21.15 22.15 21.05 22.65 21 23 C 20.95 23.35 20.9 23.6 20.75 23.75 C 20.6 23.9 20.4 23.9 20.25 23.75 C 20.1 23.6 20 23.3 20 23 C 20 22.7 20.05 22.45 20.25 22.25 " fill = "rgb(16, 160, 32)" stroke = "rgb(16, 160, 32)" stroke-width = "0"/>
    <path d="M 12.25 24.25 C 12.5 24.1 12.9 23.9 13 24 C 13.1 24.1 12.9 24.5 12.75 24.75 C 12.6 25 12.45 25.05 12.25 25.25 C 12.05 25.45 11.95 25.55 11.75 25.75 C 11.55 25.95 11.45 26.05 11.25 26.25 C 11.05 26.45 10.95 26.55 10.75 26.75 C 10.55 26.95 10.4 27 10.25 27.25 C 10.1 27.5 10 27.7 10 28 C 10 28.3 10.1 28.5 10.25 28.75 C 10.4 29 10.6 29 10.75 29.25 C 10.9 29.5 10.9 29.7 11 30 C 11.1 30.3 11.1 30.5 11.25 30.75 C 11.4 31 11.6 31 11.75 31.25 C 11.9 31.5 11.95 31.65 12 32 C 12.05 32.35 12.15 32.85 12 33 C 11.85 33.15 11.45 32.95 11.25 32.75 C 11.05 32.55 11.1 32.3 11 32 C 10.9 31.7 10.9 31.5 10.75 31.25 C 10.6 31 10.4 31 10.25 30.75 C 10.1 30.5 10.1 30.3 10 30 C 9.9 29.7 9.9 29.5 9.75 29.25 C 9.6 29 9.4 29 9.25 28.75 C 9.1 28.5 9 28.3 9 28 C 9 27.7 9.1 27.5 9.25 27.25 C 9.4 27 9.55 26.95 9.75 26.75 C 9.95 26.55 10.05 26.45 10.25 26.25 C 10.45 26.05 10.55 25.95 10.75 25.75 C 10.95 25.55 11.05 25.45 11.25 25.25 C 11.45 25.05 11.55 24.95 11.75 24.75 C 11.95 24.55 12 24.4 12.25 24.25 " fill = "rgb(16, 160, 32)" stroke = "rgb(16, 160, 32)" stroke-width = "0"/>
    <path d="M 17 24 C 17.15 23.85 17.55 24.05 17.75 24.25 C 17.95 24.45 18.15 24.85 18 25 C 17.85 25.15 17.2 25.2 17 25 C 16.8 24.8 16.85 24.15 17 24 " fill = "rgb(16, 72, 24)" stroke = "rgb(16, 72, 24)" stroke-width = "0"/>
    <path d="M 21.25 24.25 C 21.45 24.05 21.8 23.9 22 24 C 22.2 24.1 22.05 24.55 22.25 24.75 C 22.45 24.95 22.65 24.95 23 25 C 23.35 25.05 23.65 25.05 24 25 C 24.35 24.95 24.55 24.95 24.75 24.75 C 24.95 24.55 24.75 24.15 25 24 C 25.25 23.85 25.65 23.95 26 24 C 26.35 24.05 26.55 24.05 26.75 24.25 C 26.95 24.45 27.1 24.8 27 25 C 26.9 25.2 26.5 25.1 26.25 25.25 C 26 25.4 26 25.6 25.75 25.75 C 25.5 25.9 25.3 25.9 25 26 C 24.7 26.1 24.5 26.1 24.25 26.25 C 24 26.4 24 26.6 23.75 26.75 C 23.5 26.9 23.3 27 23 27 C 22.7 27 22.5 26.9 22.25 26.75 C 22 26.6 21.95 26.45 21.75 26.25 C 21.55 26.05 21.4 26 21.25 25.75 C 21.1 25.5 21 25.3 21 25 C 21 24.7 21.05 24.45 21.25 24.25 " fill = "rgb(16, 160, 32)" stroke = "rgb(16, 160, 32)" stroke-width = "0"/>
    <path d="M 24.25 24.25 C 24.45 24.05 24.9 23.9 25 24 C 25.1 24.1 24.95 24.55 24.75 24.75 C 24.55 24.95 24.1 25.1 24 25 C 23.9 24.9 24.05 24.45 24.25 24.25 " fill = "rgb(8, 104, 16)" stroke = "rgb(8, 104, 16)" stroke-width = "0"/>
    <path d="M 18 25 C 18.1 24.9 18.55 25.05 18.75 25.25 C 18.95 25.45 19.1 25.9 19 26 C 18.9 26.1 18.45 25.95 18.25 25.75 C 18.05 25.55 17.9 25.1 18 25 " fill = "rgb(8, 104, 16)" stroke = "rgb(8, 104, 16)" stroke-width = "0"/>
    <path d="M 26.25 26.25 C 26.5 26.1 26.85 25.85 27 26 C 27.15 26.15 27.15 26.75 27 27 C 26.85 27.25 26.45 27.05 26.25 27.25 C 26.05 27.45 26.25 27.85 26 28 C 25.75 28.15 25.35 28.05 25 28 C 24.65 27.95 24.4 27.9 24.25 27.75 C 24.1 27.6 24.1 27.4 24.25 27.25 C 24.4 27.1 24.7 27.1 25 27 C 25.3 26.9 25.5 26.9 25.75 26.75 C 26 26.6 26 26.4 26.25 26.25 " fill = "rgb(16, 160, 32)" stroke = "rgb(16, 160, 32)" stroke-width = "0"/>
    <path d="M 19 27 C 19.1 26.9 19.55 27.05 19.75 27.25 C 19.95 27.45 20.1 27.9 20 28 C 19.9 28.1 19.45 27.95 19.25 27.75 C 19.05 27.55 18.9 27.1 19 27 " fill = "rgb(8, 104, 16)" stroke = "rgb(8, 104, 16)" stroke-width = "0"/>
    <path d="M 26.25 27.25 C 26.45 27.05 26.9 26.9 27 27 C 27.1 27.1 26.95 27.55 26.75 27.75 C 26.55 27.95 26.1 28.1 26 28 C 25.9 27.9 26.05 27.45 26.25 27.25 " fill = "rgb(8, 104, 16)" stroke = "rgb(8, 104, 16)" stroke-width = "0"/>
    <path d="M 20 29 C 20.1 28.9 20.55 29.05 20.75 29.25 C 20.95 29.45 21.1 29.9 21 30 C 20.9 30.1 20.45 29.95 20.25 29.75 C 20.05 29.55 19.9 29.1 20 29 " fill = "rgb(16, 72, 24)" stroke = "rgb(16, 72, 24)" stroke-width = "0"/>
    <path d="M 22.25 29.25 C 22.45 29.05 22.9 28.9 23 29 C 23.1 29.1 22.95 29.55 22.75 29.75 C 22.55 29.95 22.1 30.1 22 30 C 21.9 29.9 22.05 29.45 22.25 29.25 " fill = "rgb(8, 104, 16)" stroke = "rgb(8, 104, 16)" stroke-width = "0"/>
    <path d="M 14.25 32.25 C 14.45 32.05 14.9 31.9 15 32 C 15.1 32.1 14.95 32.55 14.75 32.75 C 14.55 32.95 14.1 33.1 14 33 C 13.9 32.9 14.05 32.45 14.25 32.25 " fill = "rgb(8, 104, 16)" stroke = "rgb(8, 104, 16)" stroke-width = "0"/>
</svg>
