<svg version="1.1" baseProfile = "full" width = "16" height = "16" xmlns = "http://www.w3.org/2000/svg">
    <path d="M 0 0 C 0.2 -0.2 0.6 -3.49691e-08 1 0 C 1.4 0 1.6 -3.49691e-08 2 0 C 2.4 0 2.6 -3.49691e-08 3 0 C 3.4 0 3.6 -3.49691e-08 4 0 C 4.4 0 4.6 -3.49691e-08 5 0 C 5.4 0 5.6 -3.49691e-08 6 0 C 6.4 0 6.6 -3.49691e-08 7 0 C 7.4 0 7.6 -3.49691e-08 8 0 C 8.4 0 8.6 -3.49691e-08 9 0 C 9.4 0 9.6 -3.49691e-08 10 0 C 10.4 0 10.6 -3.49691e-08 11 0 C 11.4 0 11.6 -3.49691e-08 12 0 C 12.4 0 12.6 -3.49691e-08 13 0 C 13.4 0 13.6 -3.49691e-08 14 0 C 14.4 0 14.6 -3.49691e-08 15 0 C 15.4 0 15.8 -0.2 16 0 C 16.2 0.2 16 0.6 16 1 C 16 1.4 16 1.6 16 2 C 16 2.4 16 2.6 16 3 C 16 3.4 16 3.6 16 4 C 16 4.4 16 4.6 16 5 C 16 5.4 16 5.6 16 6 C 16 6.4 16 6.6 16 7 C 16 7.4 16 7.6 16 8 C 16 8.4 16 8.6 16 9 C 16 9.4 16 9.6 16 10 C 16 10.4 16 10.6 16 11 C 16 11.4 16 11.6 16 12 C 16 12.4 16 12.6 16 13 C 16 13.4 16 13.6 16 14 C 16 14.4 16 14.6 16 15 C 16 15.4 16.2 15.8 16 16 C 15.8 16.2 15.4 16 15 16 C 14.6 16 14.4 16 14 16 C 13.6 16 13.4 16 13 16 C 12.6 16 12.4 16 12 16 C 11.6 16 11.4 16 11 16 C 10.6 16 10.4 16 10 16 C 9.6 16 9.4 16 9 16 C 8.6 16 8.4 16 8 16 C 7.6 16 7.4 16 7 16 C 6.6 16 6.4 16 6 16 C 5.6 16 5.4 16 5 16 C 4.6 16 4.4 16 4 16 C 3.6 16 3.4 16 3 16 C 2.6 16 2.4 16 2 16 C 1.6 16 1.4 16 1 16 C 0.6 16 0.2 16.2 0 16 C -0.2 15.8 3.01992e-08 15.4 0 15 C -1.74846e-08 14.6 3.01992e-08 14.4 0 14 C -1.74846e-08 13.6 3.01992e-08 13.4 0 13 C -1.74846e-08 12.6 3.01992e-08 12.4 0 12 C -1.74846e-08 11.6 3.01992e-08 11.4 0 11 C -1.74846e-08 10.6 3.01992e-08 10.4 0 10 C -1.74846e-08 9.6 3.01992e-08 9.4 0 9 C -1.74846e-08 8.6 3.01992e-08 8.4 0 8 C -1.74846e-08 7.6 3.01992e-08 7.4 0 7 C -1.74846e-08 6.6 3.01992e-08 6.4 0 6 C -1.74846e-08 5.6 3.01992e-08 5.4 0 5 C -1.74846e-08 4.6 3.01992e-08 4.4 0 4 C -1.74846e-08 3.6 3.01992e-08 3.4 0 3 C -1.74846e-08 2.6 3.01992e-08 2.4 0 2 C -1.74846e-08 1.6 3.01992e-08 1.4 0 1 C -1.74846e-08 0.6 -0.2 0.2 0 0 " fill = "rgb(235, 0, 235)" stroke = "rgb(235, 0, 235)" stroke-width = "0"/>
    <path d="M 10.25 1.25 C 10.5 1.1 10.65 1.05 11 1 C 11.35 0.95 11.6 1 12 1 C 12.4 1 12.65 0.95 13 1 C 13.35 1.05 13.5 1.1 13.75 1.25 C 14 1.4 14.05 1.55 14.25 1.75 C 14.45 1.95 14.6 2 14.75 2.25 C 14.9 2.5 14.95 2.65 15 3 C 15.05 3.35 15.05 3.65 15 4 C 14.95 4.35 14.9 4.5 14.75 4.75 C 14.6 5 14.4 5 14.25 5.25 C 14.1 5.5 14.1 5.7 14 6 C 13.9 6.3 13.9 6.5 13.75 6.75 C 13.6 7 13.4 7 13.25 7.25 C 13.1 7.5 13.1 7.7 13 8 C 12.9 8.3 12.9 8.5 12.75 8.75 C 12.6 9 12.45 9.05 12.25 9.25 C 12.05 9.45 11.95 9.55 11.75 9.75 C 11.55 9.95 11.35 10.05 11.25 10.25 C 11.15 10.45 11.15 10.55 11.25 10.75 C 11.35 10.95 11.6 11 11.75 11.25 C 11.9 11.5 12 11.7 12 12 C 12 12.3 11.9 12.5 11.75 12.75 C 11.6 13 11.45 13.05 11.25 13.25 C 11.05 13.45 10.95 13.55 10.75 13.75 C 10.55 13.95 10.45 14.05 10.25 14.25 C 10.05 14.45 10 14.6 9.75 14.75 C 9.5 14.9 9.3 15 9 15 C 8.7 15 8.5 14.9 8.25 14.75 C 8 14.6 8 14.4 7.75 14.25 C 7.5 14.1 7.3 14 7 14 C 6.7 14 6.5 14.1 6.25 14.25 C 6 14.4 6 14.6 5.75 14.75 C 5.5 14.9 5.35 14.95 5 15 C 4.65 15.05 4.35 15.05 4 15 C 3.65 14.95 3.5 14.9 3.25 14.75 C 3 14.6 2.95 14.45 2.75 14.25 C 2.55 14.05 2.45 13.95 2.25 13.75 C 2.05 13.55 1.95 13.45 1.75 13.25 C 1.55 13.05 1.4 13 1.25 12.75 C 1.1 12.5 1.05 12.35 1 12 C 0.95 11.65 1 11.4 1 11 C 1 10.6 1 10.4 1 10 C 1 9.6 0.95 9.35 1 9 C 1.05 8.65 1.1 8.5 1.25 8.25 C 1.4 8 1.6 8 1.75 7.75 C 1.9 7.5 1.9 7.3 2 7 C 2.1 6.7 2.1 6.5 2.25 6.25 C 2.4 6 2.55 5.95 2.75 5.75 C 2.95 5.55 3.05 5.45 3.25 5.25 C 3.45 5.05 3.55 4.95 3.75 4.75 C 3.95 4.55 4.05 4.45 4.25 4.25 C 4.45 4.05 4.55 3.95 4.75 3.75 C 4.95 3.55 5 3.4 5.25 3.25 C 5.5 3.1 5.7 3.1 6 3 C 6.3 2.9 6.5 2.9 6.75 2.75 C 7 2.6 7 2.4 7.25 2.25 C 7.5 2.1 7.65 2.05 8 2 C 8.35 1.95 8.65 2.05 9 2 C 9.35 1.95 9.5 1.9 9.75 1.75 C 10 1.6 10 1.4 10.25 1.25 " fill = "rgb(40, 40, 40)" stroke = "rgb(40, 40, 40)" stroke-width = "0"/>
    <path d="M 10.25 2.25 C 10.45 2.05 10.65 2.05 11 2 C 11.35 1.95 11.8 1.8 12 2 C 12.2 2.2 12 2.6 12 3 C 12 3.4 12.05 3.65 12 4 C 11.95 4.35 11.95 4.55 11.75 4.75 C 11.55 4.95 11.2 5.1 11 5 C 10.8 4.9 10.9 4.4 10.75 4.25 C 10.6 4.1 10.4 4.1 10.25 4.25 C 10.1 4.4 10.1 4.7 10 5 C 9.9 5.3 9.95 5.55 9.75 5.75 C 9.55 5.95 9.3 5.9 9 6 C 8.7 6.1 8.45 6.05 8.25 6.25 C 8.05 6.45 8.2 6.8 8 7 C 7.8 7.2 7.5 7.1 7.25 7.25 C 7 7.4 6.95 7.55 6.75 7.75 C 6.55 7.95 6.4 8 6.25 8.25 C 6.1 8.5 6.1 8.7 6 9 C 5.9 9.3 5.9 9.5 5.75 9.75 C 5.6 10 5.45 10.05 5.25 10.25 C 5.05 10.45 4.95 10.65 4.75 10.75 C 4.55 10.85 4.4 10.9 4.25 10.75 C 4.1 10.6 4.1 10.3 4 10 C 3.9 9.7 3.95 9.45 3.75 9.25 C 3.55 9.05 3.15 9.25 3 9 C 2.85 8.75 3 8.4 3 8 C 3 7.6 2.8 7.2 3 7 C 3.2 6.8 3.65 7.05 4 7 C 4.35 6.95 4.55 6.95 4.75 6.75 C 4.95 6.55 4.9 6.3 5 6 C 5.1 5.7 5.05 5.45 5.25 5.25 C 5.45 5.05 5.7 5.1 6 5 C 6.3 4.9 6.55 4.95 6.75 4.75 C 6.95 4.55 6.8 4.2 7 4 C 7.2 3.8 7.55 3.95 7.75 3.75 C 7.95 3.55 7.75 3.15 8 3 C 8.25 2.85 8.85 2.85 9 3 C 9.15 3.15 8.9 3.5 8.75 3.75 C 8.6 4 8.35 4.05 8.25 4.25 C 8.15 4.45 8.15 4.65 8.25 4.75 C 8.35 4.85 8.55 4.85 8.75 4.75 C 8.95 4.65 9.05 4.45 9.25 4.25 C 9.45 4.05 9.6 4 9.75 3.75 C 9.9 3.5 9.9 3.3 10 3 C 10.1 2.7 10.05 2.45 10.25 2.25 " fill = "rgb(144, 168, 232)" stroke = "rgb(144, 168, 232)" stroke-width = "0"/>
    <path d="M 12 2 C 12.2 1.8 12.65 1.95 13 2 C 13.35 2.05 13.55 2.05 13.75 2.25 C 13.95 2.45 13.95 2.65 14 3 C 14.05 3.35 14.05 3.65 14 4 C 13.95 4.35 13.9 4.5 13.75 4.75 C 13.6 5 13.4 5 13.25 5.25 C 13.1 5.5 13.1 5.7 13 6 C 12.9 6.3 12.9 6.5 12.75 6.75 C 12.6 7 12.4 7 12.25 7.25 C 12.1 7.5 12.1 7.7 12 8 C 11.9 8.3 11.9 8.5 11.75 8.75 C 11.6 9 11.45 9.05 11.25 9.25 C 11.05 9.45 10.95 9.65 10.75 9.75 C 10.55 9.85 10.45 9.85 10.25 9.75 C 10.05 9.65 10 9.4 9.75 9.25 C 9.5 9.1 9.3 9 9 9 C 8.7 9 8.5 9.1 8.25 9.25 C 8 9.4 7.95 9.55 7.75 9.75 C 7.55 9.95 7.35 10.05 7.25 10.25 C 7.15 10.45 7.15 10.65 7.25 10.75 C 7.35 10.85 7.55 10.85 7.75 10.75 C 7.95 10.65 8 10.4 8.25 10.25 C 8.5 10.1 8.9 9.9 9 10 C 9.1 10.1 8.9 10.5 8.75 10.75 C 8.6 11 8.35 11.05 8.25 11.25 C 8.15 11.45 8.1 11.6 8.25 11.75 C 8.4 11.9 8.8 11.8 9 12 C 9.2 12.2 9.1 12.5 9.25 12.75 C 9.4 13 9.65 13.05 9.75 13.25 C 9.85 13.45 9.9 13.6 9.75 13.75 C 9.6 13.9 9.3 14 9 14 C 8.7 14 8.5 13.9 8.25 13.75 C 8 13.6 8 13.4 7.75 13.25 C 7.5 13.1 7.3 13 7 13 C 6.7 13 6.5 13.1 6.25 13.25 C 6 13.4 6 13.6 5.75 13.75 C 5.5 13.9 5.35 13.95 5 14 C 4.65 14.05 4.35 14.05 4 14 C 3.65 13.95 3.5 13.9 3.25 13.75 C 3 13.6 2.95 13.45 2.75 13.25 C 2.55 13.05 2.4 13 2.25 12.75 C 2.1 12.5 2.05 12.35 2 12 C 1.95 11.65 2 11.4 2 11 C 2 10.6 2 10.4 2 10 C 2 9.6 1.95 9.35 2 9 C 2.05 8.65 2.05 8.45 2.25 8.25 C 2.45 8.05 2.85 7.85 3 8 C 3.15 8.15 2.95 8.65 3 9 C 3.05 9.35 3.05 9.55 3.25 9.75 C 3.45 9.95 3.8 9.8 4 10 C 4.2 10.2 4.1 10.6 4.25 10.75 C 4.4 10.9 4.55 10.85 4.75 10.75 C 4.95 10.65 5.05 10.45 5.25 10.25 C 5.45 10.05 5.6 10 5.75 9.75 C 5.9 9.5 5.9 9.3 6 9 C 6.1 8.7 6.1 8.5 6.25 8.25 C 6.4 8 6.55 7.95 6.75 7.75 C 6.95 7.55 7 7.4 7.25 7.25 C 7.5 7.1 7.7 7.1 8 7 C 8.3 6.9 8.55 6.95 8.75 6.75 C 8.95 6.55 8.8 6.2 9 6 C 9.2 5.8 9.55 5.95 9.75 5.75 C 9.95 5.55 9.75 5.15 10 5 C 10.25 4.85 10.65 5.05 11 5 C 11.35 4.95 11.55 4.95 11.75 4.75 C 11.95 4.55 11.8 4.2 12 4 C 12.2 3.8 12.6 3.9 12.75 3.75 C 12.9 3.6 12.9 3.4 12.75 3.25 C 12.6 3.1 12.15 3.25 12 3 C 11.85 2.75 11.8 2.2 12 2 " fill = "rgb(80, 104, 168)" stroke = "rgb(80, 104, 168)" stroke-width = "0"/>
    <path d="M 7.25 3.25 C 7.45 3.05 7.9 2.9 8 3 C 8.1 3.1 7.95 3.55 7.75 3.75 C 7.55 3.95 7.1 4.1 7 4 C 6.9 3.9 7.05 3.45 7.25 3.25 " fill = "rgb(80, 104, 168)" stroke = "rgb(80, 104, 168)" stroke-width = "0"/>
    <path d="M 9 3 C 9.25 2.85 9.85 2.85 10 3 C 10.15 3.15 9.9 3.5 9.75 3.75 C 9.6 4 9.45 4.05 9.25 4.25 C 9.05 4.45 8.95 4.65 8.75 4.75 C 8.55 4.85 8.35 4.85 8.25 4.75 C 8.15 4.65 8.15 4.45 8.25 4.25 C 8.35 4.05 8.6 4 8.75 3.75 C 8.9 3.5 8.75 3.15 9 3 " fill = "rgb(248, 248, 248)" stroke = "rgb(248, 248, 248)" stroke-width = "0"/>
    <path d="M 12 3 C 12.15 2.85 12.6 3.1 12.75 3.25 C 12.9 3.4 12.9 3.6 12.75 3.75 C 12.6 3.9 12.15 4.15 12 4 C 11.85 3.85 11.85 3.15 12 3 " fill = "rgb(40, 40, 40)" stroke = "rgb(40, 40, 40)" stroke-width = "0"/>
    <path d="M 5.25 4.25 C 5.45 4.15 5.6 4.1 5.75 4.25 C 5.9 4.4 6.1 4.8 6 5 C 5.9 5.2 5.45 5.05 5.25 5.25 C 5.05 5.45 5.2 5.8 5 6 C 4.8 6.2 4.45 6.05 4.25 6.25 C 4.05 6.45 4.25 6.85 4 7 C 3.75 7.15 3.15 7.15 3 7 C 2.85 6.85 3.1 6.5 3.25 6.25 C 3.4 6 3.55 5.95 3.75 5.75 C 3.95 5.55 4.05 5.45 4.25 5.25 C 4.45 5.05 4.55 4.95 4.75 4.75 C 4.95 4.55 5.05 4.35 5.25 4.25 " fill = "rgb(80, 104, 168)" stroke = "rgb(80, 104, 168)" stroke-width = "0"/>
    <path d="M 10.25 4.25 C 10.4 4.1 10.6 4.1 10.75 4.25 C 10.9 4.4 11.15 4.85 11 5 C 10.85 5.15 10.15 5.15 10 5 C 9.85 4.85 10.1 4.4 10.25 4.25 " fill = "rgb(40, 40, 40)" stroke = "rgb(40, 40, 40)" stroke-width = "0"/>
    <path d="M 4.25 6.25 C 4.45 6.05 4.9 5.9 5 6 C 5.1 6.1 4.95 6.55 4.75 6.75 C 4.55 6.95 4.1 7.1 4 7 C 3.9 6.9 4.05 6.45 4.25 6.25 " fill = "rgb(40, 40, 40)" stroke = "rgb(40, 40, 40)" stroke-width = "0"/>
    <path d="M 8.25 6.25 C 8.45 6.05 8.9 5.9 9 6 C 9.1 6.1 8.95 6.55 8.75 6.75 C 8.55 6.95 8.1 7.1 8 7 C 7.9 6.9 8.05 6.45 8.25 6.25 " fill = "rgb(40, 40, 40)" stroke = "rgb(40, 40, 40)" stroke-width = "0"/>
    <path d="M 3 9 C 3.1 8.9 3.55 9.05 3.75 9.25 C 3.95 9.45 4.1 9.9 4 10 C 3.9 10.1 3.45 9.95 3.25 9.75 C 3.05 9.55 2.9 9.1 3 9 " fill = "rgb(40, 40, 40)" stroke = "rgb(40, 40, 40)" stroke-width = "0"/>
    <path d="M 9 10 C 9.2 9.9 9.5 10.1 9.75 10.25 C 10 10.4 10.05 10.55 10.25 10.75 C 10.45 10.95 10.65 11.05 10.75 11.25 C 10.85 11.45 10.9 11.6 10.75 11.75 C 10.6 11.9 10.35 11.95 10 12 C 9.65 12.05 9.35 12.05 9 12 C 8.65 11.95 8.4 11.9 8.25 11.75 C 8.1 11.6 8.15 11.45 8.25 11.25 C 8.35 11.05 8.6 11 8.75 10.75 C 8.9 10.5 8.8 10.1 9 10 " fill = "rgb(144, 168, 232)" stroke = "rgb(144, 168, 232)" stroke-width = "0"/>
</svg>
