<svg version="1.1" baseProfile = "full" width = "23" height = "31" xmlns = "http://www.w3.org/2000/svg">
    <path d="M 0 0 C 0.2 -0.2 0.6 -3.49691e-08 1 0 C 1.4 0 1.6 -3.49691e-08 2 0 C 2.4 0 2.6 -3.49691e-08 3 0 C 3.4 0 3.6 -3.49691e-08 4 0 C 4.4 0 4.6 -3.49691e-08 5 0 C 5.4 0 5.6 -3.49691e-08 6 0 C 6.4 0 6.6 -3.49691e-08 7 0 C 7.4 0 7.6 -3.49691e-08 8 0 C 8.4 0 8.6 -3.49691e-08 9 0 C 9.4 0 9.6 -3.49691e-08 10 0 C 10.4 0 10.6 -3.49691e-08 11 0 C 11.4 0 11.6 -3.49691e-08 12 0 C 12.4 0 12.6 -3.49691e-08 13 0 C 13.4 0 13.6 -3.49691e-08 14 0 C 14.4 0 14.6 -3.49691e-08 15 0 C 15.4 0 15.6 -3.49691e-08 16 0 C 16.4 0 16.6 -3.49691e-08 17 0 C 17.4 0 17.6 -3.49691e-08 18 0 C 18.4 0 18.6 -3.49691e-08 19 0 C 19.4 0 19.6 -3.49691e-08 20 0 C 20.4 0 20.6 -3.49691e-08 21 0 C 21.4 0 21.6 -3.49691e-08 22 0 C 22.4 0 22.8 -0.2 23 0 C 23.2 0.2 23 0.6 23 1 C 23 1.4 23 1.6 23 2 C 23 2.4 23 2.6 23 3 C 23 3.4 23 3.6 23 4 C 23 4.4 23 4.6 23 5 C 23 5.4 23 5.6 23 6 C 23 6.4 23 6.6 23 7 C 23 7.4 23 7.6 23 8 C 23 8.4 23 8.6 23 9 C 23 9.4 23 9.6 23 10 C 23 10.4 23 10.6 23 11 C 23 11.4 23 11.6 23 12 C 23 12.4 23 12.6 23 13 C 23 13.4 23 13.6 23 14 C 23 14.4 23 14.6 23 15 C 23 15.4 23 15.6 23 16 C 23 16.4 23 16.6 23 17 C 23 17.4 23 17.6 23 18 C 23 18.4 23 18.6 23 19 C 23 19.4 23 19.6 23 20 C 23 20.4 23 20.6 23 21 C 23 21.4 23 21.6 23 22 C 23 22.4 23 22.6 23 23 C 23 23.4 23 23.6 23 24 C 23 24.4 23 24.6 23 25 C 23 25.4 23 25.6 23 26 C 23 26.4 23 26.6 23 27 C 23 27.4 23 27.6 23 28 C 23 28.4 23 28.6 23 29 C 23 29.4 23 29.6 23 30 C 23 30.4 23.2 30.8 23 31 C 22.8 31.2 22.4 31 22 31 C 21.6 31 21.4 31 21 31 C 20.6 31 20.4 31 20 31 C 19.6 31 19.4 31 19 31 C 18.6 31 18.4 31 18 31 C 17.6 31 17.4 31 17 31 C 16.6 31 16.4 31 16 31 C 15.6 31 15.4 31 15 31 C 14.6 31 14.4 31 14 31 C 13.6 31 13.4 31 13 31 C 12.6 31 12.4 31 12 31 C 11.6 31 11.4 31 11 31 C 10.6 31 10.4 31 10 31 C 9.6 31 9.4 31 9 31 C 8.6 31 8.4 31 8 31 C 7.6 31 7.4 31 7 31 C 6.6 31 6.4 31 6 31 C 5.6 31 5.4 31 5 31 C 4.6 31 4.4 31 4 31 C 3.6 31 3.4 31 3 31 C 2.6 31 2.4 31 2 31 C 1.6 31 1.4 31 1 31 C 0.6 31 0.2 31.2 0 31 C -0.2 30.8 3.01992e-08 30.4 0 30 C -1.74846e-08 29.6 3.01992e-08 29.4 0 29 C -1.74846e-08 28.6 3.01992e-08 28.4 0 28 C -1.74846e-08 27.6 3.01992e-08 27.4 0 27 C -1.74846e-08 26.6 3.01992e-08 26.4 0 26 C -1.74846e-08 25.6 3.01992e-08 25.4 0 25 C -1.74846e-08 24.6 3.01992e-08 24.4 0 24 C -1.74846e-08 23.6 3.01992e-08 23.4 0 23 C -1.74846e-08 22.6 3.01992e-08 22.4 0 22 C -1.74846e-08 21.6 3.01992e-08 21.4 0 21 C -1.74846e-08 20.6 3.01992e-08 20.4 0 20 C -1.74846e-08 19.6 3.01992e-08 19.4 0 19 C -1.74846e-08 18.6 3.01992e-08 18.4 0 18 C -1.74846e-08 17.6 3.01992e-08 17.4 0 17 C -1.74846e-08 16.6 3.01992e-08 16.4 0 16 C -1.74846e-08 15.6 3.01992e-08 15.4 0 15 C -1.74846e-08 14.6 3.01992e-08 14.4 0 14 C -1.74846e-08 13.6 3.01992e-08 13.4 0 13 C -1.74846e-08 12.6 3.01992e-08 12.4 0 12 C -1.74846e-08 11.6 3.01992e-08 11.4 0 11 C -1.74846e-08 10.6 3.01992e-08 10.4 0 10 C -1.74846e-08 9.6 3.01992e-08 9.4 0 9 C -1.74846e-08 8.6 3.01992e-08 8.4 0 8 C -1.74846e-08 7.6 3.01992e-08 7.4 0 7 C -1.74846e-08 6.6 3.01992e-08 6.4 0 6 C -1.74846e-08 5.6 3.01992e-08 5.4 0 5 C -1.74846e-08 4.6 3.01992e-08 4.4 0 4 C -1.74846e-08 3.6 3.01992e-08 3.4 0 3 C -1.74846e-08 2.6 3.01992e-08 2.4 0 2 C -1.74846e-08 1.6 3.01992e-08 1.4 0 1 C -1.74846e-08 0.6 -0.2 0.2 0 0 " fill = "rgb(235, 0, 235)" stroke = "rgb(235, 0, 235)" stroke-width = "0"/>
    <path d="M 12.25 1.25 C 12.5 1.1 12.85 0.85 13 1 C 13.15 1.15 13.15 1.75 13 2 C 12.85 2.25 12.45 2.05 12.25 2.25 C 12.05 2.45 12.25 2.85 12 3 C 11.75 3.15 11.15 3.15 11 3 C 10.85 2.85 11.1 2.5 11.25 2.25 C 11.4 2 11.55 1.95 11.75 1.75 C 11.95 1.55 12 1.4 12.25 1.25 " fill = "rgb(254, 245, 252)" stroke = "rgb(254, 245, 252)" stroke-width = "0"/>
    <path d="M 13 1 C 13.2 0.8 13.8 0.8 14 1 C 14.2 1.2 14.2 1.8 14 2 C 13.8 2.2 13.2 2.2 13 2 C 12.8 1.8 12.8 1.2 13 1 " fill = "rgb(252, 207, 240)" stroke = "rgb(252, 207, 240)" stroke-width = "0"/>
    <path d="M 14 1 C 14.2 0.8 14.8 0.8 15 1 C 15.2 1.2 15.2 1.8 15 2 C 14.8 2.2 14.2 2.2 14 2 C 13.8 1.8 13.8 1.2 14 1 " fill = "rgb(252, 194, 242)" stroke = "rgb(252, 194, 242)" stroke-width = "0"/>
    <path d="M 15 1 C 15.15 0.85 15.55 1.05 15.75 1.25 C 15.95 1.45 16.15 1.85 16 2 C 15.85 2.15 15.2 2.2 15 2 C 14.8 1.8 14.85 1.15 15 1 " fill = "rgb(253, 219, 248)" stroke = "rgb(253, 219, 248)" stroke-width = "0"/>
    <path d="M 12.25 2.25 C 12.45 2.05 12.85 1.85 13 2 C 13.15 2.15 13.2 2.8 13 3 C 12.8 3.2 12.15 3.15 12 3 C 11.85 2.85 12.05 2.45 12.25 2.25 " fill = "rgb(252, 213, 242)" stroke = "rgb(252, 213, 242)" stroke-width = "0"/>
    <path d="M 13 2 C 13.2 1.8 13.8 1.8 14 2 C 14.2 2.2 14.2 2.8 14 3 C 13.8 3.2 13.2 3.2 13 3 C 12.8 2.8 12.8 2.2 13 2 " fill = "rgb(247, 144, 219)" stroke = "rgb(247, 144, 219)" stroke-width = "0"/>
    <path d="M 14 2 C 14.2 1.8 14.8 1.8 15 2 C 15.2 2.2 15.2 2.8 15 3 C 14.8 3.2 14.2 3.2 14 3 C 13.8 2.8 13.8 2.2 14 2 " fill = "rgb(247, 94, 220)" stroke = "rgb(247, 94, 220)" stroke-width = "0"/>
    <path d="M 15 2 C 15.2 1.8 15.8 1.8 16 2 C 16.2 2.2 16.2 2.8 16 3 C 15.8 3.2 15.2 3.2 15 3 C 14.8 2.8 14.8 2.2 15 2 " fill = "rgb(250, 142, 233)" stroke = "rgb(250, 142, 233)" stroke-width = "0"/>
    <path d="M 16 2 C 16.2 1.8 16.8 1.8 17 2 C 17.2 2.2 17.2 2.8 17 3 C 16.8 3.2 16.2 3.2 16 3 C 15.8 2.8 15.8 2.2 16 2 " fill = "rgb(254, 234, 251)" stroke = "rgb(254, 234, 251)" stroke-width = "0"/>
    <path d="M 17 2 C 17.15 1.85 17.55 2.05 17.75 2.25 C 17.95 2.45 18.15 2.85 18 3 C 17.85 3.15 17.2 3.2 17 3 C 16.8 2.8 16.85 2.15 17 2 " fill = "rgb(255, 253, 254)" stroke = "rgb(255, 253, 254)" stroke-width = "0"/>
    <path d="M 11 3 C 11.2 2.8 11.8 2.8 12 3 C 12.2 3.2 12.2 3.8 12 4 C 11.8 4.2 11.2 4.2 11 4 C 10.8 3.8 10.8 3.2 11 3 " fill = "rgb(253, 184, 233)" stroke = "rgb(253, 184, 233)" stroke-width = "0"/>
    <path d="M 12 3 C 12.2 2.8 12.8 2.8 13 3 C 13.2 3.2 13.2 3.8 13 4 C 12.8 4.2 12.2 4.2 12 4 C 11.8 3.8 11.8 3.2 12 3 " fill = "rgb(249, 147, 220)" stroke = "rgb(249, 147, 220)" stroke-width = "0"/>
    <path d="M 13 3 C 13.2 2.8 13.8 2.8 14 3 C 14.2 3.2 14.2 3.8 14 4 C 13.8 4.2 13.2 4.2 13 4 C 12.8 3.8 12.8 3.2 13 3 " fill = "rgb(250, 255, 252)" stroke = "rgb(250, 255, 252)" stroke-width = "0"/>
    <path d="M 14 3 C 14.2 2.8 14.8 2.8 15 3 C 15.2 3.2 15.2 3.8 15 4 C 14.8 4.2 14.2 4.2 14 4 C 13.8 3.8 13.8 3.2 14 3 " fill = "rgb(250, 165, 224)" stroke = "rgb(250, 165, 224)" stroke-width = "0"/>
    <path d="M 15 3 C 15.2 2.8 15.8 2.8 16 3 C 16.2 3.2 16.2 3.8 16 4 C 15.8 4.2 15.2 4.2 15 4 C 14.8 3.8 14.8 3.2 15 3 " fill = "rgb(250, 100, 217)" stroke = "rgb(250, 100, 217)" stroke-width = "0"/>
    <path d="M 16 3 C 16.2 2.8 16.8 2.8 17 3 C 17.2 3.2 17.2 3.8 17 4 C 16.8 4.2 16.2 4.2 16 4 C 15.8 3.8 15.8 3.2 16 3 " fill = "rgb(250, 92, 227)" stroke = "rgb(250, 92, 227)" stroke-width = "0"/>
    <path d="M 17 3 C 17.2 2.8 17.8 2.8 18 3 C 18.2 3.2 18.2 3.8 18 4 C 17.8 4.2 17.2 4.2 17 4 C 16.8 3.8 16.8 3.2 17 3 " fill = "rgb(255, 243, 253)" stroke = "rgb(255, 243, 253)" stroke-width = "0"/>
    <path d="M 7.25 4.25 C 7.45 4.05 7.85 3.85 8 4 C 8.15 4.15 8.2 4.8 8 5 C 7.8 5.2 7.15 5.15 7 5 C 6.85 4.85 7.05 4.45 7.25 4.25 " fill = "rgb(208, 208, 238)" stroke = "rgb(208, 208, 238)" stroke-width = "0"/>
    <path d="M 8 4 C 8.2 3.8 8.8 3.8 9 4 C 9.2 4.2 9.2 4.8 9 5 C 8.8 5.2 8.2 5.2 8 5 C 7.8 4.8 7.8 4.2 8 4 " fill = "rgb(175, 175, 226)" stroke = "rgb(175, 175, 226)" stroke-width = "0"/>
    <path d="M 9 4 C 9.2 3.8 9.8 3.8 10 4 C 10.2 4.2 10.2 4.8 10 5 C 9.8 5.2 9.2 5.2 9 5 C 8.8 4.8 8.8 4.2 9 4 " fill = "rgb(177, 177, 227)" stroke = "rgb(177, 177, 227)" stroke-width = "0"/>
    <path d="M 10 4 C 10.2 3.8 10.8 3.8 11 4 C 11.2 4.2 11.2 4.8 11 5 C 10.8 5.2 10.2 5.2 10 5 C 9.8 4.8 9.8 4.2 10 4 " fill = "rgb(177, 178, 227)" stroke = "rgb(177, 178, 227)" stroke-width = "0"/>
    <path d="M 11 4 C 11.2 3.8 11.8 3.8 12 4 C 12.2 4.2 12.2 4.8 12 5 C 11.8 5.2 11.2 5.2 11 5 C 10.8 4.8 10.8 4.2 11 4 " fill = "rgb(176, 169, 224)" stroke = "rgb(176, 169, 224)" stroke-width = "0"/>
    <path d="M 12 4 C 12.2 3.8 12.8 3.8 13 4 C 13.2 4.2 13.2 4.8 13 5 C 12.8 5.2 12.2 5.2 12 5 C 11.8 4.8 11.8 4.2 12 4 " fill = "rgb(176, 165, 223)" stroke = "rgb(176, 165, 223)" stroke-width = "0"/>
    <path d="M 13 4 C 13.2 3.8 13.8 3.8 14 4 C 14.2 4.2 14.2 4.8 14 5 C 13.8 5.2 13.2 5.2 13 5 C 12.8 4.8 12.8 4.2 13 4 " fill = "rgb(176, 178, 226)" stroke = "rgb(176, 178, 226)" stroke-width = "0"/>
    <path d="M 14 4 C 14.2 3.8 14.8 3.8 15 4 C 15.2 4.2 15.2 4.8 15 5 C 14.8 5.2 14.2 5.2 14 5 C 13.8 4.8 13.8 4.2 14 4 " fill = "rgb(176, 166, 223)" stroke = "rgb(176, 166, 223)" stroke-width = "0"/>
    <path d="M 15 4 C 15.2 3.8 15.8 3.8 16 4 C 16.2 4.2 16.2 4.8 16 5 C 15.8 5.2 15.2 5.2 15 5 C 14.8 4.8 14.8 4.2 15 4 " fill = "rgb(176, 159, 222)" stroke = "rgb(176, 159, 222)" stroke-width = "0"/>
    <path d="M 16 4 C 16.2 3.8 16.8 3.8 17 4 C 17.2 4.2 17.2 4.8 17 5 C 16.8 5.2 16.2 5.2 16 5 C 15.8 4.8 15.8 4.2 16 4 " fill = "rgb(176, 159, 223)" stroke = "rgb(176, 159, 223)" stroke-width = "0"/>
    <path d="M 17 4 C 17.2 3.8 17.8 3.8 18 4 C 18.2 4.2 18.2 4.8 18 5 C 17.8 5.2 17.2 5.2 17 5 C 16.8 4.8 16.8 4.2 17 4 " fill = "rgb(174, 173, 225)" stroke = "rgb(174, 173, 225)" stroke-width = "0"/>
    <path d="M 18 4 C 18.15 3.85 18.55 4.05 18.75 4.25 C 18.95 4.45 19.15 4.85 19 5 C 18.85 5.15 18.2 5.2 18 5 C 17.8 4.8 17.85 4.15 18 4 " fill = "rgb(228, 228, 245)" stroke = "rgb(228, 228, 245)" stroke-width = "0"/>
    <path d="M 4.25 5.25 C 4.45 5.05 4.85 4.85 5 5 C 5.15 5.15 5.2 5.8 5 6 C 4.8 6.2 4.15 6.15 4 6 C 3.85 5.85 4.05 5.45 4.25 5.25 " fill = "rgb(231, 232, 246)" stroke = "rgb(231, 232, 246)" stroke-width = "0"/>
    <path d="M 5 5 C 5.2 4.8 5.8 4.8 6 5 C 6.2 5.2 6.2 5.8 6 6 C 5.8 6.2 5.2 6.2 5 6 C 4.8 5.8 4.8 5.2 5 5 " fill = "rgb(192, 193, 232)" stroke = "rgb(192, 193, 232)" stroke-width = "0"/>
    <path d="M 6 5 C 6.2 4.8 6.8 4.8 7 5 C 7.2 5.2 7.2 5.8 7 6 C 6.8 6.2 6.2 6.2 6 6 C 5.8 5.8 5.8 5.2 6 5 " fill = "rgb(195, 195, 233)" stroke = "rgb(195, 195, 233)" stroke-width = "0"/>
    <path d="M 7 5 C 7.2 4.8 7.8 4.8 8 5 C 8.2 5.2 8.2 5.8 8 6 C 7.8 6.2 7.2 6.2 7 6 C 6.8 5.8 6.8 5.2 7 5 " fill = "rgb(187, 184, 234)" stroke = "rgb(187, 184, 234)" stroke-width = "0"/>
    <path d="M 8 5 C 8.2 4.8 8.8 4.8 9 5 C 9.2 5.2 9.2 5.8 9 6 C 8.8 6.2 8.2 6.2 8 6 C 7.8 5.8 7.8 5.2 8 5 " fill = "rgb(182, 177, 234)" stroke = "rgb(182, 177, 234)" stroke-width = "0"/>
    <path d="M 9 5 C 9.2 4.8 9.6 5 10 5 C 10.4 5 10.8 4.8 11 5 C 11.2 5.2 11.2 5.8 11 6 C 10.8 6.2 10.4 6 10 6 C 9.6 6 9.2 6.2 9 6 C 8.8 5.8 8.8 5.2 9 5 " fill = "rgb(183, 177, 234)" stroke = "rgb(183, 177, 234)" stroke-width = "0"/>
    <path d="M 11 5 C 11.2 4.8 11.8 4.8 12 5 C 12.2 5.2 12.2 5.8 12 6 C 11.8 6.2 11.2 6.2 11 6 C 10.8 5.8 10.8 5.2 11 5 " fill = "rgb(183, 178, 234)" stroke = "rgb(183, 178, 234)" stroke-width = "0"/>
    <path d="M 12 5 C 12.2 4.8 12.8 4.8 13 5 C 13.2 5.2 13.2 5.8 13 6 C 12.8 6.2 12.2 6.2 12 6 C 11.8 5.8 11.8 5.2 12 5 " fill = "rgb(183, 178, 235)" stroke = "rgb(183, 178, 235)" stroke-width = "0"/>
    <path d="M 13 5 C 13.2 4.8 13.8 4.8 14 5 C 14.2 5.2 14.2 5.8 14 6 C 13.8 6.2 13.2 6.2 13 6 C 12.8 5.8 12.8 5.2 13 5 " fill = "rgb(183, 177, 234)" stroke = "rgb(183, 177, 234)" stroke-width = "0"/>
    <path d="M 14 5 C 14.2 4.8 14.6 5 15 5 C 15.4 5 15.8 4.8 16 5 C 16.2 5.2 16.2 5.8 16 6 C 15.8 6.2 15.4 6 15 6 C 14.6 6 14.2 6.2 14 6 C 13.8 5.8 13.8 5.2 14 5 " fill = "rgb(183, 178, 235)" stroke = "rgb(183, 178, 235)" stroke-width = "0"/>
    <path d="M 16 5 C 16.2 4.8 16.8 4.8 17 5 C 17.2 5.2 17.2 5.8 17 6 C 16.8 6.2 16.2 6.2 16 6 C 15.8 5.8 15.8 5.2 16 5 " fill = "rgb(183, 178, 234)" stroke = "rgb(183, 178, 234)" stroke-width = "0"/>
    <path d="M 17 5 C 17.2 4.8 17.8 4.8 18 5 C 18.2 5.2 18.2 5.8 18 6 C 17.8 6.2 17.2 6.2 17 6 C 16.8 5.8 16.8 5.2 17 5 " fill = "rgb(182, 177, 234)" stroke = "rgb(182, 177, 234)" stroke-width = "0"/>
    <path d="M 18 5 C 18.2 4.8 18.8 4.8 19 5 C 19.2 5.2 19.2 5.8 19 6 C 18.8 6.2 18.2 6.2 18 6 C 17.8 5.8 17.8 5.2 18 5 " fill = "rgb(189, 187, 233)" stroke = "rgb(189, 187, 233)" stroke-width = "0"/>
    <path d="M 19 5 C 19.15 4.85 19.55 5.05 19.75 5.25 C 19.95 5.45 20.15 5.85 20 6 C 19.85 6.15 19.2 6.2 19 6 C 18.8 5.8 18.85 5.15 19 5 " fill = "rgb(216, 216, 240)" stroke = "rgb(216, 216, 240)" stroke-width = "0"/>
    <path d="M 3.25 6.25 C 3.45 6.05 3.85 5.85 4 6 C 4.15 6.15 4.2 6.8 4 7 C 3.8 7.2 3.15 7.15 3 7 C 2.85 6.85 3.05 6.45 3.25 6.25 " fill = "rgb(225, 226, 244)" stroke = "rgb(225, 226, 244)" stroke-width = "0"/>
    <path d="M 4 6 C 4.2 5.8 4.8 5.8 5 6 C 5.2 6.2 5.2 6.8 5 7 C 4.8 7.2 4.2 7.2 4 7 C 3.8 6.8 3.8 6.2 4 6 " fill = "rgb(197, 195, 235)" stroke = "rgb(197, 195, 235)" stroke-width = "0"/>
    <path d="M 5 6 C 5.2 5.8 5.8 5.8 6 6 C 6.2 6.2 6.2 6.8 6 7 C 5.8 7.2 5.2 7.2 5 7 C 4.8 6.8 4.8 6.2 5 6 " fill = "rgb(177, 173, 230)" stroke = "rgb(177, 173, 230)" stroke-width = "0"/>
    <path d="M 6 6 C 6.2 5.8 6.8 5.8 7 6 C 7.2 6.2 7.2 6.8 7 7 C 6.8 7.2 6.2 7.2 6 7 C 5.8 6.8 5.8 6.2 6 6 " fill = "rgb(184, 184, 230)" stroke = "rgb(184, 184, 230)" stroke-width = "0"/>
    <path d="M 7 6 C 7.2 5.8 7.8 5.8 8 6 C 8.2 6.2 8.2 6.8 8 7 C 7.8 7.2 7.2 7.2 7 7 C 6.8 6.8 6.8 6.2 7 6 " fill = "rgb(194, 191, 236)" stroke = "rgb(194, 191, 236)" stroke-width = "0"/>
    <path d="M 8 6 C 8.2 5.8 8.8 5.8 9 6 C 9.2 6.2 9.2 6.8 9 7 C 8.8 7.2 8.2 7.2 8 7 C 7.8 6.8 7.8 6.2 8 6 " fill = "rgb(200, 195, 240)" stroke = "rgb(200, 195, 240)" stroke-width = "0"/>
    <path d="M 9 6 C 9.2 5.8 9.6 6 10 6 C 10.4 6 10.6 6 11 6 C 11.4 6 11.6 6 12 6 C 12.4 6 12.6 6 13 6 C 13.4 6 13.6 6 14 6 C 14.4 6 14.6 6 15 6 C 15.4 6 15.6 6 16 6 C 16.4 6 16.8 5.8 17 6 C 17.2 6.2 17.2 6.8 17 7 C 16.8 7.2 16.4 7 16 7 C 15.6 7 15.4 7 15 7 C 14.6 7 14.4 7 14 7 C 13.6 7 13.4 7 13 7 C 12.6 7 12.4 7 12 7 C 11.6 7 11.4 7 11 7 C 10.6 7 10.4 7 10 7 C 9.6 7 9.2 7.2 9 7 C 8.8 6.8 8.8 6.2 9 6 " fill = "rgb(199, 195, 240)" stroke = "rgb(199, 195, 240)" stroke-width = "0"/>
    <path d="M 17 6 C 17.2 5.8 17.8 5.8 18 6 C 18.2 6.2 18.2 6.8 18 7 C 17.8 7.2 17.2 7.2 17 7 C 16.8 6.8 16.8 6.2 17 6 " fill = "rgb(200, 196, 240)" stroke = "rgb(200, 196, 240)" stroke-width = "0"/>
    <path d="M 18 6 C 18.2 5.8 18.8 5.8 19 6 C 19.2 6.2 19.2 6.8 19 7 C 18.8 7.2 18.2 7.2 18 7 C 17.8 6.8 17.8 6.2 18 6 " fill = "rgb(185, 181, 234)" stroke = "rgb(185, 181, 234)" stroke-width = "0"/>
    <path d="M 19 6 C 19.2 5.8 19.8 5.8 20 6 C 20.2 6.2 20.2 6.8 20 7 C 19.8 7.2 19.2 7.2 19 7 C 18.8 6.8 18.8 6.2 19 6 " fill = "rgb(188, 186, 233)" stroke = "rgb(188, 186, 233)" stroke-width = "0"/>
    <path d="M 20 6 C 20.2 5.8 20.8 5.8 21 6 C 21.2 6.2 21.2 6.8 21 7 C 20.8 7.2 20.2 7.2 20 7 C 19.8 6.8 19.8 6.2 20 6 " fill = "rgb(215, 215, 240)" stroke = "rgb(215, 215, 240)" stroke-width = "0"/>
    <path d="M 21 6 C 21.15 5.85 21.55 6.05 21.75 6.25 C 21.95 6.45 22.15 6.85 22 7 C 21.85 7.15 21.2 7.2 21 7 C 20.8 6.8 20.85 6.15 21 6 " fill = "rgb(248, 248, 252)" stroke = "rgb(248, 248, 252)" stroke-width = "0"/>
    <path d="M 1.25 7.25 C 1.45 7.05 1.85 6.85 2 7 C 2.15 7.15 2.2 7.8 2 8 C 1.8 8.2 1.15 8.15 1 8 C 0.85 7.85 1.05 7.45 1.25 7.25 " fill = "rgb(249, 249, 253)" stroke = "rgb(249, 249, 253)" stroke-width = "0"/>
    <path d="M 2 7 C 2.2 6.8 2.8 6.8 3 7 C 3.2 7.2 3.2 7.8 3 8 C 2.8 8.2 2.2 8.2 2 8 C 1.8 7.8 1.8 7.2 2 7 " fill = "rgb(232, 232, 246)" stroke = "rgb(232, 232, 246)" stroke-width = "0"/>
    <path d="M 3 7 C 3.2 6.8 3.8 6.8 4 7 C 4.2 7.2 4.2 7.8 4 8 C 3.8 8.2 3.2 8.2 3 8 C 2.8 7.8 2.8 7.2 3 7 " fill = "rgb(188, 186, 232)" stroke = "rgb(188, 186, 232)" stroke-width = "0"/>
    <path d="M 4 7 C 4.2 6.8 4.8 6.8 5 7 C 5.2 7.2 5.2 7.8 5 8 C 4.8 8.2 4.2 8.2 4 8 C 3.8 7.8 3.8 7.2 4 7 " fill = "rgb(181, 177, 232)" stroke = "rgb(181, 177, 232)" stroke-width = "0"/>
    <path d="M 5 7 C 5.2 6.8 5.8 6.8 6 7 C 6.2 7.2 6.2 7.8 6 8 C 5.8 8.2 5.2 8.2 5 8 C 4.8 7.8 4.8 7.2 5 7 " fill = "rgb(200, 194, 241)" stroke = "rgb(200, 194, 241)" stroke-width = "0"/>
    <path d="M 6 7 C 6.2 6.8 6.8 6.8 7 7 C 7.2 7.2 7.2 7.8 7 8 C 6.8 8.2 6.2 8.2 6 8 C 5.8 7.8 5.8 7.2 6 7 " fill = "rgb(214, 213, 242)" stroke = "rgb(214, 213, 242)" stroke-width = "0"/>
    <path d="M 7 7 C 7.2 6.8 7.8 6.8 8 7 C 8.2 7.2 8.2 7.8 8 8 C 7.8 8.2 7.2 8.2 7 8 C 6.8 7.8 6.8 7.2 7 7 " fill = "rgb(215, 216, 242)" stroke = "rgb(215, 216, 242)" stroke-width = "0"/>
    <path d="M 8 7 C 8.2 6.8 8.6 7 9 7 C 9.4 7 9.6 7 10 7 C 10.4 7 10.6 7 11 7 C 11.4 7 11.6 7 12 7 C 12.4 7 12.6 7 13 7 C 13.4 7 13.6 7 14 7 C 14.4 7 14.6 7 15 7 C 15.4 7 15.6 7 16 7 C 16.4 7 16.8 6.8 17 7 C 17.2 7.2 17.2 7.8 17 8 C 16.8 8.2 16.4 8 16 8 C 15.6 8 15.4 8 15 8 C 14.6 8 14.4 8 14 8 C 13.6 8 13.4 8 13 8 C 12.6 8 12.4 8 12 8 C 11.6 8 11.4 8 11 8 C 10.6 8 10.4 8 10 8 C 9.6 8 9.4 8 9 8 C 8.6 8 8.2 8.2 8 8 C 7.8 7.8 7.8 7.2 8 7 " fill = "rgb(215, 215, 242)" stroke = "rgb(215, 215, 242)" stroke-width = "0"/>
    <path d="M 17 7 C 17.2 6.8 17.8 6.8 18 7 C 18.2 7.2 18.2 7.8 18 8 C 17.8 8.2 17.2 8.2 17 8 C 16.8 7.8 16.8 7.2 17 7 " fill = "rgb(216, 216, 242)" stroke = "rgb(216, 216, 242)" stroke-width = "0"/>
    <path d="M 18 7 C 18.2 6.8 18.8 6.8 19 7 C 19.2 7.2 19.2 7.8 19 8 C 18.8 8.2 18.2 8.2 18 8 C 17.8 7.8 17.8 7.2 18 7 " fill = "rgb(204, 201, 241)" stroke = "rgb(204, 201, 241)" stroke-width = "0"/>
    <path d="M 19 7 C 19.2 6.8 19.8 6.8 20 7 C 20.2 7.2 20.2 7.8 20 8 C 19.8 8.2 19.2 8.2 19 8 C 18.8 7.8 18.8 7.2 19 7 " fill = "rgb(186, 182, 234)" stroke = "rgb(186, 182, 234)" stroke-width = "0"/>
    <path d="M 20 7 C 20.2 6.8 20.8 6.8 21 7 C 21.2 7.2 21.2 7.8 21 8 C 20.8 8.2 20.2 8.2 20 8 C 19.8 7.8 19.8 7.2 20 7 " fill = "rgb(167, 167, 223)" stroke = "rgb(167, 167, 223)" stroke-width = "0"/>
    <path d="M 21 7 C 21.2 6.8 21.8 6.8 22 7 C 22.2 7.2 22.2 7.8 22 8 C 21.8 8.2 21.2 8.2 21 8 C 20.8 7.8 20.8 7.2 21 7 " fill = "rgb(240, 240, 250)" stroke = "rgb(240, 240, 250)" stroke-width = "0"/>
    <path d="M 1 8 C 1.2 7.8 1.8 7.8 2 8 C 2.2 8.2 2.2 8.8 2 9 C 1.8 9.2 1.2 9.2 1 9 C 0.8 8.8 0.8 8.2 1 8 " fill = "rgb(236, 236, 248)" stroke = "rgb(236, 236, 248)" stroke-width = "0"/>
    <path d="M 2 8 C 2.2 7.8 2.8 7.8 3 8 C 3.2 8.2 3.2 8.8 3 9 C 2.8 9.2 2.2 9.2 2 9 C 1.8 8.8 1.8 8.2 2 8 " fill = "rgb(165, 165, 223)" stroke = "rgb(165, 165, 223)" stroke-width = "0"/>
    <path d="M 3 8 C 3.2 7.8 3.8 7.8 4 8 C 4.2 8.2 4.2 8.8 4 9 C 3.8 9.2 3.2 9.2 3 9 C 2.8 8.8 2.8 8.2 3 8 " fill = "rgb(185, 180, 235)" stroke = "rgb(185, 180, 235)" stroke-width = "0"/>
    <path d="M 4 8 C 4.2 7.8 4.8 7.8 5 8 C 5.2 8.2 5.2 8.8 5 9 C 4.8 9.2 4.2 9.2 4 9 C 3.8 8.8 3.8 8.2 4 8 " fill = "rgb(201, 196, 240)" stroke = "rgb(201, 196, 240)" stroke-width = "0"/>
    <path d="M 5 8 C 5.2 7.8 5.8 7.8 6 8 C 6.2 8.2 6.2 8.8 6 9 C 5.8 9.2 5.2 9.2 5 9 C 4.8 8.8 4.8 8.2 5 8 " fill = "rgb(214, 214, 241)" stroke = "rgb(214, 214, 241)" stroke-width = "0"/>
    <path d="M 6 8 C 6.2 7.8 6.8 7.8 7 8 C 7.2 8.2 7.2 8.8 7 9 C 6.8 9.2 6.2 9.2 6 9 C 5.8 8.8 5.8 8.2 6 8 " fill = "rgb(231, 231, 247)" stroke = "rgb(231, 231, 247)" stroke-width = "0"/>
    <path d="M 7 8 C 7.2 7.8 7.6 8 8 8 C 8.4 8 8.8 7.8 9 8 C 9.2 8.2 9.2 8.8 9 9 C 8.8 9.2 8.4 9 8 9 C 7.6 9 7.2 9.2 7 9 C 6.8 8.8 6.8 8.2 7 8 " fill = "rgb(233, 233, 248)" stroke = "rgb(233, 233, 248)" stroke-width = "0"/>
    <path d="M 9 8 C 9.2 7.8 9.6 8 10 8 C 10.4 8 10.6 8 11 8 C 11.4 8 11.6 8 12 8 C 12.4 8 12.6 8 13 8 C 13.4 8 13.6 8 14 8 C 14.4 8 14.8 7.8 15 8 C 15.2 8.2 15.2 8.8 15 9 C 14.8 9.2 14.4 9 14 9 C 13.6 9 13.4 9 13 9 C 12.6 9 12.4 9 12 9 C 11.6 9 11.4 9 11 9 C 10.6 9 10.4 9 10 9 C 9.6 9 9.2 9.2 9 9 C 8.8 8.8 8.8 8.2 9 8 " fill = "rgb(234, 234, 248)" stroke = "rgb(234, 234, 248)" stroke-width = "0"/>
    <path d="M 15 8 C 15.2 7.8 15.8 7.8 16 8 C 16.2 8.2 16.2 8.8 16 9 C 15.8 9.2 15.2 9.2 15 9 C 14.8 8.8 14.8 8.2 15 8 " fill = "rgb(233, 233, 248)" stroke = "rgb(233, 233, 248)" stroke-width = "0"/>
    <path d="M 16 8 C 16.2 7.8 16.8 7.8 17 8 C 17.2 8.2 17.2 8.8 17 9 C 16.8 9.2 16.2 9.2 16 9 C 15.8 8.8 15.8 8.2 16 8 " fill = "rgb(232, 232, 248)" stroke = "rgb(232, 232, 248)" stroke-width = "0"/>
    <path d="M 17 8 C 17.2 7.8 17.8 7.8 18 8 C 18.2 8.2 18.2 8.8 18 9 C 17.8 9.2 17.2 9.2 17 9 C 16.8 8.8 16.8 8.2 17 8 " fill = "rgb(231, 231, 248)" stroke = "rgb(231, 231, 248)" stroke-width = "0"/>
    <path d="M 18 8 C 18.2 7.8 18.8 7.8 19 8 C 19.2 8.2 19.2 8.8 19 9 C 18.8 9.2 18.2 9.2 18 9 C 17.8 8.8 17.8 8.2 18 8 " fill = "rgb(216, 216, 243)" stroke = "rgb(216, 216, 243)" stroke-width = "0"/>
    <path d="M 19 8 C 19.2 7.8 19.8 7.8 20 8 C 20.2 8.2 20.2 8.8 20 9 C 19.8 9.2 19.2 9.2 19 9 C 18.8 8.8 18.8 8.2 19 8 " fill = "rgb(193, 193, 234)" stroke = "rgb(193, 193, 234)" stroke-width = "0"/>
    <path d="M 20 8 C 20.2 7.8 20.8 7.8 21 8 C 21.2 8.2 21.2 8.8 21 9 C 20.8 9.2 20.2 9.2 20 9 C 19.8 8.8 19.8 8.2 20 8 " fill = "rgb(169, 169, 224)" stroke = "rgb(169, 169, 224)" stroke-width = "0"/>
    <path d="M 21 8 C 21.2 7.8 21.8 7.8 22 8 C 22.2 8.2 22 8.6 22 9 C 22 9.4 22 9.6 22 10 C 22 10.4 22 10.6 22 11 C 22 11.4 22 11.6 22 12 C 22 12.4 22 12.6 22 13 C 22 13.4 22 13.6 22 14 C 22 14.4 22.2 14.8 22 15 C 21.8 15.2 21.2 15.2 21 15 C 20.8 14.8 21 14.4 21 14 C 21 13.6 21 13.4 21 13 C 21 12.6 21 12.4 21 12 C 21 11.6 21 11.4 21 11 C 21 10.6 21 10.4 21 10 C 21 9.6 21 9.4 21 9 C 21 8.6 20.8 8.2 21 8 " fill = "rgb(241, 241, 250)" stroke = "rgb(241, 241, 250)" stroke-width = "0"/>
    <path d="M 1 9 C 1.2 8.8 1.8 8.8 2 9 C 2.2 9.2 2.2 9.8 2 10 C 1.8 10.2 1.2 10.2 1 10 C 0.8 9.8 0.8 9.2 1 9 " fill = "rgb(242, 240, 252)" stroke = "rgb(242, 240, 252)" stroke-width = "0"/>
    <path d="M 2 9 C 2.2 8.8 2.8 8.8 3 9 C 3.2 9.2 3.2 9.8 3 10 C 2.8 10.2 2.2 10.2 2 10 C 1.8 9.8 1.8 9.2 2 9 " fill = "rgb(190, 181, 239)" stroke = "rgb(190, 181, 239)" stroke-width = "0"/>
    <path d="M 3 9 C 3.2 8.8 3.8 8.8 4 9 C 4.2 9.2 4.2 9.8 4 10 C 3.8 10.2 3.2 10.2 3 10 C 2.8 9.8 2.8 9.2 3 9 " fill = "rgb(202, 201, 245)" stroke = "rgb(202, 201, 245)" stroke-width = "0"/>
    <path d="M 4 9 C 4.2 8.8 4.8 8.8 5 9 C 5.2 9.2 5.2 9.8 5 10 C 4.8 10.2 4.2 10.2 4 10 C 3.8 9.8 3.8 9.2 4 9 " fill = "rgb(217, 221, 251)" stroke = "rgb(217, 221, 251)" stroke-width = "0"/>
    <path d="M 5 9 C 5.2 8.8 5.8 8.8 6 9 C 6.2 9.2 6.2 9.8 6 10 C 5.8 10.2 5.2 10.2 5 10 C 4.8 9.8 4.8 9.2 5 9 " fill = "rgb(233, 236, 255)" stroke = "rgb(233, 236, 255)" stroke-width = "0"/>
    <path d="M 6 9 C 6.2 8.8 6.8 8.8 7 9 C 7.2 9.2 7.2 9.8 7 10 C 6.8 10.2 6.2 10.2 6 10 C 5.8 9.8 5.8 9.2 6 9 " fill = "rgb(231, 234, 253)" stroke = "rgb(231, 234, 253)" stroke-width = "0"/>
    <path d="M 7 9 C 7.2 8.8 7.8 8.8 8 9 C 8.2 9.2 8.2 9.8 8 10 C 7.8 10.2 7.2 10.2 7 10 C 6.8 9.8 6.8 9.2 7 9 " fill = "rgb(231, 233, 253)" stroke = "rgb(231, 233, 253)" stroke-width = "0"/>
    <path d="M 8 9 C 8.2 8.8 8.8 8.8 9 9 C 9.2 9.2 9.2 9.8 9 10 C 8.8 10.2 8.2 10.2 8 10 C 7.8 9.8 7.8 9.2 8 9 " fill = "rgb(236, 238, 251)" stroke = "rgb(236, 238, 251)" stroke-width = "0"/>
    <path d="M 9 9 C 9.2 8.8 9.8 8.8 10 9 C 10.2 9.2 10.2 9.8 10 10 C 9.8 10.2 9.2 10.2 9 10 C 8.8 9.8 8.8 9.2 9 9 " fill = "rgb(249, 249, 248)" stroke = "rgb(249, 249, 248)" stroke-width = "0"/>
    <path d="M 10 9 C 10.2 8.8 10.6 9 11 9 C 11.4 9 11.6 9 12 9 C 12.4 9 12.6 9 13 9 C 13.4 9 13.8 8.8 14 9 C 14.2 9.2 14.2 9.8 14 10 C 13.8 10.2 13.4 10 13 10 C 12.6 10 12.4 10 12 10 C 11.6 10 11.4 10 11 10 C 10.6 10 10.2 10.2 10 10 C 9.8 9.8 9.8 9.2 10 9 " fill = "rgb(248, 248, 248)" stroke = "rgb(248, 248, 248)" stroke-width = "0"/>
    <path d="M 14 9 C 14.2 8.8 14.8 8.8 15 9 C 15.2 9.2 15.2 9.8 15 10 C 14.8 10.2 14.2 10.2 14 10 C 13.8 9.8 13.8 9.2 14 9 " fill = "rgb(249, 249, 248)" stroke = "rgb(249, 249, 248)" stroke-width = "0"/>
    <path d="M 15 9 C 15.2 8.8 15.8 8.8 16 9 C 16.2 9.2 16.2 9.8 16 10 C 15.8 10.2 15.2 10.2 15 10 C 14.8 9.8 14.8 9.2 15 9 " fill = "rgb(242, 242, 248)" stroke = "rgb(242, 242, 248)" stroke-width = "0"/>
    <path d="M 16 9 C 16.2 8.8 16.8 8.8 17 9 C 17.2 9.2 17.2 9.8 17 10 C 16.8 10.2 16.2 10.2 16 10 C 15.8 9.8 15.8 9.2 16 9 " fill = "rgb(229, 229, 247)" stroke = "rgb(229, 229, 247)" stroke-width = "0"/>
    <path d="M 17 9 C 17.2 8.8 17.8 8.8 18 9 C 18.2 9.2 18.2 9.8 18 10 C 17.8 10.2 17.2 10.2 17 10 C 16.8 9.8 16.8 9.2 17 9 " fill = "rgb(211, 211, 240)" stroke = "rgb(211, 211, 240)" stroke-width = "0"/>
    <path d="M 18 9 C 18.2 8.8 18.8 8.8 19 9 C 19.2 9.2 19.2 9.8 19 10 C 18.8 10.2 18.2 10.2 18 10 C 17.8 9.8 17.8 9.2 18 9 " fill = "rgb(198, 193, 240)" stroke = "rgb(198, 193, 240)" stroke-width = "0"/>
    <path d="M 19 9 C 19.2 8.8 19.8 8.8 20 9 C 20.2 9.2 20.2 9.8 20 10 C 19.8 10.2 19.2 10.2 19 10 C 18.8 9.8 18.8 9.2 19 9 " fill = "rgb(183, 177, 234)" stroke = "rgb(183, 177, 234)" stroke-width = "0"/>
    <path d="M 20 9 C 20.2 8.8 20.8 8.8 21 9 C 21.2 9.2 21 9.6 21 10 C 21 10.4 21 10.6 21 11 C 21 11.4 21 11.6 21 12 C 21 12.4 21 12.6 21 13 C 21 13.4 21.2 13.8 21 14 C 20.8 14.2 20.2 14.2 20 14 C 19.8 13.8 20 13.4 20 13 C 20 12.6 20 12.4 20 12 C 20 11.6 20 11.4 20 11 C 20 10.6 20 10.4 20 10 C 20 9.6 19.8 9.2 20 9 " fill = "rgb(170, 170, 224)" stroke = "rgb(170, 170, 224)" stroke-width = "0"/>
    <path d="M 1 10 C 1.2 9.8 1.8 9.8 2 10 C 2.2 10.2 2.2 10.8 2 11 C 1.8 11.2 1.2 11.2 1 11 C 0.8 10.8 0.8 10.2 1 10 " fill = "rgb(244, 244, 252)" stroke = "rgb(244, 244, 252)" stroke-width = "0"/>
    <path d="M 2 10 C 2.2 9.8 2.8 9.8 3 10 C 3.2 10.2 3.2 10.8 3 11 C 2.8 11.2 2.2 11.2 2 11 C 1.8 10.8 1.8 10.2 2 10 " fill = "rgb(204, 204, 245)" stroke = "rgb(204, 204, 245)" stroke-width = "0"/>
    <path d="M 3 10 C 3.2 9.8 3.8 9.8 4 10 C 4.2 10.2 4.2 10.8 4 11 C 3.8 11.2 3.2 11.2 3 11 C 2.8 10.8 2.8 10.2 3 10 " fill = "rgb(216, 174, 134)" stroke = "rgb(216, 174, 134)" stroke-width = "0"/>
    <path d="M 4 10 C 4.2 9.8 4.8 9.8 5 10 C 5.2 10.2 5.2 10.8 5 11 C 4.8 11.2 4.2 11.2 4 11 C 3.8 10.8 3.8 10.2 4 10 " fill = "rgb(225, 166, 90)" stroke = "rgb(225, 166, 90)" stroke-width = "0"/>
    <path d="M 5 10 C 5.2 9.8 5.8 9.8 6 10 C 6.2 10.2 6.2 10.8 6 11 C 5.8 11.2 5.2 11.2 5 11 C 4.8 10.8 4.8 10.2 5 10 " fill = "rgb(233, 176, 102)" stroke = "rgb(233, 176, 102)" stroke-width = "0"/>
    <path d="M 6 10 C 6.2 9.8 6.8 9.8 7 10 C 7.2 10.2 7.2 10.8 7 11 C 6.8 11.2 6.2 11.2 6 11 C 5.8 10.8 5.8 10.2 6 10 " fill = "rgb(244, 198, 148)" stroke = "rgb(244, 198, 148)" stroke-width = "0"/>
    <path d="M 7 10 C 7.2 9.8 7.8 9.8 8 10 C 8.2 10.2 8.2 10.8 8 11 C 7.8 11.2 7.2 11.2 7 11 C 6.8 10.8 6.8 10.2 7 10 " fill = "rgb(245, 200, 151)" stroke = "rgb(245, 200, 151)" stroke-width = "0"/>
    <path d="M 8 10 C 8.2 9.8 8.8 9.8 9 10 C 9.2 10.2 9.2 10.8 9 11 C 8.8 11.2 8.2 11.2 8 11 C 7.8 10.8 7.8 10.2 8 10 " fill = "rgb(241, 211, 183)" stroke = "rgb(241, 211, 183)" stroke-width = "0"/>
    <path d="M 9 10 C 9.2 9.8 9.8 9.8 10 10 C 10.2 10.2 10.2 10.8 10 11 C 9.8 11.2 9.2 11.2 9 11 C 8.8 10.8 8.8 10.2 9 10 " fill = "rgb(234, 238, 255)" stroke = "rgb(234, 238, 255)" stroke-width = "0"/>
    <path d="M 10 10 C 10.2 9.8 10.6 10 11 10 C 11.4 10 11.6 10 12 10 C 12.4 10 12.6 10 13 10 C 13.4 10 13.8 9.8 14 10 C 14.2 10.2 14.2 10.8 14 11 C 13.8 11.2 13.4 11 13 11 C 12.6 11 12.4 11 12 11 C 11.6 11 11.4 11 11 11 C 10.6 11 10.2 11.2 10 11 C 9.8 10.8 9.8 10.2 10 10 " fill = "rgb(234, 236, 252)" stroke = "rgb(234, 236, 252)" stroke-width = "0"/>
    <path d="M 14 10 C 14.2 9.8 14.8 9.8 15 10 C 15.2 10.2 15.2 10.8 15 11 C 14.8 11.2 14.2 11.2 14 11 C 13.8 10.8 13.8 10.2 14 10 " fill = "rgb(235, 237, 252)" stroke = "rgb(235, 237, 252)" stroke-width = "0"/>
    <path d="M 15 10 C 15.2 9.8 15.8 9.8 16 10 C 16.2 10.2 16.2 10.8 16 11 C 15.8 11.2 15.2 11.2 15 11 C 14.8 10.8 14.8 10.2 15 10 " fill = "rgb(225, 226, 247)" stroke = "rgb(225, 226, 247)" stroke-width = "0"/>
    <path d="M 16 10 C 16.2 9.8 16.8 9.8 17 10 C 17.2 10.2 17.2 10.8 17 11 C 16.8 11.2 16.2 11.2 16 11 C 15.8 10.8 15.8 10.2 16 10 " fill = "rgb(209, 209, 241)" stroke = "rgb(209, 209, 241)" stroke-width = "0"/>
    <path d="M 17 10 C 17.2 9.8 17.85 9.85 18 10 C 18.15 10.15 17.95 10.55 17.75 10.75 C 17.55 10.95 17.15 11.15 17 11 C 16.85 10.85 16.8 10.2 17 10 " fill = "rgb(196, 190, 240)" stroke = "rgb(196, 190, 240)" stroke-width = "0"/>
    <path d="M 18 10 C 18.25 9.85 18.8 9.8 19 10 C 19.2 10.2 19.15 10.75 19 11 C 18.85 11.25 18.45 11.05 18.25 11.25 C 18.05 11.45 18.05 11.65 18 12 C 17.95 12.35 18 12.6 18 13 C 18 13.4 18 13.6 18 14 C 18 14.4 18.2 14.8 18 15 C 17.8 15.2 17.2 15.2 17 15 C 16.8 14.8 17 14.4 17 14 C 17 13.6 17 13.4 17 13 C 17 12.6 17 12.4 17 12 C 17 11.6 16.85 11.25 17 11 C 17.15 10.75 17.55 10.95 17.75 10.75 C 17.95 10.55 17.75 10.15 18 10 " fill = "rgb(193, 185, 240)" stroke = "rgb(193, 185, 240)" stroke-width = "0"/>
    <path d="M 19 10 C 19.2 9.8 19.8 9.8 20 10 C 20.2 10.2 20 10.6 20 11 C 20 11.4 20 11.6 20 12 C 20 12.4 20 12.6 20 13 C 20 13.4 20 13.6 20 14 C 20 14.4 20.2 14.8 20 15 C 19.8 15.2 19.2 15.2 19 15 C 18.8 14.8 19 14.4 19 14 C 19 13.6 19 13.4 19 13 C 19 12.6 19 12.4 19 12 C 19 11.6 19 11.4 19 11 C 19 10.6 18.8 10.2 19 10 " fill = "rgb(183, 178, 234)" stroke = "rgb(183, 178, 234)" stroke-width = "0"/>
    <path d="M 1 11 C 1.2 10.8 1.8 10.8 2 11 C 2.2 11.2 2 11.6 2 12 C 2 12.4 2 12.6 2 13 C 2 13.4 2 13.6 2 14 C 2 14.4 2 14.6 2 15 C 2 15.4 2.2 15.8 2 16 C 1.8 16.2 1.2 16.2 1 16 C 0.8 15.8 1 15.4 1 15 C 1 14.6 1 14.4 1 14 C 1 13.6 1 13.4 1 13 C 1 12.6 1 12.4 1 12 C 1 11.6 0.8 11.2 1 11 " fill = "rgb(245, 245, 252)" stroke = "rgb(245, 245, 252)" stroke-width = "0"/>
    <path d="M 2 11 C 2.2 10.8 2.8 10.8 3 11 C 3.2 11.2 3 11.6 3 12 C 3 12.4 3 12.6 3 13 C 3 13.4 3 13.6 3 14 C 3 14.4 3.2 14.8 3 15 C 2.8 15.2 2.2 15.2 2 15 C 1.8 14.8 2 14.4 2 14 C 2 13.6 2 13.4 2 13 C 2 12.6 2 12.4 2 12 C 2 11.6 1.8 11.2 2 11 " fill = "rgb(207, 210, 247)" stroke = "rgb(207, 210, 247)" stroke-width = "0"/>
    <path d="M 3 11 C 3.2 10.8 3.8 10.8 4 11 C 4.2 11.2 4.2 11.8 4 12 C 3.8 12.2 3.2 12.2 3 12 C 2.8 11.8 2.8 11.2 3 11 " fill = "rgb(222, 169, 107)" stroke = "rgb(222, 169, 107)" stroke-width = "0"/>
    <path d="M 4 11 C 4.2 10.8 4.8 10.8 5 11 C 5.2 11.2 5.2 11.8 5 12 C 4.8 12.2 4.2 12.2 4 12 C 3.8 11.8 3.8 11.2 4 11 " fill = "rgb(182, 113, 38)" stroke = "rgb(182, 113, 38)" stroke-width = "0"/>
    <path d="M 5 11 C 5.2 10.8 5.8 10.8 6 11 C 6.2 11.2 6.2 11.8 6 12 C 5.8 12.2 5.2 12.2 5 12 C 4.8 11.8 4.8 11.2 5 11 " fill = "rgb(131, 73, 30)" stroke = "rgb(131, 73, 30)" stroke-width = "0"/>
    <path d="M 6 11 C 6.2 10.8 6.8 10.8 7 11 C 7.2 11.2 7.2 11.8 7 12 C 6.8 12.2 6.2 12.2 6 12 C 5.8 11.8 5.8 11.2 6 11 " fill = "rgb(223, 157, 76)" stroke = "rgb(223, 157, 76)" stroke-width = "0"/>
    <path d="M 7 11 C 7.2 10.8 7.8 10.8 8 11 C 8.2 11.2 8.2 11.8 8 12 C 7.8 12.2 7.2 12.2 7 12 C 6.8 11.8 6.8 11.2 7 11 " fill = "rgb(243, 182, 109)" stroke = "rgb(243, 182, 109)" stroke-width = "0"/>
    <path d="M 8 11 C 8.2 10.8 8.8 10.8 9 11 C 9.2 11.2 9.2 11.8 9 12 C 8.8 12.2 8.2 12.2 8 12 C 7.8 11.8 7.8 11.2 8 11 " fill = "rgb(246, 197, 142)" stroke = "rgb(246, 197, 142)" stroke-width = "0"/>
    <path d="M 9 11 C 9.2 10.8 9.8 10.8 10 11 C 10.2 11.2 10.2 11.8 10 12 C 9.8 12.2 9.2 12.2 9 12 C 8.8 11.8 8.8 11.2 9 11 " fill = "rgb(241, 208, 177)" stroke = "rgb(241, 208, 177)" stroke-width = "0"/>
    <path d="M 10 11 C 10.2 10.8 10.8 10.8 11 11 C 11.2 11.2 11.2 11.8 11 12 C 10.8 12.2 10.2 12.2 10 12 C 9.8 11.8 9.8 11.2 10 11 " fill = "rgb(242, 208, 176)" stroke = "rgb(242, 208, 176)" stroke-width = "0"/>
    <path d="M 11 11 C 11.2 10.8 11.8 10.8 12 11 C 12.2 11.2 12.2 11.8 12 12 C 11.8 12.2 11.2 12.2 11 12 C 10.8 11.8 10.8 11.2 11 11 " fill = "rgb(244, 210, 177)" stroke = "rgb(244, 210, 177)" stroke-width = "0"/>
    <path d="M 12 11 C 12.2 10.8 12.8 10.8 13 11 C 13.2 11.2 13.2 11.8 13 12 C 12.8 12.2 12.2 12.2 12 12 C 11.8 11.8 11.8 11.2 12 11 " fill = "rgb(245, 211, 177)" stroke = "rgb(245, 211, 177)" stroke-width = "0"/>
    <path d="M 13 11 C 13.2 10.8 13.8 10.8 14 11 C 14.2 11.2 14.2 11.8 14 12 C 13.8 12.2 13.2 12.2 13 12 C 12.8 11.8 12.8 11.2 13 11 " fill = "rgb(241, 207, 175)" stroke = "rgb(241, 207, 175)" stroke-width = "0"/>
    <path d="M 14 11 C 14.2 10.8 14.8 10.8 15 11 C 15.2 11.2 15.2 11.8 15 12 C 14.8 12.2 14.2 12.2 14 12 C 13.8 11.8 13.8 11.2 14 11 " fill = "rgb(242, 208, 175)" stroke = "rgb(242, 208, 175)" stroke-width = "0"/>
    <path d="M 15 11 C 15.2 10.8 15.8 10.8 16 11 C 16.2 11.2 16.2 11.8 16 12 C 15.8 12.2 15.2 12.2 15 12 C 14.8 11.8 14.8 11.2 15 11 " fill = "rgb(227, 208, 204)" stroke = "rgb(227, 208, 204)" stroke-width = "0"/>
    <path d="M 16 11 C 16.2 10.8 16.8 10.8 17 11 C 17.2 11.2 17.2 11.8 17 12 C 16.8 12.2 16.2 12.2 16 12 C 15.8 11.8 15.8 11.2 16 11 " fill = "rgb(204, 204, 242)" stroke = "rgb(204, 204, 242)" stroke-width = "0"/>
    <path d="M 18.25 11.25 C 18.45 11.05 18.85 10.85 19 11 C 19.15 11.15 19 11.6 19 12 C 19 12.4 19 12.6 19 13 C 19 13.4 19.2 13.8 19 14 C 18.8 14.2 18.2 14.2 18 14 C 17.8 13.8 18 13.4 18 13 C 18 12.6 17.95 12.35 18 12 C 18.05 11.65 18.05 11.45 18.25 11.25 " fill = "rgb(192, 184, 240)" stroke = "rgb(192, 184, 240)" stroke-width = "0"/>
    <path d="M 3 12 C 3.2 11.8 3.8 11.8 4 12 C 4.2 12.2 4 12.6 4 13 C 4 13.4 4 13.6 4 14 C 4 14.4 4 14.6 4 15 C 4 15.4 4.2 15.8 4 16 C 3.8 16.2 3.2 16.2 3 16 C 2.8 15.8 3 15.4 3 15 C 3 14.6 3 14.4 3 14 C 3 13.6 3 13.4 3 13 C 3 12.6 2.8 12.2 3 12 " fill = "rgb(223, 171, 109)" stroke = "rgb(223, 171, 109)" stroke-width = "0"/>
    <path d="M 4 12 C 4.2 11.8 4.8 11.8 5 12 C 5.2 12.2 5.2 12.8 5 13 C 4.8 13.2 4.2 13.2 4 13 C 3.8 12.8 3.8 12.2 4 12 " fill = "rgb(152, 89, 32)" stroke = "rgb(152, 89, 32)" stroke-width = "0"/>
    <path d="M 5 12 C 5.2 11.8 5.8 11.8 6 12 C 6.2 12.2 6.2 12.8 6 13 C 5.8 13.2 5.2 13.2 5 13 C 4.8 12.8 4.8 12.2 5 12 " fill = "rgb(66, 16, 10)" stroke = "rgb(66, 16, 10)" stroke-width = "0"/>
    <path d="M 6 12 C 6.2 11.8 6.8 11.8 7 12 C 7.2 12.2 7.2 12.8 7 13 C 6.8 13.2 6.2 13.2 6 13 C 5.8 12.8 5.8 12.2 6 12 " fill = "rgb(207, 136, 47)" stroke = "rgb(207, 136, 47)" stroke-width = "0"/>
    <path d="M 7 12 C 7.2 11.8 7.8 11.8 8 12 C 8.2 12.2 8.2 12.8 8 13 C 7.8 13.2 7.2 13.2 7 13 C 6.8 12.8 6.8 12.2 7 12 " fill = "rgb(239, 177, 100)" stroke = "rgb(239, 177, 100)" stroke-width = "0"/>
    <path d="M 8 12 C 8.2 11.8 8.8 11.8 9 12 C 9.2 12.2 9.2 12.8 9 13 C 8.8 13.2 8.2 13.2 8 13 C 7.8 12.8 7.8 12.2 8 12 " fill = "rgb(248, 192, 128)" stroke = "rgb(248, 192, 128)" stroke-width = "0"/>
    <path d="M 9 12 C 9.2 11.8 9.8 11.8 10 12 C 10.2 12.2 10.2 12.8 10 13 C 9.8 13.2 9.2 13.2 9 13 C 8.8 12.8 8.8 12.2 9 12 " fill = "rgb(248, 190, 124)" stroke = "rgb(248, 190, 124)" stroke-width = "0"/>
    <path d="M 10 12 C 10.2 11.8 10.8 11.8 11 12 C 11.2 12.2 11.2 12.8 11 13 C 10.8 13.2 10.2 13.2 10 13 C 9.8 12.8 9.8 12.2 10 12 " fill = "rgb(242, 179, 101)" stroke = "rgb(242, 179, 101)" stroke-width = "0"/>
    <path d="M 11 12 C 11.2 11.8 11.8 11.8 12 12 C 12.2 12.2 12.2 12.8 12 13 C 11.8 13.2 11.2 13.2 11 13 C 10.8 12.8 10.8 12.2 11 12 " fill = "rgb(201, 142, 84)" stroke = "rgb(201, 142, 84)" stroke-width = "0"/>
    <path d="M 12 12 C 12.2 11.8 12.8 11.8 13 12 C 13.2 12.2 13.2 12.8 13 13 C 12.8 13.2 12.2 13.2 12 13 C 11.8 12.8 11.8 12.2 12 12 " fill = "rgb(185, 130, 86)" stroke = "rgb(185, 130, 86)" stroke-width = "0"/>
    <path d="M 13 12 C 13.2 11.8 13.8 11.8 14 12 C 14.2 12.2 14.2 12.8 14 13 C 13.8 13.2 13.2 13.2 13 13 C 12.8 12.8 12.8 12.2 13 12 " fill = "rgb(250, 193, 127)" stroke = "rgb(250, 193, 127)" stroke-width = "0"/>
    <path d="M 14 12 C 14.2 11.8 14.8 11.8 15 12 C 15.2 12.2 15.2 12.8 15 13 C 14.8 13.2 14.2 13.2 14 13 C 13.8 12.8 13.8 12.2 14 12 " fill = "rgb(242, 178, 100)" stroke = "rgb(242, 178, 100)" stroke-width = "0"/>
    <path d="M 15 12 C 15.2 11.8 15.8 11.8 16 12 C 16.2 12.2 16.2 12.8 16 13 C 15.8 13.2 15.2 13.2 15 13 C 14.8 12.8 14.8 12.2 15 12 " fill = "rgb(225, 188, 156)" stroke = "rgb(225, 188, 156)" stroke-width = "0"/>
    <path d="M 16 12 C 16.2 11.8 16.8 11.8 17 12 C 17.2 12.2 17.2 12.8 17 13 C 16.8 13.2 16.2 13.2 16 13 C 15.8 12.8 15.8 12.2 16 12 " fill = "rgb(205, 206, 244)" stroke = "rgb(205, 206, 244)" stroke-width = "0"/>
    <path d="M 4 13 C 4.2 12.8 4.8 12.8 5 13 C 5.2 13.2 5 13.6 5 14 C 5 14.4 5 14.6 5 15 C 5 15.4 5.2 15.8 5 16 C 4.8 16.2 4.2 16.2 4 16 C 3.8 15.8 4 15.4 4 15 C 4 14.6 4 14.4 4 14 C 4 13.6 3.8 13.2 4 13 " fill = "rgb(154, 91, 32)" stroke = "rgb(154, 91, 32)" stroke-width = "0"/>
    <path d="M 5 13 C 5.2 12.8 5.8 12.8 6 13 C 6.2 13.2 6 13.6 6 14 C 6 14.4 6 14.6 6 15 C 6 15.4 6.2 15.8 6 16 C 5.8 16.2 5.2 16.2 5 16 C 4.8 15.8 5 15.4 5 15 C 5 14.6 5 14.4 5 14 C 5 13.6 4.8 13.2 5 13 " fill = "rgb(69, 19, 12)" stroke = "rgb(69, 19, 12)" stroke-width = "0"/>
    <path d="M 6 13 C 6.2 12.8 6.8 12.8 7 13 C 7.2 13.2 7 13.6 7 14 C 7 14.4 7 14.6 7 15 C 7 15.4 7.2 15.8 7 16 C 6.8 16.2 6.2 16.2 6 16 C 5.8 15.8 6 15.4 6 15 C 6 14.6 6 14.4 6 14 C 6 13.6 5.8 13.2 6 13 " fill = "rgb(208, 137, 49)" stroke = "rgb(208, 137, 49)" stroke-width = "0"/>
    <path d="M 7 13 C 7.2 12.8 7.8 12.8 8 13 C 8.2 13.2 8 13.6 8 14 C 8 14.4 8 14.6 8 15 C 8 15.4 8.2 15.8 8 16 C 7.8 16.2 7.2 16.2 7 16 C 6.8 15.8 7 15.4 7 15 C 7 14.6 7 14.4 7 14 C 7 13.6 6.8 13.2 7 13 " fill = "rgb(240, 177, 101)" stroke = "rgb(240, 177, 101)" stroke-width = "0"/>
    <path d="M 8 13 C 8.2 12.8 8.8 12.8 9 13 C 9.2 13.2 9 13.6 9 14 C 9 14.4 9 14.6 9 15 C 9 15.4 9.2 15.8 9 16 C 8.8 16.2 8.2 16.2 8 16 C 7.8 15.8 8 15.4 8 15 C 8 14.6 8 14.4 8 14 C 8 13.6 7.8 13.2 8 13 " fill = "rgb(248, 193, 130)" stroke = "rgb(248, 193, 130)" stroke-width = "0"/>
    <path d="M 9 13 C 9.2 12.8 9.8 12.8 10 13 C 10.2 13.2 10 13.6 10 14 C 10 14.4 10 14.6 10 15 C 10 15.4 10.2 15.8 10 16 C 9.8 16.2 9.2 16.2 9 16 C 8.8 15.8 9 15.4 9 15 C 9 14.6 9 14.4 9 14 C 9 13.6 8.8 13.2 9 13 " fill = "rgb(247, 191, 126)" stroke = "rgb(247, 191, 126)" stroke-width = "0"/>
    <path d="M 10 13 C 10.2 12.8 10.8 12.8 11 13 C 11.2 13.2 11.2 13.8 11 14 C 10.8 14.2 10.2 14.2 10 14 C 9.8 13.8 9.8 13.2 10 13 " fill = "rgb(232, 162, 68)" stroke = "rgb(232, 162, 68)" stroke-width = "0"/>
    <path d="M 11 13 C 11.2 12.8 11.8 12.8 12 13 C 12.2 13.2 12.2 13.8 12 14 C 11.8 14.2 11.2 14.2 11 14 C 10.8 13.8 10.8 13.2 11 13 " fill = "rgb(129, 69, 25)" stroke = "rgb(129, 69, 25)" stroke-width = "0"/>
    <path d="M 12 13 C 12.2 12.8 12.8 12.8 13 13 C 13.2 13.2 13.2 13.8 13 14 C 12.8 14.2 12.2 14.2 12 14 C 11.8 13.8 11.8 13.2 12 13 " fill = "rgb(88, 39, 29)" stroke = "rgb(88, 39, 29)" stroke-width = "0"/>
    <path d="M 13 13 C 13.2 12.8 13.8 12.8 14 13 C 14.2 13.2 14.2 13.8 14 14 C 13.8 14.2 13.2 14.2 13 14 C 12.8 13.8 12.8 13.2 13 13 " fill = "rgb(252, 196, 133)" stroke = "rgb(252, 196, 133)" stroke-width = "0"/>
    <path d="M 14 13 C 14.2 12.8 14.8 12.8 15 13 C 15.2 13.2 15.2 13.8 15 14 C 14.8 14.2 14.2 14.2 14 14 C 13.8 13.8 13.8 13.2 14 13 " fill = "rgb(230, 160, 69)" stroke = "rgb(230, 160, 69)" stroke-width = "0"/>
    <path d="M 15 13 C 15.2 12.8 15.8 12.8 16 13 C 16.2 13.2 16.2 13.8 16 14 C 15.8 14.2 15.2 14.2 15 14 C 14.8 13.8 14.8 13.2 15 13 " fill = "rgb(216, 174, 131)" stroke = "rgb(216, 174, 131)" stroke-width = "0"/>
    <path d="M 16 13 C 16.2 12.8 16.8 12.8 17 13 C 17.2 13.2 17 13.6 17 14 C 17 14.4 17.2 14.8 17 15 C 16.8 15.2 16.2 15.2 16 15 C 15.8 14.8 16 14.4 16 14 C 16 13.6 15.8 13.2 16 13 " fill = "rgb(205, 206, 246)" stroke = "rgb(205, 206, 246)" stroke-width = "0"/>
    <path d="M 10 14 C 10.2 13.8 10.8 13.8 11 14 C 11.2 14.2 11 14.6 11 15 C 11 15.4 11.2 15.8 11 16 C 10.8 16.2 10.2 16.2 10 16 C 9.8 15.8 10 15.4 10 15 C 10 14.6 9.8 14.2 10 14 " fill = "rgb(233, 163, 70)" stroke = "rgb(233, 163, 70)" stroke-width = "0"/>
    <path d="M 11 14 C 11.2 13.8 11.8 13.8 12 14 C 12.2 14.2 12 14.6 12 15 C 12 15.4 12 15.6 12 16 C 12 16.4 12.2 16.8 12 17 C 11.8 17.2 11.2 17.2 11 17 C 10.8 16.8 11 16.4 11 16 C 11 15.6 11 15.4 11 15 C 11 14.6 10.8 14.2 11 14 " fill = "rgb(133, 73, 28)" stroke = "rgb(133, 73, 28)" stroke-width = "0"/>
    <path d="M 12 14 C 12.2 13.8 12.8 13.8 13 14 C 13.2 14.2 13 14.6 13 15 C 13 15.4 13 15.6 13 16 C 13 16.4 13.2 16.8 13 17 C 12.8 17.2 12.2 17.2 12 17 C 11.8 16.8 12 16.4 12 16 C 12 15.6 12 15.4 12 15 C 12 14.6 11.8 14.2 12 14 " fill = "rgb(93, 44, 33)" stroke = "rgb(93, 44, 33)" stroke-width = "0"/>
    <path d="M 13 14 C 13.2 13.8 13.8 13.8 14 14 C 14.2 14.2 14 14.6 14 15 C 14 15.4 14.2 15.8 14 16 C 13.8 16.2 13.2 16.2 13 16 C 12.8 15.8 13 15.4 13 15 C 13 14.6 12.8 14.2 13 14 " fill = "rgb(252, 197, 133)" stroke = "rgb(252, 197, 133)" stroke-width = "0"/>
    <path d="M 14 14 C 14.2 13.8 14.8 13.8 15 14 C 15.2 14.2 15 14.6 15 15 C 15 15.4 15.2 15.8 15 16 C 14.8 16.2 14.2 16.2 14 16 C 13.8 15.8 14 15.4 14 15 C 14 14.6 13.8 14.2 14 14 " fill = "rgb(231, 161, 71)" stroke = "rgb(231, 161, 71)" stroke-width = "0"/>
    <path d="M 15 14 C 15.2 13.8 15.8 13.8 16 14 C 16.2 14.2 16 14.6 16 15 C 16 15.4 16.2 15.8 16 16 C 15.8 16.2 15.2 16.2 15 16 C 14.8 15.8 15 15.4 15 15 C 15 14.6 14.8 14.2 15 14 " fill = "rgb(217, 175, 133)" stroke = "rgb(217, 175, 133)" stroke-width = "0"/>
    <path d="M 18 14 C 18.2 13.8 18.8 13.8 19 14 C 19.2 14.2 19.2 14.8 19 15 C 18.8 15.2 18.2 15.2 18 15 C 17.8 14.8 17.8 14.2 18 14 " fill = "rgb(192, 183, 240)" stroke = "rgb(192, 183, 240)" stroke-width = "0"/>
    <path d="M 20 14 C 20.2 13.8 20.8 13.8 21 14 C 21.2 14.2 21.2 14.8 21 15 C 20.8 15.2 20.2 15.2 20 15 C 19.8 14.8 19.8 14.2 20 14 " fill = "rgb(172, 172, 225)" stroke = "rgb(172, 172, 225)" stroke-width = "0"/>
    <path d="M 2 15 C 2.2 14.8 2.8 14.8 3 15 C 3.2 15.2 3.2 15.8 3 16 C 2.8 16.2 2.2 16.2 2 16 C 1.8 15.8 1.8 15.2 2 15 " fill = "rgb(208, 211, 247)" stroke = "rgb(208, 211, 247)" stroke-width = "0"/>
    <path d="M 16 15 C 16.2 14.8 16.8 14.8 17 15 C 17.2 15.2 17.2 15.8 17 16 C 16.8 16.2 16.2 16.2 16 16 C 15.8 15.8 15.8 15.2 16 15 " fill = "rgb(205, 207, 246)" stroke = "rgb(205, 207, 246)" stroke-width = "0"/>
    <path d="M 17 15 C 17.2 14.8 17.8 14.8 18 15 C 18.2 15.2 18.2 15.8 18 16 C 17.8 16.2 17.2 16.2 17 16 C 16.8 15.8 16.8 15.2 17 15 " fill = "rgb(191, 188, 241)" stroke = "rgb(191, 188, 241)" stroke-width = "0"/>
    <path d="M 18 15 C 18.2 14.8 18.8 14.8 19 15 C 19.2 15.2 19.2 15.8 19 16 C 18.8 16.2 18.2 16.2 18 16 C 17.8 15.8 17.8 15.2 18 15 " fill = "rgb(173, 176, 230)" stroke = "rgb(173, 176, 230)" stroke-width = "0"/>
    <path d="M 19 15 C 19.2 14.8 19.8 14.8 20 15 C 20.2 15.2 20.2 15.8 20 16 C 19.8 16.2 19.2 16.2 19 16 C 18.8 15.8 18.8 15.2 19 15 " fill = "rgb(193, 197, 234)" stroke = "rgb(193, 197, 234)" stroke-width = "0"/>
    <path d="M 20 15 C 20.2 14.8 20.8 14.8 21 15 C 21.2 15.2 21.2 15.8 21 16 C 20.8 16.2 20.2 16.2 20 16 C 19.8 15.8 19.8 15.2 20 15 " fill = "rgb(251, 251, 253)" stroke = "rgb(251, 251, 253)" stroke-width = "0"/>
    <path d="M 21 15 C 21.2 14.8 21.85 14.85 22 15 C 22.15 15.15 21.95 15.55 21.75 15.75 C 21.55 15.95 21.15 16.15 21 16 C 20.85 15.85 20.8 15.2 21 15 " fill = "rgb(254, 254, 254)" stroke = "rgb(254, 254, 254)" stroke-width = "0"/>
    <path d="M 1 16 C 1.2 15.8 1.8 15.8 2 16 C 2.2 16.2 2.2 16.8 2 17 C 1.8 17.2 1.2 17.2 1 17 C 0.8 16.8 0.8 16.2 1 16 " fill = "rgb(242, 241, 251)" stroke = "rgb(242, 241, 251)" stroke-width = "0"/>
    <path d="M 2 16 C 2.2 15.8 2.8 15.8 3 16 C 3.2 16.2 3.2 16.8 3 17 C 2.8 17.2 2.2 17.2 2 17 C 1.8 16.8 1.8 16.2 2 16 " fill = "rgb(193, 189, 247)" stroke = "rgb(193, 189, 247)" stroke-width = "0"/>
    <path d="M 3 16 C 3.2 15.8 3.8 15.8 4 16 C 4.2 16.2 4.2 16.8 4 17 C 3.8 17.2 3.2 17.2 3 17 C 2.8 16.8 2.8 16.2 3 16 " fill = "rgb(220, 165, 106)" stroke = "rgb(220, 165, 106)" stroke-width = "0"/>
    <path d="M 4 16 C 4.2 15.8 4.8 15.8 5 16 C 5.2 16.2 5.2 16.8 5 17 C 4.8 17.2 4.2 17.2 4 17 C 3.8 16.8 3.8 16.2 4 16 " fill = "rgb(153, 88, 26)" stroke = "rgb(153, 88, 26)" stroke-width = "0"/>
    <path d="M 5 16 C 5.2 15.8 5.8 15.8 6 16 C 6.2 16.2 6.2 16.8 6 17 C 5.8 17.2 5.2 17.2 5 17 C 4.8 16.8 4.8 16.2 5 16 " fill = "rgb(65, 13, 4)" stroke = "rgb(65, 13, 4)" stroke-width = "0"/>
    <path d="M 6 16 C 6.2 15.8 6.8 15.8 7 16 C 7.2 16.2 7.2 16.8 7 17 C 6.8 17.2 6.2 17.2 6 17 C 5.8 16.8 5.8 16.2 6 16 " fill = "rgb(207, 135, 43)" stroke = "rgb(207, 135, 43)" stroke-width = "0"/>
    <path d="M 7 16 C 7.2 15.8 7.8 15.8 8 16 C 8.2 16.2 8.2 16.8 8 17 C 7.8 17.2 7.2 17.2 7 17 C 6.8 16.8 6.8 16.2 7 16 " fill = "rgb(240, 177, 100)" stroke = "rgb(240, 177, 100)" stroke-width = "0"/>
    <path d="M 8 16 C 8.2 15.8 8.8 15.8 9 16 C 9.2 16.2 9.2 16.8 9 17 C 8.8 17.2 8.2 17.2 8 17 C 7.8 16.8 7.8 16.2 8 16 " fill = "rgb(249, 194, 132)" stroke = "rgb(249, 194, 132)" stroke-width = "0"/>
    <path d="M 9 16 C 9.2 15.8 9.8 15.8 10 16 C 10.2 16.2 10.2 16.8 10 17 C 9.8 17.2 9.2 17.2 9 17 C 8.8 16.8 8.8 16.2 9 16 " fill = "rgb(248, 192, 128)" stroke = "rgb(248, 192, 128)" stroke-width = "0"/>
    <path d="M 10 16 C 10.2 15.8 10.8 15.8 11 16 C 11.2 16.2 11.2 16.8 11 17 C 10.8 17.2 10.2 17.2 10 17 C 9.8 16.8 9.8 16.2 10 16 " fill = "rgb(233, 164, 71)" stroke = "rgb(233, 164, 71)" stroke-width = "0"/>
    <path d="M 13 16 C 13.2 15.8 13.8 15.8 14 16 C 14.2 16.2 14.2 16.8 14 17 C 13.8 17.2 13.2 17.2 13 17 C 12.8 16.8 12.8 16.2 13 16 " fill = "rgb(253, 198, 135)" stroke = "rgb(253, 198, 135)" stroke-width = "0"/>
    <path d="M 14 16 C 14.2 15.8 14.8 15.8 15 16 C 15.2 16.2 15.2 16.8 15 17 C 14.8 17.2 14.2 17.2 14 17 C 13.8 16.8 13.8 16.2 14 16 " fill = "rgb(231, 161, 68)" stroke = "rgb(231, 161, 68)" stroke-width = "0"/>
    <path d="M 15 16 C 15.2 15.8 15.8 15.8 16 16 C 16.2 16.2 16.2 16.8 16 17 C 15.8 17.2 15.2 17.2 15 17 C 14.8 16.8 14.8 16.2 15 16 " fill = "rgb(216, 175, 130)" stroke = "rgb(216, 175, 130)" stroke-width = "0"/>
    <path d="M 16 16 C 16.2 15.8 16.8 15.8 17 16 C 17.2 16.2 17.2 16.8 17 17 C 16.8 17.2 16.2 17.2 16 17 C 15.8 16.8 15.8 16.2 16 16 " fill = "rgb(209, 203, 244)" stroke = "rgb(209, 203, 244)" stroke-width = "0"/>
    <path d="M 17 16 C 17.2 15.8 17.8 15.8 18 16 C 18.2 16.2 18.2 16.8 18 17 C 17.8 17.2 17.2 17.2 17 17 C 16.8 16.8 16.8 16.2 17 16 " fill = "rgb(231, 146, 223)" stroke = "rgb(231, 146, 223)" stroke-width = "0"/>
    <path d="M 18 16 C 18.2 15.8 18.8 15.8 19 16 C 19.2 16.2 19.2 16.8 19 17 C 18.8 17.2 18.2 17.2 18 17 C 17.8 16.8 17.8 16.2 18 16 " fill = "rgb(228, 112, 222)" stroke = "rgb(228, 112, 222)" stroke-width = "0"/>
    <path d="M 19 16 C 19.2 15.8 19.8 15.8 20 16 C 20.2 16.2 20.2 16.8 20 17 C 19.8 17.2 19.2 17.2 19 17 C 18.8 16.8 18.8 16.2 19 16 " fill = "rgb(235, 153, 234)" stroke = "rgb(235, 153, 234)" stroke-width = "0"/>
    <path d="M 1 17 C 1.15 16.85 1.8 16.8 2 17 C 2.2 17.2 2.15 17.85 2 18 C 1.85 18.15 1.45 17.95 1.25 17.75 C 1.05 17.55 0.85 17.15 1 17 " fill = "rgb(248, 248, 253)" stroke = "rgb(248, 248, 253)" stroke-width = "0"/>
    <path d="M 2 17 C 2.2 16.8 2.8 16.8 3 17 C 3.2 17.2 3.2 17.8 3 18 C 2.8 18.2 2.2 18.2 2 18 C 1.8 17.8 1.8 17.2 2 17 " fill = "rgb(226, 223, 252)" stroke = "rgb(226, 223, 252)" stroke-width = "0"/>
    <path d="M 3 17 C 3.2 16.8 3.8 16.8 4 17 C 4.2 17.2 4.2 17.8 4 18 C 3.8 18.2 3.2 18.2 3 18 C 2.8 17.8 2.8 17.2 3 17 " fill = "rgb(203, 180, 174)" stroke = "rgb(203, 180, 174)" stroke-width = "0"/>
    <path d="M 4 17 C 4.2 16.8 4.8 16.8 5 17 C 5.2 17.2 5.2 17.8 5 18 C 4.8 18.2 4.2 18.2 4 18 C 3.8 17.8 3.8 17.2 4 17 " fill = "rgb(173, 147, 139)" stroke = "rgb(173, 147, 139)" stroke-width = "0"/>
    <path d="M 5 17 C 5.2 16.8 5.8 16.8 6 17 C 6.2 17.2 6.2 17.8 6 18 C 5.8 18.2 5.2 18.2 5 18 C 4.8 17.8 4.8 17.2 5 17 " fill = "rgb(155, 133, 137)" stroke = "rgb(155, 133, 137)" stroke-width = "0"/>
    <path d="M 6 17 C 6.2 16.8 6.8 16.8 7 17 C 7.2 17.2 7.2 17.8 7 18 C 6.8 18.2 6.2 18.2 6 18 C 5.8 17.8 5.8 17.2 6 17 " fill = "rgb(209, 178, 154)" stroke = "rgb(209, 178, 154)" stroke-width = "0"/>
    <path d="M 7 17 C 7.2 16.8 7.8 16.8 8 17 C 8.2 17.2 8.2 17.8 8 18 C 7.8 18.2 7.2 18.2 7 18 C 6.8 17.8 6.8 17.2 7 17 " fill = "rgb(228, 175, 112)" stroke = "rgb(228, 175, 112)" stroke-width = "0"/>
    <path d="M 8 17 C 8.2 16.8 8.8 16.8 9 17 C 9.2 17.2 9.2 17.8 9 18 C 8.8 18.2 8.2 18.2 8 18 C 7.8 17.8 7.8 17.2 8 17 " fill = "rgb(236, 169, 84)" stroke = "rgb(236, 169, 84)" stroke-width = "0"/>
    <path d="M 9 17 C 9.2 16.8 9.8 16.8 10 17 C 10.2 17.2 10.2 17.8 10 18 C 9.8 18.2 9.2 18.2 9 18 C 8.8 17.8 8.8 17.2 9 17 " fill = "rgb(234, 168, 85)" stroke = "rgb(234, 168, 85)" stroke-width = "0"/>
    <path d="M 10 17 C 10.2 16.8 10.8 16.8 11 17 C 11.2 17.2 11.2 17.8 11 18 C 10.8 18.2 10.2 18.2 10 18 C 9.8 17.8 9.8 17.2 10 17 " fill = "rgb(231, 158, 59)" stroke = "rgb(231, 158, 59)" stroke-width = "0"/>
    <path d="M 11 17 C 11.2 16.8 11.8 16.8 12 17 C 12.2 17.2 12.2 17.8 12 18 C 11.8 18.2 11.2 18.2 11 18 C 10.8 17.8 10.8 17.2 11 17 " fill = "rgb(131, 71, 25)" stroke = "rgb(131, 71, 25)" stroke-width = "0"/>
    <path d="M 12 17 C 12.2 16.8 12.8 16.8 13 17 C 13.2 17.2 13.2 17.8 13 18 C 12.8 18.2 12.2 18.2 12 18 C 11.8 17.8 11.8 17.2 12 17 " fill = "rgb(87, 35, 20)" stroke = "rgb(87, 35, 20)" stroke-width = "0"/>
    <path d="M 13 17 C 13.2 16.8 13.8 16.8 14 17 C 14.2 17.2 14.2 17.8 14 18 C 13.8 18.2 13.2 18.2 13 18 C 12.8 17.8 12.8 17.2 13 17 " fill = "rgb(239, 171, 84)" stroke = "rgb(239, 171, 84)" stroke-width = "0"/>
    <path d="M 14 17 C 14.2 16.8 14.8 16.8 15 17 C 15.2 17.2 15.2 17.8 15 18 C 14.8 18.2 14.2 18.2 14 18 C 13.8 17.8 13.8 17.2 14 17 " fill = "rgb(221, 179, 133)" stroke = "rgb(221, 179, 133)" stroke-width = "0"/>
    <path d="M 15 17 C 15.2 16.8 15.8 16.8 16 17 C 16.2 17.2 16.2 17.8 16 18 C 15.8 18.2 15.2 18.2 15 18 C 14.8 17.8 14.8 17.2 15 17 " fill = "rgb(221, 175, 186)" stroke = "rgb(221, 175, 186)" stroke-width = "0"/>
    <path d="M 16 17 C 16.2 16.8 16.8 16.8 17 17 C 17.2 17.2 17.2 17.8 17 18 C 16.8 18.2 16.2 18.2 16 18 C 15.8 17.8 15.8 17.2 16 17 " fill = "rgb(232, 169, 230)" stroke = "rgb(232, 169, 230)" stroke-width = "0"/>
    <path d="M 17 17 C 17.2 16.8 17.8 16.8 18 17 C 18.2 17.2 18.2 17.8 18 18 C 17.8 18.2 17.2 18.2 17 18 C 16.8 17.8 16.8 17.2 17 17 " fill = "rgb(247, 194, 233)" stroke = "rgb(247, 194, 233)" stroke-width = "0"/>
    <path d="M 18 17 C 18.2 16.8 18.8 16.8 19 17 C 19.2 17.2 19.2 17.8 19 18 C 18.8 18.2 18.2 18.2 18 18 C 17.8 17.8 17.8 17.2 18 17 " fill = "rgb(249, 136, 224)" stroke = "rgb(249, 136, 224)" stroke-width = "0"/>
    <path d="M 19 17 C 19.2 16.8 19.8 16.8 20 17 C 20.2 17.2 20.2 17.8 20 18 C 19.8 18.2 19.2 18.2 19 18 C 18.8 17.8 18.8 17.2 19 17 " fill = "rgb(250, 122, 225)" stroke = "rgb(250, 122, 225)" stroke-width = "0"/>
    <path d="M 20 17 C 20.2 16.8 20.8 16.8 21 17 C 21.2 17.2 21.2 17.8 21 18 C 20.8 18.2 20.2 18.2 20 18 C 19.8 17.8 19.8 17.2 20 17 " fill = "rgb(252, 168, 240)" stroke = "rgb(252, 168, 240)" stroke-width = "0"/>
    <path d="M 21 17 C 21.15 16.85 21.55 17.05 21.75 17.25 C 21.95 17.45 22.15 17.85 22 18 C 21.85 18.15 21.2 18.2 21 18 C 20.8 17.8 20.85 17.15 21 17 " fill = "rgb(254, 240, 252)" stroke = "rgb(254, 240, 252)" stroke-width = "0"/>
    <path d="M 3 18 C 3.2 17.8 3.8 17.8 4 18 C 4.2 18.2 4.2 18.8 4 19 C 3.8 19.2 3.2 19.2 3 19 C 2.8 18.8 2.8 18.2 3 18 " fill = "rgb(210, 170, 235)" stroke = "rgb(210, 170, 235)" stroke-width = "0"/>
    <path d="M 4 18 C 4.2 17.8 4.8 17.8 5 18 C 5.2 18.2 5.2 18.8 5 19 C 4.8 19.2 4.2 19.2 4 19 C 3.8 18.8 3.8 18.2 4 18 " fill = "rgb(212, 162, 234)" stroke = "rgb(212, 162, 234)" stroke-width = "0"/>
    <path d="M 5 18 C 5.2 17.8 5.8 17.8 6 18 C 6.2 18.2 6.2 18.8 6 19 C 5.8 19.2 5.2 19.2 5 19 C 4.8 18.8 4.8 18.2 5 18 " fill = "rgb(238, 205, 244)" stroke = "rgb(238, 205, 244)" stroke-width = "0"/>
    <path d="M 6 18 C 6.2 17.8 6.8 17.8 7 18 C 7.2 18.2 7.2 18.8 7 19 C 6.8 19.2 6.2 19.2 6 19 C 5.8 18.8 5.8 18.2 6 18 " fill = "rgb(205, 203, 249)" stroke = "rgb(205, 203, 249)" stroke-width = "0"/>
    <path d="M 7 18 C 7.2 17.8 7.8 17.8 8 18 C 8.2 18.2 8.2 18.8 8 19 C 7.8 19.2 7.2 19.2 7 19 C 6.8 18.8 6.8 18.2 7 18 " fill = "rgb(212, 182, 164)" stroke = "rgb(212, 182, 164)" stroke-width = "0"/>
    <path d="M 8 18 C 8.2 17.8 8.8 17.8 9 18 C 9.2 18.2 9.2 18.8 9 19 C 8.8 19.2 8.2 19.2 8 19 C 7.8 18.8 7.8 18.2 8 18 " fill = "rgb(223, 172, 113)" stroke = "rgb(223, 172, 113)" stroke-width = "0"/>
    <path d="M 9 18 C 9.2 17.8 9.8 17.8 10 18 C 10.2 18.2 10.2 18.8 10 19 C 9.8 19.2 9.2 19.2 9 19 C 8.8 18.8 8.8 18.2 9 18 " fill = "rgb(228, 178, 117)" stroke = "rgb(228, 178, 117)" stroke-width = "0"/>
    <path d="M 10 18 C 10.2 17.8 10.8 17.8 11 18 C 11.2 18.2 11.2 18.8 11 19 C 10.8 19.2 10.2 19.2 10 19 C 9.8 18.8 9.8 18.2 10 18 " fill = "rgb(232, 182, 120)" stroke = "rgb(232, 182, 120)" stroke-width = "0"/>
    <path d="M 11 18 C 11.2 17.8 11.8 17.8 12 18 C 12.2 18.2 12.2 18.8 12 19 C 11.8 19.2 11.2 19.2 11 19 C 10.8 18.8 10.8 18.2 11 18 " fill = "rgb(168, 127, 102)" stroke = "rgb(168, 127, 102)" stroke-width = "0"/>
    <path d="M 12 18 C 12.2 17.8 12.8 17.8 13 18 C 13.2 18.2 13.2 18.8 13 19 C 12.8 19.2 12.2 19.2 12 19 C 11.8 18.8 11.8 18.2 12 18 " fill = "rgb(137, 101, 93)" stroke = "rgb(137, 101, 93)" stroke-width = "0"/>
    <path d="M 13 18 C 13.2 17.8 13.8 17.8 14 18 C 14.2 18.2 14.2 18.8 14 19 C 13.8 19.2 13.2 19.2 13 19 C 12.8 18.8 12.8 18.2 13 18 " fill = "rgb(231, 179, 113)" stroke = "rgb(231, 179, 113)" stroke-width = "0"/>
    <path d="M 14 18 C 14.2 17.8 14.8 17.8 15 18 C 15.2 18.2 15.2 18.8 15 19 C 14.8 19.2 14.2 19.2 14 19 C 13.8 18.8 13.8 18.2 14 18 " fill = "rgb(209, 198, 210)" stroke = "rgb(209, 198, 210)" stroke-width = "0"/>
    <path d="M 15 18 C 15.2 17.8 15.8 17.8 16 18 C 16.2 18.2 16.2 18.8 16 19 C 15.8 19.2 15.2 19.2 15 19 C 14.8 18.8 14.8 18.2 15 18 " fill = "rgb(223, 162, 235)" stroke = "rgb(223, 162, 235)" stroke-width = "0"/>
    <path d="M 16 18 C 16.2 17.8 16.8 17.8 17 18 C 17.2 18.2 17.2 18.8 17 19 C 16.8 19.2 16.2 19.2 16 19 C 15.8 18.8 15.8 18.2 16 18 " fill = "rgb(250, 118, 219)" stroke = "rgb(250, 118, 219)" stroke-width = "0"/>
    <path d="M 17 18 C 17.2 17.8 17.8 17.8 18 18 C 18.2 18.2 18.2 18.8 18 19 C 17.8 19.2 17.2 19.2 17 19 C 16.8 18.8 16.8 18.2 17 18 " fill = "rgb(248, 207, 237)" stroke = "rgb(248, 207, 237)" stroke-width = "0"/>
    <path d="M 18 18 C 18.2 17.8 18.8 17.8 19 18 C 19.2 18.2 19.2 18.8 19 19 C 18.8 19.2 18.2 19.2 18 19 C 17.8 18.8 17.8 18.2 18 18 " fill = "rgb(248, 152, 226)" stroke = "rgb(248, 152, 226)" stroke-width = "0"/>
    <path d="M 19 18 C 19.2 17.8 19.8 17.8 20 18 C 20.2 18.2 20.2 18.8 20 19 C 19.8 19.2 19.2 19.2 19 19 C 18.8 18.8 18.8 18.2 19 18 " fill = "rgb(245, 92, 214)" stroke = "rgb(245, 92, 214)" stroke-width = "0"/>
    <path d="M 20 18 C 20.2 17.8 20.8 17.8 21 18 C 21.2 18.2 21.2 18.8 21 19 C 20.8 19.2 20.2 19.2 20 19 C 19.8 18.8 19.8 18.2 20 18 " fill = "rgb(239, 62, 207)" stroke = "rgb(239, 62, 207)" stroke-width = "0"/>
    <path d="M 21 18 C 21.2 17.8 21.8 17.8 22 18 C 22.2 18.2 22.2 18.8 22 19 C 21.8 19.2 21.2 19.2 21 19 C 20.8 18.8 20.8 18.2 21 18 " fill = "rgb(252, 222, 247)" stroke = "rgb(252, 222, 247)" stroke-width = "0"/>
    <path d="M 3 19 C 3.15 18.85 3.8 18.8 4 19 C 4.2 19.2 4.15 19.85 4 20 C 3.85 20.15 3.45 19.95 3.25 19.75 C 3.05 19.55 2.85 19.15 3 19 " fill = "rgb(252, 144, 236)" stroke = "rgb(252, 144, 236)" stroke-width = "0"/>
    <path d="M 4 19 C 4.2 18.8 4.8 18.8 5 19 C 5.2 19.2 5.2 19.8 5 20 C 4.8 20.2 4.2 20.2 4 20 C 3.8 19.8 3.8 19.2 4 19 " fill = "rgb(251, 104, 222)" stroke = "rgb(251, 104, 222)" stroke-width = "0"/>
    <path d="M 5 19 C 5.2 18.8 5.8 18.8 6 19 C 6.2 19.2 6.2 19.8 6 20 C 5.8 20.2 5.2 20.2 5 20 C 4.8 19.8 4.8 19.2 5 19 " fill = "rgb(242, 125, 218)" stroke = "rgb(242, 125, 218)" stroke-width = "0"/>
    <path d="M 6 19 C 6.2 18.8 6.8 18.8 7 19 C 7.2 19.2 7.2 19.8 7 20 C 6.8 20.2 6.2 20.2 6 20 C 5.8 19.8 5.8 19.2 6 19 " fill = "rgb(199, 180, 237)" stroke = "rgb(199, 180, 237)" stroke-width = "0"/>
    <path d="M 7 19 C 7.2 18.8 7.8 18.8 8 19 C 8.2 19.2 8.2 19.8 8 20 C 7.8 20.2 7.2 20.2 7 20 C 6.8 19.8 6.8 19.2 7 19 " fill = "rgb(184, 189, 243)" stroke = "rgb(184, 189, 243)" stroke-width = "0"/>
    <path d="M 8 19 C 8.2 18.8 8.8 18.8 9 19 C 9.2 19.2 9.2 19.8 9 20 C 8.8 20.2 8.2 20.2 8 20 C 7.8 19.8 7.8 19.2 8 19 " fill = "rgb(185, 201, 247)" stroke = "rgb(185, 201, 247)" stroke-width = "0"/>
    <path d="M 9 19 C 9.2 18.8 9.8 18.8 10 19 C 10.2 19.2 10.2 19.8 10 20 C 9.8 20.2 9.2 20.2 9 20 C 8.8 19.8 8.8 19.2 9 19 " fill = "rgb(202, 222, 253)" stroke = "rgb(202, 222, 253)" stroke-width = "0"/>
    <path d="M 10 19 C 10.2 18.8 10.8 18.8 11 19 C 11.2 19.2 11.2 19.8 11 20 C 10.8 20.2 10.2 20.2 10 20 C 9.8 19.8 9.8 19.2 10 19 " fill = "rgb(201, 221, 253)" stroke = "rgb(201, 221, 253)" stroke-width = "0"/>
    <path d="M 11 19 C 11.2 18.8 11.8 18.8 12 19 C 12.2 19.2 12.2 19.8 12 20 C 11.8 20.2 11.2 20.2 11 20 C 10.8 19.8 10.8 19.2 11 19 " fill = "rgb(204, 224, 254)" stroke = "rgb(204, 224, 254)" stroke-width = "0"/>
    <path d="M 12 19 C 12.2 18.8 12.8 18.8 13 19 C 13.2 19.2 13.2 19.8 13 20 C 12.8 20.2 12.2 20.2 12 20 C 11.8 19.8 11.8 19.2 12 19 " fill = "rgb(206, 223, 254)" stroke = "rgb(206, 223, 254)" stroke-width = "0"/>
    <path d="M 13 19 C 13.2 18.8 13.8 18.8 14 19 C 14.2 19.2 14.2 19.8 14 20 C 13.8 20.2 13.2 20.2 13 20 C 12.8 19.8 12.8 19.2 13 19 " fill = "rgb(202, 215, 252)" stroke = "rgb(202, 215, 252)" stroke-width = "0"/>
    <path d="M 14 19 C 14.2 18.8 14.8 18.8 15 19 C 15.2 19.2 15.2 19.8 15 20 C 14.8 20.2 14.2 20.2 14 20 C 13.8 19.8 13.8 19.2 14 19 " fill = "rgb(173, 178, 240)" stroke = "rgb(173, 178, 240)" stroke-width = "0"/>
    <path d="M 15 19 C 15.2 18.8 15.8 18.8 16 19 C 16.2 19.2 16.2 19.8 16 20 C 15.8 20.2 15.2 20.2 15 20 C 14.8 19.8 14.8 19.2 15 19 " fill = "rgb(200, 135, 232)" stroke = "rgb(200, 135, 232)" stroke-width = "0"/>
    <path d="M 16 19 C 16.2 18.8 16.8 18.8 17 19 C 17.2 19.2 17.2 19.8 17 20 C 16.8 20.2 16.2 20.2 16 20 C 15.8 19.8 15.8 19.2 16 19 " fill = "rgb(251, 101, 225)" stroke = "rgb(251, 101, 225)" stroke-width = "0"/>
    <path d="M 17 19 C 17.2 18.8 17.8 18.8 18 19 C 18.2 19.2 18.2 19.8 18 20 C 17.8 20.2 17.2 20.2 17 20 C 16.8 19.8 16.8 19.2 17 19 " fill = "rgb(248, 117, 216)" stroke = "rgb(248, 117, 216)" stroke-width = "0"/>
    <path d="M 18 19 C 18.2 18.8 18.8 18.8 19 19 C 19.2 19.2 19.2 19.8 19 20 C 18.8 20.2 18.2 20.2 18 20 C 17.8 19.8 17.8 19.2 18 19 " fill = "rgb(246, 88, 217)" stroke = "rgb(246, 88, 217)" stroke-width = "0"/>
    <path d="M 19 19 C 19.2 18.8 19.8 18.8 20 19 C 20.2 19.2 20.2 19.8 20 20 C 19.8 20.2 19.2 20.2 19 20 C 18.8 19.8 18.8 19.2 19 19 " fill = "rgb(238, 66, 206)" stroke = "rgb(238, 66, 206)" stroke-width = "0"/>
    <path d="M 20 19 C 20.2 18.8 20.8 18.8 21 19 C 21.2 19.2 21.2 19.8 21 20 C 20.8 20.2 20.2 20.2 20 20 C 19.8 19.8 19.8 19.2 20 19 " fill = "rgb(227, 67, 186)" stroke = "rgb(227, 67, 186)" stroke-width = "0"/>
    <path d="M 21 19 C 21.2 18.8 21.85 18.85 22 19 C 22.15 19.15 21.95 19.55 21.75 19.75 C 21.55 19.95 21.15 20.15 21 20 C 20.85 19.85 20.8 19.2 21 19 " fill = "rgb(250, 223, 243)" stroke = "rgb(250, 223, 243)" stroke-width = "0"/>
    <path d="M 4 20 C 4.2 19.8 4.8 19.8 5 20 C 5.2 20.2 5.2 20.8 5 21 C 4.8 21.2 4.2 21.2 4 21 C 3.8 20.8 3.8 20.2 4 20 " fill = "rgb(252, 182, 242)" stroke = "rgb(252, 182, 242)" stroke-width = "0"/>
    <path d="M 5 20 C 5.2 19.8 5.8 19.8 6 20 C 6.2 20.2 6.2 20.8 6 21 C 5.8 21.2 5.2 21.2 5 21 C 4.8 20.8 4.8 20.2 5 20 " fill = "rgb(242, 79, 223)" stroke = "rgb(242, 79, 223)" stroke-width = "0"/>
    <path d="M 6 20 C 6.2 19.8 6.8 19.8 7 20 C 7.2 20.2 7.2 20.8 7 21 C 6.8 21.2 6.2 21.2 6 21 C 5.8 20.8 5.8 20.2 6 20 " fill = "rgb(217, 199, 238)" stroke = "rgb(217, 199, 238)" stroke-width = "0"/>
    <path d="M 7 20 C 7.2 19.8 7.8 19.8 8 20 C 8.2 20.2 8.2 20.8 8 21 C 7.8 21.2 7.2 21.2 7 21 C 6.8 20.8 6.8 20.2 7 20 " fill = "rgb(73, 120, 229)" stroke = "rgb(73, 120, 229)" stroke-width = "0"/>
    <path d="M 8 20 C 8.2 19.8 8.8 19.8 9 20 C 9.2 20.2 9.2 20.8 9 21 C 8.8 21.2 8.2 21.2 8 21 C 7.8 20.8 7.8 20.2 8 20 " fill = "rgb(0, 82, 225)" stroke = "rgb(0, 82, 225)" stroke-width = "0"/>
    <path d="M 9 20 C 9.2 19.8 9.8 19.8 10 20 C 10.2 20.2 10.2 20.8 10 21 C 9.8 21.2 9.2 21.2 9 21 C 8.8 20.8 8.8 20.2 9 20 " fill = "rgb(0, 128, 232)" stroke = "rgb(0, 128, 232)" stroke-width = "0"/>
    <path d="M 10 20 C 10.2 19.8 10.8 19.8 11 20 C 11.2 20.2 11.2 20.8 11 21 C 10.8 21.2 10.2 21.2 10 21 C 9.8 20.8 9.8 20.2 10 20 " fill = "rgb(0, 126, 231)" stroke = "rgb(0, 126, 231)" stroke-width = "0"/>
    <path d="M 11 20 C 11.2 19.8 11.8 19.8 12 20 C 12.2 20.2 12.2 20.8 12 21 C 11.8 21.2 11.2 21.2 11 21 C 10.8 20.8 10.8 20.2 11 20 " fill = "rgb(0, 127, 231)" stroke = "rgb(0, 127, 231)" stroke-width = "0"/>
    <path d="M 12 20 C 12.2 19.8 12.8 19.8 13 20 C 13.2 20.2 13.2 20.8 13 21 C 12.8 21.2 12.2 21.2 12 21 C 11.8 20.8 11.8 20.2 12 20 " fill = "rgb(0, 113, 230)" stroke = "rgb(0, 113, 230)" stroke-width = "0"/>
    <path d="M 13 20 C 13.2 19.8 13.8 19.8 14 20 C 14.2 20.2 14.2 20.8 14 21 C 13.8 21.2 13.2 21.2 13 21 C 12.8 20.8 12.8 20.2 13 20 " fill = "rgb(0, 68, 224)" stroke = "rgb(0, 68, 224)" stroke-width = "0"/>
    <path d="M 14 20 C 14.2 19.8 14.8 19.8 15 20 C 15.2 20.2 15.2 20.8 15 21 C 14.8 21.2 14.2 21.2 14 21 C 13.8 20.8 13.8 20.2 14 20 " fill = "rgb(0, 32, 210)" stroke = "rgb(0, 32, 210)" stroke-width = "0"/>
    <path d="M 15 20 C 15.2 19.8 15.8 19.8 16 20 C 16.2 20.2 16.2 20.8 16 21 C 15.8 21.2 15.2 21.2 15 21 C 14.8 20.8 14.8 20.2 15 20 " fill = "rgb(101, 129, 226)" stroke = "rgb(101, 129, 226)" stroke-width = "0"/>
    <path d="M 16 20 C 16.2 19.8 16.8 19.8 17 20 C 17.2 20.2 17.2 20.8 17 21 C 16.8 21.2 16.2 21.2 16 21 C 15.8 20.8 15.8 20.2 16 20 " fill = "rgb(255, 246, 249)" stroke = "rgb(255, 246, 249)" stroke-width = "0"/>
    <path d="M 17 20 C 17.2 19.8 17.8 19.8 18 20 C 18.2 20.2 18.2 20.8 18 21 C 17.8 21.2 17.2 21.2 17 21 C 16.8 20.8 16.8 20.2 17 20 " fill = "rgb(248, 86, 227)" stroke = "rgb(248, 86, 227)" stroke-width = "0"/>
    <path d="M 18 20 C 18.2 19.8 18.8 19.8 19 20 C 19.2 20.2 19.2 20.8 19 21 C 18.8 21.2 18.2 21.2 18 21 C 17.8 20.8 17.8 20.2 18 20 " fill = "rgb(230, 32, 188)" stroke = "rgb(230, 32, 188)" stroke-width = "0"/>
    <path d="M 19 20 C 19.2 19.8 19.8 19.8 20 20 C 20.2 20.2 20.2 20.8 20 21 C 19.8 21.2 19.2 21.2 19 21 C 18.8 20.8 18.8 20.2 19 20 " fill = "rgb(232, 99, 198)" stroke = "rgb(232, 99, 198)" stroke-width = "0"/>
    <path d="M 4 21 C 4.15 20.85 4.8 20.8 5 21 C 5.2 21.2 5.15 21.85 5 22 C 4.85 22.15 4.45 21.95 4.25 21.75 C 4.05 21.55 3.85 21.15 4 21 " fill = "rgb(254, 244, 253)" stroke = "rgb(254, 244, 253)" stroke-width = "0"/>
    <path d="M 5 21 C 5.2 20.8 5.8 20.8 6 21 C 6.2 21.2 6.2 21.8 6 22 C 5.8 22.2 5.2 22.2 5 22 C 4.8 21.8 4.8 21.2 5 21 " fill = "rgb(253, 230, 250)" stroke = "rgb(253, 230, 250)" stroke-width = "0"/>
    <path d="M 6 21 C 6.2 20.8 6.8 20.8 7 21 C 7.2 21.2 7.2 21.8 7 22 C 6.8 22.2 6.2 22.2 6 22 C 5.8 21.8 5.8 21.2 6 21 " fill = "rgb(255, 252, 253)" stroke = "rgb(255, 252, 253)" stroke-width = "0"/>
    <path d="M 7 21 C 7.2 20.8 7.8 20.8 8 21 C 8.2 21.2 8.2 21.8 8 22 C 7.8 22.2 7.2 22.2 7 22 C 6.8 21.8 6.8 21.2 7 21 " fill = "rgb(93, 140, 239)" stroke = "rgb(93, 140, 239)" stroke-width = "0"/>
    <path d="M 8 21 C 8.2 20.8 8.8 20.8 9 21 C 9.2 21.2 9.2 21.8 9 22 C 8.8 22.2 8.2 22.2 8 22 C 7.8 21.8 7.8 21.2 8 21 " fill = "rgb(0, 70, 231)" stroke = "rgb(0, 70, 231)" stroke-width = "0"/>
    <path d="M 9 21 C 9.2 20.8 9.8 20.8 10 21 C 10.2 21.2 10.2 21.8 10 22 C 9.8 22.2 9.2 22.2 9 22 C 8.8 21.8 8.8 21.2 9 21 " fill = "rgb(0, 74, 232)" stroke = "rgb(0, 74, 232)" stroke-width = "0"/>
    <path d="M 10 21 C 10.2 20.8 10.8 20.8 11 21 C 11.2 21.2 11.2 21.8 11 22 C 10.8 22.2 10.2 22.2 10 22 C 9.8 21.8 9.8 21.2 10 21 " fill = "rgb(0, 73, 232)" stroke = "rgb(0, 73, 232)" stroke-width = "0"/>
    <path d="M 11 21 C 11.2 20.8 11.8 20.8 12 21 C 12.2 21.2 12.2 21.8 12 22 C 11.8 22.2 11.2 22.2 11 22 C 10.8 21.8 10.8 21.2 11 21 " fill = "rgb(0, 79, 233)" stroke = "rgb(0, 79, 233)" stroke-width = "0"/>
    <path d="M 12 21 C 12.2 20.8 12.8 20.8 13 21 C 13.2 21.2 13.2 21.8 13 22 C 12.8 22.2 12.2 22.2 12 22 C 11.8 21.8 11.8 21.2 12 21 " fill = "rgb(0, 73, 229)" stroke = "rgb(0, 73, 229)" stroke-width = "0"/>
    <path d="M 13 21 C 13.2 20.8 13.8 20.8 14 21 C 14.2 21.2 14.2 21.8 14 22 C 13.8 22.2 13.2 22.2 13 22 C 12.8 21.8 12.8 21.2 13 21 " fill = "rgb(0, 38, 217)" stroke = "rgb(0, 38, 217)" stroke-width = "0"/>
    <path d="M 14 21 C 14.2 20.8 14.8 20.8 15 21 C 15.2 21.2 15.2 21.8 15 22 C 14.8 22.2 14.2 22.2 14 22 C 13.8 21.8 13.8 21.2 14 21 " fill = "rgb(0, 33, 216)" stroke = "rgb(0, 33, 216)" stroke-width = "0"/>
    <path d="M 15 21 C 15.2 20.8 15.8 20.8 16 21 C 16.2 21.2 16.2 21.8 16 22 C 15.8 22.2 15.2 22.2 15 22 C 14.8 21.8 14.8 21.2 15 21 " fill = "rgb(95, 43, 201)" stroke = "rgb(95, 43, 201)" stroke-width = "0"/>
    <path d="M 16 21 C 16.2 20.8 16.8 20.8 17 21 C 17.2 21.2 17.2 21.8 17 22 C 16.8 22.2 16.2 22.2 16 22 C 15.8 21.8 15.8 21.2 16 21 " fill = "rgb(238, 86, 193)" stroke = "rgb(238, 86, 193)" stroke-width = "0"/>
    <path d="M 17 21 C 17.2 20.8 17.8 20.8 18 21 C 18.2 21.2 18.2 21.8 18 22 C 17.8 22.2 17.2 22.2 17 22 C 16.8 21.8 16.8 21.2 17 21 " fill = "rgb(253, 224, 248)" stroke = "rgb(253, 224, 248)" stroke-width = "0"/>
    <path d="M 18 21 C 18.2 20.8 18.8 20.8 19 21 C 19.2 21.2 19.2 21.8 19 22 C 18.8 22.2 18.2 22.2 18 22 C 17.8 21.8 17.8 21.2 18 21 " fill = "rgb(252, 228, 247)" stroke = "rgb(252, 228, 247)" stroke-width = "0"/>
    <path d="M 19 21 C 19.2 20.8 19.85 20.85 20 21 C 20.15 21.15 19.95 21.55 19.75 21.75 C 19.55 21.95 19.15 22.15 19 22 C 18.85 21.85 18.8 21.2 19 21 " fill = "rgb(251, 232, 247)" stroke = "rgb(251, 232, 247)" stroke-width = "0"/>
    <path d="M 7 22 C 7.2 21.8 7.8 21.8 8 22 C 8.2 22.2 8.2 22.8 8 23 C 7.8 23.2 7.2 23.2 7 23 C 6.8 22.8 6.8 22.2 7 22 " fill = "rgb(114, 113, 145)" stroke = "rgb(114, 113, 145)" stroke-width = "0"/>
    <path d="M 8 22 C 8.2 21.8 8.8 21.8 9 22 C 9.2 22.2 9.2 22.8 9 23 C 8.8 23.2 8.2 23.2 8 23 C 7.8 22.8 7.8 22.2 8 22 " fill = "rgb(67, 72, 76)" stroke = "rgb(67, 72, 76)" stroke-width = "0"/>
    <path d="M 9 22 C 9.2 21.8 9.8 21.8 10 22 C 10.2 22.2 10.2 22.8 10 23 C 9.8 23.2 9.2 23.2 9 23 C 8.8 22.8 8.8 22.2 9 22 " fill = "rgb(167, 193, 87)" stroke = "rgb(167, 193, 87)" stroke-width = "0"/>
    <path d="M 10 22 C 10.2 21.8 10.8 21.8 11 22 C 11.2 22.2 11.2 22.8 11 23 C 10.8 23.2 10.2 23.2 10 23 C 9.8 22.8 9.8 22.2 10 22 " fill = "rgb(171, 194, 88)" stroke = "rgb(171, 194, 88)" stroke-width = "0"/>
    <path d="M 11 22 C 11.2 21.8 11.8 21.8 12 22 C 12.2 22.2 12.2 22.8 12 23 C 11.8 23.2 11.2 23.2 11 23 C 10.8 22.8 10.8 22.2 11 22 " fill = "rgb(100, 106, 82)" stroke = "rgb(100, 106, 82)" stroke-width = "0"/>
    <path d="M 12 22 C 12.2 21.8 12.8 21.8 13 22 C 13.2 22.2 13.2 22.8 13 23 C 12.8 23.2 12.2 23.2 12 23 C 11.8 22.8 11.8 22.2 12 22 " fill = "rgb(33, 20, 76)" stroke = "rgb(33, 20, 76)" stroke-width = "0"/>
    <path d="M 13 22 C 13.2 21.8 13.8 21.8 14 22 C 14.2 22.2 14.2 22.8 14 23 C 13.8 23.2 13.2 23.2 13 23 C 12.8 22.8 12.8 22.2 13 22 " fill = "rgb(33, 11, 71)" stroke = "rgb(33, 11, 71)" stroke-width = "0"/>
    <path d="M 14 22 C 14.2 21.8 14.8 21.8 15 22 C 15.2 22.2 15.2 22.8 15 23 C 14.8 23.2 14.2 23.2 14 23 C 13.8 22.8 13.8 22.2 14 22 " fill = "rgb(26, 9, 68)" stroke = "rgb(26, 9, 68)" stroke-width = "0"/>
    <path d="M 15 22 C 15.2 21.8 15.8 21.8 16 22 C 16.2 22.2 16.2 22.8 16 23 C 15.8 23.2 15.2 23.2 15 23 C 14.8 22.8 14.8 22.2 15 22 " fill = "rgb(120, 31, 128)" stroke = "rgb(120, 31, 128)" stroke-width = "0"/>
    <path d="M 16 22 C 16.2 21.8 16.8 21.8 17 22 C 17.2 22.2 17.2 22.8 17 23 C 16.8 23.2 16.2 23.2 16 23 C 15.8 22.8 15.8 22.2 16 22 " fill = "rgb(245, 69, 210)" stroke = "rgb(245, 69, 210)" stroke-width = "0"/>
    <path d="M 17 22 C 17.2 21.8 17.8 21.8 18 22 C 18.2 22.2 18.2 22.8 18 23 C 17.8 23.2 17.2 23.2 17 23 C 16.8 22.8 16.8 22.2 17 22 " fill = "rgb(234, 102, 202)" stroke = "rgb(234, 102, 202)" stroke-width = "0"/>
    <path d="M 18 22 C 18.2 21.8 18.8 21.8 19 22 C 19.2 22.2 19.2 22.8 19 23 C 18.8 23.2 18.2 23.2 18 23 C 17.8 22.8 17.8 22.2 18 22 " fill = "rgb(247, 203, 236)" stroke = "rgb(247, 203, 236)" stroke-width = "0"/>
    <path d="M 4.25 23.25 C 4.45 23.05 4.85 22.85 5 23 C 5.15 23.15 5.2 23.8 5 24 C 4.8 24.2 4.15 24.15 4 24 C 3.85 23.85 4.05 23.45 4.25 23.25 " fill = "rgb(253, 232, 248)" stroke = "rgb(253, 232, 248)" stroke-width = "0"/>
    <path d="M 5 23 C 5.2 22.8 5.8 22.8 6 23 C 6.2 23.2 6.2 23.8 6 24 C 5.8 24.2 5.2 24.2 5 24 C 4.8 23.8 4.8 23.2 5 23 " fill = "rgb(251, 193, 236)" stroke = "rgb(251, 193, 236)" stroke-width = "0"/>
    <path d="M 6 23 C 6.2 22.8 6.8 22.8 7 23 C 7.2 23.2 7.2 23.8 7 24 C 6.8 24.2 6.2 24.2 6 24 C 5.8 23.8 5.8 23.2 6 23 " fill = "rgb(255, 201, 241)" stroke = "rgb(255, 201, 241)" stroke-width = "0"/>
    <path d="M 7 23 C 7.2 22.8 7.8 22.8 8 23 C 8.2 23.2 8.2 23.8 8 24 C 7.8 24.2 7.2 24.2 7 24 C 6.8 23.8 6.8 23.2 7 23 " fill = "rgb(183, 94, 152)" stroke = "rgb(183, 94, 152)" stroke-width = "0"/>
    <path d="M 8 23 C 8.2 22.8 8.8 22.8 9 23 C 9.2 23.2 9.2 23.8 9 24 C 8.8 24.2 8.2 24.2 8 24 C 7.8 23.8 7.8 23.2 8 23 " fill = "rgb(173, 100, 104)" stroke = "rgb(173, 100, 104)" stroke-width = "0"/>
    <path d="M 9 23 C 9.2 22.8 9.8 22.8 10 23 C 10.2 23.2 10.2 23.8 10 24 C 9.8 24.2 9.2 24.2 9 24 C 8.8 23.8 8.8 23.2 9 23 " fill = "rgb(247, 252, 122)" stroke = "rgb(247, 252, 122)" stroke-width = "0"/>
    <path d="M 10 23 C 10.2 22.8 10.8 22.8 11 23 C 11.2 23.2 11.2 23.8 11 24 C 10.8 24.2 10.2 24.2 10 24 C 9.8 23.8 9.8 23.2 10 23 " fill = "rgb(160, 188, 112)" stroke = "rgb(160, 188, 112)" stroke-width = "0"/>
    <path d="M 11 23 C 11.2 22.8 11.8 22.8 12 23 C 12.2 23.2 12.2 23.8 12 24 C 11.8 24.2 11.2 24.2 11 24 C 10.8 23.8 10.8 23.2 11 23 " fill = "rgb(77, 86, 100)" stroke = "rgb(77, 86, 100)" stroke-width = "0"/>
    <path d="M 12 23 C 12.2 22.8 12.8 22.8 13 23 C 13.2 23.2 13.2 23.8 13 24 C 12.8 24.2 12.2 24.2 12 24 C 11.8 23.8 11.8 23.2 12 23 " fill = "rgb(44, 26, 96)" stroke = "rgb(44, 26, 96)" stroke-width = "0"/>
    <path d="M 13 23 C 13.2 22.8 13.8 22.8 14 23 C 14.2 23.2 14.2 23.8 14 24 C 13.8 24.2 13.2 24.2 13 24 C 12.8 23.8 12.8 23.2 13 23 " fill = "rgb(118, 88, 109)" stroke = "rgb(118, 88, 109)" stroke-width = "0"/>
    <path d="M 14 23 C 14.2 22.8 14.8 22.8 15 23 C 15.2 23.2 15.2 23.8 15 24 C 14.8 24.2 14.2 24.2 14 24 C 13.8 23.8 13.8 23.2 14 23 " fill = "rgb(134, 111, 109)" stroke = "rgb(134, 111, 109)" stroke-width = "0"/>
    <path d="M 15 23 C 15.2 22.8 15.8 22.8 16 23 C 16.2 23.2 16.2 23.8 16 24 C 15.8 24.2 15.2 24.2 15 24 C 14.8 23.8 14.8 23.2 15 23 " fill = "rgb(189, 103, 161)" stroke = "rgb(189, 103, 161)" stroke-width = "0"/>
    <path d="M 16 23 C 16.2 22.8 16.8 22.8 17 23 C 17.2 23.2 17.2 23.8 17 24 C 16.8 24.2 16.2 24.2 16 24 C 15.8 23.8 15.8 23.2 16 23 " fill = "rgb(248, 72, 222)" stroke = "rgb(248, 72, 222)" stroke-width = "0"/>
    <path d="M 17 23 C 17.2 22.8 17.8 22.8 18 23 C 18.2 23.2 18.2 23.8 18 24 C 17.8 24.2 17.2 24.2 17 24 C 16.8 23.8 16.8 23.2 17 23 " fill = "rgb(223, 22, 174)" stroke = "rgb(223, 22, 174)" stroke-width = "0"/>
    <path d="M 18 23 C 18.2 22.8 18.8 22.8 19 23 C 19.2 23.2 19.2 23.8 19 24 C 18.8 24.2 18.2 24.2 18 24 C 17.8 23.8 17.8 23.2 18 23 " fill = "rgb(243, 170, 224)" stroke = "rgb(243, 170, 224)" stroke-width = "0"/>
    <path d="M 3.25 24.25 C 3.45 24.05 3.85 23.85 4 24 C 4.15 24.15 4.2 24.8 4 25 C 3.8 25.2 3.15 25.15 3 25 C 2.85 24.85 3.05 24.45 3.25 24.25 " fill = "rgb(253, 233, 248)" stroke = "rgb(253, 233, 248)" stroke-width = "0"/>
    <path d="M 4 24 C 4.2 23.8 4.8 23.8 5 24 C 5.2 24.2 5.2 24.8 5 25 C 4.8 25.2 4.2 25.2 4 25 C 3.8 24.8 3.8 24.2 4 24 " fill = "rgb(251, 194, 235)" stroke = "rgb(251, 194, 235)" stroke-width = "0"/>
    <path d="M 5 24 C 5.2 23.8 5.8 23.8 6 24 C 6.2 24.2 6.2 24.8 6 25 C 5.8 25.2 5.2 25.2 5 25 C 4.8 24.8 4.8 24.2 5 24 " fill = "rgb(247, 153, 222)" stroke = "rgb(247, 153, 222)" stroke-width = "0"/>
    <path d="M 6 24 C 6.2 23.8 6.8 23.8 7 24 C 7.2 24.2 7.2 24.8 7 25 C 6.8 25.2 6.2 25.2 6 25 C 5.8 24.8 5.8 24.2 6 24 " fill = "rgb(247, 157, 223)" stroke = "rgb(247, 157, 223)" stroke-width = "0"/>
    <path d="M 7 24 C 7.2 23.8 7.8 23.8 8 24 C 8.2 24.2 8.2 24.8 8 25 C 7.8 25.2 7.2 25.2 7 25 C 6.8 24.8 6.8 24.2 7 24 " fill = "rgb(251, 116, 226)" stroke = "rgb(251, 116, 226)" stroke-width = "0"/>
    <path d="M 8 24 C 8.2 23.8 8.8 23.8 9 24 C 9.2 24.2 9.2 24.8 9 25 C 8.8 25.2 8.2 25.2 8 25 C 7.8 24.8 7.8 24.2 8 24 " fill = "rgb(248, 124, 235)" stroke = "rgb(248, 124, 235)" stroke-width = "0"/>
    <path d="M 9 24 C 9.2 23.8 9.8 23.8 10 24 C 10.2 24.2 10.2 24.8 10 25 C 9.8 25.2 9.2 25.2 9 25 C 8.8 24.8 8.8 24.2 9 24 " fill = "rgb(230, 194, 249)" stroke = "rgb(230, 194, 249)" stroke-width = "0"/>
    <path d="M 10 24 C 10.2 23.8 10.8 23.8 11 24 C 11.2 24.2 11.2 24.8 11 25 C 10.8 25.2 10.2 25.2 10 25 C 9.8 24.8 9.8 24.2 10 24 " fill = "rgb(90, 130, 241)" stroke = "rgb(90, 130, 241)" stroke-width = "0"/>
    <path d="M 11 24 C 11.2 23.8 11.8 23.8 12 24 C 12.2 24.2 12.2 24.8 12 25 C 11.8 25.2 11.2 25.2 11 25 C 10.8 24.8 10.8 24.2 11 24 " fill = "rgb(56, 100, 232)" stroke = "rgb(56, 100, 232)" stroke-width = "0"/>
    <path d="M 12 24 C 12.2 23.8 12.8 23.8 13 24 C 13.2 24.2 13.2 24.8 13 25 C 12.8 25.2 12.2 25.2 12 25 C 11.8 24.8 11.8 24.2 12 24 " fill = "rgb(95, 105, 229)" stroke = "rgb(95, 105, 229)" stroke-width = "0"/>
    <path d="M 13 24 C 13.2 23.8 13.8 23.8 14 24 C 14.2 24.2 14.2 24.8 14 25 C 13.8 25.2 13.2 25.2 13 25 C 12.8 24.8 12.8 24.2 13 24 " fill = "rgb(211, 160, 243)" stroke = "rgb(211, 160, 243)" stroke-width = "0"/>
    <path d="M 14 24 C 14.2 23.8 14.8 23.8 15 24 C 15.2 24.2 15.2 24.8 15 25 C 14.8 25.2 14.2 25.2 14 25 C 13.8 24.8 13.8 24.2 14 24 " fill = "rgb(242, 211, 246)" stroke = "rgb(242, 211, 246)" stroke-width = "0"/>
    <path d="M 15 24 C 15.2 23.8 15.8 23.8 16 24 C 16.2 24.2 16.2 24.8 16 25 C 15.8 25.2 15.2 25.2 15 25 C 14.8 24.8 14.8 24.2 15 24 " fill = "rgb(252, 170, 236)" stroke = "rgb(252, 170, 236)" stroke-width = "0"/>
    <path d="M 16 24 C 16.2 23.8 16.8 23.8 17 24 C 17.2 24.2 17.2 24.8 17 25 C 16.8 25.2 16.2 25.2 16 25 C 15.8 24.8 15.8 24.2 16 24 " fill = "rgb(245, 82, 217)" stroke = "rgb(245, 82, 217)" stroke-width = "0"/>
    <path d="M 17 24 C 17.2 23.8 17.8 23.8 18 24 C 18.2 24.2 18.2 24.8 18 25 C 17.8 25.2 17.2 25.2 17 25 C 16.8 24.8 16.8 24.2 17 24 " fill = "rgb(230, 39, 188)" stroke = "rgb(230, 39, 188)" stroke-width = "0"/>
    <path d="M 18 24 C 18.2 23.8 18.8 23.8 19 24 C 19.2 24.2 19.2 24.8 19 25 C 18.8 25.2 18.2 25.2 18 25 C 17.8 24.8 17.8 24.2 18 24 " fill = "rgb(245, 176, 230)" stroke = "rgb(245, 176, 230)" stroke-width = "0"/>
    <path d="M 3 25 C 3.2 24.8 3.8 24.8 4 25 C 4.2 25.2 4.2 25.8 4 26 C 3.8 26.2 3.2 26.2 3 26 C 2.8 25.8 2.8 25.2 3 25 " fill = "rgb(249, 155, 225)" stroke = "rgb(249, 155, 225)" stroke-width = "0"/>
    <path d="M 4 25 C 4.2 24.8 4.8 24.8 5 25 C 5.2 25.2 5.2 25.8 5 26 C 4.8 26.2 4.2 26.2 4 26 C 3.8 25.8 3.8 25.2 4 25 " fill = "rgb(247, 169, 227)" stroke = "rgb(247, 169, 227)" stroke-width = "0"/>
    <path d="M 5 25 C 5.2 24.8 5.6 25 6 25 C 6.4 25 6.8 24.8 7 25 C 7.2 25.2 7.2 25.8 7 26 C 6.8 26.2 6.4 26 6 26 C 5.6 26 5.2 26.2 5 26 C 4.8 25.8 4.8 25.2 5 25 " fill = "rgb(248, 249, 248)" stroke = "rgb(248, 249, 248)" stroke-width = "0"/>
    <path d="M 7 25 C 7.2 24.8 7.8 24.8 8 25 C 8.2 25.2 8.2 25.8 8 26 C 7.8 26.2 7.2 26.2 7 26 C 6.8 25.8 6.8 25.2 7 25 " fill = "rgb(248, 175, 227)" stroke = "rgb(248, 175, 227)" stroke-width = "0"/>
    <path d="M 8 25 C 8.2 24.8 8.8 24.8 9 25 C 9.2 25.2 9.2 25.8 9 26 C 8.8 26.2 8.2 26.2 8 26 C 7.8 25.8 7.8 25.2 8 25 " fill = "rgb(248, 109, 217)" stroke = "rgb(248, 109, 217)" stroke-width = "0"/>
    <path d="M 9 25 C 9.2 24.8 9.8 24.8 10 25 C 10.2 25.2 10.2 25.8 10 26 C 9.8 26.2 9.2 26.2 9 26 C 8.8 25.8 8.8 25.2 9 25 " fill = "rgb(249, 76, 224)" stroke = "rgb(249, 76, 224)" stroke-width = "0"/>
    <path d="M 10 25 C 10.2 24.8 10.8 24.8 11 25 C 11.2 25.2 11.2 25.8 11 26 C 10.8 26.2 10.2 26.2 10 26 C 9.8 25.8 9.8 25.2 10 25 " fill = "rgb(255, 216, 246)" stroke = "rgb(255, 216, 246)" stroke-width = "0"/>
    <path d="M 11 25 C 11.2 24.8 11.8 24.8 12 25 C 12.2 25.2 12.2 25.8 12 26 C 11.8 26.2 11.2 26.2 11 26 C 10.8 25.8 10.8 25.2 11 25 " fill = "rgb(255, 255, 255)" stroke = "rgb(255, 255, 255)" stroke-width = "0"/>
    <path d="M 12 25 C 12.2 24.8 12.8 24.8 13 25 C 13.2 25.2 13.2 25.8 13 26 C 12.8 26.2 12.2 26.2 12 26 C 11.8 25.8 11.8 25.2 12 25 " fill = "rgb(255, 225, 250)" stroke = "rgb(255, 225, 250)" stroke-width = "0"/>
    <path d="M 13 25 C 13.2 24.8 13.8 24.8 14 25 C 14.2 25.2 14.2 25.8 14 26 C 13.8 26.2 13.2 26.2 13 26 C 12.8 25.8 12.8 25.2 13 25 " fill = "rgb(250, 82, 225)" stroke = "rgb(250, 82, 225)" stroke-width = "0"/>
    <path d="M 14 25 C 14.2 24.8 14.8 24.8 15 25 C 15.2 25.2 15.2 25.8 15 26 C 14.8 26.2 14.2 26.2 14 26 C 13.8 25.8 13.8 25.2 14 25 " fill = "rgb(248, 110, 217)" stroke = "rgb(248, 110, 217)" stroke-width = "0"/>
    <path d="M 15 25 C 15.2 24.8 15.8 24.8 16 25 C 16.2 25.2 16.2 25.8 16 26 C 15.8 26.2 15.2 26.2 15 26 C 14.8 25.8 14.8 25.2 15 25 " fill = "rgb(248, 124, 215)" stroke = "rgb(248, 124, 215)" stroke-width = "0"/>
    <path d="M 16 25 C 16.2 24.8 16.8 24.8 17 25 C 17.2 25.2 17.2 25.8 17 26 C 16.8 26.2 16.2 26.2 16 26 C 15.8 25.8 15.8 25.2 16 25 " fill = "rgb(248, 122, 217)" stroke = "rgb(248, 122, 217)" stroke-width = "0"/>
    <path d="M 17 25 C 17.2 24.8 17.8 24.8 18 25 C 18.2 25.2 18.2 25.8 18 26 C 17.8 26.2 17.2 26.2 17 26 C 16.8 25.8 16.8 25.2 17 25 " fill = "rgb(249, 89, 226)" stroke = "rgb(249, 89, 226)" stroke-width = "0"/>
    <path d="M 18 25 C 18.2 24.8 18.8 24.8 19 25 C 19.2 25.2 19.2 25.8 19 26 C 18.8 26.2 18.2 26.2 18 26 C 17.8 25.8 17.8 25.2 18 25 " fill = "rgb(253, 194, 245)" stroke = "rgb(253, 194, 245)" stroke-width = "0"/>
    <path d="M 3 26 C 3.2 25.8 3.8 25.8 4 26 C 4.2 26.2 4.2 26.8 4 27 C 3.8 27.2 3.2 27.2 3 27 C 2.8 26.8 2.8 26.2 3 26 " fill = "rgb(249, 124, 231)" stroke = "rgb(249, 124, 231)" stroke-width = "0"/>
    <path d="M 4 26 C 4.2 25.8 4.8 25.8 5 26 C 5.2 26.2 5.2 26.8 5 27 C 4.8 27.2 4.2 27.2 4 27 C 3.8 26.8 3.8 26.2 4 26 " fill = "rgb(248, 96, 220)" stroke = "rgb(248, 96, 220)" stroke-width = "0"/>
    <path d="M 5 26 C 5.2 25.8 5.8 25.8 6 26 C 6.2 26.2 6.2 26.8 6 27 C 5.8 27.2 5.2 27.2 5 27 C 4.8 26.8 4.8 26.2 5 26 " fill = "rgb(248, 137, 218)" stroke = "rgb(248, 137, 218)" stroke-width = "0"/>
    <path d="M 6 26 C 6.2 25.8 6.8 25.8 7 26 C 7.2 26.2 7.2 26.8 7 27 C 6.8 27.2 6.2 27.2 6 27 C 5.8 26.8 5.8 26.2 6 26 " fill = "rgb(248, 134, 217)" stroke = "rgb(248, 134, 217)" stroke-width = "0"/>
    <path d="M 7 26 C 7.2 25.8 7.8 25.8 8 26 C 8.2 26.2 8.2 26.8 8 27 C 7.8 27.2 7.2 27.2 7 27 C 6.8 26.8 6.8 26.2 7 26 " fill = "rgb(248, 132, 215)" stroke = "rgb(248, 132, 215)" stroke-width = "0"/>
    <path d="M 8 26 C 8.2 25.8 8.8 25.8 9 26 C 9.2 26.2 9.2 26.8 9 27 C 8.8 27.2 8.2 27.2 8 27 C 7.8 26.8 7.8 26.2 8 26 " fill = "rgb(248, 114, 218)" stroke = "rgb(248, 114, 218)" stroke-width = "0"/>
    <path d="M 9 26 C 9.2 25.8 9.8 25.8 10 26 C 10.2 26.2 10.2 26.8 10 27 C 9.8 27.2 9.2 27.2 9 27 C 8.8 26.8 8.8 26.2 9 26 " fill = "rgb(247, 76, 223)" stroke = "rgb(247, 76, 223)" stroke-width = "0"/>
    <path d="M 10 26 C 10.2 25.8 10.8 25.8 11 26 C 11.2 26.2 11.2 26.8 11 27 C 10.8 27.2 10.2 27.2 10 27 C 9.8 26.8 9.8 26.2 10 26 " fill = "rgb(228, 40, 184)" stroke = "rgb(228, 40, 184)" stroke-width = "0"/>
    <path d="M 11 26 C 11.2 25.8 11.8 25.8 12 26 C 12.2 26.2 12.2 26.8 12 27 C 11.8 27.2 11.2 27.2 11 27 C 10.8 26.8 10.8 26.2 11 26 " fill = "rgb(240, 151, 217)" stroke = "rgb(240, 151, 217)" stroke-width = "0"/>
    <path d="M 14 26 C 14.2 25.8 14.8 25.8 15 26 C 15.2 26.2 15.2 26.8 15 27 C 14.8 27.2 14.2 27.2 14 27 C 13.8 26.8 13.8 26.2 14 26 " fill = "rgb(249, 122, 231)" stroke = "rgb(249, 122, 231)" stroke-width = "0"/>
    <path d="M 15 26 C 15.2 25.8 15.8 25.8 16 26 C 16.2 26.2 16.2 26.8 16 27 C 15.8 27.2 15.2 27.2 15 27 C 14.8 26.8 14.8 26.2 15 26 " fill = "rgb(247, 69, 221)" stroke = "rgb(247, 69, 221)" stroke-width = "0"/>
    <path d="M 16 26 C 16.2 25.8 16.8 25.8 17 26 C 17.2 26.2 17.2 26.8 17 27 C 16.8 27.2 16.2 27.2 16 27 C 15.8 26.8 15.8 26.2 16 26 " fill = "rgb(248, 96, 226)" stroke = "rgb(248, 96, 226)" stroke-width = "0"/>
    <path d="M 17 26 C 17.2 25.8 17.8 25.8 18 26 C 18.2 26.2 18.2 26.8 18 27 C 17.8 27.2 17.2 27.2 17 27 C 16.8 26.8 16.8 26.2 17 26 " fill = "rgb(254, 235, 251)" stroke = "rgb(254, 235, 251)" stroke-width = "0"/>
    <path d="M 18 26 C 18.2 25.8 18.85 25.85 19 26 C 19.15 26.15 18.95 26.55 18.75 26.75 C 18.55 26.95 18.15 27.15 18 27 C 17.85 26.85 17.8 26.2 18 26 " fill = "rgb(255, 254, 254)" stroke = "rgb(255, 254, 254)" stroke-width = "0"/>
    <path d="M 3 27 C 3.15 26.85 3.8 26.8 4 27 C 4.2 27.2 4.15 27.85 4 28 C 3.85 28.15 3.45 27.95 3.25 27.75 C 3.05 27.55 2.85 27.15 3 27 " fill = "rgb(254, 231, 251)" stroke = "rgb(254, 231, 251)" stroke-width = "0"/>
    <path d="M 4 27 C 4.2 26.8 4.8 26.8 5 27 C 5.2 27.2 5.2 27.8 5 28 C 4.8 28.2 4.2 28.2 4 28 C 3.8 27.8 3.8 27.2 4 27 " fill = "rgb(243, 145, 220)" stroke = "rgb(243, 145, 220)" stroke-width = "0"/>
    <path d="M 5 27 C 5.2 26.8 5.8 26.8 6 27 C 6.2 27.2 6.2 27.8 6 28 C 5.8 28.2 5.2 28.2 5 28 C 4.8 27.8 4.8 27.2 5 27 " fill = "rgb(229, 45, 185)" stroke = "rgb(229, 45, 185)" stroke-width = "0"/>
    <path d="M 6 27 C 6.2 26.8 6.8 26.8 7 27 C 7.2 27.2 7.2 27.8 7 28 C 6.8 28.2 6.2 28.2 6 28 C 5.8 27.8 5.8 27.2 6 27 " fill = "rgb(246, 87, 219)" stroke = "rgb(246, 87, 219)" stroke-width = "0"/>
    <path d="M 7 27 C 7.2 26.8 7.8 26.8 8 27 C 8.2 27.2 8.2 27.8 8 28 C 7.8 28.2 7.2 28.2 7 28 C 6.8 27.8 6.8 27.2 7 27 " fill = "rgb(249, 92, 224)" stroke = "rgb(249, 92, 224)" stroke-width = "0"/>
    <path d="M 8 27 C 8.2 26.8 8.8 26.8 9 27 C 9.2 27.2 9.2 27.8 9 28 C 8.8 28.2 8.2 28.2 8 28 C 7.8 27.8 7.8 27.2 8 27 " fill = "rgb(248, 89, 224)" stroke = "rgb(248, 89, 224)" stroke-width = "0"/>
    <path d="M 9 27 C 9.2 26.8 9.8 26.8 10 27 C 10.2 27.2 10.2 27.8 10 28 C 9.8 28.2 9.2 28.2 9 28 C 8.8 27.8 8.8 27.2 9 27 " fill = "rgb(248, 79, 224)" stroke = "rgb(248, 79, 224)" stroke-width = "0"/>
    <path d="M 10 27 C 10.2 26.8 10.8 26.8 11 27 C 11.2 27.2 11.2 27.8 11 28 C 10.8 28.2 10.2 28.2 10 28 C 9.8 27.8 9.8 27.2 10 27 " fill = "rgb(226, 27, 180)" stroke = "rgb(226, 27, 180)" stroke-width = "0"/>
    <path d="M 11 27 C 11.2 26.8 11.8 26.8 12 27 C 12.2 27.2 12.2 27.8 12 28 C 11.8 28.2 11.2 28.2 11 28 C 10.8 27.8 10.8 27.2 11 27 " fill = "rgb(239, 143, 215)" stroke = "rgb(239, 143, 215)" stroke-width = "0"/>
    <path d="M 14 27 C 14.15 26.85 14.8 26.8 15 27 C 15.2 27.2 15.15 27.85 15 28 C 14.85 28.15 14.45 27.95 14.25 27.75 C 14.05 27.55 13.85 27.15 14 27 " fill = "rgb(253, 227, 250)" stroke = "rgb(253, 227, 250)" stroke-width = "0"/>
    <path d="M 15 27 C 15.2 26.8 15.8 26.8 16 27 C 16.2 27.2 16.2 27.8 16 28 C 15.8 28.2 15.2 28.2 15 28 C 14.8 27.8 14.8 27.2 15 27 " fill = "rgb(253, 215, 248)" stroke = "rgb(253, 215, 248)" stroke-width = "0"/>
    <path d="M 16 27 C 16.2 26.8 16.8 26.8 17 27 C 17.2 27.2 17.2 27.8 17 28 C 16.8 28.2 16.2 28.2 16 28 C 15.8 27.8 15.8 27.2 16 27 " fill = "rgb(253, 221, 249)" stroke = "rgb(253, 221, 249)" stroke-width = "0"/>
    <path d="M 17 27 C 17.2 26.8 17.85 26.85 18 27 C 18.15 27.15 17.95 27.55 17.75 27.75 C 17.55 27.95 17.15 28.15 17 28 C 16.85 27.85 16.8 27.2 17 27 " fill = "rgb(255, 253, 254)" stroke = "rgb(255, 253, 254)" stroke-width = "0"/>
    <path d="M 4 28 C 4.15 27.85 4.8 27.8 5 28 C 5.2 28.2 5.15 28.85 5 29 C 4.85 29.15 4.45 28.95 4.25 28.75 C 4.05 28.55 3.85 28.15 4 28 " fill = "rgb(249, 218, 241)" stroke = "rgb(249, 218, 241)" stroke-width = "0"/>
    <path d="M 5 28 C 5.2 27.8 5.8 27.8 6 28 C 6.2 28.2 6.2 28.8 6 29 C 5.8 29.2 5.2 29.2 5 29 C 4.8 28.8 4.8 28.2 5 28 " fill = "rgb(240, 143, 216)" stroke = "rgb(240, 143, 216)" stroke-width = "0"/>
    <path d="M 6 28 C 6.2 27.8 6.8 27.8 7 28 C 7.2 28.2 7.2 28.8 7 29 C 6.8 29.2 6.2 29.2 6 29 C 5.8 28.8 5.8 28.2 6 28 " fill = "rgb(234, 57, 197)" stroke = "rgb(234, 57, 197)" stroke-width = "0"/>
    <path d="M 7 28 C 7.2 27.8 7.8 27.8 8 28 C 8.2 28.2 8.2 28.8 8 29 C 7.8 29.2 7.2 29.2 7 29 C 6.8 28.8 6.8 28.2 7 28 " fill = "rgb(233, 45, 194)" stroke = "rgb(233, 45, 194)" stroke-width = "0"/>
    <path d="M 8 28 C 8.2 27.8 8.8 27.8 9 28 C 9.2 28.2 9.2 28.8 9 29 C 8.8 29.2 8.2 29.2 8 29 C 7.8 28.8 7.8 28.2 8 28 " fill = "rgb(233, 46, 194)" stroke = "rgb(233, 46, 194)" stroke-width = "0"/>
    <path d="M 9 28 C 9.2 27.8 9.8 27.8 10 28 C 10.2 28.2 10.2 28.8 10 29 C 9.8 29.2 9.2 29.2 9 29 C 8.8 28.8 8.8 28.2 9 28 " fill = "rgb(233, 50, 195)" stroke = "rgb(233, 50, 195)" stroke-width = "0"/>
    <path d="M 10 28 C 10.2 27.8 10.8 27.8 11 28 C 11.2 28.2 11.2 28.8 11 29 C 10.8 29.2 10.2 29.2 10 29 C 9.8 28.8 9.8 28.2 10 28 " fill = "rgb(240, 137, 215)" stroke = "rgb(240, 137, 215)" stroke-width = "0"/>
    <path d="M 11 28 C 11.2 27.8 11.85 27.85 12 28 C 12.15 28.15 11.95 28.55 11.75 28.75 C 11.55 28.95 11.15 29.15 11 29 C 10.85 28.85 10.8 28.2 11 28 " fill = "rgb(248, 211, 239)" stroke = "rgb(248, 211, 239)" stroke-width = "0"/>
    <path d="M 5 29 C 5.15 28.85 5.8 28.8 6 29 C 6.2 29.2 6.15 29.85 6 30 C 5.85 30.15 5.45 29.95 5.25 29.75 C 5.05 29.55 4.85 29.15 5 29 " fill = "rgb(253, 243, 251)" stroke = "rgb(253, 243, 251)" stroke-width = "0"/>
    <path d="M 6 29 C 6.2 28.8 6.8 28.8 7 29 C 7.2 29.2 7.2 29.8 7 30 C 6.8 30.2 6.2 30.2 6 30 C 5.8 29.8 5.8 29.2 6 29 " fill = "rgb(237, 128, 209)" stroke = "rgb(237, 128, 209)" stroke-width = "0"/>
    <path d="M 7 29 C 7.2 28.8 7.6 29 8 29 C 8.4 29 8.8 28.8 9 29 C 9.2 29.2 9.2 29.8 9 30 C 8.8 30.2 8.4 30 8 30 C 7.6 30 7.2 30.2 7 30 C 6.8 29.8 6.8 29.2 7 29 " fill = "rgb(235, 114, 204)" stroke = "rgb(235, 114, 204)" stroke-width = "0"/>
    <path d="M 9 29 C 9.2 28.8 9.8 28.8 10 29 C 10.2 29.2 10.2 29.8 10 30 C 9.8 30.2 9.2 30.2 9 30 C 8.8 29.8 8.8 29.2 9 29 " fill = "rgb(235, 119, 206)" stroke = "rgb(235, 119, 206)" stroke-width = "0"/>
    <path d="M 10 29 C 10.2 28.8 10.85 28.85 11 29 C 11.15 29.15 10.95 29.55 10.75 29.75 C 10.55 29.95 10.15 30.15 10 30 C 9.85 29.85 9.8 29.2 10 29 " fill = "rgb(252, 234, 247)" stroke = "rgb(252, 234, 247)" stroke-width = "0"/>
</svg>
