<svg version="1.1" baseProfile = "full" width = "23" height = "25" xmlns = "http://www.w3.org/2000/svg">
    <path d="M 0 0 C 0.2 -0.2 0.6 -3.49691e-08 1 0 C 1.4 0 1.6 -3.49691e-08 2 0 C 2.4 0 2.6 -3.49691e-08 3 0 C 3.4 0 3.6 -3.49691e-08 4 0 C 4.4 0 4.6 -3.49691e-08 5 0 C 5.4 0 5.6 -3.49691e-08 6 0 C 6.4 0 6.6 -3.49691e-08 7 0 C 7.4 0 7.6 -3.49691e-08 8 0 C 8.4 0 8.6 -3.49691e-08 9 0 C 9.4 0 9.6 -3.49691e-08 10 0 C 10.4 0 10.6 -3.49691e-08 11 0 C 11.4 0 11.6 -3.49691e-08 12 0 C 12.4 0 12.6 -3.49691e-08 13 0 C 13.4 0 13.6 -3.49691e-08 14 0 C 14.4 0 14.6 -3.49691e-08 15 0 C 15.4 0 15.6 -3.49691e-08 16 0 C 16.4 0 16.6 -3.49691e-08 17 0 C 17.4 0 17.6 -3.49691e-08 18 0 C 18.4 0 18.6 -3.49691e-08 19 0 C 19.4 0 19.6 -3.49691e-08 20 0 C 20.4 0 20.6 -3.49691e-08 21 0 C 21.4 0 21.6 -3.49691e-08 22 0 C 22.4 0 22.8 -0.2 23 0 C 23.2 0.2 23 0.6 23 1 C 23 1.4 23 1.6 23 2 C 23 2.4 23 2.6 23 3 C 23 3.4 23 3.6 23 4 C 23 4.4 23 4.6 23 5 C 23 5.4 23 5.6 23 6 C 23 6.4 23 6.6 23 7 C 23 7.4 23 7.6 23 8 C 23 8.4 23 8.6 23 9 C 23 9.4 23 9.6 23 10 C 23 10.4 23 10.6 23 11 C 23 11.4 23 11.6 23 12 C 23 12.4 23 12.6 23 13 C 23 13.4 23 13.6 23 14 C 23 14.4 23 14.6 23 15 C 23 15.4 23 15.6 23 16 C 23 16.4 23 16.6 23 17 C 23 17.4 23 17.6 23 18 C 23 18.4 23 18.6 23 19 C 23 19.4 23 19.6 23 20 C 23 20.4 23 20.6 23 21 C 23 21.4 23 21.6 23 22 C 23 22.4 23 22.6 23 23 C 23 23.4 23 23.6 23 24 C 23 24.4 23.2 24.8 23 25 C 22.8 25.2 22.4 25 22 25 C 21.6 25 21.4 25 21 25 C 20.6 25 20.4 25 20 25 C 19.6 25 19.4 25 19 25 C 18.6 25 18.4 25 18 25 C 17.6 25 17.4 25 17 25 C 16.6 25 16.4 25 16 25 C 15.6 25 15.4 25 15 25 C 14.6 25 14.4 25 14 25 C 13.6 25 13.4 25 13 25 C 12.6 25 12.4 25 12 25 C 11.6 25 11.4 25 11 25 C 10.6 25 10.4 25 10 25 C 9.6 25 9.4 25 9 25 C 8.6 25 8.4 25 8 25 C 7.6 25 7.4 25 7 25 C 6.6 25 6.4 25 6 25 C 5.6 25 5.4 25 5 25 C 4.6 25 4.4 25 4 25 C 3.6 25 3.4 25 3 25 C 2.6 25 2.4 25 2 25 C 1.6 25 1.4 25 1 25 C 0.6 25 0.2 25.2 0 25 C -0.2 24.8 3.01992e-08 24.4 0 24 C -1.74846e-08 23.6 3.01992e-08 23.4 0 23 C -1.74846e-08 22.6 3.01992e-08 22.4 0 22 C -1.74846e-08 21.6 3.01992e-08 21.4 0 21 C -1.74846e-08 20.6 3.01992e-08 20.4 0 20 C -1.74846e-08 19.6 3.01992e-08 19.4 0 19 C -1.74846e-08 18.6 3.01992e-08 18.4 0 18 C -1.74846e-08 17.6 3.01992e-08 17.4 0 17 C -1.74846e-08 16.6 3.01992e-08 16.4 0 16 C -1.74846e-08 15.6 3.01992e-08 15.4 0 15 C -1.74846e-08 14.6 3.01992e-08 14.4 0 14 C -1.74846e-08 13.6 3.01992e-08 13.4 0 13 C -1.74846e-08 12.6 3.01992e-08 12.4 0 12 C -1.74846e-08 11.6 3.01992e-08 11.4 0 11 C -1.74846e-08 10.6 3.01992e-08 10.4 0 10 C -1.74846e-08 9.6 3.01992e-08 9.4 0 9 C -1.74846e-08 8.6 3.01992e-08 8.4 0 8 C -1.74846e-08 7.6 3.01992e-08 7.4 0 7 C -1.74846e-08 6.6 3.01992e-08 6.4 0 6 C -1.74846e-08 5.6 3.01992e-08 5.4 0 5 C -1.74846e-08 4.6 3.01992e-08 4.4 0 4 C -1.74846e-08 3.6 3.01992e-08 3.4 0 3 C -1.74846e-08 2.6 3.01992e-08 2.4 0 2 C -1.74846e-08 1.6 3.01992e-08 1.4 0 1 C -1.74846e-08 0.6 -0.2 0.2 0 0 " fill = "rgb(235, 0, 235)" stroke = "rgb(235, 0, 235)" stroke-width = "0"/>
    <path d="M 15.25 1.25 C 15.45 1.05 15.85 0.85 16 1 C 16.15 1.15 16.2 1.8 16 2 C 15.8 2.2 15.15 2.15 15 2 C 14.85 1.85 15.05 1.45 15.25 1.25 " fill = "rgb(242, 242, 242)" stroke = "rgb(242, 242, 242)" stroke-width = "0"/>
    <path d="M 16 1 C 16.2 0.8 16.8 0.8 17 1 C 17.2 1.2 17.2 1.8 17 2 C 16.8 2.2 16.2 2.2 16 2 C 15.8 1.8 15.8 1.2 16 1 " fill = "rgb(233, 234, 233)" stroke = "rgb(233, 234, 233)" stroke-width = "0"/>
    <path d="M 17 1 C 17.2 0.8 17.6 1 18 1 C 18.4 1 18.8 0.8 19 1 C 19.2 1.2 19.2 1.8 19 2 C 18.8 2.2 18.4 2 18 2 C 17.6 2 17.2 2.2 17 2 C 16.8 1.8 16.8 1.2 17 1 " fill = "rgb(234, 234, 234)" stroke = "rgb(234, 234, 234)" stroke-width = "0"/>
    <path d="M 19 1 C 19.2 0.8 19.8 0.8 20 1 C 20.2 1.2 20.2 1.8 20 2 C 19.8 2.2 19.2 2.2 19 2 C 18.8 1.8 18.8 1.2 19 1 " fill = "rgb(233, 233, 233)" stroke = "rgb(233, 233, 233)" stroke-width = "0"/>
    <path d="M 20 1 C 20.15 0.85 20.55 1.05 20.75 1.25 C 20.95 1.45 21.15 1.85 21 2 C 20.85 2.15 20.2 2.2 20 2 C 19.8 1.8 19.85 1.15 20 1 " fill = "rgb(247, 247, 247)" stroke = "rgb(247, 247, 247)" stroke-width = "0"/>
    <path d="M 15 2 C 15.2 1.8 15.8 1.8 16 2 C 16.2 2.2 16.2 2.8 16 3 C 15.8 3.2 15.2 3.2 15 3 C 14.8 2.8 14.8 2.2 15 2 " fill = "rgb(110, 115, 116)" stroke = "rgb(110, 115, 116)" stroke-width = "0"/>
    <path d="M 16 2 C 16.2 1.8 16.8 1.8 17 2 C 17.2 2.2 17.2 2.8 17 3 C 16.8 3.2 16.2 3.2 16 3 C 15.8 2.8 15.8 2.2 16 2 " fill = "rgb(8, 17, 18)" stroke = "rgb(8, 17, 18)" stroke-width = "0"/>
    <path d="M 17 2 C 17.2 1.8 17.8 1.8 18 2 C 18.2 2.2 18.2 2.8 18 3 C 17.8 3.2 17.2 3.2 17 3 C 16.8 2.8 16.8 2.2 17 2 " fill = "rgb(15, 23, 23)" stroke = "rgb(15, 23, 23)" stroke-width = "0"/>
    <path d="M 18 2 C 18.2 1.8 18.8 1.8 19 2 C 19.2 2.2 19.2 2.8 19 3 C 18.8 3.2 18.2 3.2 18 3 C 17.8 2.8 17.8 2.2 18 2 " fill = "rgb(23, 27, 23)" stroke = "rgb(23, 27, 23)" stroke-width = "0"/>
    <path d="M 19 2 C 19.2 1.8 19.8 1.8 20 2 C 20.2 2.2 20.2 2.8 20 3 C 19.8 3.2 19.2 3.2 19 3 C 18.8 2.8 18.8 2.2 19 2 " fill = "rgb(15, 19, 15)" stroke = "rgb(15, 19, 15)" stroke-width = "0"/>
    <path d="M 20 2 C 20.2 1.8 20.8 1.8 21 2 C 21.2 2.2 21.2 2.8 21 3 C 20.8 3.2 20.2 3.2 20 3 C 19.8 2.8 19.8 2.2 20 2 " fill = "rgb(168, 170, 168)" stroke = "rgb(168, 170, 168)" stroke-width = "0"/>
    <path d="M 12.25 3.25 C 12.45 3.05 12.85 2.85 13 3 C 13.15 3.15 13.2 3.8 13 4 C 12.8 4.2 12.15 4.15 12 4 C 11.85 3.85 12.05 3.45 12.25 3.25 " fill = "rgb(229, 230, 230)" stroke = "rgb(229, 230, 230)" stroke-width = "0"/>
    <path d="M 13 3 C 13.2 2.8 13.8 2.8 14 3 C 14.2 3.2 14.2 3.8 14 4 C 13.8 4.2 13.2 4.2 13 4 C 12.8 3.8 12.8 3.2 13 3 " fill = "rgb(79, 85, 85)" stroke = "rgb(79, 85, 85)" stroke-width = "0"/>
    <path d="M 14 3 C 14.2 2.8 14.8 2.8 15 3 C 15.2 3.2 15.2 3.8 15 4 C 14.8 4.2 14.2 4.2 14 4 C 13.8 3.8 13.8 3.2 14 3 " fill = "rgb(85, 91, 92)" stroke = "rgb(85, 91, 92)" stroke-width = "0"/>
    <path d="M 15 3 C 15.2 2.8 15.8 2.8 16 3 C 16.2 3.2 16.2 3.8 16 4 C 15.8 4.2 15.2 4.2 15 4 C 14.8 3.8 14.8 3.2 15 3 " fill = "rgb(129, 81, 32)" stroke = "rgb(129, 81, 32)" stroke-width = "0"/>
    <path d="M 16 3 C 16.2 2.8 16.8 2.8 17 3 C 17.2 3.2 17.2 3.8 17 4 C 16.8 4.2 16.2 4.2 16 4 C 15.8 3.8 15.8 3.2 16 3 " fill = "rgb(159, 76, 0)" stroke = "rgb(159, 76, 0)" stroke-width = "0"/>
    <path d="M 17 3 C 17.2 2.8 17.8 2.8 18 3 C 18.2 3.2 18.2 3.8 18 4 C 17.8 4.2 17.2 4.2 17 4 C 16.8 3.8 16.8 3.2 17 3 " fill = "rgb(129, 63, 0)" stroke = "rgb(129, 63, 0)" stroke-width = "0"/>
    <path d="M 18 3 C 18.2 2.8 18.6 3 19 3 C 19.4 3 19.75 2.85 20 3 C 20.25 3.15 20.05 3.55 20.25 3.75 C 20.45 3.95 20.85 3.75 21 4 C 21.15 4.25 21 4.6 21 5 C 21 5.4 21.2 5.8 21 6 C 20.8 6.2 20.2 6.2 20 6 C 19.8 5.8 20.05 5.35 20 5 C 19.95 4.65 19.95 4.45 19.75 4.25 C 19.55 4.05 19.35 4.05 19 4 C 18.65 3.95 18.2 4.2 18 4 C 17.8 3.8 17.8 3.2 18 3 " fill = "rgb(0, 0, 0)" stroke = "rgb(0, 0, 0)" stroke-width = "0"/>
    <path d="M 20 3 C 20.15 2.85 20.8 2.8 21 3 C 21.2 3.2 21.15 3.85 21 4 C 20.85 4.15 20.45 3.95 20.25 3.75 C 20.05 3.55 19.85 3.15 20 3 " fill = "rgb(51, 54, 51)" stroke = "rgb(51, 54, 51)" stroke-width = "0"/>
    <path d="M 21 3 C 21.15 2.85 21.55 3.05 21.75 3.25 C 21.95 3.45 22.15 3.85 22 4 C 21.85 4.15 21.2 4.2 21 4 C 20.8 3.8 20.85 3.15 21 3 " fill = "rgb(156, 157, 156)" stroke = "rgb(156, 157, 156)" stroke-width = "0"/>
    <path d="M 11.25 4.25 C 11.45 4.05 11.85 3.85 12 4 C 12.15 4.15 12.2 4.8 12 5 C 11.8 5.2 11.15 5.15 11 5 C 10.85 4.85 11.05 4.45 11.25 4.25 " fill = "rgb(219, 221, 221)" stroke = "rgb(219, 221, 221)" stroke-width = "0"/>
    <path d="M 12 4 C 12.2 3.8 12.8 3.8 13 4 C 13.2 4.2 13.2 4.8 13 5 C 12.8 5.2 12.2 5.2 12 5 C 11.8 4.8 11.8 4.2 12 4 " fill = "rgb(144, 138, 129)" stroke = "rgb(144, 138, 129)" stroke-width = "0"/>
    <path d="M 13 4 C 13.2 3.8 13.8 3.8 14 4 C 14.2 4.2 14.2 4.8 14 5 C 13.8 5.2 13.2 5.2 13 5 C 12.8 4.8 12.8 4.2 13 4 " fill = "rgb(79, 32, 0)" stroke = "rgb(79, 32, 0)" stroke-width = "0"/>
    <path d="M 14 4 C 14.2 3.8 14.8 3.8 15 4 C 15.2 4.2 15.2 4.8 15 5 C 14.8 5.2 14.2 5.2 14 5 C 13.8 4.8 13.8 4.2 14 4 " fill = "rgb(76, 77, 72)" stroke = "rgb(76, 77, 72)" stroke-width = "0"/>
    <path d="M 15 4 C 15.2 3.8 15.8 3.8 16 4 C 16.2 4.2 16.2 4.8 16 5 C 15.8 5.2 15.2 5.2 15 5 C 14.8 4.8 14.8 4.2 15 4 " fill = "rgb(188, 109, 32)" stroke = "rgb(188, 109, 32)" stroke-width = "0"/>
    <path d="M 16 4 C 16.2 3.8 16.8 3.8 17 4 C 17.2 4.2 17.2 4.8 17 5 C 16.8 5.2 16.2 5.2 16 5 C 15.8 4.8 15.8 4.2 16 4 " fill = "rgb(255, 124, 0)" stroke = "rgb(255, 124, 0)" stroke-width = "0"/>
    <path d="M 17 4 C 17.2 3.8 17.8 3.8 18 4 C 18.2 4.2 18.2 4.8 18 5 C 17.8 5.2 17.2 5.2 17 5 C 16.8 4.8 16.8 4.2 17 4 " fill = "rgb(227, 110, 0)" stroke = "rgb(227, 110, 0)" stroke-width = "0"/>
    <path d="M 18 4 C 18.2 3.8 18.8 3.8 19 4 C 19.2 4.2 19.2 4.8 19 5 C 18.8 5.2 18.2 5.2 18 5 C 17.8 4.8 17.8 4.2 18 4 " fill = "rgb(86, 44, 0)" stroke = "rgb(86, 44, 0)" stroke-width = "0"/>
    <path d="M 19 4 C 19.15 3.85 19.55 4.05 19.75 4.25 C 19.95 4.45 20.15 4.85 20 5 C 19.85 5.15 19.2 5.2 19 5 C 18.8 4.8 18.85 4.15 19 4 " fill = "rgb(13, 10, 0)" stroke = "rgb(13, 10, 0)" stroke-width = "0"/>
    <path d="M 21 4 C 21.2 3.8 21.8 3.8 22 4 C 22.2 4.2 22.2 4.8 22 5 C 21.8 5.2 21.2 5.2 21 5 C 20.8 4.8 20.8 4.2 21 4 " fill = "rgb(91, 94, 91)" stroke = "rgb(91, 94, 91)" stroke-width = "0"/>
    <path d="M 10.25 5.25 C 10.45 5.05 10.85 4.85 11 5 C 11.15 5.15 11.2 5.8 11 6 C 10.8 6.2 10.15 6.15 10 6 C 9.85 5.85 10.05 5.45 10.25 5.25 " fill = "rgb(247, 247, 247)" stroke = "rgb(247, 247, 247)" stroke-width = "0"/>
    <path d="M 11 5 C 11.2 4.8 11.8 4.8 12 5 C 12.2 5.2 12.2 5.8 12 6 C 11.8 6.2 11.2 6.2 11 6 C 10.8 5.8 10.8 5.2 11 5 " fill = "rgb(139, 142, 142)" stroke = "rgb(139, 142, 142)" stroke-width = "0"/>
    <path d="M 12 5 C 12.2 4.8 12.8 4.8 13 5 C 13.2 5.2 13.2 5.8 13 6 C 12.8 6.2 12.2 6.2 12 6 C 11.8 5.8 11.8 5.2 12 5 " fill = "rgb(49, 28, 2)" stroke = "rgb(49, 28, 2)" stroke-width = "0"/>
    <path d="M 13 5 C 13.2 4.8 13.8 4.8 14 5 C 14.2 5.2 14.2 5.8 14 6 C 13.8 6.2 13.2 6.2 13 6 C 12.8 5.8 12.8 5.2 13 5 " fill = "rgb(255, 124, 0)" stroke = "rgb(255, 124, 0)" stroke-width = "0"/>
    <path d="M 14 5 C 14.2 4.8 14.8 4.8 15 5 C 15.2 5.2 15.2 5.8 15 6 C 14.8 6.2 14.2 6.2 14 6 C 13.8 5.8 13.8 5.2 14 5 " fill = "rgb(255, 242, 227)" stroke = "rgb(255, 242, 227)" stroke-width = "0"/>
    <path d="M 15 5 C 15.2 4.8 15.8 4.8 16 5 C 16.2 5.2 16.2 5.8 16 6 C 15.8 6.2 15.2 6.2 15 6 C 14.8 5.8 14.8 5.2 15 5 " fill = "rgb(252, 174, 101)" stroke = "rgb(252, 174, 101)" stroke-width = "0"/>
    <path d="M 16 5 C 16.2 4.8 16.8 4.8 17 5 C 17.2 5.2 16.95 5.65 17 6 C 17.05 6.35 17.05 6.55 17.25 6.75 C 17.45 6.95 17.65 6.95 18 7 C 18.35 7.05 18.8 6.8 19 7 C 19.2 7.2 19.2 7.8 19 8 C 18.8 8.2 18.4 8 18 8 C 17.6 8 17.25 8.15 17 8 C 16.75 7.85 16.95 7.45 16.75 7.25 C 16.55 7.05 16.15 7.25 16 7 C 15.85 6.75 16 6.4 16 6 C 16 5.6 15.8 5.2 16 5 " fill = "rgb(248, 117, 0)" stroke = "rgb(248, 117, 0)" stroke-width = "0"/>
    <path d="M 17 5 C 17.2 4.8 17.75 4.85 18 5 C 18.25 5.15 18.05 5.55 18.25 5.75 C 18.45 5.95 18.85 5.75 19 6 C 19.15 6.25 19.2 6.8 19 7 C 18.8 7.2 18.25 7.15 18 7 C 17.75 6.85 17.95 6.45 17.75 6.25 C 17.55 6.05 17.15 6.25 17 6 C 16.85 5.75 16.8 5.2 17 5 " fill = "rgb(250, 121, 0)" stroke = "rgb(250, 121, 0)" stroke-width = "0"/>
    <path d="M 18 5 C 18.15 4.85 18.8 4.8 19 5 C 19.2 5.2 19.15 5.85 19 6 C 18.85 6.15 18.45 5.95 18.25 5.75 C 18.05 5.55 17.85 5.15 18 5 " fill = "rgb(255, 130, 0)" stroke = "rgb(255, 130, 0)" stroke-width = "0"/>
    <path d="M 19 5 C 19.2 4.8 19.8 4.8 20 5 C 20.2 5.2 20.2 5.8 20 6 C 19.8 6.2 19.2 6.2 19 6 C 18.8 5.8 18.8 5.2 19 5 " fill = "rgb(63, 33, 0)" stroke = "rgb(63, 33, 0)" stroke-width = "0"/>
    <path d="M 21 5 C 21.2 4.8 21.8 4.8 22 5 C 22.2 5.2 22.2 5.8 22 6 C 21.8 6.2 21.2 6.2 21 6 C 20.8 5.8 20.8 5.2 21 5 " fill = "rgb(94, 97, 95)" stroke = "rgb(94, 97, 95)" stroke-width = "0"/>
    <path d="M 10 6 C 10.2 5.8 10.8 5.8 11 6 C 11.2 6.2 11.2 6.8 11 7 C 10.8 7.2 10.2 7.2 10 7 C 9.8 6.8 9.8 6.2 10 6 " fill = "rgb(99, 102, 99)" stroke = "rgb(99, 102, 99)" stroke-width = "0"/>
    <path d="M 11 6 C 11.2 5.8 11.8 5.8 12 6 C 12.2 6.2 12.2 6.8 12 7 C 11.8 7.2 11.2 7.2 11 7 C 10.8 6.8 10.8 6.2 11 6 " fill = "rgb(95, 99, 98)" stroke = "rgb(95, 99, 98)" stroke-width = "0"/>
    <path d="M 12 6 C 12.2 5.8 12.8 5.8 13 6 C 13.2 6.2 13.2 6.8 13 7 C 12.8 7.2 12.2 7.2 12 7 C 11.8 6.8 11.8 6.2 12 6 " fill = "rgb(236, 213, 191)" stroke = "rgb(236, 213, 191)" stroke-width = "0"/>
    <path d="M 13 6 C 13.2 5.8 13.8 5.8 14 6 C 14.2 6.2 14.2 6.8 14 7 C 13.8 7.2 13.2 7.2 13 7 C 12.8 6.8 12.8 6.2 13 6 " fill = "rgb(250, 111, 0)" stroke = "rgb(250, 111, 0)" stroke-width = "0"/>
    <path d="M 14 6 C 14.2 5.8 14.8 5.8 15 6 C 15.2 6.2 15.2 6.8 15 7 C 14.8 7.2 14.2 7.2 14 7 C 13.8 6.8 13.8 6.2 14 6 " fill = "rgb(248, 233, 219)" stroke = "rgb(248, 233, 219)" stroke-width = "0"/>
    <path d="M 15 6 C 15.2 5.8 15.8 5.8 16 6 C 16.2 6.2 16.2 6.8 16 7 C 15.8 7.2 15.2 7.2 15 7 C 14.8 6.8 14.8 6.2 15 6 " fill = "rgb(248, 170, 98)" stroke = "rgb(248, 170, 98)" stroke-width = "0"/>
    <path d="M 17 6 C 17.1 5.9 17.55 6.05 17.75 6.25 C 17.95 6.45 18.1 6.9 18 7 C 17.9 7.1 17.45 6.95 17.25 6.75 C 17.05 6.55 16.9 6.1 17 6 " fill = "rgb(248, 120, 0)" stroke = "rgb(248, 120, 0)" stroke-width = "0"/>
    <path d="M 19 6 C 19.2 5.8 19.8 5.8 20 6 C 20.2 6.2 20.2 6.8 20 7 C 19.8 7.2 19.2 7.2 19 7 C 18.8 6.8 18.8 6.2 19 6 " fill = "rgb(237, 115, 0)" stroke = "rgb(237, 115, 0)" stroke-width = "0"/>
    <path d="M 20 6 C 20.2 5.8 20.8 5.8 21 6 C 21.2 6.2 21.2 6.8 21 7 C 20.8 7.2 20.2 7.2 20 7 C 19.8 6.8 19.8 6.2 20 6 " fill = "rgb(84, 40, 0)" stroke = "rgb(84, 40, 0)" stroke-width = "0"/>
    <path d="M 21 6 C 21.2 5.8 21.8 5.8 22 6 C 22.2 6.2 22.2 6.8 22 7 C 21.8 7.2 21.2 7.2 21 7 C 20.8 6.8 20.8 6.2 21 6 " fill = "rgb(89, 95, 95)" stroke = "rgb(89, 95, 95)" stroke-width = "0"/>
    <path d="M 9.25 7.25 C 9.45 7.05 9.85 6.85 10 7 C 10.15 7.15 10.2 7.8 10 8 C 9.8 8.2 9.15 8.15 9 8 C 8.85 7.85 9.05 7.45 9.25 7.25 " fill = "rgb(108, 111, 108)" stroke = "rgb(108, 111, 108)" stroke-width = "0"/>
    <path d="M 10 7 C 10.2 6.8 10.8 6.8 11 7 C 11.2 7.2 11.2 7.8 11 8 C 10.8 8.2 10.2 8.2 10 8 C 9.8 7.8 9.8 7.2 10 7 " fill = "rgb(127, 129, 127)" stroke = "rgb(127, 129, 127)" stroke-width = "0"/>
    <path d="M 11 7 C 11.2 6.8 11.8 6.8 12 7 C 12.2 7.2 12.2 7.8 12 8 C 11.8 8.2 11.2 8.2 11 8 C 10.8 7.8 10.8 7.2 11 7 " fill = "rgb(196, 198, 199)" stroke = "rgb(196, 198, 199)" stroke-width = "0"/>
    <path d="M 12 7 C 12.2 6.8 12.8 6.8 13 7 C 13.2 7.2 13.2 7.8 13 8 C 12.8 8.2 12.2 8.2 12 8 C 11.8 7.8 11.8 7.2 12 7 " fill = "rgb(253, 230, 208)" stroke = "rgb(253, 230, 208)" stroke-width = "0"/>
    <path d="M 13 7 C 13.2 6.8 13.8 6.8 14 7 C 14.2 7.2 14.2 7.8 14 8 C 13.8 8.2 13.2 8.2 13 8 C 12.8 7.8 12.8 7.2 13 7 " fill = "rgb(248, 109, 0)" stroke = "rgb(248, 109, 0)" stroke-width = "0"/>
    <path d="M 14 7 C 14.2 6.8 14.8 6.8 15 7 C 15.2 7.2 15.2 7.8 15 8 C 14.8 8.2 14.2 8.2 14 8 C 13.8 7.8 13.8 7.2 14 7 " fill = "rgb(248, 233, 224)" stroke = "rgb(248, 233, 224)" stroke-width = "0"/>
    <path d="M 15 7 C 15.2 6.8 15.8 6.8 16 7 C 16.2 7.2 16.2 7.8 16 8 C 15.8 8.2 15.2 8.2 15 8 C 14.8 7.8 14.8 7.2 15 7 " fill = "rgb(248, 169, 96)" stroke = "rgb(248, 169, 96)" stroke-width = "0"/>
    <path d="M 16 7 C 16.15 6.85 16.55 7.05 16.75 7.25 C 16.95 7.45 17.15 7.85 17 8 C 16.85 8.15 16.2 8.2 16 8 C 15.8 7.8 15.85 7.15 16 7 " fill = "rgb(248, 114, 0)" stroke = "rgb(248, 114, 0)" stroke-width = "0"/>
    <path d="M 19 7 C 19.2 6.8 19.8 6.8 20 7 C 20.2 7.2 20.2 7.8 20 8 C 19.8 8.2 19.2 8.2 19 8 C 18.8 7.8 18.8 7.2 19 7 " fill = "rgb(255, 127, 0)" stroke = "rgb(255, 127, 0)" stroke-width = "0"/>
    <path d="M 20 7 C 20.2 6.8 20.8 6.8 21 7 C 21.2 7.2 21.2 7.8 21 8 C 20.8 8.2 20.2 8.2 20 8 C 19.8 7.8 19.8 7.2 20 7 " fill = "rgb(92, 42, 0)" stroke = "rgb(92, 42, 0)" stroke-width = "0"/>
    <path d="M 21 7 C 21.2 6.8 21.8 6.8 22 7 C 22.2 7.2 22.2 7.8 22 8 C 21.8 8.2 21.2 8.2 21 8 C 20.8 7.8 20.8 7.2 21 7 " fill = "rgb(85, 91, 91)" stroke = "rgb(85, 91, 91)" stroke-width = "0"/>
    <path d="M 7.25 8.25 C 7.45 8.05 7.85 7.85 8 8 C 8.15 8.15 8.2 8.8 8 9 C 7.8 9.2 7.15 9.15 7 9 C 6.85 8.85 7.05 8.45 7.25 8.25 " fill = "rgb(238, 238, 238)" stroke = "rgb(238, 238, 238)" stroke-width = "0"/>
    <path d="M 8 8 C 8.2 7.8 8.8 7.8 9 8 C 9.2 8.2 9.2 8.8 9 9 C 8.8 9.2 8.2 9.2 8 9 C 7.8 8.8 7.8 8.2 8 8 " fill = "rgb(159, 160, 159)" stroke = "rgb(159, 160, 159)" stroke-width = "0"/>
    <path d="M 9 8 C 9.2 7.8 9.8 7.8 10 8 C 10.2 8.2 10.2 8.8 10 9 C 9.8 9.2 9.2 9.2 9 9 C 8.8 8.8 8.8 8.2 9 8 " fill = "rgb(87, 90, 87)" stroke = "rgb(87, 90, 87)" stroke-width = "0"/>
    <path d="M 10 8 C 10.2 7.8 10.8 7.8 11 8 C 11.2 8.2 11.2 8.8 11 9 C 10.8 9.2 10.2 9.2 10 9 C 9.8 8.8 9.8 8.2 10 8 " fill = "rgb(191, 192, 191)" stroke = "rgb(191, 192, 191)" stroke-width = "0"/>
    <path d="M 11 8 C 11.2 7.8 11.8 7.8 12 8 C 12.2 8.2 12.2 8.8 12 9 C 11.8 9.2 11.2 9.2 11 9 C 10.8 8.8 10.8 8.2 11 8 " fill = "rgb(255, 255, 255)" stroke = "rgb(255, 255, 255)" stroke-width = "0"/>
    <path d="M 12 8 C 12.2 7.8 12.8 7.8 13 8 C 13.2 8.2 13.2 8.8 13 9 C 12.8 9.2 12.2 9.2 12 9 C 11.8 8.8 11.8 8.2 12 8 " fill = "rgb(248, 225, 203)" stroke = "rgb(248, 225, 203)" stroke-width = "0"/>
    <path d="M 13 8 C 13.2 7.8 13.8 7.8 14 8 C 14.2 8.2 14.2 8.8 14 9 C 13.8 9.2 13.2 9.2 13 9 C 12.8 8.8 12.8 8.2 13 8 " fill = "rgb(248, 108, 0)" stroke = "rgb(248, 108, 0)" stroke-width = "0"/>
    <path d="M 14 8 C 14.2 7.8 14.8 7.8 15 8 C 15.2 8.2 15.2 8.8 15 9 C 14.8 9.2 14.2 9.2 14 9 C 13.8 8.8 13.8 8.2 14 8 " fill = "rgb(248, 232, 138)" stroke = "rgb(248, 232, 138)" stroke-width = "0"/>
    <path d="M 15 8 C 15.2 7.8 15.8 7.8 16 8 C 16.2 8.2 16.2 8.8 16 9 C 15.8 9.2 15.2 9.2 15 9 C 14.8 8.8 14.8 8.2 15 8 " fill = "rgb(248, 199, 119)" stroke = "rgb(248, 199, 119)" stroke-width = "0"/>
    <path d="M 16 8 C 16.2 7.8 16.8 7.8 17 8 C 17.2 8.2 17.2 8.8 17 9 C 16.8 9.2 16.2 9.2 16 9 C 15.8 8.8 15.8 8.2 16 8 " fill = "rgb(248, 164, 88)" stroke = "rgb(248, 164, 88)" stroke-width = "0"/>
    <path d="M 17 8 C 17.2 7.8 17.8 7.8 18 8 C 18.2 8.2 18.2 8.8 18 9 C 17.8 9.2 17.2 9.2 17 9 C 16.8 8.8 16.8 8.2 17 8 " fill = "rgb(248, 166, 90)" stroke = "rgb(248, 166, 90)" stroke-width = "0"/>
    <path d="M 18 8 C 18.2 7.8 18.8 7.8 19 8 C 19.2 8.2 19.2 8.8 19 9 C 18.8 9.2 18.2 9.2 18 9 C 17.8 8.8 17.8 8.2 18 8 " fill = "rgb(253, 171, 94)" stroke = "rgb(253, 171, 94)" stroke-width = "0"/>
    <path d="M 19 8 C 19.2 7.8 19.8 7.8 20 8 C 20.2 8.2 20.2 8.8 20 9 C 19.8 9.2 19.2 9.2 19 9 C 18.8 8.8 18.8 8.2 19 8 " fill = "rgb(177, 93, 12)" stroke = "rgb(177, 93, 12)" stroke-width = "0"/>
    <path d="M 20 8 C 20.2 7.8 20.8 7.8 21 8 C 21.2 8.2 21.2 8.8 21 9 C 20.8 9.2 20.2 9.2 20 9 C 19.8 8.8 19.8 8.2 20 8 " fill = "rgb(113, 82, 49)" stroke = "rgb(113, 82, 49)" stroke-width = "0"/>
    <path d="M 21 8 C 21.2 7.8 21.85 7.85 22 8 C 22.15 8.15 21.95 8.55 21.75 8.75 C 21.55 8.95 21.15 9.15 21 9 C 20.85 8.85 20.8 8.2 21 8 " fill = "rgb(150, 154, 154)" stroke = "rgb(150, 154, 154)" stroke-width = "0"/>
    <path d="M 6.25 9.25 C 6.45 9.05 6.85 8.85 7 9 C 7.15 9.15 7.2 9.8 7 10 C 6.8 10.2 6.15 10.15 6 10 C 5.85 9.85 6.05 9.45 6.25 9.25 " fill = "rgb(249, 249, 249)" stroke = "rgb(249, 249, 249)" stroke-width = "0"/>
    <path d="M 7 9 C 7.2 8.8 7.8 8.8 8 9 C 8.2 9.2 8.2 9.8 8 10 C 7.8 10.2 7.2 10.2 7 10 C 6.8 9.8 6.8 9.2 7 9 " fill = "rgb(187, 188, 187)" stroke = "rgb(187, 188, 187)" stroke-width = "0"/>
    <path d="M 8 9 C 8.2 8.8 8.8 8.8 9 9 C 9.2 9.2 9.2 9.8 9 10 C 8.8 10.2 8.2 10.2 8 10 C 7.8 9.8 7.8 9.2 8 9 " fill = "rgb(0, 2, 0)" stroke = "rgb(0, 2, 0)" stroke-width = "0"/>
    <path d="M 9 9 C 9.2 8.8 9.8 8.8 10 9 C 10.2 9.2 10.2 9.8 10 10 C 9.8 10.2 9.2 10.2 9 10 C 8.8 9.8 8.8 9.2 9 9 " fill = "rgb(224, 224, 224)" stroke = "rgb(224, 224, 224)" stroke-width = "0"/>
    <path d="M 10 9 C 10.2 8.8 10.8 8.8 11 9 C 11.2 9.2 11.2 9.8 11 10 C 10.8 10.2 10.2 10.2 10 10 C 9.8 9.8 9.8 9.2 10 9 " fill = "rgb(254, 254, 254)" stroke = "rgb(254, 254, 254)" stroke-width = "0"/>
    <path d="M 11 9 C 11.2 8.8 11.8 8.8 12 9 C 12.2 9.2 12.2 9.8 12 10 C 11.8 10.2 11.2 10.2 11 10 C 10.8 9.8 10.8 9.2 11 9 " fill = "rgb(248, 250, 251)" stroke = "rgb(248, 250, 251)" stroke-width = "0"/>
    <path d="M 12 9 C 12.2 8.8 12.8 8.8 13 9 C 13.2 9.2 13.2 9.8 13 10 C 12.8 10.2 12.2 10.2 12 10 C 11.8 9.8 11.8 9.2 12 9 " fill = "rgb(248, 226, 204)" stroke = "rgb(248, 226, 204)" stroke-width = "0"/>
    <path d="M 13 9 C 13.2 8.8 13.8 8.8 14 9 C 14.2 9.2 14.2 9.8 14 10 C 13.8 10.2 13.2 10.2 13 10 C 12.8 9.8 12.8 9.2 13 9 " fill = "rgb(248, 116, 0)" stroke = "rgb(248, 116, 0)" stroke-width = "0"/>
    <path d="M 14 9 C 14.2 8.8 14.8 8.8 15 9 C 15.2 9.2 15.2 9.8 15 10 C 14.8 10.2 14.2 10.2 14 10 C 13.8 9.8 13.8 9.2 14 9 " fill = "rgb(248, 220, 0)" stroke = "rgb(248, 220, 0)" stroke-width = "0"/>
    <path d="M 15 9 C 15.2 8.8 15.8 8.8 16 9 C 16.2 9.2 16.2 9.8 16 10 C 15.8 10.2 15.2 10.2 15 10 C 14.8 9.8 14.8 9.2 15 9 " fill = "rgb(248, 242, 143)" stroke = "rgb(248, 242, 143)" stroke-width = "0"/>
    <path d="M 16 9 C 16.2 8.8 16.8 8.8 17 9 C 17.2 9.2 17.2 9.8 17 10 C 16.8 10.2 16.2 10.2 16 10 C 15.8 9.8 15.8 9.2 16 9 " fill = "rgb(248, 243, 243)" stroke = "rgb(248, 243, 243)" stroke-width = "0"/>
    <path d="M 17 9 C 17.2 8.8 17.8 8.8 18 9 C 18.2 9.2 18.2 9.8 18 10 C 17.8 10.2 17.2 10.2 17 10 C 16.8 9.8 16.8 9.2 17 9 " fill = "rgb(248, 243, 237)" stroke = "rgb(248, 243, 237)" stroke-width = "0"/>
    <path d="M 18 9 C 18.2 8.8 18.8 8.8 19 9 C 19.2 9.2 19.2 9.8 19 10 C 18.8 10.2 18.2 10.2 18 10 C 17.8 9.8 17.8 9.2 18 9 " fill = "rgb(255, 254, 248)" stroke = "rgb(255, 254, 248)" stroke-width = "0"/>
    <path d="M 19 9 C 19.2 8.8 19.8 8.8 20 9 C 20.2 9.2 20.2 9.8 20 10 C 19.8 10.2 19.2 10.2 19 10 C 18.8 9.8 18.8 9.2 19 9 " fill = "rgb(25, 32, 32)" stroke = "rgb(25, 32, 32)" stroke-width = "0"/>
    <path d="M 20 9 C 20.2 8.8 20.8 8.8 21 9 C 21.2 9.2 21.2 9.8 21 10 C 20.8 10.2 20.2 10.2 20 10 C 19.8 9.8 19.8 9.2 20 9 " fill = "rgb(152, 156, 156)" stroke = "rgb(152, 156, 156)" stroke-width = "0"/>
    <path d="M 6 10 C 6.2 9.8 6.8 9.8 7 10 C 7.2 10.2 7.2 10.8 7 11 C 6.8 11.2 6.2 11.2 6 11 C 5.8 10.8 5.8 10.2 6 10 " fill = "rgb(154, 155, 154)" stroke = "rgb(154, 155, 154)" stroke-width = "0"/>
    <path d="M 7 10 C 7.2 9.8 7.8 9.8 8 10 C 8.2 10.2 8.2 10.8 8 11 C 7.8 11.2 7.2 11.2 7 11 C 6.8 10.8 6.8 10.2 7 10 " fill = "rgb(49, 52, 49)" stroke = "rgb(49, 52, 49)" stroke-width = "0"/>
    <path d="M 8 10 C 8.2 9.8 8.8 9.8 9 10 C 9.2 10.2 9.2 10.8 9 11 C 8.8 11.2 8.2 11.2 8 11 C 7.8 10.8 7.8 10.2 8 10 " fill = "rgb(234, 234, 234)" stroke = "rgb(234, 234, 234)" stroke-width = "0"/>
    <path d="M 9 10 C 9.2 9.8 9.85 9.85 10 10 C 10.15 10.15 9.95 10.55 9.75 10.75 C 9.55 10.95 9.15 11.15 9 11 C 8.85 10.85 8.8 10.2 9 10 " fill = "rgb(245, 245, 245)" stroke = "rgb(245, 245, 245)" stroke-width = "0"/>
    <path d="M 10 10 C 10.25 9.85 10.85 9.85 11 10 C 11.15 10.15 10.9 10.5 10.75 10.75 C 10.6 11 10.4 11 10.25 11.25 C 10.1 11.5 10.2 11.8 10 12 C 9.8 12.2 9.45 12.05 9.25 12.25 C 9.05 12.45 9.25 12.85 9 13 C 8.75 13.15 8.2 13.2 8 13 C 7.8 12.8 7.85 12.25 8 12 C 8.15 11.75 8.55 11.95 8.75 11.75 C 8.95 11.55 8.8 11.2 9 11 C 9.2 10.8 9.55 10.95 9.75 10.75 C 9.95 10.55 9.75 10.15 10 10 " fill = "rgb(248, 248, 248)" stroke = "rgb(248, 248, 248)" stroke-width = "0"/>
    <path d="M 11 10 C 11.25 9.85 11.8 9.8 12 10 C 12.2 10.2 12.15 10.75 12 11 C 11.85 11.25 11.45 11.05 11.25 11.25 C 11.05 11.45 11.25 11.85 11 12 C 10.75 12.15 10.15 12.15 10 12 C 9.85 11.85 10.1 11.5 10.25 11.25 C 10.4 11 10.6 11 10.75 10.75 C 10.9 10.5 10.75 10.15 11 10 " fill = "rgb(248, 250, 255)" stroke = "rgb(248, 250, 255)" stroke-width = "0"/>
    <path d="M 12 10 C 12.2 9.8 12.8 9.8 13 10 C 13.2 10.2 13.2 10.8 13 11 C 12.8 11.2 12.2 11.2 12 11 C 11.8 10.8 11.8 10.2 12 10 " fill = "rgb(248, 238, 209)" stroke = "rgb(248, 238, 209)" stroke-width = "0"/>
    <path d="M 13 10 C 13.2 9.8 13.8 9.8 14 10 C 14.2 10.2 14.2 10.8 14 11 C 13.8 11.2 13.2 11.2 13 11 C 12.8 10.8 12.8 10.2 13 10 " fill = "rgb(248, 182, 0)" stroke = "rgb(248, 182, 0)" stroke-width = "0"/>
    <path d="M 14 10 C 14.2 9.8 14.8 9.8 15 10 C 15.2 10.2 15.2 10.8 15 11 C 14.8 11.2 14.2 11.2 14 11 C 13.8 10.8 13.8 10.2 14 10 " fill = "rgb(248, 136, 0)" stroke = "rgb(248, 136, 0)" stroke-width = "0"/>
    <path d="M 15 10 C 15.2 9.8 15.8 9.8 16 10 C 16.2 10.2 16.2 10.8 16 11 C 15.8 11.2 15.2 11.2 15 11 C 14.8 10.8 14.8 10.2 15 10 " fill = "rgb(248, 126, 4)" stroke = "rgb(248, 126, 4)" stroke-width = "0"/>
    <path d="M 16 10 C 16.2 9.8 16.8 9.8 17 10 C 17.2 10.2 17.2 10.8 17 11 C 16.8 11.2 16.2 11.2 16 11 C 15.8 10.8 15.8 10.2 16 10 " fill = "rgb(248, 127, 14)" stroke = "rgb(248, 127, 14)" stroke-width = "0"/>
    <path d="M 17 10 C 17.2 9.8 17.8 9.8 18 10 C 18.2 10.2 18.2 10.8 18 11 C 17.8 11.2 17.2 11.2 17 11 C 16.8 10.8 16.8 10.2 17 10 " fill = "rgb(250, 128, 15)" stroke = "rgb(250, 128, 15)" stroke-width = "0"/>
    <path d="M 18 10 C 18.2 9.8 18.8 9.8 19 10 C 19.2 10.2 19.2 10.8 19 11 C 18.8 11.2 18.2 11.2 18 11 C 17.8 10.8 17.8 10.2 18 10 " fill = "rgb(255, 143, 24)" stroke = "rgb(255, 143, 24)" stroke-width = "0"/>
    <path d="M 19 10 C 19.2 9.8 19.8 9.8 20 10 C 20.2 10.2 20.2 10.8 20 11 C 19.8 11.2 19.2 11.2 19 11 C 18.8 10.8 18.8 10.2 19 10 " fill = "rgb(27, 10, 0)" stroke = "rgb(27, 10, 0)" stroke-width = "0"/>
    <path d="M 20 10 C 20.2 9.8 20.8 9.8 21 10 C 21.2 10.2 21.2 10.8 21 11 C 20.8 11.2 20.2 11.2 20 11 C 19.8 10.8 19.8 10.2 20 10 " fill = "rgb(146, 149, 149)" stroke = "rgb(146, 149, 149)" stroke-width = "0"/>
    <path d="M 5.25 11.25 C 5.45 11.05 5.85 10.85 6 11 C 6.15 11.15 6.2 11.8 6 12 C 5.8 12.2 5.15 12.15 5 12 C 4.85 11.85 5.05 11.45 5.25 11.25 " fill = "rgb(148, 149, 148)" stroke = "rgb(148, 149, 148)" stroke-width = "0"/>
    <path d="M 6 11 C 6.2 10.8 6.8 10.8 7 11 C 7.2 11.2 7.2 11.8 7 12 C 6.8 12.2 6.2 12.2 6 12 C 5.8 11.8 5.8 11.2 6 11 " fill = "rgb(115, 117, 115)" stroke = "rgb(115, 117, 115)" stroke-width = "0"/>
    <path d="M 7 11 C 7.2 10.8 7.8 10.8 8 11 C 8.2 11.2 8.2 11.8 8 12 C 7.8 12.2 7.2 12.2 7 12 C 6.8 11.8 6.8 11.2 7 11 " fill = "rgb(176, 177, 176)" stroke = "rgb(176, 177, 176)" stroke-width = "0"/>
    <path d="M 8 11 C 8.2 10.8 8.85 10.85 9 11 C 9.15 11.15 8.95 11.55 8.75 11.75 C 8.55 11.95 8.15 12.15 8 12 C 7.85 11.85 7.8 11.2 8 11 " fill = "rgb(254, 254, 254)" stroke = "rgb(254, 254, 254)" stroke-width = "0"/>
    <path d="M 11.25 11.25 C 11.45 11.05 11.85 10.85 12 11 C 12.15 11.15 12.2 11.8 12 12 C 11.8 12.2 11.15 12.15 11 12 C 10.85 11.85 11.05 11.45 11.25 11.25 " fill = "rgb(248, 234, 184)" stroke = "rgb(248, 234, 184)" stroke-width = "0"/>
    <path d="M 12 11 C 12.2 10.8 12.8 10.8 13 11 C 13.2 11.2 13.2 11.8 13 12 C 12.8 12.2 12.2 12.2 12 12 C 11.8 11.8 11.8 11.2 12 11 " fill = "rgb(248, 213, 93)" stroke = "rgb(248, 213, 93)" stroke-width = "0"/>
    <path d="M 13 11 C 13.2 10.8 13.8 10.8 14 11 C 14.2 11.2 14.2 11.8 14 12 C 13.8 12.2 13.2 12.2 13 12 C 12.8 11.8 12.8 11.2 13 11 " fill = "rgb(248, 230, 160)" stroke = "rgb(248, 230, 160)" stroke-width = "0"/>
    <path d="M 14 11 C 14.2 10.8 14.8 10.8 15 11 C 15.2 11.2 15.2 11.8 15 12 C 14.8 12.2 14.2 12.2 14 12 C 13.8 11.8 13.8 11.2 14 11 " fill = "rgb(248, 204, 157)" stroke = "rgb(248, 204, 157)" stroke-width = "0"/>
    <path d="M 15 11 C 15.2 10.8 15.8 10.8 16 11 C 16.2 11.2 16.2 11.8 16 12 C 15.8 12.2 15.2 12.2 15 12 C 14.8 11.8 14.8 11.2 15 11 " fill = "rgb(248, 200, 155)" stroke = "rgb(248, 200, 155)" stroke-width = "0"/>
    <path d="M 16 11 C 16.2 10.8 16.8 10.8 17 11 C 17.2 11.2 17.2 11.8 17 12 C 16.8 12.2 16.2 12.2 16 12 C 15.8 11.8 15.8 11.2 16 11 " fill = "rgb(252, 204, 159)" stroke = "rgb(252, 204, 159)" stroke-width = "0"/>
    <path d="M 17 11 C 17.2 10.8 17.8 10.8 18 11 C 18.2 11.2 18.2 11.8 18 12 C 17.8 12.2 17.2 12.2 17 12 C 16.8 11.8 16.8 11.2 17 11 " fill = "rgb(226, 178, 133)" stroke = "rgb(226, 178, 133)" stroke-width = "0"/>
    <path d="M 18 11 C 18.2 10.8 18.8 10.8 19 11 C 19.2 11.2 19.2 11.8 19 12 C 18.8 12.2 18.2 12.2 18 12 C 17.8 11.8 17.8 11.2 18 11 " fill = "rgb(75, 28, 0)" stroke = "rgb(75, 28, 0)" stroke-width = "0"/>
    <path d="M 19 11 C 19.2 10.8 19.8 10.8 20 11 C 20.2 11.2 20.2 11.8 20 12 C 19.8 12.2 19.2 12.2 19 12 C 18.8 11.8 18.8 11.2 19 11 " fill = "rgb(144, 138, 128)" stroke = "rgb(144, 138, 128)" stroke-width = "0"/>
    <path d="M 20 11 C 20.2 10.8 20.85 10.85 21 11 C 21.15 11.15 20.95 11.55 20.75 11.75 C 20.55 11.95 20.15 12.15 20 12 C 19.85 11.85 19.8 11.2 20 11 " fill = "rgb(218, 220, 220)" stroke = "rgb(218, 220, 220)" stroke-width = "0"/>
    <path d="M 5 12 C 5.2 11.8 5.8 11.8 6 12 C 6.2 12.2 6.2 12.8 6 13 C 5.8 13.2 5.2 13.2 5 13 C 4.8 12.8 4.8 12.2 5 12 " fill = "rgb(76, 79, 76)" stroke = "rgb(76, 79, 76)" stroke-width = "0"/>
    <path d="M 6 12 C 6.2 11.8 6.8 11.8 7 12 C 7.2 12.2 7.2 12.8 7 13 C 6.8 13.2 6.2 13.2 6 13 C 5.8 12.8 5.8 12.2 6 12 " fill = "rgb(99, 101, 99)" stroke = "rgb(99, 101, 99)" stroke-width = "0"/>
    <path d="M 7 12 C 7.2 11.8 7.8 11.8 8 12 C 8.2 12.2 8 12.6 8 13 C 8 13.4 8.2 13.8 8 14 C 7.8 14.2 7.2 14.2 7 14 C 6.8 13.8 7 13.4 7 13 C 7 12.6 6.8 12.2 7 12 " fill = "rgb(255, 255, 255)" stroke = "rgb(255, 255, 255)" stroke-width = "0"/>
    <path d="M 9.25 12.25 C 9.45 12.05 9.85 11.85 10 12 C 10.15 12.15 10.2 12.8 10 13 C 9.8 13.2 9.15 13.15 9 13 C 8.85 12.85 9.05 12.45 9.25 12.25 " fill = "rgb(248, 249, 253)" stroke = "rgb(248, 249, 253)" stroke-width = "0"/>
    <path d="M 10 12 C 10.2 11.8 10.8 11.8 11 12 C 11.2 12.2 11.2 12.8 11 13 C 10.8 13.2 10.2 13.2 10 13 C 9.8 12.8 9.8 12.2 10 12 " fill = "rgb(248, 236, 194)" stroke = "rgb(248, 236, 194)" stroke-width = "0"/>
    <path d="M 11 12 C 11.2 11.8 11.8 11.8 12 12 C 12.2 12.2 12.2 12.8 12 13 C 11.8 13.2 11.2 13.2 11 13 C 10.8 12.8 10.8 12.2 11 12 " fill = "rgb(248, 220, 123)" stroke = "rgb(248, 220, 123)" stroke-width = "0"/>
    <path d="M 12 12 C 12.2 11.8 12.8 11.8 13 12 C 13.2 12.2 13.2 12.8 13 13 C 12.8 13.2 12.2 13.2 12 13 C 11.8 12.8 11.8 12.2 12 12 " fill = "rgb(248, 217, 110)" stroke = "rgb(248, 217, 110)" stroke-width = "0"/>
    <path d="M 13 12 C 13.2 11.8 13.8 11.8 14 12 C 14.2 12.2 14.2 12.8 14 13 C 13.8 13.2 13.2 13.2 13 13 C 12.8 12.8 12.8 12.2 13 12 " fill = "rgb(248, 251, 255)" stroke = "rgb(248, 251, 255)" stroke-width = "0"/>
    <path d="M 14 12 C 14.2 11.8 14.8 11.8 15 12 C 15.2 12.2 15.2 12.8 15 13 C 14.8 13.2 14.2 13.2 14 13 C 13.8 12.8 13.8 12.2 14 12 " fill = "rgb(248, 251, 254)" stroke = "rgb(248, 251, 254)" stroke-width = "0"/>
    <path d="M 15 12 C 15.2 11.8 15.8 11.8 16 12 C 16.2 12.2 16.2 12.8 16 13 C 15.8 13.2 15.2 13.2 15 13 C 14.8 12.8 14.8 12.2 15 12 " fill = "rgb(251, 254, 255)" stroke = "rgb(251, 254, 255)" stroke-width = "0"/>
    <path d="M 16 12 C 16.2 11.8 16.8 11.8 17 12 C 17.2 12.2 17.2 12.8 17 13 C 16.8 13.2 16.2 13.2 16 13 C 15.8 12.8 15.8 12.2 16 12 " fill = "rgb(215, 219, 221)" stroke = "rgb(215, 219, 221)" stroke-width = "0"/>
    <path d="M 17 12 C 17.2 11.8 17.8 11.8 18 12 C 18.2 12.2 18.2 12.8 18 13 C 17.8 13.2 17.2 13.2 17 13 C 16.8 12.8 16.8 12.2 17 12 " fill = "rgb(143, 148, 149)" stroke = "rgb(143, 148, 149)" stroke-width = "0"/>
    <path d="M 18 12 C 18.2 11.8 18.8 11.8 19 12 C 19.2 12.2 19.2 12.8 19 13 C 18.8 13.2 18.2 13.2 18 13 C 17.8 12.8 17.8 12.2 18 12 " fill = "rgb(73, 79, 79)" stroke = "rgb(73, 79, 79)" stroke-width = "0"/>
    <path d="M 19 12 C 19.2 11.8 19.85 11.85 20 12 C 20.15 12.15 19.95 12.55 19.75 12.75 C 19.55 12.95 19.15 13.15 19 13 C 18.85 12.85 18.8 12.2 19 12 " fill = "rgb(230, 231, 231)" stroke = "rgb(230, 231, 231)" stroke-width = "0"/>
    <path d="M 4.25 13.25 C 4.45 13.05 4.85 12.85 5 13 C 5.15 13.15 5.2 13.8 5 14 C 4.8 14.2 4.15 14.15 4 14 C 3.85 13.85 4.05 13.45 4.25 13.25 " fill = "rgb(245, 245, 245)" stroke = "rgb(245, 245, 245)" stroke-width = "0"/>
    <path d="M 5 13 C 5.2 12.8 5.8 12.8 6 13 C 6.2 13.2 6.2 13.8 6 14 C 5.8 14.2 5.2 14.2 5 14 C 4.8 13.8 4.8 13.2 5 13 " fill = "rgb(87, 90, 87)" stroke = "rgb(87, 90, 87)" stroke-width = "0"/>
    <path d="M 6 13 C 6.2 12.8 6.8 12.8 7 13 C 7.2 13.2 7.2 13.8 7 14 C 6.8 14.2 6.2 14.2 6 14 C 5.8 13.8 5.8 13.2 6 13 " fill = "rgb(113, 115, 113)" stroke = "rgb(113, 115, 113)" stroke-width = "0"/>
    <path d="M 8 13 C 8.2 12.8 8.8 12.8 9 13 C 9.2 13.2 9.2 13.8 9 14 C 8.8 14.2 8.2 14.2 8 14 C 7.8 13.8 7.8 13.2 8 13 " fill = "rgb(248, 248, 249)" stroke = "rgb(248, 248, 249)" stroke-width = "0"/>
    <path d="M 9 13 C 9.2 12.8 9.8 12.8 10 13 C 10.2 13.2 10.2 13.8 10 14 C 9.8 14.2 9.2 14.2 9 14 C 8.8 13.8 8.8 13.2 9 13 " fill = "rgb(248, 246, 238)" stroke = "rgb(248, 246, 238)" stroke-width = "0"/>
    <path d="M 10 13 C 10.2 12.8 10.8 12.8 11 13 C 11.2 13.2 11.2 13.8 11 14 C 10.8 14.2 10.2 14.2 10 14 C 9.8 13.8 9.8 13.2 10 13 " fill = "rgb(248, 211, 83)" stroke = "rgb(248, 211, 83)" stroke-width = "0"/>
    <path d="M 11 13 C 11.2 12.8 11.8 12.8 12 13 C 12.2 13.2 12.2 13.8 12 14 C 11.8 14.2 11.2 14.2 11 14 C 10.8 13.8 10.8 13.2 11 13 " fill = "rgb(248, 216, 107)" stroke = "rgb(248, 216, 107)" stroke-width = "0"/>
    <path d="M 12 13 C 12.2 12.8 12.8 12.8 13 13 C 13.2 13.2 13.2 13.8 13 14 C 12.8 14.2 12.2 14.2 12 14 C 11.8 13.8 11.8 13.2 12 13 " fill = "rgb(248, 252, 255)" stroke = "rgb(248, 252, 255)" stroke-width = "0"/>
    <path d="M 13 13 C 13.2 12.8 13.8 12.8 14 13 C 14.2 13.2 14.05 13.65 14 14 C 13.95 14.35 13.95 14.55 13.75 14.75 C 13.55 14.95 13.15 15.15 13 15 C 12.85 14.85 13 14.4 13 14 C 13 13.6 12.8 13.2 13 13 " fill = "rgb(248, 248, 248)" stroke = "rgb(248, 248, 248)" stroke-width = "0"/>
    <path d="M 14 13 C 14.2 12.8 14.8 12.8 15 13 C 15.2 13.2 15.2 13.8 15 14 C 14.8 14.2 14.2 14.2 14 14 C 13.8 13.8 13.8 13.2 14 13 " fill = "rgb(249, 249, 249)" stroke = "rgb(249, 249, 249)" stroke-width = "0"/>
    <path d="M 15 13 C 15.2 12.8 15.8 12.8 16 13 C 16.2 13.2 16.2 13.8 16 14 C 15.8 14.2 15.2 14.2 15 14 C 14.8 13.8 14.8 13.2 15 13 " fill = "rgb(241, 241, 241)" stroke = "rgb(241, 241, 241)" stroke-width = "0"/>
    <path d="M 16 13 C 16.2 12.8 16.8 12.8 17 13 C 17.2 13.2 17.2 13.8 17 14 C 16.8 14.2 16.2 14.2 16 14 C 15.8 13.8 15.8 13.2 16 13 " fill = "rgb(140, 141, 140)" stroke = "rgb(140, 141, 140)" stroke-width = "0"/>
    <path d="M 17 13 C 17.2 12.8 17.8 12.8 18 13 C 18.2 13.2 18.2 13.8 18 14 C 17.8 14.2 17.2 14.2 17 14 C 16.8 13.8 16.8 13.2 17 13 " fill = "rgb(45, 49, 45)" stroke = "rgb(45, 49, 45)" stroke-width = "0"/>
    <path d="M 4 14 C 4.2 13.8 4.8 13.8 5 14 C 5.2 14.2 5.2 14.8 5 15 C 4.8 15.2 4.2 15.2 4 15 C 3.8 14.8 3.8 14.2 4 14 " fill = "rgb(44, 47, 44)" stroke = "rgb(44, 47, 44)" stroke-width = "0"/>
    <path d="M 5 14 C 5.2 13.8 5.8 13.8 6 14 C 6.2 14.2 6.2 14.8 6 15 C 5.8 15.2 5.2 15.2 5 15 C 4.8 14.8 4.8 14.2 5 14 " fill = "rgb(153, 154, 153)" stroke = "rgb(153, 154, 153)" stroke-width = "0"/>
    <path d="M 6 14 C 6.2 13.8 6.8 13.8 7 14 C 7.2 14.2 7.2 14.8 7 15 C 6.8 15.2 6.2 15.2 6 15 C 5.8 14.8 5.8 14.2 6 14 " fill = "rgb(239, 239, 239)" stroke = "rgb(239, 239, 239)" stroke-width = "0"/>
    <path d="M 7 14 C 7.2 13.8 7.8 13.8 8 14 C 8.2 14.2 8.2 14.8 8 15 C 7.8 15.2 7.2 15.2 7 15 C 6.8 14.8 6.8 14.2 7 14 " fill = "rgb(249, 250, 252)" stroke = "rgb(249, 250, 252)" stroke-width = "0"/>
    <path d="M 8 14 C 8.2 13.8 8.8 13.8 9 14 C 9.2 14.2 9.2 14.8 9 15 C 8.8 15.2 8.2 15.2 8 15 C 7.8 14.8 7.8 14.2 8 14 " fill = "rgb(248, 251, 255)" stroke = "rgb(248, 251, 255)" stroke-width = "0"/>
    <path d="M 9 14 C 9.2 13.8 9.8 13.8 10 14 C 10.2 14.2 10.2 14.8 10 15 C 9.8 15.2 9.2 15.2 9 15 C 8.8 14.8 8.8 14.2 9 14 " fill = "rgb(248, 201, 40)" stroke = "rgb(248, 201, 40)" stroke-width = "0"/>
    <path d="M 10 14 C 10.2 13.8 10.8 13.8 11 14 C 11.2 14.2 11.2 14.8 11 15 C 10.8 15.2 10.2 15.2 10 15 C 9.8 14.8 9.8 14.2 10 14 " fill = "rgb(248, 225, 145)" stroke = "rgb(248, 225, 145)" stroke-width = "0"/>
    <path d="M 11 14 C 11.2 13.8 11.8 13.8 12 14 C 12.2 14.2 12.2 14.8 12 15 C 11.8 15.2 11.2 15.2 11 15 C 10.8 14.8 10.8 14.2 11 14 " fill = "rgb(248, 246, 238)" stroke = "rgb(248, 246, 238)" stroke-width = "0"/>
    <path d="M 12 14 C 12.2 13.8 12.8 13.8 13 14 C 13.2 14.2 13.2 14.8 13 15 C 12.8 15.2 12.2 15.2 12 15 C 11.8 14.8 11.8 14.2 12 14 " fill = "rgb(248, 248, 249)" stroke = "rgb(248, 248, 249)" stroke-width = "0"/>
    <path d="M 14 14 C 14.25 13.85 14.8 13.8 15 14 C 15.2 14.2 15.15 14.75 15 15 C 14.85 15.25 14.45 15.05 14.25 15.25 C 14.05 15.45 14.25 15.85 14 16 C 13.75 16.15 13.2 16.2 13 16 C 12.8 15.8 12.85 15.25 13 15 C 13.15 14.75 13.55 14.95 13.75 14.75 C 13.95 14.55 13.75 14.15 14 14 " fill = "rgb(255, 255, 255)" stroke = "rgb(255, 255, 255)" stroke-width = "0"/>
    <path d="M 15 14 C 15.2 13.8 15.8 13.8 16 14 C 16.2 14.2 16.2 14.8 16 15 C 15.8 15.2 15.2 15.2 15 15 C 14.8 14.8 14.8 14.2 15 14 " fill = "rgb(102, 105, 102)" stroke = "rgb(102, 105, 102)" stroke-width = "0"/>
    <path d="M 16 14 C 16.2 13.8 16.8 13.8 17 14 C 17.2 14.2 17.2 14.8 17 15 C 16.8 15.2 16.2 15.2 16 15 C 15.8 14.8 15.8 14.2 16 14 " fill = "rgb(93, 96, 93)" stroke = "rgb(93, 96, 93)" stroke-width = "0"/>
    <path d="M 17 14 C 17.2 13.8 17.85 13.85 18 14 C 18.15 14.15 17.95 14.55 17.75 14.75 C 17.55 14.95 17.15 15.15 17 15 C 16.85 14.85 16.8 14.2 17 14 " fill = "rgb(242, 242, 242)" stroke = "rgb(242, 242, 242)" stroke-width = "0"/>
    <path d="M 4 15 C 4.2 14.8 4.8 14.8 5 15 C 5.2 15.2 5.2 15.8 5 16 C 4.8 16.2 4.2 16.2 4 16 C 3.8 15.8 3.8 15.2 4 15 " fill = "rgb(18, 22, 18)" stroke = "rgb(18, 22, 18)" stroke-width = "0"/>
    <path d="M 5 15 C 5.2 14.8 5.8 14.8 6 15 C 6.2 15.2 6.2 15.8 6 16 C 5.8 16.2 5.2 16.2 5 16 C 4.8 15.8 4.8 15.2 5 15 " fill = "rgb(161, 163, 161)" stroke = "rgb(161, 163, 161)" stroke-width = "0"/>
    <path d="M 6 15 C 6.2 14.8 6.8 14.8 7 15 C 7.2 15.2 7.2 15.8 7 16 C 6.8 16.2 6.2 16.2 6 16 C 5.8 15.8 5.8 15.2 6 15 " fill = "rgb(255, 255, 255)" stroke = "rgb(255, 255, 255)" stroke-width = "0"/>
    <path d="M 7 15 C 7.2 14.8 7.8 14.8 8 15 C 8.2 15.2 8.2 15.8 8 16 C 7.8 16.2 7.2 16.2 7 16 C 6.8 15.8 6.8 15.2 7 15 " fill = "rgb(248, 242, 219)" stroke = "rgb(248, 242, 219)" stroke-width = "0"/>
    <path d="M 8 15 C 8.2 14.8 8.8 14.8 9 15 C 9.2 15.2 9.2 15.8 9 16 C 8.8 16.2 8.2 16.2 8 16 C 7.8 15.8 7.8 15.2 8 15 " fill = "rgb(248, 210, 78)" stroke = "rgb(248, 210, 78)" stroke-width = "0"/>
    <path d="M 9 15 C 9.2 14.8 9.8 14.8 10 15 C 10.2 15.2 10.2 15.8 10 16 C 9.8 16.2 9.2 16.2 9 16 C 8.8 15.8 8.8 15.2 9 15 " fill = "rgb(248, 224, 141)" stroke = "rgb(248, 224, 141)" stroke-width = "0"/>
    <path d="M 10 15 C 10.2 14.8 10.8 14.8 11 15 C 11.2 15.2 11.2 15.8 11 16 C 10.8 16.2 10.2 16.2 10 16 C 9.8 15.8 9.8 15.2 10 15 " fill = "rgb(248, 241, 216)" stroke = "rgb(248, 241, 216)" stroke-width = "0"/>
    <path d="M 11 15 C 11.2 14.8 11.8 14.8 12 15 C 12.2 15.2 12.2 15.8 12 16 C 11.8 16.2 11.2 16.2 11 16 C 10.8 15.8 10.8 15.2 11 15 " fill = "rgb(248, 249, 251)" stroke = "rgb(248, 249, 251)" stroke-width = "0"/>
    <path d="M 12 15 C 12.2 14.8 12.8 14.8 13 15 C 13.2 15.2 13.2 15.8 13 16 C 12.8 16.2 12.2 16.2 12 16 C 11.8 15.8 11.8 15.2 12 15 " fill = "rgb(249, 249, 249)" stroke = "rgb(249, 249, 249)" stroke-width = "0"/>
    <path d="M 14.25 15.25 C 14.45 15.05 14.85 14.85 15 15 C 15.15 15.15 15.2 15.8 15 16 C 14.8 16.2 14.15 16.15 14 16 C 13.85 15.85 14.05 15.45 14.25 15.25 " fill = "rgb(110, 112, 110)" stroke = "rgb(110, 112, 110)" stroke-width = "0"/>
    <path d="M 15 15 C 15.2 14.8 15.8 14.8 16 15 C 16.2 15.2 16.2 15.8 16 16 C 15.8 16.2 15.2 16.2 15 16 C 14.8 15.8 14.8 15.2 15 15 " fill = "rgb(127, 129, 127)" stroke = "rgb(127, 129, 127)" stroke-width = "0"/>
    <path d="M 16 15 C 16.2 14.8 16.85 14.85 17 15 C 17.15 15.15 16.95 15.55 16.75 15.75 C 16.55 15.95 16.15 16.15 16 16 C 15.85 15.85 15.8 15.2 16 15 " fill = "rgb(199, 200, 199)" stroke = "rgb(199, 200, 199)" stroke-width = "0"/>
    <path d="M 4 16 C 4.2 15.8 4.8 15.8 5 16 C 5.2 16.2 5.2 16.8 5 17 C 4.8 17.2 4.2 17.2 4 17 C 3.8 16.8 3.8 16.2 4 16 " fill = "rgb(20, 23, 20)" stroke = "rgb(20, 23, 20)" stroke-width = "0"/>
    <path d="M 5 16 C 5.2 15.8 5.8 15.8 6 16 C 6.2 16.2 6.2 16.8 6 17 C 5.8 17.2 5.2 17.2 5 17 C 4.8 16.8 4.8 16.2 5 16 " fill = "rgb(161, 163, 164)" stroke = "rgb(161, 163, 164)" stroke-width = "0"/>
    <path d="M 6 16 C 6.2 15.8 6.8 15.8 7 16 C 7.2 16.2 7.2 16.8 7 17 C 6.8 17.2 6.2 17.2 6 17 C 5.8 16.8 5.8 16.2 6 16 " fill = "rgb(254, 245, 217)" stroke = "rgb(254, 245, 217)" stroke-width = "0"/>
    <path d="M 7 16 C 7.2 15.8 7.8 15.8 8 16 C 8.2 16.2 8.2 16.8 8 17 C 7.8 17.2 7.2 17.2 7 17 C 6.8 16.8 6.8 16.2 7 16 " fill = "rgb(248, 224, 140)" stroke = "rgb(248, 224, 140)" stroke-width = "0"/>
    <path d="M 8 16 C 8.2 15.8 8.8 15.8 9 16 C 9.2 16.2 9.2 16.8 9 17 C 8.8 17.2 8.2 17.2 8 17 C 7.8 16.8 7.8 16.2 8 16 " fill = "rgb(248, 209, 76)" stroke = "rgb(248, 209, 76)" stroke-width = "0"/>
    <path d="M 9 16 C 9.2 15.8 9.8 15.8 10 16 C 10.2 16.2 10.2 16.8 10 17 C 9.8 17.2 9.2 17.2 9 17 C 8.8 16.8 8.8 16.2 9 16 " fill = "rgb(248, 244, 230)" stroke = "rgb(248, 244, 230)" stroke-width = "0"/>
    <path d="M 10 16 C 10.2 15.8 10.8 15.8 11 16 C 11.2 16.2 11.2 16.8 11 17 C 10.8 17.2 10.2 17.2 10 17 C 9.8 16.8 9.8 16.2 10 16 " fill = "rgb(249, 250, 253)" stroke = "rgb(249, 250, 253)" stroke-width = "0"/>
    <path d="M 11 16 C 11.2 15.8 11.8 15.8 12 16 C 12.2 16.2 12.2 16.8 12 17 C 11.8 17.2 11.2 17.2 11 17 C 10.8 16.8 10.8 16.2 11 16 " fill = "rgb(251, 251, 251)" stroke = "rgb(251, 251, 251)" stroke-width = "0"/>
    <path d="M 12 16 C 12.2 15.8 12.8 15.8 13 16 C 13.2 16.2 13.2 16.8 13 17 C 12.8 17.2 12.2 17.2 12 17 C 11.8 16.8 11.8 16.2 12 16 " fill = "rgb(234, 234, 234)" stroke = "rgb(234, 234, 234)" stroke-width = "0"/>
    <path d="M 13 16 C 13.2 15.8 13.8 15.8 14 16 C 14.2 16.2 14.2 16.8 14 17 C 13.8 17.2 13.2 17.2 13 17 C 12.8 16.8 12.8 16.2 13 16 " fill = "rgb(157, 158, 157)" stroke = "rgb(157, 158, 157)" stroke-width = "0"/>
    <path d="M 14 16 C 14.2 15.8 14.8 15.8 15 16 C 15.2 16.2 15.2 16.8 15 17 C 14.8 17.2 14.2 17.2 14 17 C 13.8 16.8 13.8 16.2 14 16 " fill = "rgb(89, 92, 89)" stroke = "rgb(89, 92, 89)" stroke-width = "0"/>
    <path d="M 15 16 C 15.2 15.8 15.85 15.85 16 16 C 16.15 16.15 15.95 16.55 15.75 16.75 C 15.55 16.95 15.15 17.15 15 17 C 14.85 16.85 14.8 16.2 15 16 " fill = "rgb(192, 193, 192)" stroke = "rgb(192, 193, 192)" stroke-width = "0"/>
    <path d="M 4 17 C 4.2 16.8 4.8 16.8 5 17 C 5.2 17.2 5.2 17.8 5 18 C 4.8 18.2 4.2 18.2 4 18 C 3.8 17.8 3.8 17.2 4 17 " fill = "rgb(20, 24, 21)" stroke = "rgb(20, 24, 21)" stroke-width = "0"/>
    <path d="M 5 17 C 5.2 16.8 5.8 16.8 6 17 C 6.2 17.2 6.2 17.8 6 18 C 5.8 18.2 5.2 18.2 5 18 C 4.8 17.8 4.8 17.2 5 17 " fill = "rgb(161, 160, 153)" stroke = "rgb(161, 160, 153)" stroke-width = "0"/>
    <path d="M 6 17 C 6.2 16.8 6.8 16.8 7 17 C 7.2 17.2 7.2 17.8 7 18 C 6.8 18.2 6.2 18.2 6 18 C 5.8 17.8 5.8 17.2 6 17 " fill = "rgb(254, 227, 136)" stroke = "rgb(254, 227, 136)" stroke-width = "0"/>
    <path d="M 7 17 C 7.2 16.8 7.8 16.8 8 17 C 8.2 17.2 8.2 17.8 8 18 C 7.8 18.2 7.2 18.2 7 18 C 6.8 17.8 6.8 17.2 7 17 " fill = "rgb(248, 204, 54)" stroke = "rgb(248, 204, 54)" stroke-width = "0"/>
    <path d="M 8 17 C 8.2 16.8 8.8 16.8 9 17 C 9.2 17.2 9.2 17.8 9 18 C 8.8 18.2 8.2 18.2 8 18 C 7.8 17.8 7.8 17.2 8 17 " fill = "rgb(248, 253, 255)" stroke = "rgb(248, 253, 255)" stroke-width = "0"/>
    <path d="M 9 17 C 9.2 16.8 9.8 16.8 10 17 C 10.2 17.2 10.2 17.8 10 18 C 9.8 18.2 9.2 18.2 9 18 C 8.8 17.8 8.8 17.2 9 17 " fill = "rgb(249, 249, 251)" stroke = "rgb(249, 249, 251)" stroke-width = "0"/>
    <path d="M 10 17 C 10.2 16.8 10.8 16.8 11 17 C 11.2 17.2 11.2 17.8 11 18 C 10.8 18.2 10.2 18.2 10 18 C 9.8 17.8 9.8 17.2 10 17 " fill = "rgb(236, 236, 236)" stroke = "rgb(236, 236, 236)" stroke-width = "0"/>
    <path d="M 11 17 C 11.2 16.8 11.8 16.8 12 17 C 12.2 17.2 12.2 17.8 12 18 C 11.8 18.2 11.2 18.2 11 18 C 10.8 17.8 10.8 17.2 11 17 " fill = "rgb(231, 231, 231)" stroke = "rgb(231, 231, 231)" stroke-width = "0"/>
    <path d="M 12 17 C 12.2 16.8 12.8 16.8 13 17 C 13.2 17.2 13.2 17.8 13 18 C 12.8 18.2 12.2 18.2 12 18 C 11.8 17.8 11.8 17.2 12 17 " fill = "rgb(188, 189, 188)" stroke = "rgb(188, 189, 188)" stroke-width = "0"/>
    <path d="M 13 17 C 13.2 16.8 13.8 16.8 14 17 C 14.2 17.2 14.2 17.8 14 18 C 13.8 18.2 13.2 18.2 13 18 C 12.8 17.8 12.8 17.2 13 17 " fill = "rgb(0, 0, 0)" stroke = "rgb(0, 0, 0)" stroke-width = "0"/>
    <path d="M 14 17 C 14.2 16.8 14.8 16.8 15 17 C 15.2 17.2 15.2 17.8 15 18 C 14.8 18.2 14.2 18.2 14 18 C 13.8 17.8 13.8 17.2 14 17 " fill = "rgb(225, 225, 225)" stroke = "rgb(225, 225, 225)" stroke-width = "0"/>
    <path d="M 4 18 C 4.2 17.8 4.8 17.8 5 18 C 5.2 18.2 5.2 18.8 5 19 C 4.8 19.2 4.2 19.2 4 19 C 3.8 18.8 3.8 18.2 4 18 " fill = "rgb(13, 21, 30)" stroke = "rgb(13, 21, 30)" stroke-width = "0"/>
    <path d="M 5 18 C 5.2 17.8 5.8 17.8 6 18 C 6.2 18.2 6.2 18.8 6 19 C 5.8 19.2 5.2 19.2 5 19 C 4.8 18.8 4.8 18.2 5 18 " fill = "rgb(163, 130, 8)" stroke = "rgb(163, 130, 8)" stroke-width = "0"/>
    <path d="M 6 18 C 6.2 17.8 6.8 17.8 7 18 C 7.2 18.2 7.2 18.8 7 19 C 6.8 19.2 6.2 19.2 6 19 C 5.8 18.8 5.8 18.2 6 18 " fill = "rgb(255, 229, 114)" stroke = "rgb(255, 229, 114)" stroke-width = "0"/>
    <path d="M 7 18 C 7.2 17.8 7.8 17.8 8 18 C 8.2 18.2 8.2 18.8 8 19 C 7.8 19.2 7.2 19.2 7 19 C 6.8 18.8 6.8 18.2 7 18 " fill = "rgb(255, 255, 245)" stroke = "rgb(255, 255, 245)" stroke-width = "0"/>
    <path d="M 8 18 C 8.2 17.8 8.6 18 9 18 C 9.4 18 9.8 17.8 10 18 C 10.2 18.2 10.2 18.8 10 19 C 9.8 19.2 9.4 19 9 19 C 8.6 19 8.2 19.2 8 19 C 7.8 18.8 7.8 18.2 8 18 " fill = "rgb(255, 255, 255)" stroke = "rgb(255, 255, 255)" stroke-width = "0"/>
    <path d="M 10 18 C 10.2 17.8 10.8 17.8 11 18 C 11.2 18.2 11.2 18.8 11 19 C 10.8 19.2 10.2 19.2 10 19 C 9.8 18.8 9.8 18.2 10 18 " fill = "rgb(102, 104, 102)" stroke = "rgb(102, 104, 102)" stroke-width = "0"/>
    <path d="M 11 18 C 11.2 17.8 11.8 17.8 12 18 C 12.2 18.2 12.2 18.8 12 19 C 11.8 19.2 11.2 19.2 11 19 C 10.8 18.8 10.8 18.2 11 18 " fill = "rgb(6, 10, 6)" stroke = "rgb(6, 10, 6)" stroke-width = "0"/>
    <path d="M 12 18 C 12.2 17.8 12.8 17.8 13 18 C 13.2 18.2 13.2 18.8 13 19 C 12.8 19.2 12.2 19.2 12 19 C 11.8 18.8 11.8 18.2 12 18 " fill = "rgb(54, 57, 54)" stroke = "rgb(54, 57, 54)" stroke-width = "0"/>
    <path d="M 13 18 C 13.2 17.8 13.8 17.8 14 18 C 14.2 18.2 14.2 18.8 14 19 C 13.8 19.2 13.2 19.2 13 19 C 12.8 18.8 12.8 18.2 13 18 " fill = "rgb(239, 239, 239)" stroke = "rgb(239, 239, 239)" stroke-width = "0"/>
    <path d="M 14 18 C 14.2 17.8 14.85 17.85 15 18 C 15.15 18.15 14.95 18.55 14.75 18.75 C 14.55 18.95 14.15 19.15 14 19 C 13.85 18.85 13.8 18.2 14 18 " fill = "rgb(252, 252, 252)" stroke = "rgb(252, 252, 252)" stroke-width = "0"/>
    <path d="M 2.25 19.25 C 2.45 19.05 2.85 18.85 3 19 C 3.15 19.15 3.2 19.8 3 20 C 2.8 20.2 2.15 20.15 2 20 C 1.85 19.85 2.05 19.45 2.25 19.25 " fill = "rgb(222, 223, 224)" stroke = "rgb(222, 223, 224)" stroke-width = "0"/>
    <path d="M 3 19 C 3.2 18.8 3.8 18.8 4 19 C 4.2 19.2 4.2 19.8 4 20 C 3.8 20.2 3.2 20.2 3 20 C 2.8 19.8 2.8 19.2 3 19 " fill = "rgb(82, 86, 87)" stroke = "rgb(82, 86, 87)" stroke-width = "0"/>
    <path d="M 4 19 C 4.2 18.8 4.8 18.8 5 19 C 5.2 19.2 5.2 19.8 5 20 C 4.8 20.2 4.2 20.2 4 20 C 3.8 19.8 3.8 19.2 4 19 " fill = "rgb(155, 124, 11)" stroke = "rgb(155, 124, 11)" stroke-width = "0"/>
    <path d="M 5 19 C 5.2 18.8 5.8 18.8 6 19 C 6.2 19.2 6.2 19.8 6 20 C 5.8 20.2 5.2 20.2 5 20 C 4.8 19.8 4.8 19.2 5 19 " fill = "rgb(113, 87, 0)" stroke = "rgb(113, 87, 0)" stroke-width = "0"/>
    <path d="M 6 19 C 6.2 18.8 6.8 18.8 7 19 C 7.2 19.2 7.2 19.8 7 20 C 6.8 20.2 6.2 20.2 6 20 C 5.8 19.8 5.8 19.2 6 19 " fill = "rgb(84, 75, 33)" stroke = "rgb(84, 75, 33)" stroke-width = "0"/>
    <path d="M 7 19 C 7.2 18.8 7.8 18.8 8 19 C 8.2 19.2 8.2 19.8 8 20 C 7.8 20.2 7.2 20.2 7 20 C 6.8 19.8 6.8 19.2 7 19 " fill = "rgb(85, 89, 90)" stroke = "rgb(85, 89, 90)" stroke-width = "0"/>
    <path d="M 8 19 C 8.2 18.8 8.85 18.85 9 19 C 9.15 19.15 8.95 19.55 8.75 19.75 C 8.55 19.95 8.15 20.15 8 20 C 7.85 19.85 7.8 19.2 8 19 " fill = "rgb(85, 88, 85)" stroke = "rgb(85, 88, 85)" stroke-width = "0"/>
    <path d="M 9 19 C 9.25 18.85 9.8 18.8 10 19 C 10.2 19.2 10.15 19.75 10 20 C 9.85 20.25 9.45 20.05 9.25 20.25 C 9.05 20.45 9.25 20.85 9 21 C 8.75 21.15 8.4 21 8 21 C 7.6 21 7.2 21.2 7 21 C 6.8 20.8 6.8 20.2 7 20 C 7.2 19.8 7.65 20.05 8 20 C 8.35 19.95 8.55 19.95 8.75 19.75 C 8.95 19.55 8.75 19.15 9 19 " fill = "rgb(83, 86, 83)" stroke = "rgb(83, 86, 83)" stroke-width = "0"/>
    <path d="M 10 19 C 10.2 18.8 10.8 18.8 11 19 C 11.2 19.2 11.2 19.8 11 20 C 10.8 20.2 10.2 20.2 10 20 C 9.8 19.8 9.8 19.2 10 19 " fill = "rgb(132, 134, 132)" stroke = "rgb(132, 134, 132)" stroke-width = "0"/>
    <path d="M 11 19 C 11.2 18.8 11.8 18.8 12 19 C 12.2 19.2 12.2 19.8 12 20 C 11.8 20.2 11.2 20.2 11 20 C 10.8 19.8 10.8 19.2 11 19 " fill = "rgb(159, 161, 159)" stroke = "rgb(159, 161, 159)" stroke-width = "0"/>
    <path d="M 12 19 C 12.2 18.8 12.85 18.85 13 19 C 13.15 19.15 12.95 19.55 12.75 19.75 C 12.55 19.95 12.15 20.15 12 20 C 11.85 19.85 11.8 19.2 12 19 " fill = "rgb(177, 178, 177)" stroke = "rgb(177, 178, 177)" stroke-width = "0"/>
    <path d="M 1.25 20.25 C 1.45 20.05 1.85 19.85 2 20 C 2.15 20.15 2.2 20.8 2 21 C 1.8 21.2 1.15 21.15 1 21 C 0.85 20.85 1.05 20.45 1.25 20.25 " fill = "rgb(216, 217, 218)" stroke = "rgb(216, 217, 218)" stroke-width = "0"/>
    <path d="M 2 20 C 2.2 19.8 2.8 19.8 3 20 C 3.2 20.2 3.2 20.8 3 21 C 2.8 21.2 2.2 21.2 2 21 C 1.8 20.8 1.8 20.2 2 20 " fill = "rgb(144, 141, 125)" stroke = "rgb(144, 141, 125)" stroke-width = "0"/>
    <path d="M 3 20 C 3.2 19.8 3.8 19.8 4 20 C 4.2 20.2 4.2 20.8 4 21 C 3.8 21.2 3.2 21.2 3 21 C 2.8 20.8 2.8 20.2 3 20 " fill = "rgb(80, 62, 0)" stroke = "rgb(80, 62, 0)" stroke-width = "0"/>
    <path d="M 4 20 C 4.2 19.8 4.8 19.8 5 20 C 5.2 20.2 5.2 20.8 5 21 C 4.8 21.2 4.2 21.2 4 21 C 3.8 20.8 3.8 20.2 4 20 " fill = "rgb(157, 122, 0)" stroke = "rgb(157, 122, 0)" stroke-width = "0"/>
    <path d="M 5 20 C 5.2 19.8 5.8 19.8 6 20 C 6.2 20.2 6.2 20.8 6 21 C 5.8 21.2 5.2 21.2 5 21 C 4.8 20.8 4.8 20.2 5 20 " fill = "rgb(112, 102, 58)" stroke = "rgb(112, 102, 58)" stroke-width = "0"/>
    <path d="M 6 20 C 6.2 19.8 6.8 19.8 7 20 C 7.2 20.2 7.2 20.8 7 21 C 6.8 21.2 6.2 21.2 6 21 C 5.8 20.8 5.8 20.2 6 20 " fill = "rgb(82, 86, 89)" stroke = "rgb(82, 86, 89)" stroke-width = "0"/>
    <path d="M 9.25 20.25 C 9.45 20.05 9.85 19.85 10 20 C 10.15 20.15 10.2 20.8 10 21 C 9.8 21.2 9.15 21.15 9 21 C 8.85 20.85 9.05 20.45 9.25 20.25 " fill = "rgb(77, 80, 77)" stroke = "rgb(77, 80, 77)" stroke-width = "0"/>
    <path d="M 10 20 C 10.2 19.8 10.85 19.85 11 20 C 11.15 20.15 10.95 20.55 10.75 20.75 C 10.55 20.95 10.15 21.15 10 21 C 9.85 20.85 9.8 20.2 10 20 " fill = "rgb(197, 198, 197)" stroke = "rgb(197, 198, 197)" stroke-width = "0"/>
    <path d="M 1 21 C 1.2 20.8 1.8 20.8 2 21 C 2.2 21.2 2.2 21.8 2 22 C 1.8 22.2 1.2 22.2 1 22 C 0.8 21.8 0.8 21.2 1 21 " fill = "rgb(133, 136, 136)" stroke = "rgb(133, 136, 136)" stroke-width = "0"/>
    <path d="M 2 21 C 2.2 20.8 2.8 20.8 3 21 C 3.2 21.2 3.2 21.8 3 22 C 2.8 22.2 2.2 22.2 2 22 C 1.8 21.8 1.8 21.2 2 21 " fill = "rgb(37, 29, 0)" stroke = "rgb(37, 29, 0)" stroke-width = "0"/>
    <path d="M 3 21 C 3.2 20.8 3.8 20.8 4 21 C 4.2 21.2 4.2 21.8 4 22 C 3.8 22.2 3.2 22.2 3 22 C 2.8 21.8 2.8 21.2 3 21 " fill = "rgb(248, 192, 0)" stroke = "rgb(248, 192, 0)" stroke-width = "0"/>
    <path d="M 4 21 C 4.2 20.8 4.8 20.8 5 21 C 5.2 21.2 5.2 21.8 5 22 C 4.8 22.2 4.2 22.2 4 22 C 3.8 21.8 3.8 21.2 4 21 " fill = "rgb(28, 27, 8)" stroke = "rgb(28, 27, 8)" stroke-width = "0"/>
    <path d="M 5 21 C 5.2 20.8 5.8 20.8 6 21 C 6.2 21.2 6.2 21.8 6 22 C 5.8 22.2 5.2 22.2 5 22 C 4.8 21.8 4.8 21.2 5 21 " fill = "rgb(175, 178, 181)" stroke = "rgb(175, 178, 181)" stroke-width = "0"/>
    <path d="M 1 22 C 1.2 21.8 1.8 21.8 2 22 C 2.2 22.2 2.2 22.8 2 23 C 1.8 23.2 1.2 23.2 1 23 C 0.8 22.8 0.8 22.2 1 22 " fill = "rgb(136, 138, 137)" stroke = "rgb(136, 138, 137)" stroke-width = "0"/>
    <path d="M 2 22 C 2.2 21.8 2.8 21.8 3 22 C 3.2 22.2 3.2 22.8 3 23 C 2.8 23.2 2.2 23.2 2 23 C 1.8 22.8 1.8 22.2 2 22 " fill = "rgb(0, 0, 0)" stroke = "rgb(0, 0, 0)" stroke-width = "0"/>
    <path d="M 3 22 C 3.2 21.8 3.8 21.8 4 22 C 4.2 22.2 4.2 22.8 4 23 C 3.8 23.2 3.2 23.2 3 23 C 2.8 22.8 2.8 22.2 3 22 " fill = "rgb(18, 15, 0)" stroke = "rgb(18, 15, 0)" stroke-width = "0"/>
    <path d="M 4 22 C 4.2 21.8 4.8 21.8 5 22 C 5.2 22.2 5.2 22.8 5 23 C 4.8 23.2 4.2 23.2 4 23 C 3.8 22.8 3.8 22.2 4 22 " fill = "rgb(202, 203, 200)" stroke = "rgb(202, 203, 200)" stroke-width = "0"/>
    <path d="M 5 22 C 5.2 21.8 5.85 21.85 6 22 C 6.15 22.15 5.95 22.55 5.75 22.75 C 5.55 22.95 5.15 23.15 5 23 C 4.85 22.85 4.8 22.2 5 22 " fill = "rgb(248, 249, 249)" stroke = "rgb(248, 249, 249)" stroke-width = "0"/>
    <path d="M 1 23 C 1.15 22.85 1.8 22.8 2 23 C 2.2 23.2 2.15 23.85 2 24 C 1.85 24.15 1.45 23.95 1.25 23.75 C 1.05 23.55 0.85 23.15 1 23 " fill = "rgb(213, 213, 213)" stroke = "rgb(213, 213, 213)" stroke-width = "0"/>
    <path d="M 2 23 C 2.2 22.8 2.8 22.8 3 23 C 3.2 23.2 3.2 23.8 3 24 C 2.8 24.2 2.2 24.2 2 24 C 1.8 23.8 1.8 23.2 2 23 " fill = "rgb(156, 157, 156)" stroke = "rgb(156, 157, 156)" stroke-width = "0"/>
    <path d="M 3 23 C 3.2 22.8 3.8 22.8 4 23 C 4.2 23.2 4.2 23.8 4 24 C 3.8 24.2 3.2 24.2 3 24 C 2.8 23.8 2.8 23.2 3 23 " fill = "rgb(158, 160, 160)" stroke = "rgb(158, 160, 160)" stroke-width = "0"/>
    <path d="M 4 23 C 4.2 22.8 4.85 22.85 5 23 C 5.15 23.15 4.95 23.55 4.75 23.75 C 4.55 23.95 4.15 24.15 4 24 C 3.85 23.85 3.8 23.2 4 23 " fill = "rgb(246, 246, 246)" stroke = "rgb(246, 246, 246)" stroke-width = "0"/>
</svg>
