<svg version="1.1" baseProfile = "full" width = "22" height = "21" xmlns = "http://www.w3.org/2000/svg">
    <path d="M 0 0 C 0.2 -0.2 0.6 -3.49691e-08 1 0 C 1.4 0 1.6 -3.49691e-08 2 0 C 2.4 0 2.6 -3.49691e-08 3 0 C 3.4 0 3.6 -3.49691e-08 4 0 C 4.4 0 4.6 -3.49691e-08 5 0 C 5.4 0 5.6 -3.49691e-08 6 0 C 6.4 0 6.6 -3.49691e-08 7 0 C 7.4 0 7.6 -3.49691e-08 8 0 C 8.4 0 8.6 -3.49691e-08 9 0 C 9.4 0 9.6 -3.49691e-08 10 0 C 10.4 0 10.6 -3.49691e-08 11 0 C 11.4 0 11.6 -3.49691e-08 12 0 C 12.4 0 12.6 -3.49691e-08 13 0 C 13.4 0 13.6 -3.49691e-08 14 0 C 14.4 0 14.6 -3.49691e-08 15 0 C 15.4 0 15.6 -3.49691e-08 16 0 C 16.4 0 16.6 -3.49691e-08 17 0 C 17.4 0 17.6 -3.49691e-08 18 0 C 18.4 0 18.6 -3.49691e-08 19 0 C 19.4 0 19.6 -3.49691e-08 20 0 C 20.4 0 20.6 -3.49691e-08 21 0 C 21.4 0 21.8 -0.2 22 0 C 22.2 0.2 22 0.6 22 1 C 22 1.4 22 1.6 22 2 C 22 2.4 22 2.6 22 3 C 22 3.4 22 3.6 22 4 C 22 4.4 22 4.6 22 5 C 22 5.4 22 5.6 22 6 C 22 6.4 22 6.6 22 7 C 22 7.4 22 7.6 22 8 C 22 8.4 22 8.6 22 9 C 22 9.4 22 9.6 22 10 C 22 10.4 22 10.6 22 11 C 22 11.4 22 11.6 22 12 C 22 12.4 22 12.6 22 13 C 22 13.4 22 13.6 22 14 C 22 14.4 22 14.6 22 15 C 22 15.4 22 15.6 22 16 C 22 16.4 22 16.6 22 17 C 22 17.4 22 17.6 22 18 C 22 18.4 22 18.6 22 19 C 22 19.4 22 19.6 22 20 C 22 20.4 22.2 20.8 22 21 C 21.8 21.2 21.4 21 21 21 C 20.6 21 20.4 21 20 21 C 19.6 21 19.4 21 19 21 C 18.6 21 18.4 21 18 21 C 17.6 21 17.4 21 17 21 C 16.6 21 16.4 21 16 21 C 15.6 21 15.4 21 15 21 C 14.6 21 14.4 21 14 21 C 13.6 21 13.4 21 13 21 C 12.6 21 12.4 21 12 21 C 11.6 21 11.4 21 11 21 C 10.6 21 10.4 21 10 21 C 9.6 21 9.4 21 9 21 C 8.6 21 8.4 21 8 21 C 7.6 21 7.4 21 7 21 C 6.6 21 6.4 21 6 21 C 5.6 21 5.4 21 5 21 C 4.6 21 4.4 21 4 21 C 3.6 21 3.4 21 3 21 C 2.6 21 2.4 21 2 21 C 1.6 21 1.4 21 1 21 C 0.6 21 0.2 21.2 0 21 C -0.2 20.8 3.01992e-08 20.4 0 20 C -1.74846e-08 19.6 3.01992e-08 19.4 0 19 C -1.74846e-08 18.6 3.01992e-08 18.4 0 18 C -1.74846e-08 17.6 3.01992e-08 17.4 0 17 C -1.74846e-08 16.6 3.01992e-08 16.4 0 16 C -1.74846e-08 15.6 3.01992e-08 15.4 0 15 C -1.74846e-08 14.6 3.01992e-08 14.4 0 14 C -1.74846e-08 13.6 3.01992e-08 13.4 0 13 C -1.74846e-08 12.6 3.01992e-08 12.4 0 12 C -1.74846e-08 11.6 3.01992e-08 11.4 0 11 C -1.74846e-08 10.6 3.01992e-08 10.4 0 10 C -1.74846e-08 9.6 3.01992e-08 9.4 0 9 C -1.74846e-08 8.6 3.01992e-08 8.4 0 8 C -1.74846e-08 7.6 3.01992e-08 7.4 0 7 C -1.74846e-08 6.6 3.01992e-08 6.4 0 6 C -1.74846e-08 5.6 3.01992e-08 5.4 0 5 C -1.74846e-08 4.6 3.01992e-08 4.4 0 4 C -1.74846e-08 3.6 3.01992e-08 3.4 0 3 C -1.74846e-08 2.6 3.01992e-08 2.4 0 2 C -1.74846e-08 1.6 3.01992e-08 1.4 0 1 C -1.74846e-08 0.6 -0.2 0.2 0 0 " fill = "rgb(235, 0, 235)" stroke = "rgb(235, 0, 235)" stroke-width = "0"/>
    <path d="M 13.25 1.25 C 13.45 1.05 13.85 0.85 14 1 C 14.15 1.15 14.2 1.8 14 2 C 13.8 2.2 13.15 2.15 13 2 C 12.85 1.85 13.05 1.45 13.25 1.25 " fill = "rgb(251, 251, 251)" stroke = "rgb(251, 251, 251)" stroke-width = "0"/>
    <path d="M 14 1 C 14.2 0.8 14.8 0.8 15 1 C 15.2 1.2 15.2 1.8 15 2 C 14.8 2.2 14.2 2.2 14 2 C 13.8 1.8 13.8 1.2 14 1 " fill = "rgb(239, 239, 239)" stroke = "rgb(239, 239, 239)" stroke-width = "0"/>
    <path d="M 15 1 C 15.2 0.8 15.6 1 16 1 C 16.4 1 16.6 1 17 1 C 17.4 1 17.8 0.8 18 1 C 18.2 1.2 18.2 1.8 18 2 C 17.8 2.2 17.4 2 17 2 C 16.6 2 16.4 2 16 2 C 15.6 2 15.2 2.2 15 2 C 14.8 1.8 14.8 1.2 15 1 " fill = "rgb(240, 240, 240)" stroke = "rgb(240, 240, 240)" stroke-width = "0"/>
    <path d="M 18 1 C 18.2 0.8 18.8 0.8 19 1 C 19.2 1.2 19.2 1.8 19 2 C 18.8 2.2 18.2 2.2 18 2 C 17.8 1.8 17.8 1.2 18 1 " fill = "rgb(239, 239, 239)" stroke = "rgb(239, 239, 239)" stroke-width = "0"/>
    <path d="M 19 1 C 19.15 0.85 19.55 1.05 19.75 1.25 C 19.95 1.45 20.15 1.85 20 2 C 19.85 2.15 19.2 2.2 19 2 C 18.8 1.8 18.85 1.15 19 1 " fill = "rgb(250, 250, 250)" stroke = "rgb(250, 250, 250)" stroke-width = "0"/>
    <path d="M 13 2 C 13.2 1.8 13.8 1.8 14 2 C 14.2 2.2 14.2 2.8 14 3 C 13.8 3.2 13.2 3.2 13 3 C 12.8 2.8 12.8 2.2 13 2 " fill = "rgb(206, 206, 205)" stroke = "rgb(206, 206, 205)" stroke-width = "0"/>
    <path d="M 14 2 C 14.2 1.8 14.8 1.8 15 2 C 15.2 2.2 15.2 2.8 15 3 C 14.8 3.2 14.2 3.2 14 3 C 13.8 2.8 13.8 2.2 14 2 " fill = "rgb(36, 35, 33)" stroke = "rgb(36, 35, 33)" stroke-width = "0"/>
    <path d="M 15 2 C 15.2 1.8 15.8 1.8 16 2 C 16.2 2.2 16.2 2.8 16 3 C 15.8 3.2 15.2 3.2 15 3 C 14.8 2.8 14.8 2.2 15 2 " fill = "rgb(45, 44, 41)" stroke = "rgb(45, 44, 41)" stroke-width = "0"/>
    <path d="M 16 2 C 16.2 1.8 16.8 1.8 17 2 C 17.2 2.2 17.2 2.8 17 3 C 16.8 3.2 16.2 3.2 16 3 C 15.8 2.8 15.8 2.2 16 2 " fill = "rgb(46, 45, 42)" stroke = "rgb(46, 45, 42)" stroke-width = "0"/>
    <path d="M 17 2 C 17.2 1.8 17.8 1.8 18 2 C 18.2 2.2 18.2 2.8 18 3 C 17.8 3.2 17.2 3.2 17 3 C 16.8 2.8 16.8 2.2 17 2 " fill = "rgb(47, 46, 44)" stroke = "rgb(47, 46, 44)" stroke-width = "0"/>
    <path d="M 18 2 C 18.2 1.8 18.8 1.8 19 2 C 19.2 2.2 19.2 2.8 19 3 C 18.8 3.2 18.2 3.2 18 3 C 17.8 2.8 17.8 2.2 18 2 " fill = "rgb(40, 39, 36)" stroke = "rgb(40, 39, 36)" stroke-width = "0"/>
    <path d="M 19 2 C 19.2 1.8 19.8 1.8 20 2 C 20.2 2.2 20.2 2.8 20 3 C 19.8 3.2 19.2 3.2 19 3 C 18.8 2.8 18.8 2.2 19 2 " fill = "rgb(196, 195, 195)" stroke = "rgb(196, 195, 195)" stroke-width = "0"/>
    <path d="M 9.25 3.25 C 9.45 3.05 9.85 2.85 10 3 C 10.15 3.15 10.2 3.8 10 4 C 9.8 4.2 9.15 4.15 9 4 C 8.85 3.85 9.05 3.45 9.25 3.25 " fill = "rgb(203, 203, 202)" stroke = "rgb(203, 203, 202)" stroke-width = "0"/>
    <path d="M 10 3 C 10.2 2.8 10.8 2.8 11 3 C 11.2 3.2 11.2 3.8 11 4 C 10.8 4.2 10.2 4.2 10 4 C 9.8 3.8 9.8 3.2 10 3 " fill = "rgb(87, 87, 85)" stroke = "rgb(87, 87, 85)" stroke-width = "0"/>
    <path d="M 11 3 C 11.2 2.8 11.8 2.8 12 3 C 12.2 3.2 12.2 3.8 12 4 C 11.8 4.2 11.2 4.2 11 4 C 10.8 3.8 10.8 3.2 11 3 " fill = "rgb(92, 91, 89)" stroke = "rgb(92, 91, 89)" stroke-width = "0"/>
    <path d="M 12 3 C 12.2 2.8 12.8 2.8 13 3 C 13.2 3.2 13.2 3.8 13 4 C 12.8 4.2 12.2 4.2 12 4 C 11.8 3.8 11.8 3.2 12 3 " fill = "rgb(89, 89, 87)" stroke = "rgb(89, 89, 87)" stroke-width = "0"/>
    <path d="M 13 3 C 13.2 2.8 13.8 2.8 14 3 C 14.2 3.2 14.2 3.8 14 4 C 13.8 4.2 13.2 4.2 13 4 C 12.8 3.8 12.8 3.2 13 3 " fill = "rgb(96, 100, 113)" stroke = "rgb(96, 100, 113)" stroke-width = "0"/>
    <path d="M 14 3 C 14.2 2.8 14.8 2.8 15 3 C 15.2 3.2 15.2 3.8 15 4 C 14.8 4.2 14.2 4.2 14 4 C 13.8 3.8 13.8 3.2 14 3 " fill = "rgb(117, 135, 185)" stroke = "rgb(117, 135, 185)" stroke-width = "0"/>
    <path d="M 15 3 C 15.2 2.8 15.8 2.8 16 3 C 16.2 3.2 16.2 3.8 16 4 C 15.8 4.2 15.2 4.2 15 4 C 14.8 3.8 14.8 3.2 15 3 " fill = "rgb(117, 135, 183)" stroke = "rgb(117, 135, 183)" stroke-width = "0"/>
    <path d="M 16 3 C 16.2 2.8 16.8 2.8 17 3 C 17.2 3.2 17.2 3.8 17 4 C 16.8 4.2 16.2 4.2 16 4 C 15.8 3.8 15.8 3.2 16 3 " fill = "rgb(94, 112, 161)" stroke = "rgb(94, 112, 161)" stroke-width = "0"/>
    <path d="M 17 3 C 17.2 2.8 17.8 2.8 18 3 C 18.2 3.2 18.2 3.8 18 4 C 17.8 4.2 17.2 4.2 17 4 C 16.8 3.8 16.8 3.2 17 3 " fill = "rgb(68, 86, 136)" stroke = "rgb(68, 86, 136)" stroke-width = "0"/>
    <path d="M 18 3 C 18.2 2.8 18.8 2.8 19 3 C 19.2 3.2 19.2 3.8 19 4 C 18.8 4.2 18.2 4.2 18 4 C 17.8 3.8 17.8 3.2 18 3 " fill = "rgb(67, 86, 135)" stroke = "rgb(67, 86, 135)" stroke-width = "0"/>
    <path d="M 19 3 C 19.2 2.8 19.8 2.8 20 3 C 20.2 3.2 20.2 3.8 20 4 C 19.8 4.2 19.2 4.2 19 4 C 18.8 3.8 18.8 3.2 19 3 " fill = "rgb(83, 89, 103)" stroke = "rgb(83, 89, 103)" stroke-width = "0"/>
    <path d="M 20 3 C 20.15 2.85 20.55 3.05 20.75 3.25 C 20.95 3.45 21.15 3.85 21 4 C 20.85 4.15 20.2 4.2 20 4 C 19.8 3.8 19.85 3.15 20 3 " fill = "rgb(157, 157, 156)" stroke = "rgb(157, 157, 156)" stroke-width = "0"/>
    <path d="M 6.25 4.25 C 6.45 4.05 6.85 3.85 7 4 C 7.15 4.15 7.2 4.8 7 5 C 6.8 5.2 6.15 5.15 6 5 C 5.85 4.85 6.05 4.45 6.25 4.25 " fill = "rgb(243, 243, 243)" stroke = "rgb(243, 243, 243)" stroke-width = "0"/>
    <path d="M 7 4 C 7.2 3.8 7.8 3.8 8 4 C 8.2 4.2 8.2 4.8 8 5 C 7.8 5.2 7.2 5.2 7 5 C 6.8 4.8 6.8 4.2 7 4 " fill = "rgb(150, 149, 148)" stroke = "rgb(150, 149, 148)" stroke-width = "0"/>
    <path d="M 8 4 C 8.2 3.8 8.8 3.8 9 4 C 9.2 4.2 9.2 4.8 9 5 C 8.8 5.2 8.2 5.2 8 5 C 7.8 4.8 7.8 4.2 8 4 " fill = "rgb(144, 143, 142)" stroke = "rgb(144, 143, 142)" stroke-width = "0"/>
    <path d="M 9 4 C 9.2 3.8 9.8 3.8 10 4 C 10.2 4.2 10.2 4.8 10 5 C 9.8 5.2 9.2 5.2 9 5 C 8.8 4.8 8.8 4.2 9 4 " fill = "rgb(112, 117, 128)" stroke = "rgb(112, 117, 128)" stroke-width = "0"/>
    <path d="M 10 4 C 10.2 3.8 10.8 3.8 11 4 C 11.2 4.2 11.2 4.8 11 5 C 10.8 5.2 10.2 5.2 10 5 C 9.8 4.8 9.8 4.2 10 4 " fill = "rgb(55, 68, 102)" stroke = "rgb(55, 68, 102)" stroke-width = "0"/>
    <path d="M 11 4 C 11.2 3.8 11.8 3.8 12 4 C 12.2 4.2 12.2 4.8 12 5 C 11.8 5.2 11.2 5.2 11 5 C 10.8 4.8 10.8 4.2 11 4 " fill = "rgb(82, 95, 131)" stroke = "rgb(82, 95, 131)" stroke-width = "0"/>
    <path d="M 12 4 C 12.2 3.8 12.8 3.8 13 4 C 13.2 4.2 13.2 4.8 13 5 C 12.8 5.2 12.2 5.2 12 5 C 11.8 4.8 11.8 4.2 12 4 " fill = "rgb(121, 127, 140)" stroke = "rgb(121, 127, 140)" stroke-width = "0"/>
    <path d="M 13 4 C 13.2 3.8 13.8 3.8 14 4 C 14.2 4.2 14.2 4.8 14 5 C 13.8 5.2 13.2 5.2 13 5 C 12.8 4.8 12.8 4.2 13 4 " fill = "rgb(148, 154, 170)" stroke = "rgb(148, 154, 170)" stroke-width = "0"/>
    <path d="M 14 4 C 14.2 3.8 14.8 3.8 15 4 C 15.2 4.2 15.2 4.8 15 5 C 14.8 5.2 14.2 5.2 14 5 C 13.8 4.8 13.8 4.2 14 4 " fill = "rgb(147, 173, 242)" stroke = "rgb(147, 173, 242)" stroke-width = "0"/>
    <path d="M 15 4 C 15.2 3.8 15.8 3.8 16 4 C 16.2 4.2 16.2 4.8 16 5 C 15.8 5.2 15.2 5.2 15 5 C 14.8 4.8 14.8 4.2 15 4 " fill = "rgb(148, 173, 239)" stroke = "rgb(148, 173, 239)" stroke-width = "0"/>
    <path d="M 16 4 C 16.2 3.8 16.8 3.8 17 4 C 17.2 4.2 17.2 4.8 17 5 C 16.8 5.2 16.2 5.2 16 5 C 15.8 4.8 15.8 4.2 16 4 " fill = "rgb(104, 122, 170)" stroke = "rgb(104, 122, 170)" stroke-width = "0"/>
    <path d="M 17 4 C 17.2 3.8 17.8 3.8 18 4 C 18.2 4.2 18.2 4.8 18 5 C 17.8 5.2 17.2 5.2 17 5 C 16.8 4.8 16.8 4.2 17 4 " fill = "rgb(60, 73, 109)" stroke = "rgb(60, 73, 109)" stroke-width = "0"/>
    <path d="M 18 4 C 18.2 3.8 18.8 3.8 19 4 C 19.2 4.2 19.2 4.8 19 5 C 18.8 5.2 18.2 5.2 18 5 C 17.8 4.8 17.8 4.2 18 4 " fill = "rgb(81, 106, 173)" stroke = "rgb(81, 106, 173)" stroke-width = "0"/>
    <path d="M 19 4 C 19.2 3.8 19.8 3.8 20 4 C 20.2 4.2 20.2 4.8 20 5 C 19.8 5.2 19.2 5.2 19 5 C 18.8 4.8 18.8 4.2 19 4 " fill = "rgb(45, 53, 73)" stroke = "rgb(45, 53, 73)" stroke-width = "0"/>
    <path d="M 20 4 C 20.2 3.8 20.8 3.8 21 4 C 21.2 4.2 21.2 4.8 21 5 C 20.8 5.2 20.2 5.2 20 5 C 19.8 4.8 19.8 4.2 20 4 " fill = "rgb(120, 119, 118)" stroke = "rgb(120, 119, 118)" stroke-width = "0"/>
    <path d="M 5.25 5.25 C 5.45 5.05 5.85 4.85 6 5 C 6.15 5.15 6.2 5.8 6 6 C 5.8 6.2 5.15 6.15 5 6 C 4.85 5.85 5.05 5.45 5.25 5.25 " fill = "rgb(229, 229, 229)" stroke = "rgb(229, 229, 229)" stroke-width = "0"/>
    <path d="M 6 5 C 6.2 4.8 6.8 4.8 7 5 C 7.2 5.2 7.2 5.8 7 6 C 6.8 6.2 6.2 6.2 6 6 C 5.8 5.8 5.8 5.2 6 5 " fill = "rgb(168, 169, 171)" stroke = "rgb(168, 169, 171)" stroke-width = "0"/>
    <path d="M 7 5 C 7.2 4.8 7.8 4.8 8 5 C 8.2 5.2 8.2 5.8 8 6 C 7.8 6.2 7.2 6.2 7 6 C 6.8 5.8 6.8 5.2 7 5 " fill = "rgb(56, 63, 81)" stroke = "rgb(56, 63, 81)" stroke-width = "0"/>
    <path d="M 8 5 C 8.2 4.8 8.8 4.8 9 5 C 9.2 5.2 9.2 5.8 9 6 C 8.8 6.2 8.2 6.2 8 6 C 7.8 5.8 7.8 5.2 8 5 " fill = "rgb(35, 37, 42)" stroke = "rgb(35, 37, 42)" stroke-width = "0"/>
    <path d="M 9 5 C 9.2 4.8 9.8 4.8 10 5 C 10.2 5.2 10.2 5.8 10 6 C 9.8 6.2 9.2 6.2 9 6 C 8.8 5.8 8.8 5.2 9 5 " fill = "rgb(56, 64, 86)" stroke = "rgb(56, 64, 86)" stroke-width = "0"/>
    <path d="M 10 5 C 10.2 4.8 10.8 4.8 11 5 C 11.2 5.2 11.2 5.8 11 6 C 10.8 6.2 10.2 6.2 10 6 C 9.8 5.8 9.8 5.2 10 5 " fill = "rgb(107, 132, 199)" stroke = "rgb(107, 132, 199)" stroke-width = "0"/>
    <path d="M 11 5 C 11.2 4.8 11.8 4.8 12 5 C 12.2 5.2 12.2 5.8 12 6 C 11.8 6.2 11.2 6.2 11 6 C 10.8 5.8 10.8 5.2 11 5 " fill = "rgb(166, 185, 234)" stroke = "rgb(166, 185, 234)" stroke-width = "0"/>
    <path d="M 12 5 C 12.2 4.8 12.8 4.8 13 5 C 13.2 5.2 13.2 5.8 13 6 C 12.8 6.2 12.2 6.2 12 6 C 11.8 5.8 11.8 5.2 12 5 " fill = "rgb(206, 217, 247)" stroke = "rgb(206, 217, 247)" stroke-width = "0"/>
    <path d="M 13 5 C 13.2 4.8 13.8 4.8 14 5 C 14.2 5.2 14.2 5.8 14 6 C 13.8 6.2 13.2 6.2 13 6 C 12.8 5.8 12.8 5.2 13 5 " fill = "rgb(195, 204, 229)" stroke = "rgb(195, 204, 229)" stroke-width = "0"/>
    <path d="M 14 5 C 14.2 4.8 14.8 4.8 15 5 C 15.2 5.2 15.2 5.8 15 6 C 14.8 6.2 14.2 6.2 14 6 C 13.8 5.8 13.8 5.2 14 5 " fill = "rgb(107, 124, 169)" stroke = "rgb(107, 124, 169)" stroke-width = "0"/>
    <path d="M 15 5 C 15.2 4.8 15.8 4.8 16 5 C 16.2 5.2 16.2 5.8 16 6 C 15.8 6.2 15.2 6.2 15 6 C 14.8 5.8 14.8 5.2 15 5 " fill = "rgb(140, 162, 223)" stroke = "rgb(140, 162, 223)" stroke-width = "0"/>
    <path d="M 16 5 C 16.2 4.8 16.8 4.8 17 5 C 17.2 5.2 17.2 5.8 17 6 C 16.8 6.2 16.2 6.2 16 6 C 15.8 5.8 15.8 5.2 16 5 " fill = "rgb(100, 116, 157)" stroke = "rgb(100, 116, 157)" stroke-width = "0"/>
    <path d="M 17 5 C 17.2 4.8 17.8 4.8 18 5 C 18.2 5.2 18.2 5.8 18 6 C 17.8 6.2 17.2 6.2 17 6 C 16.8 5.8 16.8 5.2 17 5 " fill = "rgb(53, 62, 87)" stroke = "rgb(53, 62, 87)" stroke-width = "0"/>
    <path d="M 18 5 C 18.2 4.8 18.8 4.8 19 5 C 19.2 5.2 19.2 5.8 19 6 C 18.8 6.2 18.2 6.2 18 6 C 17.8 5.8 17.8 5.2 18 5 " fill = "rgb(81, 105, 171)" stroke = "rgb(81, 105, 171)" stroke-width = "0"/>
    <path d="M 19 5 C 19.2 4.8 19.8 4.8 20 5 C 20.2 5.2 20.2 5.8 20 6 C 19.8 6.2 19.2 6.2 19 6 C 18.8 5.8 18.8 5.2 19 5 " fill = "rgb(46, 54, 74)" stroke = "rgb(46, 54, 74)" stroke-width = "0"/>
    <path d="M 20 5 C 20.2 4.8 20.8 4.8 21 5 C 21.2 5.2 21.2 5.8 21 6 C 20.8 6.2 20.2 6.2 20 6 C 19.8 5.8 19.8 5.2 20 5 " fill = "rgb(121, 121, 119)" stroke = "rgb(121, 121, 119)" stroke-width = "0"/>
    <path d="M 4.25 6.25 C 4.45 6.05 4.85 5.85 5 6 C 5.15 6.15 5.2 6.8 5 7 C 4.8 7.2 4.15 7.15 4 7 C 3.85 6.85 4.05 6.45 4.25 6.25 " fill = "rgb(246, 246, 246)" stroke = "rgb(246, 246, 246)" stroke-width = "0"/>
    <path d="M 5 6 C 5.2 5.8 5.8 5.8 6 6 C 6.2 6.2 6.2 6.8 6 7 C 5.8 7.2 5.2 7.2 5 7 C 4.8 6.8 4.8 6.2 5 6 " fill = "rgb(149, 149, 151)" stroke = "rgb(149, 149, 151)" stroke-width = "0"/>
    <path d="M 6 6 C 6.2 5.8 6.8 5.8 7 6 C 7.2 6.2 7.2 6.8 7 7 C 6.8 7.2 6.2 7.2 6 7 C 5.8 6.8 5.8 6.2 6 6 " fill = "rgb(36, 41, 55)" stroke = "rgb(36, 41, 55)" stroke-width = "0"/>
    <path d="M 7 6 C 7.2 5.8 7.8 5.8 8 6 C 8.2 6.2 8.2 6.8 8 7 C 7.8 7.2 7.2 7.2 7 7 C 6.8 6.8 6.8 6.2 7 6 " fill = "rgb(85, 109, 173)" stroke = "rgb(85, 109, 173)" stroke-width = "0"/>
    <path d="M 8 6 C 8.2 5.8 8.8 5.8 9 6 C 9.2 6.2 9.2 6.8 9 7 C 8.8 7.2 8.2 7.2 8 7 C 7.8 6.8 7.8 6.2 8 6 " fill = "rgb(61, 70, 97)" stroke = "rgb(61, 70, 97)" stroke-width = "0"/>
    <path d="M 9 6 C 9.2 5.8 9.8 5.8 10 6 C 10.2 6.2 10.2 6.8 10 7 C 9.8 7.2 9.2 7.2 9 7 C 8.8 6.8 8.8 6.2 9 6 " fill = "rgb(82, 91, 116)" stroke = "rgb(82, 91, 116)" stroke-width = "0"/>
    <path d="M 10 6 C 10.2 5.8 10.8 5.8 11 6 C 11.2 6.2 11.2 6.8 11 7 C 10.8 7.2 10.2 7.2 10 7 C 9.8 6.8 9.8 6.2 10 6 " fill = "rgb(155, 179, 241)" stroke = "rgb(155, 179, 241)" stroke-width = "0"/>
    <path d="M 11 6 C 11.2 5.8 11.8 5.8 12 6 C 12.2 6.2 12.2 6.8 12 7 C 11.8 7.2 11.2 7.2 11 7 C 10.8 6.8 10.8 6.2 11 6 " fill = "rgb(232, 236, 246)" stroke = "rgb(232, 236, 246)" stroke-width = "0"/>
    <path d="M 12 6 C 12.2 5.8 12.8 5.8 13 6 C 13.2 6.2 13.2 6.8 13 7 C 12.8 7.2 12.2 7.2 12 7 C 11.8 6.8 11.8 6.2 12 6 " fill = "rgb(188, 202, 241)" stroke = "rgb(188, 202, 241)" stroke-width = "0"/>
    <path d="M 13 6 C 13.2 5.8 13.8 5.8 14 6 C 14.2 6.2 14.2 6.8 14 7 C 13.8 7.2 13.2 7.2 13 7 C 12.8 6.8 12.8 6.2 13 6 " fill = "rgb(111, 130, 181)" stroke = "rgb(111, 130, 181)" stroke-width = "0"/>
    <path d="M 14 6 C 14.2 5.8 14.8 5.8 15 6 C 15.2 6.2 15.2 6.8 15 7 C 14.8 7.2 14.2 7.2 14 7 C 13.8 6.8 13.8 6.2 14 6 " fill = "rgb(33, 32, 31)" stroke = "rgb(33, 32, 31)" stroke-width = "0"/>
    <path d="M 15 6 C 15.2 5.8 15.8 5.8 16 6 C 16.2 6.2 16.2 6.8 16 7 C 15.8 7.2 15.2 7.2 15 7 C 14.8 6.8 14.8 6.2 15 6 " fill = "rgb(117, 136, 186)" stroke = "rgb(117, 136, 186)" stroke-width = "0"/>
    <path d="M 16 6 C 16.2 5.8 16.8 5.8 17 6 C 17.2 6.2 17.2 6.8 17 7 C 16.8 7.2 16.2 7.2 16 7 C 15.8 6.8 15.8 6.2 16 6 " fill = "rgb(113, 137, 204)" stroke = "rgb(113, 137, 204)" stroke-width = "0"/>
    <path d="M 17 6 C 17.2 5.8 17.8 5.8 18 6 C 18.2 6.2 18.2 6.8 18 7 C 17.8 7.2 17.2 7.2 17 7 C 16.8 6.8 16.8 6.2 17 6 " fill = "rgb(79, 103, 168)" stroke = "rgb(79, 103, 168)" stroke-width = "0"/>
    <path d="M 18 6 C 18.2 5.8 18.8 5.8 19 6 C 19.2 6.2 19.2 6.8 19 7 C 18.8 7.2 18.2 7.2 18 7 C 17.8 6.8 17.8 6.2 18 6 " fill = "rgb(77, 100, 160)" stroke = "rgb(77, 100, 160)" stroke-width = "0"/>
    <path d="M 19 6 C 19.2 5.8 19.8 5.8 20 6 C 20.2 6.2 20.2 6.8 20 7 C 19.8 7.2 19.2 7.2 19 7 C 18.8 6.8 18.8 6.2 19 6 " fill = "rgb(60, 66, 85)" stroke = "rgb(60, 66, 85)" stroke-width = "0"/>
    <path d="M 20 6 C 20.2 5.8 20.8 5.8 21 6 C 21.2 6.2 21.2 6.8 21 7 C 20.8 7.2 20.2 7.2 20 7 C 19.8 6.8 19.8 6.2 20 6 " fill = "rgb(134, 134, 132)" stroke = "rgb(134, 134, 132)" stroke-width = "0"/>
    <path d="M 4 7 C 4.2 6.8 4.8 6.8 5 7 C 5.2 7.2 5.2 7.8 5 8 C 4.8 8.2 4.2 8.2 4 8 C 3.8 7.8 3.8 7.2 4 7 " fill = "rgb(104, 102, 99)" stroke = "rgb(104, 102, 99)" stroke-width = "0"/>
    <path d="M 5 7 C 5.2 6.8 5.8 6.8 6 7 C 6.2 7.2 6.2 7.8 6 8 C 5.8 8.2 5.2 8.2 5 8 C 4.8 7.8 4.8 7.2 5 7 " fill = "rgb(56, 66, 92)" stroke = "rgb(56, 66, 92)" stroke-width = "0"/>
    <path d="M 6 7 C 6.2 6.8 6.8 6.8 7 7 C 7.2 7.2 7.2 7.8 7 8 C 6.8 8.2 6.2 8.2 6 8 C 5.8 7.8 5.8 7.2 6 7 " fill = "rgb(89, 114, 181)" stroke = "rgb(89, 114, 181)" stroke-width = "0"/>
    <path d="M 7 7 C 7.2 6.8 7.8 6.8 8 7 C 8.2 7.2 8.2 7.8 8 8 C 7.8 8.2 7.2 8.2 7 8 C 6.8 7.8 6.8 7.2 7 7 " fill = "rgb(138, 162, 227)" stroke = "rgb(138, 162, 227)" stroke-width = "0"/>
    <path d="M 8 7 C 8.2 6.8 8.8 6.8 9 7 C 9.2 7.2 9.2 7.8 9 8 C 8.8 8.2 8.2 8.2 8 8 C 7.8 7.8 7.8 7.2 8 7 " fill = "rgb(141, 165, 227)" stroke = "rgb(141, 165, 227)" stroke-width = "0"/>
    <path d="M 9 7 C 9.2 6.8 9.8 6.8 10 7 C 10.2 7.2 10.2 7.8 10 8 C 9.8 8.2 9.2 8.2 9 8 C 8.8 7.8 8.8 7.2 9 7 " fill = "rgb(142, 165, 228)" stroke = "rgb(142, 165, 228)" stroke-width = "0"/>
    <path d="M 10 7 C 10.2 6.8 10.8 6.8 11 7 C 11.2 7.2 11.2 7.8 11 8 C 10.8 8.2 10.2 8.2 10 8 C 9.8 7.8 9.8 7.2 10 7 " fill = "rgb(144, 169, 233)" stroke = "rgb(144, 169, 233)" stroke-width = "0"/>
    <path d="M 11 7 C 11.2 6.8 11.8 6.8 12 7 C 12.2 7.2 12.2 7.8 12 8 C 11.8 8.2 11.2 8.2 11 8 C 10.8 7.8 10.8 7.2 11 7 " fill = "rgb(151, 175, 239)" stroke = "rgb(151, 175, 239)" stroke-width = "0"/>
    <path d="M 12 7 C 12.2 6.8 12.8 6.8 13 7 C 13.2 7.2 13.2 7.8 13 8 C 12.8 8.2 12.2 8.2 12 8 C 11.8 7.8 11.8 7.2 12 7 " fill = "rgb(150, 174, 238)" stroke = "rgb(150, 174, 238)" stroke-width = "0"/>
    <path d="M 13 7 C 13.2 6.8 13.8 6.8 14 7 C 14.2 7.2 14.2 7.8 14 8 C 13.8 8.2 13.2 8.2 13 8 C 12.8 7.8 12.8 7.2 13 7 " fill = "rgb(129, 152, 216)" stroke = "rgb(129, 152, 216)" stroke-width = "0"/>
    <path d="M 14 7 C 14.2 6.8 14.8 6.8 15 7 C 15.2 7.2 15.2 7.8 15 8 C 14.8 8.2 14.2 8.2 14 8 C 13.8 7.8 13.8 7.2 14 7 " fill = "rgb(75, 98, 160)" stroke = "rgb(75, 98, 160)" stroke-width = "0"/>
    <path d="M 15 7 C 15.2 6.8 15.8 6.8 16 7 C 16.2 7.2 16.2 7.8 16 8 C 15.8 8.2 15.2 8.2 15 8 C 14.8 7.8 14.8 7.2 15 7 " fill = "rgb(81, 105, 169)" stroke = "rgb(81, 105, 169)" stroke-width = "0"/>
    <path d="M 16 7 C 16.2 6.8 16.8 6.8 17 7 C 17.2 7.2 17.2 7.8 17 8 C 16.8 8.2 16.2 8.2 16 8 C 15.8 7.8 15.8 7.2 16 7 " fill = "rgb(81, 106, 170)" stroke = "rgb(81, 106, 170)" stroke-width = "0"/>
    <path d="M 17 7 C 17.2 6.8 17.8 6.8 18 7 C 18.2 7.2 18.2 7.8 18 8 C 17.8 8.2 17.2 8.2 17 8 C 16.8 7.8 16.8 7.2 17 7 " fill = "rgb(73, 93, 145)" stroke = "rgb(73, 93, 145)" stroke-width = "0"/>
    <path d="M 18 7 C 18.2 6.8 18.8 6.8 19 7 C 19.2 7.2 19.2 7.8 19 8 C 18.8 8.2 18.2 8.2 18 8 C 17.8 7.8 17.8 7.2 18 7 " fill = "rgb(34, 36, 39)" stroke = "rgb(34, 36, 39)" stroke-width = "0"/>
    <path d="M 19 7 C 19.2 6.8 19.8 6.8 20 7 C 20.2 7.2 20.2 7.8 20 8 C 19.8 8.2 19.2 8.2 19 8 C 18.8 7.8 18.8 7.2 19 7 " fill = "rgb(183, 183, 183)" stroke = "rgb(183, 183, 183)" stroke-width = "0"/>
    <path d="M 20 7 C 20.2 6.8 20.85 6.85 21 7 C 21.15 7.15 20.95 7.55 20.75 7.75 C 20.55 7.95 20.15 8.15 20 8 C 19.85 7.85 19.8 7.2 20 7 " fill = "rgb(254, 254, 254)" stroke = "rgb(254, 254, 254)" stroke-width = "0"/>
    <path d="M 2.25 8.25 C 2.45 8.05 2.85 7.85 3 8 C 3.15 8.15 3.2 8.8 3 9 C 2.8 9.2 2.15 9.15 2 9 C 1.85 8.85 2.05 8.45 2.25 8.25 " fill = "rgb(219, 219, 219)" stroke = "rgb(219, 219, 219)" stroke-width = "0"/>
    <path d="M 3 8 C 3.2 7.8 3.8 7.8 4 8 C 4.2 8.2 4.2 8.8 4 9 C 3.8 9.2 3.2 9.2 3 9 C 2.8 8.8 2.8 8.2 3 8 " fill = "rgb(90, 90, 88)" stroke = "rgb(90, 90, 88)" stroke-width = "0"/>
    <path d="M 4 8 C 4.2 7.8 4.8 7.8 5 8 C 5.2 8.2 5.2 8.8 5 9 C 4.8 9.2 4.2 9.2 4 9 C 3.8 8.8 3.8 8.2 4 8 " fill = "rgb(74, 88, 124)" stroke = "rgb(74, 88, 124)" stroke-width = "0"/>
    <path d="M 5 8 C 5.2 7.8 5.8 7.8 6 8 C 6.2 8.2 6.2 8.8 6 9 C 5.8 9.2 5.2 9.2 5 9 C 4.8 8.8 4.8 8.2 5 8 " fill = "rgb(57, 70, 103)" stroke = "rgb(57, 70, 103)" stroke-width = "0"/>
    <path d="M 6 8 C 6.2 7.8 6.8 7.8 7 8 C 7.2 8.2 7.2 8.8 7 9 C 6.8 9.2 6.2 9.2 6 9 C 5.8 8.8 5.8 8.2 6 8 " fill = "rgb(59, 67, 86)" stroke = "rgb(59, 67, 86)" stroke-width = "0"/>
    <path d="M 7 8 C 7.2 7.8 7.8 7.8 8 8 C 8.2 8.2 8.2 8.8 8 9 C 7.8 9.2 7.2 9.2 7 9 C 6.8 8.8 6.8 8.2 7 8 " fill = "rgb(138, 160, 221)" stroke = "rgb(138, 160, 221)" stroke-width = "0"/>
    <path d="M 8 8 C 8.2 7.8 8.8 7.8 9 8 C 9.2 8.2 9.2 8.8 9 9 C 8.8 9.2 8.2 9.2 8 9 C 7.8 8.8 7.8 8.2 8 8 " fill = "rgb(145, 169, 233)" stroke = "rgb(145, 169, 233)" stroke-width = "0"/>
    <path d="M 9 8 C 9.2 7.8 9.8 7.8 10 8 C 10.2 8.2 10.2 8.8 10 9 C 9.8 9.2 9.2 9.2 9 9 C 8.8 8.8 8.8 8.2 9 8 " fill = "rgb(145, 169, 234)" stroke = "rgb(145, 169, 234)" stroke-width = "0"/>
    <path d="M 10 8 C 10.2 7.8 10.8 7.8 11 8 C 11.2 8.2 11.2 8.8 11 9 C 10.8 9.2 10.2 9.2 10 9 C 9.8 8.8 9.8 8.2 10 8 " fill = "rgb(141, 164, 225)" stroke = "rgb(141, 164, 225)" stroke-width = "0"/>
    <path d="M 11 8 C 11.2 7.8 11.8 7.8 12 8 C 12.2 8.2 12.2 8.8 12 9 C 11.8 9.2 11.2 9.2 11 9 C 10.8 8.8 10.8 8.2 11 8 " fill = "rgb(74, 82, 101)" stroke = "rgb(74, 82, 101)" stroke-width = "0"/>
    <path d="M 12 8 C 12.2 7.8 12.8 7.8 13 8 C 13.2 8.2 13.2 8.8 13 9 C 12.8 9.2 12.2 9.2 12 9 C 11.8 8.8 11.8 8.2 12 8 " fill = "rgb(81, 96, 138)" stroke = "rgb(81, 96, 138)" stroke-width = "0"/>
    <path d="M 13 8 C 13.2 7.8 13.8 7.8 14 8 C 14.2 8.2 14.2 8.8 14 9 C 13.8 9.2 13.2 9.2 13 9 C 12.8 8.8 12.8 8.2 13 8 " fill = "rgb(92, 117, 182)" stroke = "rgb(92, 117, 182)" stroke-width = "0"/>
    <path d="M 14 8 C 14.2 7.8 14.85 7.85 15 8 C 15.15 8.15 14.95 8.55 14.75 8.75 C 14.55 8.95 14.15 9.15 14 9 C 13.85 8.85 13.8 8.2 14 8 " fill = "rgb(79, 103, 167)" stroke = "rgb(79, 103, 167)" stroke-width = "0"/>
    <path d="M 15 8 C 15.25 7.85 15.8 7.8 16 8 C 16.2 8.2 16.15 8.75 16 9 C 15.85 9.25 15.45 9.05 15.25 9.25 C 15.05 9.45 15.05 9.65 15 10 C 14.95 10.35 15.2 10.8 15 11 C 14.8 11.2 14.4 11 14 11 C 13.6 11 13.2 11.2 13 11 C 12.8 10.8 12.85 10.25 13 10 C 13.15 9.75 13.55 9.95 13.75 9.75 C 13.95 9.55 13.8 9.2 14 9 C 14.2 8.8 14.55 8.95 14.75 8.75 C 14.95 8.55 14.75 8.15 15 8 " fill = "rgb(80, 104, 168)" stroke = "rgb(80, 104, 168)" stroke-width = "0"/>
    <path d="M 16 8 C 16.2 7.8 16.8 7.8 17 8 C 17.2 8.2 17.2 8.8 17 9 C 16.8 9.2 16.2 9.2 16 9 C 15.8 8.8 15.8 8.2 16 8 " fill = "rgb(81, 105, 171)" stroke = "rgb(81, 105, 171)" stroke-width = "0"/>
    <path d="M 17 8 C 17.2 7.8 17.8 7.8 18 8 C 18.2 8.2 18.2 8.8 18 9 C 17.8 9.2 17.2 9.2 17 9 C 16.8 8.8 16.8 8.2 17 8 " fill = "rgb(72, 93, 147)" stroke = "rgb(72, 93, 147)" stroke-width = "0"/>
    <path d="M 18 8 C 18.2 7.8 18.8 7.8 19 8 C 19.2 8.2 19.2 8.8 19 9 C 18.8 9.2 18.2 9.2 18 9 C 17.8 8.8 17.8 8.2 18 8 " fill = "rgb(26, 26, 28)" stroke = "rgb(26, 26, 28)" stroke-width = "0"/>
    <path d="M 19 8 C 19.2 7.8 19.8 7.8 20 8 C 20.2 8.2 20.2 8.8 20 9 C 19.8 9.2 19.2 9.2 19 9 C 18.8 8.8 18.8 8.2 19 8 " fill = "rgb(186, 186, 185)" stroke = "rgb(186, 186, 185)" stroke-width = "0"/>
    <path d="M 2 9 C 2.2 8.8 2.8 8.8 3 9 C 3.2 9.2 3.2 9.8 3 10 C 2.8 10.2 2.2 10.2 2 10 C 1.8 9.8 1.8 9.2 2 9 " fill = "rgb(210, 210, 210)" stroke = "rgb(210, 210, 210)" stroke-width = "0"/>
    <path d="M 3 9 C 3.2 8.8 3.8 8.8 4 9 C 4.2 9.2 4.2 9.8 4 10 C 3.8 10.2 3.2 10.2 3 10 C 2.8 9.8 2.8 9.2 3 9 " fill = "rgb(29, 27, 23)" stroke = "rgb(29, 27, 23)" stroke-width = "0"/>
    <path d="M 4 9 C 4.2 8.8 4.8 8.8 5 9 C 5.2 9.2 5.2 9.8 5 10 C 4.8 10.2 4.2 10.2 4 10 C 3.8 9.8 3.8 9.2 4 9 " fill = "rgb(94, 112, 159)" stroke = "rgb(94, 112, 159)" stroke-width = "0"/>
    <path d="M 5 9 C 5.2 8.8 5.8 8.8 6 9 C 6.2 9.2 6.2 9.8 6 10 C 5.8 10.2 5.2 10.2 5 10 C 4.8 9.8 4.8 9.2 5 9 " fill = "rgb(107, 127, 179)" stroke = "rgb(107, 127, 179)" stroke-width = "0"/>
    <path d="M 6 9 C 6.2 8.8 6.8 8.8 7 9 C 7.2 9.2 7.2 9.8 7 10 C 6.8 10.2 6.2 10.2 6 10 C 5.8 9.8 5.8 9.2 6 9 " fill = "rgb(101, 115, 151)" stroke = "rgb(101, 115, 151)" stroke-width = "0"/>
    <path d="M 7 9 C 7.2 8.8 7.8 8.8 8 9 C 8.2 9.2 8.2 9.8 8 10 C 7.8 10.2 7.2 10.2 7 10 C 6.8 9.8 6.8 9.2 7 9 " fill = "rgb(141, 164, 226)" stroke = "rgb(141, 164, 226)" stroke-width = "0"/>
    <path d="M 8 9 C 8.2 8.8 8.8 8.8 9 9 C 9.2 9.2 9.2 9.8 9 10 C 8.8 10.2 8.2 10.2 8 10 C 7.8 9.8 7.8 9.2 8 9 " fill = "rgb(145, 170, 234)" stroke = "rgb(145, 170, 234)" stroke-width = "0"/>
    <path d="M 9 9 C 9.2 8.8 9.8 8.8 10 9 C 10.2 9.2 10.2 9.8 10 10 C 9.8 10.2 9.2 10.2 9 10 C 8.8 9.8 8.8 9.2 9 9 " fill = "rgb(133, 157, 221)" stroke = "rgb(133, 157, 221)" stroke-width = "0"/>
    <path d="M 10 9 C 10.2 8.8 10.8 8.8 11 9 C 11.2 9.2 11.2 9.8 11 10 C 10.8 10.2 10.2 10.2 10 10 C 9.8 9.8 9.8 9.2 10 9 " fill = "rgb(105, 128, 191)" stroke = "rgb(105, 128, 191)" stroke-width = "0"/>
    <path d="M 11 9 C 11.2 8.8 11.8 8.8 12 9 C 12.2 9.2 12.2 9.8 12 10 C 11.8 10.2 11.2 10.2 11 10 C 10.8 9.8 10.8 9.2 11 9 " fill = "rgb(66, 80, 117)" stroke = "rgb(66, 80, 117)" stroke-width = "0"/>
    <path d="M 12 9 C 12.2 8.8 12.8 8.8 13 9 C 13.2 9.2 13.2 9.8 13 10 C 12.8 10.2 12.2 10.2 12 10 C 11.8 9.8 11.8 9.2 12 9 " fill = "rgb(70, 89, 139)" stroke = "rgb(70, 89, 139)" stroke-width = "0"/>
    <path d="M 13 9 C 13.2 8.8 13.85 8.85 14 9 C 14.15 9.15 13.95 9.55 13.75 9.75 C 13.55 9.95 13.15 10.15 13 10 C 12.85 9.85 12.8 9.2 13 9 " fill = "rgb(79, 104, 168)" stroke = "rgb(79, 104, 168)" stroke-width = "0"/>
    <path d="M 15.25 9.25 C 15.45 9.05 15.85 8.85 16 9 C 16.15 9.15 16.2 9.8 16 10 C 15.8 10.2 15.15 10.15 15 10 C 14.85 9.85 15.05 9.45 15.25 9.25 " fill = "rgb(80, 105, 170)" stroke = "rgb(80, 105, 170)" stroke-width = "0"/>
    <path d="M 16 9 C 16.2 8.8 16.8 8.8 17 9 C 17.2 9.2 17.2 9.8 17 10 C 16.8 10.2 16.2 10.2 16 10 C 15.8 9.8 15.8 9.2 16 9 " fill = "rgb(68, 86, 134)" stroke = "rgb(68, 86, 134)" stroke-width = "0"/>
    <path d="M 17 9 C 17.2 8.8 17.8 8.8 18 9 C 18.2 9.2 18.2 9.8 18 10 C 17.8 10.2 17.2 10.2 17 10 C 16.8 9.8 16.8 9.2 17 9 " fill = "rgb(75, 83, 107)" stroke = "rgb(75, 83, 107)" stroke-width = "0"/>
    <path d="M 18 9 C 18.2 8.8 18.8 8.8 19 9 C 19.2 9.2 19.2 9.8 19 10 C 18.8 10.2 18.2 10.2 18 10 C 17.8 9.8 17.8 9.2 18 9 " fill = "rgb(149, 150, 150)" stroke = "rgb(149, 150, 150)" stroke-width = "0"/>
    <path d="M 19 9 C 19.2 8.8 19.85 8.85 20 9 C 20.15 9.15 19.95 9.55 19.75 9.75 C 19.55 9.95 19.15 10.15 19 10 C 18.85 9.85 18.8 9.2 19 9 " fill = "rgb(224, 224, 224)" stroke = "rgb(224, 224, 224)" stroke-width = "0"/>
    <path d="M 1.25 10.25 C 1.45 10.05 1.85 9.85 2 10 C 2.15 10.15 2.2 10.8 2 11 C 1.8 11.2 1.15 11.15 1 11 C 0.85 10.85 1.05 10.45 1.25 10.25 " fill = "rgb(222, 222, 221)" stroke = "rgb(222, 222, 221)" stroke-width = "0"/>
    <path d="M 2 10 C 2.2 9.8 2.8 9.8 3 10 C 3.2 10.2 3.2 10.8 3 11 C 2.8 11.2 2.2 11.2 2 11 C 1.8 10.8 1.8 10.2 2 10 " fill = "rgb(156, 157, 162)" stroke = "rgb(156, 157, 162)" stroke-width = "0"/>
    <path d="M 3 10 C 3.2 9.8 3.8 9.8 4 10 C 4.2 10.2 4.2 10.8 4 11 C 3.8 11.2 3.2 11.2 3 11 C 2.8 10.8 2.8 10.2 3 10 " fill = "rgb(46, 53, 72)" stroke = "rgb(46, 53, 72)" stroke-width = "0"/>
    <path d="M 4 10 C 4.2 9.8 4.8 9.8 5 10 C 5.2 10.2 5.2 10.8 5 11 C 4.8 11.2 4.2 11.2 4 11 C 3.8 10.8 3.8 10.2 4 10 " fill = "rgb(121, 140, 193)" stroke = "rgb(121, 140, 193)" stroke-width = "0"/>
    <path d="M 5 10 C 5.2 9.8 5.8 9.8 6 10 C 6.2 10.2 6.2 10.8 6 11 C 5.8 11.2 5.2 11.2 5 11 C 4.8 10.8 4.8 10.2 5 10 " fill = "rgb(148, 173, 238)" stroke = "rgb(148, 173, 238)" stroke-width = "0"/>
    <path d="M 6 10 C 6.2 9.8 6.8 9.8 7 10 C 7.2 10.2 7.2 10.8 7 11 C 6.8 11.2 6.2 11.2 6 11 C 5.8 10.8 5.8 10.2 6 10 " fill = "rgb(146, 171, 236)" stroke = "rgb(146, 171, 236)" stroke-width = "0"/>
    <path d="M 7 10 C 7.2 9.8 7.8 9.8 8 10 C 8.2 10.2 8.2 10.8 8 11 C 7.8 11.2 7.2 11.2 7 11 C 6.8 10.8 6.8 10.2 7 10 " fill = "rgb(145, 169, 233)" stroke = "rgb(145, 169, 233)" stroke-width = "0"/>
    <path d="M 8 10 C 8.2 9.8 8.8 9.8 9 10 C 9.2 10.2 9.2 10.8 9 11 C 8.8 11.2 8.2 11.2 8 11 C 7.8 10.8 7.8 10.2 8 10 " fill = "rgb(132, 156, 220)" stroke = "rgb(132, 156, 220)" stroke-width = "0"/>
    <path d="M 9 10 C 9.2 9.8 9.85 9.85 10 10 C 10.15 10.15 9.95 10.55 9.75 10.75 C 9.55 10.95 9.15 11.15 9 11 C 8.85 10.85 8.8 10.2 9 10 " fill = "rgb(107, 131, 195)" stroke = "rgb(107, 131, 195)" stroke-width = "0"/>
    <path d="M 10 10 C 10.25 9.85 10.8 9.8 11 10 C 11.2 10.2 11.15 10.75 11 11 C 10.85 11.25 10.45 11.05 10.25 11.25 C 10.05 11.45 10.25 11.85 10 12 C 9.75 12.15 9.2 12.2 9 12 C 8.8 11.8 8.85 11.25 9 11 C 9.15 10.75 9.55 10.95 9.75 10.75 C 9.95 10.55 9.75 10.15 10 10 " fill = "rgb(77, 101, 165)" stroke = "rgb(77, 101, 165)" stroke-width = "0"/>
    <path d="M 11 10 C 11.2 9.8 11.8 9.8 12 10 C 12.2 10.2 12.2 10.8 12 11 C 11.8 11.2 11.2 11.2 11 11 C 10.8 10.8 10.8 10.2 11 10 " fill = "rgb(81, 105, 171)" stroke = "rgb(81, 105, 171)" stroke-width = "0"/>
    <path d="M 12 10 C 12.2 9.8 12.8 9.8 13 10 C 13.2 10.2 13.2 10.8 13 11 C 12.8 11.2 12.2 11.2 12 11 C 11.8 10.8 11.8 10.2 12 10 " fill = "rgb(81, 105, 170)" stroke = "rgb(81, 105, 170)" stroke-width = "0"/>
    <path d="M 15 10 C 15.2 9.8 15.8 9.8 16 10 C 16.2 10.2 16.2 10.8 16 11 C 15.8 11.2 15.2 11.2 15 11 C 14.8 10.8 14.8 10.2 15 10 " fill = "rgb(81, 106, 172)" stroke = "rgb(81, 106, 172)" stroke-width = "0"/>
    <path d="M 16 10 C 16.2 9.8 16.8 9.8 17 10 C 17.2 10.2 17.2 10.8 17 11 C 16.8 11.2 16.2 11.2 16 11 C 15.8 10.8 15.8 10.2 16 10 " fill = "rgb(57, 69, 102)" stroke = "rgb(57, 69, 102)" stroke-width = "0"/>
    <path d="M 17 10 C 17.2 9.8 17.8 9.8 18 10 C 18.2 10.2 18.2 10.8 18 11 C 17.8 11.2 17.2 11.2 17 11 C 16.8 10.8 16.8 10.2 17 10 " fill = "rgb(75, 74, 71)" stroke = "rgb(75, 74, 71)" stroke-width = "0"/>
    <path d="M 1 11 C 1.2 10.8 1.8 10.8 2 11 C 2.2 11.2 2.2 11.8 2 12 C 1.8 12.2 1.2 12.2 1 12 C 0.8 11.8 0.8 11.2 1 11 " fill = "rgb(138, 138, 137)" stroke = "rgb(138, 138, 137)" stroke-width = "0"/>
    <path d="M 2 11 C 2.2 10.8 2.8 10.8 3 11 C 3.2 11.2 3.2 11.8 3 12 C 2.8 12.2 2.2 12.2 2 12 C 1.8 11.8 1.8 11.2 2 11 " fill = "rgb(36, 42, 56)" stroke = "rgb(36, 42, 56)" stroke-width = "0"/>
    <path d="M 3 11 C 3.2 10.8 3.8 10.8 4 11 C 4.2 11.2 4.2 11.8 4 12 C 3.8 12.2 3.2 12.2 3 12 C 2.8 11.8 2.8 11.2 3 11 " fill = "rgb(80, 105, 173)" stroke = "rgb(80, 105, 173)" stroke-width = "0"/>
    <path d="M 4 11 C 4.2 10.8 4.8 10.8 5 11 C 5.2 11.2 5.2 11.8 5 12 C 4.8 12.2 4.2 12.2 4 12 C 3.8 11.8 3.8 11.2 4 11 " fill = "rgb(119, 142, 202)" stroke = "rgb(119, 142, 202)" stroke-width = "0"/>
    <path d="M 5 11 C 5.2 10.8 5.8 10.8 6 11 C 6.2 11.2 6.2 11.8 6 12 C 5.8 12.2 5.2 12.2 5 12 C 4.8 11.8 4.8 11.2 5 11 " fill = "rgb(139, 161, 222)" stroke = "rgb(139, 161, 222)" stroke-width = "0"/>
    <path d="M 6 11 C 6.2 10.8 6.8 10.8 7 11 C 7.2 11.2 7.2 11.8 7 12 C 6.8 12.2 6.2 12.2 6 12 C 5.8 11.8 5.8 11.2 6 11 " fill = "rgb(144, 168, 232)" stroke = "rgb(144, 168, 232)" stroke-width = "0"/>
    <path d="M 7 11 C 7.2 10.8 7.8 10.8 8 11 C 8.2 11.2 8.2 11.8 8 12 C 7.8 12.2 7.2 12.2 7 12 C 6.8 11.8 6.8 11.2 7 11 " fill = "rgb(146, 170, 234)" stroke = "rgb(146, 170, 234)" stroke-width = "0"/>
    <path d="M 8 11 C 8.2 10.8 8.8 10.8 9 11 C 9.2 11.2 9.2 11.8 9 12 C 8.8 12.2 8.2 12.2 8 12 C 7.8 11.8 7.8 11.2 8 11 " fill = "rgb(101, 125, 189)" stroke = "rgb(101, 125, 189)" stroke-width = "0"/>
    <path d="M 10.25 11.25 C 10.45 11.05 10.85 10.85 11 11 C 11.15 11.15 11.2 11.8 11 12 C 10.8 12.2 10.15 12.15 10 12 C 9.85 11.85 10.05 11.45 10.25 11.25 " fill = "rgb(80, 103, 167)" stroke = "rgb(80, 103, 167)" stroke-width = "0"/>
    <path d="M 11 11 C 11.2 10.8 11.8 10.8 12 11 C 12.2 11.2 12.2 11.8 12 12 C 11.8 12.2 11.2 12.2 11 12 C 10.8 11.8 10.8 11.2 11 11 " fill = "rgb(76, 98, 157)" stroke = "rgb(76, 98, 157)" stroke-width = "0"/>
    <path d="M 12 11 C 12.2 10.8 12.8 10.8 13 11 C 13.2 11.2 13.2 11.8 13 12 C 12.8 12.2 12.2 12.2 12 12 C 11.8 11.8 11.8 11.2 12 11 " fill = "rgb(76, 97, 155)" stroke = "rgb(76, 97, 155)" stroke-width = "0"/>
    <path d="M 13 11 C 13.2 10.8 13.8 10.8 14 11 C 14.2 11.2 14.2 11.8 14 12 C 13.8 12.2 13.2 12.2 13 12 C 12.8 11.8 12.8 11.2 13 11 " fill = "rgb(77, 99, 158)" stroke = "rgb(77, 99, 158)" stroke-width = "0"/>
    <path d="M 14 11 C 14.2 10.8 14.8 10.8 15 11 C 15.2 11.2 15.2 11.8 15 12 C 14.8 12.2 14.2 12.2 14 12 C 13.8 11.8 13.8 11.2 14 11 " fill = "rgb(80, 104, 169)" stroke = "rgb(80, 104, 169)" stroke-width = "0"/>
    <path d="M 15 11 C 15.2 10.8 15.8 10.8 16 11 C 16.2 11.2 16.2 11.8 16 12 C 15.8 12.2 15.2 12.2 15 12 C 14.8 11.8 14.8 11.2 15 11 " fill = "rgb(77, 100, 160)" stroke = "rgb(77, 100, 160)" stroke-width = "0"/>
    <path d="M 16 11 C 16.2 10.8 16.8 10.8 17 11 C 17.2 11.2 17.2 11.8 17 12 C 16.8 12.2 16.2 12.2 16 12 C 15.8 11.8 15.8 11.2 16 11 " fill = "rgb(66, 78, 108)" stroke = "rgb(66, 78, 108)" stroke-width = "0"/>
    <path d="M 17 11 C 17.2 10.8 17.8 10.8 18 11 C 18.2 11.2 18.2 11.8 18 12 C 17.8 12.2 17.2 12.2 17 12 C 16.8 11.8 16.8 11.2 17 11 " fill = "rgb(95, 94, 93)" stroke = "rgb(95, 94, 93)" stroke-width = "0"/>
    <path d="M 18 11 C 18.15 10.85 18.6 11.1 18.75 11.25 C 18.9 11.4 18.9 11.6 18.75 11.75 C 18.6 11.9 18.15 12.15 18 12 C 17.85 11.85 17.85 11.15 18 11 " fill = "rgb(250, 250, 250)" stroke = "rgb(250, 250, 250)" stroke-width = "0"/>
    <path d="M 1 12 C 1.2 11.8 1.8 11.8 2 12 C 2.2 12.2 2 12.6 2 13 C 2 13.4 2 13.6 2 14 C 2 14.4 2.2 14.8 2 15 C 1.8 15.2 1.2 15.2 1 15 C 0.8 14.8 1 14.4 1 14 C 1 13.6 1 13.4 1 13 C 1 12.6 0.8 12.2 1 12 " fill = "rgb(143, 142, 142)" stroke = "rgb(143, 142, 142)" stroke-width = "0"/>
    <path d="M 2 12 C 2.2 11.8 2.8 11.8 3 12 C 3.2 12.2 3 12.6 3 13 C 3 13.4 3 13.6 3 14 C 3 14.4 3.2 14.8 3 15 C 2.8 15.2 2.2 15.2 2 15 C 1.8 14.8 2 14.4 2 14 C 2 13.6 2 13.4 2 13 C 2 12.6 1.8 12.2 2 12 " fill = "rgb(42, 48, 61)" stroke = "rgb(42, 48, 61)" stroke-width = "0"/>
    <path d="M 3 12 C 3.2 11.8 3.8 11.8 4 12 C 4.2 12.2 4.2 12.8 4 13 C 3.8 13.2 3.2 13.2 3 13 C 2.8 12.8 2.8 12.2 3 12 " fill = "rgb(82, 107, 175)" stroke = "rgb(82, 107, 175)" stroke-width = "0"/>
    <path d="M 4 12 C 4.2 11.8 4.8 11.8 5 12 C 5.2 12.2 5.2 12.8 5 13 C 4.8 13.2 4.2 13.2 4 13 C 3.8 12.8 3.8 12.2 4 12 " fill = "rgb(48, 53, 68)" stroke = "rgb(48, 53, 68)" stroke-width = "0"/>
    <path d="M 5 12 C 5.2 11.8 5.8 11.8 6 12 C 6.2 12.2 6.2 12.8 6 13 C 5.8 13.2 5.2 13.2 5 13 C 4.8 12.8 4.8 12.2 5 12 " fill = "rgb(84, 93, 119)" stroke = "rgb(84, 93, 119)" stroke-width = "0"/>
    <path d="M 6 12 C 6.2 11.8 6.8 11.8 7 12 C 7.2 12.2 7.2 12.8 7 13 C 6.8 13.2 6.2 13.2 6 13 C 5.8 12.8 5.8 12.2 6 12 " fill = "rgb(147, 172, 238)" stroke = "rgb(147, 172, 238)" stroke-width = "0"/>
    <path d="M 7 12 C 7.2 11.8 7.8 11.8 8 12 C 8.2 12.2 8.2 12.8 8 13 C 7.8 13.2 7.2 13.2 7 13 C 6.8 12.8 6.8 12.2 7 12 " fill = "rgb(149, 173, 236)" stroke = "rgb(149, 173, 236)" stroke-width = "0"/>
    <path d="M 8 12 C 8.2 11.8 8.8 11.8 9 12 C 9.2 12.2 9.2 12.8 9 13 C 8.8 13.2 8.2 13.2 8 13 C 7.8 12.8 7.8 12.2 8 12 " fill = "rgb(103, 127, 191)" stroke = "rgb(103, 127, 191)" stroke-width = "0"/>
    <path d="M 9 12 C 9.2 11.8 9.8 11.8 10 12 C 10.2 12.2 10.2 12.8 10 13 C 9.8 13.2 9.2 13.2 9 13 C 8.8 12.8 8.8 12.2 9 12 " fill = "rgb(79, 104, 169)" stroke = "rgb(79, 104, 169)" stroke-width = "0"/>
    <path d="M 10 12 C 10.2 11.8 10.8 11.8 11 12 C 11.2 12.2 11.2 12.8 11 13 C 10.8 13.2 10.2 13.2 10 13 C 9.8 12.8 9.8 12.2 10 12 " fill = "rgb(79, 102, 165)" stroke = "rgb(79, 102, 165)" stroke-width = "0"/>
    <path d="M 11 12 C 11.2 11.8 11.8 11.8 12 12 C 12.2 12.2 12.2 12.8 12 13 C 11.8 13.2 11.2 13.2 11 13 C 10.8 12.8 10.8 12.2 11 12 " fill = "rgb(45, 48, 56)" stroke = "rgb(45, 48, 56)" stroke-width = "0"/>
    <path d="M 12 12 C 12.2 11.8 12.8 11.8 13 12 C 13.2 12.2 13.2 12.8 13 13 C 12.8 13.2 12.2 13.2 12 13 C 11.8 12.8 11.8 12.2 12 12 " fill = "rgb(36, 35, 31)" stroke = "rgb(36, 35, 31)" stroke-width = "0"/>
    <path d="M 13 12 C 13.2 11.8 13.8 11.8 14 12 C 14.2 12.2 14.2 12.8 14 13 C 13.8 13.2 13.2 13.2 13 13 C 12.8 12.8 12.8 12.2 13 12 " fill = "rgb(48, 54, 70)" stroke = "rgb(48, 54, 70)" stroke-width = "0"/>
    <path d="M 14 12 C 14.2 11.8 14.8 11.8 15 12 C 15.2 12.2 15.2 12.8 15 13 C 14.8 13.2 14.2 13.2 14 13 C 13.8 12.8 13.8 12.2 14 12 " fill = "rgb(84, 110, 181)" stroke = "rgb(84, 110, 181)" stroke-width = "0"/>
    <path d="M 15 12 C 15.2 11.8 15.8 11.8 16 12 C 16.2 12.2 16.2 12.8 16 13 C 15.8 13.2 15.2 13.2 15 13 C 14.8 12.8 14.8 12.2 15 12 " fill = "rgb(37, 43, 59)" stroke = "rgb(37, 43, 59)" stroke-width = "0"/>
    <path d="M 16 12 C 16.2 11.8 16.8 11.8 17 12 C 17.2 12.2 17.2 12.8 17 13 C 16.8 13.2 16.2 13.2 16 13 C 15.8 12.8 15.8 12.2 16 12 " fill = "rgb(135, 135, 134)" stroke = "rgb(135, 135, 134)" stroke-width = "0"/>
    <path d="M 3 13 C 3.2 12.8 3.8 12.8 4 13 C 4.2 13.2 4.2 13.8 4 14 C 3.8 14.2 3.2 14.2 3 14 C 2.8 13.8 2.8 13.2 3 13 " fill = "rgb(81, 106, 171)" stroke = "rgb(81, 106, 171)" stroke-width = "0"/>
    <path d="M 4 13 C 4.2 12.8 4.8 12.8 5 13 C 5.2 13.2 5.2 13.8 5 14 C 4.8 14.2 4.2 14.2 4 14 C 3.8 13.8 3.8 13.2 4 13 " fill = "rgb(71, 91, 143)" stroke = "rgb(71, 91, 143)" stroke-width = "0"/>
    <path d="M 5 13 C 5.2 12.8 5.8 12.8 6 13 C 6.2 13.2 6.2 13.8 6 14 C 5.8 14.2 5.2 14.2 5 14 C 4.8 13.8 4.8 13.2 5 13 " fill = "rgb(103, 124, 179)" stroke = "rgb(103, 124, 179)" stroke-width = "0"/>
    <path d="M 6 13 C 6.2 12.8 6.8 12.8 7 13 C 7.2 13.2 7.2 13.8 7 14 C 6.8 14.2 6.2 14.2 6 14 C 5.8 13.8 5.8 13.2 6 13 " fill = "rgb(141, 165, 230)" stroke = "rgb(141, 165, 230)" stroke-width = "0"/>
    <path d="M 7 13 C 7.2 12.8 7.8 12.8 8 13 C 8.2 13.2 8.2 13.8 8 14 C 7.8 14.2 7.2 14.2 7 14 C 6.8 13.8 6.8 13.2 7 13 " fill = "rgb(98, 122, 186)" stroke = "rgb(98, 122, 186)" stroke-width = "0"/>
    <path d="M 8 13 C 8.2 12.8 8.8 12.8 9 13 C 9.2 13.2 9.2 13.8 9 14 C 8.8 14.2 8.2 14.2 8 14 C 7.8 13.8 7.8 13.2 8 13 " fill = "rgb(85, 110, 175)" stroke = "rgb(85, 110, 175)" stroke-width = "0"/>
    <path d="M 9 13 C 9.2 12.8 9.8 12.8 10 13 C 10.2 13.2 10.2 13.8 10 14 C 9.8 14.2 9.2 14.2 9 14 C 8.8 13.8 8.8 13.2 9 13 " fill = "rgb(68, 85, 131)" stroke = "rgb(68, 85, 131)" stroke-width = "0"/>
    <path d="M 10 13 C 10.2 12.8 10.8 12.8 11 13 C 11.2 13.2 11.2 13.8 11 14 C 10.8 14.2 10.2 14.2 10 14 C 9.8 13.8 9.8 13.2 10 13 " fill = "rgb(48, 53, 66)" stroke = "rgb(48, 53, 66)" stroke-width = "0"/>
    <path d="M 11 13 C 11.2 12.8 11.8 12.8 12 13 C 12.2 13.2 12.2 13.8 12 14 C 11.8 14.2 11.2 14.2 11 14 C 10.8 13.8 10.8 13.2 11 13 " fill = "rgb(64, 80, 124)" stroke = "rgb(64, 80, 124)" stroke-width = "0"/>
    <path d="M 12 13 C 12.2 12.8 12.8 12.8 13 13 C 13.2 13.2 13.2 13.8 13 14 C 12.8 14.2 12.2 14.2 12 14 C 11.8 13.8 11.8 13.2 12 13 " fill = "rgb(98, 117, 167)" stroke = "rgb(98, 117, 167)" stroke-width = "0"/>
    <path d="M 13 13 C 13.2 12.8 13.8 12.8 14 13 C 14.2 13.2 14.2 13.8 14 14 C 13.8 14.2 13.2 14.2 13 14 C 12.8 13.8 12.8 13.2 13 13 " fill = "rgb(101, 116, 156)" stroke = "rgb(101, 116, 156)" stroke-width = "0"/>
    <path d="M 14 13 C 14.2 12.8 14.8 12.8 15 13 C 15.2 13.2 15.2 13.8 15 14 C 14.8 14.2 14.2 14.2 14 14 C 13.8 13.8 13.8 13.2 14 13 " fill = "rgb(39, 44, 55)" stroke = "rgb(39, 44, 55)" stroke-width = "0"/>
    <path d="M 15 13 C 15.2 12.8 15.8 12.8 16 13 C 16.2 13.2 16.2 13.8 16 14 C 15.8 14.2 15.2 14.2 15 14 C 14.8 13.8 14.8 13.2 15 13 " fill = "rgb(172, 173, 176)" stroke = "rgb(172, 173, 176)" stroke-width = "0"/>
    <path d="M 16 13 C 16.2 12.8 16.8 12.8 17 13 C 17.2 13.2 17.2 13.8 17 14 C 16.8 14.2 16.2 14.2 16 14 C 15.8 13.8 15.8 13.2 16 13 " fill = "rgb(235, 235, 234)" stroke = "rgb(235, 235, 234)" stroke-width = "0"/>
    <path d="M 3 14 C 3.2 13.8 3.8 13.8 4 14 C 4.2 14.2 4.2 14.8 4 15 C 3.8 15.2 3.2 15.2 3 15 C 2.8 14.8 2.8 14.2 3 14 " fill = "rgb(80, 105, 170)" stroke = "rgb(80, 105, 170)" stroke-width = "0"/>
    <path d="M 4 14 C 4.2 13.8 4.8 13.8 5 14 C 5.2 14.2 5.2 14.8 5 15 C 4.8 15.2 4.2 15.2 4 15 C 3.8 14.8 3.8 14.2 4 14 " fill = "rgb(79, 104, 168)" stroke = "rgb(79, 104, 168)" stroke-width = "0"/>
    <path d="M 5 14 C 5.2 13.8 5.8 13.8 6 14 C 6.2 14.2 6.2 14.8 6 15 C 5.8 15.2 5.2 15.2 5 15 C 4.8 14.8 4.8 14.2 5 14 " fill = "rgb(93, 117, 181)" stroke = "rgb(93, 117, 181)" stroke-width = "0"/>
    <path d="M 6 14 C 6.2 13.8 6.8 13.8 7 14 C 7.2 14.2 7.2 14.8 7 15 C 6.8 15.2 6.2 15.2 6 15 C 5.8 14.8 5.8 14.2 6 14 " fill = "rgb(105, 129, 193)" stroke = "rgb(105, 129, 193)" stroke-width = "0"/>
    <path d="M 7 14 C 7.2 13.8 7.8 13.8 8 14 C 8.2 14.2 8.2 14.8 8 15 C 7.8 15.2 7.2 15.2 7 15 C 6.8 14.8 6.8 14.2 7 14 " fill = "rgb(81, 105, 169)" stroke = "rgb(81, 105, 169)" stroke-width = "0"/>
    <path d="M 8 14 C 8.2 13.8 8.8 13.8 9 14 C 9.2 14.2 9 14.6 9 15 C 9 15.4 9.15 15.75 9 16 C 8.85 16.25 8.45 16.05 8.25 16.25 C 8.05 16.45 8.25 16.85 8 17 C 7.75 17.15 7.4 17 7 17 C 6.6 17 6.4 17 6 17 C 5.6 17 5.25 17.15 5 17 C 4.75 16.85 4.95 16.45 4.75 16.25 C 4.55 16.05 4.15 16.25 4 16 C 3.85 15.75 3.8 15.2 4 15 C 4.2 14.8 4.75 14.85 5 15 C 5.25 15.15 5.05 15.55 5.25 15.75 C 5.45 15.95 5.65 15.95 6 16 C 6.35 16.05 6.65 16.05 7 16 C 7.35 15.95 7.55 15.95 7.75 15.75 C 7.95 15.55 7.95 15.35 8 15 C 8.05 14.65 7.8 14.2 8 14 " fill = "rgb(80, 104, 168)" stroke = "rgb(80, 104, 168)" stroke-width = "0"/>
    <path d="M 9 14 C 9.2 13.8 9.8 13.8 10 14 C 10.2 14.2 10.2 14.8 10 15 C 9.8 15.2 9.2 15.2 9 15 C 8.8 14.8 8.8 14.2 9 14 " fill = "rgb(73, 93, 147)" stroke = "rgb(73, 93, 147)" stroke-width = "0"/>
    <path d="M 10 14 C 10.2 13.8 10.8 13.8 11 14 C 11.2 14.2 11.2 14.8 11 15 C 10.8 15.2 10.2 15.2 10 15 C 9.8 14.8 9.8 14.2 10 14 " fill = "rgb(64, 77, 112)" stroke = "rgb(64, 77, 112)" stroke-width = "0"/>
    <path d="M 11 14 C 11.2 13.8 11.8 13.8 12 14 C 12.2 14.2 12.2 14.8 12 15 C 11.8 15.2 11.2 15.2 11 15 C 10.8 14.8 10.8 14.2 11 14 " fill = "rgb(108, 131, 191)" stroke = "rgb(108, 131, 191)" stroke-width = "0"/>
    <path d="M 12 14 C 12.2 13.8 12.8 13.8 13 14 C 13.2 14.2 13.2 14.8 13 15 C 12.8 15.2 12.2 15.2 12 15 C 11.8 14.8 11.8 14.2 12 14 " fill = "rgb(135, 160, 227)" stroke = "rgb(135, 160, 227)" stroke-width = "0"/>
    <path d="M 13 14 C 13.2 13.8 13.8 13.8 14 14 C 14.2 14.2 14.2 14.8 14 15 C 13.8 15.2 13.2 15.2 13 15 C 12.8 14.8 12.8 14.2 13 14 " fill = "rgb(135, 157, 216)" stroke = "rgb(135, 157, 216)" stroke-width = "0"/>
    <path d="M 14 14 C 14.2 13.8 14.8 13.8 15 14 C 15.2 14.2 15.2 14.8 15 15 C 14.8 15.2 14.2 15.2 14 15 C 13.8 14.8 13.8 14.2 14 14 " fill = "rgb(96, 109, 144)" stroke = "rgb(96, 109, 144)" stroke-width = "0"/>
    <path d="M 15 14 C 15.2 13.8 15.8 13.8 16 14 C 16.2 14.2 16.2 14.8 16 15 C 15.8 15.2 15.2 15.2 15 15 C 14.8 14.8 14.8 14.2 15 14 " fill = "rgb(127, 130, 138)" stroke = "rgb(127, 130, 138)" stroke-width = "0"/>
    <path d="M 16 14 C 16.2 13.8 16.8 13.8 17 14 C 17.2 14.2 17.2 14.8 17 15 C 16.8 15.2 16.2 15.2 16 15 C 15.8 14.8 15.8 14.2 16 14 " fill = "rgb(194, 194, 194)" stroke = "rgb(194, 194, 194)" stroke-width = "0"/>
    <path d="M 1 15 C 1.2 14.8 1.8 14.8 2 15 C 2.2 15.2 2.2 15.8 2 16 C 1.8 16.2 1.2 16.2 1 16 C 0.8 15.8 0.8 15.2 1 15 " fill = "rgb(142, 142, 141)" stroke = "rgb(142, 142, 141)" stroke-width = "0"/>
    <path d="M 2 15 C 2.2 14.8 2.8 14.8 3 15 C 3.2 15.2 3.2 15.8 3 16 C 2.8 16.2 2.2 16.2 2 16 C 1.8 15.8 1.8 15.2 2 15 " fill = "rgb(41, 46, 60)" stroke = "rgb(41, 46, 60)" stroke-width = "0"/>
    <path d="M 3 15 C 3.2 14.8 3.8 14.8 4 15 C 4.2 15.2 4.2 15.8 4 16 C 3.8 16.2 3.2 16.2 3 16 C 2.8 15.8 2.8 15.2 3 15 " fill = "rgb(81, 105, 171)" stroke = "rgb(81, 105, 171)" stroke-width = "0"/>
    <path d="M 5 15 C 5.15 14.85 5.8 14.8 6 15 C 6.2 15.2 6.15 15.85 6 16 C 5.85 16.15 5.45 15.95 5.25 15.75 C 5.05 15.55 4.85 15.15 5 15 " fill = "rgb(79, 103, 167)" stroke = "rgb(79, 103, 167)" stroke-width = "0"/>
    <path d="M 6 15 C 6.2 14.8 6.8 14.8 7 15 C 7.2 15.2 7.2 15.8 7 16 C 6.8 16.2 6.2 16.2 6 16 C 5.8 15.8 5.8 15.2 6 15 " fill = "rgb(78, 102, 166)" stroke = "rgb(78, 102, 166)" stroke-width = "0"/>
    <path d="M 7 15 C 7.2 14.8 7.85 14.85 8 15 C 8.15 15.15 7.95 15.55 7.75 15.75 C 7.55 15.95 7.15 16.15 7 16 C 6.85 15.85 6.8 15.2 7 15 " fill = "rgb(80, 104, 167)" stroke = "rgb(80, 104, 167)" stroke-width = "0"/>
    <path d="M 9 15 C 9.2 14.8 9.8 14.8 10 15 C 10.2 15.2 10.2 15.8 10 16 C 9.8 16.2 9.2 16.2 9 16 C 8.8 15.8 8.8 15.2 9 15 " fill = "rgb(80, 105, 170)" stroke = "rgb(80, 105, 170)" stroke-width = "0"/>
    <path d="M 10 15 C 10.2 14.8 10.8 14.8 11 15 C 11.2 15.2 11.2 15.8 11 16 C 10.8 16.2 10.2 16.2 10 16 C 9.8 15.8 9.8 15.2 10 15 " fill = "rgb(84, 108, 174)" stroke = "rgb(84, 108, 174)" stroke-width = "0"/>
    <path d="M 11 15 C 11.2 14.8 11.8 14.8 12 15 C 12.2 15.2 12.2 15.8 12 16 C 11.8 16.2 11.2 16.2 11 16 C 10.8 15.8 10.8 15.2 11 15 " fill = "rgb(119, 143, 208)" stroke = "rgb(119, 143, 208)" stroke-width = "0"/>
    <path d="M 12 15 C 12.2 14.8 12.8 14.8 13 15 C 13.2 15.2 13.2 15.8 13 16 C 12.8 16.2 12.2 16.2 12 16 C 11.8 15.8 11.8 15.2 12 15 " fill = "rgb(116, 136, 187)" stroke = "rgb(116, 136, 187)" stroke-width = "0"/>
    <path d="M 13 15 C 13.2 14.8 13.8 14.8 14 15 C 14.2 15.2 14.2 15.8 14 16 C 13.8 16.2 13.2 16.2 13 16 C 12.8 15.8 12.8 15.2 13 15 " fill = "rgb(110, 126, 168)" stroke = "rgb(110, 126, 168)" stroke-width = "0"/>
    <path d="M 14 15 C 14.2 14.8 14.8 14.8 15 15 C 15.2 15.2 15.2 15.8 15 16 C 14.8 16.2 14.2 16.2 14 16 C 13.8 15.8 13.8 15.2 14 15 " fill = "rgb(114, 131, 177)" stroke = "rgb(114, 131, 177)" stroke-width = "0"/>
    <path d="M 15 15 C 15.2 14.8 15.8 14.8 16 15 C 16.2 15.2 16.2 15.8 16 16 C 15.8 16.2 15.2 16.2 15 16 C 14.8 15.8 14.8 15.2 15 15 " fill = "rgb(45, 48, 58)" stroke = "rgb(45, 48, 58)" stroke-width = "0"/>
    <path d="M 16 15 C 16.2 14.8 16.8 14.8 17 15 C 17.2 15.2 17.2 15.8 17 16 C 16.8 16.2 16.2 16.2 16 16 C 15.8 15.8 15.8 15.2 16 15 " fill = "rgb(137, 136, 136)" stroke = "rgb(137, 136, 136)" stroke-width = "0"/>
    <path d="M 1 16 C 1.15 15.85 1.8 15.8 2 16 C 2.2 16.2 2.15 16.85 2 17 C 1.85 17.15 1.45 16.95 1.25 16.75 C 1.05 16.55 0.85 16.15 1 16 " fill = "rgb(156, 155, 155)" stroke = "rgb(156, 155, 155)" stroke-width = "0"/>
    <path d="M 2 16 C 2.2 15.8 2.8 15.8 3 16 C 3.2 16.2 3.2 16.8 3 17 C 2.8 17.2 2.2 17.2 2 17 C 1.8 16.8 1.8 16.2 2 16 " fill = "rgb(61, 66, 78)" stroke = "rgb(61, 66, 78)" stroke-width = "0"/>
    <path d="M 3 16 C 3.2 15.8 3.8 15.8 4 16 C 4.2 16.2 4.2 16.8 4 17 C 3.8 17.2 3.2 17.2 3 17 C 2.8 16.8 2.8 16.2 3 16 " fill = "rgb(75, 96, 154)" stroke = "rgb(75, 96, 154)" stroke-width = "0"/>
    <path d="M 4 16 C 4.15 15.85 4.55 16.05 4.75 16.25 C 4.95 16.45 5.15 16.85 5 17 C 4.85 17.15 4.2 17.2 4 17 C 3.8 16.8 3.85 16.15 4 16 " fill = "rgb(79, 102, 164)" stroke = "rgb(79, 102, 164)" stroke-width = "0"/>
    <path d="M 8.25 16.25 C 8.45 16.05 8.85 15.85 9 16 C 9.15 16.15 9.2 16.8 9 17 C 8.8 17.2 8.15 17.15 8 17 C 7.85 16.85 8.05 16.45 8.25 16.25 " fill = "rgb(77, 99, 158)" stroke = "rgb(77, 99, 158)" stroke-width = "0"/>
    <path d="M 9 16 C 9.2 15.8 9.8 15.8 10 16 C 10.2 16.2 10.2 16.8 10 17 C 9.8 17.2 9.2 17.2 9 17 C 8.8 16.8 8.8 16.2 9 16 " fill = "rgb(75, 96, 153)" stroke = "rgb(75, 96, 153)" stroke-width = "0"/>
    <path d="M 10 16 C 10.2 15.8 10.8 15.8 11 16 C 11.2 16.2 11.2 16.8 11 17 C 10.8 17.2 10.2 17.2 10 17 C 9.8 16.8 9.8 16.2 10 16 " fill = "rgb(75, 97, 154)" stroke = "rgb(75, 97, 154)" stroke-width = "0"/>
    <path d="M 11 16 C 11.2 15.8 11.8 15.8 12 16 C 12.2 16.2 12.2 16.8 12 17 C 11.8 17.2 11.2 17.2 11 17 C 10.8 16.8 10.8 16.2 11 16 " fill = "rgb(78, 103, 167)" stroke = "rgb(78, 103, 167)" stroke-width = "0"/>
    <path d="M 12 16 C 12.2 15.8 12.8 15.8 13 16 C 13.2 16.2 13.2 16.8 13 17 C 12.8 17.2 12.2 17.2 12 17 C 11.8 16.8 11.8 16.2 12 16 " fill = "rgb(57, 68, 99)" stroke = "rgb(57, 68, 99)" stroke-width = "0"/>
    <path d="M 13 16 C 13.2 15.8 13.8 15.8 14 16 C 14.2 16.2 14.2 16.8 14 17 C 13.8 17.2 13.2 17.2 13 17 C 12.8 16.8 12.8 16.2 13 16 " fill = "rgb(38, 39, 40)" stroke = "rgb(38, 39, 40)" stroke-width = "0"/>
    <path d="M 14 16 C 14.2 15.8 14.8 15.8 15 16 C 15.2 16.2 15.2 16.8 15 17 C 14.8 17.2 14.2 17.2 14 17 C 13.8 16.8 13.8 16.2 14 16 " fill = "rgb(35, 34, 31)" stroke = "rgb(35, 34, 31)" stroke-width = "0"/>
    <path d="M 15 16 C 15.2 15.8 15.8 15.8 16 16 C 16.2 16.2 16.2 16.8 16 17 C 15.8 17.2 15.2 17.2 15 17 C 14.8 16.8 14.8 16.2 15 16 " fill = "rgb(52, 52, 51)" stroke = "rgb(52, 52, 51)" stroke-width = "0"/>
    <path d="M 16 16 C 16.2 15.8 16.85 15.85 17 16 C 17.15 16.15 16.95 16.55 16.75 16.75 C 16.55 16.95 16.15 17.15 16 17 C 15.85 16.85 15.8 16.2 16 16 " fill = "rgb(154, 154, 154)" stroke = "rgb(154, 154, 154)" stroke-width = "0"/>
    <path d="M 2 17 C 2.2 16.8 2.8 16.8 3 17 C 3.2 17.2 3.2 17.8 3 18 C 2.8 18.2 2.2 18.2 2 18 C 1.8 17.8 1.8 17.2 2 17 " fill = "rgb(205, 204, 204)" stroke = "rgb(205, 204, 204)" stroke-width = "0"/>
    <path d="M 3 17 C 3.2 16.8 3.8 16.8 4 17 C 4.2 17.2 4.2 17.8 4 18 C 3.8 18.2 3.2 18.2 3 18 C 2.8 17.8 2.8 17.2 3 17 " fill = "rgb(25, 25, 22)" stroke = "rgb(25, 25, 22)" stroke-width = "0"/>
    <path d="M 4 17 C 4.2 16.8 4.8 16.8 5 17 C 5.2 17.2 5.2 17.8 5 18 C 4.8 18.2 4.2 18.2 4 18 C 3.8 17.8 3.8 17.2 4 17 " fill = "rgb(67, 85, 134)" stroke = "rgb(67, 85, 134)" stroke-width = "0"/>
    <path d="M 5 17 C 5.2 16.8 5.8 16.8 6 17 C 6.2 17.2 6.2 17.8 6 18 C 5.8 18.2 5.2 18.2 5 18 C 4.8 17.8 4.8 17.2 5 17 " fill = "rgb(82, 108, 175)" stroke = "rgb(82, 108, 175)" stroke-width = "0"/>
    <path d="M 6 17 C 6.2 16.8 6.8 16.8 7 17 C 7.2 17.2 7.2 17.8 7 18 C 6.8 18.2 6.2 18.2 6 18 C 5.8 17.8 5.8 17.2 6 17 " fill = "rgb(82, 107, 173)" stroke = "rgb(82, 107, 173)" stroke-width = "0"/>
    <path d="M 7 17 C 7.2 16.8 7.8 16.8 8 17 C 8.2 17.2 8.2 17.8 8 18 C 7.8 18.2 7.2 18.2 7 18 C 6.8 17.8 6.8 17.2 7 17 " fill = "rgb(83, 109, 178)" stroke = "rgb(83, 109, 178)" stroke-width = "0"/>
    <path d="M 8 17 C 8.2 16.8 8.8 16.8 9 17 C 9.2 17.2 9.2 17.8 9 18 C 8.8 18.2 8.2 18.2 8 18 C 7.8 17.8 7.8 17.2 8 17 " fill = "rgb(48, 57, 81)" stroke = "rgb(48, 57, 81)" stroke-width = "0"/>
    <path d="M 9 17 C 9.2 16.8 9.8 16.8 10 17 C 10.2 17.2 10.2 17.8 10 18 C 9.8 18.2 9.2 18.2 9 18 C 8.8 17.8 8.8 17.2 9 17 " fill = "rgb(29, 29, 27)" stroke = "rgb(29, 29, 27)" stroke-width = "0"/>
    <path d="M 10 17 C 10.2 16.8 10.8 16.8 11 17 C 11.2 17.2 11.2 17.8 11 18 C 10.8 18.2 10.2 18.2 10 18 C 9.8 17.8 9.8 17.2 10 17 " fill = "rgb(34, 35, 39)" stroke = "rgb(34, 35, 39)" stroke-width = "0"/>
    <path d="M 11 17 C 11.2 16.8 11.8 16.8 12 17 C 12.2 17.2 12.2 17.8 12 18 C 11.8 18.2 11.2 18.2 11 18 C 10.8 17.8 10.8 17.2 11 17 " fill = "rgb(74, 95, 152)" stroke = "rgb(74, 95, 152)" stroke-width = "0"/>
    <path d="M 12 17 C 12.2 16.8 12.8 16.8 13 17 C 13.2 17.2 13.2 17.8 13 18 C 12.8 18.2 12.2 18.2 12 18 C 11.8 17.8 11.8 17.2 12 17 " fill = "rgb(82, 108, 176)" stroke = "rgb(82, 108, 176)" stroke-width = "0"/>
    <path d="M 13 17 C 13.2 16.8 13.8 16.8 14 17 C 14.2 17.2 14.2 17.8 14 18 C 13.8 18.2 13.2 18.2 13 18 C 12.8 17.8 12.8 17.2 13 17 " fill = "rgb(68, 86, 135)" stroke = "rgb(68, 86, 135)" stroke-width = "0"/>
    <path d="M 14 17 C 14.2 16.8 14.8 16.8 15 17 C 15.2 17.2 15.2 17.8 15 18 C 14.8 18.2 14.2 18.2 14 18 C 13.8 17.8 13.8 17.2 14 17 " fill = "rgb(23, 23, 20)" stroke = "rgb(23, 23, 20)" stroke-width = "0"/>
    <path d="M 15 17 C 15.2 16.8 15.8 16.8 16 17 C 16.2 17.2 16.2 17.8 16 18 C 15.8 18.2 15.2 18.2 15 18 C 14.8 17.8 14.8 17.2 15 17 " fill = "rgb(203, 203, 203)" stroke = "rgb(203, 203, 203)" stroke-width = "0"/>
    <path d="M 2 18 C 2.15 17.85 2.8 17.8 3 18 C 3.2 18.2 3.15 18.85 3 19 C 2.85 19.15 2.45 18.95 2.25 18.75 C 2.05 18.55 1.85 18.15 2 18 " fill = "rgb(245, 245, 245)" stroke = "rgb(245, 245, 245)" stroke-width = "0"/>
    <path d="M 3 18 C 3.2 17.8 3.8 17.8 4 18 C 4.2 18.2 4.2 18.8 4 19 C 3.8 19.2 3.2 19.2 3 19 C 2.8 18.8 2.8 18.2 3 18 " fill = "rgb(214, 214, 213)" stroke = "rgb(214, 214, 213)" stroke-width = "0"/>
    <path d="M 4 18 C 4.2 17.8 4.8 17.8 5 18 C 5.2 18.2 5.2 18.8 5 19 C 4.8 19.2 4.2 19.2 4 19 C 3.8 18.8 3.8 18.2 4 18 " fill = "rgb(87, 90, 100)" stroke = "rgb(87, 90, 100)" stroke-width = "0"/>
    <path d="M 5 18 C 5.2 17.8 5.8 17.8 6 18 C 6.2 18.2 6.2 18.8 6 19 C 5.8 19.2 5.2 19.2 5 19 C 4.8 18.8 4.8 18.2 5 18 " fill = "rgb(39, 44, 58)" stroke = "rgb(39, 44, 58)" stroke-width = "0"/>
    <path d="M 6 18 C 6.2 17.8 6.8 17.8 7 18 C 7.2 18.2 7.2 18.8 7 19 C 6.8 19.2 6.2 19.2 6 19 C 5.8 18.8 5.8 18.2 6 18 " fill = "rgb(41, 46, 60)" stroke = "rgb(41, 46, 60)" stroke-width = "0"/>
    <path d="M 7 18 C 7.2 17.8 7.8 17.8 8 18 C 8.2 18.2 8.2 18.8 8 19 C 7.8 19.2 7.2 19.2 7 19 C 6.8 18.8 6.8 18.2 7 18 " fill = "rgb(35, 41, 55)" stroke = "rgb(35, 41, 55)" stroke-width = "0"/>
    <path d="M 8 18 C 8.2 17.8 8.8 17.8 9 18 C 9.2 18.2 9.2 18.8 9 19 C 8.8 19.2 8.2 19.2 8 19 C 7.8 18.8 7.8 18.2 8 18 " fill = "rgb(150, 151, 156)" stroke = "rgb(150, 151, 156)" stroke-width = "0"/>
    <path d="M 9 18 C 9.2 17.8 9.8 17.8 10 18 C 10.2 18.2 10.2 18.8 10 19 C 9.8 19.2 9.2 19.2 9 19 C 8.8 18.8 8.8 18.2 9 18 " fill = "rgb(213, 213, 212)" stroke = "rgb(213, 213, 212)" stroke-width = "0"/>
    <path d="M 10 18 C 10.2 17.8 10.8 17.8 11 18 C 11.2 18.2 11.2 18.8 11 19 C 10.8 19.2 10.2 19.2 10 19 C 9.8 18.8 9.8 18.2 10 18 " fill = "rgb(199, 199, 200)" stroke = "rgb(199, 199, 200)" stroke-width = "0"/>
    <path d="M 11 18 C 11.2 17.8 11.8 17.8 12 18 C 12.2 18.2 12.2 18.8 12 19 C 11.8 19.2 11.2 19.2 11 19 C 10.8 18.8 10.8 18.2 11 18 " fill = "rgb(66, 70, 82)" stroke = "rgb(66, 70, 82)" stroke-width = "0"/>
    <path d="M 12 18 C 12.2 17.8 12.8 17.8 13 18 C 13.2 18.2 13.2 18.8 13 19 C 12.8 19.2 12.2 19.2 12 19 C 11.8 18.8 11.8 18.2 12 18 " fill = "rgb(37, 42, 56)" stroke = "rgb(37, 42, 56)" stroke-width = "0"/>
    <path d="M 13 18 C 13.2 17.8 13.8 17.8 14 18 C 14.2 18.2 14.2 18.8 14 19 C 13.8 19.2 13.2 19.2 13 19 C 12.8 18.8 12.8 18.2 13 18 " fill = "rgb(85, 89, 99)" stroke = "rgb(85, 89, 99)" stroke-width = "0"/>
    <path d="M 14 18 C 14.2 17.8 14.8 17.8 15 18 C 15.2 18.2 15.2 18.8 15 19 C 14.8 19.2 14.2 19.2 14 19 C 13.8 18.8 13.8 18.2 14 18 " fill = "rgb(214, 214, 213)" stroke = "rgb(214, 214, 213)" stroke-width = "0"/>
    <path d="M 15 18 C 15.2 17.8 15.85 17.85 16 18 C 16.15 18.15 15.95 18.55 15.75 18.75 C 15.55 18.95 15.15 19.15 15 19 C 14.85 18.85 14.8 18.2 15 18 " fill = "rgb(245, 245, 245)" stroke = "rgb(245, 245, 245)" stroke-width = "0"/>
    <path d="M 4 19 C 4.15 18.85 4.8 18.8 5 19 C 5.2 19.2 5.15 19.85 5 20 C 4.85 20.15 4.45 19.95 4.25 19.75 C 4.05 19.55 3.85 19.15 4 19 " fill = "rgb(187, 187, 186)" stroke = "rgb(187, 187, 186)" stroke-width = "0"/>
    <path d="M 5 19 C 5.2 18.8 5.8 18.8 6 19 C 6.2 19.2 6.2 19.8 6 20 C 5.8 20.2 5.2 20.2 5 20 C 4.8 19.8 4.8 19.2 5 19 " fill = "rgb(159, 159, 158)" stroke = "rgb(159, 159, 158)" stroke-width = "0"/>
    <path d="M 6 19 C 6.2 18.8 6.8 18.8 7 19 C 7.2 19.2 7.2 19.8 7 20 C 6.8 20.2 6.2 20.2 6 20 C 5.8 19.8 5.8 19.2 6 19 " fill = "rgb(161, 160, 159)" stroke = "rgb(161, 160, 159)" stroke-width = "0"/>
    <path d="M 7 19 C 7.2 18.8 7.8 18.8 8 19 C 8.2 19.2 8.2 19.8 8 20 C 7.8 20.2 7.2 20.2 7 20 C 6.8 19.8 6.8 19.2 7 19 " fill = "rgb(157, 157, 156)" stroke = "rgb(157, 157, 156)" stroke-width = "0"/>
    <path d="M 8 19 C 8.2 18.8 8.85 18.85 9 19 C 9.15 19.15 8.95 19.55 8.75 19.75 C 8.55 19.95 8.15 20.15 8 20 C 7.85 19.85 7.8 19.2 8 19 " fill = "rgb(224, 223, 223)" stroke = "rgb(224, 223, 223)" stroke-width = "0"/>
    <path d="M 10 19 C 10.15 18.85 10.8 18.8 11 19 C 11.2 19.2 11.15 19.85 11 20 C 10.85 20.15 10.45 19.95 10.25 19.75 C 10.05 19.55 9.85 19.15 10 19 " fill = "rgb(252, 252, 252)" stroke = "rgb(252, 252, 252)" stroke-width = "0"/>
    <path d="M 11 19 C 11.2 18.8 11.8 18.8 12 19 C 12.2 19.2 12.2 19.8 12 20 C 11.8 20.2 11.2 20.2 11 20 C 10.8 19.8 10.8 19.2 11 19 " fill = "rgb(175, 174, 174)" stroke = "rgb(175, 174, 174)" stroke-width = "0"/>
    <path d="M 12 19 C 12.2 18.8 12.8 18.8 13 19 C 13.2 19.2 13.2 19.8 13 20 C 12.8 20.2 12.2 20.2 12 20 C 11.8 19.8 11.8 19.2 12 19 " fill = "rgb(158, 158, 157)" stroke = "rgb(158, 158, 157)" stroke-width = "0"/>
    <path d="M 13 19 C 13.2 18.8 13.85 18.85 14 19 C 14.15 19.15 13.95 19.55 13.75 19.75 C 13.55 19.95 13.15 20.15 13 20 C 12.85 19.85 12.8 19.2 13 19 " fill = "rgb(186, 186, 185)" stroke = "rgb(186, 186, 185)" stroke-width = "0"/>
</svg>
