<svg version="1.1" baseProfile = "full" width = "25" height = "24" xmlns = "http://www.w3.org/2000/svg">
    <path d="M 0 0 C 0.2 -0.2 0.6 -3.49691e-08 1 0 C 1.4 0 1.6 -3.49691e-08 2 0 C 2.4 0 2.75 -0.15 3 0 C 3.25 0.15 3.05 0.55 3.25 0.75 C 3.45 0.95 3.65 0.95 4 1 C 4.35 1.05 4.6 1 5 1 C 5.4 1 5.65 1.05 6 1 C 6.35 0.95 6.55 0.95 6.75 0.75 C 6.95 0.55 6.75 0.15 7 0 C 7.25 -0.15 7.6 -3.49691e-08 8 0 C 8.4 0 8.6 -3.49691e-08 9 0 C 9.4 0 9.6 -3.49691e-08 10 0 C 10.4 0 10.6 -3.49691e-08 11 0 C 11.4 0 11.8 -0.2 12 0 C 12.2 0.2 12.2 0.8 12 1 C 11.8 1.2 11.4 1 11 1 C 10.6 1 10.4 1 10 1 C 9.6 1 9.4 1 9 1 C 8.6 1 8.35 0.95 8 1 C 7.65 1.05 7.45 1.05 7.25 1.25 C 7.05 1.45 7.05 1.65 7 2 C 6.95 2.35 7.2 2.8 7 3 C 6.8 3.2 6.35 2.95 6 3 C 5.65 3.05 5.45 3.05 5.25 3.25 C 5.05 3.45 5.05 3.65 5 4 C 4.95 4.35 4.95 4.65 5 5 C 5.05 5.35 5.05 5.55 5.25 5.75 C 5.45 5.95 5.65 5.95 6 6 C 6.35 6.05 6.8 5.8 7 6 C 7.2 6.2 7 6.6 7 7 C 7 7.4 7 7.6 7 8 C 7 8.4 7 8.6 7 9 C 7 9.4 7.2 9.8 7 10 C 6.8 10.2 6.35 9.95 6 10 C 5.65 10.05 5.45 10.05 5.25 10.25 C 5.05 10.45 5.05 10.65 5 11 C 4.95 11.35 5 11.6 5 12 C 5 12.4 5.15 12.75 5 13 C 4.85 13.25 4.45 13.05 4.25 13.25 C 4.05 13.45 4.05 13.65 4 14 C 3.95 14.35 4.15 14.75 4 15 C 3.85 15.25 3.45 15.05 3.25 15.25 C 3.05 15.45 3.05 15.65 3 16 C 2.95 16.35 3.2 16.8 3 17 C 2.8 17.2 2.35 16.95 2 17 C 1.65 17.05 1.45 17.05 1.25 17.25 C 1.05 17.45 1.05 17.65 1 18 C 0.95 18.35 0.95 18.65 1 19 C 1.05 19.35 1.05 19.55 1.25 19.75 C 1.45 19.95 1.65 19.95 2 20 C 2.35 20.05 2.8 19.8 3 20 C 3.2 20.2 3.15 20.75 3 21 C 2.85 21.25 2.4 21.1 2.25 21.25 C 2.1 21.4 2.1 21.6 2.25 21.75 C 2.4 21.9 2.65 21.95 3 22 C 3.35 22.05 3.75 21.85 4 22 C 4.25 22.15 4.05 22.55 4.25 22.75 C 4.45 22.95 4.65 22.95 5 23 C 5.35 23.05 5.6 23 6 23 C 6.4 23 6.65 23.05 7 23 C 7.35 22.95 7.55 22.95 7.75 22.75 C 7.95 22.55 7.75 22.15 8 22 C 8.25 21.85 8.6 22 9 22 C 9.4 22 9.6 22 10 22 C 10.4 22 10.75 21.85 11 22 C 11.25 22.15 11.05 22.55 11.25 22.75 C 11.45 22.95 11.65 22.95 12 23 C 12.35 23.05 12.6 23 13 23 C 13.4 23 13.65 23.05 14 23 C 14.35 22.95 14.55 22.95 14.75 22.75 C 14.95 22.55 14.75 22.15 15 22 C 15.25 21.85 15.6 22 16 22 C 16.4 22 16.6 22 17 22 C 17.4 22 17.75 21.85 18 22 C 18.25 22.15 18.05 22.55 18.25 22.75 C 18.45 22.95 18.65 22.95 19 23 C 19.35 23.05 19.65 23.05 20 23 C 20.35 22.95 20.55 22.95 20.75 22.75 C 20.95 22.55 20.75 22.15 21 22 C 21.25 21.85 21.65 22.05 22 22 C 22.35 21.95 22.55 21.95 22.75 21.75 C 22.95 21.55 22.95 21.35 23 21 C 23.05 20.65 22.85 20.25 23 20 C 23.15 19.75 23.55 19.95 23.75 19.75 C 23.95 19.55 23.95 19.35 24 19 C 24.05 18.65 24.05 18.35 24 18 C 23.95 17.65 23.95 17.45 23.75 17.25 C 23.55 17.05 23.15 17.25 23 17 C 22.85 16.75 23.05 16.35 23 16 C 22.95 15.65 22.95 15.45 22.75 15.25 C 22.55 15.05 22.35 15.05 22 15 C 21.65 14.95 21.2 15.2 21 15 C 20.8 14.8 21.05 14.35 21 14 C 20.95 13.65 20.95 13.45 20.75 13.25 C 20.55 13.05 20.15 13.25 20 13 C 19.85 12.75 20 12.4 20 12 C 20 11.6 20.05 11.35 20 11 C 19.95 10.65 19.95 10.45 19.75 10.25 C 19.55 10.05 19.15 10.25 19 10 C 18.85 9.75 19 9.4 19 9 C 19 8.6 19 8.4 19 8 C 19 7.6 19 7.4 19 7 C 19 6.6 18.85 6.25 19 6 C 19.15 5.75 19.55 5.95 19.75 5.75 C 19.95 5.55 19.95 5.35 20 5 C 20.05 4.65 20.05 4.35 20 4 C 19.95 3.65 19.95 3.45 19.75 3.25 C 19.55 3.05 19.15 3.25 19 3 C 18.85 2.75 19.05 2.35 19 2 C 18.95 1.65 18.95 1.45 18.75 1.25 C 18.55 1.05 18.35 1.05 18 1 C 17.65 0.95 17.4 1 17 1 C 16.6 1 16.4 1 16 1 C 15.6 1 15.4 1 15 1 C 14.6 1 14.2 1.2 14 1 C 13.8 0.8 13.8 0.2 14 0 C 14.2 -0.2 14.6 -3.49691e-08 15 0 C 15.4 0 15.6 -3.49691e-08 16 0 C 16.4 0 16.6 -3.49691e-08 17 0 C 17.4 0 17.6 -3.49691e-08 18 0 C 18.4 0 18.75 -0.15 19 0 C 19.25 0.15 19.05 0.55 19.25 0.75 C 19.45 0.95 19.65 0.95 20 1 C 20.35 1.05 20.6 1 21 1 C 21.4 1 21.65 1.05 22 1 C 22.35 0.95 22.55 0.95 22.75 0.75 C 22.95 0.55 22.75 0.15 23 0 C 23.25 -0.15 23.6 -3.49691e-08 24 0 C 24.4 0 24.8 -0.2 25 0 C 25.2 0.2 25 0.6 25 1 C 25 1.4 25 1.6 25 2 C 25 2.4 25 2.6 25 3 C 25 3.4 25 3.6 25 4 C 25 4.4 25 4.6 25 5 C 25 5.4 25 5.6 25 6 C 25 6.4 25 6.6 25 7 C 25 7.4 25 7.6 25 8 C 25 8.4 25 8.6 25 9 C 25 9.4 25 9.6 25 10 C 25 10.4 25 10.6 25 11 C 25 11.4 25 11.6 25 12 C 25 12.4 25 12.6 25 13 C 25 13.4 25 13.6 25 14 C 25 14.4 25 14.6 25 15 C 25 15.4 25 15.6 25 16 C 25 16.4 25 16.6 25 17 C 25 17.4 25 17.6 25 18 C 25 18.4 25 18.6 25 19 C 25 19.4 25 19.6 25 20 C 25 20.4 25 20.6 25 21 C 25 21.4 25 21.6 25 22 C 25 22.4 25 22.6 25 23 C 25 23.4 25.2 23.8 25 24 C 24.8 24.2 24.4 24 24 24 C 23.6 24 23.4 24 23 24 C 22.6 24 22.4 24 22 24 C 21.6 24 21.4 24 21 24 C 20.6 24 20.4 24 20 24 C 19.6 24 19.4 24 19 24 C 18.6 24 18.4 24 18 24 C 17.6 24 17.4 24 17 24 C 16.6 24 16.4 24 16 24 C 15.6 24 15.4 24 15 24 C 14.6 24 14.4 24 14 24 C 13.6 24 13.4 24 13 24 C 12.6 24 12.4 24 12 24 C 11.6 24 11.4 24 11 24 C 10.6 24 10.4 24 10 24 C 9.6 24 9.4 24 9 24 C 8.6 24 8.4 24 8 24 C 7.6 24 7.4 24 7 24 C 6.6 24 6.4 24 6 24 C 5.6 24 5.4 24 5 24 C 4.6 24 4.4 24 4 24 C 3.6 24 3.4 24 3 24 C 2.6 24 2.4 24 2 24 C 1.6 24 1.4 24 1 24 C 0.6 24 0.2 24.2 0 24 C -0.2 23.8 3.01992e-08 23.4 0 23 C -1.74846e-08 22.6 3.01992e-08 22.4 0 22 C -1.74846e-08 21.6 3.01992e-08 21.4 0 21 C -1.74846e-08 20.6 3.01992e-08 20.4 0 20 C -1.74846e-08 19.6 3.01992e-08 19.4 0 19 C -1.74846e-08 18.6 3.01992e-08 18.4 0 18 C -1.74846e-08 17.6 3.01992e-08 17.4 0 17 C -1.74846e-08 16.6 3.01992e-08 16.4 0 16 C -1.74846e-08 15.6 3.01992e-08 15.4 0 15 C -1.74846e-08 14.6 3.01992e-08 14.4 0 14 C -1.74846e-08 13.6 3.01992e-08 13.4 0 13 C -1.74846e-08 12.6 3.01992e-08 12.4 0 12 C -1.74846e-08 11.6 3.01992e-08 11.4 0 11 C -1.74846e-08 10.6 3.01992e-08 10.4 0 10 C -1.74846e-08 9.6 3.01992e-08 9.4 0 9 C -1.74846e-08 8.6 3.01992e-08 8.4 0 8 C -1.74846e-08 7.6 3.01992e-08 7.4 0 7 C -1.74846e-08 6.6 3.01992e-08 6.4 0 6 C -1.74846e-08 5.6 3.01992e-08 5.4 0 5 C -1.74846e-08 4.6 3.01992e-08 4.4 0 4 C -1.74846e-08 3.6 3.01992e-08 3.4 0 3 C -1.74846e-08 2.6 3.01992e-08 2.4 0 2 C -1.74846e-08 1.6 3.01992e-08 1.4 0 1 C -1.74846e-08 0.6 -0.2 0.2 0 0 " fill = "rgb(235, 0, 235)" stroke = "rgb(235, 0, 235)" stroke-width = "0"/>
    <path d="M 3 0 C 3.15 -0.15 3.6 -3.49691e-08 4 0 C 4.4 0 4.6 -3.49691e-08 5 0 C 5.4 0 5.6 -3.49691e-08 6 0 C 6.4 0 6.85 -0.15 7 0 C 7.15 0.15 6.95 0.55 6.75 0.75 C 6.55 0.95 6.35 0.95 6 1 C 5.65 1.05 5.4 1 5 1 C 4.6 1 4.35 1.05 4 1 C 3.65 0.95 3.45 0.95 3.25 0.75 C 3.05 0.55 2.85 0.15 3 0 " fill = "rgb(254, 254, 254)" stroke = "rgb(254, 254, 254)" stroke-width = "0"/>
    <path d="M 12 0 C 12.2 -0.2 12.8 -0.2 13 0 C 13.2 0.2 13.2 0.8 13 1 C 12.8 1.2 12.2 1.2 12 1 C 11.8 0.8 11.8 0.2 12 0 " fill = "rgb(254, 254, 254)" stroke = "rgb(254, 254, 254)" stroke-width = "0"/>
    <path d="M 13 0 C 13.2 -0.2 13.8 -0.2 14 0 C 14.2 0.2 14.2 0.8 14 1 C 13.8 1.2 13.2 1.2 13 1 C 12.8 0.8 12.8 0.2 13 0 " fill = "rgb(255, 255, 254)" stroke = "rgb(255, 255, 254)" stroke-width = "0"/>
    <path d="M 19 0 C 19.15 -0.15 19.6 -3.49691e-08 20 0 C 20.4 0 20.6 -3.49691e-08 21 0 C 21.4 0 21.6 -3.49691e-08 22 0 C 22.4 0 22.85 -0.15 23 0 C 23.15 0.15 22.95 0.55 22.75 0.75 C 22.55 0.95 22.35 0.95 22 1 C 21.65 1.05 21.4 1 21 1 C 20.6 1 20.35 1.05 20 1 C 19.65 0.95 19.45 0.95 19.25 0.75 C 19.05 0.55 18.85 0.15 19 0 " fill = "rgb(254, 254, 254)" stroke = "rgb(254, 254, 254)" stroke-width = "0"/>
    <path d="M 7.25 1.25 C 7.45 1.05 7.85 0.85 8 1 C 8.15 1.15 8.2 1.8 8 2 C 7.8 2.2 7.15 2.15 7 2 C 6.85 1.85 7.05 1.45 7.25 1.25 " fill = "rgb(238, 238, 239)" stroke = "rgb(238, 238, 239)" stroke-width = "0"/>
    <path d="M 8 1 C 8.2 0.8 8.6 1 9 1 C 9.4 1 9.8 0.8 10 1 C 10.2 1.2 10.2 1.8 10 2 C 9.8 2.2 9.4 2 9 2 C 8.6 2 8.2 2.2 8 2 C 7.8 1.8 7.8 1.2 8 1 " fill = "rgb(233, 233, 234)" stroke = "rgb(233, 233, 234)" stroke-width = "0"/>
    <path d="M 10 1 C 10.2 0.8 10.8 0.8 11 1 C 11.2 1.2 11.2 1.8 11 2 C 10.8 2.2 10.2 2.2 10 2 C 9.8 1.8 9.8 1.2 10 1 " fill = "rgb(232, 232, 234)" stroke = "rgb(232, 232, 234)" stroke-width = "0"/>
    <path d="M 11 1 C 11.2 0.8 11.8 0.8 12 1 C 12.2 1.2 12.2 1.8 12 2 C 11.8 2.2 11.2 2.2 11 2 C 10.8 1.8 10.8 1.2 11 1 " fill = "rgb(248, 248, 248)" stroke = "rgb(248, 248, 248)" stroke-width = "0"/>
    <path d="M 12 1 C 12.2 0.8 12.8 0.8 13 1 C 13.2 1.2 13 1.6 13 2 C 13 2.4 13.2 2.8 13 3 C 12.8 3.2 12.2 3.2 12 3 C 11.8 2.8 12 2.4 12 2 C 12 1.6 11.8 1.2 12 1 " fill = "rgb(255, 255, 255)" stroke = "rgb(255, 255, 255)" stroke-width = "0"/>
    <path d="M 13 1 C 13.2 0.8 13.8 0.8 14 1 C 14.2 1.2 14.2 1.8 14 2 C 13.8 2.2 13.2 2.2 13 2 C 12.8 1.8 12.8 1.2 13 1 " fill = "rgb(253, 253, 253)" stroke = "rgb(253, 253, 253)" stroke-width = "0"/>
    <path d="M 14 1 C 14.2 0.8 14.8 0.8 15 1 C 15.2 1.2 15.2 1.8 15 2 C 14.8 2.2 14.2 2.2 14 2 C 13.8 1.8 13.8 1.2 14 1 " fill = "rgb(235, 235, 237)" stroke = "rgb(235, 235, 237)" stroke-width = "0"/>
    <path d="M 15 1 C 15.2 0.8 15.6 1 16 1 C 16.4 1 16.6 1 17 1 C 17.4 1 17.8 0.8 18 1 C 18.2 1.2 18.2 1.8 18 2 C 17.8 2.2 17.4 2 17 2 C 16.6 2 16.4 2 16 2 C 15.6 2 15.2 2.2 15 2 C 14.8 1.8 14.8 1.2 15 1 " fill = "rgb(233, 233, 234)" stroke = "rgb(233, 233, 234)" stroke-width = "0"/>
    <path d="M 18 1 C 18.15 0.85 18.55 1.05 18.75 1.25 C 18.95 1.45 19.15 1.85 19 2 C 18.85 2.15 18.2 2.2 18 2 C 17.8 1.8 17.85 1.15 18 1 " fill = "rgb(251, 251, 251)" stroke = "rgb(251, 251, 251)" stroke-width = "0"/>
    <path d="M 7 2 C 7.2 1.8 7.8 1.8 8 2 C 8.2 2.2 8.2 2.8 8 3 C 7.8 3.2 7.2 3.2 7 3 C 6.8 2.8 6.8 2.2 7 2 " fill = "rgb(164, 164, 170)" stroke = "rgb(164, 164, 170)" stroke-width = "0"/>
    <path d="M 8 2 C 8.2 1.8 8.8 1.8 9 2 C 9.2 2.2 9.2 2.8 9 3 C 8.8 3.2 8.2 3.2 8 3 C 7.8 2.8 7.8 2.2 8 2 " fill = "rgb(129, 129, 137)" stroke = "rgb(129, 129, 137)" stroke-width = "0"/>
    <path d="M 9 2 C 9.2 1.8 9.8 1.8 10 2 C 10.2 2.2 10.2 2.8 10 3 C 9.8 3.2 9.2 3.2 9 3 C 8.8 2.8 8.8 2.2 9 2 " fill = "rgb(129, 129, 138)" stroke = "rgb(129, 129, 138)" stroke-width = "0"/>
    <path d="M 10 2 C 10.2 1.8 10.8 1.8 11 2 C 11.2 2.2 11.2 2.8 11 3 C 10.8 3.2 10.2 3.2 10 3 C 9.8 2.8 9.8 2.2 10 2 " fill = "rgb(125, 125, 134)" stroke = "rgb(125, 125, 134)" stroke-width = "0"/>
    <path d="M 11 2 C 11.2 1.8 11.8 1.8 12 2 C 12.2 2.2 12.2 2.8 12 3 C 11.8 3.2 11.2 3.2 11 3 C 10.8 2.8 10.8 2.2 11 2 " fill = "rgb(215, 215, 217)" stroke = "rgb(215, 215, 217)" stroke-width = "0"/>
    <path d="M 13 2 C 13.2 1.8 13.8 1.8 14 2 C 14.2 2.2 14.2 2.8 14 3 C 13.8 3.2 13.2 3.2 13 3 C 12.8 2.8 12.8 2.2 13 2 " fill = "rgb(246, 246, 246)" stroke = "rgb(246, 246, 246)" stroke-width = "0"/>
    <path d="M 14 2 C 14.2 1.8 14.8 1.8 15 2 C 15.2 2.2 15.2 2.8 15 3 C 14.8 3.2 14.2 3.2 14 3 C 13.8 2.8 13.8 2.2 14 2 " fill = "rgb(145, 145, 152)" stroke = "rgb(145, 145, 152)" stroke-width = "0"/>
    <path d="M 15 2 C 15.2 1.8 15.8 1.8 16 2 C 16.2 2.2 16.2 2.8 16 3 C 15.8 3.2 15.2 3.2 15 3 C 14.8 2.8 14.8 2.2 15 2 " fill = "rgb(128, 128, 137)" stroke = "rgb(128, 128, 137)" stroke-width = "0"/>
    <path d="M 16 2 C 16.2 1.8 16.8 1.8 17 2 C 17.2 2.2 17.2 2.8 17 3 C 16.8 3.2 16.2 3.2 16 3 C 15.8 2.8 15.8 2.2 16 2 " fill = "rgb(130, 130, 138)" stroke = "rgb(130, 130, 138)" stroke-width = "0"/>
    <path d="M 17 2 C 17.2 1.8 17.8 1.8 18 2 C 18.2 2.2 18.2 2.8 18 3 C 17.8 3.2 17.2 3.2 17 3 C 16.8 2.8 16.8 2.2 17 2 " fill = "rgb(133, 133, 141)" stroke = "rgb(133, 133, 141)" stroke-width = "0"/>
    <path d="M 18 2 C 18.2 1.8 18.8 1.8 19 2 C 19.2 2.2 19.2 2.8 19 3 C 18.8 3.2 18.2 3.2 18 3 C 17.8 2.8 17.8 2.2 18 2 " fill = "rgb(235, 235, 236)" stroke = "rgb(235, 235, 236)" stroke-width = "0"/>
    <path d="M 5.25 3.25 C 5.45 3.05 5.85 2.85 6 3 C 6.15 3.15 6.2 3.8 6 4 C 5.8 4.2 5.15 4.15 5 4 C 4.85 3.85 5.05 3.45 5.25 3.25 " fill = "rgb(234, 234, 235)" stroke = "rgb(234, 234, 235)" stroke-width = "0"/>
    <path d="M 6 3 C 6.2 2.8 6.8 2.8 7 3 C 7.2 3.2 7.2 3.8 7 4 C 6.8 4.2 6.2 4.2 6 4 C 5.8 3.8 5.8 3.2 6 3 " fill = "rgb(160, 160, 166)" stroke = "rgb(160, 160, 166)" stroke-width = "0"/>
    <path d="M 7 3 C 7.2 2.8 7.8 2.8 8 3 C 8.2 3.2 8.2 3.8 8 4 C 7.8 4.2 7.2 4.2 7 4 C 6.8 3.8 6.8 3.2 7 3 " fill = "rgb(178, 178, 191)" stroke = "rgb(178, 178, 191)" stroke-width = "0"/>
    <path d="M 8 3 C 8.2 2.8 8.8 2.8 9 3 C 9.2 3.2 9.2 3.8 9 4 C 8.8 4.2 8.2 4.2 8 4 C 7.8 3.8 7.8 3.2 8 3 " fill = "rgb(206, 206, 216)" stroke = "rgb(206, 206, 216)" stroke-width = "0"/>
    <path d="M 9 3 C 9.2 2.8 9.6 3 10 3 C 10.4 3 10.8 2.8 11 3 C 11.2 3.2 11.2 3.8 11 4 C 10.8 4.2 10.4 4 10 4 C 9.6 4 9.2 4.2 9 4 C 8.8 3.8 8.8 3.2 9 3 " fill = "rgb(235, 235, 236)" stroke = "rgb(235, 235, 236)" stroke-width = "0"/>
    <path d="M 11 3 C 11.2 2.8 11.8 2.8 12 3 C 12.2 3.2 12.2 3.8 12 4 C 11.8 4.2 11.2 4.2 11 4 C 10.8 3.8 10.8 3.2 11 3 " fill = "rgb(218, 218, 228)" stroke = "rgb(218, 218, 228)" stroke-width = "0"/>
    <path d="M 12 3 C 12.2 2.8 12.8 2.8 13 3 C 13.2 3.2 13.2 3.8 13 4 C 12.8 4.2 12.2 4.2 12 4 C 11.8 3.8 11.8 3.2 12 3 " fill = "rgb(209, 209, 223)" stroke = "rgb(209, 209, 223)" stroke-width = "0"/>
    <path d="M 13 3 C 13.2 2.8 13.8 2.8 14 3 C 14.2 3.2 14.2 3.8 14 4 C 13.8 4.2 13.2 4.2 13 4 C 12.8 3.8 12.8 3.2 13 3 " fill = "rgb(212, 212, 225)" stroke = "rgb(212, 212, 225)" stroke-width = "0"/>
    <path d="M 14 3 C 14.2 2.8 14.8 2.8 15 3 C 15.2 3.2 15.2 3.8 15 4 C 14.8 4.2 14.2 4.2 14 4 C 13.8 3.8 13.8 3.2 14 3 " fill = "rgb(231, 231, 234)" stroke = "rgb(231, 231, 234)" stroke-width = "0"/>
    <path d="M 15 3 C 15.2 2.8 15.8 2.8 16 3 C 16.2 3.2 16.2 3.8 16 4 C 15.8 4.2 15.2 4.2 15 4 C 14.8 3.8 14.8 3.2 15 3 " fill = "rgb(235, 235, 235)" stroke = "rgb(235, 235, 235)" stroke-width = "0"/>
    <path d="M 16 3 C 16.2 2.8 16.8 2.8 17 3 C 17.2 3.2 17.2 3.8 17 4 C 16.8 4.2 16.2 4.2 16 4 C 15.8 3.8 15.8 3.2 16 3 " fill = "rgb(219, 219, 224)" stroke = "rgb(219, 219, 224)" stroke-width = "0"/>
    <path d="M 17 3 C 17.2 2.8 17.8 2.8 18 3 C 18.2 3.2 18.2 3.8 18 4 C 17.8 4.2 17.2 4.2 17 4 C 16.8 3.8 16.8 3.2 17 3 " fill = "rgb(182, 182, 198)" stroke = "rgb(182, 182, 198)" stroke-width = "0"/>
    <path d="M 18 3 C 18.2 2.8 18.8 2.8 19 3 C 19.2 3.2 19.2 3.8 19 4 C 18.8 4.2 18.2 4.2 18 4 C 17.8 3.8 17.8 3.2 18 3 " fill = "rgb(165, 165, 174)" stroke = "rgb(165, 165, 174)" stroke-width = "0"/>
    <path d="M 19 3 C 19.15 2.85 19.55 3.05 19.75 3.25 C 19.95 3.45 20.15 3.85 20 4 C 19.85 4.15 19.2 4.2 19 4 C 18.8 3.8 18.85 3.15 19 3 " fill = "rgb(210, 210, 213)" stroke = "rgb(210, 210, 213)" stroke-width = "0"/>
    <path d="M 5 4 C 5.2 3.8 5.8 3.8 6 4 C 6.2 4.2 6.2 4.8 6 5 C 5.8 5.2 5.2 5.2 5 5 C 4.8 4.8 4.8 4.2 5 4 " fill = "rgb(216, 216, 219)" stroke = "rgb(216, 216, 219)" stroke-width = "0"/>
    <path d="M 6 4 C 6.2 3.8 6.8 3.8 7 4 C 7.2 4.2 7.2 4.8 7 5 C 6.8 5.2 6.2 5.2 6 5 C 5.8 4.8 5.8 4.2 6 4 " fill = "rgb(77, 77, 91)" stroke = "rgb(77, 77, 91)" stroke-width = "0"/>
    <path d="M 7 4 C 7.2 3.8 7.8 3.8 8 4 C 8.2 4.2 8.2 4.8 8 5 C 7.8 5.2 7.2 5.2 7 5 C 6.8 4.8 6.8 4.2 7 4 " fill = "rgb(196, 196, 205)" stroke = "rgb(196, 196, 205)" stroke-width = "0"/>
    <path d="M 8 4 C 8.2 3.8 8.8 3.8 9 4 C 9.2 4.2 9.2 4.8 9 5 C 8.8 5.2 8.2 5.2 8 5 C 7.8 4.8 7.8 4.2 8 4 " fill = "rgb(248, 248, 252)" stroke = "rgb(248, 248, 252)" stroke-width = "0"/>
    <path d="M 9 4 C 9.2 3.8 9.8 3.8 10 4 C 10.2 4.2 10.2 4.8 10 5 C 9.8 5.2 9.2 5.2 9 5 C 8.8 4.8 8.8 4.2 9 4 " fill = "rgb(255, 255, 255)" stroke = "rgb(255, 255, 255)" stroke-width = "0"/>
    <path d="M 10 4 C 10.2 3.8 10.8 3.8 11 4 C 11.2 4.2 11.2 4.8 11 5 C 10.8 5.2 10.2 5.2 10 5 C 9.8 4.8 9.8 4.2 10 4 " fill = "rgb(229, 229, 238)" stroke = "rgb(229, 229, 238)" stroke-width = "0"/>
    <path d="M 11 4 C 11.2 3.8 11.8 3.8 12 4 C 12.2 4.2 12.2 4.8 12 5 C 11.8 5.2 11.2 5.2 11 5 C 10.8 4.8 10.8 4.2 11 4 " fill = "rgb(183, 183, 194)" stroke = "rgb(183, 183, 194)" stroke-width = "0"/>
    <path d="M 12 4 C 12.2 3.8 12.8 3.8 13 4 C 13.2 4.2 13.2 4.8 13 5 C 12.8 5.2 12.2 5.2 12 5 C 11.8 4.8 11.8 4.2 12 4 " fill = "rgb(161, 161, 173)" stroke = "rgb(161, 161, 173)" stroke-width = "0"/>
    <path d="M 13 4 C 13.2 3.8 13.8 3.8 14 4 C 14.2 4.2 14.2 4.8 14 5 C 13.8 5.2 13.2 5.2 13 5 C 12.8 4.8 12.8 4.2 13 4 " fill = "rgb(168, 168, 180)" stroke = "rgb(168, 168, 180)" stroke-width = "0"/>
    <path d="M 14 4 C 14.2 3.8 14.8 3.8 15 4 C 15.2 4.2 15.2 4.8 15 5 C 14.8 5.2 14.2 5.2 14 5 C 13.8 4.8 13.8 4.2 14 4 " fill = "rgb(216, 216, 226)" stroke = "rgb(216, 216, 226)" stroke-width = "0"/>
    <path d="M 15 4 C 15.2 3.8 15.8 3.8 16 4 C 16.2 4.2 16.2 4.8 16 5 C 15.8 5.2 15.2 5.2 15 5 C 14.8 4.8 14.8 4.2 15 4 " fill = "rgb(247, 247, 250)" stroke = "rgb(247, 247, 250)" stroke-width = "0"/>
    <path d="M 16 4 C 16.2 3.8 16.8 3.8 17 4 C 17.2 4.2 17.2 4.8 17 5 C 16.8 5.2 16.2 5.2 16 5 C 15.8 4.8 15.8 4.2 16 4 " fill = "rgb(253, 253, 255)" stroke = "rgb(253, 253, 255)" stroke-width = "0"/>
    <path d="M 17 4 C 17.2 3.8 17.8 3.8 18 4 C 18.2 4.2 18.2 4.8 18 5 C 17.8 5.2 17.2 5.2 17 5 C 16.8 4.8 16.8 4.2 17 4 " fill = "rgb(231, 231, 239)" stroke = "rgb(231, 231, 239)" stroke-width = "0"/>
    <path d="M 18 4 C 18.2 3.8 18.8 3.8 19 4 C 19.2 4.2 19.2 4.8 19 5 C 18.8 5.2 18.2 5.2 18 5 C 17.8 4.8 17.8 4.2 18 4 " fill = "rgb(112, 112, 124)" stroke = "rgb(112, 112, 124)" stroke-width = "0"/>
    <path d="M 19 4 C 19.2 3.8 19.8 3.8 20 4 C 20.2 4.2 20.2 4.8 20 5 C 19.8 5.2 19.2 5.2 19 5 C 18.8 4.8 18.8 4.2 19 4 " fill = "rgb(172, 172, 178)" stroke = "rgb(172, 172, 178)" stroke-width = "0"/>
    <path d="M 5 5 C 5.15 4.85 5.8 4.8 6 5 C 6.2 5.2 6.15 5.85 6 6 C 5.85 6.15 5.45 5.95 5.25 5.75 C 5.05 5.55 4.85 5.15 5 5 " fill = "rgb(223, 223, 225)" stroke = "rgb(223, 223, 225)" stroke-width = "0"/>
    <path d="M 6 5 C 6.2 4.8 6.8 4.8 7 5 C 7.2 5.2 7.2 5.8 7 6 C 6.8 6.2 6.2 6.2 6 6 C 5.8 5.8 5.8 5.2 6 5 " fill = "rgb(110, 110, 122)" stroke = "rgb(110, 110, 122)" stroke-width = "0"/>
    <path d="M 7 5 C 7.2 4.8 7.8 4.8 8 5 C 8.2 5.2 8.2 5.8 8 6 C 7.8 6.2 7.2 6.2 7 6 C 6.8 5.8 6.8 5.2 7 5 " fill = "rgb(174, 174, 180)" stroke = "rgb(174, 174, 180)" stroke-width = "0"/>
    <path d="M 8 5 C 8.2 4.8 8.8 4.8 9 5 C 9.2 5.2 9.2 5.8 9 6 C 8.8 6.2 8.2 6.2 8 6 C 7.8 5.8 7.8 5.2 8 5 " fill = "rgb(194, 194, 199)" stroke = "rgb(194, 194, 199)" stroke-width = "0"/>
    <path d="M 9 5 C 9.2 4.8 9.8 4.8 10 5 C 10.2 5.2 10.2 5.8 10 6 C 9.8 6.2 9.2 6.2 9 6 C 8.8 5.8 8.8 5.2 9 5 " fill = "rgb(190, 190, 197)" stroke = "rgb(190, 190, 197)" stroke-width = "0"/>
    <path d="M 10 5 C 10.2 4.8 10.8 4.8 11 5 C 11.2 5.2 11.2 5.8 11 6 C 10.8 6.2 10.2 6.2 10 6 C 9.8 5.8 9.8 5.2 10 5 " fill = "rgb(179, 179, 193)" stroke = "rgb(179, 179, 193)" stroke-width = "0"/>
    <path d="M 11 5 C 11.2 4.8 11.8 4.8 12 5 C 12.2 5.2 12.2 5.8 12 6 C 11.8 6.2 11.2 6.2 11 6 C 10.8 5.8 10.8 5.2 11 5 " fill = "rgb(163, 163, 175)" stroke = "rgb(163, 163, 175)" stroke-width = "0"/>
    <path d="M 12 5 C 12.2 4.8 12.8 4.8 13 5 C 13.2 5.2 13.2 5.8 13 6 C 12.8 6.2 12.2 6.2 12 6 C 11.8 5.8 11.8 5.2 12 5 " fill = "rgb(155, 155, 166)" stroke = "rgb(155, 155, 166)" stroke-width = "0"/>
    <path d="M 13 5 C 13.2 4.8 13.8 4.8 14 5 C 14.2 5.2 14.2 5.8 14 6 C 13.8 6.2 13.2 6.2 13 6 C 12.8 5.8 12.8 5.2 13 5 " fill = "rgb(158, 158, 169)" stroke = "rgb(158, 158, 169)" stroke-width = "0"/>
    <path d="M 14 5 C 14.2 4.8 14.8 4.8 15 5 C 15.2 5.2 15.2 5.8 15 6 C 14.8 6.2 14.2 6.2 14 6 C 13.8 5.8 13.8 5.2 14 5 " fill = "rgb(174, 174, 188)" stroke = "rgb(174, 174, 188)" stroke-width = "0"/>
    <path d="M 15 5 C 15.2 4.8 15.8 4.8 16 5 C 16.2 5.2 16.2 5.8 16 6 C 15.8 6.2 15.2 6.2 15 6 C 14.8 5.8 14.8 5.2 15 5 " fill = "rgb(187, 187, 196)" stroke = "rgb(187, 187, 196)" stroke-width = "0"/>
    <path d="M 16 5 C 16.2 4.8 16.8 4.8 17 5 C 17.2 5.2 17.2 5.8 17 6 C 16.8 6.2 16.2 6.2 16 6 C 15.8 5.8 15.8 5.2 16 5 " fill = "rgb(194, 194, 198)" stroke = "rgb(194, 194, 198)" stroke-width = "0"/>
    <path d="M 17 5 C 17.2 4.8 17.8 4.8 18 5 C 18.2 5.2 18.2 5.8 18 6 C 17.8 6.2 17.2 6.2 17 6 C 16.8 5.8 16.8 5.2 17 5 " fill = "rgb(192, 192, 197)" stroke = "rgb(192, 192, 197)" stroke-width = "0"/>
    <path d="M 18 5 C 18.2 4.8 18.8 4.8 19 5 C 19.2 5.2 19.2 5.8 19 6 C 18.8 6.2 18.2 6.2 18 6 C 17.8 5.8 17.8 5.2 18 5 " fill = "rgb(128, 128, 138)" stroke = "rgb(128, 128, 138)" stroke-width = "0"/>
    <path d="M 19 5 C 19.2 4.8 19.85 4.85 20 5 C 20.15 5.15 19.95 5.55 19.75 5.75 C 19.55 5.95 19.15 6.15 19 6 C 18.85 5.85 18.8 5.2 19 5 " fill = "rgb(187, 187, 192)" stroke = "rgb(187, 187, 192)" stroke-width = "0"/>
    <path d="M 7 6 C 7.2 5.8 7.8 5.8 8 6 C 8.2 6.2 8.2 6.8 8 7 C 7.8 7.2 7.2 7.2 7 7 C 6.8 6.8 6.8 6.2 7 6 " fill = "rgb(115, 115, 126)" stroke = "rgb(115, 115, 126)" stroke-width = "0"/>
    <path d="M 8 6 C 8.2 5.8 8.8 5.8 9 6 C 9.2 6.2 9.2 6.8 9 7 C 8.8 7.2 8.2 7.2 8 7 C 7.8 6.8 7.8 6.2 8 6 " fill = "rgb(54, 54, 70)" stroke = "rgb(54, 54, 70)" stroke-width = "0"/>
    <path d="M 9 6 C 9.2 5.8 9.8 5.8 10 6 C 10.2 6.2 10.2 6.8 10 7 C 9.8 7.2 9.2 7.2 9 7 C 8.8 6.8 8.8 6.2 9 6 " fill = "rgb(64, 64, 79)" stroke = "rgb(64, 64, 79)" stroke-width = "0"/>
    <path d="M 10 6 C 10.2 5.8 10.8 5.8 11 6 C 11.2 6.2 11.2 6.8 11 7 C 10.8 7.2 10.2 7.2 10 7 C 9.8 6.8 9.8 6.2 10 6 " fill = "rgb(135, 135, 144)" stroke = "rgb(135, 135, 144)" stroke-width = "0"/>
    <path d="M 11 6 C 11.2 5.8 11.8 5.8 12 6 C 12.2 6.2 12.2 6.8 12 7 C 11.8 7.2 11.2 7.2 11 7 C 10.8 6.8 10.8 6.2 11 6 " fill = "rgb(180, 180, 195)" stroke = "rgb(180, 180, 195)" stroke-width = "0"/>
    <path d="M 12 6 C 12.2 5.8 12.8 5.8 13 6 C 13.2 6.2 13.2 6.8 13 7 C 12.8 7.2 12.2 7.2 12 7 C 11.8 6.8 11.8 6.2 12 6 " fill = "rgb(200, 200, 218)" stroke = "rgb(200, 200, 218)" stroke-width = "0"/>
    <path d="M 13 6 C 13.2 5.8 13.8 5.8 14 6 C 14.2 6.2 14.2 6.8 14 7 C 13.8 7.2 13.2 7.2 13 7 C 12.8 6.8 12.8 6.2 13 6 " fill = "rgb(194, 194, 211)" stroke = "rgb(194, 194, 211)" stroke-width = "0"/>
    <path d="M 14 6 C 14.2 5.8 14.8 5.8 15 6 C 15.2 6.2 15.2 6.8 15 7 C 14.8 7.2 14.2 7.2 14 7 C 13.8 6.8 13.8 6.2 14 6 " fill = "rgb(151, 151, 161)" stroke = "rgb(151, 151, 161)" stroke-width = "0"/>
    <path d="M 15 6 C 15.2 5.8 15.8 5.8 16 6 C 16.2 6.2 16.2 6.8 16 7 C 15.8 7.2 15.2 7.2 15 7 C 14.8 6.8 14.8 6.2 15 6 " fill = "rgb(87, 87, 100)" stroke = "rgb(87, 87, 100)" stroke-width = "0"/>
    <path d="M 16 6 C 16.2 5.8 16.8 5.8 17 6 C 17.2 6.2 17.2 6.8 17 7 C 16.8 7.2 16.2 7.2 16 7 C 15.8 6.8 15.8 6.2 16 6 " fill = "rgb(51, 51, 68)" stroke = "rgb(51, 51, 68)" stroke-width = "0"/>
    <path d="M 17 6 C 17.2 5.8 17.8 5.8 18 6 C 18.2 6.2 18.2 6.8 18 7 C 17.8 7.2 17.2 7.2 17 7 C 16.8 6.8 16.8 6.2 17 6 " fill = "rgb(67, 67, 82)" stroke = "rgb(67, 67, 82)" stroke-width = "0"/>
    <path d="M 18 6 C 18.2 5.8 18.8 5.8 19 6 C 19.2 6.2 19.2 6.8 19 7 C 18.8 7.2 18.2 7.2 18 7 C 17.8 6.8 17.8 6.2 18 6 " fill = "rgb(223, 223, 226)" stroke = "rgb(223, 223, 226)" stroke-width = "0"/>
    <path d="M 7 7 C 7.2 6.8 7.8 6.8 8 7 C 8.2 7.2 8.2 7.8 8 8 C 7.8 8.2 7.2 8.2 7 8 C 6.8 7.8 6.8 7.2 7 7 " fill = "rgb(254, 254, 254)" stroke = "rgb(254, 254, 254)" stroke-width = "0"/>
    <path d="M 8 7 C 8.2 6.8 8.8 6.8 9 7 C 9.2 7.2 9.2 7.8 9 8 C 8.8 8.2 8.2 8.2 8 8 C 7.8 7.8 7.8 7.2 8 7 " fill = "rgb(158, 158, 166)" stroke = "rgb(158, 158, 166)" stroke-width = "0"/>
    <path d="M 9 7 C 9.2 6.8 9.8 6.8 10 7 C 10.2 7.2 10.2 7.8 10 8 C 9.8 8.2 9.2 8.2 9 8 C 8.8 7.8 8.8 7.2 9 7 " fill = "rgb(69, 69, 86)" stroke = "rgb(69, 69, 86)" stroke-width = "0"/>
    <path d="M 10 7 C 10.2 6.8 10.8 6.8 11 7 C 11.2 7.2 11.2 7.8 11 8 C 10.8 8.2 10.2 8.2 10 8 C 9.8 7.8 9.8 7.2 10 7 " fill = "rgb(188, 188, 204)" stroke = "rgb(188, 188, 204)" stroke-width = "0"/>
    <path d="M 11 7 C 11.2 6.8 11.8 6.8 12 7 C 12.2 7.2 12.2 7.8 12 8 C 11.8 8.2 11.2 8.2 11 8 C 10.8 7.8 10.8 7.2 11 7 " fill = "rgb(198, 198, 215)" stroke = "rgb(198, 198, 215)" stroke-width = "0"/>
    <path d="M 12 7 C 12.2 6.8 12.6 7 13 7 C 13.4 7 13.8 6.8 14 7 C 14.2 7.2 14.2 7.8 14 8 C 13.8 8.2 13.4 8 13 8 C 12.6 8 12.2 8.2 12 8 C 11.8 7.8 11.8 7.2 12 7 " fill = "rgb(199, 199, 216)" stroke = "rgb(199, 199, 216)" stroke-width = "0"/>
    <path d="M 14 7 C 14.2 6.8 14.8 6.8 15 7 C 15.2 7.2 15.2 7.8 15 8 C 14.8 8.2 14.2 8.2 14 8 C 13.8 7.8 13.8 7.2 14 7 " fill = "rgb(200, 200, 216)" stroke = "rgb(200, 200, 216)" stroke-width = "0"/>
    <path d="M 15 7 C 15.2 6.8 15.8 6.8 16 7 C 16.2 7.2 16.2 7.8 16 8 C 15.8 8.2 15.2 8.2 15 8 C 14.8 7.8 14.8 7.2 15 7 " fill = "rgb(107, 107, 124)" stroke = "rgb(107, 107, 124)" stroke-width = "0"/>
    <path d="M 16 7 C 16.2 6.8 16.8 6.8 17 7 C 17.2 7.2 17.2 7.8 17 8 C 16.8 8.2 16.2 8.2 16 8 C 15.8 7.8 15.8 7.2 16 7 " fill = "rgb(106, 106, 118)" stroke = "rgb(106, 106, 118)" stroke-width = "0"/>
    <path d="M 17 7 C 17.2 6.8 17.6 7 18 7 C 18.4 7 18.8 6.8 19 7 C 19.2 7.2 19.2 7.8 19 8 C 18.8 8.2 18.4 8 18 8 C 17.6 8 17.2 8.2 17 8 C 16.8 7.8 16.8 7.2 17 7 " fill = "rgb(254, 254, 254)" stroke = "rgb(254, 254, 254)" stroke-width = "0"/>
    <path d="M 7 8 C 7.2 7.8 7.8 7.8 8 8 C 8.2 8.2 8.2 8.8 8 9 C 7.8 9.2 7.2 9.2 7 9 C 6.8 8.8 6.8 8.2 7 8 " fill = "rgb(153, 153, 161)" stroke = "rgb(153, 153, 161)" stroke-width = "0"/>
    <path d="M 8 8 C 8.2 7.8 8.8 7.8 9 8 C 9.2 8.2 9.2 8.8 9 9 C 8.8 9.2 8.2 9.2 8 9 C 7.8 8.8 7.8 8.2 8 8 " fill = "rgb(133, 133, 147)" stroke = "rgb(133, 133, 147)" stroke-width = "0"/>
    <path d="M 9 8 C 9.2 7.8 9.8 7.8 10 8 C 10.2 8.2 10.2 8.8 10 9 C 9.8 9.2 9.2 9.2 9 9 C 8.8 8.8 8.8 8.2 9 8 " fill = "rgb(155, 155, 171)" stroke = "rgb(155, 155, 171)" stroke-width = "0"/>
    <path d="M 10 8 C 10.2 7.8 10.8 7.8 11 8 C 11.2 8.2 11.2 8.8 11 9 C 10.8 9.2 10.2 9.2 10 9 C 9.8 8.8 9.8 8.2 10 8 " fill = "rgb(157, 157, 168)" stroke = "rgb(157, 157, 168)" stroke-width = "0"/>
    <path d="M 11 8 C 11.2 7.8 11.6 8 12 8 C 12.4 8 12.6 8 13 8 C 13.4 8 13.8 7.8 14 8 C 14.2 8.2 14.2 8.8 14 9 C 13.8 9.2 13.4 9 13 9 C 12.6 9 12.4 9 12 9 C 11.6 9 11.2 9.2 11 9 C 10.8 8.8 10.8 8.2 11 8 " fill = "rgb(156, 156, 167)" stroke = "rgb(156, 156, 167)" stroke-width = "0"/>
    <path d="M 14 8 C 14.2 7.8 14.8 7.8 15 8 C 15.2 8.2 15.2 8.8 15 9 C 14.8 9.2 14.2 9.2 14 9 C 13.8 8.8 13.8 8.2 14 8 " fill = "rgb(157, 157, 167)" stroke = "rgb(157, 157, 167)" stroke-width = "0"/>
    <path d="M 15 8 C 15.2 7.8 15.8 7.8 16 8 C 16.2 8.2 16.2 8.8 16 9 C 15.8 9.2 15.2 9.2 15 9 C 14.8 8.8 14.8 8.2 15 8 " fill = "rgb(156, 156, 170)" stroke = "rgb(156, 156, 170)" stroke-width = "0"/>
    <path d="M 16 8 C 16.2 7.8 16.8 7.8 17 8 C 17.2 8.2 17.2 8.8 17 9 C 16.8 9.2 16.2 9.2 16 9 C 15.8 8.8 15.8 8.2 16 8 " fill = "rgb(143, 143, 159)" stroke = "rgb(143, 143, 159)" stroke-width = "0"/>
    <path d="M 17 8 C 17.2 7.8 17.8 7.8 18 8 C 18.2 8.2 18.2 8.8 18 9 C 17.8 9.2 17.2 9.2 17 9 C 16.8 8.8 16.8 8.2 17 8 " fill = "rgb(119, 119, 130)" stroke = "rgb(119, 119, 130)" stroke-width = "0"/>
    <path d="M 18 8 C 18.2 7.8 18.8 7.8 19 8 C 19.2 8.2 19.2 8.8 19 9 C 18.8 9.2 18.2 9.2 18 9 C 17.8 8.8 17.8 8.2 18 8 " fill = "rgb(228, 228, 230)" stroke = "rgb(228, 228, 230)" stroke-width = "0"/>
    <path d="M 7 9 C 7.2 8.8 7.8 8.8 8 9 C 8.2 9.2 8.2 9.8 8 10 C 7.8 10.2 7.2 10.2 7 10 C 6.8 9.8 6.8 9.2 7 9 " fill = "rgb(129, 129, 139)" stroke = "rgb(129, 129, 139)" stroke-width = "0"/>
    <path d="M 8 9 C 8.2 8.8 8.8 8.8 9 9 C 9.2 9.2 9.2 9.8 9 10 C 8.8 10.2 8.2 10.2 8 10 C 7.8 9.8 7.8 9.2 8 9 " fill = "rgb(124, 124, 137)" stroke = "rgb(124, 124, 137)" stroke-width = "0"/>
    <path d="M 9 9 C 9.2 8.8 9.8 8.8 10 9 C 10.2 9.2 10.2 9.8 10 10 C 9.8 10.2 9.2 10.2 9 10 C 8.8 9.8 8.8 9.2 9 9 " fill = "rgb(174, 174, 187)" stroke = "rgb(174, 174, 187)" stroke-width = "0"/>
    <path d="M 10 9 C 10.2 8.8 10.6 9 11 9 C 11.4 9 11.8 8.8 12 9 C 12.2 9.2 12.2 9.8 12 10 C 11.8 10.2 11.4 10 11 10 C 10.6 10 10.2 10.2 10 10 C 9.8 9.8 9.8 9.2 10 9 " fill = "rgb(163, 163, 175)" stroke = "rgb(163, 163, 175)" stroke-width = "0"/>
    <path d="M 12 9 C 12.2 8.8 12.6 9 13 9 C 13.4 9 13.8 8.8 14 9 C 14.2 9.2 14.2 9.8 14 10 C 13.8 10.2 13.4 10 13 10 C 12.6 10 12.2 10.2 12 10 C 11.8 9.8 11.8 9.2 12 9 " fill = "rgb(164, 164, 176)" stroke = "rgb(164, 164, 176)" stroke-width = "0"/>
    <path d="M 14 9 C 14.2 8.8 14.8 8.8 15 9 C 15.2 9.2 15.2 9.8 15 10 C 14.8 10.2 14.2 10.2 14 10 C 13.8 9.8 13.8 9.2 14 9 " fill = "rgb(163, 163, 174)" stroke = "rgb(163, 163, 174)" stroke-width = "0"/>
    <path d="M 15 9 C 15.2 8.8 15.8 8.8 16 9 C 16.2 9.2 16.2 9.8 16 10 C 15.8 10.2 15.2 10.2 15 10 C 14.8 9.8 14.8 9.2 15 9 " fill = "rgb(170, 170, 183)" stroke = "rgb(170, 170, 183)" stroke-width = "0"/>
    <path d="M 16 9 C 16.2 8.8 16.8 8.8 17 9 C 17.2 9.2 17.2 9.8 17 10 C 16.8 10.2 16.2 10.2 16 10 C 15.8 9.8 15.8 9.2 16 9 " fill = "rgb(148, 148, 161)" stroke = "rgb(148, 148, 161)" stroke-width = "0"/>
    <path d="M 17 9 C 17.2 8.8 17.8 8.8 18 9 C 18.2 9.2 18.2 9.8 18 10 C 17.8 10.2 17.2 10.2 17 10 C 16.8 9.8 16.8 9.2 17 9 " fill = "rgb(87, 87, 100)" stroke = "rgb(87, 87, 100)" stroke-width = "0"/>
    <path d="M 18 9 C 18.2 8.8 18.8 8.8 19 9 C 19.2 9.2 19.2 9.8 19 10 C 18.8 10.2 18.2 10.2 18 10 C 17.8 9.8 17.8 9.2 18 9 " fill = "rgb(224, 224, 227)" stroke = "rgb(224, 224, 227)" stroke-width = "0"/>
    <path d="M 5.25 10.25 C 5.45 10.05 5.85 9.85 6 10 C 6.15 10.15 6.2 10.8 6 11 C 5.8 11.2 5.15 11.15 5 11 C 4.85 10.85 5.05 10.45 5.25 10.25 " fill = "rgb(246, 246, 247)" stroke = "rgb(246, 246, 247)" stroke-width = "0"/>
    <path d="M 6 10 C 6.2 9.8 6.8 9.8 7 10 C 7.2 10.2 7.2 10.8 7 11 C 6.8 11.2 6.2 11.2 6 11 C 5.8 10.8 5.8 10.2 6 10 " fill = "rgb(219, 219, 222)" stroke = "rgb(219, 219, 222)" stroke-width = "0"/>
    <path d="M 7 10 C 7.2 9.8 7.8 9.8 8 10 C 8.2 10.2 8.2 10.8 8 11 C 7.8 11.2 7.2 11.2 7 11 C 6.8 10.8 6.8 10.2 7 10 " fill = "rgb(169, 169, 177)" stroke = "rgb(169, 169, 177)" stroke-width = "0"/>
    <path d="M 8 10 C 8.2 9.8 8.8 9.8 9 10 C 9.2 10.2 9.2 10.8 9 11 C 8.8 11.2 8.2 11.2 8 11 C 7.8 10.8 7.8 10.2 8 10 " fill = "rgb(154, 154, 162)" stroke = "rgb(154, 154, 162)" stroke-width = "0"/>
    <path d="M 9 10 C 9.2 9.8 9.8 9.8 10 10 C 10.2 10.2 10.2 10.8 10 11 C 9.8 11.2 9.2 11.2 9 11 C 8.8 10.8 8.8 10.2 9 10 " fill = "rgb(168, 168, 175)" stroke = "rgb(168, 168, 175)" stroke-width = "0"/>
    <path d="M 10 10 C 10.2 9.8 10.8 9.8 11 10 C 11.2 10.2 11.2 10.8 11 11 C 10.8 11.2 10.2 11.2 10 11 C 9.8 10.8 9.8 10.2 10 10 " fill = "rgb(208, 208, 221)" stroke = "rgb(208, 208, 221)" stroke-width = "0"/>
    <path d="M 11 10 C 11.2 9.8 11.8 9.8 12 10 C 12.2 10.2 12.2 10.8 12 11 C 11.8 11.2 11.2 11.2 11 11 C 10.8 10.8 10.8 10.2 11 10 " fill = "rgb(195, 195, 210)" stroke = "rgb(195, 195, 210)" stroke-width = "0"/>
    <path d="M 12 10 C 12.2 9.8 12.8 9.8 13 10 C 13.2 10.2 13.2 10.8 13 11 C 12.8 11.2 12.2 11.2 12 11 C 11.8 10.8 11.8 10.2 12 10 " fill = "rgb(187, 187, 203)" stroke = "rgb(187, 187, 203)" stroke-width = "0"/>
    <path d="M 13 10 C 13.2 9.8 13.8 9.8 14 10 C 14.2 10.2 14.2 10.8 14 11 C 13.8 11.2 13.2 11.2 13 11 C 12.8 10.8 12.8 10.2 13 10 " fill = "rgb(190, 190, 205)" stroke = "rgb(190, 190, 205)" stroke-width = "0"/>
    <path d="M 14 10 C 14.2 9.8 14.8 9.8 15 10 C 15.2 10.2 15.2 10.8 15 11 C 14.8 11.2 14.2 11.2 14 11 C 13.8 10.8 13.8 10.2 14 10 " fill = "rgb(208, 208, 223)" stroke = "rgb(208, 208, 223)" stroke-width = "0"/>
    <path d="M 15 10 C 15.2 9.8 15.8 9.8 16 10 C 16.2 10.2 16.2 10.8 16 11 C 15.8 11.2 15.2 11.2 15 11 C 14.8 10.8 14.8 10.2 15 10 " fill = "rgb(180, 180, 189)" stroke = "rgb(180, 180, 189)" stroke-width = "0"/>
    <path d="M 16 10 C 16.2 9.8 16.8 9.8 17 10 C 17.2 10.2 17.2 10.8 17 11 C 16.8 11.2 16.2 11.2 16 11 C 15.8 10.8 15.8 10.2 16 10 " fill = "rgb(156, 156, 163)" stroke = "rgb(156, 156, 163)" stroke-width = "0"/>
    <path d="M 17 10 C 17.2 9.8 17.8 9.8 18 10 C 18.2 10.2 18.2 10.8 18 11 C 17.8 11.2 17.2 11.2 17 11 C 16.8 10.8 16.8 10.2 17 10 " fill = "rgb(153, 153, 163)" stroke = "rgb(153, 153, 163)" stroke-width = "0"/>
    <path d="M 18 10 C 18.2 9.8 18.8 9.8 19 10 C 19.2 10.2 19.2 10.8 19 11 C 18.8 11.2 18.2 11.2 18 11 C 17.8 10.8 17.8 10.2 18 10 " fill = "rgb(204, 204, 208)" stroke = "rgb(204, 204, 208)" stroke-width = "0"/>
    <path d="M 19 10 C 19.15 9.85 19.55 10.05 19.75 10.25 C 19.95 10.45 20.15 10.85 20 11 C 19.85 11.15 19.2 11.2 19 11 C 18.8 10.8 18.85 10.15 19 10 " fill = "rgb(238, 238, 239)" stroke = "rgb(238, 238, 239)" stroke-width = "0"/>
    <path d="M 5 11 C 5.2 10.8 5.8 10.8 6 11 C 6.2 11.2 6.2 11.8 6 12 C 5.8 12.2 5.2 12.2 5 12 C 4.8 11.8 4.8 11.2 5 11 " fill = "rgb(206, 206, 210)" stroke = "rgb(206, 206, 210)" stroke-width = "0"/>
    <path d="M 6 11 C 6.2 10.8 6.8 10.8 7 11 C 7.2 11.2 7.2 11.8 7 12 C 6.8 12.2 6.2 12.2 6 12 C 5.8 11.8 5.8 11.2 6 11 " fill = "rgb(32, 32, 50)" stroke = "rgb(32, 32, 50)" stroke-width = "0"/>
    <path d="M 7 11 C 7.2 10.8 7.8 10.8 8 11 C 8.2 11.2 8.2 11.8 8 12 C 7.8 12.2 7.2 12.2 7 12 C 6.8 11.8 6.8 11.2 7 11 " fill = "rgb(157, 157, 175)" stroke = "rgb(157, 157, 175)" stroke-width = "0"/>
    <path d="M 8 11 C 8.2 10.8 8.8 10.8 9 11 C 9.2 11.2 9.2 11.8 9 12 C 8.8 12.2 8.2 12.2 8 12 C 7.8 11.8 7.8 11.2 8 11 " fill = "rgb(227, 227, 237)" stroke = "rgb(227, 227, 237)" stroke-width = "0"/>
    <path d="M 9 11 C 9.2 10.8 9.6 11 10 11 C 10.4 11 10.8 10.8 11 11 C 11.2 11.2 11.2 11.8 11 12 C 10.8 12.2 10.4 12 10 12 C 9.6 12 9.2 12.2 9 12 C 8.8 11.8 8.8 11.2 9 11 " fill = "rgb(255, 255, 255)" stroke = "rgb(255, 255, 255)" stroke-width = "0"/>
    <path d="M 11 11 C 11.2 10.8 11.8 10.8 12 11 C 12.2 11.2 12.2 11.8 12 12 C 11.8 12.2 11.2 12.2 11 12 C 10.8 11.8 10.8 11.2 11 11 " fill = "rgb(174, 174, 179)" stroke = "rgb(174, 174, 179)" stroke-width = "0"/>
    <path d="M 12 11 C 12.2 10.8 12.8 10.8 13 11 C 13.2 11.2 13.2 11.8 13 12 C 12.8 12.2 12.2 12.2 12 12 C 11.8 11.8 11.8 11.2 12 11 " fill = "rgb(129, 129, 137)" stroke = "rgb(129, 129, 137)" stroke-width = "0"/>
    <path d="M 13 11 C 13.2 10.8 13.8 10.8 14 11 C 14.2 11.2 14.2 11.8 14 12 C 13.8 12.2 13.2 12.2 13 12 C 12.8 11.8 12.8 11.2 13 11 " fill = "rgb(143, 143, 150)" stroke = "rgb(143, 143, 150)" stroke-width = "0"/>
    <path d="M 14 11 C 14.2 10.8 14.8 10.8 15 11 C 15.2 11.2 15.2 11.8 15 12 C 14.8 12.2 14.2 12.2 14 12 C 13.8 11.8 13.8 11.2 14 11 " fill = "rgb(244, 244, 244)" stroke = "rgb(244, 244, 244)" stroke-width = "0"/>
    <path d="M 15 11 C 15.2 10.8 15.8 10.8 16 11 C 16.2 11.2 16.2 11.8 16 12 C 15.8 12.2 15.2 12.2 15 12 C 14.8 11.8 14.8 11.2 15 11 " fill = "rgb(255, 255, 255)" stroke = "rgb(255, 255, 255)" stroke-width = "0"/>
    <path d="M 16 11 C 16.2 10.8 16.8 10.8 17 11 C 17.2 11.2 17.2 11.8 17 12 C 16.8 12.2 16.2 12.2 16 12 C 15.8 11.8 15.8 11.2 16 11 " fill = "rgb(242, 242, 247)" stroke = "rgb(242, 242, 247)" stroke-width = "0"/>
    <path d="M 17 11 C 17.2 10.8 17.8 10.8 18 11 C 18.2 11.2 18.2 11.8 18 12 C 17.8 12.2 17.2 12.2 17 12 C 16.8 11.8 16.8 11.2 17 11 " fill = "rgb(193, 193, 212)" stroke = "rgb(193, 193, 212)" stroke-width = "0"/>
    <path d="M 18 11 C 18.2 10.8 18.8 10.8 19 11 C 19.2 11.2 19.2 11.8 19 12 C 18.8 12.2 18.2 12.2 18 12 C 17.8 11.8 17.8 11.2 18 11 " fill = "rgb(69, 69, 86)" stroke = "rgb(69, 69, 86)" stroke-width = "0"/>
    <path d="M 19 11 C 19.2 10.8 19.8 10.8 20 11 C 20.2 11.2 20.2 11.8 20 12 C 19.8 12.2 19.2 12.2 19 12 C 18.8 11.8 18.8 11.2 19 11 " fill = "rgb(151, 151, 159)" stroke = "rgb(151, 151, 159)" stroke-width = "0"/>
    <path d="M 5 12 C 5.2 11.8 5.8 11.8 6 12 C 6.2 12.2 6.2 12.8 6 13 C 5.8 13.2 5.2 13.2 5 13 C 4.8 12.8 4.8 12.2 5 12 " fill = "rgb(229, 229, 231)" stroke = "rgb(229, 229, 231)" stroke-width = "0"/>
    <path d="M 6 12 C 6.2 11.8 6.8 11.8 7 12 C 7.2 12.2 7.2 12.8 7 13 C 6.8 13.2 6.2 13.2 6 13 C 5.8 12.8 5.8 12.2 6 12 " fill = "rgb(112, 112, 122)" stroke = "rgb(112, 112, 122)" stroke-width = "0"/>
    <path d="M 7 12 C 7.2 11.8 7.8 11.8 8 12 C 8.2 12.2 8.2 12.8 8 13 C 7.8 13.2 7.2 13.2 7 13 C 6.8 12.8 6.8 12.2 7 12 " fill = "rgb(212, 212, 217)" stroke = "rgb(212, 212, 217)" stroke-width = "0"/>
    <path d="M 8 12 C 8.2 11.8 8.8 11.8 9 12 C 9.2 12.2 9.2 12.8 9 13 C 8.8 13.2 8.2 13.2 8 13 C 7.8 12.8 7.8 12.2 8 12 " fill = "rgb(251, 251, 252)" stroke = "rgb(251, 251, 252)" stroke-width = "0"/>
    <path d="M 9 12 C 9.2 11.8 9.8 11.8 10 12 C 10.2 12.2 10.2 12.8 10 13 C 9.8 13.2 9.2 13.2 9 13 C 8.8 12.8 8.8 12.2 9 12 " fill = "rgb(247, 247, 249)" stroke = "rgb(247, 247, 249)" stroke-width = "0"/>
    <path d="M 10 12 C 10.2 11.8 10.8 11.8 11 12 C 11.2 12.2 11.2 12.8 11 13 C 10.8 13.2 10.2 13.2 10 13 C 9.8 12.8 9.8 12.2 10 12 " fill = "rgb(208, 208, 222)" stroke = "rgb(208, 208, 222)" stroke-width = "0"/>
    <path d="M 11 12 C 11.2 11.8 11.8 11.8 12 12 C 12.2 12.2 12.2 12.8 12 13 C 11.8 13.2 11.2 13.2 11 13 C 10.8 12.8 10.8 12.2 11 12 " fill = "rgb(223, 223, 229)" stroke = "rgb(223, 223, 229)" stroke-width = "0"/>
    <path d="M 12 12 C 12.2 11.8 12.8 11.8 13 12 C 13.2 12.2 13.2 12.8 13 13 C 12.8 13.2 12.2 13.2 12 13 C 11.8 12.8 11.8 12.2 12 12 " fill = "rgb(233, 233, 234)" stroke = "rgb(233, 233, 234)" stroke-width = "0"/>
    <path d="M 13 12 C 13.2 11.8 13.8 11.8 14 12 C 14.2 12.2 14.2 12.8 14 13 C 13.8 13.2 13.2 13.2 13 13 C 12.8 12.8 12.8 12.2 13 12 " fill = "rgb(230, 230, 232)" stroke = "rgb(230, 230, 232)" stroke-width = "0"/>
    <path d="M 14 12 C 14.2 11.8 14.8 11.8 15 12 C 15.2 12.2 15.2 12.8 15 13 C 14.8 13.2 14.2 13.2 14 13 C 13.8 12.8 13.8 12.2 14 12 " fill = "rgb(208, 208, 221)" stroke = "rgb(208, 208, 221)" stroke-width = "0"/>
    <path d="M 15 12 C 15.2 11.8 15.8 11.8 16 12 C 16.2 12.2 16.2 12.8 16 13 C 15.8 13.2 15.2 13.2 15 13 C 14.8 12.8 14.8 12.2 15 12 " fill = "rgb(235, 235, 241)" stroke = "rgb(235, 235, 241)" stroke-width = "0"/>
    <path d="M 16 12 C 16.2 11.8 16.8 11.8 17 12 C 17.2 12.2 17.2 12.8 17 13 C 16.8 13.2 16.2 13.2 16 13 C 15.8 12.8 15.8 12.2 16 12 " fill = "rgb(253, 253, 253)" stroke = "rgb(253, 253, 253)" stroke-width = "0"/>
    <path d="M 17 12 C 17.2 11.8 17.8 11.8 18 12 C 18.2 12.2 18.2 12.8 18 13 C 17.8 13.2 17.2 13.2 17 13 C 16.8 12.8 16.8 12.2 17 12 " fill = "rgb(242, 242, 245)" stroke = "rgb(242, 242, 245)" stroke-width = "0"/>
    <path d="M 18 12 C 18.2 11.8 18.8 11.8 19 12 C 19.2 12.2 19.2 12.8 19 13 C 18.8 13.2 18.2 13.2 18 13 C 17.8 12.8 17.8 12.2 18 12 " fill = "rgb(141, 141, 150)" stroke = "rgb(141, 141, 150)" stroke-width = "0"/>
    <path d="M 19 12 C 19.2 11.8 19.8 11.8 20 12 C 20.2 12.2 20.2 12.8 20 13 C 19.8 13.2 19.2 13.2 19 13 C 18.8 12.8 18.8 12.2 19 12 " fill = "rgb(192, 192, 196)" stroke = "rgb(192, 192, 196)" stroke-width = "0"/>
    <path d="M 4.25 13.25 C 4.45 13.05 4.85 12.85 5 13 C 5.15 13.15 5.2 13.8 5 14 C 4.8 14.2 4.15 14.15 4 14 C 3.85 13.85 4.05 13.45 4.25 13.25 " fill = "rgb(196, 196, 200)" stroke = "rgb(196, 196, 200)" stroke-width = "0"/>
    <path d="M 5 13 C 5.2 12.8 5.8 12.8 6 13 C 6.2 13.2 6.2 13.8 6 14 C 5.8 14.2 5.2 14.2 5 14 C 4.8 13.8 4.8 13.2 5 13 " fill = "rgb(148, 148, 158)" stroke = "rgb(148, 148, 158)" stroke-width = "0"/>
    <path d="M 6 13 C 6.2 12.8 6.8 12.8 7 13 C 7.2 13.2 7.2 13.8 7 14 C 6.8 14.2 6.2 14.2 6 14 C 5.8 13.8 5.8 13.2 6 13 " fill = "rgb(170, 170, 184)" stroke = "rgb(170, 170, 184)" stroke-width = "0"/>
    <path d="M 7 13 C 7.2 12.8 7.8 12.8 8 13 C 8.2 13.2 8.2 13.8 8 14 C 7.8 14.2 7.2 14.2 7 14 C 6.8 13.8 6.8 13.2 7 13 " fill = "rgb(235, 235, 238)" stroke = "rgb(235, 235, 238)" stroke-width = "0"/>
    <path d="M 8 13 C 8.2 12.8 8.6 13 9 13 C 9.4 13 9.8 12.8 10 13 C 10.2 13.2 10.2 13.8 10 14 C 9.8 14.2 9.4 14 9 14 C 8.6 14 8.2 14.2 8 14 C 7.8 13.8 7.8 13.2 8 13 " fill = "rgb(255, 255, 255)" stroke = "rgb(255, 255, 255)" stroke-width = "0"/>
    <path d="M 10 13 C 10.2 12.8 10.8 12.8 11 13 C 11.2 13.2 11.2 13.8 11 14 C 10.8 14.2 10.2 14.2 10 14 C 9.8 13.8 9.8 13.2 10 13 " fill = "rgb(229, 229, 237)" stroke = "rgb(229, 229, 237)" stroke-width = "0"/>
    <path d="M 11 13 C 11.2 12.8 11.85 12.85 12 13 C 12.15 13.15 11.95 13.55 11.75 13.75 C 11.55 13.95 11.15 14.15 11 14 C 10.85 13.85 10.8 13.2 11 13 " fill = "rgb(247, 247, 249)" stroke = "rgb(247, 247, 249)" stroke-width = "0"/>
    <path d="M 12 13 C 12.25 12.85 12.75 12.85 13 13 C 13.25 13.15 13.05 13.55 13.25 13.75 C 13.45 13.95 13.65 13.95 14 14 C 14.35 14.05 14.8 13.8 15 14 C 15.2 14.2 15 14.6 15 15 C 15 15.4 15.2 15.8 15 16 C 14.8 16.2 14.25 16.15 14 16 C 13.75 15.85 13.95 15.45 13.75 15.25 C 13.55 15.05 13.35 15.05 13 15 C 12.65 14.95 12.4 15 12 15 C 11.6 15 11.2 15.2 11 15 C 10.8 14.8 10.85 14.25 11 14 C 11.15 13.75 11.55 13.95 11.75 13.75 C 11.95 13.55 11.75 13.15 12 13 " fill = "rgb(255, 255, 255)" stroke = "rgb(255, 255, 255)" stroke-width = "0"/>
    <path d="M 13 13 C 13.15 12.85 13.8 12.8 14 13 C 14.2 13.2 14.15 13.85 14 14 C 13.85 14.15 13.45 13.95 13.25 13.75 C 13.05 13.55 12.85 13.15 13 13 " fill = "rgb(254, 254, 254)" stroke = "rgb(254, 254, 254)" stroke-width = "0"/>
    <path d="M 14 13 C 14.2 12.8 14.8 12.8 15 13 C 15.2 13.2 15.2 13.8 15 14 C 14.8 14.2 14.2 14.2 14 14 C 13.8 13.8 13.8 13.2 14 13 " fill = "rgb(231, 231, 238)" stroke = "rgb(231, 231, 238)" stroke-width = "0"/>
    <path d="M 15 13 C 15.2 12.8 15.8 12.8 16 13 C 16.2 13.2 16.2 13.8 16 14 C 15.8 14.2 15.2 14.2 15 14 C 14.8 13.8 14.8 13.2 15 13 " fill = "rgb(247, 247, 250)" stroke = "rgb(247, 247, 250)" stroke-width = "0"/>
    <path d="M 16 13 C 16.2 12.8 16.6 13 17 13 C 17.4 13 17.8 12.8 18 13 C 18.2 13.2 18.2 13.8 18 14 C 17.8 14.2 17.4 14 17 14 C 16.6 14 16.2 14.2 16 14 C 15.8 13.8 15.8 13.2 16 13 " fill = "rgb(255, 255, 255)" stroke = "rgb(255, 255, 255)" stroke-width = "0"/>
    <path d="M 18 13 C 18.2 12.8 18.8 12.8 19 13 C 19.2 13.2 19.2 13.8 19 14 C 18.8 14.2 18.2 14.2 18 14 C 17.8 13.8 17.8 13.2 18 13 " fill = "rgb(190, 190, 200)" stroke = "rgb(190, 190, 200)" stroke-width = "0"/>
    <path d="M 19 13 C 19.2 12.8 19.8 12.8 20 13 C 20.2 13.2 20.2 13.8 20 14 C 19.8 14.2 19.2 14.2 19 14 C 18.8 13.8 18.8 13.2 19 13 " fill = "rgb(155, 155, 167)" stroke = "rgb(155, 155, 167)" stroke-width = "0"/>
    <path d="M 20 13 C 20.15 12.85 20.55 13.05 20.75 13.25 C 20.95 13.45 21.15 13.85 21 14 C 20.85 14.15 20.2 14.2 20 14 C 19.8 13.8 19.85 13.15 20 13 " fill = "rgb(167, 167, 174)" stroke = "rgb(167, 167, 174)" stroke-width = "0"/>
    <path d="M 4 14 C 4.2 13.8 4.8 13.8 5 14 C 5.2 14.2 5.2 14.8 5 15 C 4.8 15.2 4.2 15.2 4 15 C 3.8 14.8 3.8 14.2 4 14 " fill = "rgb(146, 146, 155)" stroke = "rgb(146, 146, 155)" stroke-width = "0"/>
    <path d="M 5 14 C 5.2 13.8 5.8 13.8 6 14 C 6.2 14.2 6.2 14.8 6 15 C 5.8 15.2 5.2 15.2 5 15 C 4.8 14.8 4.8 14.2 5 14 " fill = "rgb(81, 81, 98)" stroke = "rgb(81, 81, 98)" stroke-width = "0"/>
    <path d="M 6 14 C 6.2 13.8 6.8 13.8 7 14 C 7.2 14.2 7.2 14.8 7 15 C 6.8 15.2 6.2 15.2 6 15 C 5.8 14.8 5.8 14.2 6 14 " fill = "rgb(201, 201, 219)" stroke = "rgb(201, 201, 219)" stroke-width = "0"/>
    <path d="M 7 14 C 7.2 13.8 7.8 13.8 8 14 C 8.2 14.2 8.2 14.8 8 15 C 7.8 15.2 7.2 15.2 7 15 C 6.8 14.8 6.8 14.2 7 14 " fill = "rgb(229, 229, 237)" stroke = "rgb(229, 229, 237)" stroke-width = "0"/>
    <path d="M 8 14 C 8.2 13.8 8.8 13.8 9 14 C 9.2 14.2 9.2 14.8 9 15 C 8.8 15.2 8.2 15.2 8 15 C 7.8 14.8 7.8 14.2 8 14 " fill = "rgb(209, 209, 212)" stroke = "rgb(209, 209, 212)" stroke-width = "0"/>
    <path d="M 9 14 C 9.2 13.8 9.8 13.8 10 14 C 10.2 14.2 10.2 14.8 10 15 C 9.8 15.2 9.2 15.2 9 15 C 8.8 14.8 8.8 14.2 9 14 " fill = "rgb(186, 186, 185)" stroke = "rgb(186, 186, 185)" stroke-width = "0"/>
    <path d="M 10 14 C 10.2 13.8 10.8 13.8 11 14 C 11.2 14.2 11.2 14.8 11 15 C 10.8 15.2 10.2 15.2 10 15 C 9.8 14.8 9.8 14.2 10 14 " fill = "rgb(253, 253, 253)" stroke = "rgb(253, 253, 253)" stroke-width = "0"/>
    <path d="M 15 14 C 15.2 13.8 15.8 13.8 16 14 C 16.2 14.2 16.2 14.8 16 15 C 15.8 15.2 15.2 15.2 15 15 C 14.8 14.8 14.8 14.2 15 14 " fill = "rgb(207, 207, 207)" stroke = "rgb(207, 207, 207)" stroke-width = "0"/>
    <path d="M 16 14 C 16.2 13.8 16.8 13.8 17 14 C 17.2 14.2 17.2 14.8 17 15 C 16.8 15.2 16.2 15.2 16 15 C 15.8 14.8 15.8 14.2 16 14 " fill = "rgb(191, 191, 192)" stroke = "rgb(191, 191, 192)" stroke-width = "0"/>
    <path d="M 17 14 C 17.2 13.8 17.8 13.8 18 14 C 18.2 14.2 18.2 14.8 18 15 C 17.8 15.2 17.2 15.2 17 15 C 16.8 14.8 16.8 14.2 17 14 " fill = "rgb(239, 239, 245)" stroke = "rgb(239, 239, 245)" stroke-width = "0"/>
    <path d="M 18 14 C 18.2 13.8 18.8 13.8 19 14 C 19.2 14.2 19.2 14.8 19 15 C 18.8 15.2 18.2 15.2 18 15 C 17.8 14.8 17.8 14.2 18 14 " fill = "rgb(210, 210, 225)" stroke = "rgb(210, 210, 225)" stroke-width = "0"/>
    <path d="M 19 14 C 19.2 13.8 19.8 13.8 20 14 C 20.2 14.2 20.2 14.8 20 15 C 19.8 15.2 19.2 15.2 19 15 C 18.8 14.8 18.8 14.2 19 14 " fill = "rgb(120, 120, 137)" stroke = "rgb(120, 120, 137)" stroke-width = "0"/>
    <path d="M 20 14 C 20.2 13.8 20.8 13.8 21 14 C 21.2 14.2 21.2 14.8 21 15 C 20.8 15.2 20.2 15.2 20 15 C 19.8 14.8 19.8 14.2 20 14 " fill = "rgb(92, 92, 105)" stroke = "rgb(92, 92, 105)" stroke-width = "0"/>
    <path d="M 3.25 15.25 C 3.45 15.05 3.85 14.85 4 15 C 4.15 15.15 4.2 15.8 4 16 C 3.8 16.2 3.15 16.15 3 16 C 2.85 15.85 3.05 15.45 3.25 15.25 " fill = "rgb(248, 248, 249)" stroke = "rgb(248, 248, 249)" stroke-width = "0"/>
    <path d="M 4 15 C 4.2 14.8 4.8 14.8 5 15 C 5.2 15.2 5.2 15.8 5 16 C 4.8 16.2 4.2 16.2 4 16 C 3.8 15.8 3.8 15.2 4 15 " fill = "rgb(141, 141, 150)" stroke = "rgb(141, 141, 150)" stroke-width = "0"/>
    <path d="M 5 15 C 5.2 14.8 5.8 14.8 6 15 C 6.2 15.2 6.2 15.8 6 16 C 5.8 16.2 5.2 16.2 5 16 C 4.8 15.8 4.8 15.2 5 15 " fill = "rgb(85, 85, 101)" stroke = "rgb(85, 85, 101)" stroke-width = "0"/>
    <path d="M 6 15 C 6.2 14.8 6.8 14.8 7 15 C 7.2 15.2 7.2 15.8 7 16 C 6.8 16.2 6.2 16.2 6 16 C 5.8 15.8 5.8 15.2 6 15 " fill = "rgb(202, 202, 219)" stroke = "rgb(202, 202, 219)" stroke-width = "0"/>
    <path d="M 7 15 C 7.2 14.8 7.8 14.8 8 15 C 8.2 15.2 8.2 15.8 8 16 C 7.8 16.2 7.2 16.2 7 16 C 6.8 15.8 6.8 15.2 7 15 " fill = "rgb(197, 197, 214)" stroke = "rgb(197, 197, 214)" stroke-width = "0"/>
    <path d="M 8 15 C 8.2 14.8 8.8 14.8 9 15 C 9.2 15.2 9.2 15.8 9 16 C 8.8 16.2 8.2 16.2 8 16 C 7.8 15.8 7.8 15.2 8 15 " fill = "rgb(98, 98, 107)" stroke = "rgb(98, 98, 107)" stroke-width = "0"/>
    <path d="M 9 15 C 9.2 14.8 9.8 14.8 10 15 C 10.2 15.2 10.2 15.8 10 16 C 9.8 16.2 9.2 16.2 9 16 C 8.8 15.8 8.8 15.2 9 15 " fill = "rgb(24, 24, 24)" stroke = "rgb(24, 24, 24)" stroke-width = "0"/>
    <path d="M 10 15 C 10.2 14.8 10.8 14.8 11 15 C 11.2 15.2 11.2 15.8 11 16 C 10.8 16.2 10.2 16.2 10 16 C 9.8 15.8 9.8 15.2 10 15 " fill = "rgb(234, 234, 235)" stroke = "rgb(234, 234, 235)" stroke-width = "0"/>
    <path d="M 11 15 C 11.2 14.8 11.8 14.8 12 15 C 12.2 15.2 12.2 15.8 12 16 C 11.8 16.2 11.2 16.2 11 16 C 10.8 15.8 10.8 15.2 11 15 " fill = "rgb(250, 250, 251)" stroke = "rgb(250, 250, 251)" stroke-width = "0"/>
    <path d="M 12 15 C 12.2 14.8 12.8 14.8 13 15 C 13.2 15.2 13.2 15.8 13 16 C 12.8 16.2 12.2 16.2 12 16 C 11.8 15.8 11.8 15.2 12 15 " fill = "rgb(251, 251, 252)" stroke = "rgb(251, 251, 252)" stroke-width = "0"/>
    <path d="M 13 15 C 13.15 14.85 13.55 15.05 13.75 15.25 C 13.95 15.45 14.15 15.85 14 16 C 13.85 16.15 13.2 16.2 13 16 C 12.8 15.8 12.85 15.15 13 15 " fill = "rgb(250, 250, 251)" stroke = "rgb(250, 250, 251)" stroke-width = "0"/>
    <path d="M 15 15 C 15.2 14.8 15.8 14.8 16 15 C 16.2 15.2 16.2 15.8 16 16 C 15.8 16.2 15.2 16.2 15 16 C 14.8 15.8 14.8 15.2 15 15 " fill = "rgb(91, 91, 91)" stroke = "rgb(91, 91, 91)" stroke-width = "0"/>
    <path d="M 16 15 C 16.2 14.8 16.8 14.8 17 15 C 17.2 15.2 17.2 15.8 17 16 C 16.8 16.2 16.2 16.2 16 16 C 15.8 15.8 15.8 15.2 16 15 " fill = "rgb(42, 42, 47)" stroke = "rgb(42, 42, 47)" stroke-width = "0"/>
    <path d="M 17 15 C 17.2 14.8 17.8 14.8 18 15 C 18.2 15.2 18.2 15.8 18 16 C 17.8 16.2 17.2 16.2 17 16 C 16.8 15.8 16.8 15.2 17 15 " fill = "rgb(198, 198, 216)" stroke = "rgb(198, 198, 216)" stroke-width = "0"/>
    <path d="M 18 15 C 18.2 14.8 18.8 14.8 19 15 C 19.2 15.2 19.2 15.8 19 16 C 18.8 16.2 18.2 16.2 18 16 C 17.8 15.8 17.8 15.2 18 15 " fill = "rgb(200, 200, 217)" stroke = "rgb(200, 200, 217)" stroke-width = "0"/>
    <path d="M 19 15 C 19.2 14.8 19.8 14.8 20 15 C 20.2 15.2 20.2 15.8 20 16 C 19.8 16.2 19.2 16.2 19 16 C 18.8 15.8 18.8 15.2 19 15 " fill = "rgb(123, 123, 140)" stroke = "rgb(123, 123, 140)" stroke-width = "0"/>
    <path d="M 20 15 C 20.2 14.8 20.8 14.8 21 15 C 21.2 15.2 21.2 15.8 21 16 C 20.8 16.2 20.2 16.2 20 16 C 19.8 15.8 19.8 15.2 20 15 " fill = "rgb(93, 93, 106)" stroke = "rgb(93, 93, 106)" stroke-width = "0"/>
    <path d="M 21 15 C 21.2 14.8 21.8 14.8 22 15 C 22.2 15.2 22.2 15.8 22 16 C 21.8 16.2 21.2 16.2 21 16 C 20.8 15.8 20.8 15.2 21 15 " fill = "rgb(243, 243, 244)" stroke = "rgb(243, 243, 244)" stroke-width = "0"/>
    <path d="M 22 15 C 22.15 14.85 22.55 15.05 22.75 15.25 C 22.95 15.45 23.15 15.85 23 16 C 22.85 16.15 22.2 16.2 22 16 C 21.8 15.8 21.85 15.15 22 15 " fill = "rgb(251, 251, 252)" stroke = "rgb(251, 251, 252)" stroke-width = "0"/>
    <path d="M 3 16 C 3.2 15.8 3.8 15.8 4 16 C 4.2 16.2 4.2 16.8 4 17 C 3.8 17.2 3.2 17.2 3 17 C 2.8 16.8 2.8 16.2 3 16 " fill = "rgb(101, 101, 113)" stroke = "rgb(101, 101, 113)" stroke-width = "0"/>
    <path d="M 4 16 C 4.2 15.8 4.8 15.8 5 16 C 5.2 16.2 5.2 16.8 5 17 C 4.8 17.2 4.2 17.2 4 17 C 3.8 16.8 3.8 16.2 4 16 " fill = "rgb(57, 57, 73)" stroke = "rgb(57, 57, 73)" stroke-width = "0"/>
    <path d="M 5 16 C 5.2 15.8 5.8 15.8 6 16 C 6.2 16.2 6.2 16.8 6 17 C 5.8 17.2 5.2 17.2 5 17 C 4.8 16.8 4.8 16.2 5 16 " fill = "rgb(90, 90, 106)" stroke = "rgb(90, 90, 106)" stroke-width = "0"/>
    <path d="M 6 16 C 6.2 15.8 6.8 15.8 7 16 C 7.2 16.2 7.2 16.8 7 17 C 6.8 17.2 6.2 17.2 6 17 C 5.8 16.8 5.8 16.2 6 16 " fill = "rgb(206, 206, 224)" stroke = "rgb(206, 206, 224)" stroke-width = "0"/>
    <path d="M 7 16 C 7.2 15.8 7.8 15.8 8 16 C 8.2 16.2 8.2 16.8 8 17 C 7.8 17.2 7.2 17.2 7 17 C 6.8 16.8 6.8 16.2 7 16 " fill = "rgb(159, 159, 170)" stroke = "rgb(159, 159, 170)" stroke-width = "0"/>
    <path d="M 8 16 C 8.2 15.8 8.8 15.8 9 16 C 9.2 16.2 9.2 16.8 9 17 C 8.8 17.2 8.2 17.2 8 17 C 7.8 16.8 7.8 16.2 8 16 " fill = "rgb(70, 70, 75)" stroke = "rgb(70, 70, 75)" stroke-width = "0"/>
    <path d="M 9 16 C 9.2 15.8 9.8 15.8 10 16 C 10.2 16.2 10.2 16.8 10 17 C 9.8 17.2 9.2 17.2 9 17 C 8.8 16.8 8.8 16.2 9 16 " fill = "rgb(9, 9, 10)" stroke = "rgb(9, 9, 10)" stroke-width = "0"/>
    <path d="M 10 16 C 10.2 15.8 10.8 15.8 11 16 C 11.2 16.2 11.2 16.8 11 17 C 10.8 17.2 10.2 17.2 10 17 C 9.8 16.8 9.8 16.2 10 16 " fill = "rgb(135, 135, 142)" stroke = "rgb(135, 135, 142)" stroke-width = "0"/>
    <path d="M 11 16 C 11.2 15.8 11.8 15.8 12 16 C 12.2 16.2 12.2 16.8 12 17 C 11.8 17.2 11.2 17.2 11 17 C 10.8 16.8 10.8 16.2 11 16 " fill = "rgb(186, 186, 199)" stroke = "rgb(186, 186, 199)" stroke-width = "0"/>
    <path d="M 12 16 C 12.2 15.8 12.8 15.8 13 16 C 13.2 16.2 13.2 16.8 13 17 C 12.8 17.2 12.2 17.2 12 17 C 11.8 16.8 11.8 16.2 12 16 " fill = "rgb(208, 208, 224)" stroke = "rgb(208, 208, 224)" stroke-width = "0"/>
    <path d="M 13 16 C 13.2 15.8 13.8 15.8 14 16 C 14.2 16.2 14.2 16.8 14 17 C 13.8 17.2 13.2 17.2 13 17 C 12.8 16.8 12.8 16.2 13 16 " fill = "rgb(201, 201, 216)" stroke = "rgb(201, 201, 216)" stroke-width = "0"/>
    <path d="M 14 16 C 14.2 15.8 14.8 15.8 15 16 C 15.2 16.2 15.2 16.8 15 17 C 14.8 17.2 14.2 17.2 14 17 C 13.8 16.8 13.8 16.2 14 16 " fill = "rgb(157, 157, 166)" stroke = "rgb(157, 157, 166)" stroke-width = "0"/>
    <path d="M 15 16 C 15.2 15.8 15.8 15.8 16 16 C 16.2 16.2 16.2 16.8 16 17 C 15.8 17.2 15.2 17.2 15 17 C 14.8 16.8 14.8 16.2 15 16 " fill = "rgb(50, 50, 52)" stroke = "rgb(50, 50, 52)" stroke-width = "0"/>
    <path d="M 16 16 C 16.2 15.8 16.8 15.8 17 16 C 17.2 16.2 17.2 16.8 17 17 C 16.8 17.2 16.2 17.2 16 17 C 15.8 16.8 15.8 16.2 16 16 " fill = "rgb(29, 29, 32)" stroke = "rgb(29, 29, 32)" stroke-width = "0"/>
    <path d="M 17 16 C 17.2 15.8 17.8 15.8 18 16 C 18.2 16.2 18.2 16.8 18 17 C 17.8 17.2 17.2 17.2 17 17 C 16.8 16.8 16.8 16.2 17 16 " fill = "rgb(146, 146, 155)" stroke = "rgb(146, 146, 155)" stroke-width = "0"/>
    <path d="M 18 16 C 18.2 15.8 18.8 15.8 19 16 C 19.2 16.2 19.2 16.8 19 17 C 18.8 17.2 18.2 17.2 18 17 C 17.8 16.8 17.8 16.2 18 16 " fill = "rgb(191, 191, 207)" stroke = "rgb(191, 191, 207)" stroke-width = "0"/>
    <path d="M 19 16 C 19.2 15.8 19.8 15.8 20 16 C 20.2 16.2 20.2 16.8 20 17 C 19.8 17.2 19.2 17.2 19 17 C 18.8 16.8 18.8 16.2 19 16 " fill = "rgb(127, 127, 144)" stroke = "rgb(127, 127, 144)" stroke-width = "0"/>
    <path d="M 20 16 C 20.2 15.8 20.8 15.8 21 16 C 21.2 16.2 21.2 16.8 21 17 C 20.8 17.2 20.2 17.2 20 17 C 19.8 16.8 19.8 16.2 20 16 " fill = "rgb(55, 55, 71)" stroke = "rgb(55, 55, 71)" stroke-width = "0"/>
    <path d="M 21 16 C 21.2 15.8 21.8 15.8 22 16 C 22.2 16.2 22.2 16.8 22 17 C 21.8 17.2 21.2 17.2 21 17 C 20.8 16.8 20.8 16.2 21 16 " fill = "rgb(58, 58, 74)" stroke = "rgb(58, 58, 74)" stroke-width = "0"/>
    <path d="M 22 16 C 22.2 15.8 22.8 15.8 23 16 C 23.2 16.2 23.2 16.8 23 17 C 22.8 17.2 22.2 17.2 22 17 C 21.8 16.8 21.8 16.2 22 16 " fill = "rgb(209, 209, 212)" stroke = "rgb(209, 209, 212)" stroke-width = "0"/>
    <path d="M 1.25 17.25 C 1.45 17.05 1.85 16.85 2 17 C 2.15 17.15 2.2 17.8 2 18 C 1.8 18.2 1.15 18.15 1 18 C 0.85 17.85 1.05 17.45 1.25 17.25 " fill = "rgb(213, 213, 216)" stroke = "rgb(213, 213, 216)" stroke-width = "0"/>
    <path d="M 2 17 C 2.2 16.8 2.8 16.8 3 17 C 3.2 17.2 3.2 17.8 3 18 C 2.8 18.2 2.2 18.2 2 18 C 1.8 17.8 1.8 17.2 2 17 " fill = "rgb(117, 117, 128)" stroke = "rgb(117, 117, 128)" stroke-width = "0"/>
    <path d="M 3 17 C 3.2 16.8 3.8 16.8 4 17 C 4.2 17.2 4.2 17.8 4 18 C 3.8 18.2 3.2 18.2 3 18 C 2.8 17.8 2.8 17.2 3 17 " fill = "rgb(183, 183, 189)" stroke = "rgb(183, 183, 189)" stroke-width = "0"/>
    <path d="M 4 17 C 4.2 16.8 4.8 16.8 5 17 C 5.2 17.2 5.2 17.8 5 18 C 4.8 18.2 4.2 18.2 4 18 C 3.8 17.8 3.8 17.2 4 17 " fill = "rgb(118, 118, 129)" stroke = "rgb(118, 118, 129)" stroke-width = "0"/>
    <path d="M 5 17 C 5.2 16.8 5.8 16.8 6 17 C 6.2 17.2 6.2 17.8 6 18 C 5.8 18.2 5.2 18.2 5 18 C 4.8 17.8 4.8 17.2 5 17 " fill = "rgb(75, 75, 90)" stroke = "rgb(75, 75, 90)" stroke-width = "0"/>
    <path d="M 6 17 C 6.2 16.8 6.8 16.8 7 17 C 7.2 17.2 7.2 17.8 7 18 C 6.8 18.2 6.2 18.2 6 18 C 5.8 17.8 5.8 17.2 6 17 " fill = "rgb(161, 161, 172)" stroke = "rgb(161, 161, 172)" stroke-width = "0"/>
    <path d="M 7 17 C 7.2 16.8 7.8 16.8 8 17 C 8.2 17.2 8.2 17.8 8 18 C 7.8 18.2 7.2 18.2 7 18 C 6.8 17.8 6.8 17.2 7 17 " fill = "rgb(206, 206, 210)" stroke = "rgb(206, 206, 210)" stroke-width = "0"/>
    <path d="M 8 17 C 8.2 16.8 8.8 16.8 9 17 C 9.2 17.2 9.2 17.8 9 18 C 8.8 18.2 8.2 18.2 8 18 C 7.8 17.8 7.8 17.2 8 17 " fill = "rgb(199, 199, 200)" stroke = "rgb(199, 199, 200)" stroke-width = "0"/>
    <path d="M 9 17 C 9.2 16.8 9.8 16.8 10 17 C 10.2 17.2 10.2 17.8 10 18 C 9.8 18.2 9.2 18.2 9 18 C 8.8 17.8 8.8 17.2 9 17 " fill = "rgb(180, 180, 180)" stroke = "rgb(180, 180, 180)" stroke-width = "0"/>
    <path d="M 10 17 C 10.2 16.8 10.8 16.8 11 17 C 11.2 17.2 11.2 17.8 11 18 C 10.8 18.2 10.2 18.2 10 18 C 9.8 17.8 9.8 17.2 10 17 " fill = "rgb(223, 223, 224)" stroke = "rgb(223, 223, 224)" stroke-width = "0"/>
    <path d="M 11 17 C 11.2 16.8 11.8 16.8 12 17 C 12.2 17.2 12.2 17.8 12 18 C 11.8 18.2 11.2 18.2 11 18 C 10.8 17.8 10.8 17.2 11 17 " fill = "rgb(138, 139, 151)" stroke = "rgb(138, 139, 151)" stroke-width = "0"/>
    <path d="M 12 17 C 12.2 16.8 12.8 16.8 13 17 C 13.2 17.2 13.2 17.8 13 18 C 12.8 18.2 12.2 18.2 12 18 C 11.8 17.8 11.8 17.2 12 17 " fill = "rgb(93, 96, 112)" stroke = "rgb(93, 96, 112)" stroke-width = "0"/>
    <path d="M 13 17 C 13.2 16.8 13.8 16.8 14 17 C 14.2 17.2 14.2 17.8 14 18 C 13.8 18.2 13.2 18.2 13 18 C 12.8 17.8 12.8 17.2 13 17 " fill = "rgb(107, 109, 124)" stroke = "rgb(107, 109, 124)" stroke-width = "0"/>
    <path d="M 14 17 C 14.2 16.8 14.8 16.8 15 17 C 15.2 17.2 15.2 17.8 15 18 C 14.8 18.2 14.2 18.2 14 18 C 13.8 17.8 13.8 17.2 14 17 " fill = "rgb(207, 207, 211)" stroke = "rgb(207, 207, 211)" stroke-width = "0"/>
    <path d="M 15 17 C 15.2 16.8 15.8 16.8 16 17 C 16.2 17.2 16.2 17.8 16 18 C 15.8 18.2 15.2 18.2 15 18 C 14.8 17.8 14.8 17.2 15 17 " fill = "rgb(193, 193, 194)" stroke = "rgb(193, 193, 194)" stroke-width = "0"/>
    <path d="M 16 17 C 16.2 16.8 16.8 16.8 17 17 C 17.2 17.2 17.2 17.8 17 18 C 16.8 18.2 16.2 18.2 16 18 C 15.8 17.8 15.8 17.2 16 17 " fill = "rgb(186, 186, 187)" stroke = "rgb(186, 186, 187)" stroke-width = "0"/>
    <path d="M 17 17 C 17.2 16.8 17.8 16.8 18 17 C 18.2 17.2 18.2 17.8 18 18 C 17.8 18.2 17.2 18.2 17 18 C 16.8 17.8 16.8 17.2 17 17 " fill = "rgb(221, 221, 223)" stroke = "rgb(221, 221, 223)" stroke-width = "0"/>
    <path d="M 18 17 C 18.2 16.8 18.8 16.8 19 17 C 19.2 17.2 19.2 17.8 19 18 C 18.8 18.2 18.2 18.2 18 18 C 17.8 17.8 17.8 17.2 18 17 " fill = "rgb(174, 174, 183)" stroke = "rgb(174, 174, 183)" stroke-width = "0"/>
    <path d="M 19 17 C 19.2 16.8 19.8 16.8 20 17 C 20.2 17.2 20.2 17.8 20 18 C 19.8 18.2 19.2 18.2 19 18 C 18.8 17.8 18.8 17.2 19 17 " fill = "rgb(103, 103, 117)" stroke = "rgb(103, 103, 117)" stroke-width = "0"/>
    <path d="M 20 17 C 20.2 16.8 20.8 16.8 21 17 C 21.2 17.2 21.2 17.8 21 18 C 20.8 18.2 20.2 18.2 20 18 C 19.8 17.8 19.8 17.2 20 17 " fill = "rgb(81, 81, 95)" stroke = "rgb(81, 81, 95)" stroke-width = "0"/>
    <path d="M 21 17 C 21.2 16.8 21.8 16.8 22 17 C 22.2 17.2 22.2 17.8 22 18 C 21.8 18.2 21.2 18.2 21 18 C 20.8 17.8 20.8 17.2 21 17 " fill = "rgb(197, 197, 202)" stroke = "rgb(197, 197, 202)" stroke-width = "0"/>
    <path d="M 22 17 C 22.2 16.8 22.8 16.8 23 17 C 23.2 17.2 23.2 17.8 23 18 C 22.8 18.2 22.2 18.2 22 18 C 21.8 17.8 21.8 17.2 22 17 " fill = "rgb(136, 136, 146)" stroke = "rgb(136, 136, 146)" stroke-width = "0"/>
    <path d="M 23 17 C 23.15 16.85 23.55 17.05 23.75 17.25 C 23.95 17.45 24.15 17.85 24 18 C 23.85 18.15 23.2 18.2 23 18 C 22.8 17.8 22.85 17.15 23 17 " fill = "rgb(178, 178, 184)" stroke = "rgb(178, 178, 184)" stroke-width = "0"/>
    <path d="M 1 18 C 1.2 17.8 1.8 17.8 2 18 C 2.2 18.2 2.2 18.8 2 19 C 1.8 19.2 1.2 19.2 1 19 C 0.8 18.8 0.8 18.2 1 18 " fill = "rgb(191, 191, 197)" stroke = "rgb(191, 191, 197)" stroke-width = "0"/>
    <path d="M 2 18 C 2.2 17.8 2.8 17.8 3 18 C 3.2 18.2 3.2 18.8 3 19 C 2.8 19.2 2.2 19.2 2 19 C 1.8 18.8 1.8 18.2 2 18 " fill = "rgb(48, 48, 65)" stroke = "rgb(48, 48, 65)" stroke-width = "0"/>
    <path d="M 3 18 C 3.2 17.8 3.8 17.8 4 18 C 4.2 18.2 4.2 18.8 4 19 C 3.8 19.2 3.2 19.2 3 19 C 2.8 18.8 2.8 18.2 3 18 " fill = "rgb(206, 206, 214)" stroke = "rgb(206, 206, 214)" stroke-width = "0"/>
    <path d="M 4 18 C 4.2 17.8 4.8 17.8 5 18 C 5.2 18.2 5.2 18.8 5 19 C 4.8 19.2 4.2 19.2 4 19 C 3.8 18.8 3.8 18.2 4 18 " fill = "rgb(175, 175, 187)" stroke = "rgb(175, 175, 187)" stroke-width = "0"/>
    <path d="M 5 18 C 5.2 17.8 5.8 17.8 6 18 C 6.2 18.2 6.2 18.8 6 19 C 5.8 19.2 5.2 19.2 5 19 C 4.8 18.8 4.8 18.2 5 18 " fill = "rgb(111, 111, 126)" stroke = "rgb(111, 111, 126)" stroke-width = "0"/>
    <path d="M 6 18 C 6.2 17.8 6.8 17.8 7 18 C 7.2 18.2 7.2 18.8 7 19 C 6.8 19.2 6.2 19.2 6 19 C 5.8 18.8 5.8 18.2 6 18 " fill = "rgb(95, 95, 107)" stroke = "rgb(95, 95, 107)" stroke-width = "0"/>
    <path d="M 7 18 C 7.2 17.8 7.8 17.8 8 18 C 8.2 18.2 8.2 18.8 8 19 C 7.8 19.2 7.2 19.2 7 19 C 6.8 18.8 6.8 18.2 7 18 " fill = "rgb(199, 199, 208)" stroke = "rgb(199, 199, 208)" stroke-width = "0"/>
    <path d="M 8 18 C 8.2 17.8 8.8 17.8 9 18 C 9.2 18.2 9.2 18.8 9 19 C 8.8 19.2 8.2 19.2 8 19 C 7.8 18.8 7.8 18.2 8 18 " fill = "rgb(249, 249, 253)" stroke = "rgb(249, 249, 253)" stroke-width = "0"/>
    <path d="M 9 18 C 9.2 17.8 9.8 17.8 10 18 C 10.2 18.2 10.2 18.8 10 19 C 9.8 19.2 9.2 19.2 9 19 C 8.8 18.8 8.8 18.2 9 18 " fill = "rgb(254, 254, 254)" stroke = "rgb(254, 254, 254)" stroke-width = "0"/>
    <path d="M 10 18 C 10.2 17.8 10.8 17.8 11 18 C 11.2 18.2 11.2 18.8 11 19 C 10.8 19.2 10.2 19.2 10 19 C 9.8 18.8 9.8 18.2 10 18 " fill = "rgb(211, 214, 216)" stroke = "rgb(211, 214, 216)" stroke-width = "0"/>
    <path d="M 11 18 C 11.2 17.8 11.8 17.8 12 18 C 12.2 18.2 12.2 18.8 12 19 C 11.8 19.2 11.2 19.2 11 19 C 10.8 18.8 10.8 18.2 11 18 " fill = "rgb(162, 136, 148)" stroke = "rgb(162, 136, 148)" stroke-width = "0"/>
    <path d="M 12 18 C 12.2 17.8 12.8 17.8 13 18 C 13.2 18.2 13.2 18.8 13 19 C 12.8 19.2 12.2 19.2 12 19 C 11.8 18.8 11.8 18.2 12 18 " fill = "rgb(139, 99, 115)" stroke = "rgb(139, 99, 115)" stroke-width = "0"/>
    <path d="M 13 18 C 13.2 17.8 13.8 17.8 14 18 C 14.2 18.2 14.2 18.8 14 19 C 13.8 19.2 13.2 19.2 13 19 C 12.8 18.8 12.8 18.2 13 18 " fill = "rgb(146, 110, 125)" stroke = "rgb(146, 110, 125)" stroke-width = "0"/>
    <path d="M 14 18 C 14.2 17.8 14.8 17.8 15 18 C 15.2 18.2 15.2 18.8 15 19 C 14.8 19.2 14.2 19.2 14 19 C 13.8 18.8 13.8 18.2 14 18 " fill = "rgb(196, 193, 198)" stroke = "rgb(196, 193, 198)" stroke-width = "0"/>
    <path d="M 15 18 C 15.2 17.8 15.8 17.8 16 18 C 16.2 18.2 16.2 18.8 16 19 C 15.8 19.2 15.2 19.2 15 19 C 14.8 18.8 14.8 18.2 15 18 " fill = "rgb(240, 241, 242)" stroke = "rgb(240, 241, 242)" stroke-width = "0"/>
    <path d="M 16 18 C 16.2 17.8 16.8 17.8 17 18 C 17.2 18.2 17.2 18.8 17 19 C 16.8 19.2 16.2 19.2 16 19 C 15.8 18.8 15.8 18.2 16 18 " fill = "rgb(255, 255, 255)" stroke = "rgb(255, 255, 255)" stroke-width = "0"/>
    <path d="M 17 18 C 17.2 17.8 17.8 17.8 18 18 C 18.2 18.2 18.2 18.8 18 19 C 17.8 19.2 17.2 19.2 17 19 C 16.8 18.8 16.8 18.2 17 18 " fill = "rgb(231, 231, 239)" stroke = "rgb(231, 231, 239)" stroke-width = "0"/>
    <path d="M 18 18 C 18.2 17.8 18.8 17.8 19 18 C 19.2 18.2 19.2 18.8 19 19 C 18.8 19.2 18.2 19.2 18 19 C 17.8 18.8 17.8 18.2 18 18 " fill = "rgb(126, 126, 137)" stroke = "rgb(126, 126, 137)" stroke-width = "0"/>
    <path d="M 19 18 C 19.2 17.8 19.8 17.8 20 18 C 20.2 18.2 20.2 18.8 20 19 C 19.8 19.2 19.2 19.2 19 19 C 18.8 18.8 18.8 18.2 19 18 " fill = "rgb(106, 106, 120)" stroke = "rgb(106, 106, 120)" stroke-width = "0"/>
    <path d="M 20 18 C 20.2 17.8 20.8 17.8 21 18 C 21.2 18.2 21.2 18.8 21 19 C 20.8 19.2 20.2 19.2 20 19 C 19.8 18.8 19.8 18.2 20 18 " fill = "rgb(143, 143, 158)" stroke = "rgb(143, 143, 158)" stroke-width = "0"/>
    <path d="M 21 18 C 21.2 17.8 21.8 17.8 22 18 C 22.2 18.2 22.2 18.8 22 19 C 21.8 19.2 21.2 19.2 21 19 C 20.8 18.8 20.8 18.2 21 18 " fill = "rgb(244, 244, 251)" stroke = "rgb(244, 244, 251)" stroke-width = "0"/>
    <path d="M 22 18 C 22.2 17.8 22.8 17.8 23 18 C 23.2 18.2 23.2 18.8 23 19 C 22.8 19.2 22.2 19.2 22 19 C 21.8 18.8 21.8 18.2 22 18 " fill = "rgb(96, 96, 110)" stroke = "rgb(96, 96, 110)" stroke-width = "0"/>
    <path d="M 23 18 C 23.2 17.8 23.8 17.8 24 18 C 24.2 18.2 24.2 18.8 24 19 C 23.8 19.2 23.2 19.2 23 19 C 22.8 18.8 22.8 18.2 23 18 " fill = "rgb(137, 137, 146)" stroke = "rgb(137, 137, 146)" stroke-width = "0"/>
    <path d="M 1 19 C 1.15 18.85 1.8 18.8 2 19 C 2.2 19.2 2.15 19.85 2 20 C 1.85 20.15 1.45 19.95 1.25 19.75 C 1.05 19.55 0.85 19.15 1 19 " fill = "rgb(205, 205, 209)" stroke = "rgb(205, 205, 209)" stroke-width = "0"/>
    <path d="M 2 19 C 2.2 18.8 2.8 18.8 3 19 C 3.2 19.2 3.2 19.8 3 20 C 2.8 20.2 2.2 20.2 2 20 C 1.8 19.8 1.8 19.2 2 19 " fill = "rgb(90, 90, 104)" stroke = "rgb(90, 90, 104)" stroke-width = "0"/>
    <path d="M 3 19 C 3.2 18.8 3.8 18.8 4 19 C 4.2 19.2 4.2 19.8 4 20 C 3.8 20.2 3.2 20.2 3 20 C 2.8 19.8 2.8 19.2 3 19 " fill = "rgb(154, 154, 171)" stroke = "rgb(154, 154, 171)" stroke-width = "0"/>
    <path d="M 4 19 C 4.2 18.8 4.8 18.8 5 19 C 5.2 19.2 5.2 19.8 5 20 C 4.8 20.2 4.2 20.2 4 20 C 3.8 19.8 3.8 19.2 4 19 " fill = "rgb(194, 194, 210)" stroke = "rgb(194, 194, 210)" stroke-width = "0"/>
    <path d="M 5 19 C 5.2 18.8 5.8 18.8 6 19 C 6.2 19.2 6.2 19.8 6 20 C 5.8 20.2 5.2 20.2 5 20 C 4.8 19.8 4.8 19.2 5 19 " fill = "rgb(183, 183, 197)" stroke = "rgb(183, 183, 197)" stroke-width = "0"/>
    <path d="M 6 19 C 6.2 18.8 6.8 18.8 7 19 C 7.2 19.2 7.2 19.8 7 20 C 6.8 20.2 6.2 20.2 6 20 C 5.8 19.8 5.8 19.2 6 19 " fill = "rgb(73, 73, 90)" stroke = "rgb(73, 73, 90)" stroke-width = "0"/>
    <path d="M 7 19 C 7.2 18.8 7.8 18.8 8 19 C 8.2 19.2 8.2 19.8 8 20 C 7.8 20.2 7.2 20.2 7 20 C 6.8 19.8 6.8 19.2 7 19 " fill = "rgb(145, 145, 163)" stroke = "rgb(145, 145, 163)" stroke-width = "0"/>
    <path d="M 8 19 C 8.2 18.8 8.8 18.8 9 19 C 9.2 19.2 9.2 19.8 9 20 C 8.8 20.2 8.2 20.2 8 20 C 7.8 19.8 7.8 19.2 8 19 " fill = "rgb(193, 193, 204)" stroke = "rgb(193, 193, 204)" stroke-width = "0"/>
    <path d="M 9 19 C 9.2 18.8 9.8 18.8 10 19 C 10.2 19.2 10.2 19.8 10 20 C 9.8 20.2 9.2 20.2 9 20 C 8.8 19.8 8.8 19.2 9 19 " fill = "rgb(208, 205, 209)" stroke = "rgb(208, 205, 209)" stroke-width = "0"/>
    <path d="M 10 19 C 10.2 18.8 10.8 18.8 11 19 C 11.2 19.2 11.2 19.8 11 20 C 10.8 20.2 10.2 20.2 10 20 C 9.8 19.8 9.8 19.2 10 19 " fill = "rgb(149, 133, 142)" stroke = "rgb(149, 133, 142)" stroke-width = "0"/>
    <path d="M 11 19 C 11.2 18.8 11.8 18.8 12 19 C 12.2 19.2 12.2 19.8 12 20 C 11.8 20.2 11.2 20.2 11 20 C 10.8 19.8 10.8 19.2 11 19 " fill = "rgb(224, 155, 169)" stroke = "rgb(224, 155, 169)" stroke-width = "0"/>
    <path d="M 12 19 C 12.2 18.8 12.8 18.8 13 19 C 13.2 19.2 13.2 19.8 13 20 C 12.8 20.2 12.2 20.2 12 20 C 11.8 19.8 11.8 19.2 12 19 " fill = "rgb(255, 169, 185)" stroke = "rgb(255, 169, 185)" stroke-width = "0"/>
    <path d="M 13 19 C 13.2 18.8 13.8 18.8 14 19 C 14.2 19.2 14.2 19.8 14 20 C 13.8 20.2 13.2 20.2 13 20 C 12.8 19.8 12.8 19.2 13 19 " fill = "rgb(252, 165, 180)" stroke = "rgb(252, 165, 180)" stroke-width = "0"/>
    <path d="M 14 19 C 14.2 18.8 14.8 18.8 15 19 C 15.2 19.2 15.2 19.8 15 20 C 14.8 20.2 14.2 20.2 14 20 C 13.8 19.8 13.8 19.2 14 19 " fill = "rgb(161, 132, 143)" stroke = "rgb(161, 132, 143)" stroke-width = "0"/>
    <path d="M 15 19 C 15.2 18.8 15.8 18.8 16 19 C 16.2 19.2 16.2 19.8 16 20 C 15.8 20.2 15.2 20.2 15 20 C 14.8 19.8 14.8 19.2 15 19 " fill = "rgb(190, 182, 188)" stroke = "rgb(190, 182, 188)" stroke-width = "0"/>
    <path d="M 16 19 C 16.2 18.8 16.8 18.8 17 19 C 17.2 19.2 17.2 19.8 17 20 C 16.8 20.2 16.2 20.2 16 20 C 15.8 19.8 15.8 19.2 16 19 " fill = "rgb(205, 206, 213)" stroke = "rgb(205, 206, 213)" stroke-width = "0"/>
    <path d="M 17 19 C 17.2 18.8 17.8 18.8 18 19 C 18.2 19.2 18.2 19.8 18 20 C 17.8 20.2 17.2 20.2 17 20 C 16.8 19.8 16.8 19.2 17 19 " fill = "rgb(166, 166, 184)" stroke = "rgb(166, 166, 184)" stroke-width = "0"/>
    <path d="M 18 19 C 18.2 18.8 18.8 18.8 19 19 C 19.2 19.2 19.2 19.8 19 20 C 18.8 20.2 18.2 20.2 18 20 C 17.8 19.8 17.8 19.2 18 19 " fill = "rgb(94, 94, 111)" stroke = "rgb(94, 94, 111)" stroke-width = "0"/>
    <path d="M 19 19 C 19.2 18.8 19.8 18.8 20 19 C 20.2 19.2 20.2 19.8 20 20 C 19.8 20.2 19.2 20.2 19 20 C 18.8 19.8 18.8 19.2 19 19 " fill = "rgb(148, 148, 163)" stroke = "rgb(148, 148, 163)" stroke-width = "0"/>
    <path d="M 20 19 C 20.2 18.8 20.8 18.8 21 19 C 21.2 19.2 21.2 19.8 21 20 C 20.8 20.2 20.2 20.2 20 20 C 19.8 19.8 19.8 19.2 20 19 " fill = "rgb(206, 206, 221)" stroke = "rgb(206, 206, 221)" stroke-width = "0"/>
    <path d="M 21 19 C 21.2 18.8 21.8 18.8 22 19 C 22.2 19.2 22.2 19.8 22 20 C 21.8 20.2 21.2 20.2 21 20 C 20.8 19.8 20.8 19.2 21 19 " fill = "rgb(171, 171, 188)" stroke = "rgb(171, 171, 188)" stroke-width = "0"/>
    <path d="M 22 19 C 22.2 18.8 22.8 18.8 23 19 C 23.2 19.2 23.2 19.8 23 20 C 22.8 20.2 22.2 20.2 22 20 C 21.8 19.8 21.8 19.2 22 19 " fill = "rgb(111, 111, 125)" stroke = "rgb(111, 111, 125)" stroke-width = "0"/>
    <path d="M 23 19 C 23.2 18.8 23.85 18.85 24 19 C 24.15 19.15 23.95 19.55 23.75 19.75 C 23.55 19.95 23.15 20.15 23 20 C 22.85 19.85 22.8 19.2 23 19 " fill = "rgb(163, 163, 170)" stroke = "rgb(163, 163, 170)" stroke-width = "0"/>
    <path d="M 3 20 C 3.2 19.8 3.8 19.8 4 20 C 4.2 20.2 4.2 20.8 4 21 C 3.8 21.2 3.2 21.2 3 21 C 2.8 20.8 2.8 20.2 3 20 " fill = "rgb(76, 76, 90)" stroke = "rgb(76, 76, 90)" stroke-width = "0"/>
    <path d="M 4 20 C 4.2 19.8 4.8 19.8 5 20 C 5.2 20.2 5.2 20.8 5 21 C 4.8 21.2 4.2 21.2 4 21 C 3.8 20.8 3.8 20.2 4 20 " fill = "rgb(160, 160, 167)" stroke = "rgb(160, 160, 167)" stroke-width = "0"/>
    <path d="M 5 20 C 5.2 19.8 5.8 19.8 6 20 C 6.2 20.2 6.2 20.8 6 21 C 5.8 21.2 5.2 21.2 5 21 C 4.8 20.8 4.8 20.2 5 20 " fill = "rgb(255, 255, 255)" stroke = "rgb(255, 255, 255)" stroke-width = "0"/>
    <path d="M 6 20 C 6.2 19.8 6.8 19.8 7 20 C 7.2 20.2 7.2 20.8 7 21 C 6.8 21.2 6.2 21.2 6 21 C 5.8 20.8 5.8 20.2 6 20 " fill = "rgb(213, 213, 230)" stroke = "rgb(213, 213, 230)" stroke-width = "0"/>
    <path d="M 7 20 C 7.2 19.8 7.8 19.8 8 20 C 8.2 20.2 8.2 20.8 8 21 C 7.8 21.2 7.2 21.2 7 21 C 6.8 20.8 6.8 20.2 7 20 " fill = "rgb(85, 85, 102)" stroke = "rgb(85, 85, 102)" stroke-width = "0"/>
    <path d="M 8 20 C 8.2 19.8 8.8 19.8 9 20 C 9.2 20.2 9.2 20.8 9 21 C 8.8 21.2 8.2 21.2 8 21 C 7.8 20.8 7.8 20.2 8 20 " fill = "rgb(38, 39, 56)" stroke = "rgb(38, 39, 56)" stroke-width = "0"/>
    <path d="M 9 20 C 9.2 19.8 9.8 19.8 10 20 C 10.2 20.2 10.2 20.8 10 21 C 9.8 21.2 9.2 21.2 9 21 C 8.8 20.8 8.8 20.2 9 20 " fill = "rgb(68, 50, 67)" stroke = "rgb(68, 50, 67)" stroke-width = "0"/>
    <path d="M 10 20 C 10.2 19.8 10.8 19.8 11 20 C 11.2 20.2 11.2 20.8 11 21 C 10.8 21.2 10.2 21.2 10 21 C 9.8 20.8 9.8 20.2 10 20 " fill = "rgb(205, 93, 111)" stroke = "rgb(205, 93, 111)" stroke-width = "0"/>
    <path d="M 11 20 C 11.2 19.8 11.8 19.8 12 20 C 12.2 20.2 12.2 20.8 12 21 C 11.8 21.2 11.2 21.2 11 21 C 10.8 20.8 10.8 20.2 11 20 " fill = "rgb(246, 146, 162)" stroke = "rgb(246, 146, 162)" stroke-width = "0"/>
    <path d="M 12 20 C 12.2 19.8 12.8 19.8 13 20 C 13.2 20.2 13.2 20.8 13 21 C 12.8 21.2 12.2 21.2 12 21 C 11.8 20.8 11.8 20.2 12 20 " fill = "rgb(255, 171, 187)" stroke = "rgb(255, 171, 187)" stroke-width = "0"/>
    <path d="M 13 20 C 13.2 19.8 13.8 19.8 14 20 C 14.2 20.2 14.2 20.8 14 21 C 13.8 21.2 13.2 21.2 13 21 C 12.8 20.8 12.8 20.2 13 20 " fill = "rgb(255, 163, 179)" stroke = "rgb(255, 163, 179)" stroke-width = "0"/>
    <path d="M 14 20 C 14.2 19.8 14.8 19.8 15 20 C 15.2 20.2 15.2 20.8 15 21 C 14.8 21.2 14.2 21.2 14 21 C 13.8 20.8 13.8 20.2 14 20 " fill = "rgb(226, 109, 126)" stroke = "rgb(226, 109, 126)" stroke-width = "0"/>
    <path d="M 15 20 C 15.2 19.8 15.8 19.8 16 20 C 16.2 20.2 16.2 20.8 16 21 C 15.8 21.2 15.2 21.2 15 21 C 14.8 20.8 14.8 20.2 15 20 " fill = "rgb(112, 64, 81)" stroke = "rgb(112, 64, 81)" stroke-width = "0"/>
    <path d="M 16 20 C 16.2 19.8 16.8 19.8 17 20 C 17.2 20.2 17.2 20.8 17 21 C 16.8 21.2 16.2 21.2 16 21 C 15.8 20.8 15.8 20.2 16 20 " fill = "rgb(37, 40, 57)" stroke = "rgb(37, 40, 57)" stroke-width = "0"/>
    <path d="M 17 20 C 17.2 19.8 17.8 19.8 18 20 C 18.2 20.2 18.2 20.8 18 21 C 17.8 21.2 17.2 21.2 17 21 C 16.8 20.8 16.8 20.2 17 20 " fill = "rgb(45, 45, 62)" stroke = "rgb(45, 45, 62)" stroke-width = "0"/>
    <path d="M 18 20 C 18.2 19.8 18.8 19.8 19 20 C 19.2 20.2 19.2 20.8 19 21 C 18.8 21.2 18.2 21.2 18 21 C 17.8 20.8 17.8 20.2 18 20 " fill = "rgb(174, 174, 192)" stroke = "rgb(174, 174, 192)" stroke-width = "0"/>
    <path d="M 19 20 C 19.2 19.8 19.8 19.8 20 20 C 20.2 20.2 20.2 20.8 20 21 C 19.8 21.2 19.2 21.2 19 21 C 18.8 20.8 18.8 20.2 19 20 " fill = "rgb(243, 243, 250)" stroke = "rgb(243, 243, 250)" stroke-width = "0"/>
    <path d="M 20 20 C 20.2 19.8 20.8 19.8 21 20 C 21.2 20.2 21.2 20.8 21 21 C 20.8 21.2 20.2 21.2 20 21 C 19.8 20.8 19.8 20.2 20 20 " fill = "rgb(219, 219, 221)" stroke = "rgb(219, 219, 221)" stroke-width = "0"/>
    <path d="M 21 20 C 21.2 19.8 21.8 19.8 22 20 C 22.2 20.2 22.2 20.8 22 21 C 21.8 21.2 21.2 21.2 21 21 C 20.8 20.8 20.8 20.2 21 20 " fill = "rgb(32, 32, 49)" stroke = "rgb(32, 32, 49)" stroke-width = "0"/>
    <path d="M 22 20 C 22.2 19.8 22.8 19.8 23 20 C 23.2 20.2 23.2 20.8 23 21 C 22.8 21.2 22.2 21.2 22 21 C 21.8 20.8 21.8 20.2 22 20 " fill = "rgb(203, 203, 207)" stroke = "rgb(203, 203, 207)" stroke-width = "0"/>
    <path d="M 2.25 21.25 C 2.4 21.1 2.85 20.85 3 21 C 3.15 21.15 3.15 21.85 3 22 C 2.85 22.15 2.4 21.9 2.25 21.75 C 2.1 21.6 2.1 21.4 2.25 21.25 " fill = "rgb(254, 254, 254)" stroke = "rgb(254, 254, 254)" stroke-width = "0"/>
    <path d="M 3 21 C 3.2 20.8 3.8 20.8 4 21 C 4.2 21.2 4.2 21.8 4 22 C 3.8 22.2 3.2 22.2 3 22 C 2.8 21.8 2.8 21.2 3 21 " fill = "rgb(226, 226, 228)" stroke = "rgb(226, 226, 228)" stroke-width = "0"/>
    <path d="M 4 21 C 4.2 20.8 4.8 20.8 5 21 C 5.2 21.2 5.2 21.8 5 22 C 4.8 22.2 4.2 22.2 4 22 C 3.8 21.8 3.8 21.2 4 21 " fill = "rgb(149, 149, 157)" stroke = "rgb(149, 149, 157)" stroke-width = "0"/>
    <path d="M 5 21 C 5.2 20.8 5.8 20.8 6 21 C 6.2 21.2 6.2 21.8 6 22 C 5.8 22.2 5.2 22.2 5 22 C 4.8 21.8 4.8 21.2 5 21 " fill = "rgb(84, 84, 99)" stroke = "rgb(84, 84, 99)" stroke-width = "0"/>
    <path d="M 6 21 C 6.2 20.8 6.8 20.8 7 21 C 7.2 21.2 7.2 21.8 7 22 C 6.8 22.2 6.2 22.2 6 22 C 5.8 21.8 5.8 21.2 6 21 " fill = "rgb(73, 73, 90)" stroke = "rgb(73, 73, 90)" stroke-width = "0"/>
    <path d="M 7 21 C 7.2 20.8 7.8 20.8 8 21 C 8.2 21.2 8.2 21.8 8 22 C 7.8 22.2 7.2 22.2 7 22 C 6.8 21.8 6.8 21.2 7 21 " fill = "rgb(181, 181, 188)" stroke = "rgb(181, 181, 188)" stroke-width = "0"/>
    <path d="M 8 21 C 8.2 20.8 8.8 20.8 9 21 C 9.2 21.2 9.2 21.8 9 22 C 8.8 22.2 8.2 22.2 8 22 C 7.8 21.8 7.8 21.2 8 21 " fill = "rgb(218, 218, 221)" stroke = "rgb(218, 218, 221)" stroke-width = "0"/>
    <path d="M 9 21 C 9.2 20.8 9.8 20.8 10 21 C 10.2 21.2 10.2 21.8 10 22 C 9.8 22.2 9.2 22.2 9 22 C 8.8 21.8 8.8 21.2 9 21 " fill = "rgb(221, 218, 221)" stroke = "rgb(221, 218, 221)" stroke-width = "0"/>
    <path d="M 10 21 C 10.2 20.8 10.8 20.8 11 21 C 11.2 21.2 11.2 21.8 11 22 C 10.8 22.2 10.2 22.2 10 22 C 9.8 21.8 9.8 21.2 10 21 " fill = "rgb(249, 231, 233)" stroke = "rgb(249, 231, 233)" stroke-width = "0"/>
    <path d="M 11 21 C 11.2 20.8 11.8 20.8 12 21 C 12.2 21.2 12.2 21.8 12 22 C 11.8 22.2 11.2 22.2 11 22 C 10.8 21.8 10.8 21.2 11 21 " fill = "rgb(188, 128, 140)" stroke = "rgb(188, 128, 140)" stroke-width = "0"/>
    <path d="M 12 21 C 12.2 20.8 12.8 20.8 13 21 C 13.2 21.2 13.2 21.8 13 22 C 12.8 22.2 12.2 22.2 12 22 C 11.8 21.8 11.8 21.2 12 21 " fill = "rgb(156, 75, 92)" stroke = "rgb(156, 75, 92)" stroke-width = "0"/>
    <path d="M 13 21 C 13.2 20.8 13.8 20.8 14 21 C 14.2 21.2 14.2 21.8 14 22 C 13.8 22.2 13.2 22.2 13 22 C 12.8 21.8 12.8 21.2 13 21 " fill = "rgb(166, 91, 107)" stroke = "rgb(166, 91, 107)" stroke-width = "0"/>
    <path d="M 14 21 C 14.2 20.8 14.8 20.8 15 21 C 15.2 21.2 15.2 21.8 15 22 C 14.8 22.2 14.2 22.2 14 22 C 13.8 21.8 13.8 21.2 14 21 " fill = "rgb(237, 208, 213)" stroke = "rgb(237, 208, 213)" stroke-width = "0"/>
    <path d="M 15 21 C 15.2 20.8 15.8 20.8 16 21 C 16.2 21.2 16.2 21.8 16 22 C 15.8 22.2 15.2 22.2 15 22 C 14.8 21.8 14.8 21.2 15 21 " fill = "rgb(229, 221, 224)" stroke = "rgb(229, 221, 224)" stroke-width = "0"/>
    <path d="M 16 21 C 16.2 20.8 16.8 20.8 17 21 C 17.2 21.2 17.2 21.8 17 22 C 16.8 22.2 16.2 22.2 16 22 C 15.8 21.8 15.8 21.2 16 21 " fill = "rgb(216, 216, 219)" stroke = "rgb(216, 216, 219)" stroke-width = "0"/>
    <path d="M 17 21 C 17.2 20.8 17.8 20.8 18 21 C 18.2 21.2 18.2 21.8 18 22 C 17.8 22.2 17.2 22.2 17 22 C 16.8 21.8 16.8 21.2 17 21 " fill = "rgb(215, 215, 218)" stroke = "rgb(215, 215, 218)" stroke-width = "0"/>
    <path d="M 18 21 C 18.2 20.8 18.8 20.8 19 21 C 19.2 21.2 19.2 21.8 19 22 C 18.8 22.2 18.2 22.2 18 22 C 17.8 21.8 17.8 21.2 18 21 " fill = "rgb(105, 105, 119)" stroke = "rgb(105, 105, 119)" stroke-width = "0"/>
    <path d="M 19 21 C 19.2 20.8 19.8 20.8 20 21 C 20.2 21.2 20.2 21.8 20 22 C 19.8 22.2 19.2 22.2 19 22 C 18.8 21.8 18.8 21.2 19 21 " fill = "rgb(81, 81, 96)" stroke = "rgb(81, 81, 96)" stroke-width = "0"/>
    <path d="M 20 21 C 20.2 20.8 20.8 20.8 21 21 C 21.2 21.2 21.2 21.8 21 22 C 20.8 22.2 20.2 22.2 20 22 C 19.8 21.8 19.8 21.2 20 21 " fill = "rgb(118, 118, 129)" stroke = "rgb(118, 118, 129)" stroke-width = "0"/>
    <path d="M 21 21 C 21.2 20.8 21.8 20.8 22 21 C 22.2 21.2 22.2 21.8 22 22 C 21.8 22.2 21.2 22.2 21 22 C 20.8 21.8 20.8 21.2 21 21 " fill = "rgb(216, 216, 219)" stroke = "rgb(216, 216, 219)" stroke-width = "0"/>
    <path d="M 22 21 C 22.2 20.8 22.85 20.85 23 21 C 23.15 21.15 22.95 21.55 22.75 21.75 C 22.55 21.95 22.15 22.15 22 22 C 21.85 21.85 21.8 21.2 22 21 " fill = "rgb(245, 245, 245)" stroke = "rgb(245, 245, 245)" stroke-width = "0"/>
    <path d="M 4 22 C 4.15 21.85 4.8 21.8 5 22 C 5.2 22.2 5.15 22.85 5 23 C 4.85 23.15 4.45 22.95 4.25 22.75 C 4.05 22.55 3.85 22.15 4 22 " fill = "rgb(208, 208, 212)" stroke = "rgb(208, 208, 212)" stroke-width = "0"/>
    <path d="M 5 22 C 5.2 21.8 5.8 21.8 6 22 C 6.2 22.2 6.2 22.8 6 23 C 5.8 23.2 5.2 23.2 5 23 C 4.8 22.8 4.8 22.2 5 22 " fill = "rgb(162, 162, 170)" stroke = "rgb(162, 162, 170)" stroke-width = "0"/>
    <path d="M 6 22 C 6.2 21.8 6.8 21.8 7 22 C 7.2 22.2 7.2 22.8 7 23 C 6.8 23.2 6.2 23.2 6 23 C 5.8 22.8 5.8 22.2 6 22 " fill = "rgb(162, 162, 169)" stroke = "rgb(162, 162, 169)" stroke-width = "0"/>
    <path d="M 7 22 C 7.2 21.8 7.85 21.85 8 22 C 8.15 22.15 7.95 22.55 7.75 22.75 C 7.55 22.95 7.15 23.15 7 23 C 6.85 22.85 6.8 22.2 7 22 " fill = "rgb(234, 234, 236)" stroke = "rgb(234, 234, 236)" stroke-width = "0"/>
    <path d="M 11 22 C 11.15 21.85 11.8 21.8 12 22 C 12.2 22.2 12.15 22.85 12 23 C 11.85 23.15 11.45 22.95 11.25 22.75 C 11.05 22.55 10.85 22.15 11 22 " fill = "rgb(220, 198, 203)" stroke = "rgb(220, 198, 203)" stroke-width = "0"/>
    <path d="M 12 22 C 12.2 21.8 12.8 21.8 13 22 C 13.2 22.2 13.2 22.8 13 23 C 12.8 23.2 12.2 23.2 12 23 C 11.8 22.8 11.8 22.2 12 22 " fill = "rgb(201, 167, 175)" stroke = "rgb(201, 167, 175)" stroke-width = "0"/>
    <path d="M 13 22 C 13.2 21.8 13.8 21.8 14 22 C 14.2 22.2 14.2 22.8 14 23 C 13.8 23.2 13.2 23.2 13 23 C 12.8 22.8 12.8 22.2 13 22 " fill = "rgb(206, 177, 183)" stroke = "rgb(206, 177, 183)" stroke-width = "0"/>
    <path d="M 14 22 C 14.2 21.8 14.85 21.85 15 22 C 15.15 22.15 14.95 22.55 14.75 22.75 C 14.55 22.95 14.15 23.15 14 23 C 13.85 22.85 13.8 22.2 14 22 " fill = "rgb(249, 246, 247)" stroke = "rgb(249, 246, 247)" stroke-width = "0"/>
    <path d="M 18 22 C 18.15 21.85 18.8 21.8 19 22 C 19.2 22.2 19.15 22.85 19 23 C 18.85 23.15 18.45 22.95 18.25 22.75 C 18.05 22.55 17.85 22.15 18 22 " fill = "rgb(183, 183, 189)" stroke = "rgb(183, 183, 189)" stroke-width = "0"/>
    <path d="M 19 22 C 19.2 21.8 19.8 21.8 20 22 C 20.2 22.2 20.2 22.8 20 23 C 19.8 23.2 19.2 23.2 19 23 C 18.8 22.8 18.8 22.2 19 22 " fill = "rgb(163, 163, 170)" stroke = "rgb(163, 163, 170)" stroke-width = "0"/>
    <path d="M 20 22 C 20.2 21.8 20.85 21.85 21 22 C 21.15 22.15 20.95 22.55 20.75 22.75 C 20.55 22.95 20.15 23.15 20 23 C 19.85 22.85 19.8 22.2 20 22 " fill = "rgb(185, 185, 190)" stroke = "rgb(185, 185, 190)" stroke-width = "0"/>
</svg>
