<svg version="1.1" baseProfile = "full" width = "25" height = "26" xmlns = "http://www.w3.org/2000/svg">
    <path d="M 0 0 C 0.2 -0.2 0.6 -3.49691e-08 1 0 C 1.4 0 1.6 -3.49691e-08 2 0 C 2.4 0 2.6 -3.49691e-08 3 0 C 3.4 0 3.6 -3.49691e-08 4 0 C 4.4 0 4.6 -3.49691e-08 5 0 C 5.4 0 5.6 -3.49691e-08 6 0 C 6.4 0 6.6 -3.49691e-08 7 0 C 7.4 0 7.6 -3.49691e-08 8 0 C 8.4 0 8.6 -3.49691e-08 9 0 C 9.4 0 9.6 -3.49691e-08 10 0 C 10.4 0 10.6 -3.49691e-08 11 0 C 11.4 0 11.6 -3.49691e-08 12 0 C 12.4 0 12.6 -3.49691e-08 13 0 C 13.4 0 13.6 -3.49691e-08 14 0 C 14.4 0 14.6 -3.49691e-08 15 0 C 15.4 0 15.6 -3.49691e-08 16 0 C 16.4 0 16.6 -3.49691e-08 17 0 C 17.4 0 17.6 -3.49691e-08 18 0 C 18.4 0 18.6 -3.49691e-08 19 0 C 19.4 0 19.6 -3.49691e-08 20 0 C 20.4 0 20.6 -3.49691e-08 21 0 C 21.4 0 21.6 -3.49691e-08 22 0 C 22.4 0 22.6 -3.49691e-08 23 0 C 23.4 0 23.6 -3.49691e-08 24 0 C 24.4 0 24.8 -0.2 25 0 C 25.2 0.2 25 0.6 25 1 C 25 1.4 25 1.6 25 2 C 25 2.4 25 2.6 25 3 C 25 3.4 25 3.6 25 4 C 25 4.4 25 4.6 25 5 C 25 5.4 25 5.6 25 6 C 25 6.4 25 6.6 25 7 C 25 7.4 25 7.6 25 8 C 25 8.4 25 8.6 25 9 C 25 9.4 25 9.6 25 10 C 25 10.4 25 10.6 25 11 C 25 11.4 25 11.6 25 12 C 25 12.4 25 12.6 25 13 C 25 13.4 25 13.6 25 14 C 25 14.4 25 14.6 25 15 C 25 15.4 25 15.6 25 16 C 25 16.4 25 16.6 25 17 C 25 17.4 25 17.6 25 18 C 25 18.4 25 18.6 25 19 C 25 19.4 25 19.6 25 20 C 25 20.4 25 20.6 25 21 C 25 21.4 25 21.6 25 22 C 25 22.4 25 22.6 25 23 C 25 23.4 25 23.6 25 24 C 25 24.4 25 24.6 25 25 C 25 25.4 25.2 25.8 25 26 C 24.8 26.2 24.4 26 24 26 C 23.6 26 23.4 26 23 26 C 22.6 26 22.4 26 22 26 C 21.6 26 21.4 26 21 26 C 20.6 26 20.4 26 20 26 C 19.6 26 19.4 26 19 26 C 18.6 26 18.4 26 18 26 C 17.6 26 17.4 26 17 26 C 16.6 26 16.4 26 16 26 C 15.6 26 15.4 26 15 26 C 14.6 26 14.4 26 14 26 C 13.6 26 13.4 26 13 26 C 12.6 26 12.4 26 12 26 C 11.6 26 11.4 26 11 26 C 10.6 26 10.4 26 10 26 C 9.6 26 9.4 26 9 26 C 8.6 26 8.4 26 8 26 C 7.6 26 7.4 26 7 26 C 6.6 26 6.4 26 6 26 C 5.6 26 5.4 26 5 26 C 4.6 26 4.4 26 4 26 C 3.6 26 3.4 26 3 26 C 2.6 26 2.4 26 2 26 C 1.6 26 1.4 26 1 26 C 0.6 26 0.2 26.2 0 26 C -0.2 25.8 3.01992e-08 25.4 0 25 C -1.74846e-08 24.6 3.01992e-08 24.4 0 24 C -1.74846e-08 23.6 3.01992e-08 23.4 0 23 C -1.74846e-08 22.6 3.01992e-08 22.4 0 22 C -1.74846e-08 21.6 3.01992e-08 21.4 0 21 C -1.74846e-08 20.6 3.01992e-08 20.4 0 20 C -1.74846e-08 19.6 3.01992e-08 19.4 0 19 C -1.74846e-08 18.6 3.01992e-08 18.4 0 18 C -1.74846e-08 17.6 3.01992e-08 17.4 0 17 C -1.74846e-08 16.6 3.01992e-08 16.4 0 16 C -1.74846e-08 15.6 3.01992e-08 15.4 0 15 C -1.74846e-08 14.6 3.01992e-08 14.4 0 14 C -1.74846e-08 13.6 3.01992e-08 13.4 0 13 C -1.74846e-08 12.6 3.01992e-08 12.4 0 12 C -1.74846e-08 11.6 3.01992e-08 11.4 0 11 C -1.74846e-08 10.6 3.01992e-08 10.4 0 10 C -1.74846e-08 9.6 3.01992e-08 9.4 0 9 C -1.74846e-08 8.6 3.01992e-08 8.4 0 8 C -1.74846e-08 7.6 3.01992e-08 7.4 0 7 C -1.74846e-08 6.6 3.01992e-08 6.4 0 6 C -1.74846e-08 5.6 3.01992e-08 5.4 0 5 C -1.74846e-08 4.6 3.01992e-08 4.4 0 4 C -1.74846e-08 3.6 3.01992e-08 3.4 0 3 C -1.74846e-08 2.6 3.01992e-08 2.4 0 2 C -1.74846e-08 1.6 3.01992e-08 1.4 0 1 C -1.74846e-08 0.6 -0.2 0.2 0 0 " fill = "rgb(235, 0, 235)" stroke = "rgb(235, 0, 235)" stroke-width = "0"/>
    <path d="M 8.25 1.25 C 8.45 1.05 8.85 0.85 9 1 C 9.15 1.15 9.2 1.8 9 2 C 8.8 2.2 8.15 2.15 8 2 C 7.85 1.85 8.05 1.45 8.25 1.25 " fill = "rgb(251, 251, 252)" stroke = "rgb(251, 251, 252)" stroke-width = "0"/>
    <path d="M 9 1 C 9.2 0.8 9.8 0.8 10 1 C 10.2 1.2 10.2 1.8 10 2 C 9.8 2.2 9.2 2.2 9 2 C 8.8 1.8 8.8 1.2 9 1 " fill = "rgb(249, 250, 251)" stroke = "rgb(249, 250, 251)" stroke-width = "0"/>
    <path d="M 10 1 C 10.2 0.8 10.6 1 11 1 C 11.4 1 11.6 1 12 1 C 12.4 1 12.6 1 13 1 C 13.4 1 13.8 0.8 14 1 C 14.2 1.2 14.2 1.8 14 2 C 13.8 2.2 13.4 2 13 2 C 12.6 2 12.4 2 12 2 C 11.6 2 11.4 2 11 2 C 10.6 2 10.2 2.2 10 2 C 9.8 1.8 9.8 1.2 10 1 " fill = "rgb(249, 249, 250)" stroke = "rgb(249, 249, 250)" stroke-width = "0"/>
    <path d="M 14 1 C 14.2 0.8 14.8 0.8 15 1 C 15.2 1.2 15.2 1.8 15 2 C 14.8 2.2 14.2 2.2 14 2 C 13.8 1.8 13.8 1.2 14 1 " fill = "rgb(250, 250, 251)" stroke = "rgb(250, 250, 251)" stroke-width = "0"/>
    <path d="M 15 1 C 15.15 0.85 15.55 1.05 15.75 1.25 C 15.95 1.45 16.15 1.85 16 2 C 15.85 2.15 15.2 2.2 15 2 C 14.8 1.8 14.85 1.15 15 1 " fill = "rgb(254, 254, 254)" stroke = "rgb(254, 254, 254)" stroke-width = "0"/>
    <path d="M 8 2 C 8.2 1.8 8.8 1.8 9 2 C 9.2 2.2 9.2 2.8 9 3 C 8.8 3.2 8.2 3.2 8 3 C 7.8 2.8 7.8 2.2 8 2 " fill = "rgb(147, 146, 171)" stroke = "rgb(147, 146, 171)" stroke-width = "0"/>
    <path d="M 9 2 C 9.2 1.8 9.8 1.8 10 2 C 10.2 2.2 10.2 2.8 10 3 C 9.8 3.2 9.2 3.2 9 3 C 8.8 2.8 8.8 2.2 9 2 " fill = "rgb(78, 81, 121)" stroke = "rgb(78, 81, 121)" stroke-width = "0"/>
    <path d="M 10 2 C 10.2 1.8 10.8 1.8 11 2 C 11.2 2.2 11.2 2.8 11 3 C 10.8 3.2 10.2 3.2 10 3 C 9.8 2.8 9.8 2.2 10 2 " fill = "rgb(43, 51, 98)" stroke = "rgb(43, 51, 98)" stroke-width = "0"/>
    <path d="M 11 2 C 11.2 1.8 11.8 1.8 12 2 C 12.2 2.2 12.2 2.8 12 3 C 11.8 3.2 11.2 3.2 11 3 C 10.8 2.8 10.8 2.2 11 2 " fill = "rgb(44, 51, 98)" stroke = "rgb(44, 51, 98)" stroke-width = "0"/>
    <path d="M 12 2 C 12.2 1.8 12.8 1.8 13 2 C 13.2 2.2 13.2 2.8 13 3 C 12.8 3.2 12.2 3.2 12 3 C 11.8 2.8 11.8 2.2 12 2 " fill = "rgb(43, 50, 98)" stroke = "rgb(43, 50, 98)" stroke-width = "0"/>
    <path d="M 13 2 C 13.2 1.8 13.8 1.8 14 2 C 14.2 2.2 14.2 2.8 14 3 C 13.8 3.2 13.2 3.2 13 3 C 12.8 2.8 12.8 2.2 13 2 " fill = "rgb(62, 67, 111)" stroke = "rgb(62, 67, 111)" stroke-width = "0"/>
    <path d="M 14 2 C 14.2 1.8 14.8 1.8 15 2 C 15.2 2.2 15.2 2.8 15 3 C 14.8 3.2 14.2 3.2 14 3 C 13.8 2.8 13.8 2.2 14 2 " fill = "rgb(107, 105, 140)" stroke = "rgb(107, 105, 140)" stroke-width = "0"/>
    <path d="M 15 2 C 15.2 1.8 15.8 1.8 16 2 C 16.2 2.2 16.2 2.8 16 3 C 15.8 3.2 15.2 3.2 15 3 C 14.8 2.8 14.8 2.2 15 2 " fill = "rgb(223, 223, 230)" stroke = "rgb(223, 223, 230)" stroke-width = "0"/>
    <path d="M 6.25 3.25 C 6.45 3.05 6.85 2.85 7 3 C 7.15 3.15 7.2 3.8 7 4 C 6.8 4.2 6.15 4.15 6 4 C 5.85 3.85 6.05 3.45 6.25 3.25 " fill = "rgb(229, 228, 235)" stroke = "rgb(229, 228, 235)" stroke-width = "0"/>
    <path d="M 7 3 C 7.2 2.8 7.8 2.8 8 3 C 8.2 3.2 8.2 3.8 8 4 C 7.8 4.2 7.2 4.2 7 4 C 6.8 3.8 6.8 3.2 7 3 " fill = "rgb(159, 158, 180)" stroke = "rgb(159, 158, 180)" stroke-width = "0"/>
    <path d="M 8 3 C 8.2 2.8 8.8 2.8 9 3 C 9.2 3.2 9.2 3.8 9 4 C 8.8 4.2 8.2 4.2 8 4 C 7.8 3.8 7.8 3.2 8 3 " fill = "rgb(63, 66, 111)" stroke = "rgb(63, 66, 111)" stroke-width = "0"/>
    <path d="M 9 3 C 9.2 2.8 9.8 2.8 10 3 C 10.2 3.2 10.2 3.8 10 4 C 9.8 4.2 9.2 4.2 9 4 C 8.8 3.8 8.8 3.2 9 3 " fill = "rgb(67, 60, 71)" stroke = "rgb(67, 60, 71)" stroke-width = "0"/>
    <path d="M 10 3 C 10.2 2.8 10.8 2.8 11 3 C 11.2 3.2 11.2 3.8 11 4 C 10.8 4.2 10.2 4.2 10 4 C 9.8 3.8 9.8 3.2 10 3 " fill = "rgb(120, 102, 58)" stroke = "rgb(120, 102, 58)" stroke-width = "0"/>
    <path d="M 11 3 C 11.2 2.8 11.8 2.8 12 3 C 12.2 3.2 12.2 3.8 12 4 C 11.8 4.2 11.2 4.2 11 4 C 10.8 3.8 10.8 3.2 11 3 " fill = "rgb(135, 136, 88)" stroke = "rgb(135, 136, 88)" stroke-width = "0"/>
    <path d="M 12 3 C 12.2 2.8 12.8 2.8 13 3 C 13.2 3.2 13.2 3.8 13 4 C 12.8 4.2 12.2 4.2 12 4 C 11.8 3.8 11.8 3.2 12 3 " fill = "rgb(139, 128, 71)" stroke = "rgb(139, 128, 71)" stroke-width = "0"/>
    <path d="M 13 3 C 13.2 2.8 13.8 2.8 14 3 C 14.2 3.2 14.2 3.8 14 4 C 13.8 4.2 13.2 4.2 13 4 C 12.8 3.8 12.8 3.2 13 3 " fill = "rgb(107, 94, 66)" stroke = "rgb(107, 94, 66)" stroke-width = "0"/>
    <path d="M 14 3 C 14.2 2.8 14.8 2.8 15 3 C 15.2 3.2 15.2 3.8 15 4 C 14.8 4.2 14.2 4.2 14 4 C 13.8 3.8 13.8 3.2 14 3 " fill = "rgb(27, 32, 87)" stroke = "rgb(27, 32, 87)" stroke-width = "0"/>
    <path d="M 15 3 C 15.2 2.8 15.8 2.8 16 3 C 16.2 3.2 16.2 3.8 16 4 C 15.8 4.2 15.2 4.2 15 4 C 14.8 3.8 14.8 3.2 15 3 " fill = "rgb(126, 127, 156)" stroke = "rgb(126, 127, 156)" stroke-width = "0"/>
    <path d="M 16 3 C 16.15 2.85 16.55 3.05 16.75 3.25 C 16.95 3.45 17.15 3.85 17 4 C 16.85 4.15 16.2 4.2 16 4 C 15.8 3.8 15.85 3.15 16 3 " fill = "rgb(204, 203, 215)" stroke = "rgb(204, 203, 215)" stroke-width = "0"/>
    <path d="M 6 4 C 6.2 3.8 6.8 3.8 7 4 C 7.2 4.2 7.2 4.8 7 5 C 6.8 5.2 6.2 5.2 6 5 C 5.8 4.8 5.8 4.2 6 4 " fill = "rgb(200, 200, 212)" stroke = "rgb(200, 200, 212)" stroke-width = "0"/>
    <path d="M 7 4 C 7.2 3.8 7.8 3.8 8 4 C 8.2 4.2 8.2 4.8 8 5 C 7.8 5.2 7.2 5.2 7 5 C 6.8 4.8 6.8 4.2 7 4 " fill = "rgb(45, 47, 95)" stroke = "rgb(45, 47, 95)" stroke-width = "0"/>
    <path d="M 8 4 C 8.2 3.8 8.8 3.8 9 4 C 9.2 4.2 9.2 4.8 9 5 C 8.8 5.2 8.2 5.2 8 5 C 7.8 4.8 7.8 4.2 8 4 " fill = "rgb(58, 56, 72)" stroke = "rgb(58, 56, 72)" stroke-width = "0"/>
    <path d="M 9 4 C 9.2 3.8 9.8 3.8 10 4 C 10.2 4.2 10.2 4.8 10 5 C 9.8 5.2 9.2 5.2 9 5 C 8.8 4.8 8.8 4.2 9 4 " fill = "rgb(136, 114, 56)" stroke = "rgb(136, 114, 56)" stroke-width = "0"/>
    <path d="M 10 4 C 10.2 3.8 10.8 3.8 11 4 C 11.2 4.2 11.2 4.8 11 5 C 10.8 5.2 10.2 5.2 10 5 C 9.8 4.8 9.8 4.2 10 4 " fill = "rgb(238, 195, 57)" stroke = "rgb(238, 195, 57)" stroke-width = "0"/>
    <path d="M 11 4 C 11.2 3.8 11.8 3.8 12 4 C 12.2 4.2 12.2 4.8 12 5 C 11.8 5.2 11.2 5.2 11 5 C 10.8 4.8 10.8 4.2 11 4 " fill = "rgb(255, 242, 99)" stroke = "rgb(255, 242, 99)" stroke-width = "0"/>
    <path d="M 12 4 C 12.2 3.8 12.8 3.8 13 4 C 13.2 4.2 13.2 4.8 13 5 C 12.8 5.2 12.2 5.2 12 5 C 11.8 4.8 11.8 4.2 12 4 " fill = "rgb(255, 237, 84)" stroke = "rgb(255, 237, 84)" stroke-width = "0"/>
    <path d="M 13 4 C 13.2 3.8 13.8 3.8 14 4 C 14.2 4.2 14.2 4.8 14 5 C 13.8 5.2 13.2 5.2 13 5 C 12.8 4.8 12.8 4.2 13 4 " fill = "rgb(205, 178, 67)" stroke = "rgb(205, 178, 67)" stroke-width = "0"/>
    <path d="M 14 4 C 14.2 3.8 14.8 3.8 15 4 C 15.2 4.2 15.2 4.8 15 5 C 14.8 5.2 14.2 5.2 14 5 C 13.8 4.8 13.8 4.2 14 4 " fill = "rgb(58, 55, 61)" stroke = "rgb(58, 55, 61)" stroke-width = "0"/>
    <path d="M 15 4 C 15.2 3.8 15.8 3.8 16 4 C 16.2 4.2 16.2 4.8 16 5 C 15.8 5.2 15.2 5.2 15 5 C 14.8 4.8 14.8 4.2 15 4 " fill = "rgb(51, 51, 87)" stroke = "rgb(51, 51, 87)" stroke-width = "0"/>
    <path d="M 16 4 C 16.2 3.8 16.8 3.8 17 4 C 17.2 4.2 17.2 4.8 17 5 C 16.8 5.2 16.2 5.2 16 5 C 15.8 4.8 15.8 4.2 16 4 " fill = "rgb(144, 144, 170)" stroke = "rgb(144, 144, 170)" stroke-width = "0"/>
    <path d="M 6 5 C 6.2 4.8 6.8 4.8 7 5 C 7.2 5.2 7.2 5.8 7 6 C 6.8 6.2 6.2 6.2 6 6 C 5.8 5.8 5.8 5.2 6 5 " fill = "rgb(191, 194, 207)" stroke = "rgb(191, 194, 207)" stroke-width = "0"/>
    <path d="M 7 5 C 7.2 4.8 7.8 4.8 8 5 C 8.2 5.2 8.2 5.8 8 6 C 7.8 6.2 7.2 6.2 7 6 C 6.8 5.8 6.8 5.2 7 5 " fill = "rgb(0, 0, 57)" stroke = "rgb(0, 0, 57)" stroke-width = "0"/>
    <path d="M 8 5 C 8.2 4.8 8.8 4.8 9 5 C 9.2 5.2 9.2 5.8 9 6 C 8.8 6.2 8.2 6.2 8 6 C 7.8 5.8 7.8 5.2 8 5 " fill = "rgb(199, 166, 57)" stroke = "rgb(199, 166, 57)" stroke-width = "0"/>
    <path d="M 9 5 C 9.2 4.8 9.8 4.8 10 5 C 10.2 5.2 10.2 5.8 10 6 C 9.8 6.2 9.2 6.2 9 6 C 8.8 5.8 8.8 5.2 9 5 " fill = "rgb(255, 218, 56)" stroke = "rgb(255, 218, 56)" stroke-width = "0"/>
    <path d="M 10 5 C 10.2 4.8 10.8 4.8 11 5 C 11.2 5.2 11.2 5.8 11 6 C 10.8 6.2 10.2 6.2 10 6 C 9.8 5.8 9.8 5.2 10 5 " fill = "rgb(255, 214, 57)" stroke = "rgb(255, 214, 57)" stroke-width = "0"/>
    <path d="M 11 5 C 11.2 4.8 11.8 4.8 12 5 C 12.2 5.2 12.2 5.8 12 6 C 11.8 6.2 11.2 6.2 11 6 C 10.8 5.8 10.8 5.2 11 5 " fill = "rgb(255, 214, 51)" stroke = "rgb(255, 214, 51)" stroke-width = "0"/>
    <path d="M 12 5 C 12.2 4.8 12.8 4.8 13 5 C 13.2 5.2 13.2 5.8 13 6 C 12.8 6.2 12.2 6.2 12 6 C 11.8 5.8 11.8 5.2 12 5 " fill = "rgb(255, 244, 93)" stroke = "rgb(255, 244, 93)" stroke-width = "0"/>
    <path d="M 13 5 C 13.2 4.8 13.8 4.8 14 5 C 14.2 5.2 14.2 5.8 14 6 C 13.8 6.2 13.2 6.2 13 6 C 12.8 5.8 12.8 5.2 13 5 " fill = "rgb(255, 250, 102)" stroke = "rgb(255, 250, 102)" stroke-width = "0"/>
    <path d="M 14 5 C 14.2 4.8 14.8 4.8 15 5 C 15.2 5.2 15.2 5.8 15 6 C 14.8 6.2 14.2 6.2 14 6 C 13.8 5.8 13.8 5.2 14 5 " fill = "rgb(255, 218, 52)" stroke = "rgb(255, 218, 52)" stroke-width = "0"/>
    <path d="M 15 5 C 15.2 4.8 15.8 4.8 16 5 C 16.2 5.2 16.2 5.8 16 6 C 15.8 6.2 15.2 6.2 15 6 C 14.8 5.8 14.8 5.2 15 5 " fill = "rgb(62, 57, 57)" stroke = "rgb(62, 57, 57)" stroke-width = "0"/>
    <path d="M 16 5 C 16.2 4.8 16.8 4.8 17 5 C 17.2 5.2 17.2 5.8 17 6 C 16.8 6.2 16.2 6.2 16 6 C 15.8 5.8 15.8 5.2 16 5 " fill = "rgb(114, 119, 150)" stroke = "rgb(114, 119, 150)" stroke-width = "0"/>
    <path d="M 5.25 6.25 C 5.45 6.05 5.85 5.85 6 6 C 6.15 6.15 6.2 6.8 6 7 C 5.8 7.2 5.15 7.15 5 7 C 4.85 6.85 5.05 6.45 5.25 6.25 " fill = "rgb(177, 176, 194)" stroke = "rgb(177, 176, 194)" stroke-width = "0"/>
    <path d="M 6 6 C 6.2 5.8 6.8 5.8 7 6 C 7.2 6.2 7.2 6.8 7 7 C 6.8 7.2 6.2 7.2 6 7 C 5.8 6.8 5.8 6.2 6 6 " fill = "rgb(84, 86, 125)" stroke = "rgb(84, 86, 125)" stroke-width = "0"/>
    <path d="M 7 6 C 7.2 5.8 7.8 5.8 8 6 C 8.2 6.2 8.2 6.8 8 7 C 7.8 7.2 7.2 7.2 7 7 C 6.8 6.8 6.8 6.2 7 6 " fill = "rgb(0, 1, 62)" stroke = "rgb(0, 1, 62)" stroke-width = "0"/>
    <path d="M 8 6 C 8.2 5.8 8.8 5.8 9 6 C 9.2 6.2 9.2 6.8 9 7 C 8.8 7.2 8.2 7.2 8 7 C 7.8 6.8 7.8 6.2 8 6 " fill = "rgb(192, 185, 93)" stroke = "rgb(192, 185, 93)" stroke-width = "0"/>
    <path d="M 9 6 C 9.2 5.8 9.8 5.8 10 6 C 10.2 6.2 10.2 6.8 10 7 C 9.8 7.2 9.2 7.2 9 7 C 8.8 6.8 8.8 6.2 9 6 " fill = "rgb(248, 220, 79)" stroke = "rgb(248, 220, 79)" stroke-width = "0"/>
    <path d="M 10 6 C 10.2 5.8 10.8 5.8 11 6 C 11.2 6.2 11.2 6.8 11 7 C 10.8 7.2 10.2 7.2 10 7 C 9.8 6.8 9.8 6.2 10 6 " fill = "rgb(213, 171, 55)" stroke = "rgb(213, 171, 55)" stroke-width = "0"/>
    <path d="M 11 6 C 11.2 5.8 11.8 5.8 12 6 C 12.2 6.2 12.2 6.8 12 7 C 11.8 7.2 11.2 7.2 11 7 C 10.8 6.8 10.8 6.2 11 6 " fill = "rgb(126, 111, 94)" stroke = "rgb(126, 111, 94)" stroke-width = "0"/>
    <path d="M 12 6 C 12.2 5.8 12.8 5.8 13 6 C 13.2 6.2 13.2 6.8 13 7 C 12.8 7.2 12.2 7.2 12 7 C 11.8 6.8 11.8 6.2 12 6 " fill = "rgb(81, 81, 85)" stroke = "rgb(81, 81, 85)" stroke-width = "0"/>
    <path d="M 13 6 C 13.2 5.8 13.8 5.8 14 6 C 14.2 6.2 14.2 6.8 14 7 C 13.8 7.2 13.2 7.2 13 7 C 12.8 6.8 12.8 6.2 13 6 " fill = "rgb(121, 121, 83)" stroke = "rgb(121, 121, 83)" stroke-width = "0"/>
    <path d="M 14 6 C 14.2 5.8 14.8 5.8 15 6 C 15.2 6.2 15.2 6.8 15 7 C 14.8 7.2 14.2 7.2 14 7 C 13.8 6.8 13.8 6.2 14 6 " fill = "rgb(255, 255, 103)" stroke = "rgb(255, 255, 103)" stroke-width = "0"/>
    <path d="M 15 6 C 15.2 5.8 15.8 5.8 16 6 C 16.2 6.2 16.2 6.8 16 7 C 15.8 7.2 15.2 7.2 15 7 C 14.8 6.8 14.8 6.2 15 6 " fill = "rgb(62, 65, 69)" stroke = "rgb(62, 65, 69)" stroke-width = "0"/>
    <path d="M 16 6 C 16.2 5.8 16.8 5.8 17 6 C 17.2 6.2 17.2 6.8 17 7 C 16.8 7.2 16.2 7.2 16 7 C 15.8 6.8 15.8 6.2 16 6 " fill = "rgb(114, 119, 149)" stroke = "rgb(114, 119, 149)" stroke-width = "0"/>
    <path d="M 5 7 C 5.2 6.8 5.8 6.8 6 7 C 6.2 7.2 6.2 7.8 6 8 C 5.8 8.2 5.2 8.2 5 8 C 4.8 7.8 4.8 7.2 5 7 " fill = "rgb(128, 130, 159)" stroke = "rgb(128, 130, 159)" stroke-width = "0"/>
    <path d="M 6 7 C 6.2 6.8 6.8 6.8 7 7 C 7.2 7.2 7.2 7.8 7 8 C 6.8 8.2 6.2 8.2 6 8 C 5.8 7.8 5.8 7.2 6 7 " fill = "rgb(58, 56, 79)" stroke = "rgb(58, 56, 79)" stroke-width = "0"/>
    <path d="M 7 7 C 7.2 6.8 7.8 6.8 8 7 C 8.2 7.2 8.2 7.8 8 8 C 7.8 8.2 7.2 8.2 7 8 C 6.8 7.8 6.8 7.2 7 7 " fill = "rgb(120, 103, 59)" stroke = "rgb(120, 103, 59)" stroke-width = "0"/>
    <path d="M 8 7 C 8.2 6.8 8.8 6.8 9 7 C 9.2 7.2 9.2 7.8 9 8 C 8.8 8.2 8.2 8.2 8 8 C 7.8 7.8 7.8 7.2 8 7 " fill = "rgb(225, 219, 104)" stroke = "rgb(225, 219, 104)" stroke-width = "0"/>
    <path d="M 9 7 C 9.2 6.8 9.8 6.8 10 7 C 10.2 7.2 10.2 7.8 10 8 C 9.8 8.2 9.2 8.2 9 8 C 8.8 7.8 8.8 7.2 9 7 " fill = "rgb(198, 187, 90)" stroke = "rgb(198, 187, 90)" stroke-width = "0"/>
    <path d="M 10 7 C 10.2 6.8 10.8 6.8 11 7 C 11.2 7.2 11.2 7.8 11 8 C 10.8 8.2 10.2 8.2 10 8 C 9.8 7.8 9.8 7.2 10 7 " fill = "rgb(120, 101, 70)" stroke = "rgb(120, 101, 70)" stroke-width = "0"/>
    <path d="M 11 7 C 11.2 6.8 11.8 6.8 12 7 C 12.2 7.2 12.2 7.8 12 8 C 11.8 8.2 11.2 8.2 11 8 C 10.8 7.8 10.8 7.2 11 7 " fill = "rgb(156, 155, 173)" stroke = "rgb(156, 155, 173)" stroke-width = "0"/>
    <path d="M 12 7 C 12.2 6.8 12.8 6.8 13 7 C 13.2 7.2 13.2 7.8 13 8 C 12.8 8.2 12.2 8.2 12 8 C 11.8 7.8 11.8 7.2 12 7 " fill = "rgb(80, 83, 125)" stroke = "rgb(80, 83, 125)" stroke-width = "0"/>
    <path d="M 13 7 C 13.2 6.8 13.8 6.8 14 7 C 14.2 7.2 14.2 7.8 14 8 C 13.8 8.2 13.2 8.2 13 8 C 12.8 7.8 12.8 7.2 13 7 " fill = "rgb(60, 64, 85)" stroke = "rgb(60, 64, 85)" stroke-width = "0"/>
    <path d="M 14 7 C 14.2 6.8 14.8 6.8 15 7 C 15.2 7.2 15.2 7.8 15 8 C 14.8 8.2 14.2 8.2 14 8 C 13.8 7.8 13.8 7.2 14 7 " fill = "rgb(145, 147, 92)" stroke = "rgb(145, 147, 92)" stroke-width = "0"/>
    <path d="M 15 7 C 15.2 6.8 15.8 6.8 16 7 C 16.2 7.2 16.2 7.8 16 8 C 15.8 8.2 15.2 8.2 15 8 C 14.8 7.8 14.8 7.2 15 7 " fill = "rgb(56, 59, 84)" stroke = "rgb(56, 59, 84)" stroke-width = "0"/>
    <path d="M 16 7 C 16.2 6.8 16.8 6.8 17 7 C 17.2 7.2 17.2 7.8 17 8 C 16.8 8.2 16.2 8.2 16 8 C 15.8 7.8 15.8 7.2 16 7 " fill = "rgb(133, 135, 162)" stroke = "rgb(133, 135, 162)" stroke-width = "0"/>
    <path d="M 3.25 8.25 C 3.45 8.05 3.85 7.85 4 8 C 4.15 8.15 4.2 8.8 4 9 C 3.8 9.2 3.15 9.15 3 9 C 2.85 8.85 3.05 8.45 3.25 8.25 " fill = "rgb(252, 252, 252)" stroke = "rgb(252, 252, 252)" stroke-width = "0"/>
    <path d="M 4 8 C 4.2 7.8 4.8 7.8 5 8 C 5.2 8.2 5.2 8.8 5 9 C 4.8 9.2 4.2 9.2 4 9 C 3.8 8.8 3.8 8.2 4 8 " fill = "rgb(235, 234, 239)" stroke = "rgb(235, 234, 239)" stroke-width = "0"/>
    <path d="M 5 8 C 5.2 7.8 5.8 7.8 6 8 C 6.2 8.2 6.2 8.8 6 9 C 5.8 9.2 5.2 9.2 5 9 C 4.8 8.8 4.8 8.2 5 8 " fill = "rgb(91, 97, 133)" stroke = "rgb(91, 97, 133)" stroke-width = "0"/>
    <path d="M 6 8 C 6.2 7.8 6.8 7.8 7 8 C 7.2 8.2 7.2 8.8 7 9 C 6.8 9.2 6.2 9.2 6 9 C 5.8 8.8 5.8 8.2 6 8 " fill = "rgb(72, 65, 59)" stroke = "rgb(72, 65, 59)" stroke-width = "0"/>
    <path d="M 7 8 C 7.2 7.8 7.8 7.8 8 8 C 8.2 8.2 8.2 8.8 8 9 C 7.8 9.2 7.2 9.2 7 9 C 6.8 8.8 6.8 8.2 7 8 " fill = "rgb(255, 223, 55)" stroke = "rgb(255, 223, 55)" stroke-width = "0"/>
    <path d="M 8 8 C 8.2 7.8 8.8 7.8 9 8 C 9.2 8.2 9.2 8.8 9 9 C 8.8 9.2 8.2 9.2 8 9 C 7.8 8.8 7.8 8.2 8 8 " fill = "rgb(255, 248, 102)" stroke = "rgb(255, 248, 102)" stroke-width = "0"/>
    <path d="M 9 8 C 9.2 7.8 9.8 7.8 10 8 C 10.2 8.2 10.2 8.8 10 9 C 9.8 9.2 9.2 9.2 9 9 C 8.8 8.8 8.8 8.2 9 8 " fill = "rgb(143, 146, 93)" stroke = "rgb(143, 146, 93)" stroke-width = "0"/>
    <path d="M 10 8 C 10.2 7.8 10.8 7.8 11 8 C 11.2 8.2 11.2 8.8 11 9 C 10.8 9.2 10.2 9.2 10 9 C 9.8 8.8 9.8 8.2 10 8 " fill = "rgb(23, 32, 86)" stroke = "rgb(23, 32, 86)" stroke-width = "0"/>
    <path d="M 11 8 C 11.2 7.8 11.8 7.8 12 8 C 12.2 8.2 12.2 8.8 12 9 C 11.8 9.2 11.2 9.2 11 9 C 10.8 8.8 10.8 8.2 11 8 " fill = "rgb(212, 213, 223)" stroke = "rgb(212, 213, 223)" stroke-width = "0"/>
    <path d="M 12 8 C 12.2 7.8 12.8 7.8 13 8 C 13.2 8.2 13.2 8.8 13 9 C 12.8 9.2 12.2 9.2 12 9 C 11.8 8.8 11.8 8.2 12 8 " fill = "rgb(158, 157, 180)" stroke = "rgb(158, 157, 180)" stroke-width = "0"/>
    <path d="M 13 8 C 13.2 7.8 13.8 7.8 14 8 C 14.2 8.2 14.2 8.8 14 9 C 13.8 9.2 13.2 9.2 13 9 C 12.8 8.8 12.8 8.2 13 8 " fill = "rgb(85, 86, 125)" stroke = "rgb(85, 86, 125)" stroke-width = "0"/>
    <path d="M 14 8 C 14.2 7.8 14.8 7.8 15 8 C 15.2 8.2 15.2 8.8 15 9 C 14.8 9.2 14.2 9.2 14 9 C 13.8 8.8 13.8 8.2 14 8 " fill = "rgb(39, 46, 94)" stroke = "rgb(39, 46, 94)" stroke-width = "0"/>
    <path d="M 15 8 C 15.2 7.8 15.8 7.8 16 8 C 16.2 8.2 16.2 8.8 16 9 C 15.8 9.2 15.2 9.2 15 9 C 14.8 8.8 14.8 8.2 15 8 " fill = "rgb(86, 87, 126)" stroke = "rgb(86, 87, 126)" stroke-width = "0"/>
    <path d="M 16 8 C 16.2 7.8 16.85 7.85 17 8 C 17.15 8.15 16.95 8.55 16.75 8.75 C 16.55 8.95 16.15 9.15 16 9 C 15.85 8.85 15.8 8.2 16 8 " fill = "rgb(173, 173, 192)" stroke = "rgb(173, 173, 192)" stroke-width = "0"/>
    <path d="M 3 9 C 3.2 8.8 3.8 8.8 4 9 C 4.2 9.2 4.2 9.8 4 10 C 3.8 10.2 3.2 10.2 3 10 C 2.8 9.8 2.8 9.2 3 9 " fill = "rgb(240, 240, 244)" stroke = "rgb(240, 240, 244)" stroke-width = "0"/>
    <path d="M 4 9 C 4.2 8.8 4.8 8.8 5 9 C 5.2 9.2 5.2 9.8 5 10 C 4.8 10.2 4.2 10.2 4 10 C 3.8 9.8 3.8 9.2 4 9 " fill = "rgb(105, 103, 139)" stroke = "rgb(105, 103, 139)" stroke-width = "0"/>
    <path d="M 5 9 C 5.2 8.8 5.8 8.8 6 9 C 6.2 9.2 6.2 9.8 6 10 C 5.8 10.2 5.2 10.2 5 10 C 4.8 9.8 4.8 9.2 5 9 " fill = "rgb(33, 36, 89)" stroke = "rgb(33, 36, 89)" stroke-width = "0"/>
    <path d="M 6 9 C 6.2 8.8 6.8 8.8 7 9 C 7.2 9.2 7.2 9.8 7 10 C 6.8 10.2 6.2 10.2 6 10 C 5.8 9.8 5.8 9.2 6 9 " fill = "rgb(73, 66, 64)" stroke = "rgb(73, 66, 64)" stroke-width = "0"/>
    <path d="M 7 9 C 7.2 8.8 7.8 8.8 8 9 C 8.2 9.2 8.2 9.8 8 10 C 7.8 10.2 7.2 10.2 7 10 C 6.8 9.8 6.8 9.2 7 9 " fill = "rgb(255, 219, 55)" stroke = "rgb(255, 219, 55)" stroke-width = "0"/>
    <path d="M 8 9 C 8.2 8.8 8.8 8.8 9 9 C 9.2 9.2 9.2 9.8 9 10 C 8.8 10.2 8.2 10.2 8 10 C 7.8 9.8 7.8 9.2 8 9 " fill = "rgb(255, 247, 102)" stroke = "rgb(255, 247, 102)" stroke-width = "0"/>
    <path d="M 9 9 C 9.2 8.8 9.8 8.8 10 9 C 10.2 9.2 10.2 9.8 10 10 C 9.8 10.2 9.2 10.2 9 10 C 8.8 9.8 8.8 9.2 9 9 " fill = "rgb(143, 146, 94)" stroke = "rgb(143, 146, 94)" stroke-width = "0"/>
    <path d="M 10 9 C 10.2 8.8 10.8 8.8 11 9 C 11.2 9.2 11.2 9.8 11 10 C 10.8 10.2 10.2 10.2 10 10 C 9.8 9.8 9.8 9.2 10 9 " fill = "rgb(3, 12, 72)" stroke = "rgb(3, 12, 72)" stroke-width = "0"/>
    <path d="M 11 9 C 11.2 8.8 11.8 8.8 12 9 C 12.2 9.2 12.2 9.8 12 10 C 11.8 10.2 11.2 10.2 11 10 C 10.8 9.8 10.8 9.2 11 9 " fill = "rgb(70, 70, 113)" stroke = "rgb(70, 70, 113)" stroke-width = "0"/>
    <path d="M 12 9 C 12.2 8.8 12.8 8.8 13 9 C 13.2 9.2 13.2 9.8 13 10 C 12.8 10.2 12.2 10.2 12 10 C 11.8 9.8 11.8 9.2 12 9 " fill = "rgb(183, 182, 199)" stroke = "rgb(183, 182, 199)" stroke-width = "0"/>
    <path d="M 13 9 C 13.2 8.8 13.8 8.8 14 9 C 14.2 9.2 14.2 9.8 14 10 C 13.8 10.2 13.2 10.2 13 10 C 12.8 9.8 12.8 9.2 13 9 " fill = "rgb(253, 253, 253)" stroke = "rgb(253, 253, 253)" stroke-width = "0"/>
    <path d="M 14 9 C 14.2 8.8 14.8 8.8 15 9 C 15.2 9.2 15.2 9.8 15 10 C 14.8 10.2 14.2 10.2 14 10 C 13.8 9.8 13.8 9.2 14 9 " fill = "rgb(252, 252, 253)" stroke = "rgb(252, 252, 253)" stroke-width = "0"/>
    <path d="M 2.25 10.25 C 2.45 10.05 2.85 9.85 3 10 C 3.15 10.15 3.2 10.8 3 11 C 2.8 11.2 2.15 11.15 2 11 C 1.85 10.85 2.05 10.45 2.25 10.25 " fill = "rgb(206, 206, 217)" stroke = "rgb(206, 206, 217)" stroke-width = "0"/>
    <path d="M 3 10 C 3.2 9.8 3.8 9.8 4 10 C 4.2 10.2 4.2 10.8 4 11 C 3.8 11.2 3.2 11.2 3 11 C 2.8 10.8 2.8 10.2 3 10 " fill = "rgb(117, 117, 149)" stroke = "rgb(117, 117, 149)" stroke-width = "0"/>
    <path d="M 4 10 C 4.2 9.8 4.8 9.8 5 10 C 5.2 10.2 5.2 10.8 5 11 C 4.8 11.2 4.2 11.2 4 11 C 3.8 10.8 3.8 10.2 4 10 " fill = "rgb(35, 38, 91)" stroke = "rgb(35, 38, 91)" stroke-width = "0"/>
    <path d="M 5 10 C 5.2 9.8 5.8 9.8 6 10 C 6.2 10.2 6.2 10.8 6 11 C 5.8 11.2 5.2 11.2 5 11 C 4.8 10.8 4.8 10.2 5 10 " fill = "rgb(20, 56, 43)" stroke = "rgb(20, 56, 43)" stroke-width = "0"/>
    <path d="M 6 10 C 6.2 9.8 6.8 9.8 7 10 C 7.2 10.2 7.2 10.8 7 11 C 6.8 11.2 6.2 11.2 6 11 C 5.8 10.8 5.8 10.2 6 10 " fill = "rgb(82, 109, 28)" stroke = "rgb(82, 109, 28)" stroke-width = "0"/>
    <path d="M 7 10 C 7.2 9.8 7.8 9.8 8 10 C 8.2 10.2 8.2 10.8 8 11 C 7.8 11.2 7.2 11.2 7 11 C 6.8 10.8 6.8 10.2 7 10 " fill = "rgb(238, 187, 52)" stroke = "rgb(238, 187, 52)" stroke-width = "0"/>
    <path d="M 8 10 C 8.2 9.8 8.8 9.8 9 10 C 9.2 10.2 9.2 10.8 9 11 C 8.8 11.2 8.2 11.2 8 11 C 7.8 10.8 7.8 10.2 8 10 " fill = "rgb(252, 238, 102)" stroke = "rgb(252, 238, 102)" stroke-width = "0"/>
    <path d="M 9 10 C 9.2 9.8 9.8 9.8 10 10 C 10.2 10.2 10.2 10.8 10 11 C 9.8 11.2 9.2 11.2 9 11 C 8.8 10.8 8.8 10.2 9 10 " fill = "rgb(209, 196, 90)" stroke = "rgb(209, 196, 90)" stroke-width = "0"/>
    <path d="M 10 10 C 10.2 9.8 10.8 9.8 11 10 C 11.2 10.2 11.2 10.8 11 11 C 10.8 11.2 10.2 11.2 10 11 C 9.8 10.8 9.8 10.2 10 10 " fill = "rgb(128, 104, 56)" stroke = "rgb(128, 104, 56)" stroke-width = "0"/>
    <path d="M 11 10 C 11.2 9.8 11.8 9.8 12 10 C 12.2 10.2 12.2 10.8 12 11 C 11.8 11.2 11.2 11.2 11 11 C 10.8 10.8 10.8 10.2 11 10 " fill = "rgb(32, 34, 73)" stroke = "rgb(32, 34, 73)" stroke-width = "0"/>
    <path d="M 12 10 C 12.2 9.8 12.8 9.8 13 10 C 13.2 10.2 13.2 10.8 13 11 C 12.8 11.2 12.2 11.2 12 11 C 11.8 10.8 11.8 10.2 12 10 " fill = "rgb(168, 171, 189)" stroke = "rgb(168, 171, 189)" stroke-width = "0"/>
    <path d="M 13 10 C 13.2 9.8 13.8 9.8 14 10 C 14.2 10.2 14.2 10.8 14 11 C 13.8 11.2 13.2 11.2 13 11 C 12.8 10.8 12.8 10.2 13 10 " fill = "rgb(229, 229, 235)" stroke = "rgb(229, 229, 235)" stroke-width = "0"/>
    <path d="M 14 10 C 14.2 9.8 14.8 9.8 15 10 C 15.2 10.2 15.2 10.8 15 11 C 14.8 11.2 14.2 11.2 14 11 C 13.8 10.8 13.8 10.2 14 10 " fill = "rgb(131, 130, 159)" stroke = "rgb(131, 130, 159)" stroke-width = "0"/>
    <path d="M 15 10 C 15.2 9.8 15.8 9.8 16 10 C 16.2 10.2 16.2 10.8 16 11 C 15.8 11.2 15.2 11.2 15 11 C 14.8 10.8 14.8 10.2 15 10 " fill = "rgb(98, 100, 136)" stroke = "rgb(98, 100, 136)" stroke-width = "0"/>
    <path d="M 16 10 C 16.2 9.8 16.8 9.8 17 10 C 17.2 10.2 17.2 10.8 17 11 C 16.8 11.2 16.2 11.2 16 11 C 15.8 10.8 15.8 10.2 16 10 " fill = "rgb(84, 88, 127)" stroke = "rgb(84, 88, 127)" stroke-width = "0"/>
    <path d="M 17 10 C 17.2 9.8 17.8 9.8 18 10 C 18.2 10.2 18.2 10.8 18 11 C 17.8 11.2 17.2 11.2 17 11 C 16.8 10.8 16.8 10.2 17 10 " fill = "rgb(91, 95, 132)" stroke = "rgb(91, 95, 132)" stroke-width = "0"/>
    <path d="M 18 10 C 18.2 9.8 18.8 9.8 19 10 C 19.2 10.2 19.2 10.8 19 11 C 18.8 11.2 18.2 11.2 18 11 C 17.8 10.8 17.8 10.2 18 10 " fill = "rgb(125, 125, 155)" stroke = "rgb(125, 125, 155)" stroke-width = "0"/>
    <path d="M 19 10 C 19.15 9.85 19.55 10.05 19.75 10.25 C 19.95 10.45 20.15 10.85 20 11 C 19.85 11.15 19.2 11.2 19 11 C 18.8 10.8 18.85 10.15 19 10 " fill = "rgb(210, 210, 220)" stroke = "rgb(210, 210, 220)" stroke-width = "0"/>
    <path d="M 1.25 11.25 C 1.45 11.05 1.85 10.85 2 11 C 2.15 11.15 2.2 11.8 2 12 C 1.8 12.2 1.15 12.15 1 12 C 0.85 11.85 1.05 11.45 1.25 11.25 " fill = "rgb(207, 207, 218)" stroke = "rgb(207, 207, 218)" stroke-width = "0"/>
    <path d="M 2 11 C 2.2 10.8 2.8 10.8 3 11 C 3.2 11.2 3.2 11.8 3 12 C 2.8 12.2 2.2 12.2 2 12 C 1.8 11.8 1.8 11.2 2 11 " fill = "rgb(124, 124, 155)" stroke = "rgb(124, 124, 155)" stroke-width = "0"/>
    <path d="M 3 11 C 3.2 10.8 3.8 10.8 4 11 C 4.2 11.2 4.2 11.8 4 12 C 3.8 12.2 3.2 12.2 3 12 C 2.8 11.8 2.8 11.2 3 11 " fill = "rgb(46, 49, 89)" stroke = "rgb(46, 49, 89)" stroke-width = "0"/>
    <path d="M 4 11 C 4.2 10.8 4.8 10.8 5 11 C 5.2 11.2 5.2 11.8 5 12 C 4.8 12.2 4.2 12.2 4 12 C 3.8 11.8 3.8 11.2 4 11 " fill = "rgb(95, 97, 87)" stroke = "rgb(95, 97, 87)" stroke-width = "0"/>
    <path d="M 5 11 C 5.2 10.8 5.8 10.8 6 11 C 6.2 11.2 6.2 11.8 6 12 C 5.8 12.2 5.2 12.2 5 12 C 4.8 11.8 4.8 11.2 5 11 " fill = "rgb(114, 133, 46)" stroke = "rgb(114, 133, 46)" stroke-width = "0"/>
    <path d="M 6 11 C 6.2 10.8 6.8 10.8 7 11 C 7.2 11.2 7.2 11.8 7 12 C 6.8 12.2 6.2 12.2 6 12 C 5.8 11.8 5.8 11.2 6 11 " fill = "rgb(130, 152, 22)" stroke = "rgb(130, 152, 22)" stroke-width = "0"/>
    <path d="M 7 11 C 7.2 10.8 7.8 10.8 8 11 C 8.2 11.2 8.2 11.8 8 12 C 7.8 12.2 7.2 12.2 7 12 C 6.8 11.8 6.8 11.2 7 11 " fill = "rgb(144, 144, 28)" stroke = "rgb(144, 144, 28)" stroke-width = "0"/>
    <path d="M 8 11 C 8.2 10.8 8.8 10.8 9 11 C 9.2 11.2 9.2 11.8 9 12 C 8.8 12.2 8.2 12.2 8 12 C 7.8 11.8 7.8 11.2 8 11 " fill = "rgb(229, 215, 78)" stroke = "rgb(229, 215, 78)" stroke-width = "0"/>
    <path d="M 9 11 C 9.2 10.8 9.8 10.8 10 11 C 10.2 11.2 10.2 11.8 10 12 C 9.8 12.2 9.2 12.2 9 12 C 8.8 11.8 8.8 11.2 9 11 " fill = "rgb(250, 218, 76)" stroke = "rgb(250, 218, 76)" stroke-width = "0"/>
    <path d="M 10 11 C 10.2 10.8 10.8 10.8 11 11 C 11.2 11.2 11.2 11.8 11 12 C 10.8 12.2 10.2 12.2 10 12 C 9.8 11.8 9.8 11.2 10 11 " fill = "rgb(204, 165, 52)" stroke = "rgb(204, 165, 52)" stroke-width = "0"/>
    <path d="M 11 11 C 11.2 10.8 11.8 10.8 12 11 C 12.2 11.2 12.2 11.8 12 12 C 11.8 12.2 11.2 12.2 11 12 C 10.8 11.8 10.8 11.2 11 11 " fill = "rgb(21, 25, 59)" stroke = "rgb(21, 25, 59)" stroke-width = "0"/>
    <path d="M 12 11 C 12.2 10.8 12.8 10.8 13 11 C 13.2 11.2 13.2 11.8 13 12 C 12.8 12.2 12.2 12.2 12 12 C 11.8 11.8 11.8 11.2 12 11 " fill = "rgb(114, 118, 149)" stroke = "rgb(114, 118, 149)" stroke-width = "0"/>
    <path d="M 13 11 C 13.2 10.8 13.8 10.8 14 11 C 14.2 11.2 14.2 11.8 14 12 C 13.8 12.2 13.2 12.2 13 12 C 12.8 11.8 12.8 11.2 13 11 " fill = "rgb(150, 150, 174)" stroke = "rgb(150, 150, 174)" stroke-width = "0"/>
    <path d="M 14 11 C 14.2 10.8 14.8 10.8 15 11 C 15.2 11.2 15.2 11.8 15 12 C 14.8 12.2 14.2 12.2 14 12 C 13.8 11.8 13.8 11.2 14 11 " fill = "rgb(39, 40, 91)" stroke = "rgb(39, 40, 91)" stroke-width = "0"/>
    <path d="M 15 11 C 15.2 10.8 15.8 10.8 16 11 C 16.2 11.2 16.2 11.8 16 12 C 15.8 12.2 15.2 12.2 15 12 C 14.8 11.8 14.8 11.2 15 11 " fill = "rgb(46, 74, 57)" stroke = "rgb(46, 74, 57)" stroke-width = "0"/>
    <path d="M 16 11 C 16.2 10.8 16.8 10.8 17 11 C 17.2 11.2 17.2 11.8 17 12 C 16.8 12.2 16.2 12.2 16 12 C 15.8 11.8 15.8 11.2 16 11 " fill = "rgb(59, 84, 48)" stroke = "rgb(59, 84, 48)" stroke-width = "0"/>
    <path d="M 17 11 C 17.2 10.8 17.8 10.8 18 11 C 18.2 11.2 18.2 11.8 18 12 C 17.8 12.2 17.2 12.2 17 12 C 16.8 11.8 16.8 11.2 17 11 " fill = "rgb(69, 78, 58)" stroke = "rgb(69, 78, 58)" stroke-width = "0"/>
    <path d="M 18 11 C 18.2 10.8 18.8 10.8 19 11 C 19.2 11.2 19.2 11.8 19 12 C 18.8 12.2 18.2 12.2 18 12 C 17.8 11.8 17.8 11.2 18 11 " fill = "rgb(41, 45, 86)" stroke = "rgb(41, 45, 86)" stroke-width = "0"/>
    <path d="M 19 11 C 19.2 10.8 19.8 10.8 20 11 C 20.2 11.2 20.2 11.8 20 12 C 19.8 12.2 19.2 12.2 19 12 C 18.8 11.8 18.8 11.2 19 11 " fill = "rgb(129, 129, 158)" stroke = "rgb(129, 129, 158)" stroke-width = "0"/>
    <path d="M 20 11 C 20.15 10.85 20.55 11.05 20.75 11.25 C 20.95 11.45 21.15 11.85 21 12 C 20.85 12.15 20.2 12.2 20 12 C 19.8 11.8 19.85 11.15 20 11 " fill = "rgb(209, 209, 220)" stroke = "rgb(209, 209, 220)" stroke-width = "0"/>
    <path d="M 1 12 C 1.2 11.8 1.8 11.8 2 12 C 2.2 12.2 2.2 12.8 2 13 C 1.8 13.2 1.2 13.2 1 13 C 0.8 12.8 0.8 12.2 1 12 " fill = "rgb(112, 112, 145)" stroke = "rgb(112, 112, 145)" stroke-width = "0"/>
    <path d="M 2 12 C 2.2 11.8 2.8 11.8 3 12 C 3.2 12.2 3.2 12.8 3 13 C 2.8 13.2 2.2 13.2 2 13 C 1.8 12.8 1.8 12.2 2 12 " fill = "rgb(43, 46, 87)" stroke = "rgb(43, 46, 87)" stroke-width = "0"/>
    <path d="M 3 12 C 3.2 11.8 3.8 11.8 4 12 C 4.2 12.2 4.2 12.8 4 13 C 3.8 13.2 3.2 13.2 3 13 C 2.8 12.8 2.8 12.2 3 12 " fill = "rgb(55, 61, 73)" stroke = "rgb(55, 61, 73)" stroke-width = "0"/>
    <path d="M 4 12 C 4.2 11.8 4.8 11.8 5 12 C 5.2 12.2 5.2 12.8 5 13 C 4.8 13.2 4.2 13.2 4 13 C 3.8 12.8 3.8 12.2 4 12 " fill = "rgb(238, 233, 108)" stroke = "rgb(238, 233, 108)" stroke-width = "0"/>
    <path d="M 5 12 C 5.2 11.8 5.8 11.8 6 12 C 6.2 12.2 6.2 12.8 6 13 C 5.8 13.2 5.2 13.2 5 13 C 4.8 12.8 4.8 12.2 5 12 " fill = "rgb(255, 234, 81)" stroke = "rgb(255, 234, 81)" stroke-width = "0"/>
    <path d="M 6 12 C 6.2 11.8 6.8 11.8 7 12 C 7.2 12.2 7.2 12.8 7 13 C 6.8 13.2 6.2 13.2 6 13 C 5.8 12.8 5.8 12.2 6 12 " fill = "rgb(203, 187, 42)" stroke = "rgb(203, 187, 42)" stroke-width = "0"/>
    <path d="M 7 12 C 7.2 11.8 7.8 11.8 8 12 C 8.2 12.2 8.2 12.8 8 13 C 7.8 13.2 7.2 13.2 7 13 C 6.8 12.8 6.8 12.2 7 12 " fill = "rgb(37, 114, 0)" stroke = "rgb(37, 114, 0)" stroke-width = "0"/>
    <path d="M 8 12 C 8.2 11.8 8.8 11.8 9 12 C 9.2 12.2 9.2 12.8 9 13 C 8.8 13.2 8.2 13.2 8 13 C 7.8 12.8 7.8 12.2 8 12 " fill = "rgb(188, 180, 38)" stroke = "rgb(188, 180, 38)" stroke-width = "0"/>
    <path d="M 9 12 C 9.2 11.8 9.8 11.8 10 12 C 10.2 12.2 10.2 12.8 10 13 C 9.8 13.2 9.2 13.2 9 13 C 8.8 12.8 8.8 12.2 9 12 " fill = "rgb(249, 208, 54)" stroke = "rgb(249, 208, 54)" stroke-width = "0"/>
    <path d="M 10 12 C 10.2 11.8 10.8 11.8 11 12 C 11.2 12.2 11.2 12.8 11 13 C 10.8 13.2 10.2 13.2 10 13 C 9.8 12.8 9.8 12.2 10 12 " fill = "rgb(228, 190, 58)" stroke = "rgb(228, 190, 58)" stroke-width = "0"/>
    <path d="M 11 12 C 11.2 11.8 11.8 11.8 12 12 C 12.2 12.2 12.2 12.8 12 13 C 11.8 13.2 11.2 13.2 11 13 C 10.8 12.8 10.8 12.2 11 12 " fill = "rgb(47, 46, 62)" stroke = "rgb(47, 46, 62)" stroke-width = "0"/>
    <path d="M 12 12 C 12.2 11.8 12.8 11.8 13 12 C 13.2 12.2 13.2 12.8 13 13 C 12.8 13.2 12.2 13.2 12 13 C 11.8 12.8 11.8 12.2 12 12 " fill = "rgb(47, 48, 90)" stroke = "rgb(47, 48, 90)" stroke-width = "0"/>
    <path d="M 13 12 C 13.2 11.8 13.8 11.8 14 12 C 14.2 12.2 14.2 12.8 14 13 C 13.8 13.2 13.2 13.2 13 13 C 12.8 12.8 12.8 12.2 13 12 " fill = "rgb(49, 53, 94)" stroke = "rgb(49, 53, 94)" stroke-width = "0"/>
    <path d="M 14 12 C 14.2 11.8 14.8 11.8 15 12 C 15.2 12.2 15.2 12.8 15 13 C 14.8 13.2 14.2 13.2 14 13 C 13.8 12.8 13.8 12.2 14 12 " fill = "rgb(13, 27, 59)" stroke = "rgb(13, 27, 59)" stroke-width = "0"/>
    <path d="M 15 12 C 15.2 11.8 15.8 11.8 16 12 C 16.2 12.2 16.2 12.8 16 13 C 15.8 13.2 15.2 13.2 15 13 C 14.8 12.8 14.8 12.2 15 12 " fill = "rgb(103, 166, 32)" stroke = "rgb(103, 166, 32)" stroke-width = "0"/>
    <path d="M 16 12 C 16.2 11.8 16.8 11.8 17 12 C 17.2 12.2 17.2 12.8 17 13 C 16.8 13.2 16.2 13.2 16 13 C 15.8 12.8 15.8 12.2 16 12 " fill = "rgb(166, 213, 31)" stroke = "rgb(166, 213, 31)" stroke-width = "0"/>
    <path d="M 17 12 C 17.2 11.8 17.8 11.8 18 12 C 18.2 12.2 18.2 12.8 18 13 C 17.8 13.2 17.2 13.2 17 13 C 16.8 12.8 16.8 12.2 17 12 " fill = "rgb(179, 185, 46)" stroke = "rgb(179, 185, 46)" stroke-width = "0"/>
    <path d="M 18 12 C 18.2 11.8 18.8 11.8 19 12 C 19.2 12.2 19.2 12.8 19 13 C 18.8 13.2 18.2 13.2 18 13 C 17.8 12.8 17.8 12.2 18 12 " fill = "rgb(42, 50, 65)" stroke = "rgb(42, 50, 65)" stroke-width = "0"/>
    <path d="M 19 12 C 19.2 11.8 19.8 11.8 20 12 C 20.2 12.2 20.2 12.8 20 13 C 19.8 13.2 19.2 13.2 19 13 C 18.8 12.8 18.8 12.2 19 12 " fill = "rgb(45, 47, 89)" stroke = "rgb(45, 47, 89)" stroke-width = "0"/>
    <path d="M 20 12 C 20.2 11.8 20.8 11.8 21 12 C 21.2 12.2 21.2 12.8 21 13 C 20.8 13.2 20.2 13.2 20 13 C 19.8 12.8 19.8 12.2 20 12 " fill = "rgb(114, 114, 146)" stroke = "rgb(114, 114, 146)" stroke-width = "0"/>
    <path d="M 21 12 C 21.2 11.8 21.8 11.8 22 12 C 22.2 12.2 22.2 12.8 22 13 C 21.8 13.2 21.2 13.2 21 13 C 20.8 12.8 20.8 12.2 21 12 " fill = "rgb(244, 244, 247)" stroke = "rgb(244, 244, 247)" stroke-width = "0"/>
    <path d="M 22 12 C 22.15 11.85 22.55 12.05 22.75 12.25 C 22.95 12.45 23.15 12.85 23 13 C 22.85 13.15 22.2 13.2 22 13 C 21.8 12.8 21.85 12.15 22 12 " fill = "rgb(251, 251, 252)" stroke = "rgb(251, 251, 252)" stroke-width = "0"/>
    <path d="M 1 13 C 1.2 12.8 1.8 12.8 2 13 C 2.2 13.2 2.2 13.8 2 14 C 1.8 14.2 1.2 14.2 1 14 C 0.8 13.8 0.8 13.2 1 13 " fill = "rgb(70, 76, 116)" stroke = "rgb(70, 76, 116)" stroke-width = "0"/>
    <path d="M 2 13 C 2.2 12.8 2.8 12.8 3 13 C 3.2 13.2 3.2 13.8 3 14 C 2.8 14.2 2.2 14.2 2 14 C 1.8 13.8 1.8 13.2 2 13 " fill = "rgb(104, 108, 85)" stroke = "rgb(104, 108, 85)" stroke-width = "0"/>
    <path d="M 3 13 C 3.2 12.8 3.8 12.8 4 13 C 4.2 13.2 4.2 13.8 4 14 C 3.8 14.2 3.2 14.2 3 14 C 2.8 13.8 2.8 13.2 3 13 " fill = "rgb(244, 237, 107)" stroke = "rgb(244, 237, 107)" stroke-width = "0"/>
    <path d="M 4 13 C 4.2 12.8 4.8 12.8 5 13 C 5.2 13.2 5.2 13.8 5 14 C 4.8 14.2 4.2 14.2 4 14 C 3.8 13.8 3.8 13.2 4 13 " fill = "rgb(253, 218, 69)" stroke = "rgb(253, 218, 69)" stroke-width = "0"/>
    <path d="M 5 13 C 5.2 12.8 5.8 12.8 6 13 C 6.2 13.2 6.2 13.8 6 14 C 5.8 14.2 5.2 14.2 5 14 C 4.8 13.8 4.8 13.2 5 13 " fill = "rgb(255, 213, 60)" stroke = "rgb(255, 213, 60)" stroke-width = "0"/>
    <path d="M 6 13 C 6.2 12.8 6.8 12.8 7 13 C 7.2 13.2 7.2 13.8 7 14 C 6.8 14.2 6.2 14.2 6 14 C 5.8 13.8 5.8 13.2 6 13 " fill = "rgb(234, 206, 52)" stroke = "rgb(234, 206, 52)" stroke-width = "0"/>
    <path d="M 7 13 C 7.2 12.8 7.8 12.8 8 13 C 8.2 13.2 8.2 13.8 8 14 C 7.8 14.2 7.2 14.2 7 14 C 6.8 13.8 6.8 13.2 7 13 " fill = "rgb(172, 194, 36)" stroke = "rgb(172, 194, 36)" stroke-width = "0"/>
    <path d="M 8 13 C 8.2 12.8 8.8 12.8 9 13 C 9.2 13.2 9.2 13.8 9 14 C 8.8 14.2 8.2 14.2 8 14 C 7.8 13.8 7.8 13.2 8 13 " fill = "rgb(87, 139, 13)" stroke = "rgb(87, 139, 13)" stroke-width = "0"/>
    <path d="M 9 13 C 9.2 12.8 9.8 12.8 10 13 C 10.2 13.2 10.2 13.8 10 14 C 9.8 14.2 9.2 14.2 9 14 C 8.8 13.8 8.8 13.2 9 13 " fill = "rgb(147, 161, 28)" stroke = "rgb(147, 161, 28)" stroke-width = "0"/>
    <path d="M 10 13 C 10.2 12.8 10.8 12.8 11 13 C 11.2 13.2 11.2 13.8 11 14 C 10.8 14.2 10.2 14.2 10 14 C 9.8 13.8 9.8 13.2 10 13 " fill = "rgb(255, 207, 58)" stroke = "rgb(255, 207, 58)" stroke-width = "0"/>
    <path d="M 11 13 C 11.2 12.8 11.8 12.8 12 13 C 12.2 13.2 12.2 13.8 12 14 C 11.8 14.2 11.2 14.2 11 14 C 10.8 13.8 10.8 13.2 11 13 " fill = "rgb(206, 162, 51)" stroke = "rgb(206, 162, 51)" stroke-width = "0"/>
    <path d="M 12 13 C 12.2 12.8 12.8 12.8 13 13 C 13.2 13.2 13.2 13.8 13 14 C 12.8 14.2 12.2 14.2 12 14 C 11.8 13.8 11.8 13.2 12 13 " fill = "rgb(84, 69, 65)" stroke = "rgb(84, 69, 65)" stroke-width = "0"/>
    <path d="M 13 13 C 13.2 12.8 13.8 12.8 14 13 C 14.2 13.2 14.2 13.8 14 14 C 13.8 14.2 13.2 14.2 13 14 C 12.8 13.8 12.8 13.2 13 13 " fill = "rgb(38, 63, 61)" stroke = "rgb(38, 63, 61)" stroke-width = "0"/>
    <path d="M 14 13 C 14.2 12.8 14.8 12.8 15 13 C 15.2 13.2 15.2 13.8 15 14 C 14.8 14.2 14.2 14.2 14 14 C 13.8 13.8 13.8 13.2 14 13 " fill = "rgb(115, 191, 27)" stroke = "rgb(115, 191, 27)" stroke-width = "0"/>
    <path d="M 15 13 C 15.2 12.8 15.8 12.8 16 13 C 16.2 13.2 16.2 13.8 16 14 C 15.8 14.2 15.2 14.2 15 14 C 14.8 13.8 14.8 13.2 15 13 " fill = "rgb(167, 200, 37)" stroke = "rgb(167, 200, 37)" stroke-width = "0"/>
    <path d="M 16 13 C 16.2 12.8 16.8 12.8 17 13 C 17.2 13.2 17.2 13.8 17 14 C 16.8 14.2 16.2 14.2 16 14 C 15.8 13.8 15.8 13.2 16 13 " fill = "rgb(216, 208, 47)" stroke = "rgb(216, 208, 47)" stroke-width = "0"/>
    <path d="M 17 13 C 17.2 12.8 17.8 12.8 18 13 C 18.2 13.2 18.2 13.8 18 14 C 17.8 14.2 17.2 14.2 17 14 C 16.8 13.8 16.8 13.2 17 13 " fill = "rgb(249, 213, 64)" stroke = "rgb(249, 213, 64)" stroke-width = "0"/>
    <path d="M 18 13 C 18.2 12.8 18.8 12.8 19 13 C 19.2 13.2 19.2 13.8 19 14 C 18.8 14.2 18.2 14.2 18 14 C 17.8 13.8 17.8 13.2 18 13 " fill = "rgb(237, 232, 108)" stroke = "rgb(237, 232, 108)" stroke-width = "0"/>
    <path d="M 19 13 C 19.2 12.8 19.8 12.8 20 13 C 20.2 13.2 20.2 13.8 20 14 C 19.8 14.2 19.2 14.2 19 14 C 18.8 13.8 18.8 13.2 19 13 " fill = "rgb(92, 97, 85)" stroke = "rgb(92, 97, 85)" stroke-width = "0"/>
    <path d="M 20 13 C 20.2 12.8 20.8 12.8 21 13 C 21.2 13.2 21.2 13.8 21 14 C 20.8 14.2 20.2 14.2 20 14 C 19.8 13.8 19.8 13.2 20 13 " fill = "rgb(28, 33, 87)" stroke = "rgb(28, 33, 87)" stroke-width = "0"/>
    <path d="M 21 13 C 21.2 12.8 21.8 12.8 22 13 C 22.2 13.2 22.2 13.8 22 14 C 21.8 14.2 21.2 14.2 21 14 C 20.8 13.8 20.8 13.2 21 13 " fill = "rgb(97, 96, 133)" stroke = "rgb(97, 96, 133)" stroke-width = "0"/>
    <path d="M 22 13 C 22.2 12.8 22.8 12.8 23 13 C 23.2 13.2 23.2 13.8 23 14 C 22.8 14.2 22.2 14.2 22 14 C 21.8 13.8 21.8 13.2 22 13 " fill = "rgb(218, 218, 227)" stroke = "rgb(218, 218, 227)" stroke-width = "0"/>
    <path d="M 1 14 C 1.2 13.8 1.8 13.8 2 14 C 2.2 14.2 2.2 14.8 2 15 C 1.8 15.2 1.2 15.2 1 15 C 0.8 14.8 0.8 14.2 1 14 " fill = "rgb(97, 99, 134)" stroke = "rgb(97, 99, 134)" stroke-width = "0"/>
    <path d="M 2 14 C 2.2 13.8 2.8 13.8 3 14 C 3.2 14.2 3.2 14.8 3 15 C 2.8 15.2 2.2 15.2 2 15 C 1.8 14.8 1.8 14.2 2 14 " fill = "rgb(66, 70, 87)" stroke = "rgb(66, 70, 87)" stroke-width = "0"/>
    <path d="M 3 14 C 3.2 13.8 3.8 13.8 4 14 C 4.2 14.2 4.2 14.8 4 15 C 3.8 15.2 3.2 15.2 3 15 C 2.8 14.8 2.8 14.2 3 14 " fill = "rgb(127, 125, 81)" stroke = "rgb(127, 125, 81)" stroke-width = "0"/>
    <path d="M 4 14 C 4.2 13.8 4.8 13.8 5 14 C 5.2 14.2 5.2 14.8 5 15 C 4.8 15.2 4.2 15.2 4 15 C 3.8 14.8 3.8 14.2 4 14 " fill = "rgb(244, 203, 60)" stroke = "rgb(244, 203, 60)" stroke-width = "0"/>
    <path d="M 5 14 C 5.2 13.8 5.8 13.8 6 14 C 6.2 14.2 6.2 14.8 6 15 C 5.8 15.2 5.2 15.2 5 15 C 4.8 14.8 4.8 14.2 5 14 " fill = "rgb(236, 210, 51)" stroke = "rgb(236, 210, 51)" stroke-width = "0"/>
    <path d="M 6 14 C 6.2 13.8 6.8 13.8 7 14 C 7.2 14.2 7.2 14.8 7 15 C 6.8 15.2 6.2 15.2 6 15 C 5.8 14.8 5.8 14.2 6 14 " fill = "rgb(209, 206, 46)" stroke = "rgb(209, 206, 46)" stroke-width = "0"/>
    <path d="M 7 14 C 7.2 13.8 7.8 13.8 8 14 C 8.2 14.2 8.2 14.8 8 15 C 7.8 15.2 7.2 15.2 7 15 C 6.8 14.8 6.8 14.2 7 14 " fill = "rgb(195, 207, 43)" stroke = "rgb(195, 207, 43)" stroke-width = "0"/>
    <path d="M 8 14 C 8.2 13.8 8.8 13.8 9 14 C 9.2 14.2 9.2 14.8 9 15 C 8.8 15.2 8.2 15.2 8 15 C 7.8 14.8 7.8 14.2 8 14 " fill = "rgb(74, 134, 8)" stroke = "rgb(74, 134, 8)" stroke-width = "0"/>
    <path d="M 9 14 C 9.2 13.8 9.8 13.8 10 14 C 10.2 14.2 10.2 14.8 10 15 C 9.8 15.2 9.2 15.2 9 15 C 8.8 14.8 8.8 14.2 9 14 " fill = "rgb(115, 153, 19)" stroke = "rgb(115, 153, 19)" stroke-width = "0"/>
    <path d="M 10 14 C 10.2 13.8 10.8 13.8 11 14 C 11.2 14.2 11.2 14.8 11 15 C 10.8 15.2 10.2 15.2 10 15 C 9.8 14.8 9.8 14.2 10 14 " fill = "rgb(215, 207, 47)" stroke = "rgb(215, 207, 47)" stroke-width = "0"/>
    <path d="M 11 14 C 11.2 13.8 11.8 13.8 12 14 C 12.2 14.2 12.2 14.8 12 15 C 11.8 15.2 11.2 15.2 11 15 C 10.8 14.8 10.8 14.2 11 14 " fill = "rgb(171, 196, 36)" stroke = "rgb(171, 196, 36)" stroke-width = "0"/>
    <path d="M 12 14 C 12.2 13.8 12.8 13.8 13 14 C 13.2 14.2 13.2 14.8 13 15 C 12.8 15.2 12.2 15.2 12 15 C 11.8 14.8 11.8 14.2 12 14 " fill = "rgb(82, 131, 29)" stroke = "rgb(82, 131, 29)" stroke-width = "0"/>
    <path d="M 13 14 C 13.2 13.8 13.8 13.8 14 14 C 14.2 14.2 14.2 14.8 14 15 C 13.8 15.2 13.2 15.2 13 15 C 12.8 14.8 12.8 14.2 13 14 " fill = "rgb(40, 106, 21)" stroke = "rgb(40, 106, 21)" stroke-width = "0"/>
    <path d="M 14 14 C 14.2 13.8 14.8 13.8 15 14 C 15.2 14.2 15.2 14.8 15 15 C 14.8 15.2 14.2 15.2 14 15 C 13.8 14.8 13.8 14.2 14 14 " fill = "rgb(74, 151, 8)" stroke = "rgb(74, 151, 8)" stroke-width = "0"/>
    <path d="M 15 14 C 15.2 13.8 15.8 13.8 16 14 C 16.2 14.2 16.2 14.8 16 15 C 15.8 15.2 15.2 15.2 15 15 C 14.8 14.8 14.8 14.2 15 14 " fill = "rgb(93, 162, 13)" stroke = "rgb(93, 162, 13)" stroke-width = "0"/>
    <path d="M 16 14 C 16.2 13.8 16.8 13.8 17 14 C 17.2 14.2 17.2 14.8 17 15 C 16.8 15.2 16.2 15.2 16 15 C 15.8 14.8 15.8 14.2 16 14 " fill = "rgb(153, 185, 30)" stroke = "rgb(153, 185, 30)" stroke-width = "0"/>
    <path d="M 17 14 C 17.2 13.8 17.8 13.8 18 14 C 18.2 14.2 18.2 14.8 18 15 C 17.8 15.2 17.2 15.2 17 15 C 16.8 14.8 16.8 14.2 17 14 " fill = "rgb(224, 210, 53)" stroke = "rgb(224, 210, 53)" stroke-width = "0"/>
    <path d="M 18 14 C 18.2 13.8 18.8 13.8 19 14 C 19.2 14.2 19.2 14.8 19 15 C 18.8 15.2 18.2 15.2 18 15 C 17.8 14.8 17.8 14.2 18 14 " fill = "rgb(255, 229, 76)" stroke = "rgb(255, 229, 76)" stroke-width = "0"/>
    <path d="M 19 14 C 19.2 13.8 19.8 13.8 20 14 C 20.2 14.2 20.2 14.8 20 15 C 19.8 15.2 19.2 15.2 19 15 C 18.8 14.8 18.8 14.2 19 14 " fill = "rgb(197, 187, 89)" stroke = "rgb(197, 187, 89)" stroke-width = "0"/>
    <path d="M 20 14 C 20.2 13.8 20.8 13.8 21 14 C 21.2 14.2 21.2 14.8 21 15 C 20.8 15.2 20.2 15.2 20 15 C 19.8 14.8 19.8 14.2 20 14 " fill = "rgb(117, 120, 92)" stroke = "rgb(117, 120, 92)" stroke-width = "0"/>
    <path d="M 21 14 C 21.2 13.8 21.8 13.8 22 14 C 22.2 14.2 22.2 14.8 22 15 C 21.8 15.2 21.2 15.2 21 15 C 20.8 14.8 20.8 14.2 21 14 " fill = "rgb(26, 31, 82)" stroke = "rgb(26, 31, 82)" stroke-width = "0"/>
    <path d="M 22 14 C 22.2 13.8 22.8 13.8 23 14 C 23.2 14.2 23.2 14.8 23 15 C 22.8 15.2 22.2 15.2 22 15 C 21.8 14.8 21.8 14.2 22 14 " fill = "rgb(204, 205, 216)" stroke = "rgb(204, 205, 216)" stroke-width = "0"/>
    <path d="M 1 15 C 1.15 14.85 1.8 14.8 2 15 C 2.2 15.2 2.15 15.85 2 16 C 1.85 16.15 1.45 15.95 1.25 15.75 C 1.05 15.55 0.85 15.15 1 15 " fill = "rgb(165, 164, 185)" stroke = "rgb(165, 164, 185)" stroke-width = "0"/>
    <path d="M 2 15 C 2.2 14.8 2.8 14.8 3 15 C 3.2 15.2 3.2 15.8 3 16 C 2.8 16.2 2.2 16.2 2 16 C 1.8 15.8 1.8 15.2 2 15 " fill = "rgb(81, 83, 124)" stroke = "rgb(81, 83, 124)" stroke-width = "0"/>
    <path d="M 3 15 C 3.2 14.8 3.8 14.8 4 15 C 4.2 15.2 4.2 15.8 4 16 C 3.8 16.2 3.2 16.2 3 16 C 2.8 15.8 2.8 15.2 3 15 " fill = "rgb(37, 39, 75)" stroke = "rgb(37, 39, 75)" stroke-width = "0"/>
    <path d="M 4 15 C 4.2 14.8 4.8 14.8 5 15 C 5.2 15.2 5.2 15.8 5 16 C 4.8 16.2 4.2 16.2 4 16 C 3.8 15.8 3.8 15.2 4 15 " fill = "rgb(163, 136, 62)" stroke = "rgb(163, 136, 62)" stroke-width = "0"/>
    <path d="M 5 15 C 5.2 14.8 5.8 14.8 6 15 C 6.2 15.2 6.2 15.8 6 16 C 5.8 16.2 5.2 16.2 5 16 C 4.8 15.8 4.8 15.2 5 15 " fill = "rgb(174, 183, 45)" stroke = "rgb(174, 183, 45)" stroke-width = "0"/>
    <path d="M 6 15 C 6.2 14.8 6.8 14.8 7 15 C 7.2 15.2 7.2 15.8 7 16 C 6.8 16.2 6.2 16.2 6 16 C 5.8 15.8 5.8 15.2 6 15 " fill = "rgb(162, 200, 33)" stroke = "rgb(162, 200, 33)" stroke-width = "0"/>
    <path d="M 7 15 C 7.2 14.8 7.8 14.8 8 15 C 8.2 15.2 8.2 15.8 8 16 C 7.8 16.2 7.2 16.2 7 16 C 6.8 15.8 6.8 15.2 7 15 " fill = "rgb(148, 188, 28)" stroke = "rgb(148, 188, 28)" stroke-width = "0"/>
    <path d="M 8 15 C 8.2 14.8 8.8 14.8 9 15 C 9.2 15.2 9.2 15.8 9 16 C 8.8 16.2 8.2 16.2 8 16 C 7.8 15.8 7.8 15.2 8 15 " fill = "rgb(56, 106, 22)" stroke = "rgb(56, 106, 22)" stroke-width = "0"/>
    <path d="M 9 15 C 9.2 14.8 9.8 14.8 10 15 C 10.2 15.2 10.2 15.8 10 16 C 9.8 16.2 9.2 16.2 9 16 C 8.8 15.8 8.8 15.2 9 15 " fill = "rgb(89, 134, 27)" stroke = "rgb(89, 134, 27)" stroke-width = "0"/>
    <path d="M 10 15 C 10.2 14.8 10.8 14.8 11 15 C 11.2 15.2 11.2 15.8 11 16 C 10.8 16.2 10.2 16.2 10 16 C 9.8 15.8 9.8 15.2 10 15 " fill = "rgb(163, 204, 33)" stroke = "rgb(163, 204, 33)" stroke-width = "0"/>
    <path d="M 11 15 C 11.2 14.8 11.8 14.8 12 15 C 12.2 15.2 12.2 15.8 12 16 C 11.8 16.2 11.2 16.2 11 16 C 10.8 15.8 10.8 15.2 11 15 " fill = "rgb(106, 188, 18)" stroke = "rgb(106, 188, 18)" stroke-width = "0"/>
    <path d="M 12 15 C 12.2 14.8 12.8 14.8 13 15 C 13.2 15.2 13.2 15.8 13 16 C 12.8 16.2 12.2 16.2 12 16 C 11.8 15.8 11.8 15.2 12 15 " fill = "rgb(83, 175, 10)" stroke = "rgb(83, 175, 10)" stroke-width = "0"/>
    <path d="M 13 15 C 13.2 14.8 13.8 14.8 14 15 C 14.2 15.2 14.2 15.8 14 16 C 13.8 16.2 13.2 16.2 13 16 C 12.8 15.8 12.8 15.2 13 15 " fill = "rgb(69, 158, 6)" stroke = "rgb(69, 158, 6)" stroke-width = "0"/>
    <path d="M 14 15 C 14.2 14.8 14.8 14.8 15 15 C 15.2 15.2 15.2 15.8 15 16 C 14.8 16.2 14.2 16.2 14 16 C 13.8 15.8 13.8 15.2 14 15 " fill = "rgb(63, 137, 7)" stroke = "rgb(63, 137, 7)" stroke-width = "0"/>
    <path d="M 15 15 C 15.2 14.8 15.8 14.8 16 15 C 16.2 15.2 16.2 15.8 16 16 C 15.8 16.2 15.2 16.2 15 16 C 14.8 15.8 14.8 15.2 15 15 " fill = "rgb(80, 155, 10)" stroke = "rgb(80, 155, 10)" stroke-width = "0"/>
    <path d="M 16 15 C 16.2 14.8 16.8 14.8 17 15 C 17.2 15.2 17.2 15.8 17 16 C 16.8 16.2 16.2 16.2 16 16 C 15.8 15.8 15.8 15.2 16 15 " fill = "rgb(142, 181, 27)" stroke = "rgb(142, 181, 27)" stroke-width = "0"/>
    <path d="M 17 15 C 17.2 14.8 17.8 14.8 18 15 C 18.2 15.2 18.2 15.8 18 16 C 17.8 16.2 17.2 16.2 17 16 C 16.8 15.8 16.8 15.2 17 15 " fill = "rgb(218, 209, 50)" stroke = "rgb(218, 209, 50)" stroke-width = "0"/>
    <path d="M 18 15 C 18.2 14.8 18.8 14.8 19 15 C 19.2 15.2 19.2 15.8 19 16 C 18.8 16.2 18.2 16.2 18 16 C 17.8 15.8 17.8 15.2 18 15 " fill = "rgb(251, 221, 70)" stroke = "rgb(251, 221, 70)" stroke-width = "0"/>
    <path d="M 19 15 C 19.2 14.8 19.8 14.8 20 15 C 20.2 15.2 20.2 15.8 20 16 C 19.8 16.2 19.2 16.2 19 16 C 18.8 15.8 18.8 15.2 19 15 " fill = "rgb(255, 248, 100)" stroke = "rgb(255, 248, 100)" stroke-width = "0"/>
    <path d="M 20 15 C 20.2 14.8 20.8 14.8 21 15 C 21.2 15.2 21.2 15.8 21 16 C 20.8 16.2 20.2 16.2 20 16 C 19.8 15.8 19.8 15.2 20 15 " fill = "rgb(186, 186, 102)" stroke = "rgb(186, 186, 102)" stroke-width = "0"/>
    <path d="M 21 15 C 21.2 14.8 21.8 14.8 22 15 C 22.2 15.2 22.2 15.8 22 16 C 21.8 16.2 21.2 16.2 21 16 C 20.8 15.8 20.8 15.2 21 15 " fill = "rgb(0, 3, 61)" stroke = "rgb(0, 3, 61)" stroke-width = "0"/>
    <path d="M 22 15 C 22.2 14.8 22.8 14.8 23 15 C 23.2 15.2 23.2 15.8 23 16 C 22.8 16.2 22.2 16.2 22 16 C 21.8 15.8 21.8 15.2 22 15 " fill = "rgb(198, 200, 211)" stroke = "rgb(198, 200, 211)" stroke-width = "0"/>
    <path d="M 2 16 C 2.2 15.8 2.8 15.8 3 16 C 3.2 16.2 3.2 16.8 3 17 C 2.8 17.2 2.2 17.2 2 17 C 1.8 16.8 1.8 16.2 2 16 " fill = "rgb(185, 184, 200)" stroke = "rgb(185, 184, 200)" stroke-width = "0"/>
    <path d="M 3 16 C 3.2 15.8 3.8 15.8 4 16 C 4.2 16.2 4.2 16.8 4 17 C 3.8 17.2 3.2 17.2 3 17 C 2.8 16.8 2.8 16.2 3 16 " fill = "rgb(65, 65, 109)" stroke = "rgb(65, 65, 109)" stroke-width = "0"/>
    <path d="M 4 16 C 4.2 15.8 4.8 15.8 5 16 C 5.2 16.2 5.2 16.8 5 17 C 4.8 17.2 4.2 17.2 4 17 C 3.8 16.8 3.8 16.2 4 16 " fill = "rgb(5, 11, 74)" stroke = "rgb(5, 11, 74)" stroke-width = "0"/>
    <path d="M 5 16 C 5.2 15.8 5.8 15.8 6 16 C 6.2 16.2 6.2 16.8 6 17 C 5.8 17.2 5.2 17.2 5 17 C 4.8 16.8 4.8 16.2 5 16 " fill = "rgb(70, 122, 42)" stroke = "rgb(70, 122, 42)" stroke-width = "0"/>
    <path d="M 6 16 C 6.2 15.8 6.8 15.8 7 16 C 7.2 16.2 7.2 16.8 7 17 C 6.8 17.2 6.2 17.2 6 17 C 5.8 16.8 5.8 16.2 6 16 " fill = "rgb(100, 188, 16)" stroke = "rgb(100, 188, 16)" stroke-width = "0"/>
    <path d="M 7 16 C 7.2 15.8 7.8 15.8 8 16 C 8.2 16.2 8.2 16.8 8 17 C 7.8 17.2 7.2 17.2 7 17 C 6.8 16.8 6.8 16.2 7 16 " fill = "rgb(41, 143, 0)" stroke = "rgb(41, 143, 0)" stroke-width = "0"/>
    <path d="M 8 16 C 8.2 15.8 8.8 15.8 9 16 C 9.2 16.2 9.2 16.8 9 17 C 8.8 17.2 8.2 17.2 8 17 C 7.8 16.8 7.8 16.2 8 16 " fill = "rgb(14, 41, 53)" stroke = "rgb(14, 41, 53)" stroke-width = "0"/>
    <path d="M 9 16 C 9.2 15.8 9.8 15.8 10 16 C 10.2 16.2 10.2 16.8 10 17 C 9.8 17.2 9.2 17.2 9 17 C 8.8 16.8 8.8 16.2 9 16 " fill = "rgb(57, 94, 50)" stroke = "rgb(57, 94, 50)" stroke-width = "0"/>
    <path d="M 10 16 C 10.2 15.8 10.8 15.8 11 16 C 11.2 16.2 11.2 16.8 11 17 C 10.8 17.2 10.2 17.2 10 17 C 9.8 16.8 9.8 16.2 10 16 " fill = "rgb(115, 201, 19)" stroke = "rgb(115, 201, 19)" stroke-width = "0"/>
    <path d="M 11 16 C 11.2 15.8 11.8 15.8 12 16 C 12.2 16.2 12.2 16.8 12 17 C 11.8 17.2 11.2 17.2 11 17 C 10.8 16.8 10.8 16.2 11 16 " fill = "rgb(51, 147, 1)" stroke = "rgb(51, 147, 1)" stroke-width = "0"/>
    <path d="M 12 16 C 12.2 15.8 12.8 15.8 13 16 C 13.2 16.2 13.2 16.8 13 17 C 12.8 17.2 12.2 17.2 12 17 C 11.8 16.8 11.8 16.2 12 16 " fill = "rgb(92, 179, 14)" stroke = "rgb(92, 179, 14)" stroke-width = "0"/>
    <path d="M 13 16 C 13.2 15.8 13.8 15.8 14 16 C 14.2 16.2 14.2 16.8 14 17 C 13.8 17.2 13.2 17.2 13 17 C 12.8 16.8 12.8 16.2 13 16 " fill = "rgb(126, 206, 25)" stroke = "rgb(126, 206, 25)" stroke-width = "0"/>
    <path d="M 14 16 C 14.2 15.8 14.8 15.8 15 16 C 15.2 16.2 15.2 16.8 15 17 C 14.8 17.2 14.2 17.2 14 17 C 13.8 16.8 13.8 16.2 14 16 " fill = "rgb(125, 206, 25)" stroke = "rgb(125, 206, 25)" stroke-width = "0"/>
    <path d="M 15 16 C 15.2 15.8 15.8 15.8 16 16 C 16.2 16.2 16.2 16.8 16 17 C 15.8 17.2 15.2 17.2 15 17 C 14.8 16.8 14.8 16.2 15 16 " fill = "rgb(175, 205, 38)" stroke = "rgb(175, 205, 38)" stroke-width = "0"/>
    <path d="M 16 16 C 16.2 15.8 16.8 15.8 17 16 C 17.2 16.2 17.2 16.8 17 17 C 16.8 17.2 16.2 17.2 16 17 C 15.8 16.8 15.8 16.2 16 16 " fill = "rgb(222, 207, 49)" stroke = "rgb(222, 207, 49)" stroke-width = "0"/>
    <path d="M 17 16 C 17.2 15.8 17.8 15.8 18 16 C 18.2 16.2 18.2 16.8 18 17 C 17.8 17.2 17.2 17.2 17 17 C 16.8 16.8 16.8 16.2 17 16 " fill = "rgb(255, 217, 66)" stroke = "rgb(255, 217, 66)" stroke-width = "0"/>
    <path d="M 18 16 C 18.2 15.8 18.8 15.8 19 16 C 19.2 16.2 19.2 16.8 19 17 C 18.8 17.2 18.2 17.2 18 17 C 17.8 16.8 17.8 16.2 18 16 " fill = "rgb(251, 245, 111)" stroke = "rgb(251, 245, 111)" stroke-width = "0"/>
    <path d="M 19 16 C 19.2 15.8 19.8 15.8 20 16 C 20.2 16.2 20.2 16.8 20 17 C 19.8 17.2 19.2 17.2 19 17 C 18.8 16.8 18.8 16.2 19 16 " fill = "rgb(255, 251, 116)" stroke = "rgb(255, 251, 116)" stroke-width = "0"/>
    <path d="M 20 16 C 20.2 15.8 20.8 15.8 21 16 C 21.2 16.2 21.2 16.8 21 17 C 20.8 17.2 20.2 17.2 20 17 C 19.8 16.8 19.8 16.2 20 16 " fill = "rgb(180, 179, 100)" stroke = "rgb(180, 179, 100)" stroke-width = "0"/>
    <path d="M 21 16 C 21.2 15.8 21.8 15.8 22 16 C 22.2 16.2 22.2 16.8 22 17 C 21.8 17.2 21.2 17.2 21 17 C 20.8 16.8 20.8 16.2 21 16 " fill = "rgb(0, 6, 63)" stroke = "rgb(0, 6, 63)" stroke-width = "0"/>
    <path d="M 22 16 C 22.2 15.8 22.8 15.8 23 16 C 23.2 16.2 23.2 16.8 23 17 C 22.8 17.2 22.2 17.2 22 17 C 21.8 16.8 21.8 16.2 22 16 " fill = "rgb(199, 200, 212)" stroke = "rgb(199, 200, 212)" stroke-width = "0"/>
    <path d="M 2 17 C 2.15 16.85 2.8 16.8 3 17 C 3.2 17.2 3.15 17.85 3 18 C 2.85 18.15 2.45 17.95 2.25 17.75 C 2.05 17.55 1.85 17.15 2 17 " fill = "rgb(242, 242, 245)" stroke = "rgb(242, 242, 245)" stroke-width = "0"/>
    <path d="M 3 17 C 3.2 16.8 3.8 16.8 4 17 C 4.2 17.2 4.2 17.8 4 18 C 3.8 18.2 3.2 18.2 3 18 C 2.8 17.8 2.8 17.2 3 17 " fill = "rgb(201, 201, 213)" stroke = "rgb(201, 201, 213)" stroke-width = "0"/>
    <path d="M 4 17 C 4.2 16.8 4.8 16.8 5 17 C 5.2 17.2 5.2 17.8 5 18 C 4.8 18.2 4.2 18.2 4 18 C 3.8 17.8 3.8 17.2 4 17 " fill = "rgb(75, 75, 117)" stroke = "rgb(75, 75, 117)" stroke-width = "0"/>
    <path d="M 5 17 C 5.2 16.8 5.8 16.8 6 17 C 6.2 17.2 6.2 17.8 6 18 C 5.8 18.2 5.2 18.2 5 18 C 4.8 17.8 4.8 17.2 5 17 " fill = "rgb(35, 48, 72)" stroke = "rgb(35, 48, 72)" stroke-width = "0"/>
    <path d="M 6 17 C 6.2 16.8 6.8 16.8 7 17 C 7.2 17.2 7.2 17.8 7 18 C 6.8 18.2 6.2 18.2 6 18 C 5.8 17.8 5.8 17.2 6 17 " fill = "rgb(19, 42, 52)" stroke = "rgb(19, 42, 52)" stroke-width = "0"/>
    <path d="M 7 17 C 7.2 16.8 7.8 16.8 8 17 C 8.2 17.2 8.2 17.8 8 18 C 7.8 18.2 7.2 18.2 7 18 C 6.8 17.8 6.8 17.2 7 17 " fill = "rgb(12, 37, 51)" stroke = "rgb(12, 37, 51)" stroke-width = "0"/>
    <path d="M 8 17 C 8.2 16.8 8.8 16.8 9 17 C 9.2 17.2 9.2 17.8 9 18 C 8.8 18.2 8.2 18.2 8 18 C 7.8 17.8 7.8 17.2 8 17 " fill = "rgb(48, 53, 95)" stroke = "rgb(48, 53, 95)" stroke-width = "0"/>
    <path d="M 9 17 C 9.2 16.8 9.8 16.8 10 17 C 10.2 17.2 10.2 17.8 10 18 C 9.8 18.2 9.2 18.2 9 18 C 8.8 17.8 8.8 17.2 9 17 " fill = "rgb(90, 125, 71)" stroke = "rgb(90, 125, 71)" stroke-width = "0"/>
    <path d="M 10 17 C 10.2 16.8 10.8 16.8 11 17 C 11.2 17.2 11.2 17.8 11 18 C 10.8 18.2 10.2 18.2 10 18 C 9.8 17.8 9.8 17.2 10 17 " fill = "rgb(114, 196, 18)" stroke = "rgb(114, 196, 18)" stroke-width = "0"/>
    <path d="M 11 17 C 11.2 16.8 11.8 16.8 12 17 C 12.2 17.2 12.2 17.8 12 18 C 11.8 18.2 11.2 18.2 11 18 C 10.8 17.8 10.8 17.2 11 17 " fill = "rgb(47, 123, 1)" stroke = "rgb(47, 123, 1)" stroke-width = "0"/>
    <path d="M 12 17 C 12.2 16.8 12.8 16.8 13 17 C 13.2 17.2 13.2 17.8 13 18 C 12.8 18.2 12.2 18.2 12 18 C 11.8 17.8 11.8 17.2 12 17 " fill = "rgb(52, 139, 2)" stroke = "rgb(52, 139, 2)" stroke-width = "0"/>
    <path d="M 13 17 C 13.2 16.8 13.8 16.8 14 17 C 14.2 17.2 14.2 17.8 14 18 C 13.8 18.2 13.2 18.2 13 18 C 12.8 17.8 12.8 17.2 13 17 " fill = "rgb(81, 173, 10)" stroke = "rgb(81, 173, 10)" stroke-width = "0"/>
    <path d="M 14 17 C 14.2 16.8 14.8 16.8 15 17 C 15.2 17.2 15.2 17.8 15 18 C 14.8 18.2 14.2 18.2 14 18 C 13.8 17.8 13.8 17.2 14 17 " fill = "rgb(128, 210, 23)" stroke = "rgb(128, 210, 23)" stroke-width = "0"/>
    <path d="M 15 17 C 15.2 16.8 15.8 16.8 16 17 C 16.2 17.2 16.2 17.8 16 18 C 15.8 18.2 15.2 18.2 15 18 C 14.8 17.8 14.8 17.2 15 17 " fill = "rgb(134, 208, 25)" stroke = "rgb(134, 208, 25)" stroke-width = "0"/>
    <path d="M 16 17 C 16.2 16.8 16.8 16.8 17 17 C 17.2 17.2 17.2 17.8 17 18 C 16.8 18.2 16.2 18.2 16 18 C 15.8 17.8 15.8 17.2 16 17 " fill = "rgb(170, 210, 33)" stroke = "rgb(170, 210, 33)" stroke-width = "0"/>
    <path d="M 17 17 C 17.2 16.8 17.8 16.8 18 17 C 18.2 17.2 18.2 17.8 18 18 C 17.8 18.2 17.2 18.2 17 18 C 16.8 17.8 16.8 17.2 17 17 " fill = "rgb(186, 188, 48)" stroke = "rgb(186, 188, 48)" stroke-width = "0"/>
    <path d="M 18 17 C 18.2 16.8 18.8 16.8 19 17 C 19.2 17.2 19.2 17.8 19 18 C 18.8 18.2 18.2 18.2 18 18 C 17.8 17.8 17.8 17.2 18 17 " fill = "rgb(64, 70, 71)" stroke = "rgb(64, 70, 71)" stroke-width = "0"/>
    <path d="M 19 17 C 19.2 16.8 19.8 16.8 20 17 C 20.2 17.2 20.2 17.8 20 18 C 19.8 18.2 19.2 18.2 19 18 C 18.8 17.8 18.8 17.2 19 17 " fill = "rgb(47, 53, 71)" stroke = "rgb(47, 53, 71)" stroke-width = "0"/>
    <path d="M 20 17 C 20.2 16.8 20.8 16.8 21 17 C 21.2 17.2 21.2 17.8 21 18 C 20.8 18.2 20.2 18.2 20 18 C 19.8 17.8 19.8 17.2 20 17 " fill = "rgb(49, 53, 79)" stroke = "rgb(49, 53, 79)" stroke-width = "0"/>
    <path d="M 21 17 C 21.2 16.8 21.8 16.8 22 17 C 22.2 17.2 22.2 17.8 22 18 C 21.8 18.2 21.2 18.2 21 18 C 20.8 17.8 20.8 17.2 21 17 " fill = "rgb(55, 55, 101)" stroke = "rgb(55, 55, 101)" stroke-width = "0"/>
    <path d="M 22 17 C 22.2 16.8 22.8 16.8 23 17 C 23.2 17.2 23.2 17.8 23 18 C 22.8 18.2 22.2 18.2 22 18 C 21.8 17.8 21.8 17.2 22 17 " fill = "rgb(210, 210, 220)" stroke = "rgb(210, 210, 220)" stroke-width = "0"/>
    <path d="M 3 18 C 3.15 17.85 3.8 17.8 4 18 C 4.2 18.2 4.15 18.85 4 19 C 3.85 19.15 3.45 18.95 3.25 18.75 C 3.05 18.55 2.85 18.15 3 18 " fill = "rgb(247, 247, 249)" stroke = "rgb(247, 247, 249)" stroke-width = "0"/>
    <path d="M 4 18 C 4.2 17.8 4.8 17.8 5 18 C 5.2 18.2 5.2 18.8 5 19 C 4.8 19.2 4.2 19.2 4 19 C 3.8 18.8 3.8 18.2 4 18 " fill = "rgb(180, 179, 197)" stroke = "rgb(180, 179, 197)" stroke-width = "0"/>
    <path d="M 5 18 C 5.2 17.8 5.8 17.8 6 18 C 6.2 18.2 6.2 18.8 6 19 C 5.8 19.2 5.2 19.2 5 19 C 4.8 18.8 4.8 18.2 5 18 " fill = "rgb(151, 153, 176)" stroke = "rgb(151, 153, 176)" stroke-width = "0"/>
    <path d="M 6 18 C 6.2 17.8 6.8 17.8 7 18 C 7.2 18.2 7.2 18.8 7 19 C 6.8 19.2 6.2 19.2 6 19 C 5.8 18.8 5.8 18.2 6 18 " fill = "rgb(109, 112, 145)" stroke = "rgb(109, 112, 145)" stroke-width = "0"/>
    <path d="M 7 18 C 7.2 17.8 7.8 17.8 8 18 C 8.2 18.2 8.2 18.8 8 19 C 7.8 19.2 7.2 19.2 7 19 C 6.8 18.8 6.8 18.2 7 18 " fill = "rgb(35, 37, 87)" stroke = "rgb(35, 37, 87)" stroke-width = "0"/>
    <path d="M 8 18 C 8.2 17.8 8.8 17.8 9 18 C 9.2 18.2 9.2 18.8 9 19 C 8.8 19.2 8.2 19.2 8 19 C 7.8 18.8 7.8 18.2 8 18 " fill = "rgb(65, 62, 111)" stroke = "rgb(65, 62, 111)" stroke-width = "0"/>
    <path d="M 9 18 C 9.2 17.8 9.8 17.8 10 18 C 10.2 18.2 10.2 18.8 10 19 C 9.8 19.2 9.2 19.2 9 19 C 8.8 18.8 8.8 18.2 9 18 " fill = "rgb(96, 131, 76)" stroke = "rgb(96, 131, 76)" stroke-width = "0"/>
    <path d="M 10 18 C 10.2 17.8 10.8 17.8 11 18 C 11.2 18.2 11.2 18.8 11 19 C 10.8 19.2 10.2 19.2 10 19 C 9.8 18.8 9.8 18.2 10 18 " fill = "rgb(120, 202, 20)" stroke = "rgb(120, 202, 20)" stroke-width = "0"/>
    <path d="M 11 18 C 11.2 17.8 11.8 17.8 12 18 C 12.2 18.2 12.2 18.8 12 19 C 11.8 19.2 11.2 19.2 11 19 C 10.8 18.8 10.8 18.2 11 18 " fill = "rgb(89, 165, 14)" stroke = "rgb(89, 165, 14)" stroke-width = "0"/>
    <path d="M 12 18 C 12.2 17.8 12.8 17.8 13 18 C 13.2 18.2 13.2 18.8 13 19 C 12.8 19.2 12.2 19.2 12 19 C 11.8 18.8 11.8 18.2 12 18 " fill = "rgb(59, 140, 4)" stroke = "rgb(59, 140, 4)" stroke-width = "0"/>
    <path d="M 13 18 C 13.2 17.8 13.8 17.8 14 18 C 14.2 18.2 14.2 18.8 14 19 C 13.8 19.2 13.2 19.2 13 19 C 12.8 18.8 12.8 18.2 13 18 " fill = "rgb(48, 120, 12)" stroke = "rgb(48, 120, 12)" stroke-width = "0"/>
    <path d="M 14 18 C 14.2 17.8 14.8 17.8 15 18 C 15.2 18.2 15.2 18.8 15 19 C 14.8 19.2 14.2 19.2 14 19 C 13.8 18.8 13.8 18.2 14 18 " fill = "rgb(62, 103, 47)" stroke = "rgb(62, 103, 47)" stroke-width = "0"/>
    <path d="M 15 18 C 15.2 17.8 15.8 17.8 16 18 C 16.2 18.2 16.2 18.8 16 19 C 15.8 19.2 15.2 19.2 15 19 C 14.8 18.8 14.8 18.2 15 18 " fill = "rgb(58, 102, 44)" stroke = "rgb(58, 102, 44)" stroke-width = "0"/>
    <path d="M 16 18 C 16.2 17.8 16.8 17.8 17 18 C 17.2 18.2 17.2 18.8 17 19 C 16.8 19.2 16.2 19.2 16 19 C 15.8 18.8 15.8 18.2 16 18 " fill = "rgb(73, 102, 46)" stroke = "rgb(73, 102, 46)" stroke-width = "0"/>
    <path d="M 17 18 C 17.2 17.8 17.8 17.8 18 18 C 18.2 18.2 18.2 18.8 18 19 C 17.8 19.2 17.2 19.2 17 19 C 16.8 18.8 16.8 18.2 17 18 " fill = "rgb(83, 93, 57)" stroke = "rgb(83, 93, 57)" stroke-width = "0"/>
    <path d="M 18 18 C 18.2 17.8 18.8 17.8 19 18 C 19.2 18.2 19.2 18.8 19 19 C 18.8 19.2 18.2 19.2 18 19 C 17.8 18.8 17.8 18.2 18 18 " fill = "rgb(38, 43, 84)" stroke = "rgb(38, 43, 84)" stroke-width = "0"/>
    <path d="M 19 18 C 19.2 17.8 19.8 17.8 20 18 C 20.2 18.2 20.2 18.8 20 19 C 19.8 19.2 19.2 19.2 19 19 C 18.8 18.8 18.8 18.2 19 18 " fill = "rgb(96, 99, 135)" stroke = "rgb(96, 99, 135)" stroke-width = "0"/>
    <path d="M 20 18 C 20.2 17.8 20.8 17.8 21 18 C 21.2 18.2 21.2 18.8 21 19 C 20.8 19.2 20.2 19.2 20 19 C 19.8 18.8 19.8 18.2 20 18 " fill = "rgb(147, 150, 173)" stroke = "rgb(147, 150, 173)" stroke-width = "0"/>
    <path d="M 21 18 C 21.2 17.8 21.8 17.8 22 18 C 22.2 18.2 22.2 18.8 22 19 C 21.8 19.2 21.2 19.2 21 19 C 20.8 18.8 20.8 18.2 21 18 " fill = "rgb(170, 169, 189)" stroke = "rgb(170, 169, 189)" stroke-width = "0"/>
    <path d="M 22 18 C 22.2 17.8 22.85 17.85 23 18 C 23.15 18.15 22.95 18.55 22.75 18.75 C 22.55 18.95 22.15 19.15 22 19 C 21.85 18.85 21.8 18.2 22 18 " fill = "rgb(236, 235, 240)" stroke = "rgb(236, 235, 240)" stroke-width = "0"/>
    <path d="M 6 19 C 6.15 18.85 6.8 18.8 7 19 C 7.2 19.2 7.15 19.85 7 20 C 6.85 20.15 6.45 19.95 6.25 19.75 C 6.05 19.55 5.85 19.15 6 19 " fill = "rgb(222, 221, 229)" stroke = "rgb(222, 221, 229)" stroke-width = "0"/>
    <path d="M 7 19 C 7.2 18.8 7.8 18.8 8 19 C 8.2 19.2 8.2 19.8 8 20 C 7.8 20.2 7.2 20.2 7 20 C 6.8 19.8 6.8 19.2 7 19 " fill = "rgb(113, 112, 145)" stroke = "rgb(113, 112, 145)" stroke-width = "0"/>
    <path d="M 8 19 C 8.2 18.8 8.8 18.8 9 19 C 9.2 19.2 9.2 19.8 9 20 C 8.8 20.2 8.2 20.2 8 20 C 7.8 19.8 7.8 19.2 8 19 " fill = "rgb(83, 80, 125)" stroke = "rgb(83, 80, 125)" stroke-width = "0"/>
    <path d="M 9 19 C 9.2 18.8 9.8 18.8 10 19 C 10.2 19.2 10.2 19.8 10 20 C 9.8 20.2 9.2 20.2 9 20 C 8.8 19.8 8.8 19.2 9 19 " fill = "rgb(95, 129, 75)" stroke = "rgb(95, 129, 75)" stroke-width = "0"/>
    <path d="M 10 19 C 10.2 18.8 10.8 18.8 11 19 C 11.2 19.2 11.2 19.8 11 20 C 10.8 20.2 10.2 20.2 10 20 C 9.8 19.8 9.8 19.2 10 19 " fill = "rgb(125, 207, 21)" stroke = "rgb(125, 207, 21)" stroke-width = "0"/>
    <path d="M 11 19 C 11.2 18.8 11.8 18.8 12 19 C 12.2 19.2 12.2 19.8 12 20 C 11.8 20.2 11.2 20.2 11 20 C 10.8 19.8 10.8 19.2 11 19 " fill = "rgb(127, 208, 25)" stroke = "rgb(127, 208, 25)" stroke-width = "0"/>
    <path d="M 12 19 C 12.2 18.8 12.8 18.8 13 19 C 13.2 19.2 13.2 19.8 13 20 C 12.8 20.2 12.2 20.2 12 20 C 11.8 19.8 11.8 19.2 12 19 " fill = "rgb(76, 155, 8)" stroke = "rgb(76, 155, 8)" stroke-width = "0"/>
    <path d="M 13 19 C 13.2 18.8 13.8 18.8 14 19 C 14.2 19.2 14.2 19.8 14 20 C 13.8 20.2 13.2 20.2 13 20 C 12.8 19.8 12.8 19.2 13 19 " fill = "rgb(34, 90, 21)" stroke = "rgb(34, 90, 21)" stroke-width = "0"/>
    <path d="M 14 19 C 14.2 18.8 14.8 18.8 15 19 C 15.2 19.2 15.2 19.8 15 20 C 14.8 20.2 14.2 20.2 14 20 C 13.8 19.8 13.8 19.2 14 19 " fill = "rgb(18, 19, 80)" stroke = "rgb(18, 19, 80)" stroke-width = "0"/>
    <path d="M 15 19 C 15.2 18.8 15.8 18.8 16 19 C 16.2 19.2 16.2 19.8 16 20 C 15.8 20.2 15.2 20.2 15 20 C 14.8 19.8 14.8 19.2 15 19 " fill = "rgb(51, 55, 102)" stroke = "rgb(51, 55, 102)" stroke-width = "0"/>
    <path d="M 16 19 C 16.2 18.8 16.8 18.8 17 19 C 17.2 19.2 17.2 19.8 17 20 C 16.8 20.2 16.2 20.2 16 20 C 15.8 19.8 15.8 19.2 16 19 " fill = "rgb(60, 66, 110)" stroke = "rgb(60, 66, 110)" stroke-width = "0"/>
    <path d="M 17 19 C 17.2 18.8 17.8 18.8 18 19 C 18.2 19.2 18.2 19.8 18 20 C 17.8 20.2 17.2 20.2 17 20 C 16.8 19.8 16.8 19.2 17 19 " fill = "rgb(67, 72, 115)" stroke = "rgb(67, 72, 115)" stroke-width = "0"/>
    <path d="M 18 19 C 18.2 18.8 18.8 18.8 19 19 C 19.2 19.2 19.2 19.8 19 20 C 18.8 20.2 18.2 20.2 18 20 C 17.8 19.8 17.8 19.2 18 19 " fill = "rgb(107, 107, 141)" stroke = "rgb(107, 107, 141)" stroke-width = "0"/>
    <path d="M 19 19 C 19.2 18.8 19.85 18.85 20 19 C 20.15 19.15 19.95 19.55 19.75 19.75 C 19.55 19.95 19.15 20.15 19 20 C 18.85 19.85 18.8 19.2 19 19 " fill = "rgb(205, 204, 216)" stroke = "rgb(205, 204, 216)" stroke-width = "0"/>
    <path d="M 8 20 C 8.2 19.8 8.8 19.8 9 20 C 9.2 20.2 9.2 20.8 9 21 C 8.8 21.2 8.2 21.2 8 21 C 7.8 20.8 7.8 20.2 8 20 " fill = "rgb(119, 116, 153)" stroke = "rgb(119, 116, 153)" stroke-width = "0"/>
    <path d="M 9 20 C 9.2 19.8 9.8 19.8 10 20 C 10.2 20.2 10.2 20.8 10 21 C 9.8 21.2 9.2 21.2 9 21 C 8.8 20.8 8.8 20.2 9 20 " fill = "rgb(92, 127, 73)" stroke = "rgb(92, 127, 73)" stroke-width = "0"/>
    <path d="M 10 20 C 10.2 19.8 10.8 19.8 11 20 C 11.2 20.2 11.2 20.8 11 21 C 10.8 21.2 10.2 21.2 10 21 C 9.8 20.8 9.8 20.2 10 20 " fill = "rgb(124, 207, 21)" stroke = "rgb(124, 207, 21)" stroke-width = "0"/>
    <path d="M 11 20 C 11.2 19.8 11.8 19.8 12 20 C 12.2 20.2 12.2 20.8 12 21 C 11.8 21.2 11.2 21.2 11 21 C 10.8 20.8 10.8 20.2 11 20 " fill = "rgb(125, 205, 25)" stroke = "rgb(125, 205, 25)" stroke-width = "0"/>
    <path d="M 12 20 C 12.2 19.8 12.8 19.8 13 20 C 13.2 20.2 13.2 20.8 13 21 C 12.8 21.2 12.2 21.2 12 21 C 11.8 20.8 11.8 20.2 12 20 " fill = "rgb(78, 172, 5)" stroke = "rgb(78, 172, 5)" stroke-width = "0"/>
    <path d="M 13 20 C 13.2 19.8 13.8 19.8 14 20 C 14.2 20.2 14.2 20.8 14 21 C 13.8 21.2 13.2 21.2 13 21 C 12.8 20.8 12.8 20.2 13 20 " fill = "rgb(52, 125, 27)" stroke = "rgb(52, 125, 27)" stroke-width = "0"/>
    <path d="M 14 20 C 14.2 19.8 14.8 19.8 15 20 C 15.2 20.2 15.2 20.8 15 21 C 14.8 21.2 14.2 21.2 14 21 C 13.8 20.8 13.8 20.2 14 20 " fill = "rgb(66, 61, 113)" stroke = "rgb(66, 61, 113)" stroke-width = "0"/>
    <path d="M 15 20 C 15.2 19.8 15.8 19.8 16 20 C 16.2 20.2 16.2 20.8 16 21 C 15.8 21.2 15.2 21.2 15 21 C 14.8 20.8 14.8 20.2 15 20 " fill = "rgb(215, 214, 224)" stroke = "rgb(215, 214, 224)" stroke-width = "0"/>
    <path d="M 8 21 C 8.2 20.8 8.8 20.8 9 21 C 9.2 21.2 9.2 21.8 9 22 C 8.8 22.2 8.2 22.2 8 22 C 7.8 21.8 7.8 21.2 8 21 " fill = "rgb(114, 112, 149)" stroke = "rgb(114, 112, 149)" stroke-width = "0"/>
    <path d="M 9 21 C 9.2 20.8 9.8 20.8 10 21 C 10.2 21.2 10.2 21.8 10 22 C 9.8 22.2 9.2 22.2 9 22 C 8.8 21.8 8.8 21.2 9 21 " fill = "rgb(91, 125, 72)" stroke = "rgb(91, 125, 72)" stroke-width = "0"/>
    <path d="M 10 21 C 10.2 20.8 10.8 20.8 11 21 C 11.2 21.2 11.2 21.8 11 22 C 10.8 22.2 10.2 22.2 10 22 C 9.8 21.8 9.8 21.2 10 21 " fill = "rgb(126, 208, 22)" stroke = "rgb(126, 208, 22)" stroke-width = "0"/>
    <path d="M 11 21 C 11.2 20.8 11.8 20.8 12 21 C 12.2 21.2 12.2 21.8 12 22 C 11.8 22.2 11.2 22.2 11 22 C 10.8 21.8 10.8 21.2 11 21 " fill = "rgb(127, 208, 23)" stroke = "rgb(127, 208, 23)" stroke-width = "0"/>
    <path d="M 12 21 C 12.2 20.8 12.8 20.8 13 21 C 13.2 21.2 13.2 21.8 13 22 C 12.8 22.2 12.2 22.2 12 22 C 11.8 21.8 11.8 21.2 12 21 " fill = "rgb(85, 132, 57)" stroke = "rgb(85, 132, 57)" stroke-width = "0"/>
    <path d="M 13 21 C 13.2 20.8 13.8 20.8 14 21 C 14.2 21.2 14.2 21.8 14 22 C 13.8 22.2 13.2 22.2 13 22 C 12.8 21.8 12.8 21.2 13 21 " fill = "rgb(103, 119, 123)" stroke = "rgb(103, 119, 123)" stroke-width = "0"/>
    <path d="M 14 21 C 14.2 20.8 14.8 20.8 15 21 C 15.2 21.2 15.2 21.8 15 22 C 14.8 22.2 14.2 22.2 14 22 C 13.8 21.8 13.8 21.2 14 21 " fill = "rgb(213, 212, 224)" stroke = "rgb(213, 212, 224)" stroke-width = "0"/>
    <path d="M 15 21 C 15.2 20.8 15.85 20.85 16 21 C 16.15 21.15 15.95 21.55 15.75 21.75 C 15.55 21.95 15.15 22.15 15 22 C 14.85 21.85 14.8 21.2 15 21 " fill = "rgb(244, 244, 247)" stroke = "rgb(244, 244, 247)" stroke-width = "0"/>
    <path d="M 8 22 C 8.15 21.85 8.8 21.8 9 22 C 9.2 22.2 9.15 22.85 9 23 C 8.85 23.15 8.45 22.95 8.25 22.75 C 8.05 22.55 7.85 22.15 8 22 " fill = "rgb(181, 179, 201)" stroke = "rgb(181, 179, 201)" stroke-width = "0"/>
    <path d="M 9 22 C 9.2 21.8 9.8 21.8 10 22 C 10.2 22.2 10.2 22.8 10 23 C 9.8 23.2 9.2 23.2 9 23 C 8.8 22.8 8.8 22.2 9 22 " fill = "rgb(124, 162, 104)" stroke = "rgb(124, 162, 104)" stroke-width = "0"/>
    <path d="M 10 22 C 10.2 21.8 10.8 21.8 11 22 C 11.2 22.2 11.2 22.8 11 23 C 10.8 23.2 10.2 23.2 10 23 C 9.8 22.8 9.8 22.2 10 22 " fill = "rgb(86, 177, 5)" stroke = "rgb(86, 177, 5)" stroke-width = "0"/>
    <path d="M 11 22 C 11.2 21.8 11.8 21.8 12 22 C 12.2 22.2 12.2 22.8 12 23 C 11.8 23.2 11.2 23.2 11 23 C 10.8 22.8 10.8 22.2 11 22 " fill = "rgb(85, 177, 5)" stroke = "rgb(85, 177, 5)" stroke-width = "0"/>
    <path d="M 12 22 C 12.2 21.8 12.8 21.8 13 22 C 13.2 22.2 13.2 22.8 13 23 C 12.8 23.2 12.2 23.2 12 23 C 11.8 22.8 11.8 22.2 12 22 " fill = "rgb(127, 161, 110)" stroke = "rgb(127, 161, 110)" stroke-width = "0"/>
    <path d="M 13 22 C 13.2 21.8 13.85 21.85 14 22 C 14.15 22.15 13.95 22.55 13.75 22.75 C 13.55 22.95 13.15 23.15 13 23 C 12.85 22.85 12.8 22.2 13 22 " fill = "rgb(186, 182, 205)" stroke = "rgb(186, 182, 205)" stroke-width = "0"/>
    <path d="M 9 23 C 9.2 22.8 9.8 22.8 10 23 C 10.2 23.2 10.2 23.8 10 24 C 9.8 24.2 9.2 24.2 9 24 C 8.8 23.8 8.8 23.2 9 23 " fill = "rgb(181, 217, 163)" stroke = "rgb(181, 217, 163)" stroke-width = "0"/>
    <path d="M 10 23 C 10.2 22.8 10.8 22.8 11 23 C 11.2 23.2 11.2 23.8 11 24 C 10.8 24.2 10.2 24.2 10 24 C 9.8 23.8 9.8 23.2 10 23 " fill = "rgb(74, 159, 33)" stroke = "rgb(74, 159, 33)" stroke-width = "0"/>
    <path d="M 11 23 C 11.2 22.8 11.8 22.8 12 23 C 12.2 23.2 12.2 23.8 12 24 C 11.8 24.2 11.2 24.2 11 24 C 10.8 23.8 10.8 23.2 11 23 " fill = "rgb(74, 158, 33)" stroke = "rgb(74, 158, 33)" stroke-width = "0"/>
    <path d="M 12 23 C 12.2 22.8 12.8 22.8 13 23 C 13.2 23.2 13.2 23.8 13 24 C 12.8 24.2 12.2 24.2 12 24 C 11.8 23.8 11.8 23.2 12 23 " fill = "rgb(188, 221, 171)" stroke = "rgb(188, 221, 171)" stroke-width = "0"/>
    <path d="M 9 24 C 9.15 23.85 9.8 23.8 10 24 C 10.2 24.2 10.15 24.85 10 25 C 9.85 25.15 9.45 24.95 9.25 24.75 C 9.05 24.55 8.85 24.15 9 24 " fill = "rgb(251, 253, 250)" stroke = "rgb(251, 253, 250)" stroke-width = "0"/>
    <path d="M 10 24 C 10.2 23.8 10.6 24 11 24 C 11.4 24 11.8 23.8 12 24 C 12.2 24.2 12.2 24.8 12 25 C 11.8 25.2 11.4 25 11 25 C 10.6 25 10.2 25.2 10 25 C 9.8 24.8 9.8 24.2 10 24 " fill = "rgb(245, 250, 242)" stroke = "rgb(245, 250, 242)" stroke-width = "0"/>
    <path d="M 12 24 C 12.2 23.8 12.85 23.85 13 24 C 13.15 24.15 12.95 24.55 12.75 24.75 C 12.55 24.95 12.15 25.15 12 25 C 11.85 24.85 11.8 24.2 12 24 " fill = "rgb(251, 253, 250)" stroke = "rgb(251, 253, 250)" stroke-width = "0"/>
</svg>
