<svg version="1.1" baseProfile = "full" width = "26" height = "24" xmlns = "http://www.w3.org/2000/svg">
    <path d="M 0 0 C 0.2 -0.2 0.6 -3.49691e-08 1 0 C 1.4 0 1.6 -3.49691e-08 2 0 C 2.4 0 2.6 -3.49691e-08 3 0 C 3.4 0 3.6 -3.49691e-08 4 0 C 4.4 0 4.6 -3.49691e-08 5 0 C 5.4 0 5.6 -3.49691e-08 6 0 C 6.4 0 6.6 -3.49691e-08 7 0 C 7.4 0 7.6 -3.49691e-08 8 0 C 8.4 0 8.6 -3.49691e-08 9 0 C 9.4 0 9.6 -3.49691e-08 10 0 C 10.4 0 10.6 -3.49691e-08 11 0 C 11.4 0 11.6 -3.49691e-08 12 0 C 12.4 0 12.6 -3.49691e-08 13 0 C 13.4 0 13.6 -3.49691e-08 14 0 C 14.4 0 14.6 -3.49691e-08 15 0 C 15.4 0 15.6 -3.49691e-08 16 0 C 16.4 0 16.6 -3.49691e-08 17 0 C 17.4 0 17.6 -3.49691e-08 18 0 C 18.4 0 18.6 -3.49691e-08 19 0 C 19.4 0 19.6 -3.49691e-08 20 0 C 20.4 0 20.6 -3.49691e-08 21 0 C 21.4 0 21.6 -3.49691e-08 22 0 C 22.4 0 22.6 -3.49691e-08 23 0 C 23.4 0 23.6 -3.49691e-08 24 0 C 24.4 0 24.6 -3.49691e-08 25 0 C 25.4 0 25.8 -0.2 26 0 C 26.2 0.2 26 0.6 26 1 C 26 1.4 26 1.6 26 2 C 26 2.4 26 2.6 26 3 C 26 3.4 26 3.6 26 4 C 26 4.4 26 4.6 26 5 C 26 5.4 26 5.6 26 6 C 26 6.4 26 6.6 26 7 C 26 7.4 26 7.6 26 8 C 26 8.4 26 8.6 26 9 C 26 9.4 26 9.6 26 10 C 26 10.4 26 10.6 26 11 C 26 11.4 26 11.6 26 12 C 26 12.4 26 12.6 26 13 C 26 13.4 26 13.6 26 14 C 26 14.4 26 14.6 26 15 C 26 15.4 26 15.6 26 16 C 26 16.4 26 16.6 26 17 C 26 17.4 26 17.6 26 18 C 26 18.4 26 18.6 26 19 C 26 19.4 26 19.6 26 20 C 26 20.4 26 20.6 26 21 C 26 21.4 26 21.6 26 22 C 26 22.4 26 22.6 26 23 C 26 23.4 26.2 23.8 26 24 C 25.8 24.2 25.4 24 25 24 C 24.6 24 24.4 24 24 24 C 23.6 24 23.25 24.15 23 24 C 22.75 23.85 22.9 23.4 22.75 23.25 C 22.6 23.1 22.4 23.1 22.25 23.25 C 22.1 23.4 22.25 23.85 22 24 C 21.75 24.15 21.4 24 21 24 C 20.6 24 20.4 24 20 24 C 19.6 24 19.4 24 19 24 C 18.6 24 18.4 24 18 24 C 17.6 24 17.4 24 17 24 C 16.6 24 16.4 24 16 24 C 15.6 24 15.4 24 15 24 C 14.6 24 14.4 24 14 24 C 13.6 24 13.4 24 13 24 C 12.6 24 12.4 24 12 24 C 11.6 24 11.4 24 11 24 C 10.6 24 10.4 24 10 24 C 9.6 24 9.4 24 9 24 C 8.6 24 8.4 24 8 24 C 7.6 24 7.4 24 7 24 C 6.6 24 6.4 24 6 24 C 5.6 24 5.4 24 5 24 C 4.6 24 4.4 24 4 24 C 3.6 24 3.4 24 3 24 C 2.6 24 2.25 24.15 2 24 C 1.75 23.85 1.95 23.45 1.75 23.25 C 1.55 23.05 1.35 23.05 1 23 C 0.65 22.95 0.2 23.2 0 23 C -0.2 22.8 3.01992e-08 22.4 0 22 C -1.74846e-08 21.6 3.01992e-08 21.4 0 21 C -1.74846e-08 20.6 3.01992e-08 20.4 0 20 C -1.74846e-08 19.6 3.01992e-08 19.4 0 19 C -1.74846e-08 18.6 3.01992e-08 18.4 0 18 C -1.74846e-08 17.6 3.01992e-08 17.4 0 17 C -1.74846e-08 16.6 3.01992e-08 16.4 0 16 C -1.74846e-08 15.6 3.01992e-08 15.4 0 15 C -1.74846e-08 14.6 3.01992e-08 14.4 0 14 C -1.74846e-08 13.6 3.01992e-08 13.4 0 13 C -1.74846e-08 12.6 3.01992e-08 12.4 0 12 C -1.74846e-08 11.6 3.01992e-08 11.4 0 11 C -1.74846e-08 10.6 3.01992e-08 10.4 0 10 C -1.74846e-08 9.6 3.01992e-08 9.4 0 9 C -1.74846e-08 8.6 3.01992e-08 8.4 0 8 C -1.74846e-08 7.6 3.01992e-08 7.4 0 7 C -1.74846e-08 6.6 3.01992e-08 6.4 0 6 C -1.74846e-08 5.6 3.01992e-08 5.4 0 5 C -1.74846e-08 4.6 3.01992e-08 4.4 0 4 C -1.74846e-08 3.6 3.01992e-08 3.4 0 3 C -1.74846e-08 2.6 3.01992e-08 2.4 0 2 C -1.74846e-08 1.6 3.01992e-08 1.4 0 1 C -1.74846e-08 0.6 -0.2 0.2 0 0 " fill = "rgb(235, 0, 235)" stroke = "rgb(235, 0, 235)" stroke-width = "0"/>
    <path d="M 10.25 1.25 C 10.45 1.05 10.85 0.85 11 1 C 11.15 1.15 11.2 1.8 11 2 C 10.8 2.2 10.15 2.15 10 2 C 9.85 1.85 10.05 1.45 10.25 1.25 " fill = "rgb(213, 213, 212)" stroke = "rgb(213, 213, 212)" stroke-width = "0"/>
    <path d="M 11 1 C 11.2 0.8 11.8 0.8 12 1 C 12.2 1.2 12.2 1.8 12 2 C 11.8 2.2 11.2 2.2 11 2 C 10.8 1.8 10.8 1.2 11 1 " fill = "rgb(187, 187, 185)" stroke = "rgb(187, 187, 185)" stroke-width = "0"/>
    <path d="M 12 1 C 12.2 0.8 12.6 1 13 1 C 13.4 1 13.6 1 14 1 C 14.4 1 14.6 1 15 1 C 15.4 1 15.6 1 16 1 C 16.4 1 16.6 1 17 1 C 17.4 1 17.8 0.8 18 1 C 18.2 1.2 18.2 1.8 18 2 C 17.8 2.2 17.4 2 17 2 C 16.6 2 16.4 2 16 2 C 15.6 2 15.4 2 15 2 C 14.6 2 14.4 2 14 2 C 13.6 2 13.4 2 13 2 C 12.6 2 12.2 2.2 12 2 C 11.8 1.8 11.8 1.2 12 1 " fill = "rgb(188, 188, 186)" stroke = "rgb(188, 188, 186)" stroke-width = "0"/>
    <path d="M 18 1 C 18.2 0.8 18.8 0.8 19 1 C 19.2 1.2 19.2 1.8 19 2 C 18.8 2.2 18.2 2.2 18 2 C 17.8 1.8 17.8 1.2 18 1 " fill = "rgb(188, 188, 185)" stroke = "rgb(188, 188, 185)" stroke-width = "0"/>
    <path d="M 19 1 C 19.2 0.8 19.8 0.8 20 1 C 20.2 1.2 20.2 1.8 20 2 C 19.8 2.2 19.2 2.2 19 2 C 18.8 1.8 18.8 1.2 19 1 " fill = "rgb(198, 198, 196)" stroke = "rgb(198, 198, 196)" stroke-width = "0"/>
    <path d="M 20 1 C 20.15 0.85 20.55 1.05 20.75 1.25 C 20.95 1.45 21.15 1.85 21 2 C 20.85 2.15 20.2 2.2 20 2 C 19.8 1.8 19.85 1.15 20 1 " fill = "rgb(251, 251, 251)" stroke = "rgb(251, 251, 251)" stroke-width = "0"/>
    <path d="M 10 2 C 10.2 1.8 10.8 1.8 11 2 C 11.2 2.2 11.2 2.8 11 3 C 10.8 3.2 10.2 3.2 10 3 C 9.8 2.8 9.8 2.2 10 2 " fill = "rgb(100, 102, 96)" stroke = "rgb(100, 102, 96)" stroke-width = "0"/>
    <path d="M 11 2 C 11.2 1.8 11.8 1.8 12 2 C 12.2 2.2 12.2 2.8 12 3 C 11.8 3.2 11.2 3.2 11 3 C 10.8 2.8 10.8 2.2 11 2 " fill = "rgb(0, 1, 0)" stroke = "rgb(0, 1, 0)" stroke-width = "0"/>
    <path d="M 12 2 C 12.2 1.8 12.6 2 13 2 C 13.4 2 13.6 2 14 2 C 14.4 2 14.8 1.8 15 2 C 15.2 2.2 15.2 2.8 15 3 C 14.8 3.2 14.4 3 14 3 C 13.6 3 13.4 3 13 3 C 12.6 3 12.2 3.2 12 3 C 11.8 2.8 11.8 2.2 12 2 " fill = "rgb(2, 5, 0)" stroke = "rgb(2, 5, 0)" stroke-width = "0"/>
    <path d="M 15 2 C 15.2 1.8 15.8 1.8 16 2 C 16.2 2.2 16.2 2.8 16 3 C 15.8 3.2 15.2 3.2 15 3 C 14.8 2.8 14.8 2.2 15 2 " fill = "rgb(3, 6, 0)" stroke = "rgb(3, 6, 0)" stroke-width = "0"/>
    <path d="M 16 2 C 16.2 1.8 16.8 1.8 17 2 C 17.2 2.2 17.2 2.8 17 3 C 16.8 3.2 16.2 3.2 16 3 C 15.8 2.8 15.8 2.2 16 2 " fill = "rgb(5, 7, 0)" stroke = "rgb(5, 7, 0)" stroke-width = "0"/>
    <path d="M 17 2 C 17.2 1.8 17.8 1.8 18 2 C 18.2 2.2 18.2 2.8 18 3 C 17.8 3.2 17.2 3.2 17 3 C 16.8 2.8 16.8 2.2 17 2 " fill = "rgb(3, 6, 0)" stroke = "rgb(3, 6, 0)" stroke-width = "0"/>
    <path d="M 18 2 C 18.2 1.8 18.8 1.8 19 2 C 19.2 2.2 19.2 2.8 19 3 C 18.8 3.2 18.2 3.2 18 3 C 17.8 2.8 17.8 2.2 18 2 " fill = "rgb(2, 4, 0)" stroke = "rgb(2, 4, 0)" stroke-width = "0"/>
    <path d="M 19 2 C 19.2 1.8 19.8 1.8 20 2 C 20.2 2.2 20.2 2.8 20 3 C 19.8 3.2 19.2 3.2 19 3 C 18.8 2.8 18.8 2.2 19 2 " fill = "rgb(43, 43, 36)" stroke = "rgb(43, 43, 36)" stroke-width = "0"/>
    <path d="M 20 2 C 20.2 1.8 20.8 1.8 21 2 C 21.2 2.2 21.2 2.8 21 3 C 20.8 3.2 20.2 3.2 20 3 C 19.8 2.8 19.8 2.2 20 2 " fill = "rgb(240, 240, 240)" stroke = "rgb(240, 240, 240)" stroke-width = "0"/>
    <path d="M 7.25 3.25 C 7.45 3.05 7.85 2.85 8 3 C 8.15 3.15 8.2 3.8 8 4 C 7.8 4.2 7.15 4.15 7 4 C 6.85 3.85 7.05 3.45 7.25 3.25 " fill = "rgb(182, 182, 180)" stroke = "rgb(182, 182, 180)" stroke-width = "0"/>
    <path d="M 8 3 C 8.2 2.8 8.8 2.8 9 3 C 9.2 3.2 9.2 3.8 9 4 C 8.8 4.2 8.2 4.2 8 4 C 7.8 3.8 7.8 3.2 8 3 " fill = "rgb(66, 67, 60)" stroke = "rgb(66, 67, 60)" stroke-width = "0"/>
    <path d="M 9 3 C 9.2 2.8 9.8 2.8 10 3 C 10.2 3.2 10.2 3.8 10 4 C 9.8 4.2 9.2 4.2 9 4 C 8.8 3.8 8.8 3.2 9 3 " fill = "rgb(67, 73, 68)" stroke = "rgb(67, 73, 68)" stroke-width = "0"/>
    <path d="M 10 3 C 10.2 2.8 10.8 2.8 11 3 C 11.2 3.2 11.2 3.8 11 4 C 10.8 4.2 10.2 4.2 10 4 C 9.8 3.8 9.8 3.2 10 3 " fill = "rgb(80, 35, 25)" stroke = "rgb(80, 35, 25)" stroke-width = "0"/>
    <path d="M 11 3 C 11.2 2.8 11.8 2.8 12 3 C 12.2 3.2 12.2 3.8 12 4 C 11.8 4.2 11.2 4.2 11 4 C 10.8 3.8 10.8 3.2 11 3 " fill = "rgb(125, 33, 15)" stroke = "rgb(125, 33, 15)" stroke-width = "0"/>
    <path d="M 12 3 C 12.2 2.8 12.8 2.8 13 3 C 13.2 3.2 13.2 3.8 13 4 C 12.8 4.2 12.2 4.2 12 4 C 11.8 3.8 11.8 3.2 12 3 " fill = "rgb(196, 74, 48)" stroke = "rgb(196, 74, 48)" stroke-width = "0"/>
    <path d="M 13 3 C 13.2 2.8 13.8 2.8 14 3 C 14.2 3.2 14.2 3.8 14 4 C 13.8 4.2 13.2 4.2 13 4 C 12.8 3.8 12.8 3.2 13 3 " fill = "rgb(192, 72, 46)" stroke = "rgb(192, 72, 46)" stroke-width = "0"/>
    <path d="M 14 3 C 14.2 2.8 14.8 2.8 15 3 C 15.2 3.2 15.2 3.8 15 4 C 14.8 4.2 14.2 4.2 14 4 C 13.8 3.8 13.8 3.2 14 3 " fill = "rgb(194, 73, 47)" stroke = "rgb(194, 73, 47)" stroke-width = "0"/>
    <path d="M 15 3 C 15.2 2.8 15.8 2.8 16 3 C 16.2 3.2 16.2 3.8 16 4 C 15.8 4.2 15.2 4.2 15 4 C 14.8 3.8 14.8 3.2 15 3 " fill = "rgb(169, 59, 36)" stroke = "rgb(169, 59, 36)" stroke-width = "0"/>
    <path d="M 16 3 C 16.2 2.8 16.8 2.8 17 3 C 17.2 3.2 17.2 3.8 17 4 C 16.8 4.2 16.2 4.2 16 4 C 15.8 3.8 15.8 3.2 16 3 " fill = "rgb(85, 12, 0)" stroke = "rgb(85, 12, 0)" stroke-width = "0"/>
    <path d="M 17 3 C 17.2 2.8 17.8 2.8 18 3 C 18.2 3.2 18.2 3.8 18 4 C 17.8 4.2 17.2 4.2 17 4 C 16.8 3.8 16.8 3.2 17 3 " fill = "rgb(171, 59, 36)" stroke = "rgb(171, 59, 36)" stroke-width = "0"/>
    <path d="M 18 3 C 18.2 2.8 18.8 2.8 19 3 C 19.2 3.2 19.2 3.8 19 4 C 18.8 4.2 18.2 4.2 18 4 C 17.8 3.8 17.8 3.2 18 3 " fill = "rgb(113, 46, 28)" stroke = "rgb(113, 46, 28)" stroke-width = "0"/>
    <path d="M 19 3 C 19.2 2.8 19.8 2.8 20 3 C 20.2 3.2 20.2 3.8 20 4 C 19.8 4.2 19.2 4.2 19 4 C 18.8 3.8 18.8 3.2 19 3 " fill = "rgb(44, 50, 44)" stroke = "rgb(44, 50, 44)" stroke-width = "0"/>
    <path d="M 20 3 C 20.2 2.8 20.8 2.8 21 3 C 21.2 3.2 21.2 3.8 21 4 C 20.8 4.2 20.2 4.2 20 4 C 19.8 3.8 19.8 3.2 20 3 " fill = "rgb(246, 247, 246)" stroke = "rgb(246, 247, 246)" stroke-width = "0"/>
    <path d="M 4.25 4.25 C 4.45 4.05 4.85 3.85 5 4 C 5.15 4.15 5.2 4.8 5 5 C 4.8 5.2 4.15 5.15 4 5 C 3.85 4.85 4.05 4.45 4.25 4.25 " fill = "rgb(234, 234, 233)" stroke = "rgb(234, 234, 233)" stroke-width = "0"/>
    <path d="M 5 4 C 5.2 3.8 5.8 3.8 6 4 C 6.2 4.2 6.2 4.8 6 5 C 5.8 5.2 5.2 5.2 5 5 C 4.8 4.8 4.8 4.2 5 4 " fill = "rgb(145, 145, 141)" stroke = "rgb(145, 145, 141)" stroke-width = "0"/>
    <path d="M 6 4 C 6.2 3.8 6.8 3.8 7 4 C 7.2 4.2 7.2 4.8 7 5 C 6.8 5.2 6.2 5.2 6 5 C 5.8 4.8 5.8 4.2 6 4 " fill = "rgb(149, 149, 145)" stroke = "rgb(149, 149, 145)" stroke-width = "0"/>
    <path d="M 7 4 C 7.2 3.8 7.8 3.8 8 4 C 8.2 4.2 8.2 4.8 8 5 C 7.8 5.2 7.2 5.2 7 5 C 6.8 4.8 6.8 4.2 7 4 " fill = "rgb(89, 90, 84)" stroke = "rgb(89, 90, 84)" stroke-width = "0"/>
    <path d="M 8 4 C 8.2 3.8 8.8 3.8 9 4 C 9.2 4.2 9.2 4.8 9 5 C 8.8 5.2 8.2 5.2 8 5 C 7.8 4.8 7.8 4.2 8 4 " fill = "rgb(21, 13, 3)" stroke = "rgb(21, 13, 3)" stroke-width = "0"/>
    <path d="M 9 4 C 9.2 3.8 9.8 3.8 10 4 C 10.2 4.2 10.2 4.8 10 5 C 9.8 5.2 9.2 5.2 9 5 C 8.8 4.8 8.8 4.2 9 4 " fill = "rgb(109, 45, 26)" stroke = "rgb(109, 45, 26)" stroke-width = "0"/>
    <path d="M 10 4 C 10.2 3.8 10.8 3.8 11 4 C 11.2 4.2 11.2 4.8 11 5 C 10.8 5.2 10.2 5.2 10 5 C 9.8 4.8 9.8 4.2 10 4 " fill = "rgb(115, 26, 9)" stroke = "rgb(115, 26, 9)" stroke-width = "0"/>
    <path d="M 11 4 C 11.2 3.8 11.8 3.8 12 4 C 12.2 4.2 12.2 4.8 12 5 C 11.8 5.2 11.2 5.2 11 5 C 10.8 4.8 10.8 4.2 11 4 " fill = "rgb(160, 40, 18)" stroke = "rgb(160, 40, 18)" stroke-width = "0"/>
    <path d="M 12 4 C 12.2 3.8 12.8 3.8 13 4 C 13.2 4.2 13.2 4.8 13 5 C 12.8 5.2 12.2 5.2 12 5 C 11.8 4.8 11.8 4.2 12 4 " fill = "rgb(255, 94, 61)" stroke = "rgb(255, 94, 61)" stroke-width = "0"/>
    <path d="M 13 4 C 13.2 3.8 13.8 3.8 14 4 C 14.2 4.2 14.2 4.8 14 5 C 13.8 5.2 13.2 5.2 13 5 C 12.8 4.8 12.8 4.2 13 4 " fill = "rgb(250, 91, 59)" stroke = "rgb(250, 91, 59)" stroke-width = "0"/>
    <path d="M 14 4 C 14.2 3.8 14.8 3.8 15 4 C 15.2 4.2 15.2 4.8 15 5 C 14.8 5.2 14.2 5.2 14 5 C 13.8 4.8 13.8 4.2 14 4 " fill = "rgb(252, 92, 60)" stroke = "rgb(252, 92, 60)" stroke-width = "0"/>
    <path d="M 15 4 C 15.2 3.8 15.8 3.8 16 4 C 16.2 4.2 16.2 4.8 16 5 C 15.8 5.2 15.2 5.2 15 5 C 14.8 4.8 14.8 4.2 15 4 " fill = "rgb(219, 74, 45)" stroke = "rgb(219, 74, 45)" stroke-width = "0"/>
    <path d="M 16 4 C 16.2 3.8 16.8 3.8 17 4 C 17.2 4.2 17.2 4.8 17 5 C 16.8 5.2 16.2 5.2 16 5 C 15.8 4.8 15.8 4.2 16 4 " fill = "rgb(107, 11, 0)" stroke = "rgb(107, 11, 0)" stroke-width = "0"/>
    <path d="M 17 4 C 17.2 3.8 17.8 3.8 18 4 C 18.2 4.2 18.2 4.8 18 5 C 17.8 5.2 17.2 5.2 17 5 C 16.8 4.8 16.8 4.2 17 4 " fill = "rgb(220, 74, 45)" stroke = "rgb(220, 74, 45)" stroke-width = "0"/>
    <path d="M 18 4 C 18.2 3.8 18.8 3.8 19 4 C 19.2 4.2 19.2 4.8 19 5 C 18.8 5.2 18.2 5.2 18 5 C 17.8 4.8 17.8 4.2 18 4 " fill = "rgb(168, 58, 34)" stroke = "rgb(168, 58, 34)" stroke-width = "0"/>
    <path d="M 19 4 C 19.2 3.8 19.8 3.8 20 4 C 20.2 4.2 20.2 4.8 20 5 C 19.8 5.2 19.2 5.2 19 5 C 18.8 4.8 18.8 4.2 19 4 " fill = "rgb(67, 32, 22)" stroke = "rgb(67, 32, 22)" stroke-width = "0"/>
    <path d="M 20 4 C 20.2 3.8 20.8 3.8 21 4 C 21.2 4.2 21.2 4.8 21 5 C 20.8 5.2 20.2 5.2 20 5 C 19.8 4.8 19.8 4.2 20 4 " fill = "rgb(135, 133, 129)" stroke = "rgb(135, 133, 129)" stroke-width = "0"/>
    <path d="M 21 4 C 21.15 3.85 21.55 4.05 21.75 4.25 C 21.95 4.45 22.15 4.85 22 5 C 21.85 5.15 21.2 5.2 21 5 C 20.8 4.8 20.85 4.15 21 4 " fill = "rgb(218, 218, 217)" stroke = "rgb(218, 218, 217)" stroke-width = "0"/>
    <path d="M 2.25 5.25 C 2.45 5.05 2.85 4.85 3 5 C 3.15 5.15 3.2 5.8 3 6 C 2.8 6.2 2.15 6.15 2 6 C 1.85 5.85 2.05 5.45 2.25 5.25 " fill = "rgb(226, 226, 225)" stroke = "rgb(226, 226, 225)" stroke-width = "0"/>
    <path d="M 3 5 C 3.2 4.8 3.8 4.8 4 5 C 4.2 5.2 4.2 5.8 4 6 C 3.8 6.2 3.2 6.2 3 6 C 2.8 5.8 2.8 5.2 3 5 " fill = "rgb(221, 221, 220)" stroke = "rgb(221, 221, 220)" stroke-width = "0"/>
    <path d="M 4 5 C 4.2 4.8 4.8 4.8 5 5 C 5.2 5.2 5.2 5.8 5 6 C 4.8 6.2 4.2 6.2 4 6 C 3.8 5.8 3.8 5.2 4 5 " fill = "rgb(174, 174, 172)" stroke = "rgb(174, 174, 172)" stroke-width = "0"/>
    <path d="M 5 5 C 5.2 4.8 5.6 5 6 5 C 6.4 5 6.8 4.8 7 5 C 7.2 5.2 7.2 5.8 7 6 C 6.8 6.2 6.4 6 6 6 C 5.6 6 5.2 6.2 5 6 C 4.8 5.8 4.8 5.2 5 5 " fill = "rgb(8, 8, 0)" stroke = "rgb(8, 8, 0)" stroke-width = "0"/>
    <path d="M 7 5 C 7.2 4.8 7.8 4.8 8 5 C 8.2 5.2 8.2 5.8 8 6 C 7.8 6.2 7.2 6.2 7 6 C 6.8 5.8 6.8 5.2 7 5 " fill = "rgb(16, 11, 3)" stroke = "rgb(16, 11, 3)" stroke-width = "0"/>
    <path d="M 8 5 C 8.2 4.8 8.8 4.8 9 5 C 9.2 5.2 9.2 5.8 9 6 C 8.8 6.2 8.2 6.2 8 6 C 7.8 5.8 7.8 5.2 8 5 " fill = "rgb(59, 26, 13)" stroke = "rgb(59, 26, 13)" stroke-width = "0"/>
    <path d="M 9 5 C 9.2 4.8 9.8 4.8 10 5 C 10.2 5.2 10.2 5.8 10 6 C 9.8 6.2 9.2 6.2 9 6 C 8.8 5.8 8.8 5.2 9 5 " fill = "rgb(239, 88, 57)" stroke = "rgb(239, 88, 57)" stroke-width = "0"/>
    <path d="M 10 5 C 10.2 4.8 10.8 4.8 11 5 C 11.2 5.2 11.2 5.8 11 6 C 10.8 6.2 10.2 6.2 10 6 C 9.8 5.8 9.8 5.2 10 5 " fill = "rgb(166, 44, 22)" stroke = "rgb(166, 44, 22)" stroke-width = "0"/>
    <path d="M 11 5 C 11.2 4.8 11.8 4.8 12 5 C 12.2 5.2 12.2 5.8 12 6 C 11.8 6.2 11.2 6.2 11 6 C 10.8 5.8 10.8 5.2 11 5 " fill = "rgb(155, 39, 18)" stroke = "rgb(155, 39, 18)" stroke-width = "0"/>
    <path d="M 12 5 C 12.2 4.8 12.8 4.8 13 5 C 13.2 5.2 13.2 5.8 13 6 C 12.8 6.2 12.2 6.2 12 6 C 11.8 5.8 11.8 5.2 12 5 " fill = "rgb(252, 93, 60)" stroke = "rgb(252, 93, 60)" stroke-width = "0"/>
    <path d="M 13 5 C 13.2 4.8 13.8 4.8 14 5 C 14.2 5.2 14.2 5.8 14 6 C 13.8 6.2 13.2 6.2 13 6 C 12.8 5.8 12.8 5.2 13 5 " fill = "rgb(247, 90, 58)" stroke = "rgb(247, 90, 58)" stroke-width = "0"/>
    <path d="M 14 5 C 14.2 4.8 14.8 4.8 15 5 C 15.2 5.2 15.2 5.8 15 6 C 14.8 6.2 14.2 6.2 14 6 C 13.8 5.8 13.8 5.2 14 5 " fill = "rgb(249, 91, 59)" stroke = "rgb(249, 91, 59)" stroke-width = "0"/>
    <path d="M 15 5 C 15.2 4.8 15.8 4.8 16 5 C 16.2 5.2 16.2 5.8 16 6 C 15.8 6.2 15.2 6.2 15 6 C 14.8 5.8 14.8 5.2 15 5 " fill = "rgb(216, 73, 45)" stroke = "rgb(216, 73, 45)" stroke-width = "0"/>
    <path d="M 16 5 C 16.2 4.8 16.8 4.8 17 5 C 17.2 5.2 17 5.6 17 6 C 17 6.4 17.2 6.8 17 7 C 16.8 7.2 16.2 7.2 16 7 C 15.8 6.8 16 6.4 16 6 C 16 5.6 15.8 5.2 16 5 " fill = "rgb(106, 11, 0)" stroke = "rgb(106, 11, 0)" stroke-width = "0"/>
    <path d="M 17 5 C 17.2 4.8 17.8 4.8 18 5 C 18.2 5.2 18.2 5.8 18 6 C 17.8 6.2 17.2 6.2 17 6 C 16.8 5.8 16.8 5.2 17 5 " fill = "rgb(216, 73, 44)" stroke = "rgb(216, 73, 44)" stroke-width = "0"/>
    <path d="M 18 5 C 18.2 4.8 18.8 4.8 19 5 C 19.2 5.2 19.2 5.8 19 6 C 18.8 6.2 18.2 6.2 18 6 C 17.8 5.8 17.8 5.2 18 5 " fill = "rgb(193, 58, 33)" stroke = "rgb(193, 58, 33)" stroke-width = "0"/>
    <path d="M 19 5 C 19.2 4.8 19.8 4.8 20 5 C 20.2 5.2 20.2 5.8 20 6 C 19.8 6.2 19.2 6.2 19 6 C 18.8 5.8 18.8 5.2 19 5 " fill = "rgb(102, 16, 1)" stroke = "rgb(102, 16, 1)" stroke-width = "0"/>
    <path d="M 20 5 C 20.2 4.8 20.8 4.8 21 5 C 21.2 5.2 21.2 5.8 21 6 C 20.8 6.2 20.2 6.2 20 6 C 19.8 5.8 19.8 5.2 20 5 " fill = "rgb(38, 28, 14)" stroke = "rgb(38, 28, 14)" stroke-width = "0"/>
    <path d="M 21 5 C 21.2 4.8 21.8 4.8 22 5 C 22.2 5.2 22.2 5.8 22 6 C 21.8 6.2 21.2 6.2 21 6 C 20.8 5.8 20.8 5.2 21 5 " fill = "rgb(154, 153, 148)" stroke = "rgb(154, 153, 148)" stroke-width = "0"/>
    <path d="M 22 5 C 22.15 4.85 22.55 5.05 22.75 5.25 C 22.95 5.45 23.15 5.85 23 6 C 22.85 6.15 22.2 6.2 22 6 C 21.8 5.8 21.85 5.15 22 5 " fill = "rgb(235, 235, 234)" stroke = "rgb(235, 235, 234)" stroke-width = "0"/>
    <path d="M 1.25 6.25 C 1.45 6.05 1.85 5.85 2 6 C 2.15 6.15 2 6.6 2 7 C 2 7.4 2 7.6 2 8 C 2 8.4 2.2 8.8 2 9 C 1.8 9.2 1.2 9.2 1 9 C 0.8 8.8 1 8.4 1 8 C 1 7.6 0.95 7.35 1 7 C 1.05 6.65 1.05 6.45 1.25 6.25 " fill = "rgb(252, 252, 252)" stroke = "rgb(252, 252, 252)" stroke-width = "0"/>
    <path d="M 2 6 C 2.2 5.8 2.8 5.8 3 6 C 3.2 6.2 3.2 6.8 3 7 C 2.8 7.2 2.2 7.2 2 7 C 1.8 6.8 1.8 6.2 2 6 " fill = "rgb(74, 74, 68)" stroke = "rgb(74, 74, 68)" stroke-width = "0"/>
    <path d="M 3 6 C 3.2 5.8 3.8 5.8 4 6 C 4.2 6.2 4.2 6.8 4 7 C 3.8 7.2 3.2 7.2 3 7 C 2.8 6.8 2.8 6.2 3 6 " fill = "rgb(25, 25, 17)" stroke = "rgb(25, 25, 17)" stroke-width = "0"/>
    <path d="M 4 6 C 4.2 5.8 4.8 5.8 5 6 C 5.2 6.2 5.2 6.8 5 7 C 4.8 7.2 4.2 7.2 4 7 C 3.8 6.8 3.8 6.2 4 6 " fill = "rgb(20, 22, 14)" stroke = "rgb(20, 22, 14)" stroke-width = "0"/>
    <path d="M 5 6 C 5.2 5.8 5.8 5.8 6 6 C 6.2 6.2 6.2 6.8 6 7 C 5.8 7.2 5.2 7.2 5 7 C 4.8 6.8 4.8 6.2 5 6 " fill = "rgb(8, 13, 6)" stroke = "rgb(8, 13, 6)" stroke-width = "0"/>
    <path d="M 6 6 C 6.2 5.8 6.8 5.8 7 6 C 7.2 6.2 7.2 6.8 7 7 C 6.8 7.2 6.2 7.2 6 7 C 5.8 6.8 5.8 6.2 6 6 " fill = "rgb(6, 13, 6)" stroke = "rgb(6, 13, 6)" stroke-width = "0"/>
    <path d="M 7 6 C 7.2 5.8 7.8 5.8 8 6 C 8.2 6.2 8.2 6.8 8 7 C 7.8 7.2 7.2 7.2 7 7 C 6.8 6.8 6.8 6.2 7 6 " fill = "rgb(49, 14, 3)" stroke = "rgb(49, 14, 3)" stroke-width = "0"/>
    <path d="M 8 6 C 8.2 5.8 8.8 5.8 9 6 C 9.2 6.2 9.2 6.8 9 7 C 8.8 7.2 8.2 7.2 8 7 C 7.8 6.8 7.8 6.2 8 6 " fill = "rgb(129, 25, 7)" stroke = "rgb(129, 25, 7)" stroke-width = "0"/>
    <path d="M 9 6 C 9.2 5.8 9.8 5.8 10 6 C 10.2 6.2 10.2 6.8 10 7 C 9.8 7.2 9.2 7.2 9 7 C 8.8 6.8 8.8 6.2 9 6 " fill = "rgb(240, 86, 55)" stroke = "rgb(240, 86, 55)" stroke-width = "0"/>
    <path d="M 10 6 C 10.2 5.8 10.8 5.8 11 6 C 11.2 6.2 11.2 6.8 11 7 C 10.8 7.2 10.2 7.2 10 7 C 9.8 6.8 9.8 6.2 10 6 " fill = "rgb(163, 43, 21)" stroke = "rgb(163, 43, 21)" stroke-width = "0"/>
    <path d="M 11 6 C 11.2 5.8 11.8 5.8 12 6 C 12.2 6.2 12.2 6.8 12 7 C 11.8 7.2 11.2 7.2 11 7 C 10.8 6.8 10.8 6.2 11 6 " fill = "rgb(156, 37, 17)" stroke = "rgb(156, 37, 17)" stroke-width = "0"/>
    <path d="M 12 6 C 12.2 5.8 12.8 5.8 13 6 C 13.2 6.2 13.2 6.8 13 7 C 12.8 7.2 12.2 7.2 12 7 C 11.8 6.8 11.8 6.2 12 6 " fill = "rgb(253, 89, 57)" stroke = "rgb(253, 89, 57)" stroke-width = "0"/>
    <path d="M 13 6 C 13.2 5.8 13.8 5.8 14 6 C 14.2 6.2 14.2 6.8 14 7 C 13.8 7.2 13.2 7.2 13 7 C 12.8 6.8 12.8 6.2 13 6 " fill = "rgb(248, 87, 55)" stroke = "rgb(248, 87, 55)" stroke-width = "0"/>
    <path d="M 14 6 C 14.2 5.8 14.8 5.8 15 6 C 15.2 6.2 15.2 6.8 15 7 C 14.8 7.2 14.2 7.2 14 7 C 13.8 6.8 13.8 6.2 14 6 " fill = "rgb(250, 88, 56)" stroke = "rgb(250, 88, 56)" stroke-width = "0"/>
    <path d="M 15 6 C 15.2 5.8 15.8 5.8 16 6 C 16.2 6.2 16.2 6.8 16 7 C 15.8 7.2 15.2 7.2 15 7 C 14.8 6.8 14.8 6.2 15 6 " fill = "rgb(217, 70, 42)" stroke = "rgb(217, 70, 42)" stroke-width = "0"/>
    <path d="M 17 6 C 17.2 5.8 17.8 5.8 18 6 C 18.2 6.2 18.2 6.8 18 7 C 17.8 7.2 17.2 7.2 17 7 C 16.8 6.8 16.8 6.2 17 6 " fill = "rgb(217, 70, 42)" stroke = "rgb(217, 70, 42)" stroke-width = "0"/>
    <path d="M 18 6 C 18.2 5.8 18.8 5.8 19 6 C 19.2 6.2 19.2 6.8 19 7 C 18.8 7.2 18.2 7.2 18 7 C 17.8 6.8 17.8 6.2 18 6 " fill = "rgb(191, 55, 30)" stroke = "rgb(191, 55, 30)" stroke-width = "0"/>
    <path d="M 19 6 C 19.2 5.8 19.8 5.8 20 6 C 20.2 6.2 20.2 6.8 20 7 C 19.8 7.2 19.2 7.2 19 7 C 18.8 6.8 18.8 6.2 19 6 " fill = "rgb(125, 38, 19)" stroke = "rgb(125, 38, 19)" stroke-width = "0"/>
    <path d="M 20 6 C 20.2 5.8 20.8 5.8 21 6 C 21.2 6.2 21.2 6.8 21 7 C 20.8 7.2 20.2 7.2 20 7 C 19.8 6.8 19.8 6.2 20 6 " fill = "rgb(206, 177, 137)" stroke = "rgb(206, 177, 137)" stroke-width = "0"/>
    <path d="M 21 6 C 21.2 5.8 21.8 5.8 22 6 C 22.2 6.2 22.2 6.8 22 7 C 21.8 7.2 21.2 7.2 21 7 C 20.8 6.8 20.8 6.2 21 6 " fill = "rgb(89, 81, 62)" stroke = "rgb(89, 81, 62)" stroke-width = "0"/>
    <path d="M 22 6 C 22.2 5.8 22.8 5.8 23 6 C 23.2 6.2 23.2 6.8 23 7 C 22.8 7.2 22.2 7.2 22 7 C 21.8 6.8 21.8 6.2 22 6 " fill = "rgb(106, 106, 102)" stroke = "rgb(106, 106, 102)" stroke-width = "0"/>
    <path d="M 2 7 C 2.2 6.8 2.8 6.8 3 7 C 3.2 7.2 3 7.6 3 8 C 3 8.4 3.2 8.8 3 9 C 2.8 9.2 2.2 9.2 2 9 C 1.8 8.8 2 8.4 2 8 C 2 7.6 1.8 7.2 2 7 " fill = "rgb(56, 57, 50)" stroke = "rgb(56, 57, 50)" stroke-width = "0"/>
    <path d="M 3 7 C 3.2 6.8 3.8 6.8 4 7 C 4.2 7.2 4.2 7.8 4 8 C 3.8 8.2 3.2 8.2 3 8 C 2.8 7.8 2.8 7.2 3 7 " fill = "rgb(91, 81, 76)" stroke = "rgb(91, 81, 76)" stroke-width = "0"/>
    <path d="M 4 7 C 4.2 6.8 4.8 6.8 5 7 C 5.2 7.2 5.2 7.8 5 8 C 4.8 8.2 4.2 8.2 4 8 C 3.8 7.8 3.8 7.2 4 7 " fill = "rgb(174, 135, 128)" stroke = "rgb(174, 135, 128)" stroke-width = "0"/>
    <path d="M 5 7 C 5.2 6.8 5.8 6.8 6 7 C 6.2 7.2 6.2 7.8 6 8 C 5.8 8.2 5.2 8.2 5 8 C 4.8 7.8 4.8 7.2 5 7 " fill = "rgb(165, 64, 40)" stroke = "rgb(165, 64, 40)" stroke-width = "0"/>
    <path d="M 6 7 C 6.2 6.8 6.8 6.8 7 7 C 7.2 7.2 7.2 7.8 7 8 C 6.8 8.2 6.2 8.2 6 8 C 5.8 7.8 5.8 7.2 6 7 " fill = "rgb(166, 65, 42)" stroke = "rgb(166, 65, 42)" stroke-width = "0"/>
    <path d="M 7 7 C 7.2 6.8 7.8 6.8 8 7 C 8.2 7.2 8.2 7.8 8 8 C 7.8 8.2 7.2 8.2 7 8 C 6.8 7.8 6.8 7.2 7 7 " fill = "rgb(143, 43, 23)" stroke = "rgb(143, 43, 23)" stroke-width = "0"/>
    <path d="M 8 7 C 8.2 6.8 8.8 6.8 9 7 C 9.2 7.2 9.2 7.8 9 8 C 8.8 8.2 8.2 8.2 8 8 C 7.8 7.8 7.8 7.2 8 7 " fill = "rgb(131, 23, 6)" stroke = "rgb(131, 23, 6)" stroke-width = "0"/>
    <path d="M 9 7 C 9.2 6.8 9.8 6.8 10 7 C 10.2 7.2 10.2 7.8 10 8 C 9.8 8.2 9.2 8.2 9 8 C 8.8 7.8 8.8 7.2 9 7 " fill = "rgb(241, 85, 54)" stroke = "rgb(241, 85, 54)" stroke-width = "0"/>
    <path d="M 10 7 C 10.2 6.8 10.8 6.8 11 7 C 11.2 7.2 11.2 7.8 11 8 C 10.8 8.2 10.2 8.2 10 8 C 9.8 7.8 9.8 7.2 10 7 " fill = "rgb(163, 41, 19)" stroke = "rgb(163, 41, 19)" stroke-width = "0"/>
    <path d="M 11 7 C 11.2 6.8 11.8 6.8 12 7 C 12.2 7.2 12.2 7.8 12 8 C 11.8 8.2 11.2 8.2 11 8 C 10.8 7.8 10.8 7.2 11 7 " fill = "rgb(149, 60, 37)" stroke = "rgb(149, 60, 37)" stroke-width = "0"/>
    <path d="M 12 7 C 12.2 6.8 12.8 6.8 13 7 C 13.2 7.2 13.2 7.8 13 8 C 12.8 8.2 12.2 8.2 12 8 C 11.8 7.8 11.8 7.2 12 7 " fill = "rgb(232, 161, 122)" stroke = "rgb(232, 161, 122)" stroke-width = "0"/>
    <path d="M 13 7 C 13.2 6.8 13.8 6.8 14 7 C 14.2 7.2 14.2 7.8 14 8 C 13.8 8.2 13.2 8.2 13 8 C 12.8 7.8 12.8 7.2 13 7 " fill = "rgb(228, 156, 118)" stroke = "rgb(228, 156, 118)" stroke-width = "0"/>
    <path d="M 14 7 C 14.2 6.8 14.8 6.8 15 7 C 15.2 7.2 15.2 7.8 15 8 C 14.8 8.2 14.2 8.2 14 8 C 13.8 7.8 13.8 7.2 14 7 " fill = "rgb(229, 158, 120)" stroke = "rgb(229, 158, 120)" stroke-width = "0"/>
    <path d="M 15 7 C 15.2 6.8 15.8 6.8 16 7 C 16.2 7.2 16.2 7.8 16 8 C 15.8 8.2 15.2 8.2 15 8 C 14.8 7.8 14.8 7.2 15 7 " fill = "rgb(202, 123, 90)" stroke = "rgb(202, 123, 90)" stroke-width = "0"/>
    <path d="M 16 7 C 16.2 6.8 16.8 6.8 17 7 C 17.2 7.2 17.2 7.8 17 8 C 16.8 8.2 16.2 8.2 16 8 C 15.8 7.8 15.8 7.2 16 7 " fill = "rgb(109, 7, 0)" stroke = "rgb(109, 7, 0)" stroke-width = "0"/>
    <path d="M 17 7 C 17.2 6.8 17.8 6.8 18 7 C 18.2 7.2 18.2 7.8 18 8 C 17.8 8.2 17.2 8.2 17 8 C 16.8 7.8 16.8 7.2 17 7 " fill = "rgb(202, 123, 90)" stroke = "rgb(202, 123, 90)" stroke-width = "0"/>
    <path d="M 18 7 C 18.2 6.8 18.8 6.8 19 7 C 19.2 7.2 19.2 7.8 19 8 C 18.8 8.2 18.2 8.2 18 8 C 17.8 7.8 17.8 7.2 18 7 " fill = "rgb(180, 96, 67)" stroke = "rgb(180, 96, 67)" stroke-width = "0"/>
    <path d="M 19 7 C 19.2 6.8 19.8 6.8 20 7 C 20.2 7.2 20 7.6 20 8 C 20 8.4 20.2 8.8 20 9 C 19.8 9.2 19.2 9.2 19 9 C 18.8 8.8 19 8.4 19 8 C 19 7.6 18.8 7.2 19 7 " fill = "rgb(113, 26, 10)" stroke = "rgb(113, 26, 10)" stroke-width = "0"/>
    <path d="M 20 7 C 20.2 6.8 20.8 6.8 21 7 C 21.2 7.2 21.2 7.8 21 8 C 20.8 8.2 20.2 8.2 20 8 C 19.8 7.8 19.8 7.2 20 7 " fill = "rgb(127, 113, 93)" stroke = "rgb(127, 113, 93)" stroke-width = "0"/>
    <path d="M 21 7 C 21.2 6.8 21.8 6.8 22 7 C 22.2 7.2 22.2 7.8 22 8 C 21.8 8.2 21.2 8.2 21 8 C 20.8 7.8 20.8 7.2 21 7 " fill = "rgb(48, 46, 33)" stroke = "rgb(48, 46, 33)" stroke-width = "0"/>
    <path d="M 22 7 C 22.2 6.8 22.8 6.8 23 7 C 23.2 7.2 23.2 7.8 23 8 C 22.8 8.2 22.2 8.2 22 8 C 21.8 7.8 21.8 7.2 22 7 " fill = "rgb(96, 96, 91)" stroke = "rgb(96, 96, 91)" stroke-width = "0"/>
    <path d="M 3 8 C 3.2 7.8 3.8 7.8 4 8 C 4.2 8.2 4.2 8.8 4 9 C 3.8 9.2 3.2 9.2 3 9 C 2.8 8.8 2.8 8.2 3 8 " fill = "rgb(97, 87, 82)" stroke = "rgb(97, 87, 82)" stroke-width = "0"/>
    <path d="M 4 8 C 4.2 7.8 4.8 7.8 5 8 C 5.2 8.2 5.2 8.8 5 9 C 4.8 9.2 4.2 9.2 4 9 C 3.8 8.8 3.8 8.2 4 8 " fill = "rgb(193, 144, 137)" stroke = "rgb(193, 144, 137)" stroke-width = "0"/>
    <path d="M 5 8 C 5.2 7.8 5.8 7.8 6 8 C 6.2 8.2 6.2 8.8 6 9 C 5.8 9.2 5.2 9.2 5 9 C 4.8 8.8 4.8 8.2 5 8 " fill = "rgb(210, 67, 40)" stroke = "rgb(210, 67, 40)" stroke-width = "0"/>
    <path d="M 6 8 C 6.2 7.8 6.8 7.8 7 8 C 7.2 8.2 7.2 8.8 7 9 C 6.8 9.2 6.2 9.2 6 9 C 5.8 8.8 5.8 8.2 6 8 " fill = "rgb(211, 69, 41)" stroke = "rgb(211, 69, 41)" stroke-width = "0"/>
    <path d="M 7 8 C 7.2 7.8 7.8 7.8 8 8 C 8.2 8.2 8.2 8.8 8 9 C 7.8 9.2 7.2 9.2 7 9 C 6.8 8.8 6.8 8.2 7 8 " fill = "rgb(169, 45, 23)" stroke = "rgb(169, 45, 23)" stroke-width = "0"/>
    <path d="M 8 8 C 8.2 7.8 8.8 7.8 9 8 C 9.2 8.2 9.2 8.8 9 9 C 8.8 9.2 8.2 9.2 8 9 C 7.8 8.8 7.8 8.2 8 8 " fill = "rgb(128, 28, 10)" stroke = "rgb(128, 28, 10)" stroke-width = "0"/>
    <path d="M 9 8 C 9.2 7.8 9.8 7.8 10 8 C 10.2 8.2 10.2 8.8 10 9 C 9.8 9.2 9.2 9.2 9 9 C 8.8 8.8 8.8 8.2 9 8 " fill = "rgb(231, 117, 83)" stroke = "rgb(231, 117, 83)" stroke-width = "0"/>
    <path d="M 10 8 C 10.2 7.8 10.8 7.8 11 8 C 11.2 8.2 11.2 8.8 11 9 C 10.8 9.2 10.2 9.2 10 9 C 9.8 8.8 9.8 8.2 10 8 " fill = "rgb(160, 54, 31)" stroke = "rgb(160, 54, 31)" stroke-width = "0"/>
    <path d="M 11 8 C 11.2 7.8 11.8 7.8 12 8 C 12.2 8.2 12.2 8.8 12 9 C 11.8 9.2 11.2 9.2 11 9 C 10.8 8.8 10.8 8.2 11 8 " fill = "rgb(134, 53, 32)" stroke = "rgb(134, 53, 32)" stroke-width = "0"/>
    <path d="M 12 8 C 12.2 7.8 12.8 7.8 13 8 C 13.2 8.2 13.2 8.8 13 9 C 12.8 9.2 12.2 9.2 12 9 C 11.8 8.8 11.8 8.2 12 8 " fill = "rgb(184, 140, 106)" stroke = "rgb(184, 140, 106)" stroke-width = "0"/>
    <path d="M 13 8 C 13.2 7.8 13.8 7.8 14 8 C 14.2 8.2 14.2 8.8 14 9 C 13.8 9.2 13.2 9.2 13 9 C 12.8 8.8 12.8 8.2 13 8 " fill = "rgb(181, 135, 102)" stroke = "rgb(181, 135, 102)" stroke-width = "0"/>
    <path d="M 14 8 C 14.2 7.8 14.8 7.8 15 8 C 15.2 8.2 15.2 8.8 15 9 C 14.8 9.2 14.2 9.2 14 9 C 13.8 8.8 13.8 8.2 14 8 " fill = "rgb(183, 137, 104)" stroke = "rgb(183, 137, 104)" stroke-width = "0"/>
    <path d="M 15 8 C 15.2 7.8 15.8 7.8 16 8 C 16.2 8.2 16.2 8.8 16 9 C 15.8 9.2 15.2 9.2 15 9 C 14.8 8.8 14.8 8.2 15 8 " fill = "rgb(159, 108, 79)" stroke = "rgb(159, 108, 79)" stroke-width = "0"/>
    <path d="M 16 8 C 16.2 7.8 16.8 7.8 17 8 C 17.2 8.2 17.2 8.8 17 9 C 16.8 9.2 16.2 9.2 16 9 C 15.8 8.8 15.8 8.2 16 8 " fill = "rgb(76, 8, 0)" stroke = "rgb(76, 8, 0)" stroke-width = "0"/>
    <path d="M 17 8 C 17.2 7.8 17.8 7.8 18 8 C 18.2 8.2 18.2 8.8 18 9 C 17.8 9.2 17.2 9.2 17 9 C 16.8 8.8 16.8 8.2 17 8 " fill = "rgb(158, 107, 79)" stroke = "rgb(158, 107, 79)" stroke-width = "0"/>
    <path d="M 18 8 C 18.2 7.8 18.8 7.8 19 8 C 19.2 8.2 19.2 8.8 19 9 C 18.8 9.2 18.2 9.2 18 9 C 17.8 8.8 17.8 8.2 18 8 " fill = "rgb(154, 84, 58)" stroke = "rgb(154, 84, 58)" stroke-width = "0"/>
    <path d="M 20 8 C 20.2 7.8 20.8 7.8 21 8 C 21.2 8.2 21.2 8.8 21 9 C 20.8 9.2 20.2 9.2 20 9 C 19.8 8.8 19.8 8.2 20 8 " fill = "rgb(120, 107, 88)" stroke = "rgb(120, 107, 88)" stroke-width = "0"/>
    <path d="M 21 8 C 21.2 7.8 21.8 7.8 22 8 C 22.2 8.2 22.2 8.8 22 9 C 21.8 9.2 21.2 9.2 21 9 C 20.8 8.8 20.8 8.2 21 8 " fill = "rgb(46, 44, 32)" stroke = "rgb(46, 44, 32)" stroke-width = "0"/>
    <path d="M 22 8 C 22.2 7.8 22.8 7.8 23 8 C 23.2 8.2 23.2 8.8 23 9 C 22.8 9.2 22.2 9.2 22 9 C 21.8 8.8 21.8 8.2 22 8 " fill = "rgb(97, 97, 93)" stroke = "rgb(97, 97, 93)" stroke-width = "0"/>
    <path d="M 1 9 C 1.15 8.85 1.8 8.8 2 9 C 2.2 9.2 2.15 9.85 2 10 C 1.85 10.15 1.45 9.95 1.25 9.75 C 1.05 9.55 0.85 9.15 1 9 " fill = "rgb(252, 252, 251)" stroke = "rgb(252, 252, 251)" stroke-width = "0"/>
    <path d="M 2 9 C 2.2 8.8 2.8 8.8 3 9 C 3.2 9.2 3.2 9.8 3 10 C 2.8 10.2 2.2 10.2 2 10 C 1.8 9.8 1.8 9.2 2 9 " fill = "rgb(67, 67, 61)" stroke = "rgb(67, 67, 61)" stroke-width = "0"/>
    <path d="M 3 9 C 3.2 8.8 3.8 8.8 4 9 C 4.2 9.2 4.2 9.8 4 10 C 3.8 10.2 3.2 10.2 3 10 C 2.8 9.8 2.8 9.2 3 9 " fill = "rgb(11, 12, 4)" stroke = "rgb(11, 12, 4)" stroke-width = "0"/>
    <path d="M 4 9 C 4.2 8.8 4.8 8.8 5 9 C 5.2 9.2 5.2 9.8 5 10 C 4.8 10.2 4.2 10.2 4 10 C 3.8 9.8 3.8 9.2 4 9 " fill = "rgb(29, 9, 0)" stroke = "rgb(29, 9, 0)" stroke-width = "0"/>
    <path d="M 5 9 C 5.2 8.8 5.8 8.8 6 9 C 6.2 9.2 6.2 9.8 6 10 C 5.8 10.2 5.2 10.2 5 10 C 4.8 9.8 4.8 9.2 5 9 " fill = "rgb(110, 13, 0)" stroke = "rgb(110, 13, 0)" stroke-width = "0"/>
    <path d="M 6 9 C 6.2 8.8 6.8 8.8 7 9 C 7.2 9.2 7.2 9.8 7 10 C 6.8 10.2 6.2 10.2 6 10 C 5.8 9.8 5.8 9.2 6 9 " fill = "rgb(113, 15, 0)" stroke = "rgb(113, 15, 0)" stroke-width = "0"/>
    <path d="M 7 9 C 7.2 8.8 7.8 8.8 8 9 C 8.2 9.2 8.2 9.8 8 10 C 7.8 10.2 7.2 10.2 7 10 C 6.8 9.8 6.8 9.2 7 9 " fill = "rgb(112, 14, 0)" stroke = "rgb(112, 14, 0)" stroke-width = "0"/>
    <path d="M 8 9 C 8.2 8.8 8.8 8.8 9 9 C 9.2 9.2 9.2 9.8 9 10 C 8.8 10.2 8.2 10.2 8 10 C 7.8 9.8 7.8 9.2 8 9 " fill = "rgb(124, 38, 19)" stroke = "rgb(124, 38, 19)" stroke-width = "0"/>
    <path d="M 9 9 C 9.2 8.8 9.8 8.8 10 9 C 10.2 9.2 10.2 9.8 10 10 C 9.8 10.2 9.2 10.2 9 10 C 8.8 9.8 8.8 9.2 9 9 " fill = "rgb(205, 179, 140)" stroke = "rgb(205, 179, 140)" stroke-width = "0"/>
    <path d="M 10 9 C 10.2 8.8 10.8 8.8 11 9 C 11.2 9.2 11.2 9.8 11 10 C 10.8 10.2 10.2 10.2 10 10 C 9.8 9.8 9.8 9.2 10 9 " fill = "rgb(151, 82, 56)" stroke = "rgb(151, 82, 56)" stroke-width = "0"/>
    <path d="M 11 9 C 11.2 8.8 11.8 8.8 12 9 C 12.2 9.2 12.2 9.8 12 10 C 11.8 10.2 11.2 10.2 11 10 C 10.8 9.8 10.8 9.2 11 9 " fill = "rgb(112, 10, 0)" stroke = "rgb(112, 10, 0)" stroke-width = "0"/>
    <path d="M 12 9 C 12.2 8.8 12.6 9 13 9 C 13.4 9 13.8 8.8 14 9 C 14.2 9.2 14.2 9.8 14 10 C 13.8 10.2 13.4 10 13 10 C 12.6 10 12.2 10.2 12 10 C 11.8 9.8 11.8 9.2 12 9 " fill = "rgb(111, 10, 0)" stroke = "rgb(111, 10, 0)" stroke-width = "0"/>
    <path d="M 14 9 C 14.2 8.8 14.8 8.8 15 9 C 15.2 9.2 15.2 9.8 15 10 C 14.8 10.2 14.2 10.2 14 10 C 13.8 9.8 13.8 9.2 14 9 " fill = "rgb(113, 10, 0)" stroke = "rgb(113, 10, 0)" stroke-width = "0"/>
    <path d="M 15 9 C 15.2 8.8 15.8 8.8 16 9 C 16.2 9.2 16.2 9.8 16 10 C 15.8 10.2 15.2 10.2 15 10 C 14.8 9.8 14.8 9.2 15 9 " fill = "rgb(88, 11, 0)" stroke = "rgb(88, 11, 0)" stroke-width = "0"/>
    <path d="M 16 9 C 16.2 8.8 16.8 8.8 17 9 C 17.2 9.2 17.2 9.8 17 10 C 16.8 10.2 16.2 10.2 16 10 C 15.8 9.8 15.8 9.2 16 9 " fill = "rgb(6, 16, 9)" stroke = "rgb(6, 16, 9)" stroke-width = "0"/>
    <path d="M 17 9 C 17.2 8.8 17.8 8.8 18 9 C 18.2 9.2 18.2 9.8 18 10 C 17.8 10.2 17.2 10.2 17 10 C 16.8 9.8 16.8 9.2 17 9 " fill = "rgb(86, 11, 0)" stroke = "rgb(86, 11, 0)" stroke-width = "0"/>
    <path d="M 18 9 C 18.2 8.8 18.8 8.8 19 9 C 19.2 9.2 19.2 9.8 19 10 C 18.8 10.2 18.2 10.2 18 10 C 17.8 9.8 17.8 9.2 18 9 " fill = "rgb(114, 11, 0)" stroke = "rgb(114, 11, 0)" stroke-width = "0"/>
    <path d="M 19 9 C 19.2 8.8 19.8 8.8 20 9 C 20.2 9.2 20.2 9.8 20 10 C 19.8 10.2 19.2 10.2 19 10 C 18.8 9.8 18.8 9.2 19 9 " fill = "rgb(130, 42, 22)" stroke = "rgb(130, 42, 22)" stroke-width = "0"/>
    <path d="M 20 9 C 20.2 8.8 20.8 8.8 21 9 C 21.2 9.2 21.2 9.8 21 10 C 20.8 10.2 20.2 10.2 20 10 C 19.8 9.8 19.8 9.2 20 9 " fill = "rgb(221, 190, 149)" stroke = "rgb(221, 190, 149)" stroke-width = "0"/>
    <path d="M 21 9 C 21.2 8.8 21.8 8.8 22 9 C 22.2 9.2 22.2 9.8 22 10 C 21.8 10.2 21.2 10.2 21 10 C 20.8 9.8 20.8 9.2 21 9 " fill = "rgb(84, 75, 55)" stroke = "rgb(84, 75, 55)" stroke-width = "0"/>
    <path d="M 22 9 C 22.2 8.8 22.8 8.8 23 9 C 23.2 9.2 23.2 9.8 23 10 C 22.8 10.2 22.2 10.2 22 10 C 21.8 9.8 21.8 9.2 22 9 " fill = "rgb(93, 94, 89)" stroke = "rgb(93, 94, 89)" stroke-width = "0"/>
    <path d="M 24.25 9.25 C 24.4 9.1 24.6 9.1 24.75 9.25 C 24.9 9.4 25.15 9.85 25 10 C 24.85 10.15 24.15 10.15 24 10 C 23.85 9.85 24.1 9.4 24.25 9.25 " fill = "rgb(254, 254, 254)" stroke = "rgb(254, 254, 254)" stroke-width = "0"/>
    <path d="M 2 10 C 2.15 9.85 2.8 9.8 3 10 C 3.2 10.2 3.15 10.85 3 11 C 2.85 11.15 2.45 10.95 2.25 10.75 C 2.05 10.55 1.85 10.15 2 10 " fill = "rgb(224, 224, 223)" stroke = "rgb(224, 224, 223)" stroke-width = "0"/>
    <path d="M 3 10 C 3.2 9.8 3.8 9.8 4 10 C 4.2 10.2 4.2 10.8 4 11 C 3.8 11.2 3.2 11.2 3 11 C 2.8 10.8 2.8 10.2 3 10 " fill = "rgb(110, 111, 106)" stroke = "rgb(110, 111, 106)" stroke-width = "0"/>
    <path d="M 4 10 C 4.2 9.8 4.8 9.8 5 10 C 5.2 10.2 5.2 10.8 5 11 C 4.8 11.2 4.2 11.2 4 11 C 3.8 10.8 3.8 10.2 4 10 " fill = "rgb(32, 11, 1)" stroke = "rgb(32, 11, 1)" stroke-width = "0"/>
    <path d="M 5 10 C 5.2 9.8 5.8 9.8 6 10 C 6.2 10.2 6.2 10.8 6 11 C 5.8 11.2 5.2 11.2 5 11 C 4.8 10.8 4.8 10.2 5 10 " fill = "rgb(112, 14, 0)" stroke = "rgb(112, 14, 0)" stroke-width = "0"/>
    <path d="M 6 10 C 6.2 9.8 6.8 9.8 7 10 C 7.2 10.2 7.2 10.8 7 11 C 6.8 11.2 6.2 11.2 6 11 C 5.8 10.8 5.8 10.2 6 10 " fill = "rgb(196, 60, 35)" stroke = "rgb(196, 60, 35)" stroke-width = "0"/>
    <path d="M 7 10 C 7.2 9.8 7.8 9.8 8 10 C 8.2 10.2 8.2 10.8 8 11 C 7.8 11.2 7.2 11.2 7 11 C 6.8 10.8 6.8 10.2 7 10 " fill = "rgb(145, 52, 31)" stroke = "rgb(145, 52, 31)" stroke-width = "0"/>
    <path d="M 8 10 C 8.2 9.8 8.8 9.8 9 10 C 9.2 10.2 9.2 10.8 9 11 C 8.8 11.2 8.2 11.2 8 11 C 7.8 10.8 7.8 10.2 8 10 " fill = "rgb(41, 18, 8)" stroke = "rgb(41, 18, 8)" stroke-width = "0"/>
    <path d="M 9 10 C 9.2 9.8 9.8 9.8 10 10 C 10.2 10.2 10.2 10.8 10 11 C 9.8 11.2 9.2 11.2 9 11 C 8.8 10.8 8.8 10.2 9 10 " fill = "rgb(126, 47, 27)" stroke = "rgb(126, 47, 27)" stroke-width = "0"/>
    <path d="M 10 10 C 10.2 9.8 10.85 9.85 11 10 C 11.15 10.15 10.95 10.55 10.75 10.75 C 10.55 10.95 10.15 11.15 10 11 C 9.85 10.85 9.8 10.2 10 10 " fill = "rgb(123, 28, 10)" stroke = "rgb(123, 28, 10)" stroke-width = "0"/>
    <path d="M 11 10 C 11.25 9.85 11.85 9.85 12 10 C 12.15 10.15 11.9 10.5 11.75 10.75 C 11.6 11 11.4 11 11.25 11.25 C 11.1 11.5 11.25 11.85 11 12 C 10.75 12.15 10.2 12.2 10 12 C 9.8 11.8 9.85 11.25 10 11 C 10.15 10.75 10.55 10.95 10.75 10.75 C 10.95 10.55 10.75 10.15 11 10 " fill = "rgb(115, 15, 0)" stroke = "rgb(115, 15, 0)" stroke-width = "0"/>
    <path d="M 12 10 C 12.25 9.85 12.6 10 13 10 C 13.4 10 13.8 9.8 14 10 C 14.2 10.2 14 10.6 14 11 C 14 11.4 14 11.6 14 12 C 14 12.4 14.2 12.8 14 13 C 13.8 13.2 13.4 13 13 13 C 12.6 13 12.4 13 12 13 C 11.6 13 11.2 13.2 11 13 C 10.8 12.8 10.95 12.35 11 12 C 11.05 11.65 11.1 11.5 11.25 11.25 C 11.4 11 11.6 11 11.75 10.75 C 11.9 10.5 11.75 10.15 12 10 " fill = "rgb(115, 16, 0)" stroke = "rgb(115, 16, 0)" stroke-width = "0"/>
    <path d="M 14 10 C 14.2 9.8 14.8 9.8 15 10 C 15.2 10.2 15 10.6 15 11 C 15 11.4 15 11.6 15 12 C 15 12.4 15.2 12.8 15 13 C 14.8 13.2 14.2 13.2 14 13 C 13.8 12.8 14 12.4 14 12 C 14 11.6 14 11.4 14 11 C 14 10.6 13.8 10.2 14 10 " fill = "rgb(116, 16, 0)" stroke = "rgb(116, 16, 0)" stroke-width = "0"/>
    <path d="M 15 10 C 15.2 9.8 15.8 9.8 16 10 C 16.2 10.2 16 10.6 16 11 C 16 11.4 16 11.6 16 12 C 16 12.4 16.2 12.8 16 13 C 15.8 13.2 15.2 13.2 15 13 C 14.8 12.8 15 12.4 15 12 C 15 11.6 15 11.4 15 11 C 15 10.6 14.8 10.2 15 10 " fill = "rgb(92, 16, 2)" stroke = "rgb(92, 16, 2)" stroke-width = "0"/>
    <path d="M 16 10 C 16.2 9.8 16.8 9.8 17 10 C 17.2 10.2 17 10.6 17 11 C 17 11.4 17 11.6 17 12 C 17 12.4 17.2 12.8 17 13 C 16.8 13.2 16.2 13.2 16 13 C 15.8 12.8 16 12.4 16 12 C 16 11.6 16 11.4 16 11 C 16 10.6 15.8 10.2 16 10 " fill = "rgb(9, 16, 9)" stroke = "rgb(9, 16, 9)" stroke-width = "0"/>
    <path d="M 17 10 C 17.2 9.8 17.8 9.8 18 10 C 18.2 10.2 18 10.6 18 11 C 18 11.4 18 11.6 18 12 C 18 12.4 18.2 12.8 18 13 C 17.8 13.2 17.2 13.2 17 13 C 16.8 12.8 17 12.4 17 12 C 17 11.6 17 11.4 17 11 C 17 10.6 16.8 10.2 17 10 " fill = "rgb(89, 16, 2)" stroke = "rgb(89, 16, 2)" stroke-width = "0"/>
    <path d="M 18 10 C 18.2 9.8 18.8 9.8 19 10 C 19.2 10.2 19.2 10.8 19 11 C 18.8 11.2 18.2 11.2 18 11 C 17.8 10.8 17.8 10.2 18 10 " fill = "rgb(115, 14, 0)" stroke = "rgb(115, 14, 0)" stroke-width = "0"/>
    <path d="M 19 10 C 19.2 9.8 19.8 9.8 20 10 C 20.2 10.2 20.2 10.8 20 11 C 19.8 11.2 19.2 11.2 19 11 C 18.8 10.8 18.8 10.2 19 10 " fill = "rgb(135, 46, 31)" stroke = "rgb(135, 46, 31)" stroke-width = "0"/>
    <path d="M 20 10 C 20.2 9.8 20.8 9.8 21 10 C 21.2 10.2 21.2 10.8 21 11 C 20.8 11.2 20.2 11.2 20 11 C 19.8 10.8 19.8 10.2 20 10 " fill = "rgb(252, 215, 207)" stroke = "rgb(252, 215, 207)" stroke-width = "0"/>
    <path d="M 21 10 C 21.2 9.8 21.8 9.8 22 10 C 22.2 10.2 22.2 10.8 22 11 C 21.8 11.2 21.2 11.2 21 11 C 20.8 10.8 20.8 10.2 21 10 " fill = "rgb(99, 88, 80)" stroke = "rgb(99, 88, 80)" stroke-width = "0"/>
    <path d="M 22 10 C 22.2 9.8 22.8 9.8 23 10 C 23.2 10.2 23.2 10.8 23 11 C 22.8 11.2 22.2 11.2 22 11 C 21.8 10.8 21.8 10.2 22 10 " fill = "rgb(26, 26, 19)" stroke = "rgb(26, 26, 19)" stroke-width = "0"/>
    <path d="M 23 10 C 23.2 9.8 23.8 9.8 24 10 C 24.2 10.2 24.2 10.8 24 11 C 23.8 11.2 23.2 11.2 23 11 C 22.8 10.8 22.8 10.2 23 10 " fill = "rgb(74, 74, 68)" stroke = "rgb(74, 74, 68)" stroke-width = "0"/>
    <path d="M 24 10 C 24.2 9.8 24.8 9.8 25 10 C 25.2 10.2 25.2 10.8 25 11 C 24.8 11.2 24.2 11.2 24 11 C 23.8 10.8 23.8 10.2 24 10 " fill = "rgb(226, 226, 225)" stroke = "rgb(226, 226, 225)" stroke-width = "0"/>
    <path d="M 3 11 C 3.2 10.8 3.8 10.8 4 11 C 4.2 11.2 4.2 11.8 4 12 C 3.8 12.2 3.2 12.2 3 12 C 2.8 11.8 2.8 11.2 3 11 " fill = "rgb(133, 135, 131)" stroke = "rgb(133, 135, 131)" stroke-width = "0"/>
    <path d="M 4 11 C 4.2 10.8 4.8 10.8 5 11 C 5.2 11.2 5 11.6 5 12 C 5 12.4 5.2 12.8 5 13 C 4.8 13.2 4.2 13.2 4 13 C 3.8 12.8 4 12.4 4 12 C 4 11.6 3.8 11.2 4 11 " fill = "rgb(30, 9, 0)" stroke = "rgb(30, 9, 0)" stroke-width = "0"/>
    <path d="M 5 11 C 5.2 10.8 5.8 10.8 6 11 C 6.2 11.2 6 11.6 6 12 C 6 12.4 6.2 12.8 6 13 C 5.8 13.2 5.2 13.2 5 13 C 4.8 12.8 5 12.4 5 12 C 5 11.6 4.8 11.2 5 11 " fill = "rgb(111, 13, 0)" stroke = "rgb(111, 13, 0)" stroke-width = "0"/>
    <path d="M 6 11 C 6.2 10.8 6.8 10.8 7 11 C 7.2 11.2 7.2 11.8 7 12 C 6.8 12.2 6.2 12.2 6 12 C 5.8 11.8 5.8 11.2 6 11 " fill = "rgb(216, 71, 43)" stroke = "rgb(216, 71, 43)" stroke-width = "0"/>
    <path d="M 7 11 C 7.2 10.8 7.8 10.8 8 11 C 8.2 11.2 8.2 11.8 8 12 C 7.8 12.2 7.2 12.2 7 12 C 6.8 11.8 6.8 11.2 7 11 " fill = "rgb(152, 61, 39)" stroke = "rgb(152, 61, 39)" stroke-width = "0"/>
    <path d="M 8 11 C 8.2 10.8 8.8 10.8 9 11 C 9.2 11.2 9.2 11.8 9 12 C 8.8 12.2 8.2 12.2 8 12 C 7.8 11.8 7.8 11.2 8 11 " fill = "rgb(20, 13, 5)" stroke = "rgb(20, 13, 5)" stroke-width = "0"/>
    <path d="M 9 11 C 9.2 10.8 9.8 10.8 10 11 C 10.2 11.2 10.2 11.8 10 12 C 9.8 12.2 9.2 12.2 9 12 C 8.8 11.8 8.8 11.2 9 11 " fill = "rgb(106, 14, 0)" stroke = "rgb(106, 14, 0)" stroke-width = "0"/>
    <path d="M 18 11 C 18.2 10.8 18.8 10.8 19 11 C 19.2 11.2 19.2 11.8 19 12 C 18.8 12.2 18.2 12.2 18 12 C 17.8 11.8 17.8 11.2 18 11 " fill = "rgb(116, 15, 0)" stroke = "rgb(116, 15, 0)" stroke-width = "0"/>
    <path d="M 19 11 C 19.2 10.8 19.8 10.8 20 11 C 20.2 11.2 20.2 11.8 20 12 C 19.8 12.2 19.2 12.2 19 12 C 18.8 11.8 18.8 11.2 19 11 " fill = "rgb(122, 35, 21)" stroke = "rgb(122, 35, 21)" stroke-width = "0"/>
    <path d="M 20 11 C 20.2 10.8 20.8 10.8 21 11 C 21.2 11.2 21.2 11.8 21 12 C 20.8 12.2 20.2 12.2 20 12 C 19.8 11.8 19.8 11.2 20 11 " fill = "rgb(168, 146, 142)" stroke = "rgb(168, 146, 142)" stroke-width = "0"/>
    <path d="M 21 11 C 21.2 10.8 21.8 10.8 22 11 C 22.2 11.2 22.2 11.8 22 12 C 21.8 12.2 21.2 12.2 21 12 C 20.8 11.8 20.8 11.2 21 11 " fill = "rgb(68, 64, 57)" stroke = "rgb(68, 64, 57)" stroke-width = "0"/>
    <path d="M 22 11 C 22.2 10.8 22.8 10.8 23 11 C 23.2 11.2 23.2 11.8 23 12 C 22.8 12.2 22.2 12.2 22 12 C 21.8 11.8 21.8 11.2 22 11 " fill = "rgb(10, 11, 3)" stroke = "rgb(10, 11, 3)" stroke-width = "0"/>
    <path d="M 23 11 C 23.2 10.8 23.8 10.8 24 11 C 24.2 11.2 24.2 11.8 24 12 C 23.8 12.2 23.2 12.2 23 12 C 22.8 11.8 22.8 11.2 23 11 " fill = "rgb(27, 27, 20)" stroke = "rgb(27, 27, 20)" stroke-width = "0"/>
    <path d="M 24 11 C 24.2 10.8 24.8 10.8 25 11 C 25.2 11.2 25 11.6 25 12 C 25 12.4 25.2 12.8 25 13 C 24.8 13.2 24.2 13.2 24 13 C 23.8 12.8 24 12.4 24 12 C 24 11.6 23.8 11.2 24 11 " fill = "rgb(219, 219, 218)" stroke = "rgb(219, 219, 218)" stroke-width = "0"/>
    <path d="M 3 12 C 3.2 11.8 3.8 11.8 4 12 C 4.2 12.2 4 12.6 4 13 C 4 13.4 4.2 13.8 4 14 C 3.8 14.2 3.2 14.2 3 14 C 2.8 13.8 3 13.4 3 13 C 3 12.6 2.8 12.2 3 12 " fill = "rgb(132, 133, 129)" stroke = "rgb(132, 133, 129)" stroke-width = "0"/>
    <path d="M 6 12 C 6.2 11.8 6.8 11.8 7 12 C 7.2 12.2 7.2 12.8 7 13 C 6.8 13.2 6.2 13.2 6 13 C 5.8 12.8 5.8 12.2 6 12 " fill = "rgb(215, 71, 43)" stroke = "rgb(215, 71, 43)" stroke-width = "0"/>
    <path d="M 7 12 C 7.2 11.8 7.8 11.8 8 12 C 8.2 12.2 8.2 12.8 8 13 C 7.8 13.2 7.2 13.2 7 13 C 6.8 12.8 6.8 12.2 7 12 " fill = "rgb(152, 60, 38)" stroke = "rgb(152, 60, 38)" stroke-width = "0"/>
    <path d="M 8 12 C 8.2 11.8 8.8 11.8 9 12 C 9.2 12.2 9.2 12.8 9 13 C 8.8 13.2 8.2 13.2 8 13 C 7.8 12.8 7.8 12.2 8 12 " fill = "rgb(21, 14, 5)" stroke = "rgb(21, 14, 5)" stroke-width = "0"/>
    <path d="M 9 12 C 9.2 11.8 9.8 11.8 10 12 C 10.2 12.2 10.2 12.8 10 13 C 9.8 13.2 9.2 13.2 9 13 C 8.8 12.8 8.8 12.2 9 12 " fill = "rgb(107, 16, 1)" stroke = "rgb(107, 16, 1)" stroke-width = "0"/>
    <path d="M 10 12 C 10.2 11.8 10.8 11.8 11 12 C 11.2 12.2 11.2 12.8 11 13 C 10.8 13.2 10.2 13.2 10 13 C 9.8 12.8 9.8 12.2 10 12 " fill = "rgb(116, 16, 0)" stroke = "rgb(116, 16, 0)" stroke-width = "0"/>
    <path d="M 18 12 C 18.2 11.8 18.8 11.8 19 12 C 19.2 12.2 19.2 12.8 19 13 C 18.8 13.2 18.2 13.2 18 13 C 17.8 12.8 17.8 12.2 18 12 " fill = "rgb(117, 16, 0)" stroke = "rgb(117, 16, 0)" stroke-width = "0"/>
    <path d="M 19 12 C 19.2 11.8 19.8 11.8 20 12 C 20.2 12.2 20.2 12.8 20 13 C 19.8 13.2 19.2 13.2 19 13 C 18.8 12.8 18.8 12.2 19 12 " fill = "rgb(107, 22, 7)" stroke = "rgb(107, 22, 7)" stroke-width = "0"/>
    <path d="M 20 12 C 20.2 11.8 20.8 11.8 21 12 C 21.2 12.2 21.2 12.8 21 13 C 20.8 13.2 20.2 13.2 20 13 C 19.8 12.8 19.8 12.2 20 12 " fill = "rgb(62, 58, 49)" stroke = "rgb(62, 58, 49)" stroke-width = "0"/>
    <path d="M 21 12 C 21.2 11.8 21.8 11.8 22 12 C 22.2 12.2 22.2 12.8 22 13 C 21.8 13.2 21.2 13.2 21 13 C 20.8 12.8 20.8 12.2 21 12 " fill = "rgb(43, 31, 22)" stroke = "rgb(43, 31, 22)" stroke-width = "0"/>
    <path d="M 22 12 C 22.2 11.8 22.8 11.8 23 12 C 23.2 12.2 23.2 12.8 23 13 C 22.8 13.2 22.2 13.2 22 13 C 21.8 12.8 21.8 12.2 22 12 " fill = "rgb(27, 14, 5)" stroke = "rgb(27, 14, 5)" stroke-width = "0"/>
    <path d="M 23 12 C 23.2 11.8 23.8 11.8 24 12 C 24.2 12.2 24.2 12.8 24 13 C 23.8 13.2 23.2 13.2 23 13 C 22.8 12.8 22.8 12.2 23 12 " fill = "rgb(29, 30, 23)" stroke = "rgb(29, 30, 23)" stroke-width = "0"/>
    <path d="M 4 13 C 4.2 12.8 4.8 12.8 5 13 C 5.2 13.2 5.2 13.8 5 14 C 4.8 14.2 4.2 14.2 4 14 C 3.8 13.8 3.8 13.2 4 13 " fill = "rgb(31, 9, 0)" stroke = "rgb(31, 9, 0)" stroke-width = "0"/>
    <path d="M 5 13 C 5.2 12.8 5.8 12.8 6 13 C 6.2 13.2 6.2 13.8 6 14 C 5.8 14.2 5.2 14.2 5 14 C 4.8 13.8 4.8 13.2 5 13 " fill = "rgb(114, 13, 0)" stroke = "rgb(114, 13, 0)" stroke-width = "0"/>
    <path d="M 6 13 C 6.2 12.8 6.8 12.8 7 13 C 7.2 13.2 7.2 13.8 7 14 C 6.8 14.2 6.2 14.2 6 14 C 5.8 13.8 5.8 13.2 6 13 " fill = "rgb(216, 71, 43)" stroke = "rgb(216, 71, 43)" stroke-width = "0"/>
    <path d="M 7 13 C 7.2 12.8 7.8 12.8 8 13 C 8.2 13.2 8.2 13.8 8 14 C 7.8 14.2 7.2 14.2 7 14 C 6.8 13.8 6.8 13.2 7 13 " fill = "rgb(148, 59, 37)" stroke = "rgb(148, 59, 37)" stroke-width = "0"/>
    <path d="M 8 13 C 8.2 12.8 8.8 12.8 9 13 C 9.2 13.2 9.2 13.8 9 14 C 8.8 14.2 8.2 14.2 8 14 C 7.8 13.8 7.8 13.2 8 13 " fill = "rgb(13, 11, 4)" stroke = "rgb(13, 11, 4)" stroke-width = "0"/>
    <path d="M 9 13 C 9.2 12.8 9.8 12.8 10 13 C 10.2 13.2 10.2 13.8 10 14 C 9.8 14.2 9.2 14.2 9 14 C 8.8 13.8 8.8 13.2 9 13 " fill = "rgb(101, 13, 0)" stroke = "rgb(101, 13, 0)" stroke-width = "0"/>
    <path d="M 10 13 C 10.2 12.8 10.8 12.8 11 13 C 11.2 13.2 11.2 13.8 11 14 C 10.8 14.2 10.2 14.2 10 14 C 9.8 13.8 9.8 13.2 10 13 " fill = "rgb(111, 13, 0)" stroke = "rgb(111, 13, 0)" stroke-width = "0"/>
    <path d="M 11 13 C 11.2 12.8 11.6 13 12 13 C 12.4 13 12.6 13 13 13 C 13.4 13 13.8 12.8 14 13 C 14.2 13.2 14.2 13.8 14 14 C 13.8 14.2 13.4 14 13 14 C 12.6 14 12.4 14 12 14 C 11.6 14 11.2 14.2 11 14 C 10.8 13.8 10.8 13.2 11 13 " fill = "rgb(110, 13, 0)" stroke = "rgb(110, 13, 0)" stroke-width = "0"/>
    <path d="M 14 13 C 14.2 12.8 14.8 12.8 15 13 C 15.2 13.2 15.2 13.8 15 14 C 14.8 14.2 14.2 14.2 14 14 C 13.8 13.8 13.8 13.2 14 13 " fill = "rgb(112, 13, 0)" stroke = "rgb(112, 13, 0)" stroke-width = "0"/>
    <path d="M 15 13 C 15.2 12.8 15.8 12.8 16 13 C 16.2 13.2 16.2 13.8 16 14 C 15.8 14.2 15.2 14.2 15 14 C 14.8 13.8 14.8 13.2 15 13 " fill = "rgb(86, 13, 0)" stroke = "rgb(86, 13, 0)" stroke-width = "0"/>
    <path d="M 16 13 C 16.2 12.8 16.8 12.8 17 13 C 17.2 13.2 17.2 13.8 17 14 C 16.8 14.2 16.2 14.2 16 14 C 15.8 13.8 15.8 13.2 16 13 " fill = "rgb(1, 13, 7)" stroke = "rgb(1, 13, 7)" stroke-width = "0"/>
    <path d="M 17 13 C 17.2 12.8 17.8 12.8 18 13 C 18.2 13.2 18.2 13.8 18 14 C 17.8 14.2 17.2 14.2 17 14 C 16.8 13.8 16.8 13.2 17 13 " fill = "rgb(84, 13, 0)" stroke = "rgb(84, 13, 0)" stroke-width = "0"/>
    <path d="M 18 13 C 18.2 12.8 18.8 12.8 19 13 C 19.2 13.2 19.2 13.8 19 14 C 18.8 14.2 18.2 14.2 18 14 C 17.8 13.8 17.8 13.2 18 13 " fill = "rgb(113, 13, 0)" stroke = "rgb(113, 13, 0)" stroke-width = "0"/>
    <path d="M 19 13 C 19.2 12.8 19.8 12.8 20 13 C 20.2 13.2 20.2 13.8 20 14 C 19.8 14.2 19.2 14.2 19 14 C 18.8 13.8 18.8 13.2 19 13 " fill = "rgb(96, 14, 0)" stroke = "rgb(96, 14, 0)" stroke-width = "0"/>
    <path d="M 20 13 C 20.2 12.8 20.8 12.8 21 13 C 21.2 13.2 21.2 13.8 21 14 C 20.8 14.2 20.2 14.2 20 14 C 19.8 13.8 19.8 13.2 20 13 " fill = "rgb(16, 17, 9)" stroke = "rgb(16, 17, 9)" stroke-width = "0"/>
    <path d="M 21 13 C 21.2 12.8 21.8 12.8 22 13 C 22.2 13.2 22.2 13.8 22 14 C 21.8 14.2 21.2 14.2 21 14 C 20.8 13.8 20.8 13.2 21 13 " fill = "rgb(81, 16, 3)" stroke = "rgb(81, 16, 3)" stroke-width = "0"/>
    <path d="M 22 13 C 22.2 12.8 22.8 12.8 23 13 C 23.2 13.2 23.2 13.8 23 14 C 22.8 14.2 22.2 14.2 22 14 C 21.8 13.8 21.8 13.2 22 13 " fill = "rgb(79, 12, 0)" stroke = "rgb(79, 12, 0)" stroke-width = "0"/>
    <path d="M 23 13 C 23.2 12.8 23.8 12.8 24 13 C 24.2 13.2 24.2 13.8 24 14 C 23.8 14.2 23.2 14.2 23 14 C 22.8 13.8 22.8 13.2 23 13 " fill = "rgb(19, 22, 15)" stroke = "rgb(19, 22, 15)" stroke-width = "0"/>
    <path d="M 24 13 C 24.2 12.8 24.8 12.8 25 13 C 25.2 13.2 25.2 13.8 25 14 C 24.8 14.2 24.2 14.2 24 14 C 23.8 13.8 23.8 13.2 24 13 " fill = "rgb(218, 218, 216)" stroke = "rgb(218, 218, 216)" stroke-width = "0"/>
    <path d="M 3 14 C 3.2 13.8 3.8 13.8 4 14 C 4.2 14.2 4.2 14.8 4 15 C 3.8 15.2 3.2 15.2 3 15 C 2.8 14.8 2.8 14.2 3 14 " fill = "rgb(133, 133, 129)" stroke = "rgb(133, 133, 129)" stroke-width = "0"/>
    <path d="M 4 14 C 4.2 13.8 4.8 13.8 5 14 C 5.2 14.2 5.2 14.8 5 15 C 4.8 15.2 4.2 15.2 4 15 C 3.8 14.8 3.8 14.2 4 14 " fill = "rgb(15, 9, 0)" stroke = "rgb(15, 9, 0)" stroke-width = "0"/>
    <path d="M 5 14 C 5.2 13.8 5.8 13.8 6 14 C 6.2 14.2 6.2 14.8 6 15 C 5.8 15.2 5.2 15.2 5 15 C 4.8 14.8 4.8 14.2 5 14 " fill = "rgb(36, 12, 2)" stroke = "rgb(36, 12, 2)" stroke-width = "0"/>
    <path d="M 6 14 C 6.2 13.8 6.8 13.8 7 14 C 7.2 14.2 7.2 14.8 7 15 C 6.8 15.2 6.2 15.2 6 15 C 5.8 14.8 5.8 14.2 6 14 " fill = "rgb(193, 70, 44)" stroke = "rgb(193, 70, 44)" stroke-width = "0"/>
    <path d="M 7 14 C 7.2 13.8 7.8 13.8 8 14 C 8.2 14.2 8.2 14.8 8 15 C 7.8 15.2 7.2 15.2 7 15 C 6.8 14.8 6.8 14.2 7 14 " fill = "rgb(222, 83, 53)" stroke = "rgb(222, 83, 53)" stroke-width = "0"/>
    <path d="M 8 14 C 8.2 13.8 8.8 13.8 9 14 C 9.2 14.2 9.2 14.8 9 15 C 8.8 15.2 8.2 15.2 8 15 C 7.8 14.8 7.8 14.2 8 14 " fill = "rgb(177, 67, 42)" stroke = "rgb(177, 67, 42)" stroke-width = "0"/>
    <path d="M 9 14 C 9.2 13.8 9.8 13.8 10 14 C 10.2 14.2 10.2 14.8 10 15 C 9.8 15.2 9.2 15.2 9 15 C 8.8 14.8 8.8 14.2 9 14 " fill = "rgb(205, 68, 41)" stroke = "rgb(205, 68, 41)" stroke-width = "0"/>
    <path d="M 10 14 C 10.2 13.8 10.6 14 11 14 C 11.4 14 11.6 14 12 14 C 12.4 14 12.6 14 13 14 C 13.4 14 13.8 13.8 14 14 C 14.2 14.2 14.2 14.8 14 15 C 13.8 15.2 13.4 15 13 15 C 12.6 15 12.4 15 12 15 C 11.6 15 11.4 15 11 15 C 10.6 15 10.2 15.2 10 15 C 9.8 14.8 9.8 14.2 10 14 " fill = "rgb(207, 68, 41)" stroke = "rgb(207, 68, 41)" stroke-width = "0"/>
    <path d="M 14 14 C 14.2 13.8 14.8 13.8 15 14 C 15.2 14.2 15.2 14.8 15 15 C 14.8 15.2 14.2 15.2 14 15 C 13.8 14.8 13.8 14.2 14 14 " fill = "rgb(208, 68, 41)" stroke = "rgb(208, 68, 41)" stroke-width = "0"/>
    <path d="M 15 14 C 15.2 13.8 15.8 13.8 16 14 C 16.2 14.2 16.2 14.8 16 15 C 15.8 15.2 15.2 15.2 15 15 C 14.8 14.8 14.8 14.2 15 14 " fill = "rgb(200, 68, 41)" stroke = "rgb(200, 68, 41)" stroke-width = "0"/>
    <path d="M 16 14 C 16.2 13.8 16.8 13.8 17 14 C 17.2 14.2 17.2 14.8 17 15 C 16.8 15.2 16.2 15.2 16 15 C 15.8 14.8 15.8 14.2 16 14 " fill = "rgb(175, 68, 43)" stroke = "rgb(175, 68, 43)" stroke-width = "0"/>
    <path d="M 17 14 C 17.2 13.8 17.8 13.8 18 14 C 18.2 14.2 18.2 14.8 18 15 C 17.8 15.2 17.2 15.2 17 15 C 16.8 14.8 16.8 14.2 17 14 " fill = "rgb(200, 68, 41)" stroke = "rgb(200, 68, 41)" stroke-width = "0"/>
    <path d="M 18 14 C 18.2 13.8 18.8 13.8 19 14 C 19.2 14.2 19.2 14.8 19 15 C 18.8 15.2 18.2 15.2 18 15 C 17.8 14.8 17.8 14.2 18 14 " fill = "rgb(209, 68, 41)" stroke = "rgb(209, 68, 41)" stroke-width = "0"/>
    <path d="M 19 14 C 19.2 13.8 19.8 13.8 20 14 C 20.2 14.2 20.2 14.8 20 15 C 19.8 15.2 19.2 15.2 19 15 C 18.8 14.8 18.8 14.2 19 14 " fill = "rgb(189, 60, 35)" stroke = "rgb(189, 60, 35)" stroke-width = "0"/>
    <path d="M 20 14 C 20.2 13.8 20.8 13.8 21 14 C 21.2 14.2 21.2 14.8 21 15 C 20.8 15.2 20.2 15.2 20 15 C 19.8 14.8 19.8 14.2 20 14 " fill = "rgb(89, 18, 4)" stroke = "rgb(89, 18, 4)" stroke-width = "0"/>
    <path d="M 21 14 C 21.2 13.8 21.8 13.8 22 14 C 22.2 14.2 22.2 14.8 22 15 C 21.8 15.2 21.2 15.2 21 15 C 20.8 14.8 20.8 14.2 21 14 " fill = "rgb(56, 12, 0)" stroke = "rgb(56, 12, 0)" stroke-width = "0"/>
    <path d="M 22 14 C 22.2 13.8 22.8 13.8 23 14 C 23.2 14.2 23.2 14.8 23 15 C 22.8 15.2 22.2 15.2 22 15 C 21.8 14.8 21.8 14.2 22 14 " fill = "rgb(92, 72, 64)" stroke = "rgb(92, 72, 64)" stroke-width = "0"/>
    <path d="M 23 14 C 23.2 13.8 23.8 13.8 24 14 C 24.2 14.2 24.2 14.8 24 15 C 23.8 15.2 23.2 15.2 23 15 C 22.8 14.8 22.8 14.2 23 14 " fill = "rgb(187, 188, 186)" stroke = "rgb(187, 188, 186)" stroke-width = "0"/>
    <path d="M 24 14 C 24.2 13.8 24.85 13.85 25 14 C 25.15 14.15 24.95 14.55 24.75 14.75 C 24.55 14.95 24.15 15.15 24 15 C 23.85 14.85 23.8 14.2 24 14 " fill = "rgb(244, 244, 243)" stroke = "rgb(244, 244, 243)" stroke-width = "0"/>
    <path d="M 3 15 C 3.2 14.8 3.8 14.8 4 15 C 4.2 15.2 4.2 15.8 4 16 C 3.8 16.2 3.2 16.2 3 16 C 2.8 15.8 2.8 15.2 3 15 " fill = "rgb(132, 133, 129)" stroke = "rgb(132, 133, 129)" stroke-width = "0"/>
    <path d="M 4 15 C 4.2 14.8 4.8 14.8 5 15 C 5.2 15.2 5.2 15.8 5 16 C 4.8 16.2 4.2 16.2 4 16 C 3.8 15.8 3.8 15.2 4 15 " fill = "rgb(27, 15, 5)" stroke = "rgb(27, 15, 5)" stroke-width = "0"/>
    <path d="M 5 15 C 5.2 14.8 5.8 14.8 6 15 C 6.2 15.2 6.2 15.8 6 16 C 5.8 16.2 5.2 16.2 5 16 C 4.8 15.8 4.8 15.2 5 15 " fill = "rgb(98, 43, 27)" stroke = "rgb(98, 43, 27)" stroke-width = "0"/>
    <path d="M 6 15 C 6.2 14.8 6.8 14.8 7 15 C 7.2 15.2 7.2 15.8 7 16 C 6.8 16.2 6.2 16.2 6 16 C 5.8 15.8 5.8 15.2 6 15 " fill = "rgb(170, 57, 34)" stroke = "rgb(170, 57, 34)" stroke-width = "0"/>
    <path d="M 7 15 C 7.2 14.8 7.8 14.8 8 15 C 8.2 15.2 8.2 15.8 8 16 C 7.8 16.2 7.2 16.2 7 16 C 6.8 15.8 6.8 15.2 7 15 " fill = "rgb(202, 64, 37)" stroke = "rgb(202, 64, 37)" stroke-width = "0"/>
    <path d="M 8 15 C 8.2 14.8 8.8 14.8 9 15 C 9.2 15.2 9.2 15.8 9 16 C 8.8 16.2 8.2 16.2 8 16 C 7.8 15.8 7.8 15.2 8 15 " fill = "rgb(202, 64, 38)" stroke = "rgb(202, 64, 38)" stroke-width = "0"/>
    <path d="M 9 15 C 9.2 14.8 9.8 14.8 10 15 C 10.2 15.2 10.2 15.8 10 16 C 9.8 16.2 9.2 16.2 9 16 C 8.8 15.8 8.8 15.2 9 15 " fill = "rgb(201, 64, 38)" stroke = "rgb(201, 64, 38)" stroke-width = "0"/>
    <path d="M 10 15 C 10.2 14.8 10.6 15 11 15 C 11.4 15 11.8 14.8 12 15 C 12.2 15.2 12.2 15.8 12 16 C 11.8 16.2 11.4 16 11 16 C 10.6 16 10.2 16.2 10 16 C 9.8 15.8 9.8 15.2 10 15 " fill = "rgb(200, 64, 37)" stroke = "rgb(200, 64, 37)" stroke-width = "0"/>
    <path d="M 12 15 C 12.2 14.8 12.6 15 13 15 C 13.4 15 13.6 15 14 15 C 14.4 15 14.8 14.8 15 15 C 15.2 15.2 15.2 15.8 15 16 C 14.8 16.2 14.4 16 14 16 C 13.6 16 13.4 16 13 16 C 12.6 16 12.2 16.2 12 16 C 11.8 15.8 11.8 15.2 12 15 " fill = "rgb(201, 64, 38)" stroke = "rgb(201, 64, 38)" stroke-width = "0"/>
    <path d="M 15 15 C 15.2 14.8 15.8 14.8 16 15 C 16.2 15.2 16.2 15.8 16 16 C 15.8 16.2 15.2 16.2 15 16 C 14.8 15.8 14.8 15.2 15 15 " fill = "rgb(192, 64, 38)" stroke = "rgb(192, 64, 38)" stroke-width = "0"/>
    <path d="M 16 15 C 16.2 14.8 16.8 14.8 17 15 C 17.2 15.2 17.2 15.8 17 16 C 16.8 16.2 16.2 16.2 16 16 C 15.8 15.8 15.8 15.2 16 15 " fill = "rgb(162, 64, 40)" stroke = "rgb(162, 64, 40)" stroke-width = "0"/>
    <path d="M 17 15 C 17.2 14.8 17.8 14.8 18 15 C 18.2 15.2 18.2 15.8 18 16 C 17.8 16.2 17.2 16.2 17 16 C 16.8 15.8 16.8 15.2 17 15 " fill = "rgb(191, 63, 37)" stroke = "rgb(191, 63, 37)" stroke-width = "0"/>
    <path d="M 18 15 C 18.2 14.8 18.8 14.8 19 15 C 19.2 15.2 19.2 15.8 19 16 C 18.8 16.2 18.2 16.2 18 16 C 17.8 15.8 17.8 15.2 18 15 " fill = "rgb(201, 63, 37)" stroke = "rgb(201, 63, 37)" stroke-width = "0"/>
    <path d="M 19 15 C 19.2 14.8 19.8 14.8 20 15 C 20.2 15.2 20.2 15.8 20 16 C 19.8 16.2 19.2 16.2 19 16 C 18.8 15.8 18.8 15.2 19 15 " fill = "rgb(195, 61, 35)" stroke = "rgb(195, 61, 35)" stroke-width = "0"/>
    <path d="M 20 15 C 20.2 14.8 20.8 14.8 21 15 C 21.2 15.2 21.2 15.8 21 16 C 20.8 16.2 20.2 16.2 20 16 C 19.8 15.8 19.8 15.2 20 15 " fill = "rgb(174, 46, 23)" stroke = "rgb(174, 46, 23)" stroke-width = "0"/>
    <path d="M 21 15 C 21.2 14.8 21.8 14.8 22 15 C 22.2 15.2 22.2 15.8 22 16 C 21.8 16.2 21.2 16.2 21 16 C 20.8 15.8 20.8 15.2 21 15 " fill = "rgb(63, 21, 8)" stroke = "rgb(63, 21, 8)" stroke-width = "0"/>
    <path d="M 22 15 C 22.2 14.8 22.8 14.8 23 15 C 23.2 15.2 23.2 15.8 23 16 C 22.8 16.2 22.2 16.2 22 16 C 21.8 15.8 21.8 15.2 22 15 " fill = "rgb(97, 100, 95)" stroke = "rgb(97, 100, 95)" stroke-width = "0"/>
    <path d="M 3 16 C 3.2 15.8 3.8 15.8 4 16 C 4.2 16.2 4.2 16.8 4 17 C 3.8 17.2 3.2 17.2 3 17 C 2.8 16.8 2.8 16.2 3 16 " fill = "rgb(131, 133, 129)" stroke = "rgb(131, 133, 129)" stroke-width = "0"/>
    <path d="M 4 16 C 4.2 15.8 4.8 15.8 5 16 C 5.2 16.2 5.2 16.8 5 17 C 4.8 17.2 4.2 17.2 4 17 C 3.8 16.8 3.8 16.2 4 16 " fill = "rgb(58, 25, 11)" stroke = "rgb(58, 25, 11)" stroke-width = "0"/>
    <path d="M 5 16 C 5.2 15.8 5.8 15.8 6 16 C 6.2 16.2 6.2 16.8 6 17 C 5.8 17.2 5.2 17.2 5 17 C 4.8 16.8 4.8 16.2 5 16 " fill = "rgb(252, 90, 58)" stroke = "rgb(252, 90, 58)" stroke-width = "0"/>
    <path d="M 6 16 C 6.2 15.8 6.8 15.8 7 16 C 7.2 16.2 7.2 16.8 7 17 C 6.8 17.2 6.2 17.2 6 17 C 5.8 16.8 5.8 16.2 6 16 " fill = "rgb(150, 35, 15)" stroke = "rgb(150, 35, 15)" stroke-width = "0"/>
    <path d="M 7 16 C 7.2 15.8 7.8 15.8 8 16 C 8.2 16.2 8.2 16.8 8 17 C 7.8 17.2 7.2 17.2 7 17 C 6.8 16.8 6.8 16.2 7 16 " fill = "rgb(108, 12, 0)" stroke = "rgb(108, 12, 0)" stroke-width = "0"/>
    <path d="M 8 16 C 8.2 15.8 8.6 16 9 16 C 9.4 16 9.8 15.8 10 16 C 10.2 16.2 10.2 16.8 10 17 C 9.8 17.2 9.4 17 9 17 C 8.6 17 8.2 17.2 8 17 C 7.8 16.8 7.8 16.2 8 16 " fill = "rgb(110, 13, 0)" stroke = "rgb(110, 13, 0)" stroke-width = "0"/>
    <path d="M 10 16 C 10.2 15.8 10.8 15.8 11 16 C 11.2 16.2 11.2 16.8 11 17 C 10.8 17.2 10.2 17.2 10 17 C 9.8 16.8 9.8 16.2 10 16 " fill = "rgb(116, 17, 1)" stroke = "rgb(116, 17, 1)" stroke-width = "0"/>
    <path d="M 11 16 C 11.2 15.8 11.8 15.8 12 16 C 12.2 16.2 12.2 16.8 12 17 C 11.8 17.2 11.2 17.2 11 17 C 10.8 16.8 10.8 16.2 11 16 " fill = "rgb(117, 17, 1)" stroke = "rgb(117, 17, 1)" stroke-width = "0"/>
    <path d="M 12 16 C 12.2 15.8 12.6 16 13 16 C 13.4 16 13.8 15.8 14 16 C 14.2 16.2 14.2 16.8 14 17 C 13.8 17.2 13.4 17 13 17 C 12.6 17 12.2 17.2 12 17 C 11.8 16.8 11.8 16.2 12 16 " fill = "rgb(110, 13, 0)" stroke = "rgb(110, 13, 0)" stroke-width = "0"/>
    <path d="M 14 16 C 14.2 15.8 14.8 15.8 15 16 C 15.2 16.2 15.2 16.8 15 17 C 14.8 17.2 14.2 17.2 14 17 C 13.8 16.8 13.8 16.2 14 16 " fill = "rgb(112, 13, 0)" stroke = "rgb(112, 13, 0)" stroke-width = "0"/>
    <path d="M 15 16 C 15.2 15.8 15.8 15.8 16 16 C 16.2 16.2 16.2 16.8 16 17 C 15.8 17.2 15.2 17.2 15 17 C 14.8 16.8 14.8 16.2 15 16 " fill = "rgb(90, 15, 1)" stroke = "rgb(90, 15, 1)" stroke-width = "0"/>
    <path d="M 16 16 C 16.2 15.8 16.8 15.8 17 16 C 17.2 16.2 17.2 16.8 17 17 C 16.8 17.2 16.2 17.2 16 17 C 15.8 16.8 15.8 16.2 16 16 " fill = "rgb(18, 18, 10)" stroke = "rgb(18, 18, 10)" stroke-width = "0"/>
    <path d="M 17 16 C 17.2 15.8 17.8 15.8 18 16 C 18.2 16.2 18.2 16.8 18 17 C 17.8 17.2 17.2 17.2 17 17 C 16.8 16.8 16.8 16.2 17 16 " fill = "rgb(95, 25, 13)" stroke = "rgb(95, 25, 13)" stroke-width = "0"/>
    <path d="M 18 16 C 18.2 15.8 18.8 15.8 19 16 C 19.2 16.2 19.2 16.8 19 17 C 18.8 17.2 18.2 17.2 18 17 C 17.8 16.8 17.8 16.2 18 16 " fill = "rgb(120, 23, 8)" stroke = "rgb(120, 23, 8)" stroke-width = "0"/>
    <path d="M 19 16 C 19.2 15.8 19.8 15.8 20 16 C 20.2 16.2 20.2 16.8 20 17 C 19.8 17.2 19.2 17.2 19 17 C 18.8 16.8 18.8 16.2 19 16 " fill = "rgb(138, 28, 9)" stroke = "rgb(138, 28, 9)" stroke-width = "0"/>
    <path d="M 20 16 C 20.2 15.8 20.8 15.8 21 16 C 21.2 16.2 21.2 16.8 21 17 C 20.8 17.2 20.2 17.2 20 17 C 19.8 16.8 19.8 16.2 20 16 " fill = "rgb(242, 85, 54)" stroke = "rgb(242, 85, 54)" stroke-width = "0"/>
    <path d="M 21 16 C 21.2 15.8 21.8 15.8 22 16 C 22.2 16.2 22.2 16.8 22 17 C 21.8 17.2 21.2 17.2 21 17 C 20.8 16.8 20.8 16.2 21 16 " fill = "rgb(92, 37, 20)" stroke = "rgb(92, 37, 20)" stroke-width = "0"/>
    <path d="M 22 16 C 22.2 15.8 22.8 15.8 23 16 C 23.2 16.2 23.2 16.8 23 17 C 22.8 17.2 22.2 17.2 22 17 C 21.8 16.8 21.8 16.2 22 16 " fill = "rgb(95, 98, 93)" stroke = "rgb(95, 98, 93)" stroke-width = "0"/>
    <path d="M 3 17 C 3.2 16.8 3.8 16.8 4 17 C 4.2 17.2 4 17.6 4 18 C 4 18.4 4.2 18.8 4 19 C 3.8 19.2 3.2 19.2 3 19 C 2.8 18.8 3 18.4 3 18 C 3 17.6 2.8 17.2 3 17 " fill = "rgb(132, 133, 129)" stroke = "rgb(132, 133, 129)" stroke-width = "0"/>
    <path d="M 4 17 C 4.2 16.8 4.8 16.8 5 17 C 5.2 17.2 5.2 17.8 5 18 C 4.8 18.2 4.2 18.2 4 18 C 3.8 17.8 3.8 17.2 4 17 " fill = "rgb(35, 11, 1)" stroke = "rgb(35, 11, 1)" stroke-width = "0"/>
    <path d="M 5 17 C 5.2 16.8 5.8 16.8 6 17 C 6.2 17.2 6.2 17.8 6 18 C 5.8 18.2 5.2 18.2 5 18 C 4.8 17.8 4.8 17.2 5 17 " fill = "rgb(137, 26, 7)" stroke = "rgb(137, 26, 7)" stroke-width = "0"/>
    <path d="M 6 17 C 6.2 16.8 6.8 16.8 7 17 C 7.2 17.2 7.2 17.8 7 18 C 6.8 18.2 6.2 18.2 6 18 C 5.8 17.8 5.8 17.2 6 17 " fill = "rgb(123, 18, 2)" stroke = "rgb(123, 18, 2)" stroke-width = "0"/>
    <path d="M 7 17 C 7.2 16.8 7.6 17 8 17 C 8.4 17 8.8 16.8 9 17 C 9.2 17.2 9.2 17.8 9 18 C 8.8 18.2 8.4 18 8 18 C 7.6 18 7.2 18.2 7 18 C 6.8 17.8 6.8 17.2 7 17 " fill = "rgb(118, 16, 0)" stroke = "rgb(118, 16, 0)" stroke-width = "0"/>
    <path d="M 9 17 C 9.2 16.8 9.8 16.8 10 17 C 10.2 17.2 10.2 17.8 10 18 C 9.8 18.2 9.2 18.2 9 18 C 8.8 17.8 8.8 17.2 9 17 " fill = "rgb(114, 14, 0)" stroke = "rgb(114, 14, 0)" stroke-width = "0"/>
    <path d="M 10 17 C 10.2 16.8 10.8 16.8 11 17 C 11.2 17.2 11.2 17.8 11 18 C 10.8 18.2 10.2 18.2 10 18 C 9.8 17.8 9.8 17.2 10 17 " fill = "rgb(193, 58, 33)" stroke = "rgb(193, 58, 33)" stroke-width = "0"/>
    <path d="M 11 17 C 11.2 16.8 11.8 16.8 12 17 C 12.2 17.2 12.2 17.8 12 18 C 11.8 18.2 11.2 18.2 11 18 C 10.8 17.8 10.8 17.2 11 17 " fill = "rgb(199, 61, 35)" stroke = "rgb(199, 61, 35)" stroke-width = "0"/>
    <path d="M 12 17 C 12.2 16.8 12.8 16.8 13 17 C 13.2 17.2 13.2 17.8 13 18 C 12.8 18.2 12.2 18.2 12 18 C 11.8 17.8 11.8 17.2 12 17 " fill = "rgb(114, 14, 0)" stroke = "rgb(114, 14, 0)" stroke-width = "0"/>
    <path d="M 13 17 C 13.2 16.8 13.8 16.8 14 17 C 14.2 17.2 14.2 17.8 14 18 C 13.8 18.2 13.2 18.2 13 18 C 12.8 17.8 12.8 17.2 13 17 " fill = "rgb(118, 16, 0)" stroke = "rgb(118, 16, 0)" stroke-width = "0"/>
    <path d="M 14 17 C 14.2 16.8 14.8 16.8 15 17 C 15.2 17.2 15.2 17.8 15 18 C 14.8 18.2 14.2 18.2 14 18 C 13.8 17.8 13.8 17.2 14 17 " fill = "rgb(117, 15, 0)" stroke = "rgb(117, 15, 0)" stroke-width = "0"/>
    <path d="M 15 17 C 15.2 16.8 15.8 16.8 16 17 C 16.2 17.2 16.2 17.8 16 18 C 15.8 18.2 15.2 18.2 15 18 C 14.8 17.8 14.8 17.2 15 17 " fill = "rgb(142, 31, 12)" stroke = "rgb(142, 31, 12)" stroke-width = "0"/>
    <path d="M 16 17 C 16.2 16.8 16.8 16.8 17 17 C 17.2 17.2 17.2 17.8 17 18 C 16.8 18.2 16.2 18.2 16 18 C 15.8 17.8 15.8 17.2 16 17 " fill = "rgb(222, 79, 48)" stroke = "rgb(222, 79, 48)" stroke-width = "0"/>
    <path d="M 17 17 C 17.2 16.8 17.8 16.8 18 17 C 18.2 17.2 18.2 17.8 18 18 C 17.8 18.2 17.2 18.2 17 18 C 16.8 17.8 16.8 17.2 17 17 " fill = "rgb(237, 171, 162)" stroke = "rgb(237, 171, 162)" stroke-width = "0"/>
    <path d="M 18 17 C 18.2 16.8 18.8 16.8 19 17 C 19.2 17.2 19.2 17.8 19 18 C 18.8 18.2 18.2 18.2 18 18 C 17.8 17.8 17.8 17.2 18 17 " fill = "rgb(240, 149, 135)" stroke = "rgb(240, 149, 135)" stroke-width = "0"/>
    <path d="M 19 17 C 19.2 16.8 19.8 16.8 20 17 C 20.2 17.2 20.2 17.8 20 18 C 19.8 18.2 19.2 18.2 19 18 C 18.8 17.8 18.8 17.2 19 17 " fill = "rgb(219, 69, 40)" stroke = "rgb(219, 69, 40)" stroke-width = "0"/>
    <path d="M 20 17 C 20.2 16.8 20.8 16.8 21 17 C 21.2 17.2 21.2 17.8 21 18 C 20.8 18.2 20.2 18.2 20 18 C 19.8 17.8 19.8 17.2 20 17 " fill = "rgb(142, 26, 7)" stroke = "rgb(142, 26, 7)" stroke-width = "0"/>
    <path d="M 21 17 C 21.2 16.8 21.8 16.8 22 17 C 22.2 17.2 22.2 17.8 22 18 C 21.8 18.2 21.2 18.2 21 18 C 20.8 17.8 20.8 17.2 21 17 " fill = "rgb(51, 13, 1)" stroke = "rgb(51, 13, 1)" stroke-width = "0"/>
    <path d="M 22 17 C 22.2 16.8 22.8 16.8 23 17 C 23.2 17.2 23.2 17.8 23 18 C 22.8 18.2 22.2 18.2 22 18 C 21.8 17.8 21.8 17.2 22 17 " fill = "rgb(97, 99, 94)" stroke = "rgb(97, 99, 94)" stroke-width = "0"/>
    <path d="M 4 18 C 4.2 17.8 4.8 17.8 5 18 C 5.2 18.2 5.2 18.8 5 19 C 4.8 19.2 4.2 19.2 4 19 C 3.8 18.8 3.8 18.2 4 18 " fill = "rgb(26, 16, 7)" stroke = "rgb(26, 16, 7)" stroke-width = "0"/>
    <path d="M 5 18 C 5.2 17.8 5.8 17.8 6 18 C 6.2 18.2 6.2 18.8 6 19 C 5.8 19.2 5.2 19.2 5 19 C 4.8 18.8 4.8 18.2 5 18 " fill = "rgb(94, 49, 38)" stroke = "rgb(94, 49, 38)" stroke-width = "0"/>
    <path d="M 6 18 C 6.2 17.8 6.8 17.8 7 18 C 7.2 18.2 7.2 18.8 7 19 C 6.8 19.2 6.2 19.2 6 19 C 5.8 18.8 5.8 18.2 6 18 " fill = "rgb(67, 23, 11)" stroke = "rgb(67, 23, 11)" stroke-width = "0"/>
    <path d="M 7 18 C 7.2 17.8 7.8 17.8 8 18 C 8.2 18.2 8.2 18.8 8 19 C 7.8 19.2 7.2 19.2 7 19 C 6.8 18.8 6.8 18.2 7 18 " fill = "rgb(57, 13, 1)" stroke = "rgb(57, 13, 1)" stroke-width = "0"/>
    <path d="M 8 18 C 8.2 17.8 8.6 18 9 18 C 9.4 18 9.8 17.8 10 18 C 10.2 18.2 10.2 18.8 10 19 C 9.8 19.2 9.4 19 9 19 C 8.6 19 8.2 19.2 8 19 C 7.8 18.8 7.8 18.2 8 18 " fill = "rgb(58, 14, 3)" stroke = "rgb(58, 14, 3)" stroke-width = "0"/>
    <path d="M 10 18 C 10.2 17.8 10.8 17.8 11 18 C 11.2 18.2 11.2 18.8 11 19 C 10.8 19.2 10.2 19.2 10 19 C 9.8 18.8 9.8 18.2 10 18 " fill = "rgb(98, 36, 19)" stroke = "rgb(98, 36, 19)" stroke-width = "0"/>
    <path d="M 11 18 C 11.2 17.8 11.8 17.8 12 18 C 12.2 18.2 12.2 18.8 12 19 C 11.8 19.2 11.2 19.2 11 19 C 10.8 18.8 10.8 18.2 11 18 " fill = "rgb(100, 37, 20)" stroke = "rgb(100, 37, 20)" stroke-width = "0"/>
    <path d="M 12 18 C 12.2 17.8 12.8 17.8 13 18 C 13.2 18.2 13.2 18.8 13 19 C 12.8 19.2 12.2 19.2 12 19 C 11.8 18.8 11.8 18.2 12 18 " fill = "rgb(56, 12, 1)" stroke = "rgb(56, 12, 1)" stroke-width = "0"/>
    <path d="M 13 18 C 13.2 17.8 13.8 17.8 14 18 C 14.2 18.2 14.2 18.8 14 19 C 13.8 19.2 13.2 19.2 13 19 C 12.8 18.8 12.8 18.2 13 18 " fill = "rgb(60, 15, 3)" stroke = "rgb(60, 15, 3)" stroke-width = "0"/>
    <path d="M 14 18 C 14.2 17.8 14.8 17.8 15 18 C 15.2 18.2 15.2 18.8 15 19 C 14.8 19.2 14.2 19.2 14 19 C 13.8 18.8 13.8 18.2 14 18 " fill = "rgb(58, 14, 2)" stroke = "rgb(58, 14, 2)" stroke-width = "0"/>
    <path d="M 15 18 C 15.2 17.8 15.8 17.8 16 18 C 16.2 18.2 16.2 18.8 16 19 C 15.8 19.2 15.2 19.2 15 19 C 14.8 18.8 14.8 18.2 15 18 " fill = "rgb(72, 21, 8)" stroke = "rgb(72, 21, 8)" stroke-width = "0"/>
    <path d="M 16 18 C 16.2 17.8 16.8 17.8 17 18 C 17.2 18.2 17.2 18.8 17 19 C 16.8 19.2 16.2 19.2 16 19 C 15.8 18.8 15.8 18.2 16 18 " fill = "rgb(121, 46, 27)" stroke = "rgb(121, 46, 27)" stroke-width = "0"/>
    <path d="M 17 18 C 17.2 17.8 17.8 17.8 18 18 C 18.2 18.2 18.2 18.8 18 19 C 17.8 19.2 17.2 19.2 17 19 C 16.8 18.8 16.8 18.2 17 18 " fill = "rgb(123, 96, 88)" stroke = "rgb(123, 96, 88)" stroke-width = "0"/>
    <path d="M 18 18 C 18.2 17.8 18.8 17.8 19 18 C 19.2 18.2 19.2 18.8 19 19 C 18.8 19.2 18.2 19.2 18 19 C 17.8 18.8 17.8 18.2 18 18 " fill = "rgb(121, 83, 72)" stroke = "rgb(121, 83, 72)" stroke-width = "0"/>
    <path d="M 19 18 C 19.2 17.8 19.8 17.8 20 18 C 20.2 18.2 20.2 18.8 20 19 C 19.8 19.2 19.2 19.2 19 19 C 18.8 18.8 18.8 18.2 19 18 " fill = "rgb(126, 55, 34)" stroke = "rgb(126, 55, 34)" stroke-width = "0"/>
    <path d="M 20 18 C 20.2 17.8 20.8 17.8 21 18 C 21.2 18.2 21.2 18.8 21 19 C 20.8 19.2 20.2 19.2 20 19 C 19.8 18.8 19.8 18.2 20 18 " fill = "rgb(173, 112, 82)" stroke = "rgb(173, 112, 82)" stroke-width = "0"/>
    <path d="M 21 18 C 21.2 17.8 21.8 17.8 22 18 C 22.2 18.2 22.2 18.8 22 19 C 21.8 19.2 21.2 19.2 21 19 C 20.8 18.8 20.8 18.2 21 18 " fill = "rgb(66, 46, 30)" stroke = "rgb(66, 46, 30)" stroke-width = "0"/>
    <path d="M 22 18 C 22.2 17.8 22.8 17.8 23 18 C 23.2 18.2 23 18.6 23 19 C 23 19.4 23.2 19.8 23 20 C 22.8 20.2 22.2 20.2 22 20 C 21.8 19.8 22 19.4 22 19 C 22 18.6 21.8 18.2 22 18 " fill = "rgb(96, 97, 92)" stroke = "rgb(96, 97, 92)" stroke-width = "0"/>
    <path d="M 3 19 C 3.2 18.8 3.8 18.8 4 19 C 4.2 19.2 4.2 19.8 4 20 C 3.8 20.2 3.2 20.2 3 20 C 2.8 19.8 2.8 19.2 3 19 " fill = "rgb(133, 133, 129)" stroke = "rgb(133, 133, 129)" stroke-width = "0"/>
    <path d="M 4 19 C 4.2 18.8 4.8 18.8 5 19 C 5.2 19.2 5.2 19.8 5 20 C 4.8 20.2 4.2 20.2 4 20 C 3.8 19.8 3.8 19.2 4 19 " fill = "rgb(19, 19, 11)" stroke = "rgb(19, 19, 11)" stroke-width = "0"/>
    <path d="M 5 19 C 5.2 18.8 5.8 18.8 6 19 C 6.2 19.2 6.2 19.8 6 20 C 5.8 20.2 5.2 20.2 5 20 C 4.8 19.8 4.8 19.2 5 19 " fill = "rgb(59, 62, 54)" stroke = "rgb(59, 62, 54)" stroke-width = "0"/>
    <path d="M 6 19 C 6.2 18.8 6.8 18.8 7 19 C 7.2 19.2 7.2 19.8 7 20 C 6.8 20.2 6.2 20.2 6 20 C 5.8 19.8 5.8 19.2 6 19 " fill = "rgb(67, 64, 58)" stroke = "rgb(67, 64, 58)" stroke-width = "0"/>
    <path d="M 7 19 C 7.2 18.8 7.8 18.8 8 19 C 8.2 19.2 8.2 19.8 8 20 C 7.8 20.2 7.2 20.2 7 20 C 6.8 19.8 6.8 19.2 7 19 " fill = "rgb(67, 62, 52)" stroke = "rgb(67, 62, 52)" stroke-width = "0"/>
    <path d="M 8 19 C 8.2 18.8 8.8 18.8 9 19 C 9.2 19.2 9.2 19.8 9 20 C 8.8 20.2 8.2 20.2 8 20 C 7.8 19.8 7.8 19.2 8 19 " fill = "rgb(56, 53, 38)" stroke = "rgb(56, 53, 38)" stroke-width = "0"/>
    <path d="M 9 19 C 9.2 18.8 9.8 18.8 10 19 C 10.2 19.2 10.2 19.8 10 20 C 9.8 20.2 9.2 20.2 9 20 C 8.8 19.8 8.8 19.2 9 19 " fill = "rgb(28, 31, 22)" stroke = "rgb(28, 31, 22)" stroke-width = "0"/>
    <path d="M 10 19 C 10.2 18.8 10.8 18.8 11 19 C 11.2 19.2 11.2 19.8 11 20 C 10.8 20.2 10.2 20.2 10 20 C 9.8 19.8 9.8 19.2 10 19 " fill = "rgb(52, 50, 44)" stroke = "rgb(52, 50, 44)" stroke-width = "0"/>
    <path d="M 11 19 C 11.2 18.8 11.8 18.8 12 19 C 12.2 19.2 12.2 19.8 12 20 C 11.8 20.2 11.2 20.2 11 20 C 10.8 19.8 10.8 19.2 11 19 " fill = "rgb(66, 62, 53)" stroke = "rgb(66, 62, 53)" stroke-width = "0"/>
    <path d="M 12 19 C 12.2 18.8 12.8 18.8 13 19 C 13.2 19.2 13.2 19.8 13 20 C 12.8 20.2 12.2 20.2 12 20 C 11.8 19.8 11.8 19.2 12 19 " fill = "rgb(59, 56, 40)" stroke = "rgb(59, 56, 40)" stroke-width = "0"/>
    <path d="M 13 19 C 13.2 18.8 13.8 18.8 14 19 C 14.2 19.2 14.2 19.8 14 20 C 13.8 20.2 13.2 20.2 13 20 C 12.8 19.8 12.8 19.2 13 19 " fill = "rgb(31, 33, 24)" stroke = "rgb(31, 33, 24)" stroke-width = "0"/>
    <path d="M 14 19 C 14.2 18.8 14.8 18.8 15 19 C 15.2 19.2 15.2 19.8 15 20 C 14.8 20.2 14.2 20.2 14 20 C 13.8 19.8 13.8 19.2 14 19 " fill = "rgb(50, 48, 42)" stroke = "rgb(50, 48, 42)" stroke-width = "0"/>
    <path d="M 15 19 C 15.2 18.8 15.8 18.8 16 19 C 16.2 19.2 16.2 19.8 16 20 C 15.8 20.2 15.2 20.2 15 20 C 14.8 19.8 14.8 19.2 15 19 " fill = "rgb(68, 63, 55)" stroke = "rgb(68, 63, 55)" stroke-width = "0"/>
    <path d="M 16 19 C 16.2 18.8 16.8 18.8 17 19 C 17.2 19.2 17.2 19.8 17 20 C 16.8 20.2 16.2 20.2 16 20 C 15.8 19.8 15.8 19.2 16 19 " fill = "rgb(58, 56, 40)" stroke = "rgb(58, 56, 40)" stroke-width = "0"/>
    <path d="M 17 19 C 17.2 18.8 17.8 18.8 18 19 C 18.2 19.2 18.2 19.8 18 20 C 17.8 20.2 17.2 20.2 17 20 C 16.8 19.8 16.8 19.2 17 19 " fill = "rgb(31, 31, 21)" stroke = "rgb(31, 31, 21)" stroke-width = "0"/>
    <path d="M 18 19 C 18.2 18.8 18.8 18.8 19 19 C 19.2 19.2 19.2 19.8 19 20 C 18.8 20.2 18.2 20.2 18 20 C 17.8 19.8 17.8 19.2 18 19 " fill = "rgb(41, 40, 33)" stroke = "rgb(41, 40, 33)" stroke-width = "0"/>
    <path d="M 19 19 C 19.2 18.8 19.8 18.8 20 19 C 20.2 19.2 20.2 19.8 20 20 C 19.8 20.2 19.2 20.2 19 20 C 18.8 19.8 18.8 19.2 19 19 " fill = "rgb(84, 77, 68)" stroke = "rgb(84, 77, 68)" stroke-width = "0"/>
    <path d="M 20 19 C 20.2 18.8 20.8 18.8 21 19 C 21.2 19.2 21.2 19.8 21 20 C 20.8 20.2 20.2 20.2 20 20 C 19.8 19.8 19.8 19.2 20 19 " fill = "rgb(168, 151, 118)" stroke = "rgb(168, 151, 118)" stroke-width = "0"/>
    <path d="M 21 19 C 21.2 18.8 21.8 18.8 22 19 C 22.2 19.2 22.2 19.8 22 20 C 21.8 20.2 21.2 20.2 21 20 C 20.8 19.8 20.8 19.2 21 19 " fill = "rgb(66, 60, 42)" stroke = "rgb(66, 60, 42)" stroke-width = "0"/>
    <path d="M 3 20 C 3.2 19.8 3.8 19.8 4 20 C 4.2 20.2 4.2 20.8 4 21 C 3.8 21.2 3.2 21.2 3 21 C 2.8 20.8 2.8 20.2 3 20 " fill = "rgb(129, 129, 124)" stroke = "rgb(129, 129, 124)" stroke-width = "0"/>
    <path d="M 4 20 C 4.2 19.8 4.8 19.8 5 20 C 5.2 20.2 5.2 20.8 5 21 C 4.8 21.2 4.2 21.2 4 21 C 3.8 20.8 3.8 20.2 4 20 " fill = "rgb(2, 2, 0)" stroke = "rgb(2, 2, 0)" stroke-width = "0"/>
    <path d="M 5 20 C 5.2 19.8 5.8 19.8 6 20 C 6.2 20.2 6.2 20.8 6 21 C 5.8 21.2 5.2 21.2 5 21 C 4.8 20.8 4.8 20.2 5 20 " fill = "rgb(5, 7, 0)" stroke = "rgb(5, 7, 0)" stroke-width = "0"/>
    <path d="M 6 20 C 6.2 19.8 6.8 19.8 7 20 C 7.2 20.2 7.2 20.8 7 21 C 6.8 21.2 6.2 21.2 6 21 C 5.8 20.8 5.8 20.2 6 20 " fill = "rgb(198, 173, 172)" stroke = "rgb(198, 173, 172)" stroke-width = "0"/>
    <path d="M 7 20 C 7.2 19.8 7.8 19.8 8 20 C 8.2 20.2 8.2 20.8 8 21 C 7.8 21.2 7.2 21.2 7 21 C 6.8 20.8 6.8 20.2 7 20 " fill = "rgb(255, 225, 207)" stroke = "rgb(255, 225, 207)" stroke-width = "0"/>
    <path d="M 8 20 C 8.2 19.8 8.8 19.8 9 20 C 9.2 20.2 9.2 20.8 9 21 C 8.8 21.2 8.2 21.2 8 21 C 7.8 20.8 7.8 20.2 8 20 " fill = "rgb(206, 183, 143)" stroke = "rgb(206, 183, 143)" stroke-width = "0"/>
    <path d="M 9 20 C 9.2 19.8 9.8 19.8 10 20 C 10.2 20.2 10.2 20.8 10 21 C 9.8 21.2 9.2 21.2 9 21 C 8.8 20.8 8.8 20.2 9 20 " fill = "rgb(84, 83, 72)" stroke = "rgb(84, 83, 72)" stroke-width = "0"/>
    <path d="M 10 20 C 10.2 19.8 10.8 19.8 11 20 C 11.2 20.2 11.2 20.8 11 21 C 10.8 21.2 10.2 21.2 10 21 C 9.8 20.8 9.8 20.2 10 20 " fill = "rgb(198, 176, 174)" stroke = "rgb(198, 176, 174)" stroke-width = "0"/>
    <path d="M 11 20 C 11.2 19.8 11.8 19.8 12 20 C 12.2 20.2 12.2 20.8 12 21 C 11.8 21.2 11.2 21.2 11 21 C 10.8 20.8 10.8 20.2 11 20 " fill = "rgb(255, 227, 213)" stroke = "rgb(255, 227, 213)" stroke-width = "0"/>
    <path d="M 12 20 C 12.2 19.8 12.8 19.8 13 20 C 13.2 20.2 13.2 20.8 13 21 C 12.8 21.2 12.2 21.2 12 21 C 11.8 20.8 11.8 20.2 12 20 " fill = "rgb(220, 194, 151)" stroke = "rgb(220, 194, 151)" stroke-width = "0"/>
    <path d="M 13 20 C 13.2 19.8 13.8 19.8 14 20 C 14.2 20.2 14.2 20.8 14 21 C 13.8 21.2 13.2 21.2 13 21 C 12.8 20.8 12.8 20.2 13 20 " fill = "rgb(98, 94, 80)" stroke = "rgb(98, 94, 80)" stroke-width = "0"/>
    <path d="M 14 20 C 14.2 19.8 14.8 19.8 15 20 C 15.2 20.2 15.2 20.8 15 21 C 14.8 21.2 14.2 21.2 14 21 C 13.8 20.8 13.8 20.2 14 20 " fill = "rgb(179, 161, 158)" stroke = "rgb(179, 161, 158)" stroke-width = "0"/>
    <path d="M 15 20 C 15.2 19.8 15.8 19.8 16 20 C 16.2 20.2 16.2 20.8 16 21 C 15.8 21.2 15.2 21.2 15 21 C 14.8 20.8 14.8 20.2 15 20 " fill = "rgb(255, 231, 221)" stroke = "rgb(255, 231, 221)" stroke-width = "0"/>
    <path d="M 16 20 C 16.2 19.8 16.8 19.8 17 20 C 17.2 20.2 17.2 20.8 17 21 C 16.8 21.2 16.2 21.2 16 21 C 15.8 20.8 15.8 20.2 16 20 " fill = "rgb(231, 203, 158)" stroke = "rgb(231, 203, 158)" stroke-width = "0"/>
    <path d="M 17 20 C 17.2 19.8 17.8 19.8 18 20 C 18.2 20.2 18.2 20.8 18 21 C 17.8 21.2 17.2 21.2 17 21 C 16.8 20.8 16.8 20.2 17 20 " fill = "rgb(112, 106, 88)" stroke = "rgb(112, 106, 88)" stroke-width = "0"/>
    <path d="M 18 20 C 18.2 19.8 18.8 19.8 19 20 C 19.2 20.2 19.2 20.8 19 21 C 18.8 21.2 18.2 21.2 18 21 C 17.8 20.8 17.8 20.2 18 20 " fill = "rgb(162, 147, 143)" stroke = "rgb(162, 147, 143)" stroke-width = "0"/>
    <path d="M 19 20 C 19.2 19.8 19.8 19.8 20 20 C 20.2 20.2 20.2 20.8 20 21 C 19.8 21.2 19.2 21.2 19 21 C 18.8 20.8 18.8 20.2 19 20 " fill = "rgb(237, 206, 206)" stroke = "rgb(237, 206, 206)" stroke-width = "0"/>
    <path d="M 20 20 C 20.2 19.8 20.8 19.8 21 20 C 21.2 20.2 21.2 20.8 21 21 C 20.8 21.2 20.2 21.2 20 21 C 19.8 20.8 19.8 20.2 20 20 " fill = "rgb(27, 26, 19)" stroke = "rgb(27, 26, 19)" stroke-width = "0"/>
    <path d="M 21 20 C 21.2 19.8 21.8 19.8 22 20 C 22.2 20.2 22.2 20.8 22 21 C 21.8 21.2 21.2 21.2 21 21 C 20.8 20.8 20.8 20.2 21 20 " fill = "rgb(2, 3, 0)" stroke = "rgb(2, 3, 0)" stroke-width = "0"/>
    <path d="M 22 20 C 22.2 19.8 22.8 19.8 23 20 C 23.2 20.2 23.2 20.8 23 21 C 22.8 21.2 22.2 21.2 22 21 C 21.8 20.8 21.8 20.2 22 20 " fill = "rgb(93, 93, 88)" stroke = "rgb(93, 93, 88)" stroke-width = "0"/>
    <path d="M 3 21 C 3.15 20.85 3.8 20.8 4 21 C 4.2 21.2 4.15 21.85 4 22 C 3.85 22.15 3.45 21.95 3.25 21.75 C 3.05 21.55 2.85 21.15 3 21 " fill = "rgb(224, 224, 223)" stroke = "rgb(224, 224, 223)" stroke-width = "0"/>
    <path d="M 4 21 C 4.2 20.8 4.8 20.8 5 21 C 5.2 21.2 5.2 21.8 5 22 C 4.8 22.2 4.2 22.2 4 22 C 3.8 21.8 3.8 21.2 4 21 " fill = "rgb(150, 150, 147)" stroke = "rgb(150, 150, 147)" stroke-width = "0"/>
    <path d="M 5 21 C 5.2 20.8 5.8 20.8 6 21 C 6.2 21.2 6.2 21.8 6 22 C 5.8 22.2 5.2 22.2 5 22 C 4.8 21.8 4.8 21.2 5 21 " fill = "rgb(7, 7, 0)" stroke = "rgb(7, 7, 0)" stroke-width = "0"/>
    <path d="M 6 21 C 6.2 20.8 6.8 20.8 7 21 C 7.2 21.2 7.2 21.8 7 22 C 6.8 22.2 6.2 22.2 6 22 C 5.8 21.8 5.8 21.2 6 21 " fill = "rgb(57, 50, 44)" stroke = "rgb(57, 50, 44)" stroke-width = "0"/>
    <path d="M 7 21 C 7.2 20.8 7.8 20.8 8 21 C 8.2 21.2 8.2 21.8 8 22 C 7.8 22.2 7.2 22.2 7 22 C 6.8 21.8 6.8 21.2 7 21 " fill = "rgb(72, 64, 53)" stroke = "rgb(72, 64, 53)" stroke-width = "0"/>
    <path d="M 8 21 C 8.2 20.8 8.8 20.8 9 21 C 9.2 21.2 9.2 21.8 9 22 C 8.8 22.2 8.2 22.2 8 22 C 7.8 21.8 7.8 21.2 8 21 " fill = "rgb(59, 53, 37)" stroke = "rgb(59, 53, 37)" stroke-width = "0"/>
    <path d="M 9 21 C 9.2 20.8 9.8 20.8 10 21 C 10.2 21.2 10.2 21.8 10 22 C 9.8 22.2 9.2 22.2 9 22 C 8.8 21.8 8.8 21.2 9 21 " fill = "rgb(27, 27, 18)" stroke = "rgb(27, 27, 18)" stroke-width = "0"/>
    <path d="M 10 21 C 10.2 20.8 10.8 20.8 11 21 C 11.2 21.2 11.2 21.8 11 22 C 10.8 22.2 10.2 22.2 10 22 C 9.8 21.8 9.8 21.2 10 21 " fill = "rgb(57, 51, 45)" stroke = "rgb(57, 51, 45)" stroke-width = "0"/>
    <path d="M 11 21 C 11.2 20.8 11.8 20.8 12 21 C 12.2 21.2 12.2 21.8 12 22 C 11.8 22.2 11.2 22.2 11 22 C 10.8 21.8 10.8 21.2 11 21 " fill = "rgb(73, 64, 55)" stroke = "rgb(73, 64, 55)" stroke-width = "0"/>
    <path d="M 12 21 C 12.2 20.8 12.8 20.8 13 21 C 13.2 21.2 13.2 21.8 13 22 C 12.8 22.2 12.2 22.2 12 22 C 11.8 21.8 11.8 21.2 12 21 " fill = "rgb(62, 56, 39)" stroke = "rgb(62, 56, 39)" stroke-width = "0"/>
    <path d="M 13 21 C 13.2 20.8 13.8 20.8 14 21 C 14.2 21.2 14.2 21.8 14 22 C 13.8 22.2 13.2 22.2 13 22 C 12.8 21.8 12.8 21.2 13 21 " fill = "rgb(31, 30, 20)" stroke = "rgb(31, 30, 20)" stroke-width = "0"/>
    <path d="M 14 21 C 14.2 20.8 14.8 20.8 15 21 C 15.2 21.2 15.2 21.8 15 22 C 14.8 22.2 14.2 22.2 14 22 C 13.8 21.8 13.8 21.2 14 21 " fill = "rgb(52, 47, 41)" stroke = "rgb(52, 47, 41)" stroke-width = "0"/>
    <path d="M 15 21 C 15.2 20.8 15.8 20.8 16 21 C 16.2 21.2 16.2 21.8 16 22 C 15.8 22.2 15.2 22.2 15 22 C 14.8 21.8 14.8 21.2 15 21 " fill = "rgb(74, 65, 57)" stroke = "rgb(74, 65, 57)" stroke-width = "0"/>
    <path d="M 16 21 C 16.2 20.8 16.8 20.8 17 21 C 17.2 21.2 17.2 21.8 17 22 C 16.8 22.2 16.2 22.2 16 22 C 15.8 21.8 15.8 21.2 16 21 " fill = "rgb(65, 58, 40)" stroke = "rgb(65, 58, 40)" stroke-width = "0"/>
    <path d="M 17 21 C 17.2 20.8 17.8 20.8 18 21 C 18.2 21.2 18.2 21.8 18 22 C 17.8 22.2 17.2 22.2 17 22 C 16.8 21.8 16.8 21.2 17 21 " fill = "rgb(34, 33, 22)" stroke = "rgb(34, 33, 22)" stroke-width = "0"/>
    <path d="M 18 21 C 18.2 20.8 18.8 20.8 19 21 C 19.2 21.2 19.2 21.8 19 22 C 18.8 22.2 18.2 22.2 18 22 C 17.8 21.8 17.8 21.2 18 21 " fill = "rgb(48, 44, 37)" stroke = "rgb(48, 44, 37)" stroke-width = "0"/>
    <path d="M 19 21 C 19.2 20.8 19.8 20.8 20 21 C 20.2 21.2 20.2 21.8 20 22 C 19.8 22.2 19.2 22.2 19 22 C 18.8 21.8 18.8 21.2 19 21 " fill = "rgb(68, 60, 53)" stroke = "rgb(68, 60, 53)" stroke-width = "0"/>
    <path d="M 20 21 C 20.2 20.8 20.8 20.8 21 21 C 21.2 21.2 21.2 21.8 21 22 C 20.8 22.2 20.2 22.2 20 22 C 19.8 21.8 19.8 21.2 20 21 " fill = "rgb(8, 7, 0)" stroke = "rgb(8, 7, 0)" stroke-width = "0"/>
    <path d="M 21 21 C 21.2 20.8 21.8 20.8 22 21 C 22.2 21.2 22.2 21.8 22 22 C 21.8 22.2 21.2 22.2 21 22 C 20.8 21.8 20.8 21.2 21 21 " fill = "rgb(125, 125, 121)" stroke = "rgb(125, 125, 121)" stroke-width = "0"/>
    <path d="M 22 21 C 22.2 20.8 22.85 20.85 23 21 C 23.15 21.15 22.95 21.55 22.75 21.75 C 22.55 21.95 22.15 22.15 22 22 C 21.85 21.85 21.8 21.2 22 21 " fill = "rgb(216, 216, 215)" stroke = "rgb(216, 216, 215)" stroke-width = "0"/>
    <path d="M 4 22 C 4.15 21.85 4.8 21.8 5 22 C 5.2 22.2 5.15 22.85 5 23 C 4.85 23.15 4.45 22.95 4.25 22.75 C 4.05 22.55 3.85 22.15 4 22 " fill = "rgb(228, 228, 227)" stroke = "rgb(228, 228, 227)" stroke-width = "0"/>
    <path d="M 5 22 C 5.2 21.8 5.8 21.8 6 22 C 6.2 22.2 6.2 22.8 6 23 C 5.8 23.2 5.2 23.2 5 23 C 4.8 22.8 4.8 22.2 5 22 " fill = "rgb(114, 114, 109)" stroke = "rgb(114, 114, 109)" stroke-width = "0"/>
    <path d="M 6 22 C 6.2 21.8 6.8 21.8 7 22 C 7.2 22.2 7.2 22.8 7 23 C 6.8 23.2 6.2 23.2 6 23 C 5.8 22.8 5.8 22.2 6 22 " fill = "rgb(112, 112, 107)" stroke = "rgb(112, 112, 107)" stroke-width = "0"/>
    <path d="M 7 22 C 7.2 21.8 7.8 21.8 8 22 C 8.2 22.2 8.2 22.8 8 23 C 7.8 23.2 7.2 23.2 7 23 C 6.8 22.8 6.8 22.2 7 22 " fill = "rgb(111, 112, 107)" stroke = "rgb(111, 112, 107)" stroke-width = "0"/>
    <path d="M 8 22 C 8.2 21.8 8.8 21.8 9 22 C 9.2 22.2 9.2 22.8 9 23 C 8.8 23.2 8.2 23.2 8 23 C 7.8 22.8 7.8 22.2 8 22 " fill = "rgb(112, 112, 108)" stroke = "rgb(112, 112, 108)" stroke-width = "0"/>
    <path d="M 9 22 C 9.2 21.8 9.8 21.8 10 22 C 10.2 22.2 10.2 22.8 10 23 C 9.8 23.2 9.2 23.2 9 23 C 8.8 22.8 8.8 22.2 9 22 " fill = "rgb(114, 114, 109)" stroke = "rgb(114, 114, 109)" stroke-width = "0"/>
    <path d="M 10 22 C 10.2 21.8 10.8 21.8 11 22 C 11.2 22.2 11.2 22.8 11 23 C 10.8 23.2 10.2 23.2 10 23 C 9.8 22.8 9.8 22.2 10 22 " fill = "rgb(112, 112, 108)" stroke = "rgb(112, 112, 108)" stroke-width = "0"/>
    <path d="M 11 22 C 11.2 21.8 11.8 21.8 12 22 C 12.2 22.2 12.2 22.8 12 23 C 11.8 23.2 11.2 23.2 11 23 C 10.8 22.8 10.8 22.2 11 22 " fill = "rgb(111, 112, 107)" stroke = "rgb(111, 112, 107)" stroke-width = "0"/>
    <path d="M 12 22 C 12.2 21.8 12.8 21.8 13 22 C 13.2 22.2 13.2 22.8 13 23 C 12.8 23.2 12.2 23.2 12 23 C 11.8 22.8 11.8 22.2 12 22 " fill = "rgb(112, 112, 108)" stroke = "rgb(112, 112, 108)" stroke-width = "0"/>
    <path d="M 13 22 C 13.2 21.8 13.8 21.8 14 22 C 14.2 22.2 14.2 22.8 14 23 C 13.8 23.2 13.2 23.2 13 23 C 12.8 22.8 12.8 22.2 13 22 " fill = "rgb(113, 113, 109)" stroke = "rgb(113, 113, 109)" stroke-width = "0"/>
    <path d="M 14 22 C 14.2 21.8 14.8 21.8 15 22 C 15.2 22.2 15.2 22.8 15 23 C 14.8 23.2 14.2 23.2 14 23 C 13.8 22.8 13.8 22.2 14 22 " fill = "rgb(112, 113, 108)" stroke = "rgb(112, 113, 108)" stroke-width = "0"/>
    <path d="M 15 22 C 15.2 21.8 15.8 21.8 16 22 C 16.2 22.2 16.2 22.8 16 23 C 15.8 23.2 15.2 23.2 15 23 C 14.8 22.8 14.8 22.2 15 22 " fill = "rgb(111, 112, 107)" stroke = "rgb(111, 112, 107)" stroke-width = "0"/>
    <path d="M 16 22 C 16.2 21.8 16.8 21.8 17 22 C 17.2 22.2 17.2 22.8 17 23 C 16.8 23.2 16.2 23.2 16 23 C 15.8 22.8 15.8 22.2 16 22 " fill = "rgb(111, 112, 108)" stroke = "rgb(111, 112, 108)" stroke-width = "0"/>
    <path d="M 17 22 C 17.2 21.8 17.8 21.8 18 22 C 18.2 22.2 18.2 22.8 18 23 C 17.8 23.2 17.2 23.2 17 23 C 16.8 22.8 16.8 22.2 17 22 " fill = "rgb(113, 113, 109)" stroke = "rgb(113, 113, 109)" stroke-width = "0"/>
    <path d="M 18 22 C 18.2 21.8 18.8 21.8 19 22 C 19.2 22.2 19.2 22.8 19 23 C 18.8 23.2 18.2 23.2 18 23 C 17.8 22.8 17.8 22.2 18 22 " fill = "rgb(112, 113, 108)" stroke = "rgb(112, 113, 108)" stroke-width = "0"/>
    <path d="M 19 22 C 19.2 21.8 19.8 21.8 20 22 C 20.2 22.2 20.2 22.8 20 23 C 19.8 23.2 19.2 23.2 19 23 C 18.8 22.8 18.8 22.2 19 22 " fill = "rgb(112, 112, 107)" stroke = "rgb(112, 112, 107)" stroke-width = "0"/>
    <path d="M 20 22 C 20.2 21.8 20.8 21.8 21 22 C 21.2 22.2 21.2 22.8 21 23 C 20.8 23.2 20.2 23.2 20 23 C 19.8 22.8 19.8 22.2 20 22 " fill = "rgb(110, 110, 105)" stroke = "rgb(110, 110, 105)" stroke-width = "0"/>
    <path d="M 21 22 C 21.2 21.8 21.85 21.85 22 22 C 22.15 22.15 21.95 22.55 21.75 22.75 C 21.55 22.95 21.15 23.15 21 23 C 20.85 22.85 20.8 22.2 21 22 " fill = "rgb(208, 208, 206)" stroke = "rgb(208, 208, 206)" stroke-width = "0"/>
    <path d="M 0 23 C 0.2 22.8 0.65 22.95 1 23 C 1.35 23.05 1.55 23.05 1.75 23.25 C 1.95 23.45 2.15 23.85 2 24 C 1.85 24.15 1.4 24 1 24 C 0.6 24 0.2 24.2 0 24 C -0.2 23.8 -0.2 23.2 0 23 " fill = "rgb(254, 254, 254)" stroke = "rgb(254, 254, 254)" stroke-width = "0"/>
    <path d="M 22.25 23.25 C 22.4 23.1 22.6 23.1 22.75 23.25 C 22.9 23.4 23.15 23.85 23 24 C 22.85 24.15 22.15 24.15 22 24 C 21.85 23.85 22.1 23.4 22.25 23.25 " fill = "rgb(254, 254, 254)" stroke = "rgb(254, 254, 254)" stroke-width = "0"/>
</svg>
